<?xml version="1.0"?>
<svg xmlns="http://www.w3.org/2000/svg" viewBox="0 0 64 64" width="512" height="512"><title>a</title><g id="_01_Animal_Rescue" data-name="01 Animal Rescue"><path d="M54.013,34H51.987A6,6,0,0,1,46,27.987,10,10,0,0,0,36.013,18H27.987A10,10,0,0,0,18,28.013,5.993,5.993,0,0,1,12.013,34H9.987A10,10,0,0,0,0,43.987V54.013A10,10,0,0,0,9.987,64H54.013A10,10,0,0,0,64,54.013V43.987A10,10,0,0,0,54.013,34ZM60,54.013A5.993,5.993,0,0,1,54.013,60H9.987A5.993,5.993,0,0,1,4,54.013V43.987A5.993,5.993,0,0,1,9.987,38h2.026A10,10,0,0,0,22,27.987,5.993,5.993,0,0,1,27.987,22h8.026A6,6,0,0,1,42,28.013,10,10,0,0,0,51.987,38h2.026A5.993,5.993,0,0,1,60,43.987Z"/><path d="M8,30a8,8,0,1,0-8-8A8.009,8.009,0,0,0,8,30ZM8,18a4,4,0,1,1-4,4A4,4,0,0,1,8,18Z"/><path d="M56,30a8,8,0,1,0-8-8A8.009,8.009,0,0,0,56,30Zm0-12a4,4,0,1,1-4,4A4,4,0,0,1,56,18Z"/><path d="M42,16a8,8,0,1,0-8-8A8.009,8.009,0,0,0,42,16ZM42,4a4,4,0,1,1-4,4A4,4,0,0,1,42,4Z"/><path d="M22,16a8,8,0,1,0-8-8A8.009,8.009,0,0,0,22,16ZM22,4a4,4,0,1,1-4,4A4,4,0,0,1,22,4Z"/><path d="M41,39H38V36a2,2,0,0,0-2-2H28a2,2,0,0,0-2,2v3H23a2,2,0,0,0-2,2v8a2,2,0,0,0,2,2h3v3a2,2,0,0,0,2,2h8a2,2,0,0,0,2-2V51h3a2,2,0,0,0,2-2V41A2,2,0,0,0,41,39Zm-2,8H36a2,2,0,0,0-2,2v3H30V49a2,2,0,0,0-2-2H25V43h3a2,2,0,0,0,2-2V38h4v3a2,2,0,0,0,2,2h3Z"/></g></svg>
