<svg id="bag" enable-background="new 0 0 300 300" height="512" viewBox="0 0 300 300" width="512" xmlns="http://www.w3.org/2000/svg"><g><path d="m234.421 116h-32.391v-12.9c0-12.736-10.363-23.1-23.098-23.1h-61.802c-12.736 0-23.1 10.363-23.1 23.1v12.9h-36.456c-13.018 0-23.607 10.59-23.607 23.607v100.785c0 13.018 10.59 23.607 23.607 23.607h176.848c13.02 0 23.609-10.59 23.609-23.607v-100.785c0-13.017-10.59-23.607-23.61-23.607zm-132.39-12.9c0-8.326 6.773-15.1 15.1-15.1h61.803c8.324 0 15.098 6.773 15.098 15.1v16.9c0 2.205-1.793 4-4 4s-4-1.795-4-4v-16.9c0-3.914-3.184-7.1-7.098-7.1h-61.804c-3.914 0-7.1 3.186-7.1 7.1v16.9c0 2.205-1.795 4-4 4s-4-1.795-4-4v-16.9zm76 12.9h-60v-12h60zm-120.457 8h37.194c1.656 4.646 6.055 8 11.263 8s9.606-3.354 11.263-8h61.474c1.656 4.646 6.055 8 11.263 8s9.606-3.354 11.263-8h33.128c8.605 0 15.609 7.002 15.609 15.607v16.018h-108v-3.66c0-8.822-7.178-16-16-16s-16 7.178-16 16v3.66h-8v-3.66c0-8.822-7.178-16-16-16s-16 7.178-16 16v3.66h-28.065v-16.018c0-8.605 7.002-15.607 15.608-15.607zm76.457 27.965v16.512c0 4.412-3.588 8-8 8s-8-3.588-8-8v-16.512c0-4.412 3.588-8 8-8s8 3.588 8 8zm-40 0v16.512c0 4.412-3.588 8-8 8s-8-3.588-8-8v-16.512c0-4.412 3.588-8 8-8s8 3.588 8 8zm140.39 104.035h-176.847c-8.605 0-15.607-7.002-15.607-15.607v-76.768h28.064v4.852c0 8.822 7.178 16 16 16s16-7.178 16-16v-4.852h8v4.852c0 8.822 7.178 16 16 16s16-7.178 16-16v-4.852h108v76.768c0 8.605-7.004 15.607-15.61 15.607z"/><path d="m230.031 52c2.211 0 4-1.791 4-4v-8c0-2.209-1.789-4-4-4s-4 1.791-4 4v8c0 2.209 1.789 4 4 4z"/><path d="m230.031 60c-2.211 0-4 1.791-4 4v8c0 2.209 1.789 4 4 4s4-1.791 4-4v-8c0-2.209-1.789-4-4-4z"/><path d="m214.031 60h8c2.211 0 4-1.791 4-4s-1.789-4-4-4h-8c-2.211 0-4 1.791-4 4s1.789 4 4 4z"/><path d="m238.031 60h8c2.211 0 4-1.791 4-4s-1.789-4-4-4h-8c-2.211 0-4 1.791-4 4s1.789 4 4 4z"/><path d="m261.757 87.434c-2.362 0-4.276 1.915-4.276 4.277s1.915 4.276 4.276 4.276 4.277-1.915 4.277-4.276-1.915-4.277-4.277-4.277z"/><path d="m208.789 221.35c-1.672-1.186-2.633-2.908-2.633-4.727 0-7.221-5.418-13.162-12.336-13.523-3.582-.197-7.043 1.07-9.664 3.559-2.582 2.449-4.062 5.896-4.062 9.455v.51c0 1.818-.961 3.541-2.633 4.727-4.156 2.945-6.262 7.92-5.496 12.979.82 5.447 5.148 10.014 10.523 11.102.914.186 1.84.277 2.758.277 1.387 0 2.762-.209 4.07-.625 2.523-.805 5.09-.801 7.613 0 2.18.688 4.535.812 6.832.348 5.375-1.088 9.699-5.654 10.523-11.102.762-5.066-1.343-10.039-5.495-12.98zm-2.418 11.787c-.324 2.152-2.09 4.025-4.195 4.451-.984.201-1.93.152-2.824-.131-4.082-1.295-8.383-1.291-12.457 0-.895.281-1.84.33-2.82.133-2.105-.428-3.871-2.301-4.199-4.457-.316-2.086.512-4.051 2.211-5.256 3.762-2.666 6.008-6.873 6.008-11.254v-.51c0-1.395.559-2.691 1.57-3.652.941-.896 2.164-1.381 3.461-1.381.09 0 .184.004.273.008 2.625.139 4.758 2.621 4.758 5.535 0 4.381 2.246 8.588 6.008 11.254 1.698 1.203 2.522 3.17 2.206 5.26z"/><path d="m224.292 200.346c-6.816 0-12.363 5.545-12.363 12.361s5.547 12.361 12.363 12.361 12.359-5.545 12.359-12.361-5.542-12.361-12.359-12.361zm0 16.722c-2.406 0-4.363-1.957-4.363-4.361s1.957-4.361 4.363-4.361c2.402 0 4.359 1.957 4.359 4.361s-1.956 4.361-4.359 4.361z"/><path d="m208.707 201.693c6.816 0 12.363-5.545 12.363-12.361s-5.547-12.361-12.363-12.361-12.359 5.545-12.359 12.361 5.542 12.361 12.359 12.361zm0-16.722c2.406 0 4.363 1.957 4.363 4.361s-1.957 4.361-4.363 4.361c-2.402 0-4.359-1.957-4.359-4.361s1.956-4.361 4.359-4.361z"/><path d="m181.437 201.693c6.816 0 12.359-5.545 12.359-12.361s-5.543-12.361-12.359-12.361-12.363 5.545-12.363 12.361 5.547 12.361 12.363 12.361zm0-16.722c2.402 0 4.359 1.957 4.359 4.361s-1.957 4.361-4.359 4.361c-2.406 0-4.363-1.957-4.363-4.361s1.957-4.361 4.363-4.361z"/><path d="m161.957 200.346c-6.816 0-12.363 5.545-12.363 12.361s5.547 12.361 12.363 12.361 12.359-5.545 12.359-12.361-5.543-12.361-12.359-12.361zm0 16.722c-2.406 0-4.363-1.957-4.363-4.361s1.957-4.361 4.363-4.361c2.402 0 4.359 1.957 4.359 4.361s-1.957 4.361-4.359 4.361z"/></g></svg>