<svg id="bandage_x5F_cat" enable-background="new 0 0 300 300" height="512" viewBox="0 0 300 300" width="512" xmlns="http://www.w3.org/2000/svg"><g><path d="m229.686 80.107c-1.412-.656-3.074-.436-4.264.566l-34.716 29.235c-7.539-5.671-16.017-10.496-25.434-13.43-38.252-11.918-55.672 9.168-56.396 10.074-.029.036-.033.08-.06.116-4.403 2.55-8.52 5.589-12.252 9.126l-50.265-35.331c-1.221-.863-2.82-.967-4.145-.277-1.324.688-2.156 2.057-2.156 3.549v83.215c0 52.936 43.066 96 96 96 24.956 0 48.411-9.467 66.362-26.668l13.415-9.236c7.809-5.379 12.988-13.025 14.582-21.533.916-4.881.77-9.801-.436-14.623l-1.572-6.285 2.053-6.16c1.21-3.631 1.684-7.403 1.522-11.128.012-.127.074-.236.074-.366v-83.217c.001-1.556-.902-2.97-2.312-3.627zm-5.687 12.225v54.639c-5.762-9.027-14.857-21.362-26.948-31.944zm-167.165 113.018h30.764c2.209 0 4-1.791 4-4s-1.791-4-4-4h-34.182c-.964-2.61-1.802-5.281-2.519-8h20.701c2.209 0 4-1.791 4-4s-1.791-4-4-4h-22.4-.001c-.775-4.689-1.198-9.495-1.198-14.401v-75.513l46.711 32.834c1.625 1.145 3.836.924 5.197-.514 3.571-3.75 7.595-6.938 11.947-9.576 35.088 29.575 61.665 67.144 83.308 117.771-16.233 14.807-37.031 22.998-59.163 22.998-34.764 0-64.878-20.265-79.165-49.599zm163.471-19.936 1.855 7.414c.924 3.697 1.037 7.467.334 11.209-1.186 6.324-5.289 12.309-11.256 16.418l-9.479 6.527c-21.816-50.459-48.576-88.199-83.762-118.125 5.707-4.535 20.092-12.473 44.895-4.742 30.27 9.434 50.762 40.504 58.168 53.424 3.166 5.523 3.805 12.219 1.752 18.373l-2.422 7.266c-.239.722-.268 1.498-.085 2.236z"/><path d="m135.999 182.629c-10.672 0-18.721 5.125-18.721 11.922 0 5.584 7.561 22.398 18.721 22.398s18.721-16.814 18.721-22.398c-.001-6.797-8.05-11.922-18.721-11.922zm0 26.32c-5.139 0-10.721-11.439-10.721-14.398 0-1.008 3.686-3.922 10.721-3.922s10.721 2.914 10.721 3.922c-.001 2.959-5.583 14.398-10.721 14.398z"/><path d="m108.398 157.75c-5.081 0-9.2 4.119-9.2 9.2s4.119 9.2 9.2 9.2 9.2-4.119 9.2-9.2-4.119-9.2-9.2-9.2z"/><path d="m207.999 53.051c2.209 0 4-1.791 4-4v-8c0-2.209-1.791-4-4-4s-4 1.791-4 4v8c0 2.209 1.791 4 4 4z"/><path d="m207.999 61.051c-2.209 0-4 1.791-4 4v8c0 2.209 1.791 4 4 4s4-1.791 4-4v-8c0-2.209-1.791-4-4-4z"/><path d="m191.999 61.051h8c2.209 0 4-1.791 4-4s-1.791-4-4-4h-8c-2.209 0-4 1.791-4 4s1.791 4 4 4z"/><path d="m215.999 61.051h8c2.209 0 4-1.791 4-4s-1.791-4-4-4h-8c-2.209 0-4 1.791-4 4s1.791 4 4 4z"/><path d="m255.725 72.485c-2.362 0-4.276 1.915-4.276 4.277s1.915 4.276 4.276 4.276 4.277-1.915 4.277-4.276-1.915-4.277-4.277-4.277z"/><path d="m154.323 113.795c-1.797-1.283-4.297-.867-5.58.932-1.283 1.797-.867 4.295.932 5.58.27.193 27.221 19.656 38.648 46.32.648 1.516 2.125 2.426 3.678 2.426.525 0 1.061-.105 1.574-.326 2.029-.869 2.971-3.221 2.1-5.252-12.3-28.7-40.171-48.836-41.352-49.68z"/></g></svg>