<?xml version="1.0"?>
<svg xmlns="http://www.w3.org/2000/svg" viewBox="0 0 64 64" width="512" height="512"><title>a</title><g id="_03_Animal_Shelter" data-name="03 Animal Shelter"><path d="M19.414,17.414,20,16.828V26a2,2,0,0,0,2,2H42a2,2,0,0,0,2-2V16.828l.586.586a2,2,0,0,0,2.828-2.828l-4-4-10-10a2,2,0,0,0-2.828,0l-10,10-4,4a2,2,0,0,0,2.828,2.828ZM30,24V20a2,2,0,0,1,4,0v4ZM40,12.829V24H38V20a6,6,0,0,0-12,0v4H24V12.829l8-8Z"/><path d="M58,16a6.158,6.158,0,0,0-6,6v9.022l-1.215.945c-.063-.07-.129-.138-.195-.205l0,0,0,0-.341-.341a6.01,6.01,0,0,0-8.485,0l-4.345,4.343A13,13,0,0,0,34,44V62a2,2,0,0,0,2,2H52a2,2,0,0,0,2-2V54.536l9.732-16.855a2.006,2.006,0,0,0,.268-1V22A6.158,6.158,0,0,0,58,16ZM50,60H38V56H50ZM60,36.145,50.846,52H38V44a9.255,9.255,0,0,1,2.242-5.414l4.345-4.344a2.059,2.059,0,0,1,2.828,0l.34.339,0,0,.008.01a1.94,1.94,0,0,1,.487.883c.01.038.031.071.043.108a2,2,0,0,1-.537,1.828l-1.172,1.172a2,2,0,1,0,2.828,2.828l1.173-1.172a5.97,5.97,0,0,0,1.737-4.405l2.9-2.258A2,2,0,0,0,56,32V22a2,2,0,0,1,4,0Z"/><path d="M22.243,31.414a6.011,6.011,0,0,0-8.487,0l-.341.341c-.068.068-.135.139-.2.21L12,31.021V22a6.159,6.159,0,0,0-6-6,6.156,6.156,0,0,0-6,6V36.681a2,2,0,0,0,.268,1L10,54.535V62a2,2,0,0,0,2,2H28a2,2,0,0,0,2-2V44a12.985,12.985,0,0,0-3.415-8.242ZM4,22a2.168,2.168,0,0,1,2-2,2.169,2.169,0,0,1,2,2V32a2,2,0,0,0,.772,1.579l2.9,2.258a5.963,5.963,0,0,0,1.738,4.405l1.171,1.172a2,2,0,0,0,2.83-2.828l-1.172-1.172a2,2,0,0,1-.539-1.828c.012-.036.033-.068.043-.105a1.943,1.943,0,0,1,.5-.9l.341-.342a2.063,2.063,0,0,1,2.83,0l4.342,4.343A9.248,9.248,0,0,1,26,44v8H13.155L4,36.145ZM26,60H14V56H26Z"/></g></svg>
