<svg height="512" viewBox="0 0 64 64" width="512" xmlns="http://www.w3.org/2000/svg"><g id="_04_Bird_House" data-name="04 Bird House"><path d="m53.414 20.586-6-6-14-14a2 2 0 0 0 -2.828 0l-14 14-6 6a2 2 0 0 0 2.828 2.828l3.252-3.252 2.974 17.838h-3.64a2 2 0 0 0 0 4h4a6.006 6.006 0 0 0 6 6h4v14a2 2 0 0 0 4 0v-14h4a6.006 6.006 0 0 0 6-6h4a2 2 0 0 0 0-4h-3.64l2.974-17.838 3.252 3.252a2 2 0 0 0 2.828-2.828zm-15.414 23.414h-12a2 2 0 0 1 -2-2h16a2 2 0 0 1 -2 2zm2.306-6h-16.612l-3.552-21.314 11.858-11.857 11.858 11.857z"/><path d="m26 26a6 6 0 1 0 6-6 6.006 6.006 0 0 0 -6 6zm8 0a2 2 0 1 1 -2-2 2 2 0 0 1 2 2z"/></g></svg>