<svg id="bandage_x5F_dog" enable-background="new 0 0 300 300" height="512" viewBox="0 0 300 300" width="512" xmlns="http://www.w3.org/2000/svg"><g><path d="m224.933 58c2.209 0 4-1.791 4-4v-8c0-2.209-1.791-4-4-4s-4 1.791-4 4v8c0 2.209 1.791 4 4 4z"/><path d="m224.933 66c-2.209 0-4 1.791-4 4v8c0 2.209 1.791 4 4 4s4-1.791 4-4v-8c0-2.209-1.791-4-4-4z"/><path d="m216.933 58h-8c-2.209 0-4 1.791-4 4s1.791 4 4 4h8c2.209 0 4-1.791 4-4s-1.791-4-4-4z"/><path d="m240.933 58h-8c-2.209 0-4 1.791-4 4s1.791 4 4 4h8c2.209 0 4-1.791 4-4s-1.791-4-4-4z"/><path d="m256.659 93.434c-2.362 0-4.276 1.915-4.276 4.277s1.915 4.276 4.276 4.276 4.277-1.915 4.277-4.276-1.915-4.277-4.277-4.277z"/><path d="m101.944 144.312c-3.986 0-7.218 3.231-7.218 7.217s3.231 7.218 7.218 7.218 7.218-3.231 7.218-7.218-3.232-7.217-7.218-7.217z"/><path d="m213.093 142.064c-4.145-7.5-12.34-20.749-24.079-32.92.01-.116.067-.216.067-.334v-40.417c0-1.588-.939-3.025-2.395-3.664-1.449-.637-3.148-.354-4.314.723l-23.69 21.817c-2.003-.863-4.047-1.651-6.144-2.329-8.829-2.855-16.478-3.788-23.07-3.598-9.062-19.653-26.972-26.776-27.741-27.074-1.242-.48-2.635-.312-3.727.451-1.09.76-1.732 2.012-1.713 3.34l.644 43.957c-.003 12.269-3.947 21.542-10.31 32.521-6.252 10.787-14.926 20.881-25.781 30-15.699 13.193-22.973 26.973-21.617 40.955 2.197 22.631 26.645 39.354 41.021 47.307 6.148 3.402 13.205 5.201 20.406 5.201h84.43c2.209 0 4-1.791 4-4v-29.83l12.203-8.715c7.539-5.385 12.537-13.027 14.07-21.521.879-4.863.738-9.762-.42-14.562l-1.523-6.324 1.99-6.195c2.664-8.285 1.822-17.32-2.307-24.789zm-32.012-64.55v24.133c-4.527-3.902-9.459-7.485-14.782-10.52zm-60.086 4.777c-7.102 1.414-12.484 4.112-16.252 6.702l-.357-24.321c4.835 3.038 11.79 8.652 16.609 17.619zm-45.031 94.023c12.953 0 21.98 6.107 21.98 11.588 0 6.195-9.746 21.98-21.98 21.98s-21.98-15.785-21.98-21.98c0-5.48 9.027-11.588 21.98-11.588zm24.688 73.686c-5.85 0-11.566-1.453-16.535-4.201-13-7.193-35.086-22.096-36.93-41.08-.285-2.938-.029-5.895.703-8.863 4.177 10.051 14.893 22.027 28.075 22.027 17.02 0 29.98-19.98 29.98-29.98 0-10.984-13.17-19.588-29.98-19.588-2.826 0-5.537.262-8.112.719 10.691-9.294 19.344-19.531 25.692-30.485 6.154-10.622 10.424-20.398 11.222-32.468 31.865 29.003 56.272 65.582 76.315 114.175v29.744zm106.832-57.488c-1.146 6.338-5.1 12.328-10.848 16.432l-8.918 6.369c-21.033-50.402-46.84-88.113-80.766-118.021 5.422-4.541 19.141-12.492 43.125-4.738 29.133 9.416 48.877 40.469 56.014 53.383 3.066 5.547 3.684 12.277 1.693 18.469l-.216.673c-9.779-14.695-20.147-24.333-20.657-24.804-1.631-1.496-4.158-1.389-5.652.234-1.496 1.627-1.391 4.156.234 5.652.139.127 13.898 12.889 24.156 31.031.206.363.468.67.758.941l.75 3.114c.897 3.712 1.006 7.503.327 11.265z"/></g></svg>