<?xml version="1.0"?>
<svg xmlns="http://www.w3.org/2000/svg" viewBox="0 0 64 64" width="512" height="512"><title>a</title><g id="_05_Animal_House" data-name="05 Animal House"><path d="M63.414,30.586l-6-6-24-24a2,2,0,0,0-2.828,0l-24,24-6,6a2,2,0,0,0,2.828,2.828L6,30.828V62a2,2,0,0,0,2,2H56a2,2,0,0,0,2-2V30.828l2.586,2.586a2,2,0,0,0,2.828-2.828ZM26,60V50a6,6,0,0,1,12,0V60ZM54,26.829V60H42V50a10,10,0,0,0-20,0V60H10V26.829l22-22Z"/><path d="M26.258,24.258A6,6,0,0,0,28,36h8a6,6,0,0,0,1.742-11.742,6,6,0,0,0-11.484,0ZM30,26a2,2,0,0,1,4,0,2,2,0,0,0,2,2,2,2,0,0,1,0,4H28a2,2,0,0,1,0-4A2,2,0,0,0,30,26Z"/><path d="M22,24a2,2,0,0,0,1.41-3.42,2.071,2.071,0,0,0-2.83.01A2.016,2.016,0,0,0,20,22a1.981,1.981,0,0,0,2,2Z"/><path d="M42,24a1.994,1.994,0,0,0,1.41-3.41,2.048,2.048,0,0,0-2.82,0A2,2,0,0,0,42,24Z"/><path d="M36,18a2,2,0,0,0,1.41-3.42,2.069,2.069,0,0,0-2.82,0A2.006,2.006,0,0,0,34,16a2.015,2.015,0,0,0,2,2Z"/><path d="M28,18a1.994,1.994,0,0,0,1.41-3.41,2.061,2.061,0,0,0-2.83,0A2,2,0,0,0,28,18Z"/><path d="M32.58,52.59A2,2,0,0,0,32,54a1.981,1.981,0,0,0,2,2,2,2,0,0,0,2-2,1.983,1.983,0,0,0-.59-1.41A2.061,2.061,0,0,0,32.58,52.59Z"/></g></svg>
