<?xml version="1.0"?>
<svg xmlns="http://www.w3.org/2000/svg" viewBox="0 0 64 64" width="512" height="512"><title>a</title><g id="_06_Animal_Blood" data-name="06 Animal Blood"><path d="M33.523.7a2.067,2.067,0,0,0-3.046,0C29.559,1.782,8,27.26,8,40a24,24,0,0,0,48,0C56,27.26,34.441,1.782,33.523.7ZM32,60A20.023,20.023,0,0,1,12,40c0-8.645,13.26-26.637,20-34.876C38.74,13.363,52,31.355,52,40A20.023,20.023,0,0,1,32,60Z"/><path d="M37.742,38.258a6,6,0,0,0-11.484,0A6,6,0,0,0,28,50h8a6,6,0,0,0,1.742-11.742ZM36,46H28a2,2,0,0,1,0-4,2,2,0,0,0,2-2,2,2,0,0,1,4,0,2,2,0,0,0,2,2,2,2,0,0,1,0,4Z"/><path d="M23.41,37.41a1.98,1.98,0,0,0,0-2.82,2.061,2.061,0,0,0-2.83,0A2.016,2.016,0,0,0,20,36a1.994,1.994,0,0,0,3.41,1.41Z"/><path d="M40.58,34.59A2,2,0,0,0,40,36a2.015,2.015,0,0,0,2,2,2,2,0,0,0,1.41-3.42A2.071,2.071,0,0,0,40.58,34.59Z"/><path d="M36,32a2,2,0,0,0,1.41-3.42,2.069,2.069,0,0,0-2.82,0A2.006,2.006,0,0,0,34,30a2.015,2.015,0,0,0,2,2Z"/><path d="M28,32a2,2,0,0,0,1.41-3.42,2.069,2.069,0,0,0-2.82,0A2.006,2.006,0,0,0,26,30a2.015,2.015,0,0,0,2,2Z"/></g></svg>
