<svg id="bird" enable-background="new 0 0 300 300" height="512" viewBox="0 0 300 300" width="512" xmlns="http://www.w3.org/2000/svg"><g><path d="m70.001 52.118c2.209 0 4-1.791 4-4v-8c0-2.209-1.791-4-4-4s-4 1.791-4 4v8c0 2.209 1.791 4 4 4z"/><path d="m70.001 60.118c-2.209 0-4 1.791-4 4v8c0 2.209 1.791 4 4 4s4-1.791 4-4v-8c0-2.209-1.791-4-4-4z"/><path d="m54.001 60.118h8c2.209 0 4-1.791 4-4s-1.791-4-4-4h-8c-2.209 0-4 1.791-4 4s1.791 4 4 4z"/><path d="m78.001 60.118h8c2.209 0 4-1.791 4-4s-1.791-4-4-4h-8c-2.209 0-4 1.791-4 4s1.791 4 4 4z"/><path d="m113.727 96.105c2.362 0 4.277-1.915 4.277-4.276s-1.915-4.277-4.277-4.277-4.276 1.915-4.276 4.277 1.915 4.276 4.276 4.276z"/><path d="m259.488 92.456-17.936-7.176c-2.068-12.293-11.101-22.586-23.373-25.977l-.59-.162c-12.264-3.377-25.404.756-33.492 10.533-18.684 22.586-54.746 66.232-86.363 104.789-60.871 74.227-60.871 74.227-59.348 77.463.664 1.41 2.1 2.309 3.643 2.309.107 0 .215-.004.322-.014 1.775-.145 43.725-3.609 64.414-10.529l26.158-8.75h24.611v10.404c0 10.221 8.314 18.535 18.535 18.535h5.932c2.209 0 4-1.791 4-4s-1.791-4-4-4h-5.932c-5.809 0-10.535-4.727-10.535-10.535v-10.404h.045c42.139 0 76.422-34.4 76.422-76.684v-47.871l18.051-10.786c1.307-.779 2.057-2.232 1.938-3.75-.122-1.514-1.09-2.83-2.502-3.395zm-120.709 53.047c.734.357 1.559.488 2.371.355l5.98-.934c4.742-.744 9.482.688 12.992 3.924 6.053 5.574 17.028 17.001 24.429 31.929-2.353 4.055-5.055 7.955-8.071 11.714-2.335-4.76-6.134-11.708-11.252-18.45-1.336-1.758-3.844-2.105-5.604-.768-1.76 1.336-2.104 3.846-.768 5.604 5.96 7.85 10.07 16.207 11.868 20.174-2.912 3.059-6.047 6.015-9.437 8.851-12.286-16.111-26.77-30.755-44.077-44.563 5.297-6.447 10.845-13.192 16.647-20.238zm-34.553 90.603c-14.285 4.777-40.357 7.93-53.756 9.316 9.157-11.68 30.614-38.084 61.663-75.9 16.856 13.437 30.937 27.667 42.853 43.309-7.083 5.214-15.027 10.014-23.856 14.369-.18.044-.374.031-.549.09zm129.775-77.847c0 37.873-30.693 68.684-68.422 68.684h-17.355c11.766-7.119 21.764-15.149 29.916-24.071.099-.09.181-.186.27-.284 8.823-9.723 15.49-20.486 19.938-32.242.783-2.066-.258-4.375-2.324-5.156-2.066-.791-4.375.258-5.156 2.324-.583 1.539-1.207 3.059-1.873 4.562-7.747-13.536-17.695-23.807-23.453-29.109-5.312-4.896-12.461-7.066-19.646-5.943l-4.738.738-2.069-1.009c15.487-18.799 32.611-39.54 51.172-61.979 4.674-5.65 11.596-8.793 18.738-8.793 2.152 0 4.328.287 6.467.875l.002.002.586.16c10.566 2.918 17.947 12.643 17.947 23.646zm8-57.19v-6.994l7.01 2.805z"/><circle cx="212.001" cy="94.118" r="4.821"/></g></svg>