<svg height="512" viewBox="0 0 64 64" width="512" xmlns="http://www.w3.org/2000/svg"><g id="_07_Animal_Blood" data-name="07 Animal Blood"><path d="m42 30a6.01 6.01 0 0 0 -4.258-5.742 6 6 0 0 0 -11.484 0 6 6 0 0 0 1.742 11.742h8a6.006 6.006 0 0 0 6-6zm-6 2h-8a2 2 0 0 1 0-4 2 2 0 0 0 2-2 2 2 0 0 1 4 0 2 2 0 0 0 2 2 2 2 0 0 1 0 4z"/><path d="m23.42 23.41a2.016 2.016 0 0 0 .58-1.41 1.966 1.966 0 0 0 -.59-1.41 2.048 2.048 0 0 0 -2.82 0 2 2 0 0 0 1.41 3.41 2.024 2.024 0 0 0 1.42-.59z"/><path d="m42 24a1.994 1.994 0 0 0 1.41-3.41 2.048 2.048 0 0 0 -2.82 0 2 2 0 0 0 1.41 3.41z"/><path d="m36 18a1.994 1.994 0 0 0 1.41-3.41 2.048 2.048 0 0 0 -2.82 0 2 2 0 0 0 1.41 3.41z"/><path d="m28 18a1.994 1.994 0 0 0 1.41-3.41 2.048 2.048 0 0 0 -2.82 0 2 2 0 0 0 1.41 3.41z"/><path d="m46 6h-8a6 6 0 0 0 -12 0h-8a6.006 6.006 0 0 0 -6 6v34a6.006 6.006 0 0 0 6 6h6v4a2 2 0 0 0 2 2h4v4a2 2 0 0 0 4 0v-4h4a2 2 0 0 0 2-2v-4h6a6.006 6.006 0 0 0 6-6v-34a6.006 6.006 0 0 0 -6-6zm-14-2a2 2 0 0 1 2 2h-4a2 2 0 0 1 2-2zm4 50h-8v-2h8zm12-8a2 2 0 0 1 -2 2h-28a2 2 0 0 1 -2-2v-34a2 2 0 0 1 2-2h28a2 2 0 0 1 2 2z"/><path d="m44 38a2 2 0 0 0 -2 2v2h-2a2 2 0 0 0 0 4h4a2 2 0 0 0 2-2v-4a2 2 0 0 0 -2-2z"/></g></svg>