<svg id="bird_x5F_cage" enable-background="new 0 0 300 300" height="512" viewBox="0 0 300 300" width="512" xmlns="http://www.w3.org/2000/svg"><g><path d="m212.626 240h-8.145v-108.117c0-4.924-.608-9.813-1.789-14.542 3.879-5.38 6.77-10.708 6.77-14.439 0-8.895-7.238-16.131-16.133-16.131-2.628 0-5.136.701-7.39 1.885-9.35-8.959-21.06-14.538-33.76-16.129 2.793-3.44 4.537-7.762 4.537-12.527 0-11.027-8.973-20-20-20s-20 8.973-20 20c0 4.753 1.736 9.066 4.516 12.501-29.55 3.649-52.516 28.861-52.516 59.381v108.118h-7.91c-6.666 0-12.09 5.424-12.09 12.09v3.82c0 6.666 5.424 12.09 12.09 12.09h151.82c6.668 0 12.09-5.424 12.09-12.09v-3.82c0-6.666-5.422-12.09-12.09-12.09zm-71.91 0v-24h20c2.211 0 4-1.791 4-4v-44h31.766v72zm16-56h-16v-4h16zm-24 0h-16v-4h16zm-16 8h16v4h-16zm24 0h16v4h-16zm16-20h-16v-4h16zm-24 0h-16v-4h16zm-16 32h16v4h-16zm24 0h16v4h-16zm55.766-72.117v28.117h-35.766-20v-80h3.883c9.261 0 18.101 2.435 25.882 6.936-8.125.827-14.511 7.628-14.511 15.967 0 9.131 17.211 27.822 24.246 33.449.73.584 1.617.877 2.5.877s1.77-.293 2.5-.877c2.662-2.129 6.78-6.131 10.872-10.775.253 2.085.394 4.191.394 6.306zm4.98-28.981c0 3.719-10.434 17.428-18.746 25.049-8.312-7.621-18.746-21.33-18.746-25.049 0-4.482 3.648-8.131 8.133-8.131 2.941 0 5.664 1.641 7.098 4.283 1.406 2.574 5.625 2.574 7.031 0 1.434-2.643 4.156-4.283 7.098-4.283 4.484 0 8.132 3.649 8.132 8.131zm-64.746-54.902c6.617 0 12 5.383 12 12s-5.383 12-12 12-12-5.383-12-12 5.383-12 12-12zm-60 83.883c0-28.608 23.275-51.883 51.883-51.883h4.117v80h-20-36zm0 36.117h32v44c0 2.209 1.791 4 4 4h20v24h-56zm140 87.91c0 2.256-1.836 4.09-4.09 4.09h-151.82c-2.256 0-4.09-1.834-4.09-4.09v-3.82c0-2.256 1.834-4.09 4.09-4.09h151.82c2.254 0 4.09 1.834 4.09 4.09z"/><path d="m220.716 48c2.211 0 4-1.791 4-4v-8c0-2.209-1.789-4-4-4s-4 1.791-4 4v8c0 2.209 1.789 4 4 4z"/><path d="m220.716 56c-2.211 0-4 1.791-4 4v8c0 2.209 1.789 4 4 4s4-1.791 4-4v-8c0-2.209-1.789-4-4-4z"/><path d="m204.716 56h8c2.211 0 4-1.791 4-4s-1.789-4-4-4h-8c-2.211 0-4 1.791-4 4s1.789 4 4 4z"/><path d="m236.716 48h-8c-2.211 0-4 1.791-4 4s1.789 4 4 4h8c2.211 0 4-1.791 4-4s-1.789-4-4-4z"/><path d="m247.007 85.566c-2.362 0-4.276 1.915-4.276 4.277s1.915 4.276 4.276 4.276 4.277-1.915 4.277-4.276-1.915-4.277-4.277-4.277z"/></g></svg>