<?xml version="1.0"?>
<svg xmlns="http://www.w3.org/2000/svg" viewBox="0 0 64 64" width="512" height="512"><title>a</title><g id="_08_Save_Animal" data-name="08 Save Animal"><path d="M58,16a6.158,6.158,0,0,0-6,6v9.022l-1.215.945c-.063-.07-.129-.138-.195-.2l0,0,0,0-.341-.341a6.01,6.01,0,0,0-8.485,0l-4.345,4.343A13,13,0,0,0,34,44V62a2,2,0,0,0,2,2H52a2,2,0,0,0,2-2V54.537l9.732-16.855a2.008,2.008,0,0,0,.268-1V22A6.158,6.158,0,0,0,58,16ZM50,60H38V56H50ZM60,36.145,50.846,52H38V44a9.255,9.255,0,0,1,2.242-5.414l4.345-4.344a2.059,2.059,0,0,1,2.828,0l.34.339,0,0,.008.01a1.94,1.94,0,0,1,.487.883c.01.038.031.071.043.108a2,2,0,0,1-.537,1.828l-1.172,1.172a2,2,0,1,0,2.828,2.828l1.173-1.172a5.97,5.97,0,0,0,1.737-4.4l2.9-2.258A2,2,0,0,0,56,32V22a2,2,0,0,1,4,0Z"/><path d="M22.243,31.415a6.011,6.011,0,0,0-8.487,0l-.341.341c-.068.068-.135.138-.2.21L12,31.022V22a6.159,6.159,0,0,0-6-6,6.155,6.155,0,0,0-6,6V36.682a2,2,0,0,0,.268,1L10,54.536V62a2,2,0,0,0,2,2H28a2,2,0,0,0,2-2V44a12.985,12.985,0,0,0-3.415-8.242ZM4,22a2.168,2.168,0,0,1,2-2,2.169,2.169,0,0,1,2,2V32a2,2,0,0,0,.772,1.579l2.9,2.258a5.963,5.963,0,0,0,1.738,4.4l1.171,1.172a2,2,0,0,0,2.83-2.828l-1.172-1.172a2,2,0,0,1-.539-1.828c.012-.036.033-.068.043-.1a1.943,1.943,0,0,1,.5-.9l.341-.342a2.063,2.063,0,0,1,2.83,0l4.342,4.343A9.248,9.248,0,0,1,26,44v8H13.155L4,36.145ZM26,60H14V56H26Z"/><path d="M26.258,10.258A6,6,0,0,0,28,22h8a6,6,0,0,0,1.742-11.742,6,6,0,0,0-11.484,0ZM30,12a2,2,0,0,1,4,0,2,2,0,0,0,2,2,2,2,0,0,1,0,4H28a2,2,0,0,1,0-4A2,2,0,0,0,30,12Z"/><path d="M22,10a2,2,0,0,0,2-2,1.983,1.983,0,0,0-.59-1.41,2.048,2.048,0,0,0-2.82,0A2,2,0,0,0,22,10Z"/><path d="M42,10a1.994,1.994,0,0,0,1.41-3.41,2.048,2.048,0,0,0-2.82,0A2,2,0,0,0,42,10Z"/><path d="M36,4a1.966,1.966,0,0,0,1.41-.59,1.98,1.98,0,0,0,0-2.82,2.061,2.061,0,0,0-2.83,0A2.016,2.016,0,0,0,34,2a1.966,1.966,0,0,0,.59,1.41A1.966,1.966,0,0,0,36,4Z"/><path d="M28,4a2.015,2.015,0,0,0,2-2A1.966,1.966,0,0,0,29.41.59a2.048,2.048,0,0,0-2.82,0,1.98,1.98,0,0,0,0,2.82A1.966,1.966,0,0,0,28,4Z"/></g></svg>
