<svg id="cat_x5F_vaccine_x5F_reccord" enable-background="new 0 0 300 300" height="512" viewBox="0 0 300 300" width="512" xmlns="http://www.w3.org/2000/svg"><g><path d="m268 102h-220c-2.209 0-4 1.791-4 4v144c0 2.209 1.791 4 4 4h220c2.209 0 4-1.791 4-4v-144c0-2.209-1.791-4-4-4zm-4 144h-212v-136h212z"/><path d="m108 218c24.262 0 44-19.738 44-44v-36.18c0-1.557-.902-2.971-2.312-3.627-1.412-.652-3.074-.438-4.264.566l-16.533 13.922c-5.387-4.449-12.006-6.861-18.986-6.861-7.08 0-13.789 2.482-19.219 7.055l-20.385-14.328c-1.225-.857-2.82-.965-4.145-.275-1.324.687-2.156 2.056-2.156 3.548v36.18c0 24.262 19.738 44 44 44zm-36-72.479 16.748 11.771c1.623 1.139 3.836.92 5.197-.514 4.273-4.488 9.941-6.959 15.959-6.959s11.688 2.471 15.961 6.959c1.457 1.531 3.854 1.666 5.473.301l12.662-10.661v27.582c0 1.354-.09 2.685-.236 4h-7.764c-2.209 0-4 1.791-4 4s1.791 4 4 4h5.899c-4.958 13.959-18.262 24-33.899 24s-28.941-10.041-33.899-24h5.899c2.209 0 4-1.791 4-4s-1.791-4-4-4h-7.764c-.146-1.315-.236-2.646-.236-4z"/><circle cx="120" cy="174" r="4"/><path d="m108 194c3.535 0 6.4-6.098 6.4-8s-2.865-3.444-6.4-3.444-6.4 1.542-6.4 3.444 2.865 8 6.4 8z"/><circle cx="96" cy="174" r="4"/><path d="m172 138h32c2.209 0 4-1.791 4-4s-1.791-4-4-4h-32c-2.209 0-4 1.791-4 4s1.791 4 4 4z"/><path d="m172 158h64c2.209 0 4-1.791 4-4s-1.791-4-4-4h-64c-2.209 0-4 1.791-4 4s1.791 4 4 4z"/><path d="m172 178h64c2.209 0 4-1.791 4-4s-1.791-4-4-4h-64c-2.209 0-4 1.791-4 4s1.791 4 4 4z"/><path d="m172 198h64c2.209 0 4-1.791 4-4s-1.791-4-4-4h-64c-2.209 0-4 1.791-4 4s1.791 4 4 4z"/><path d="m188.691 214.309c-1.562-1.562-4.094-1.562-5.656 0l-3.535 3.535-3.535-3.535c-1.562-1.562-4.094-1.562-5.656 0s-1.562 4.094 0 5.656l3.535 3.535-3.535 3.535c-1.562 1.562-1.562 4.094 0 5.656.781.781 1.805 1.172 2.828 1.172s2.047-.391 2.828-1.172l3.535-3.535 3.535 3.535c.781.781 1.805 1.172 2.828 1.172s2.047-.391 2.828-1.172c1.562-1.562 1.562-4.094 0-5.656l-3.535-3.535 3.535-3.535c1.563-1.563 1.563-4.094 0-5.656z"/><path d="m228.035 214.309-10.057 10.055-4.316-3.85c-1.654-1.473-4.18-1.326-5.648.324-1.469 1.648-1.324 4.178.324 5.648l7.137 6.363c.76.678 1.713 1.014 2.662 1.014 1.025 0 2.049-.393 2.828-1.172l12.727-12.727c1.562-1.562 1.562-4.094 0-5.656s-4.094-1.562-5.657.001z"/><path d="m48 62c2.209 0 4-1.791 4-4v-8c0-2.209-1.791-4-4-4s-4 1.791-4 4v8c0 2.209 1.791 4 4 4z"/><path d="m48 70c-2.209 0-4 1.791-4 4v8c0 2.209 1.791 4 4 4s4-1.791 4-4v-8c0-2.209-1.791-4-4-4z"/><path d="m40 62h-8c-2.209 0-4 1.791-4 4s1.791 4 4 4h8c2.209 0 4-1.791 4-4s-1.791-4-4-4z"/><path d="m56 70h8c2.209 0 4-1.791 4-4s-1.791-4-4-4h-8c-2.209 0-4 1.791-4 4s1.791 4 4 4z"/><path d="m118.789 78.969c2.362 0 4.277-1.915 4.277-4.276s-1.915-4.276-4.277-4.276-4.276 1.915-4.276 4.276 1.914 4.276 4.276 4.276z"/></g></svg>