<svg height="512" viewBox="0 0 64 64" width="512" xmlns="http://www.w3.org/2000/svg"><g id="_09_First_Aid" data-name="09 First Aid"><path d="m58 16h-2v-4a2 2 0 0 0 -2-2h-2v-4a6.006 6.006 0 0 0 -6-6h-28a6.006 6.006 0 0 0 -6 6v4h-2a2 2 0 0 0 -2 2v4h-2a6.006 6.006 0 0 0 -6 6v36a6.006 6.006 0 0 0 6 6h52a6.006 6.006 0 0 0 6-6v-36a6.006 6.006 0 0 0 -6-6zm-6-2v2h-4v-2zm-36-8a2 2 0 0 1 2-2h28a2 2 0 0 1 2 2v4h-2a2 2 0 0 0 -2 2v4h-24v-4a2 2 0 0 0 -2-2h-2zm-4 8h4v2h-4zm48 44a2 2 0 0 1 -2 2h-52a2 2 0 0 1 -2-2v-36a2 2 0 0 1 2-2h52a2 2 0 0 1 2 2z"/><path d="m42 34h-4v-4a2 2 0 0 0 -2-2h-8a2 2 0 0 0 -2 2v4h-4a2 2 0 0 0 -2 2v8a2 2 0 0 0 2 2h4v4a2 2 0 0 0 2 2h8a2 2 0 0 0 2-2v-4h4a2 2 0 0 0 2-2v-8a2 2 0 0 0 -2-2zm-2 8h-4a2 2 0 0 0 -2 2v4h-4v-4a2 2 0 0 0 -2-2h-4v-4h4a2 2 0 0 0 2-2v-4h4v4a2 2 0 0 0 2 2h4z"/><path d="m14 24h-4a2 2 0 0 0 -2 2v4a2 2 0 0 0 4 0v-2h2a2 2 0 0 0 0-4z"/><path d="m14 52h-2v-2a2 2 0 0 0 -4 0v4a2 2 0 0 0 2 2h4a2 2 0 0 0 0-4z"/><path d="m54 48a2 2 0 0 0 -2 2v2h-2a2 2 0 0 0 0 4h4a2 2 0 0 0 2-2v-4a2 2 0 0 0 -2-2z"/><path d="m54 24h-4a2 2 0 0 0 0 4h2v2a2 2 0 0 0 4 0v-4a2 2 0 0 0 -2-2z"/></g></svg>