<svg id="cross_x5F_paw" enable-background="new 0 0 300 300" height="512" viewBox="0 0 300 300" width="512" xmlns="http://www.w3.org/2000/svg"><g><path d="m269.699 166.312c0-9.396-6.6-17.248-15.398-19.252v-20.898c0-2.209-1.791-4-4-4h-6.967c-2.641-7.82-9.963-13.502-18.664-13.502-8.699 0-16.021 5.682-18.662 13.502h-6.859c-1.009-2.987-2.642-5.679-4.848-7.838v-52.163c0-2.209-1.791-4-4-4h-72c-2.209 0-4 1.791-4 4v60h-56c-2.209 0-4 1.791-4 4v68c0 2.209 1.791 4 4 4h56v59.678c0 2.209 1.791 4 4 4h72c2.209 0 4-1.791 4-4v-35.828c4.655-.848 9.338-.584 13.973.885 2.23.709 4.576 1.064 6.945 1.064 1.578 0 3.166-.158 4.736-.477 9.148-1.854 16.516-9.633 17.916-18.916.325-2.162.344-4.315.08-6.406h12.35c2.209 0 4-1.791 4-4v-8.596c8.799-2.004 15.398-9.856 15.398-19.253zm-45.029-49.653c6.496 0 11.781 5.283 11.781 11.779s-5.285 11.781-11.781 11.781-11.779-5.285-11.779-11.781 5.283-11.779 11.779-11.779zm-32.404 11.779c0 6.496-5.285 11.781-11.781 11.781s-11.779-5.285-11.779-11.781 5.283-11.779 11.779-11.779 11.781 5.283 11.781 11.779zm37.695 74.938c-.908 6.023-5.678 11.066-11.596 12.268-2.635.527-5.215.408-7.674-.373-3.686-1.17-7.477-1.754-11.27-1.754s-7.584.584-11.271 1.754c-2.463.781-5.037.902-7.672.373-5.92-1.201-10.689-6.244-11.596-12.268-.85-5.639 1.48-11.166 6.084-14.428 6.574-4.662 10.346-11.689 10.346-19.281v-1.025c0-3.91 1.562-7.545 4.398-10.236 2.836-2.688 6.568-4.051 10.475-3.854 7.359.385 13.346 7.166 13.346 15.115 0 7.592 3.771 14.621 10.346 19.281 4.602 3.262 6.932 8.791 6.084 14.428zm5.369-13.215c-1.633-3.006-3.915-5.676-6.826-7.74-4.432-3.141-6.973-7.789-6.973-12.754 0-12.342-9.193-22.49-20.928-23.104-6.133-.316-11.955 1.822-16.398 6.039-4.445 4.217-6.893 9.914-6.893 16.039v1.025c0 4.963-2.541 9.611-6.973 12.754-7.082 5.02-10.672 13.506-9.367 22.146 1.396 9.283 8.766 17.061 17.916 18.916 2.467.501 4.967.561 7.412.278v30.078h-64v-59.678c0-2.209-1.791-4-4-4h-56v-60h56c2.209 0 4-1.791 4-4v-60h64v43.471c-1.851-.575-3.779-.973-5.816-.973-10.906 0-19.779 8.873-19.779 19.779 0 10.908 8.873 19.781 19.779 19.781 10.318 0 18.718-7.968 19.607-18.059h4.973c.889 10.091 9.289 18.059 19.605 18.059 10.318 0 18.718-7.968 19.607-18.059h2.024v16.737c-9.18 1.708-16.162 9.746-16.162 19.414 0 9.669 6.982 17.707 16.162 19.416v4.434h-10.97zm14.588-12.068c-6.496 0-11.779-5.285-11.779-11.781s5.283-11.779 11.779-11.779 11.781 5.283 11.781 11.779-5.285 11.781-11.781 11.781z"/><path d="m148.924 146.532c-10.906 0-19.779 8.873-19.779 19.779 0 10.908 8.873 19.781 19.779 19.781 10.908 0 19.781-8.873 19.781-19.781 0-10.906-8.873-19.779-19.781-19.779zm0 31.561c-6.496 0-11.779-5.285-11.779-11.781s5.283-11.779 11.779-11.779 11.781 5.283 11.781 11.779-5.285 11.781-11.781 11.781z"/><path d="m50.301 54.161c2.209 0 4-1.791 4-4v-8c0-2.209-1.791-4-4-4s-4 1.791-4 4v8c0 2.209 1.791 4 4 4z"/><path d="m54.301 66.161c0-2.209-1.791-4-4-4s-4 1.791-4 4v8c0 2.209 1.791 4 4 4s4-1.791 4-4z"/><path d="m42.301 54.161h-8c-2.209 0-4 1.791-4 4s1.791 4 4 4h8c2.209 0 4-1.791 4-4s-1.791-4-4-4z"/><path d="m58.301 62.161h8c2.209 0 4-1.791 4-4s-1.791-4-4-4h-8c-2.209 0-4 1.791-4 4s1.791 4 4 4z"/><path d="m86.403 95.704c2.362 0 4.276-1.915 4.276-4.276s-1.915-4.277-4.276-4.277-4.277 1.915-4.277 4.277 1.916 4.276 4.277 4.276z"/></g></svg>