<svg id="dog_x5F_food" enable-background="new 0 0 300 300" height="512" viewBox="0 0 300 300" width="512" xmlns="http://www.w3.org/2000/svg"><g><path d="m234.092 165.239c.05-.99.098-1.979.098-2.905 0-15.113-11.359-27.623-25.988-29.441-1.797-10.523-10.984-18.559-22.012-18.559-4.375 0-8.637 1.322-12.258 3.732-7.391-13.564-21.477-22.066-37.242-22.066-20.451 0-37.771 14.639-41.645 34.227-2.535-.809-5.186-1.227-7.855-1.227-14.336 0-26 11.664-26 26 0 3.567.4 8.032 1.081 12.547l-18.882 67.851c-.098.35-.146.709-.146 1.072 0 20.699 52.953 31.529 105.26 31.529 52.305 0 105.258-10.83 105.258-31.529 0-.363-.051-.723-.145-1.072zm-146.902-28.239c3.182 0 6.326.861 9.098 2.49 1.201.703 2.68.74 3.902.086 1.229-.652 2.029-1.893 2.117-3.281 1.146-18.109 16.25-32.295 34.383-32.295 14.305 0 26.914 8.631 32.121 21.99.504 1.297 1.648 2.238 3.02 2.484 1.363.234 2.77-.24 3.695-1.279 2.789-3.135 6.574-4.861 10.664-4.861 7.902 0 14.332 6.43 14.332 14.332 0 2.209 1.789 4 4 4 11.949 0 21.668 9.721 21.668 21.668 0 1.578-.086 3.285-.254 5.096-14.5 8.479-44.492 13.898-77.434 13.898-16.152 0-31.969-1.322-45.742-3.822-1.078-.193-2.201.062-3.088.715-.887.654-1.465 1.645-1.598 2.738-.486 4.014-3.877 7.041-7.884 7.041-4.412 0-8-3.588-8-8 0-1.025.203-2.043.604-3.021.412-1.004.396-2.135-.041-3.127-.438-.994-1.26-1.768-2.279-2.143-4.092-1.506-7.52-3.102-10.219-4.76-.672-4.299-1.064-8.662-1.064-11.949-.001-9.926 8.073-18 17.999-18zm61.312 123c-59.34 0-96.125-13.289-97.234-23.076l17.197-61.797c1.777.954 3.724 1.88 5.865 2.769-.094.695-.141 1.398-.141 2.104 0 8.822 7.178 16 16 16 6.613 0 12.387-4.086 14.775-9.996 13.348 2.178 28.312 3.324 43.537 3.324 33.72 0 63.75-5.388 80.035-14.198l17.196 61.794c-1.105 9.787-37.89 23.076-97.23 23.076z"/><path d="m226.19 48c2.211 0 4-1.791 4-4v-8c0-2.209-1.789-4-4-4s-4 1.791-4 4v8c0 2.209 1.789 4 4 4z"/><path d="m226.19 56c-2.211 0-4 1.791-4 4v8c0 2.209 1.789 4 4 4s4-1.791 4-4v-8c0-2.209-1.789-4-4-4z"/><path d="m210.19 56h8c2.211 0 4-1.791 4-4s-1.789-4-4-4h-8c-2.211 0-4 1.791-4 4s1.789 4 4 4z"/><path d="m234.19 56h8c2.211 0 4-1.791 4-4s-1.789-4-4-4h-8c-2.211 0-4 1.791-4 4s1.789 4 4 4z"/><path d="m252.481 85.566c-2.362 0-4.276 1.915-4.276 4.277s1.915 4.276 4.276 4.276 4.277-1.915 4.277-4.276-1.915-4.277-4.277-4.277z"/><path d="m69.692 96.352c.73.584 1.613.877 2.498.877s1.768-.293 2.498-.877c7.037-5.627 24.248-24.318 24.248-33.449 0-8.895-7.236-16.131-16.131-16.131-3.965 0-7.721 1.477-10.615 4.039-2.895-2.562-6.65-4.039-10.615-4.039-8.895 0-16.131 7.236-16.131 16.131-.001 9.13 17.21 27.822 24.248 33.449zm-8.118-41.581c2.943 0 5.664 1.641 7.102 4.283 1.398 2.574 5.629 2.574 7.027 0 1.438-2.643 4.158-4.283 7.102-4.283 4.482 0 8.131 3.648 8.131 8.131 0 3.719-10.436 17.428-18.746 25.049-8.311-7.621-18.746-21.33-18.746-25.049-.001-4.482 3.648-8.131 8.13-8.131z"/><path d="m138.19 120c4.273 0 8.293 1.664 11.312 4.686.781.781 1.805 1.172 2.828 1.172s2.047-.391 2.828-1.17c1.562-1.562 1.562-4.096 0-5.658-4.531-4.533-10.555-7.029-16.969-7.029-2.209 0-4 1.791-4 4s1.792 3.999 4.001 3.999z"/><path d="m204.19 156c3.309 0 6 2.691 6 6 0 2.209 1.789 4 4 4s4-1.791 4-4c0-7.719-6.281-14-14-14-2.211 0-4 1.791-4 4s1.789 4 4 4z"/><path d="m158.065 212.125c-.918-6.836-6.789-12.125-13.875-12.125-7.084 0-12.955 5.289-13.875 12.125-6.836.92-12.125 6.791-12.125 13.875s5.289 12.955 12.125 13.875c.92 6.836 6.791 12.125 13.875 12.125 7.086 0 12.957-5.289 13.875-12.125 6.836-.92 12.125-6.791 12.125-13.875s-5.289-12.955-12.125-13.875zm-1.875 19.875h-2c-2.211 0-4 1.791-4 4v2c0 3.309-2.691 6-6 6s-6-2.691-6-6v-2c0-2.209-1.791-4-4-4h-2c-3.309 0-6-2.691-6-6s2.691-6 6-6h2c2.209 0 4-1.791 4-4v-2c0-3.309 2.691-6 6-6s6 2.691 6 6v2c0 2.209 1.789 4 4 4h2c3.309 0 6 2.691 6 6s-2.692 6-6 6z"/></g></svg>