<?xml version="1.0"?>
<svg xmlns="http://www.w3.org/2000/svg" viewBox="0 0 64 64" width="512" height="512"><title>a</title><g id="_10_Animal_Whistle" data-name="10 Animal Whistle"><path d="M41.742,31.258a6,6,0,0,0-11.484,0A6,6,0,0,0,32,43h8a6,6,0,0,0,1.742-11.742ZM40,39H32a2,2,0,0,1,0-4,2,2,0,0,0,2-2,2,2,0,0,1,4,0,2,2,0,0,0,2,2,2,2,0,0,1,0,4Z"/><path d="M27.42,30.41A2.016,2.016,0,0,0,28,29a1.983,1.983,0,0,0-.59-1.41,2.048,2.048,0,0,0-2.82,0A2,2,0,0,0,26,31,2.025,2.025,0,0,0,27.42,30.41Z"/><path d="M44.58,27.59A2,2,0,0,0,46,31a2.015,2.015,0,0,0,2-2,2.006,2.006,0,0,0-.59-1.42A2.071,2.071,0,0,0,44.58,27.59Z"/><path d="M40,25a2,2,0,0,0,2-2,1.966,1.966,0,0,0-.59-1.41,2.061,2.061,0,0,0-2.83,0A2,2,0,0,0,40,25Z"/><path d="M32,25a1.994,1.994,0,0,0,1.41-3.41,2.061,2.061,0,0,0-2.83,0A2,2,0,0,0,32,25Z"/><path d="M59,27a4.947,4.947,0,0,0-1.52.261A22.033,22.033,0,0,0,36,10H30a2,2,0,0,0-2,2,2,2,0,0,1-4,0,2,2,0,0,0-2-2H2a2,2,0,0,0-2,2V34a2,2,0,0,0,2,2H14.363a22,22,0,0,0,43.117.739A4.947,4.947,0,0,0,59,37a5,5,0,0,0,0-10ZM4,14H8V32H4ZM36,50A17.928,17.928,0,0,1,18.091,33.8,2,2,0,0,0,16.1,32H12V14h8.343a6,6,0,0,0,11.314,0H36a18,18,0,0,1,0,36ZM59,33a1,1,0,1,1,1-1A1,1,0,0,1,59,33Z"/></g></svg>
