<svg id="dog_x5F_side" enable-background="new 0 0 300 300" height="512" viewBox="0 0 300 300" width="512" xmlns="http://www.w3.org/2000/svg"><g><path d="m230 257.217h-37.832c9.25-23.248 5.949-47.465 5.793-48.566-.02-.135-.047-.271-.082-.404-2.192-8.769-6.29-16.479-12.146-23.029h12.267c2.211 0 4-1.791 4-4v-24c0-2.209-1.789-4-4-4h-16v-16c0-2.209-1.789-4-4-4h-24c-2.211 0-4 1.791-4 4v16h-16c-2.211 0-4 1.791-4 4v4.133c-.816-.06-1.586-.108-2.254-.141-2.371-.111-4.477-1.297-5.777-3.248-1.711-2.568-1.613-5.967.25-8.459 5.445-7.301 8.363-13.502 8.672-18.43l1.688-26.979c.441-7.045-1.98-13.756-6.812-18.9s-11.379-7.977-18.438-7.977h-14.395c-8.117 0-15.75 3.162-21.492 8.902l-7.098 7.098h-6.383c-11.008 0-19.961 8.955-19.961 19.961 0 8.865 5.953 16.758 14.477 19.191l11.973 3.422c-5.246 12.479-17.723 48.723 1.355 74.641 4.93 6.695 7.055 14.496 5.984 21.967l-1.258 8.818h-.531c-11.027 0-20 8.973-20 20 0 2.209 1.789 4 4 4h32c1.723 0 3.25-1.102 3.793-2.734l10.027-30.074c4.363 3.899 11.144 9.403 17.993 13.04-4.726 3.662-7.814 9.342-7.814 15.769 0 2.209 1.789 4 4 4h116c2.211 0 4-1.791 4-4s-1.788-4.001-3.999-4.001zm-92-96h16c2.211 0 4-1.791 4-4v-16h16v16c0 2.209 1.789 4 4 4h16v16h-16c-2.211 0-4 1.791-4 4v16h-16v-16c0-2.209-1.789-4-4-4h-16zm-54.883 96h-24.433c1.652-4.656 6.102-8 11.316-8h4c1.992 0 3.68-1.463 3.961-3.434l1.75-12.252c1.367-9.561-1.281-19.447-7.461-27.842-19.98-27.139 1.113-70.254 1.328-70.686.531-1.064.562-2.311.082-3.398s-1.418-1.908-2.562-2.234l-16.426-4.693c-5.105-1.459-8.672-6.188-8.672-11.5 0-6.596 5.367-11.961 11.961-11.961h8.039c1.062 0 2.078-.422 2.828-1.172l8.27-8.27c4.23-4.229 9.855-6.559 15.836-6.559h14.395c4.824 0 9.305 1.938 12.609 5.455 3.305 3.516 4.957 8.105 4.656 12.922l-1.688 26.979c-.203 3.258-2.727 8.281-7.098 14.145-.191.256-.333.536-.506.801-.284-.101-.549-.241-.861-.275-7.633-.85-12.688-3.621-15.453-8.475-6.984-12.27 2.559-33.684 2.656-33.898.91-2.012.016-4.383-1.992-5.293-2.02-.912-4.383-.027-5.293 1.986-.469 1.025-11.324 25.32-2.332 41.145 3.958 6.966 10.959 11.109 20.775 12.368-.178 3.234.636 6.513 2.51 9.323 2.684 4.027 7.191 6.57 12.051 6.803.764.036 1.664.097 2.637.175v11.841c0 2.209 1.789 4 4 4h16v12.161c-10.051.758-17.475 4.443-22.074 11.011-6.844 9.771-5.371 23.303-3.587 31.371-7.625-3.26-16.995-11.19-21.831-15.752l7.34-25.691c.605-2.125-.625-4.338-2.75-4.945-2.109-.6-4.336.619-4.945 2.746l-7.996 27.986zm100.36 0h-64.793c1.652-4.656 6.102-8 11.316-8 1.305 0 2.523-.637 3.273-1.703s.93-2.434.488-3.66c-.07-.197-7.027-19.846.727-30.891 3.609-5.141 10.176-7.746 19.512-7.746h24c2.211 0 4-1.791 4-4v-7.871c3.731 4.899 6.485 10.429 8.062 16.623.297 2.361 2.946 26.205-6.585 47.248z"/><path d="m242 57.217c2.211 0 4-1.791 4-4v-8c0-2.209-1.789-4-4-4s-4 1.791-4 4v8c0 2.209 1.789 4 4 4z"/><path d="m242 65.217c-2.211 0-4 1.791-4 4v8c0 2.209 1.789 4 4 4s4-1.791 4-4v-8c0-2.209-1.789-4-4-4z"/><path d="m234 57.217h-8c-2.211 0-4 1.791-4 4s1.789 4 4 4h8c2.211 0 4-1.791 4-4s-1.789-4-4-4z"/><path d="m258 57.217h-8c-2.211 0-4 1.791-4 4s1.789 4 4 4h8c2.211 0 4-1.791 4-4s-1.789-4-4-4z"/><path d="m196.292 43.336c2.362 0 4.277-1.915 4.277-4.276s-1.915-4.277-4.277-4.277-4.276 1.915-4.276 4.277 1.914 4.276 4.276 4.276z"/></g></svg>