<svg height="512" viewBox="0 0 64 64" width="512" xmlns="http://www.w3.org/2000/svg"><g id="_11_Collar" data-name="11 Collar"><path d="m62 10h-60a2 2 0 0 0 -2 2v12a2 2 0 0 0 2 2h22.019a10 10 0 1 0 15.962 0h22.019a2 2 0 0 0 2-2v-12a2 2 0 0 0 -2-2zm-26 12h-8v-8h8zm-32-2h6a2 2 0 0 0 0-4h-6v-2h20v8h-20zm30 17.65v-2.983a2 2 0 0 0 -4 0v2.983a6 6 0 1 1 4 0zm6-15.65v-8h20v2h-6a2 2 0 0 0 0 4h6v2z"/><path d="m32 20a1.994 1.994 0 0 0 1.41-3.41 2.048 2.048 0 0 0 -2.82 0 2 2 0 0 0 1.41 3.41z"/><path d="m18 32a2 2 0 0 0 -2-2h-4a2 2 0 0 0 0 4h4a2 2 0 0 0 2-2z"/><path d="m52 30h-4a2 2 0 0 0 0 4h4a2 2 0 0 0 0-4z"/><path d="m19.273 41.9-2.829 2.828a2 2 0 1 0 2.829 2.829l2.827-2.829a2 2 0 0 0 -2.827-2.828z"/><path d="m32 46a2 2 0 0 0 -2 2v4a2 2 0 0 0 4 0v-4a2 2 0 0 0 -2-2z"/><path d="m44.727 41.9a2 2 0 0 0 -2.827 2.827l2.83 2.829a2 2 0 0 0 2.828-2.828z"/></g></svg>