<?xml version="1.0"?>
<svg xmlns="http://www.w3.org/2000/svg" viewBox="0 0 64 64" width="512" height="512"><title>a</title><g id="_12_Animal_Clinic" data-name="12 Animal Clinic"><path d="M62,20H58V10a2,2,0,0,0-2-2H46V2a2,2,0,0,0-2-2H20a2,2,0,0,0-2,2V8H8a2,2,0,0,0-2,2V20H2a2,2,0,0,0-2,2V62a2,2,0,0,0,2,2H62a2,2,0,0,0,2-2V22A2,2,0,0,0,62,20ZM60,34H48V32H60ZM48,38H60v2H48Zm6-26v8H46V12ZM22,4H42V20H22V4ZM10,12h8v8H10ZM4,38H16v2H4Zm12-4H4V32H16ZM30,60H26V50h4Zm4,0V50h4V60Zm8,0V48a2,2,0,0,0-2-2H24a2,2,0,0,0-2,2V60H4V50h8a2,2,0,0,0,0-4H4V44H18a2,2,0,0,0,2-2V30a2,2,0,0,0-2-2H4V24H60v4H46a2,2,0,0,0-2,2V42a2,2,0,0,0,2,2H60v2H52a2,2,0,0,0,0,4h8V60Z"/><path d="M28,14h2v2a2,2,0,0,0,4,0V14h2a2,2,0,0,0,0-4H34V8a2,2,0,0,0-4,0v2H28a2,2,0,0,0,0,4Z"/><path d="M27.41,35.41a1.98,1.98,0,0,0,0-2.82,2.061,2.061,0,0,0-2.83,0,2,2,0,1,0,2.83,2.82Z"/><path d="M32,32a2,2,0,0,0,1.41-3.42,2.058,2.058,0,0,0-2.82.01A2,2,0,0,0,32,32Z"/><path d="M36.58,32.59A2,2,0,0,0,36,34a2,2,0,1,0,3.41-1.41A2.061,2.061,0,0,0,36.58,32.59Z"/><path d="M36,38H34V36a2,2,0,0,0-4,0v2H28a2,2,0,0,0,0,4h8a2,2,0,0,0,0-4Z"/></g></svg>
