<svg height="512" viewBox="0 0 64 64" width="512" xmlns="http://www.w3.org/2000/svg"><g id="_13_Bone" data-name="13 Bone"><path d="m62 30h-60a2 2 0 0 0 -2 2v16a10.011 10.011 0 0 0 10 10h2a6.006 6.006 0 0 0 6 6h28a6.006 6.006 0 0 0 6-6h2a10.011 10.011 0 0 0 10-10v-16a2 2 0 0 0 -2-2zm-2 4v4h-56v-4zm-14 26h-28a2 2 0 0 1 -2-2h32a2 2 0 0 1 -2 2zm8-6h-44a6.006 6.006 0 0 1 -6-6v-6h56v6a6.006 6.006 0 0 1 -6 6z"/><path d="m12 26a8.015 8.015 0 0 0 7.747-6h24.506a8 8 0 1 0 13.991-7 8 8 0 1 0 -13.991-7h-24.506a8 8 0 1 0 -13.992 7 8 8 0 0 0 6.245 13zm-2.208-14.666a4 4 0 1 1 6.208-3.334 2 2 0 0 0 2 2h28a2 2 0 0 0 2-2 4 4 0 1 1 6.207 3.334 2 2 0 0 0 0 3.332 4 4 0 1 1 -6.207 3.334 2 2 0 0 0 -2-2h-28a2 2 0 0 0 -2 2 4 4 0 1 1 -6.208-3.334 2 2 0 0 0 0-3.332z"/></g></svg>