<svg id="dog_x5F_vaccine_x5F_reccord" enable-background="new 0 0 300 300" height="512" viewBox="0 0 300 300" width="512" xmlns="http://www.w3.org/2000/svg"><g><path d="m268 102h-220c-2.209 0-4 1.791-4 4v144c0 2.209 1.791 4 4 4h220c2.209 0 4-1.791 4-4v-144c0-2.209-1.791-4-4-4zm-4 144h-212v-136h212z"/><path d="m48 62c2.209 0 4-1.791 4-4v-8c0-2.209-1.791-4-4-4s-4 1.791-4 4v8c0 2.209 1.791 4 4 4z"/><path d="m48 70c-2.209 0-4 1.791-4 4v8c0 2.209 1.791 4 4 4s4-1.791 4-4v-8c0-2.209-1.791-4-4-4z"/><path d="m40 62h-8c-2.209 0-4 1.791-4 4s1.791 4 4 4h8c2.209 0 4-1.791 4-4s-1.791-4-4-4z"/><path d="m56 70h8c2.209 0 4-1.791 4-4s-1.791-4-4-4h-8c-2.209 0-4 1.791-4 4s1.791 4 4 4z"/><path d="m118.789 78.969c2.362 0 4.277-1.915 4.277-4.276s-1.915-4.276-4.277-4.276-4.276 1.915-4.276 4.276 1.914 4.276 4.276 4.276z"/><path d="m172 138h32c2.209 0 4-1.791 4-4s-1.791-4-4-4h-32c-2.209 0-4 1.791-4 4s1.791 4 4 4z"/><path d="m172 158h64c2.209 0 4-1.791 4-4s-1.791-4-4-4h-64c-2.209 0-4 1.791-4 4s1.791 4 4 4z"/><path d="m172 178h64c2.209 0 4-1.791 4-4s-1.791-4-4-4h-64c-2.209 0-4 1.791-4 4s1.791 4 4 4z"/><path d="m172 198h64c2.209 0 4-1.791 4-4s-1.791-4-4-4h-64c-2.209 0-4 1.791-4 4s1.791 4 4 4z"/><path d="m188.691 214.309c-1.562-1.562-4.094-1.562-5.656 0l-3.535 3.535-3.535-3.535c-1.562-1.562-4.094-1.562-5.656 0s-1.562 4.094 0 5.656l3.535 3.535-3.535 3.535c-1.562 1.562-1.562 4.094 0 5.656.781.781 1.805 1.172 2.828 1.172s2.047-.391 2.828-1.172l3.535-3.535 3.535 3.535c.781.781 1.805 1.172 2.828 1.172s2.047-.391 2.828-1.172c1.562-1.562 1.562-4.094 0-5.656l-3.535-3.535 3.535-3.535c1.563-1.563 1.563-4.094 0-5.656z"/><path d="m228.035 214.309-10.057 10.055-4.316-3.85c-1.654-1.473-4.178-1.326-5.648.324-1.469 1.648-1.324 4.178.324 5.648l7.137 6.363c.76.678 1.713 1.014 2.662 1.014 1.025 0 2.049-.393 2.828-1.172l12.727-12.727c1.562-1.562 1.562-4.094 0-5.656s-4.094-1.562-5.657.001z"/><path d="m90.305 225.656c.512.227 1.064.344 1.625.344h43.578c2.209 0 4-1.791 4-4v-87.158c0-1.617-.975-3.076-2.469-3.695-1.502-.625-3.219-.279-4.359.867l-13.396 13.396-5.901.149c-3.084-14.143-15.395-19.08-15.943-19.292-1.227-.475-2.615-.312-3.703.434-1.087.746-1.737 1.981-1.737 3.299v19.369c0 .111.054.204.063.313-.009.11-.063.205-.063.318 0 4.715-1.061 8.855-3.336 13.029-3.002 5.5-7.232 10.584-12.576 15.107-8.096 6.859-11.65 14.186-10.562 21.779 2.226 15.55 23.859 25.331 24.779 25.741zm14.842-79.888-5.147.13v-8.504c2.002 1.892 4.01 4.648 5.147 8.374zm-9.459 21.091c2.264-4.15 3.619-8.418 4.107-12.953l21.289-.539c1.025-.025 2.002-.443 2.727-1.17l7.697-7.697v73.5h-38.697c-5.609-2.68-18.109-10.375-19.367-19.23-.198-1.389-.069-2.799.312-4.221 1.941 3.859 6.079 8.083 10.911 8.083 6.686 0 12.105-8.094 12.105-12.105s-5.42-7.263-12.105-7.263c-.866 0-1.708.059-2.522.163 5.666-4.967 10.243-10.522 13.543-16.568z"/><path d="m116.139 176.942c1.857 0 3.363-1.506 3.363-3.363s-1.506-3.363-3.363-3.363-3.363 1.506-3.363 3.363 1.506 3.363 3.363 3.363z"/><path d="m96.771 176.942c1.857 0 3.363-1.506 3.363-3.363s-1.506-3.363-3.363-3.363-3.363 1.506-3.363 3.363 1.506 3.363 3.363 3.363z"/></g></svg>