<svg height="512" viewBox="0 0 64 64" width="512" xmlns="http://www.w3.org/2000/svg"><g id="_14_Virus" data-name="14 Virus"><path d="m58 26a26 26 0 1 0 -34 24.735v11.265a2 2 0 0 0 2 2h12a2 2 0 0 0 2-2v-11.265a26.04 26.04 0 0 0 18-24.735zm-22 25.693v8.307h-8v-8.307h.025c.58.089 1.168.153 1.759.2.141.012.28.023.42.032.596.047 1.196.075 1.796.075s1.2-.028 1.8-.069c.139-.009.279-.02.42-.032.591-.05 1.178-.114 1.759-.2zm1.063-4.288c-.253.06-.506.119-.762.17-.149.029-.3.054-.449.08-.295.052-.592.1-.891.14l-.342.044c-.375.044-.752.08-1.129.105l-.136.01a22.259 22.259 0 0 1 -2.709 0l-.135-.01c-.377-.025-.754-.061-1.129-.105l-.342-.044c-.3-.039-.6-.088-.892-.14-.149-.026-.3-.051-.448-.08-.256-.051-.509-.11-.763-.17a22 22 0 1 1 10.127 0z"/><path d="m30 26v-2.35a6.021 6.021 0 0 0 3.65-3.65h2.35a2 2 0 0 0 0-4h-2.35a6.021 6.021 0 0 0 -3.65-3.65v-2.35a2 2 0 0 0 -4 0v2.35a6.021 6.021 0 0 0 -3.65 3.65h-2.35a2 2 0 0 0 0 4h2.35a6.021 6.021 0 0 0 3.65 3.65v2.35a2 2 0 0 0 4 0zm-2-10a2 2 0 1 1 -2 2 2 2 0 0 1 2-2z"/><path d="m44 20a6.006 6.006 0 0 0 -6 6c0 6-2.125 6-4 6a6 6 0 0 0 0 12c9.421 0 16-7.4 16-18a6.006 6.006 0 0 0 -6-6zm-10 20a2 2 0 0 1 0-4c8 0 8-7.527 8-10a2 2 0 0 1 4 0c0 8.505-4.71 14-12 14z"/><path d="m40 14a2 2 0 0 0 2-2 1.966 1.966 0 0 0 -.59-1.41 2.048 2.048 0 0 0 -2.82 0 1.966 1.966 0 0 0 -.59 1.41 2 2 0 0 0 2 2z"/><path d="m46 18a1.994 1.994 0 0 0 1.41-3.41 2.061 2.061 0 0 0 -2.83 0 2 2 0 0 0 -.58 1.41 2 2 0 0 0 2 2z"/><path d="m21 28a5 5 0 1 0 5 5 5.006 5.006 0 0 0 -5-5zm0 6a1 1 0 1 1 1-1 1 1 0 0 1 -1 1z"/></g></svg>