<svg id="flee_x5F_drops" enable-background="new 0 0 300 300" height="512" viewBox="0 0 300 300" width="512" xmlns="http://www.w3.org/2000/svg"><g><path d="m185.122 61.452h.02c2.203 0 3.992-1.779 4-3.982l.035-8c.008-2.209-1.773-4.008-3.984-4.018-.004 0-.012 0-.016 0-2.203 0-3.992 1.779-4 3.982l-.035 8c-.009 2.209 1.773 4.008 3.98 4.018z"/><path d="m185.083 69.45c-.008 0-.012 0-.02 0-2.199 0-3.988 1.777-4 3.98l-.039 8c-.012 2.209 1.769 4.008 3.98 4.02h.02c2.199 0 3.988-1.777 4-3.98l.039-8c.012-2.209-1.77-4.008-3.98-4.02z"/><path d="m169.083 69.374 8 .039h.02c2.199 0 3.988-1.777 4-3.98.012-2.209-1.77-4.008-3.98-4.02l-8-.039c-.008 0-.012 0-.02 0-2.199 0-3.988 1.777-4 3.98-.013 2.209 1.769 4.008 3.98 4.02z"/><path d="m193.083 69.489 8 .039h.02c2.199 0 3.988-1.777 4-3.98.012-2.209-1.77-4.008-3.98-4.02l-8-.039c-.008 0-.012 0-.02 0-2.199 0-3.988 1.777-4 3.98-.013 2.21 1.769 4.008 3.98 4.02z"/><circle cx="127.044" cy="179.499" r="6"/><circle cx="79.044" cy="179.499" r="6"/><path d="m107.364 197.499h-12.641c-2.211 0-4 1.791-4 4s1.789 4 4 4h2.32v8c0 2.209 1.789 4 4 4s4-1.791 4-4v-8h2.32c2.211 0 4-1.791 4-4s-1.788-4-3.999-4z"/><path d="m265.555 92.27-7.281-7.281c-3.938-3.939-9.176-6.109-14.746-6.109s-10.805 2.17-14.742 6.109l-37.566 37.566c-4.951 4.949-5.373 12.682-1.36 18.163l-13.578 28.2c-.734 1.531-.426 3.361.777 4.562.766.768 1.789 1.172 2.828 1.172.59 0 1.184-.129 1.734-.396l28.191-13.573c2.388 1.758 5.24 2.747 8.262 2.747 3.742 0 7.266-1.457 9.91-4.105l37.57-37.568c8.13-8.129 8.13-21.358.001-29.487zm-69.8 54.65 7.867 7.867-15.173 7.304zm18.062 6.749-16.941-16.941c-2.348-2.348-2.348-6.168 0-8.516l1.399-1.4 25.456 25.456-1.402 1.401c-2.274 2.275-6.239 2.271-8.512 0zm46.082-37.569-30.512 30.512-25.457-25.457 30.512-30.51c4.851-4.855 13.316-4.855 18.176 0l7.281 7.281c5.008 5.01 5.008 13.165 0 18.174z"/><path d="m225.145 105.599c-2.645 2.645-4.102 6.16-4.102 9.9s1.457 7.256 4.102 9.898c2.73 2.73 6.312 4.094 9.898 4.094s7.168-1.365 9.898-4.092c2.645-2.645 4.102-6.16 4.102-9.9s-1.457-7.256-4.102-9.898c-5.46-5.458-14.335-5.456-19.796-.002zm14.141 14.142c-2.336 2.34-6.148 2.338-8.484-.002-1.133-1.131-1.758-2.639-1.758-4.24s.625-3.109 1.758-4.24c0-.002 0-.002 0-.002 1.168-1.17 2.707-1.754 4.242-1.754s3.074.586 4.242 1.756c1.133 1.131 1.758 2.639 1.758 4.24s-.625 3.109-1.758 4.242z"/><path d="m167.626 174.083c-1.425.348-3.874.972-6.705 1.793-3.334-6.388-7.726-12.44-12.952-17.668l12.488-41.457c2.105-6.342 1.613-13.123-1.383-19.096-3-5.973-8.145-10.418-14.488-12.521-13.094-4.336-27.27 2.779-31.648 15.984l-10.992 36.838c-1.871-.055-3.805.033-5.906.225l-18.926-53.178c-4.336-13.086-18.512-20.207-31.613-15.869-6.344 2.104-11.488 6.549-14.488 12.521-2.996 5.973-3.488 12.754-1.359 19.168l21.414 60.598c-10.828 12.203-16.992 27.25-16.992 41.635 0 30.281 29.418 54.002 66.969 54.002s66.969-23.721 66.969-54.002c0-2.531-.213-5.129-.599-7.731 2.416-6.084 4.324-13.446 5.049-16.408.332-1.357-.07-2.789-1.059-3.777-.99-.991-2.44-1.401-3.779-1.057zm-10.364 23.682c-2.266 2.271-6.219 2.266-8.484.002-2.34-2.34-2.34-6.146 0-8.486 1.391-1.391 7.539-3.689 14.117-5.631-1.945 6.575-4.242 12.724-5.633 14.115zm-56.218 51.293c-28.988 0-58.969-17.207-58.969-46.002 0-13.082 6-26.914 16.465-37.951 1.035-1.09 1.371-2.668.871-4.084l-22.188-62.79c-1.434-4.314-1.098-8.926.941-12.988 2.039-4.061 5.539-7.086 9.852-8.516 8.906-2.943 18.555 1.891 21.531 10.877l20.02 56.25c.637 1.781 2.457 2.861 4.305 2.623 3.77-.514 6.715-.641 9.707-.406l1.027.074c1.789.133 3.562-1.057 4.094-2.848l11.867-39.775c2.949-8.908 12.613-13.752 21.504-10.795 4.312 1.43 7.812 4.455 9.852 8.516 2.039 4.062 2.375 8.674.91 13.094l-13.227 43.898c-.441 1.459-.016 3.039 1.098 4.078 5.016 4.681 9.242 10.203 12.475 16.069-4.246 1.552-8.184 3.367-10.057 5.241-5.457 5.459-5.457 14.34 0 19.799 2.641 2.645 6.156 4.1 9.898 4.1 2.438 0 4.752-.676 6.821-1.84-1.784 27.191-30.714 43.376-58.797 43.376z"/><path d="m135.774 51.495c2.362.011 4.285-1.894 4.297-4.256.011-2.362-1.894-4.286-4.256-4.297s-4.286 1.894-4.297 4.256 1.894 4.286 4.256 4.297z"/><path d="m53.665 108.718c-.746-2.082-3.043-3.168-5.109-2.426-2.082.74-3.168 3.027-2.43 5.109l12.129 34.072c.586 1.637 2.125 2.66 3.77 2.66.445 0 .898-.076 1.34-.234 2.082-.74 3.168-3.027 2.43-5.109z"/></g></svg>