<svg height="512" viewBox="0 0 64 64" width="512" xmlns="http://www.w3.org/2000/svg"><g id="_15_Plaster" data-name="15 Plaster"><path d="m58 18h-12v-12a6.006 6.006 0 0 0 -6-6h-16a6.006 6.006 0 0 0 -6 6v12h-12a6.006 6.006 0 0 0 -6 6v16a6.006 6.006 0 0 0 6 6h12v12a6.006 6.006 0 0 0 6 6h16a6.006 6.006 0 0 0 6-6v-12h12a6.006 6.006 0 0 0 6-6v-16a6.006 6.006 0 0 0 -6-6zm-52 24a2 2 0 0 1 -2-2v-16a2 2 0 0 1 2-2h12v20zm36 16a2 2 0 0 1 -2 2h-16a2 2 0 0 1 -2-2v-52a2 2 0 0 1 2-2h16a2 2 0 0 1 2 2zm18-18a2 2 0 0 1 -2 2h-12v-20h12a2 2 0 0 1 2 2z"/><path d="m26.58 8.59a2 2 0 0 0 1.42 3.41 1.994 1.994 0 0 0 1.41-3.41 2.061 2.061 0 0 0 -2.83 0z"/><path d="m34.59 8.59a2 2 0 0 0 1.41 3.41 2 2 0 0 0 2-2 1.983 1.983 0 0 0 -.59-1.41 2.048 2.048 0 0 0 -2.82 0z"/><path d="m26.58 16.59a2.016 2.016 0 0 0 -.58 1.41 1.981 1.981 0 0 0 2 2 2 2 0 0 0 2-2 2.024 2.024 0 0 0 -.59-1.42 2.071 2.071 0 0 0 -2.83.01z"/><path d="m8.59 26.59a1.966 1.966 0 0 0 -.59 1.41 2 2 0 0 0 2 2 1.994 1.994 0 0 0 1.41-3.41 2.048 2.048 0 0 0 -2.82 0z"/><path d="m52.58 26.59a2 2 0 0 0 1.42 3.41 1.994 1.994 0 0 0 1.41-3.41 2.061 2.061 0 0 0 -2.83 0z"/><path d="m52.58 34.59a2 2 0 0 0 1.42 3.41 2.015 2.015 0 0 0 2-2 2.006 2.006 0 0 0 -.59-1.42 2.071 2.071 0 0 0 -2.83.01z"/><path d="m8.58 34.59a2 2 0 0 0 -.58 1.41 2 2 0 0 0 4 0 2.022 2.022 0 0 0 -.59-1.42 2.071 2.071 0 0 0 -2.83.01z"/><path d="m34.59 16.59a2 2 0 0 0 1.41 3.41 2 2 0 0 0 2-2 1.983 1.983 0 0 0 -.59-1.41 2.048 2.048 0 0 0 -2.82 0z"/><path d="m26.58 44.59a2 2 0 0 0 -.58 1.41 2.024 2.024 0 0 0 .59 1.42 1.992 1.992 0 0 0 2.82-.01 1.98 1.98 0 0 0 0-2.82 2.061 2.061 0 0 0 -2.83 0z"/><path d="m34.59 44.59a2 2 0 0 0 1.41 3.41 2 2 0 0 0 2-2 1.981 1.981 0 0 0 -.59-1.41 2.048 2.048 0 0 0 -2.82 0z"/><path d="m26.58 52.59a2 2 0 0 0 1.42 3.41 2.015 2.015 0 0 0 2-2 2.022 2.022 0 0 0 -.59-1.42 2.071 2.071 0 0 0 -2.83.01z"/><path d="m34.59 52.58a2 2 0 1 0 2.82 0 2.069 2.069 0 0 0 -2.82 0z"/></g></svg>