<svg id="flee_x5F_medicine" enable-background="new 0 0 300 300" height="512" viewBox="0 0 300 300" width="512" xmlns="http://www.w3.org/2000/svg"><g><path d="m206.078 131.918v-20.701c0-2.209-1.789-4-4-4h-52c-2.211 0-4 1.791-4 4v20.701c-11.442 2.676-20 12.94-20 25.186v102.113c0 2.209 1.789 4 4 4h92c2.211 0 4-1.791 4-4v-102.113c0-12.246-8.557-22.51-20-25.186zm-8-16.701v16h-44v-16zm-46.113 24h48.227c9.863 0 17.887 8.023 17.887 17.887v6.113h-84v-6.113c-.001-9.864 8.023-17.887 17.886-17.887zm66.113 32v60h-84v-60zm-84 84v-16h84v16z"/><path d="m114.078 87.217h-16v-26c0-9.926-8.074-18-18-18s-18 8.074-18 18v26h-16.156c-2.211 0-4 1.791-4 4v28c0 2.209 1.789 4 4 4h20.156v87.598c0 6.184.777 12.32 2.312 18.236l7.816 30.184c.457 1.766 2.047 2.998 3.871 2.998s3.414-1.232 3.871-2.998l7.816-30.182c1.535-5.918 2.312-12.055 2.312-18.238v-87.598h20c2.211 0 4-1.791 4-4v-28c.002-2.209-1.787-4-3.998-4zm-44-26c0-5.514 4.484-10 10-10s10 4.486 10 10v26h-20zm16 149.597c0 5.508-.691 10.967-2.055 16.232l-3.945 15.23-3.945-15.232c-1.363-5.264-2.055-10.723-2.055-16.23v-87.598h12zm24-95.597h-60.156v-20h60.156z"/><path d="m238.078 59.217c2.211 0 4-1.791 4-4v-8c0-2.209-1.789-4-4-4s-4 1.791-4 4v8c0 2.209 1.789 4 4 4z"/><path d="m238.078 67.217c-2.211 0-4 1.791-4 4v8c0 2.209 1.789 4 4 4s4-1.791 4-4v-8c0-2.209-1.789-4-4-4z"/><path d="m230.078 59.217h-8c-2.211 0-4 1.791-4 4s1.789 4 4 4h8c2.211 0 4-1.791 4-4s-1.789-4-4-4z"/><path d="m254.078 59.217h-8c-2.211 0-4 1.791-4 4s1.789 4 4 4h8c2.211 0 4-1.791 4-4s-1.789-4-4-4z"/><path d="m192.37 45.336c2.362 0 4.277-1.915 4.277-4.276s-1.915-4.277-4.277-4.277-4.276 1.915-4.276 4.277 1.914 4.276 4.276 4.276z"/><path d="m154.078 203.217h8.183c.049.356.153.677.216 1.026l-6.32 3.466c-1.938 1.062-2.648 3.494-1.586 5.432.727 1.326 2.098 2.076 3.512 2.076.648 0 1.309-.158 1.918-.492l5.187-2.844c2.565 4.469 6.431 7.337 10.892 7.337s8.327-2.868 10.892-7.337l5.187 2.844c.609.334 1.27.492 1.918.492 1.414 0 2.785-.75 3.512-2.076 1.062-1.938.352-4.369-1.586-5.432l-6.32-3.466c.062-.349.167-.669.216-1.026h8.183c2.211 0 4-1.791 4-4s-1.789-4-4-4h-8.172c-.048-.359-.137-.69-.199-1.041l6.293-3.451c1.938-1.062 2.648-3.494 1.586-5.432-1.059-1.934-3.492-2.646-5.43-1.584l-5.124 2.81c-2.563-4.531-6.457-7.445-10.954-7.445s-8.391 2.913-10.954 7.445l-5.124-2.81c-1.938-1.062-4.371-.35-5.43 1.584-1.062 1.938-.352 4.369 1.586 5.432l6.293 3.451c-.062.351-.15.682-.199 1.041h-8.172c-2.211 0-4 1.791-4 4s1.785 4 3.996 4zm22-16.143c2.833 0 5.979 5.008 6.079 11.75-.014.135-.079.253-.079.393 0 .128.061.236.073.36-.134 6.685-3.256 11.64-6.073 11.64s-5.938-4.954-6.073-11.639c.012-.125.073-.233.073-.361 0-.139-.065-.257-.079-.393.101-6.742 3.246-11.75 6.079-11.75z"/></g></svg>