<svg id="fracture" enable-background="new 0 0 300 300" height="512" viewBox="0 0 300 300" width="512" xmlns="http://www.w3.org/2000/svg"><g><path d="m249.08 58.303c2.211 0 4-1.791 4-4v-8c0-2.209-1.789-4-4-4s-4 1.791-4 4v8c0 2.209 1.789 4 4 4z"/><path d="m249.08 66.303c-2.211 0-4 1.791-4 4v8c0 2.209 1.789 4 4 4s4-1.791 4-4v-8c0-2.209-1.789-4-4-4z"/><path d="m241.08 58.303h-8c-2.211 0-4 1.791-4 4s1.789 4 4 4h8c2.211 0 4-1.791 4-4s-1.789-4-4-4z"/><path d="m265.08 58.303h-8c-2.211 0-4 1.791-4 4s1.789 4 4 4h8c2.211 0 4-1.791 4-4s-1.789-4-4-4z"/><path d="m203.372 44.422c2.362 0 4.277-1.915 4.277-4.276s-1.915-4.277-4.277-4.277-4.276 1.915-4.276 4.277 1.914 4.276 4.276 4.276z"/><path d="m214.092 84.314c-1.562-1.562-4.094-1.562-5.656 0l-5.989 5.988h-113.367c-2.211 0-4 1.791-4 4v113.368l-27.816 27.816c-1.562 1.562-1.562 4.094 0 5.656l21.816 21.816c.781.781 1.805 1.172 2.828 1.172s2.047-.391 2.828-1.172l4.656-4.656h115.688c2.211 0 4-1.791 4-4v-115.686l26.828-26.829c1.562-1.562 1.562-4.094 0-5.656zm-132.184 170.161-16.16-16.16 42.496-42.496c1.418-1.416 1.566-3.66.352-5.254-3.73-4.891-3.285-11.838 1.031-16.154 4.812-4.805 12.637-4.814 17.449-.002l18.738 18.74c4.809 4.811 4.809 12.635 0 17.445-4.32 4.322-11.266 4.76-16.156 1.031-1.598-1.213-3.84-1.062-5.254.354zm119.172-4.172h-103.687l30.417-30.416c7.715 3.984 17.371 2.654 23.66-3.637 7.93-7.928 7.93-20.83 0-28.758l-18.738-18.742c-7.934-7.922-20.836-7.92-28.762.002-6.289 6.291-7.617 15.939-3.633 23.66l-7.258 7.258v-101.367h101.366l-29.085 29.084c-7.723-3.988-17.371-2.652-23.66 3.635-7.926 7.93-7.926 20.83 0 28.762 3.461 3.457 8.055 5.51 12.875 5.861.355 4.822 2.406 9.42 5.867 12.877 3.965 3.965 9.172 5.947 14.379 5.947s10.414-1.982 14.379-5.947c6.293-6.293 7.617-15.943 3.637-23.662l8.242-8.243v103.686zm-16.152-98.848c-1.418 1.416-1.566 3.662-.352 5.254 3.73 4.891 3.289 11.836-1.031 16.156-4.812 4.809-12.633 4.811-17.445-.002-2.824-2.822-4.07-6.734-3.414-10.732.211-1.271-.207-2.566-1.117-3.477-.758-.756-1.777-1.172-2.828-1.172-.215 0-.434.018-.648.053-3.988.652-7.906-.588-10.734-3.41-4.809-4.811-4.809-12.637 0-17.445 4.316-4.314 11.258-4.764 16.156-1.033 1.582 1.217 3.84 1.066 5.254-.352l42.496-42.496 16.16 16.16z"/><path d="m71.65 85.445c.781.781 1.805 1.172 2.828 1.172s2.047-.391 2.828-1.172c1.562-1.562 1.562-4.094 0-5.656l-18.511-18.512c-1.562-1.562-4.094-1.562-5.656 0s-1.562 4.094 0 5.656z"/><path d="m95.529 73.031c.164 0 .332-.01.5-.031 2.195-.275 3.746-2.275 3.473-4.467l-3.258-25.975c-.273-2.191-2.262-3.754-4.465-3.471-2.195.275-3.746 2.275-3.473 4.467l3.258 25.975c.254 2.024 1.977 3.502 3.965 3.502z"/><path d="m60.896 107.67c1.988 0 3.711-1.479 3.965-3.502.273-2.191-1.277-4.191-3.473-4.467l-25.973-3.258c-2.211-.293-4.191 1.279-4.465 3.471s1.277 4.191 3.473 4.467l25.973 3.258c.168.021.336.031.5.031z"/></g></svg>