<svg height="512" viewBox="0 0 64 64" width="512" xmlns="http://www.w3.org/2000/svg"><path d="m62 40v-26a6.006 6.006 0 0 0 -6-6h-10v-2a6.006 6.006 0 0 0 -6-6h-16a6.006 6.006 0 0 0 -6 6v2h-10a6.006 6.006 0 0 0 -6 6v26a2 2 0 0 0 -2 2v12a2 2 0 0 0 2 2h.764l3.447 6.9a2 2 0 0 0 1.789 1.1h48a2 2 0 0 0 1.789-1.1l3.447-6.9h.764a2 2 0 0 0 2-2v-12a2 2 0 0 0 -2-2zm-8 10h6v2h-56v-2h6a2 2 0 0 0 0-4h-6v-2h56v2h-6a2 2 0 0 0 0 4zm-34-38h4v12h-8v-12zm16 0v12h-8v-12zm8 0h4v12h-8v-12zm-4 28v-12h8v12zm-12 0v-12h8v12zm-4-12v12h-8v-12zm28 12v-12h6v12zm6-26v10h-6v-12h4a2 2 0 0 1 2 2zm-36-8a2 2 0 0 1 2-2h16a2 2 0 0 1 2 2v2h-20zm-14 6h4v12h-6v-10a2 2 0 0 1 2-2zm-2 16h6v12h-6zm48.764 32h-45.528l-2-4h49.528z"/></svg>