<?xml version="1.0"?>
<svg xmlns="http://www.w3.org/2000/svg" viewBox="0 0 64 64" width="512" height="512"><title>a</title><g id="_17_Animal_Report" data-name="17 Animal Report"><path d="M18.258,24.258A6,6,0,0,0,20,36h8a6,6,0,0,0,1.742-11.742,6,6,0,0,0-11.484,0ZM22,26a2,2,0,0,1,4,0,2,2,0,0,0,2,2,2,2,0,0,1,0,4H20a2,2,0,0,1,0-4A2,2,0,0,0,22,26Z"/><path d="M14,24a2,2,0,0,0,1.42-3.41,2.061,2.061,0,0,0-2.83,0A1.966,1.966,0,0,0,12,22a2,2,0,0,0,2,2Z"/><path d="M32.58,20.59A2,2,0,0,0,32,22a2,2,0,0,0,2,2,1.994,1.994,0,0,0,1.41-3.41A2.061,2.061,0,0,0,32.58,20.59Z"/><path d="M28,18a1.994,1.994,0,0,0,1.41-3.41,2.048,2.048,0,0,0-2.82,0A1.966,1.966,0,0,0,26,16a2,2,0,0,0,2,2Z"/><path d="M20,18a1.994,1.994,0,0,0,1.41-3.41,2.048,2.048,0,0,0-2.82,0A1.966,1.966,0,0,0,18,16a2,2,0,0,0,2,2Z"/><path d="M46,6H39.07L35.664.891A2,2,0,0,0,34,0H14a2,2,0,0,0-1.664.891L8.93,6H2A2,2,0,0,0,0,8V62a2,2,0,0,0,2,2H46a2,2,0,0,0,2-2V8A2,2,0,0,0,46,6ZM15.07,4H32.93l1.333,2H13.737ZM44,60H4V10H44Z"/><path d="M34,46H14a2,2,0,0,0,0,4H34a2,2,0,0,0,0-4Z"/><path d="M18,40a2,2,0,0,0,0,4H30a2,2,0,0,0,0-4Z"/><path d="M30,52H18a2,2,0,0,0,0,4H30a2,2,0,0,0,0-4Z"/><path d="M62,22H60V20a2,2,0,0,0-4,0v2H54a2,2,0,0,0-2,2V56a2,2,0,0,0,.336,1.109l4,6a2,2,0,0,0,3.328,0l4-6A2,2,0,0,0,64,56V24A2,2,0,0,0,62,22Zm-6,4h4v4H56Zm4,29.4-2,3-2-3V34h4Z"/></g></svg>
