<svg id="hamster" enable-background="new 0 0 300 300" height="512" viewBox="0 0 300 300" width="512" xmlns="http://www.w3.org/2000/svg"><g><path d="m243.584 54.231c2.211 0 4-1.791 4-4v-8c0-2.209-1.789-4-4-4s-4 1.791-4 4v8c0 2.209 1.789 4 4 4z"/><path d="m243.584 62.231c-2.211 0-4 1.791-4 4v8c0 2.209 1.789 4 4 4s4-1.791 4-4v-8c0-2.209-1.789-4-4-4z"/><path d="m227.584 62.231h8c2.211 0 4-1.791 4-4s-1.789-4-4-4h-8c-2.211 0-4 1.791-4 4s1.789 4 4 4z"/><path d="m259.584 54.231h-8c-2.211 0-4 1.791-4 4s1.789 4 4 4h8c2.211 0 4-1.791 4-4s-1.789-4-4-4z"/><path d="m197.875 40.351c2.362 0 4.277-1.915 4.277-4.276s-1.915-4.277-4.277-4.277-4.276 1.915-4.276 4.277 1.915 4.276 4.276 4.276z"/><path d="m214.424 85.7c-13.038 0-24.779 8.073-29.749 19.925-12.515-6.463-27.111-10.054-43.091-10.054-15.979 0-30.574 3.59-43.088 10.052-4.98-12.001-16.527-19.923-29.752-19.923-17.824 0-32.328 14.502-32.328 32.328 0 14.593 9.616 27.092 23.321 31.033-3.821 9.989-5.946 21.005-5.946 32.824 0 50.016 36.922 86.316 87.793 86.316s87.793-36.301 87.793-86.316c0-11.819-2.125-22.835-5.947-32.825 13.706-3.939 23.322-16.437 23.322-31.032 0-17.826-14.504-32.328-32.328-32.328zm-170.008 32.328c0-13.414 10.914-24.328 24.328-24.328 10.305 0 19.265 6.382 22.776 15.954-1.628 1.051-3.156 2.219-4.695 3.374-2.207-7.954-9.436-13.842-18.081-13.842-10.387 0-18.84 8.453-18.84 18.842 0 9.374 6.902 17.107 15.877 18.54-.967 1.639-1.897 3.3-2.754 5.017-10.861-2.613-18.611-12.211-18.611-23.557zm26.748 10.535c-.79.181-1.597.305-2.42.305-5.977 0-10.84-4.863-10.84-10.84 0-5.979 4.863-10.842 10.84-10.842s10.84 4.863 10.84 10.842c0 .384-.024.762-.062 1.136-3.039 2.899-5.805 6.056-8.358 9.399zm70.42 131.639c-35.877 0-64.039-19.881-74.893-49.971h36.893c2.211 0 4-1.791 4-4s-1.789-4-4-4h-39.299c-.638-2.606-1.15-5.272-1.538-8h24.837c2.211 0 4-1.791 4-4s-1.789-4-4-4h-25.591c-.07-1.448-.202-2.871-.202-4.346 0-45.379 33.559-78.314 79.793-78.314s79.793 32.936 79.793 78.314c0 1.475-.132 2.898-.202 4.346h-25.591c-2.211 0-4 1.791-4 4s1.789 4 4 4h24.837c-.388 2.728-.899 5.394-1.538 8h-39.299c-2.211 0-4 1.791-4 4s1.789 4 4 4h36.893c-10.854 30.09-39.016 49.971-74.893 49.971zm70.632-131.355c-3.097-4.093-6.564-7.862-10.379-11.288.019-.117.086-.214.094-.335.41-5.627 5.16-10.037 10.812-10.037 5.977 0 10.84 4.863 10.84 10.842 0 5.977-4.863 10.84-10.84 10.84-.177-.001-.351-.014-.527-.022zm7.925 12.738c-.908-1.82-1.898-3.578-2.93-5.311 8.228-2.019 14.373-9.404 14.373-18.246 0-10.389-8.453-18.842-18.84-18.842-8.204 0-15.248 5.379-17.783 12.846-1.101-.791-2.159-1.633-3.304-2.373 3.485-9.446 12.603-15.959 22.767-15.959 13.414 0 24.328 10.914 24.328 24.328 0 11.35-7.752 20.945-18.611 23.557z"/><path d="m202.338 153.856c0-15.812-12.863-28.676-28.676-28.676s-28.676 12.863-28.676 28.676c0 4.032.846 7.868 2.355 11.353-1.861-.322-3.799-.548-5.87-.548-11.859 0-20.801 5.605-20.801 13.039 0 6.232 8.398 25 20.801 25 11.123 0 19.004-15.069 20.516-22.679 3.571 1.6 7.516 2.51 11.675 2.51 15.813-.001 28.676-12.864 28.676-28.675zm-28.676-20.675c11.402 0 20.676 9.275 20.676 20.676s-9.273 20.674-20.676 20.674-20.676-9.273-20.676-20.674 9.274-20.676 20.676-20.676zm-32.191 61.519c-6.293 0-12.801-13.406-12.801-17 0-1.777 4.859-5.039 12.801-5.039s12.801 3.262 12.801 5.039c-.001 3.594-6.508 17-12.801 17z"/><path d="m174.846 160.596c3.614 0 6.543-2.929 6.543-6.543 0-3.613-2.929-6.543-6.543-6.543-3.613 0-6.542 2.929-6.542 6.543-.001 3.614 2.928 6.543 6.542 6.543z"/><path d="m108.322 147.51c-3.614 0-6.543 2.929-6.543 6.543s2.929 6.543 6.543 6.543c3.613 0 6.542-2.929 6.542-6.543.001-3.613-2.928-6.543-6.542-6.543z"/><path d="m152.697 214.28h-26.227c-3.797 0-6.887 3.088-6.887 6.885v16.729c0 9.008 7.328 16.338 16.336 16.338h7.328c9.008 0 16.336-7.33 16.336-16.338v-16.729c.001-3.797-3.089-6.885-6.886-6.885zm-25.113 23.614v-15.614h8v23.917c-4.439-.18-8-3.821-8-8.303zm24 0c0 4.483-3.561 8.123-8 8.304v-23.918h8z"/></g></svg>