<?xml version="1.0"?>
<svg xmlns="http://www.w3.org/2000/svg" viewBox="0 0 64 64" width="512" height="512"><title>a</title><g id="_18_Animal_Rescue_Call" data-name="18 Animal Rescue Call"><path d="M49.742,18.258a6,6,0,0,0-11.484,0A6,6,0,0,0,40,30h8a6,6,0,0,0,1.742-11.742ZM48,26H40a2,2,0,0,1,0-4,2,2,0,0,0,2-2,2,2,0,0,1,4,0,2,2,0,0,0,2,2,2,2,0,0,1,0,4Z"/><path d="M35.41,17.41a1.98,1.98,0,0,0,0-2.82,2.048,2.048,0,0,0-2.82,0A1.966,1.966,0,0,0,32,16a2,2,0,0,0,2,2A1.985,1.985,0,0,0,35.41,17.41Z"/><path d="M55.41,14.59a2.048,2.048,0,0,0-2.82,0A1.966,1.966,0,0,0,52,16a2,2,0,0,0,2,2,2.015,2.015,0,0,0,2-2A2.008,2.008,0,0,0,55.41,14.59Z"/><path d="M48,12a1.994,1.994,0,0,0,1.41-3.41,2.061,2.061,0,0,0-2.83,0A2,2,0,0,0,46,10a2.015,2.015,0,0,0,2,2Z"/><path d="M40,12a1.994,1.994,0,0,0,1.41-3.41,2.061,2.061,0,0,0-2.83,0A2.005,2.005,0,0,0,40,12Z"/><path d="M30,44a9.928,9.928,0,0,0-5.516,1.655l-6.139-6.139A10,10,0,1,0,0,34a9.912,9.912,0,0,0,2.93,7.065c.032.037.065.073.1.107l19.8,19.8c.035.036.072.07.109.1A10,10,0,1,0,30,44Zm0,16a5.949,5.949,0,0,1-4.314-1.837,1.715,1.715,0,0,0-.146-.137L5.974,38.459a1.691,1.691,0,0,0-.137-.144,6,6,0,1,1,8.406-.073,2,2,0,0,0,0,2.828l8.686,8.688a2.061,2.061,0,0,0,2.829,0A6,6,0,1,1,30,60Z"/><path d="M44,0A20.023,20.023,0,0,0,24,20a19.741,19.741,0,0,0,1.875,8.428l-1.836,9.179a2,2,0,0,0,2.353,2.354l9.18-1.836A19.753,19.753,0,0,0,44,40,20,20,0,0,0,44,0Zm0,36a15.824,15.824,0,0,1-7.249-1.75,1.987,1.987,0,0,0-.908-.219,2.007,2.007,0,0,0-.393.039l-6.9,1.38,1.38-6.9a2,2,0,0,0-.18-1.3A15.83,15.83,0,0,1,28,20,16,16,0,1,1,44,36Z"/></g></svg>
