<svg height="512" viewBox="0 0 64 64" width="512" xmlns="http://www.w3.org/2000/svg"><g id="_19_Electrocardiogram" data-name="19 Electrocardiogram"><path d="m58 10h-52a6.006 6.006 0 0 0 -6 6v32a6.006 6.006 0 0 0 6 6h52a6.006 6.006 0 0 0 6-6v-32a6.006 6.006 0 0 0 -6-6zm2 38a2 2 0 0 1 -2 2h-52a2 2 0 0 1 -2-2v-32a2 2 0 0 1 2-2h52a2 2 0 0 1 2 2z"/><path d="m34 18h-24a2 2 0 0 0 -2 2v24a2 2 0 0 0 2 2h24a2 2 0 0 0 2-2v-24a2 2 0 0 0 -2-2zm-2 4v8h-4a2 2 0 0 0 -1.664.891l-1.732 2.6-2.704-8.124a2 2 0 0 0 -3.561-.476l-3.409 5.109h-2.93v-8zm-20 20v-8h4a2 2 0 0 0 1.664-.891l1.731-2.6 2.705 8.124a2 2 0 0 0 3.562.476l3.408-5.109h2.93v8z"/><path d="m52 36h-8a2 2 0 0 0 0 4h8a2 2 0 0 0 0-4z"/><path d="m52 42h-8a2 2 0 0 0 0 4h8a2 2 0 0 0 0-4z"/><path d="m43.41 25.41a1.98 1.98 0 0 0 0-2.82 2.061 2.061 0 0 0 -2.83 0 2 2 0 0 0 1.42 3.41 1.966 1.966 0 0 0 1.41-.59z"/><path d="m48 22a1.994 1.994 0 0 0 1.41-3.41 2.061 2.061 0 0 0 -2.83 0 2 2 0 0 0 1.42 3.41z"/><path d="m52.58 22.59a2 2 0 0 0 -.58 1.41 2 2 0 0 0 3.42 1.41 2 2 0 0 0 -.01-2.83 2.071 2.071 0 0 0 -2.83.01z"/><path d="m52 28h-2v-2a2 2 0 0 0 -4 0v2h-2a2 2 0 0 0 0 4h8a2 2 0 0 0 0-4z"/></g></svg>