<svg id="kitten" enable-background="new 0 0 300 300" height="512" viewBox="0 0 300 300" width="512" xmlns="http://www.w3.org/2000/svg"><g><path d="m243.688 80.107c-1.412-.656-3.076-.436-4.264.566l-41.451 34.906c-12-11.279-27.34-17.445-43.592-17.445-16.355 0-31.785 6.246-43.816 17.66l-50.264-35.331c-1.227-.863-2.822-.967-4.145-.277-1.324.687-2.156 2.056-2.156 3.548v83.215c0 52.936 43.066 96 96 96s96-43.064 96-96v-83.215c0-1.556-.902-2.97-2.312-3.627zm-93.688 174.842c-34.763 0-64.877-20.265-79.164-49.6h30.764c2.209 0 4-1.791 4-4s-1.791-4-4-4h-34.183c-.964-2.61-1.802-5.281-2.519-8h20.702c2.209 0 4-1.791 4-4s-1.791-4-4-4h-22.4-.001c-.776-4.688-1.199-9.495-1.199-14.4v-75.513l46.711 32.834c1.625 1.146 3.836.922 5.197-.514 10.822-11.363 25.197-17.621 40.473-17.621s29.648 6.258 40.473 17.621c1.457 1.529 3.854 1.664 5.473.301l37.673-31.725v74.617c0 4.905-.423 9.712-1.198 14.401h-.001-22.4c-2.209 0-4 1.791-4 4s1.791 4 4 4h20.701c-.717 2.719-1.554 5.39-2.519 8h-34.183c-2.209 0-4 1.791-4 4s1.791 4 4 4h30.764c-14.287 29.334-44.401 49.599-79.164 49.599z"/><path d="m177.6 157.75c-5.081 0-9.2 4.119-9.2 9.2s4.119 9.2 9.2 9.2 9.2-4.119 9.2-9.2-4.119-9.2-9.2-9.2z"/><path d="m150 182.629c-10.672 0-18.721 5.125-18.721 11.922 0 5.584 7.561 22.398 18.721 22.398s18.721-16.814 18.721-22.398c0-6.797-8.049-11.922-18.721-11.922zm0 26.32c-5.139 0-10.721-11.439-10.721-14.398 0-1.008 3.686-3.922 10.721-3.922s10.721 2.914 10.721 3.922c0 2.959-5.582 14.398-10.721 14.398z"/><path d="m122.4 157.75c-5.081 0-9.2 4.119-9.2 9.2s4.119 9.2 9.2 9.2 9.2-4.119 9.2-9.2-4.119-9.2-9.2-9.2z"/><path d="m186 53.051c2.209 0 4-1.791 4-4v-8c0-2.209-1.791-4-4-4s-4 1.791-4 4v8c0 2.209 1.791 4 4 4z"/><path d="m186 61.051c-2.209 0-4 1.791-4 4v8c0 2.209 1.791 4 4 4s4-1.791 4-4v-8c0-2.209-1.791-4-4-4z"/><path d="m170 61.051h8c2.209 0 4-1.791 4-4s-1.791-4-4-4h-8c-2.209 0-4 1.791-4 4s1.791 4 4 4z"/><path d="m194 61.051h8c2.209 0 4-1.791 4-4s-1.791-4-4-4h-8c-2.209 0-4 1.791-4 4s1.791 4 4 4z"/><path d="m237.726 57.038c2.362 0 4.277-1.915 4.277-4.276s-1.915-4.277-4.277-4.277-4.276 1.915-4.276 4.277 1.915 4.276 4.276 4.276z"/></g></svg>