<svg id="medication" enable-background="new 0 0 300 300" height="512" viewBox="0 0 300 300" width="512" xmlns="http://www.w3.org/2000/svg"><g><path d="m217.013 65.977h.02c2.203 0 3.992-1.779 4-3.982l.035-8c.008-2.209-1.773-4.008-3.984-4.018-2.32.068-4.008 1.773-4.016 3.982l-.035 8c-.008 2.209 1.773 4.008 3.98 4.018z"/><path d="m216.974 73.975c-.008 0-.012 0-.02 0-2.199 0-3.988 1.777-4 3.98l-.039 8c-.012 2.209 1.769 4.008 3.98 4.02h.02c2.199 0 3.988-1.777 4-3.98l.039-8c.012-2.21-1.769-4.009-3.98-4.02z"/><path d="m200.974 73.898 8 .039h.02c2.199 0 3.988-1.777 4-3.98.012-2.209-1.77-4.008-3.98-4.02l-8-.039c-.008 0-.012 0-.02 0-2.199 0-3.988 1.777-4 3.98-.012 2.21 1.769 4.009 3.98 4.02z"/><path d="m224.974 74.014 8 .039h.02c2.199 0 3.988-1.777 4-3.98.012-2.209-1.77-4.008-3.98-4.02l-8-.039c-.008 0-.012 0-.02 0-2.199 0-3.988 1.777-4 3.98-.012 2.209 1.769 4.008 3.98 4.02z"/><path d="m239.462 203.781-28.285-28.285c-10.137-10.143-26.633-10.135-36.77 0-.524.524-1.003 1.074-1.473 1.63v-58.413c0-16.557-12.384-30.244-28.367-32.37v-8.32h4.367c2.211 0 4-1.791 4-4v-20c0-2.209-1.789-4-4-4h-72c-2.211 0-4 1.791-4 4v20c0 2.209 1.789 4 4 4h4v8.376c-15.805 2.286-28 15.884-28 32.314v98.621c0 18.025 14.664 32.689 32.688 32.689h54.625c18.023 0 32.688-14.664 32.688-32.689v-6.698c.469.556.949 1.106 1.473 1.63l28.285 28.285c5.066 5.068 11.727 7.602 18.383 7.602 6.66 0 13.316-2.533 18.387-7.602 10.136-10.137 10.136-26.633-.001-36.77zm-178.527-69.758h104v64h-104zm28-56h47.633v8h-47.633zm40-8h-12v-12h12zm-20 0h-12v-12h12zm36 0h-8v-12h8zm-64-12h8v12h-8zm4.688 36h54.625c13.613 0 24.688 11.076 24.688 24.689v7.311h-104v-7.311c-.001-13.612 11.073-24.689 24.687-24.689zm54.625 148h-54.625c-13.613 0-24.688-11.076-24.688-24.689v-11.311h104v11.311c0 13.613-11.074 24.689-24.687 24.689zm39.816-60.871c7.023-7.016 18.441-7.016 25.457 0l9.899 9.9-25.454 25.457-9.902-9.9c-7.016-7.017-7.016-18.439 0-25.457zm53.742 53.743c-7.023 7.016-18.441 7.016-25.457 0l-12.727-12.729 25.453-25.457 12.73 12.729c7.017 7.017 7.017 18.439.001 25.457z"/><path d="m146.935 154.023h-2v-2c0-5.514-4.484-10-10-10s-10 4.486-10 10v2h-2c-5.516 0-10 4.486-10 10s4.484 10 10 10h2v2c0 5.514 4.484 10 10 10s10-4.486 10-10v-2h2c5.516 0 10-4.486 10-10s-4.484-10-10-10zm0 12h-6c-2.211 0-4 1.791-4 4v6c0 1.104-.898 2-2 2s-2-.896-2-2v-6c0-2.209-1.789-4-4-4h-6c-1.102 0-2-.896-2-2s.898-2 2-2h6c2.211 0 4-1.791 4-4v-6c0-1.104.898-2 2-2s2 .896 2 2v6c0 2.209 1.789 4 4 4h6c1.102 0 2 .896 2 2s-.898 2-2 2z"/><path d="m96.935 142.023h-20c-2.211 0-4 1.791-4 4s1.789 4 4 4h20c2.211 0 4-1.791 4-4s-1.789-4-4-4z"/><path d="m96.935 162.023h-20c-2.211 0-4 1.791-4 4s1.789 4 4 4h20c2.211 0 4-1.791 4-4s-1.789-4-4-4z"/><path d="m96.935 182.023h-20c-2.211 0-4 1.791-4 4s1.789 4 4 4h20c2.211 0 4-1.791 4-4s-1.789-4-4-4z"/><path d="m234.242 114.365c-.011 2.362 1.894 4.286 4.256 4.297s4.286-1.894 4.297-4.256-1.894-4.286-4.256-4.297-4.286 1.894-4.297 4.256z"/></g></svg>