<svg height="512" viewBox="0 0 64 64" width="512" xmlns="http://www.w3.org/2000/svg"><g id="_20_Animal_Save" data-name="20 Animal Save"><path d="m62 34h-2v-24a10.011 10.011 0 0 0 -10-10h-36a10.011 10.011 0 0 0 -10 10v24h-2a2 2 0 0 0 -2 2v10a2 2 0 0 0 2 2v6a10.011 10.011 0 0 0 10 10h40a10.011 10.011 0 0 0 10-10v-6a2 2 0 0 0 2-2v-10a2 2 0 0 0 -2-2zm-54-24a6.006 6.006 0 0 1 6-6h36a6.006 6.006 0 0 1 6 6v24h-6c-13.4 0-14-13.86-14-14a10 10 0 0 0 -19.8-2h-2.2a2 2 0 0 0 -2 2v4a6.006 6.006 0 0 0 6 6h4v4h-14zm16 16h-6a2 2 0 0 1 -2-2v-2h2a2 2 0 0 0 2-2 6 6 0 0 1 12 0 19.7 19.7 0 0 0 6.5 14h-12.5v-6a2 2 0 0 0 -2-2zm-20 12h56v6h-56zm46 22h-6v-4h6zm-36-4h6v4h-6zm6-8v4h-6v-4zm10 0v4h-6v-4zm10 0v4h-6v-4zm-16 8h6v4h-6zm10 0h6v4h-6zm10-4v-4h6v4zm-34-4v4h-4v-4zm-3.65 8h3.65v3.65a6.021 6.021 0 0 1 -3.65-3.65zm47.65 3.65v-3.65h3.65a6.021 6.021 0 0 1 -3.65 3.65zm4-7.65h-4v-4h4z"/><path d="m28 24a2 2 0 0 0 2-2v-4a2 2 0 0 0 -4 0v4a2 2 0 0 0 2 2z"/></g></svg>