<svg id="paper_x5F_appointment" enable-background="new 0 0 300 300" height="512" viewBox="0 0 300 300" width="512" xmlns="http://www.w3.org/2000/svg"><g><path d="m219.925 43.977h.02c2.203 0 3.992-1.779 4-3.982l.035-8c.008-2.209-1.773-4.008-3.984-4.018-.004 0-.012 0-.016 0-2.203 0-3.992 1.779-4 3.982l-.035 8c-.009 2.209 1.773 4.008 3.98 4.018z"/><path d="m219.886 51.975c-.008 0-.012 0-.02 0-2.199 0-3.988 1.777-4 3.98l-.039 8c-.012 2.209 1.77 4.008 3.98 4.02h.02c2.199 0 3.988-1.777 4-3.98l.039-8c.012-2.21-1.769-4.009-3.98-4.02z"/><path d="m211.925 43.938-8-.039c-2.336.113-4.004 1.77-4.02 3.98-.012 2.209 1.77 4.008 3.98 4.02l8 .039h.02c2.199 0 3.988-1.777 4-3.98.012-2.21-1.769-4.009-3.98-4.02z"/><path d="m235.925 44.053-8-.039c-2.059-.002-4.008 1.771-4.02 3.98s1.77 4.008 3.98 4.02l8 .039h.02c2.199 0 3.988-1.777 4-3.98.012-2.21-1.769-4.009-3.98-4.02z"/><path d="m195.847 60.023h-148c-2.211 0-4 1.791-4 4v204c0 2.209 1.789 4 4 4h148c2.211 0 4-1.791 4-4v-204c0-2.209-1.789-4-4-4zm-4 204h-140v-196h140z"/><path d="m67.847 104.023h32c2.211 0 4-1.791 4-4s-1.789-4-4-4h-32c-2.211 0-4 1.791-4 4s1.789 4 4 4z"/><path d="m67.847 128.023h44c2.211 0 4-1.791 4-4s-1.789-4-4-4h-44c-2.211 0-4 1.791-4 4s1.789 4 4 4z"/><path d="m67.847 152.023h88c2.211 0 4-1.791 4-4s-1.789-4-4-4h-88c-2.211 0-4 1.791-4 4s1.789 4 4 4z"/><path d="m67.847 176.023h88c2.211 0 4-1.791 4-4s-1.789-4-4-4h-88c-2.211 0-4 1.791-4 4s1.789 4 4 4z"/><path d="m141.847 108.023h2v2c0 5.514 4.484 10 10 10s10-4.486 10-10v-2h2c5.516 0 10-4.486 10-10s-4.484-10-10-10h-2v-2c0-5.514-4.484-10-10-10s-10 4.486-10 10v2h-2c-5.516 0-10 4.486-10 10s4.484 10 10 10zm0-12h6c2.211 0 4-1.791 4-4v-6c0-1.104.898-2 2-2s2 .896 2 2v6c0 2.209 1.789 4 4 4h6c1.102 0 2 .896 2 2s-.898 2-2 2h-6c-2.211 0-4 1.791-4 4v6c0 1.104-.898 2-2 2s-2-.896-2-2v-6c0-2.209-1.789-4-4-4h-6c-1.102 0-2-.896-2-2s.898-2 2-2z"/><ellipse cx="251.877" cy="93.003" rx="4.276" ry="4.277" transform="matrix(.984 -.181 .181 .984 -12.657 47.031)"/><path d="m133.061 219.281c-.723-.514-1.137-1.229-1.137-1.959 0-5.455-4.117-9.945-9.375-10.221-2.641-.135-5.352.814-7.34 2.705-1.961 1.861-3.086 4.479-3.086 7.516 0 .732-.414 1.445-1.133 1.953-3.141 2.227-4.738 5.988-4.16 9.818.633 4.189 3.832 7.566 7.969 8.406.691.139 1.387.207 2.078.207 1.047 0 2.09-.158 3.078-.473 1.367-.434 2.766-.436 4.141.002 1.641.52 3.426.605 5.152.262 4.137-.838 7.34-4.215 7.973-8.41.571-3.827-1.023-7.587-4.16-9.806zm-5.398 10.375c-.398.086-.789.07-1.148-.047-2.941-.936-6.047-.932-8.98 0-.355.115-.738.129-1.145.049-.812-.164-1.52-.92-1.645-1.758-.129-.836.199-1.619.871-2.096 2.824-2.002 4.508-5.172 4.508-8.816 0-.711.371-1.168.594-1.379.211-.199.652-.521 1.309-.521.035 0 .07 0 .105.002.973.051 1.793 1.074 1.793 2.232 0 3.305 1.684 6.475 4.508 8.484.676.475 1 1.262.875 2.096-.125.836-.832 1.59-1.645 1.754z"/><path d="m142.385 208.636c-3.384 0-6.127 2.743-6.127 6.127s2.743 6.127 6.127 6.127 6.126-2.743 6.126-6.127c0-3.383-2.742-6.127-6.126-6.127z"/><path d="m138.332 199.494c0-3.384-2.743-6.127-6.126-6.127s-6.127 2.743-6.127 6.127 2.743 6.127 6.127 6.127 6.126-2.744 6.126-6.127z"/><path d="m114.391 205.62c3.383 0 6.126-2.743 6.126-6.127s-2.743-6.127-6.126-6.127c-3.384 0-6.127 2.743-6.127 6.127s2.743 6.127 6.127 6.127z"/><path d="m101.665 208.636c-3.383 0-6.126 2.743-6.126 6.127s2.743 6.127 6.126 6.127c3.384 0 6.127-2.743 6.127-6.127 0-3.383-2.743-6.127-6.127-6.127z"/></g></svg>