<?xml version="1.0"?>
<svg xmlns="http://www.w3.org/2000/svg" viewBox="0 0 64 64" width="512" height="512"><title>a</title><g id="_21_Animal_Check_Up" data-name="21 Animal Check Up"><path d="M54,60c-2.886,0-6-3.059-6-8A11.99,11.99,0,0,0,36,40c-10.756,0-12-5.707-12-10A10,10,0,0,0,4.2,28H2a2,2,0,0,0-2,2v4a6.006,6.006,0,0,0,6,6h4V60a2,2,0,0,0,0,4h5a5.006,5.006,0,0,0,5-5V56.64a14.334,14.334,0,0,0,5.416,1.005c.092.171.2.334.3.5.057.094.113.191.173.284q.174.273.363.537c.044.061.09.12.135.18q.33.442.7.852H26a2,2,0,0,0,0,4H36c.363,0,.722-.02,1.077-.051.112-.009.22-.027.331-.04.247-.028.492-.061.735-.1.045-.008.091-.011.136-.02s.092-.026.139-.036a12.136,12.136,0,0,0,1.423-.373l.025-.009a11.879,11.879,0,0,0,1.36-.56c.051-.025.1-.047.154-.073a11.881,11.881,0,0,0,1.238-.716L42.8,61.9a12.042,12.042,0,0,0,1.143-.883c.026-.025.051-.05.078-.074a12.136,12.136,0,0,0,1.014-1.027c.023-.027.049-.053.072-.079q.378-.443.714-.922A9.87,9.87,0,0,0,54,64a2,2,0,0,0,0-4ZM20,51.909V50a2,2,0,0,0-4,0v9a1,1,0,0,1-1,1H14V38a2,2,0,0,0-2-2H6a2,2,0,0,1-2-2V32H6a2,2,0,0,0,2-2,6,6,0,0,1,12,0c0,9.159,5.533,14,16,14a8.106,8.106,0,0,1,2.534.405,7.962,7.962,0,0,1,5.107,5.216h0a8.069,8.069,0,0,1,0,4.757c-.078.251-.189.482-.289.72-.069.164-.122.339-.2.5-.1.2-.221.37-.333.554s-.2.367-.324.535c-.092.128-.2.239-.3.361-.165.2-.323.413-.506.6-.062.062-.135.111-.2.172a8.107,8.107,0,0,1-.745.642c-.021.015-.045.025-.065.04a7.866,7.866,0,0,1-.994.615h0a7.949,7.949,0,0,1-2.383.784,7.7,7.7,0,0,1-2.371.022c-.1-.014-.2-.028-.3-.046a8,8,0,0,1-.891-.206c-.118-.034-.232-.075-.347-.115q-.339-.117-.665-.264c-.142-.063-.283-.131-.42-.2-.182-.1-.358-.2-.532-.311q-.3-.186-.576-.4c-.145-.109-.287-.222-.424-.341-.117-.1-.232-.2-.343-.311a8.032,8.032,0,0,1-.624-.679c-.052-.065-.1-.133-.148-.2a8.088,8.088,0,0,1-.542-.8c-.017-.029-.037-.058-.054-.088a8.422,8.422,0,0,1-.514-1.084A7.949,7.949,0,0,1,28,52a2,2,0,0,0-4,0,12,12,0,0,0,.114,1.562C21.722,53.289,20.245,52.346,20,51.909Z"/><path d="M16,26a2,2,0,0,0-2,2v4a2,2,0,0,0,4,0V28A2,2,0,0,0,16,26Z"/><path d="M58,0a2,2,0,0,0,0,4,2,2,0,0,1,2,2v4a2,2,0,0,1-2,2H46a2,2,0,0,1-2-2V6a2,2,0,0,1,2-2,2,2,0,0,0,0-4,6.006,6.006,0,0,0-6,6v4a6.006,6.006,0,0,0,6,6v4a2,2,0,0,0,2,2h2v8a2,2,0,0,1-2,2H40a2,2,0,0,1-2-2V27.65a6,6,0,1,0-4,0V30a6.006,6.006,0,0,0,6,6h8a6.006,6.006,0,0,0,6-6V22h2a2,2,0,0,0,2-2V16a6.006,6.006,0,0,0,6-6V6A6.006,6.006,0,0,0,58,0ZM36,20a2,2,0,1,1-2,2A2,2,0,0,1,36,20Zm18-2H50V16h4Z"/></g></svg>
