<?xml version="1.0"?>
<svg xmlns="http://www.w3.org/2000/svg" viewBox="0 0 64 64" width="512" height="512"><title>a</title><g id="_22_Animal_Injection" data-name="22 Animal Injection"><path d="M54,60c-2.886,0-6-3.059-6-8A11.99,11.99,0,0,0,36,40c-10.756,0-12-5.707-12-10A10,10,0,0,0,4.2,28H2a2,2,0,0,0-2,2v4a6.006,6.006,0,0,0,6,6h4V60a2,2,0,0,0,0,4h5a5.006,5.006,0,0,0,5-5V56.64a14.334,14.334,0,0,0,5.416,1.005c.095.175.2.344.3.515.053.089.106.179.162.267q.177.276.367.543c.043.059.088.117.132.176.22.3.453.581.7.854H26a2,2,0,0,0,0,4H36c.363,0,.722-.02,1.077-.051.111-.009.22-.027.331-.04.247-.028.492-.061.735-.1.044-.008.091-.011.136-.02s.092-.026.139-.036a12.136,12.136,0,0,0,1.423-.373l.025-.009a11.879,11.879,0,0,0,1.36-.56c.051-.025.1-.047.154-.073a11.881,11.881,0,0,0,1.238-.716L42.8,61.9a11.9,11.9,0,0,0,1.142-.883c.027-.025.052-.05.079-.074a12.136,12.136,0,0,0,1.014-1.027c.023-.027.049-.053.072-.079q.378-.443.714-.922A9.87,9.87,0,0,0,54,64a2,2,0,0,0,0-4ZM20,51.909V50a2,2,0,0,0-4,0v9a1,1,0,0,1-1,1H14V38a2,2,0,0,0-2-2H6a2,2,0,0,1-2-2V32H6a2,2,0,0,0,2-2,6,6,0,0,1,12,0c0,9.159,5.533,14,16,14a8.106,8.106,0,0,1,2.534.405,7.962,7.962,0,0,1,5.107,5.216h0a8.069,8.069,0,0,1,0,4.757c-.078.251-.189.482-.289.72-.069.164-.122.339-.2.5-.1.2-.221.37-.333.554s-.2.367-.324.535c-.092.128-.2.239-.3.361-.165.2-.323.413-.506.6-.062.062-.135.111-.2.172a8.107,8.107,0,0,1-.745.642c-.021.015-.045.025-.065.04a7.866,7.866,0,0,1-.994.615h0a7.949,7.949,0,0,1-2.383.784,7.7,7.7,0,0,1-2.371.022c-.1-.014-.2-.028-.3-.046a8,8,0,0,1-.891-.206c-.118-.034-.233-.075-.348-.115q-.339-.117-.663-.263-.215-.1-.422-.2c-.181-.094-.355-.2-.528-.308-.2-.125-.393-.258-.581-.4-.143-.109-.285-.221-.421-.339-.118-.1-.233-.2-.345-.313a8.021,8.021,0,0,1-.623-.678c-.052-.064-.1-.133-.149-.2a8.311,8.311,0,0,1-.54-.8c-.018-.031-.037-.061-.055-.091a8.291,8.291,0,0,1-.514-1.084A7.953,7.953,0,0,1,28,52a2,2,0,0,0-4,0,11.827,11.827,0,0,0,.114,1.562C21.722,53.289,20.245,52.346,20,51.909Z"/><path d="M16,26a2,2,0,0,0-2,2v4a2,2,0,0,0,4,0V28A2,2,0,0,0,16,26Z"/><path d="M63.414,6.586l-6-6a2,2,0,0,0-2.828,2.828L56.172,5,52,9.172,49.414,6.586a2,2,0,0,0-2.828,0l-12,12a2,2,0,0,0,0,2.828l8,8a2,2,0,0,0,2.828,0l12-12a2,2,0,0,0,0-2.828L54.828,12,59,7.828l1.586,1.586a2,2,0,0,0,2.828-2.828ZM44,25.172,38.829,20,40,18.828l1.586,1.586a2,2,0,0,0,2.828-2.828L42.828,16,44,14.828l1.586,1.586a2,2,0,0,0,2.828-2.828L46.828,12,48,10.828,53.171,16Z"/><path d="M32,34a1.99,1.99,0,0,0,1.414-.586L36,30.828l.586.586a2,2,0,0,0,2.828-2.828l-4-4a2,2,0,0,0-2.828,2.828l.586.586-2.586,2.586A2,2,0,0,0,32,34Z"/></g></svg>
