<svg id="paw_x5F_medical" enable-background="new 0 0 300 300" height="512" viewBox="0 0 300 300" width="512" xmlns="http://www.w3.org/2000/svg"><g><path d="m196.485 200.649c-7.906-5.604-12.439-13.938-12.439-22.865 0-18.473-14.24-34.248-31.744-35.166-9.281-.502-18.145 2.768-24.883 9.162-6.742 6.398-10.455 15.041-10.455 24.332v1.672c0 8.928-4.533 17.262-12.438 22.865-10.768 7.635-16.225 20.543-14.244 33.689 2.127 14.113 13.326 25.939 27.232 28.758 2.441.494 4.869.742 7.273.742 3.57 0 7.086-.545 10.512-1.633 10.086-3.197 20.314-3.201 30.408 0 5.73 1.82 11.719 2.121 17.789.891 13.904-2.818 25.104-14.645 27.23-28.758 1.982-13.146-3.475-26.054-14.241-33.689zm6.332 32.498c-1.637 10.854-10.234 19.945-20.908 22.109-4.727.953-9.361.725-13.783-.676-11.529-3.662-23.717-3.658-35.246 0-4.42 1.4-9.057 1.631-13.777.676-10.676-2.164-19.273-11.256-20.91-22.109-1.527-10.143 2.672-20.096 10.961-25.971 10.047-7.125 15.811-17.838 15.811-29.393v-1.672c0-7.076 2.828-13.656 7.963-18.529 4.795-4.551 10.988-7.012 17.568-7.012.461 0 .924.012 1.389.035 13.322.699 24.162 12.891 24.162 27.178 0 11.555 5.764 22.268 15.812 29.393 8.287 5.876 12.486 15.829 10.958 25.971z"/><path d="m232.876 142.571c-16.4 0-29.742 13.342-29.742 29.74 0 16.4 13.342 29.742 29.742 29.742 16.398 0 29.74-13.342 29.74-29.742 0-16.398-13.342-29.74-29.74-29.74zm0 51.483c-11.988 0-21.742-9.754-21.742-21.742s9.754-21.74 21.742-21.74 21.74 9.752 21.74 21.74-9.752 21.742-21.74 21.742z"/><path d="m191.69 140.274c16.398 0 29.74-13.342 29.74-29.74s-13.342-29.74-29.74-29.74c-16.4 0-29.742 13.342-29.742 29.74s13.342 29.74 29.742 29.74zm0-51.48c11.988 0 21.74 9.752 21.74 21.74s-9.752 21.74-21.74 21.74-21.742-9.752-21.742-21.74 9.754-21.74 21.742-21.74z"/><path d="m119.616 140.274c16.398 0 29.74-13.342 29.74-29.74s-13.342-29.74-29.74-29.74c-16.4 0-29.742 13.342-29.742 29.74s13.342 29.74 29.742 29.74zm0-51.48c11.988 0 21.74 9.752 21.74 21.74s-9.752 21.74-21.74 21.74-21.742-9.752-21.742-21.74 9.754-21.74 21.742-21.74z"/><path d="m68.134 142.571c-16.398 0-29.74 13.342-29.74 29.74 0 16.4 13.342 29.742 29.74 29.742s29.74-13.342 29.74-29.742c0-16.398-13.342-29.74-29.74-29.74zm0 51.483c-11.988 0-21.74-9.754-21.74-21.742s9.752-21.74 21.74-21.74 21.74 9.752 21.74 21.74-9.752 21.742-21.74 21.742z"/><path d="m57.384 52.161c2.209 0 4-1.791 4-4v-8c0-2.209-1.791-4-4-4s-4 1.791-4 4v8c0 2.209 1.791 4 4 4z"/><path d="m57.384 60.161c-2.209 0-4 1.791-4 4v8c0 2.209 1.791 4 4 4s4-1.791 4-4v-8c0-2.209-1.791-4-4-4z"/><path d="m41.384 60.161h8c2.209 0 4-1.791 4-4s-1.791-4-4-4h-8c-2.209 0-4 1.791-4 4s1.791 4 4 4z"/><path d="m65.384 60.161h8c2.209 0 4-1.791 4-4s-1.791-4-4-4h-8c-2.209 0-4 1.791-4 4s1.791 4 4 4z"/><path d="m105.486 53.705c2.362 0 4.276-1.915 4.276-4.276s-1.915-4.276-4.276-4.276-4.277 1.915-4.277 4.276 1.916 4.276 4.277 4.276z"/><path d="m164.931 200.099c-.92-6.836-6.791-12.125-13.875-12.125s-12.955 5.289-13.875 12.125c-6.836.92-12.125 6.791-12.125 13.875s5.289 12.955 12.125 13.875c.92 6.836 6.791 12.125 13.875 12.125s12.955-5.289 13.875-12.125c6.836-.92 12.125-6.791 12.125-13.875s-5.289-12.956-12.125-13.875zm-1.875 19.875h-2c-2.209 0-4 1.791-4 4v2c0 3.309-2.691 6-6 6s-6-2.691-6-6v-2c0-2.209-1.791-4-4-4h-2c-3.309 0-6-2.691-6-6s2.691-6 6-6h2c2.209 0 4-1.791 4-4v-2c0-3.309 2.691-6 6-6s6 2.691 6 6v2c0 2.209 1.791 4 4 4h2c3.309 0 6 2.691 6 6s-2.692 6-6 6z"/></g></svg>