<?xml version="1.0"?>
<svg xmlns="http://www.w3.org/2000/svg" viewBox="0 0 64 64" width="512" height="512"><title>a</title><g id="_23_Animal_Cruelty" data-name="23 Animal Cruelty"><path d="M50,60c-2.886,0-6-3.059-6-8A12.013,12.013,0,0,0,32,40c-13.127,0-15.671-7.08-16-8.242V24a2,2,0,0,0-4,0v1.082a7.935,7.935,0,0,0-8,0V24a2,2,0,0,0-4,0v8a8,8,0,0,0,6,7.736V60a2,2,0,0,0,0,4h5a5.006,5.006,0,0,0,5-5V56.392A33.4,33.4,0,0,0,20.453,60H20a2,2,0,0,0,0,4H30a2,2,0,0,0,.528-.079c.494.047.986.079,1.472.079a11.986,11.986,0,0,0,9.807-5.106A9.87,9.87,0,0,0,50,64a2,2,0,0,0,0-4ZM4,32a4,4,0,1,1,4,4A4,4,0,0,1,4,32ZM32,60a8.009,8.009,0,0,1-8-8,2,2,0,0,0-4,0,11.941,11.941,0,0,0,.386,2.965A34.555,34.555,0,0,1,16,50.505V48a2,2,0,0,0-4,0V59a1,1,0,0,1-1,1H10V39.747c.039-.01.075-.029.114-.04a7.958,7.958,0,0,0,1.079-.377c.053-.022.1-.05.154-.073a8.126,8.126,0,0,0,.948-.519l.121-.073a8.2,8.2,0,0,0,.89-.694l.172-.156a8.1,8.1,0,0,0,.761-.821c.013-.016.03-.028.042-.045C16.751,40.2,21.816,44,32,44a8,8,0,0,1,0,16Z"/><path d="M64,8A8,8,0,0,0,48,8a7.7,7.7,0,0,0,.085,1.116L50,38.072V50a6,6,0,0,0,12,0V38.072L63.915,9.116A7.7,7.7,0,0,0,64,8ZM54,40h4v4H54ZM56,4a3.957,3.957,0,0,1,3.947,4.6q-.012.084-.018.168L58.128,36H53.872l-1.8-27.228c0-.056-.011-.112-.018-.168A3.957,3.957,0,0,1,56,4Zm2,46a2,2,0,0,1-4,0V48h4Z"/><path d="M20,20a1.99,1.99,0,0,0,1.414-.586l4-4a2,2,0,1,0-2.828-2.828l-4,4A2,2,0,0,0,20,20Z"/><path d="M10,16a2,2,0,0,0,2-2V10a2,2,0,0,0-4,0v4A2,2,0,0,0,10,16Z"/><path d="M22,28a2,2,0,0,0,2,2h4a2,2,0,0,0,0-4H24A2,2,0,0,0,22,28Z"/></g></svg>
