<svg id="pets" enable-background="new 0 0 300 300" height="512" viewBox="0 0 300 300" width="512" xmlns="http://www.w3.org/2000/svg"><g><path d="m225.651 56c2.209 0 4-1.791 4-4v-8c0-2.209-1.791-4-4-4s-4 1.791-4 4v8c0 2.209 1.791 4 4 4z"/><path d="m225.651 64c-2.209 0-4 1.791-4 4v8c0 2.209 1.791 4 4 4s4-1.791 4-4v-8c0-2.209-1.791-4-4-4z"/><path d="m209.651 64h8c2.209 0 4-1.791 4-4s-1.791-4-4-4h-8c-2.209 0-4 1.791-4 4s1.791 4 4 4z"/><path d="m233.651 64h8c2.209 0 4-1.791 4-4s-1.791-4-4-4h-8c-2.209 0-4 1.791-4 4s1.791 4 4 4z"/><path d="m251.943 102.119c2.362 0 4.277-1.915 4.277-4.276s-1.915-4.277-4.277-4.277-4.276 1.915-4.276 4.277 1.914 4.276 4.276 4.276z"/><path d="m97.228 144.444c-3.986 0-7.218 3.231-7.218 7.218 0 3.986 3.231 7.217 7.218 7.217s7.218-3.231 7.218-7.217c-.001-3.986-3.232-7.218-7.218-7.218z"/><path d="m263.339 119.088c-1.41-.652-3.076-.434-4.264.566l-30.893 26.016c-9.213-8.383-20.865-12.955-33.197-12.955-3.167 0-6.287.309-9.334.899v-65.09c0-1.588-.939-3.025-2.395-3.664-1.447-.637-3.145-.352-4.316.723l-31.42 28.967-18.506 1.425c-4.651-29.239-29.636-39.283-30.73-39.706-1.227-.473-2.607-.314-3.699.432-1.086.744-1.736 1.975-1.74 3.291l-.104 42.471c0 .002.001.003.001.005s-.001.003-.001.005c0 12.41-3.984 21.783-10.412 32.885-6.309 10.9-15.062 21.098-26.02 30.314-15.836 13.318-23.17 27.225-21.799 41.336 2.217 22.838 26.871 39.717 41.371 47.746 6.2 3.432 13.315 5.246 20.577 5.246h94.577c.208.002 2.617-.07 2.617-.07 39.875-1.073 72-33.769 72-73.899v-63.316c-.001-1.557-.903-2.971-2.313-3.627zm-142.375-22.494-20.212 1.556.077-31.56c6.644 4.173 17.235 13.389 20.135 30.004zm-49.717 79.851c12.953 0 21.98 6.107 21.98 11.588 0 6.195-9.746 21.98-21.98 21.98s-21.98-15.785-21.98-21.98c0-5.48 9.027-11.588 21.98-11.588zm25.211 75.555c-5.908 0-11.684-1.469-16.701-4.248-13.125-7.268-35.42-22.326-37.283-41.52-.312-3.208.044-6.438.929-9.679 4.34 9.928 14.912 21.46 27.845 21.46 17.02 0 29.98-19.98 29.98-29.98 0-10.984-13.17-19.588-29.98-19.588-2.233 0-4.395.162-6.478.451 10.13-9.051 18.367-18.963 24.483-29.533 6.281-10.846 10.65-20.799 11.381-33.18l48.885-3.766c.896-.068 1.744-.438 2.404-1.047l25.729-23.719v58.255c-5.862 2.227-11.313 5.571-16.09 9.97l-37.609-26.436c-1.225-.857-2.82-.965-4.145-.275-1.324.688-2.156 2.057-2.156 3.549v63.316c0 28.8 16.572 53.746 40.648 65.969h-61.842zm95.81 0h-1.234c-25.254-.235-47.125-14.724-58.013-35.795h21.804c2.209 0 4-1.791 4-4s-1.791-4-4-4h-25.26c-.493-1.374-.954-2.759-1.356-4.174h14.441c2.209 0 4-1.791 4-4s-1.791-4-4-4h-16.159c-.5-3.27-.841-6.592-.841-10v-55.615l34.035 23.924c1.623 1.143 3.836.922 5.197-.516 8.051-8.453 18.74-13.109 30.102-13.109 11.359 0 22.049 4.656 30.102 13.109 1.459 1.535 3.855 1.664 5.473.303l27.092-22.814v54.719c0 3.408-.34 6.73-.841 10h-16.159c-2.209 0-4 1.791-4 4s1.791 4 4 4h14.441c-.402 1.415-.863 2.8-1.356 4.174h-25.26c-2.209 0-4 1.791-4 4s1.791 4 4 4h21.804c-10.887 21.07-32.758 35.559-58.012 35.794z"/><circle cx="212.651" cy="186.031" r="7"/><path d="m191.651 197.004c-8.664 0-15.199 4.311-15.199 10.027 0 4.627 5.971 18 15.199 18s15.199-13.373 15.199-18c.001-5.717-6.535-10.027-15.199-10.027zm0 20.027c-3.027 0-7.109-7.703-7.238-9.781.32-.66 2.857-2.246 7.238-2.246 4.205 0 6.711 1.461 7.189 2.162-.247 2.477-4.224 9.865-7.189 9.865z"/><circle cx="170.651" cy="186.031" r="7"/></g></svg>