<svg id="pet_x5F_carrier" enable-background="new 0 0 300 300" height="512" viewBox="0 0 300 300" width="512" xmlns="http://www.w3.org/2000/svg"><g><path d="m249.861 175.758h-11.977l-20.617-61.275c-.551-1.629-2.074-2.725-3.793-2.725h-31.613v-9.684c0-7.895-6.422-14.316-14.316-14.316h-31.199c-7.895 0-14.316 6.422-14.316 14.316v9.684h-35.505c-1.719 0-3.242 1.096-3.793 2.725l-20.621 61.275h-11.972c-8.824 0-16 7.178-16 16s7.176 16 16 16h12.798l19.917 46.072c.633 1.465 2.078 2.412 3.672 2.412h126.949c1.594 0 3.039-.949 3.672-2.412l19.915-46.072h12.8c8.824 0 16-7.178 16-16s-7.176-16-16.001-16zm-119.832-73.684c0-3.482 2.832-6.316 6.316-6.316h31.199c3.484 0 6.316 2.834 6.316 6.316v9.684h-43.832v-9.684zm-40.629 17.684h121.2l18.841 56h-158.885zm-17.747 88h11.343l17.737 40.484h-11.579zm136.338 0-17.737 40.484h-13.482l12.107-40.484zm-39.569 40.484h-14.561v-40.484h26.668zm-22.561 0h-14.561l-12.107-40.484h26.668zm-35.017-40.484 12.107 40.484h-13.482l-17.737-40.484zm100.002 40.484h-11.856l17.737-40.484h11.618zm39.015-48.484h-199.722c-4.41 0-8-3.588-8-8s3.59-8 8-8h199.723c4.41 0 8 3.588 8 8s-3.591 8-8.001 8z"/><path d="m160.42 125.967c-3.406 0-6.637 1.209-9.188 3.324-2.551-2.115-5.781-3.324-9.188-3.324-7.996 0-14.5 6.504-14.5 14.498 0 8.551 16.254 25.426 21.188 29.373.73.584 1.617.877 2.5.877s1.77-.293 2.5-.877c4.934-3.947 21.188-20.822 21.188-29.373 0-7.994-6.504-14.498-14.5-14.498zm-9.188 35.449c-7.012-6.537-15.637-17.844-15.688-20.951 0-3.584 2.914-6.498 6.5-6.498 2.352 0 4.523 1.312 5.672 3.424 1.406 2.578 5.625 2.578 7.031 0 1.148-2.111 3.32-3.424 5.672-3.424 3.586 0 6.5 2.914 6.5 6.496-.05 3.109-8.675 14.416-15.687 20.953z"/><path d="m237.861 59.758c2.211 0 4-1.791 4-4v-8c0-2.209-1.789-4-4-4s-4 1.791-4 4v8c0 2.209 1.789 4 4 4z"/><path d="m237.861 67.758c-2.211 0-4 1.791-4 4v8c0 2.209 1.789 4 4 4s4-1.791 4-4v-8c0-2.209-1.789-4-4-4z"/><path d="m221.861 67.758h8c2.211 0 4-1.791 4-4s-1.789-4-4-4h-8c-2.211 0-4 1.791-4 4s1.789 4 4 4z"/><path d="m245.861 67.758h8c2.211 0 4-1.791 4-4s-1.789-4-4-4h-8c-2.211 0-4 1.791-4 4s1.789 4 4 4z"/><path d="m254.989 103.513c0 2.362 1.915 4.277 4.276 4.277 2.362 0 4.277-1.915 4.277-4.277s-1.915-4.276-4.277-4.276c-2.361 0-4.276 1.914-4.276 4.276z"/></g></svg>