<?xml version="1.0"?>
<svg xmlns="http://www.w3.org/2000/svg" id="_25_Animal_Medicine" data-name="25 Animal Medicine" viewBox="0 0 64 64" width="512" height="512"><title>a</title><path d="M56,16a8,8,0,1,0-8-8A8.009,8.009,0,0,0,56,16Zm0-4a4,4,0,0,1-3.463-2h6.926A4,4,0,0,1,56,12Zm0-8a4,4,0,0,1,3.463,2H52.538A4,4,0,0,1,56,4Z"/><path d="M36,16a8,8,0,1,0-8-8A8.009,8.009,0,0,0,36,16Zm4-8a4,4,0,0,1-2,3.463V4.537A4,4,0,0,1,40,8ZM34,4.537v6.926a4,4,0,0,1,0-6.926Z"/><path d="M58,20H46a6,6,0,0,0,0,12H58a6,6,0,0,0,0-12ZM44,26a2,2,0,0,1,2-2h4v4H46A2,2,0,0,1,44,26Zm14,2H54V24h4a2,2,0,0,1,0,4Z"/><path d="M50,60c-2.886,0-6-3.059-6-8A12.013,12.013,0,0,0,32,40c-13.127,0-15.671-7.08-16-8.242V24a2,2,0,0,0-4,0v1.082a7.935,7.935,0,0,0-8,0V24a2,2,0,0,0-4,0v8a8.006,8.006,0,0,0,6,7.736V60a2,2,0,0,0,0,4h5a5.006,5.006,0,0,0,5-5V56.392A33.4,33.4,0,0,0,20.452,60H20a2,2,0,0,0,0,4H30a1.994,1.994,0,0,0,.528-.079c.494.047.986.079,1.472.079a11.986,11.986,0,0,0,9.807-5.106A9.87,9.87,0,0,0,50,64a2,2,0,0,0,0-4ZM4,32a4,4,0,1,1,4,4A4,4,0,0,1,4,32ZM32,60a8.009,8.009,0,0,1-8-8,2,2,0,0,0-4,0,11.941,11.941,0,0,0,.386,2.965A34.545,34.545,0,0,1,16,50.506V48a2,2,0,0,0-4,0V59a1,1,0,0,1-1,1H10V39.747c.039-.01.074-.029.113-.04a8,8,0,0,0,1.079-.376c.054-.023.1-.051.157-.075a8.222,8.222,0,0,0,.945-.517c.04-.026.083-.049.123-.075a8.25,8.25,0,0,0,.889-.693c.058-.052.116-.1.172-.156a8.192,8.192,0,0,0,.761-.82c.013-.017.03-.029.042-.046C16.751,40.2,21.815,44,32,44a8,8,0,0,1,0,16Z"/></svg>
