<svg id="prescription_x5F_food" enable-background="new 0 0 300 300" height="512" viewBox="0 0 300 300" width="512" xmlns="http://www.w3.org/2000/svg"><g><path d="m233.472 59.977h.02c2.203 0 3.992-1.779 4-3.982l.035-8c.008-2.209-1.773-4.008-3.984-4.018-.004 0-.012 0-.016 0-2.203 0-3.992 1.779-4 3.982l-.035 8c-.008 2.209 1.773 4.008 3.98 4.018z"/><path d="m233.433 67.975c-.008 0-.012 0-.02 0-2.199 0-3.988 1.777-4 3.98l-.039 8c-.012 2.209 1.769 4.008 3.98 4.02h.02c2.199 0 3.988-1.777 4-3.98l.039-8c.012-2.21-1.769-4.009-3.98-4.02z"/><path d="m225.472 59.938-8-.039c-.008 0-.012 0-.02 0-2.199 0-3.988 1.777-4 3.98-.012 2.209 1.77 4.008 3.98 4.02l8 .039h.02c2.199 0 3.988-1.777 4-3.98.012-2.21-1.769-4.009-3.98-4.02z"/><path d="m249.472 60.053-8-.039c-.008 0-.012 0-.02 0-2.199 0-3.988 1.777-4 3.98-.012 2.209 1.77 4.008 3.98 4.02l8 .039h.02c2.199 0 3.988-1.777 4-3.98.012-2.21-1.769-4.009-3.98-4.02z"/><path d="m245.027 107.562c-2.362-.011-4.286 1.894-4.297 4.256s1.894 4.286 4.256 4.297 4.285-1.894 4.297-4.256c.011-2.362-1.894-4.286-4.256-4.297z"/><path d="m190.32 96.117 10.949-43.109c.305-1.195.039-2.465-.719-3.439s-1.922-1.545-3.156-1.545h-140c-1.234 0-2.398.57-3.156 1.545s-1.023 2.244-.719 3.439l10.949 43.109-17.652 127.629c-1.125 8.133 1.32 16.348 6.715 22.537 5.391 6.189 13.191 9.74 21.402 9.74h104.922c8.211 0 16.012-3.551 21.402-9.74 5.395-6.189 7.84-14.404 6.715-22.537zm4.906 144.912c-3.871 4.445-9.477 6.994-15.371 6.994h-104.922c-5.895 0-11.5-2.549-15.371-6.994s-5.629-10.346-4.824-16.186l17.761-128.404c.07-.512.043-1.033-.086-1.533l-9.875-38.883h129.711l-9.875 38.883c-.129.5-.156 1.021-.086 1.533l17.762 128.404c.805 5.841-.953 11.741-4.824 16.186z"/><path d="m85.394 100.023h84c2.211 0 4-1.791 4-4s-1.789-4-4-4h-84c-2.211 0-4 1.791-4 4s1.789 4 4 4z"/><path d="m160.449 198.699c-2.039-.248-3.703-1.307-4.57-2.904-3.434-6.35-11.027-8.982-17.285-6.021-3.266 1.555-5.684 4.301-6.805 7.732-1.102 3.383-.766 7.117.934 10.26l.238.438c.867 1.6.844 3.572-.066 5.41-2.246 4.564-1.73 9.939 1.348 14.031 2.543 3.371 6.648 5.305 10.785 5.305 1.262 0 2.527-.18 3.75-.553 2.242-.682 4.266-1.914 5.844-3.557 1.84-1.908 4.094-3.129 6.703-3.627 2.242-.43 4.375-1.449 6.168-2.945 4.207-3.52 5.84-9.594 3.965-14.77-1.74-4.816-5.959-8.189-11.009-8.799zm1.91 17.43c-.762.637-1.617 1.051-2.539 1.227-4.199.803-7.988 2.854-10.961 5.934-.648.676-1.461 1.166-2.414 1.455-2.051.631-4.5-.176-5.812-1.914-1.27-1.689-1.48-3.812-.562-5.68 2.039-4.131 2.012-8.898-.078-12.766l-.238-.438c-.664-1.227-.793-2.633-.359-3.959s1.371-2.387 2.637-2.988c.613-.291 1.27-.43 1.934-.43 1.906 0 3.852 1.133 4.879 3.033h.004c2.082 3.85 6.059 6.48 10.637 7.037 2.07.25 3.73 1.586 4.449 3.576.739 2.046.075 4.532-1.577 5.913z"/><path d="m164.081 172.846c-2.906 1.572-5.023 4.182-5.965 7.346-.941 3.166-.594 6.508.977 9.41 1.574 2.904 4.184 5.021 7.348 5.965 1.168.346 2.355.52 3.543.52 2.027 0 4.035-.506 5.863-1.498 2.906-1.572 5.023-4.18 5.969-7.346.941-3.164.594-6.508-.98-9.41-3.247-5.997-10.774-8.231-16.755-4.987zm10.067 12.113c-.332 1.117-1.082 2.039-2.109 2.594-1.02.559-2.203.682-3.316.346-1.117-.332-2.035-1.08-2.594-2.105-.555-1.025-.676-2.205-.344-3.32.332-1.117 1.078-2.037 2.102-2.592.66-.355 1.371-.523 2.07-.523 1.551 0 3.059.826 3.848 2.283.554 1.022.675 2.202.343 3.317z"/><path d="m139.249 159.709c-2.906 1.572-5.023 4.182-5.965 7.346-.941 3.166-.594 6.508.977 9.408 1.57 2.904 4.18 5.023 7.344 5.967 1.168.346 2.359.52 3.543.52 2.027 0 4.035-.506 5.867-1.498 2.906-1.572 5.023-4.182 5.965-7.346.941-3.166.594-6.508-.98-9.41-3.243-5.997-10.758-8.233-16.751-4.987zm10.063 12.115c-.332 1.117-1.078 2.037-2.102 2.592-1.027.553-2.199.68-3.324.346-1.113-.332-2.031-1.078-2.59-2.105-.555-1.025-.676-2.205-.344-3.32.332-1.117 1.078-2.037 2.105-2.592.656-.355 1.363-.525 2.066-.525 1.551 0 3.055.828 3.844 2.285.556 1.024.677 2.204.345 3.319z"/><path d="m132.023 177.68c-3.25-5.994-10.758-8.234-16.762-4.986-5.992 3.248-8.227 10.764-4.98 16.756 2.234 4.129 6.496 6.473 10.891 6.473 1.988 0 4-.479 5.867-1.486 5.992-3.249 8.226-10.765 4.984-16.757zm-8.793 9.72c-2.125 1.143-4.773.355-5.918-1.76s-.355-4.768 1.758-5.912c.66-.357 1.371-.525 2.07-.525 1.551 0 3.059.828 3.844 2.285h.004c1.144 2.116.355 4.768-1.758 5.912z"/><path d="m126.019 207.51c-3.246-5.998-10.773-8.232-16.754-4.986-2.906 1.572-5.023 4.182-5.965 7.346-.941 3.166-.594 6.508.977 9.41 1.574 2.904 4.184 5.021 7.348 5.965 1.168.346 2.355.52 3.543.52 2.027 0 4.035-.506 5.863-1.498 5.992-3.244 8.23-10.76 4.992-16.754 0-.001 0-.003-.004-.003zm-8.797 9.72c-1.02.557-2.207.678-3.316.346-1.117-.332-2.035-1.08-2.594-2.105-.555-1.025-.676-2.205-.344-3.32.332-1.117 1.078-2.037 2.102-2.592.66-.355 1.371-.523 2.07-.523 1.551 0 3.059.826 3.848 2.283 1.14 2.117.351 4.767-1.766 5.911z"/><path d="m119.406 139.549c4.449 2.666 10.641 1.973 14.402-1.791 2.23-2.229 3.457-5.193 3.457-8.346 0-3.15-1.227-6.115-3.457-8.344-1.699-1.701-3.879-2.809-6.199-3.232-.41-2.322-1.52-4.488-3.258-6.225-4.453-4.459-12.238-4.463-16.691 0-3.898 3.898-4.496 9.865-1.789 14.396l-18.488 18.49c-4.445-2.662-10.637-1.969-14.402 1.791-2.23 2.229-3.457 5.193-3.457 8.346 0 3.15 1.227 6.115 3.457 8.344 1.699 1.701 3.879 2.809 6.199 3.232.41 2.322 1.52 4.488 3.258 6.225 2.227 2.23 5.191 3.459 8.348 3.459 3.152 0 6.117-1.229 8.344-3.459 3.898-3.898 4.496-9.865 1.789-14.396zm-26.274 21.59c.113.086.234.166.344.266.715.719 1.109 1.672 1.109 2.688 0 1.014-.395 1.969-1.113 2.688-1.441 1.441-3.945 1.434-5.379 0-.941-.941-1.301-2.299-.965-3.629.348-1.367-.051-2.816-1.047-3.814-.758-.76-1.781-1.172-2.828-1.172-.328 0-.66.041-.988.123-1.316.334-2.684-.02-3.629-.965-1.48-1.482-1.48-3.895 0-5.377 1.484-1.482 3.898-1.484 5.375-.002.113.117.199.252.32.414.691.938 1.758 1.527 2.918 1.615 1.176.094 2.305-.334 3.129-1.16l23.805-23.803c.82-.82 1.199-1.992 1.117-3.15-.086-1.158-.715-2.256-1.645-2.951-.113-.086-.234-.166-.34-.264-.719-.719-1.113-1.674-1.113-2.689 0-1.014.395-1.969 1.113-2.688 1.438-1.441 3.941-1.434 5.379 0 .941.941 1.301 2.299.965 3.629-.348 1.367.051 2.816 1.047 3.814s2.445 1.398 3.816 1.049c1.316-.338 2.68.021 3.629.965 1.48 1.482 1.48 3.895 0 5.377-1.48 1.48-3.895 1.486-5.375.002-.113-.117-.199-.252-.32-.414-.691-.938-1.758-1.527-2.918-1.615-1.148-.082-2.301.334-3.129 1.16l-23.805 23.803c-.82.82-1.199 1.992-1.117 3.15.087 1.157.715 2.254 1.645 2.95z"/></g></svg>