<svg id="puppy" enable-background="new 0 0 300 300" height="512" viewBox="0 0 300 300" width="512" xmlns="http://www.w3.org/2000/svg"><g><path d="m186.687 64.729c-1.445-.637-3.146-.354-4.314.723l-31.129 28.668-17.552 1.35c-4.896-30.34-30.83-40.764-31.963-41.201-1.236-.48-2.635-.309-3.727.451-1.09.76-1.732 2.012-1.713 3.34l.644 43.957c-.003 12.269-3.947 21.542-10.31 32.521-6.252 10.787-14.926 20.881-25.781 30-15.699 13.193-22.973 26.973-21.617 40.955 2.197 22.631 26.645 39.354 41.021 47.307 6.148 3.402 13.205 5.201 20.406 5.201h84.43c2.209 0 4-1.791 4-4v-185.608c-.001-1.588-.94-3.026-2.395-3.664zm-60.954 31.352-20.863 1.604-.484-33.052c6.954 4.329 18.28 13.912 21.347 31.448zm-49.769 80.233c12.953 0 21.98 6.107 21.98 11.588 0 6.195-9.746 21.98-21.98 21.98s-21.98-15.785-21.98-21.98c0-5.48 9.027-11.588 21.98-11.588zm105.117 73.686h-80.43c-5.85 0-11.566-1.453-16.535-4.201-13-7.193-35.086-22.096-36.93-41.08-.285-2.938-.029-5.895.703-8.863 4.177 10.051 14.893 22.027 28.075 22.027 17.02 0 29.98-19.98 29.98-29.98 0-10.984-13.17-19.588-29.98-19.588-2.826 0-5.537.262-8.112.719 10.691-9.294 19.344-19.531 25.692-30.485 6.221-10.734 10.551-20.586 11.279-32.836l48.416-3.725c.896-.068 1.742-.438 2.402-1.047l25.439-23.428v172.487z"/><path d="m224.933 58c2.209 0 4-1.791 4-4v-8c0-2.209-1.791-4-4-4s-4 1.791-4 4v8c0 2.209 1.791 4 4 4z"/><path d="m224.933 66c-2.209 0-4 1.791-4 4v8c0 2.209 1.791 4 4 4s4-1.791 4-4v-8c0-2.209-1.791-4-4-4z"/><path d="m216.933 58h-8c-2.209 0-4 1.791-4 4s1.791 4 4 4h8c2.209 0 4-1.791 4-4s-1.791-4-4-4z"/><path d="m240.933 58h-8c-2.209 0-4 1.791-4 4s1.791 4 4 4h8c2.209 0 4-1.791 4-4s-1.791-4-4-4z"/><path d="m256.659 93.434c-2.362 0-4.276 1.915-4.276 4.277s1.915 4.276 4.276 4.276 4.277-1.915 4.277-4.276-1.915-4.277-4.277-4.277z"/><path d="m116.933 150c0 15.439 12.561 28 28 28s28-12.561 28-28-12.561-28-28-28-28 12.561-28 28zm48 0c0 11.027-8.973 20-20 20s-20-8.973-20-20 8.973-20 20-20 20 8.973 20 20z"/><path d="m136.295 151.529c0 3.986 3.231 7.218 7.217 7.218s7.218-3.231 7.218-7.218-3.231-7.217-7.218-7.217-7.217 3.231-7.217 7.217z"/><path d="m101.944 144.312c-3.986 0-7.218 3.231-7.218 7.217s3.231 7.218 7.218 7.218 7.218-3.231 7.218-7.218-3.232-7.217-7.218-7.217z"/></g></svg>