<svg id="puppy_x5F_neck_x5F_guard" enable-background="new 0 0 300 300" height="512" viewBox="0 0 300 300" width="512" xmlns="http://www.w3.org/2000/svg"><g><path d="m189.227 65.394c-.05-.089-.136-.138-.192-.222-.411-10.19-3.409-16.92-8.991-19.78-16.52-8.472-42.594 22.674-54.915 39.266-5.41-22.632-25.127-30.558-26.042-30.912-1.238-.48-2.633-.309-3.723.451-1.094.76-1.734 2.012-1.715 3.34l.527 36.193c0 .026.016.049.017.076-.001.031-.017.057-.017.088 0 10.025-3.195 17.607-8.348 26.594-5.297 9.23-12.129 17.348-20.309 24.123-13.59 11.26-19.922 23.062-18.82 35.084 1.042 11.354 8.637 20.905 17.14 28.209-5.394 19.075-11.854 51.127 2.864 58.668 1.859.951 3.895 1.424 6.102 1.424 2.791 0 5.881-.848 9.187-2.349.042.001.079.023.122.023.137 0 .273-.006.41-.021l65.758-6.709c13.203-1.451 24.73-7.463 31.633-16.494 19.73-25.824 34.527-54.693 43.973-85.809 3.75-12.357 2.691-25.123-2.898-35.021zm-12.832-12.881c4.348 2.229 7.129 13.172 1.887 37.203-1.255 5.756-2.891 11.868-4.859 18.238v-39.949c0-1.535-.879-2.934-2.258-3.602-1.383-.666-3.027-.486-4.227.467l-27.512 21.812-6.169.478c21.209-28.041 37.092-37.763 43.138-34.647zm-58.668 35.523-15.613 1.295-.363-25.041c5.496 3.725 13.457 11.121 15.976 23.746zm-40.09 67.473c9.941 0 17.371 4.658 17.371 8.824 0 4.758-7.891 17.369-17.371 17.369s-17.367-12.611-17.367-17.369c0-4.166 7.426-8.824 17.367-8.824zm-22.968 23.453c-.165-1.795-.023-3.601.281-5.413 4.054 7.913 12.387 16.153 22.688 16.153 14.656 0 25.371-16.686 25.371-25.369 0-9.434-11.145-16.824-25.371-16.824-1.235 0-2.436.075-3.619.183 7.397-6.742 13.74-14.492 18.748-23.224 5.039-8.783 8.578-16.869 9.281-26.863l39.215-3.041c.793-.062 1.551-.359 2.176-.854l21.984-17.43v41.785c0 5.615-.621 11.24-1.844 16.719-.03.134.008.261-.008.394-4.46 10.912-9.619 22.176-15.421 33.499-8.892 17.352-18.542 33.468-28.249 47.328h-21.955c-4.688 0-9.266-1.174-13.242-3.393-10.61-5.92-28.613-18.16-30.035-33.65zm15.683 80.488c-5.38-2.755-7.19-18.101.323-46.212 3.619 2.556 7.136 4.688 10.13 6.358 5.164 2.885 11.09 4.408 17.141 4.408h16.15c-4.182 5.564-8.349 10.697-12.443 15.25-16.449 18.294-26.949 22.423-31.301 20.196zm145.879-105.138c-9.164 30.197-23.523 58.215-42.676 83.275-7.922 10.371-20.926 12.824-26.117 13.396l-51.584 5.264c3.733-3.244 7.64-7.073 11.749-11.643 15.934-17.723 32.863-43.393 47.664-72.279 14.805-28.885 25.754-57.619 30.832-80.904.903-4.136 1.58-7.995 2.076-11.622l25.846 45.749c4.523 8.006 5.327 18.488 2.21 28.764z"/><path d="m233.423 48.005c2.211 0 4-1.791 4-4v-8c0-2.209-1.789-4-4-4s-4 1.791-4 4v8c0 2.209 1.789 4 4 4z"/><path d="m233.423 56.005c-2.211 0-4 1.791-4 4v8c0 2.209 1.789 4 4 4s4-1.791 4-4v-8c0-2.209-1.789-4-4-4z"/><path d="m225.423 48.005h-8c-2.211 0-4 1.791-4 4s1.789 4 4 4h8c2.211 0 4-1.791 4-4s-1.789-4-4-4z"/><path d="m249.423 48.005h-8c-2.211 0-4 1.791-4 4s1.789 4 4 4h8c2.211 0 4-1.791 4-4s-1.789-4-4-4z"/><path d="m134.372 155.077c12.086 0 21.922-9.834 21.922-21.922s-9.836-21.924-21.922-21.924-21.922 9.836-21.922 21.924 9.836 21.922 21.922 21.922zm0-35.846c7.676 0 13.922 6.246 13.922 13.924 0 7.676-6.246 13.922-13.922 13.922s-13.922-6.246-13.922-13.922c0-7.677 6.246-13.924 13.922-13.924z"/><path d="m133.203 140.35c3.279 0 5.937-2.658 5.937-5.937s-2.658-5.937-5.937-5.937-5.937 2.658-5.937 5.937 2.658 5.937 5.937 5.937z"/><path d="m104.947 134.413c0-3.279-2.658-5.937-5.937-5.937s-5.937 2.658-5.937 5.937 2.658 5.937 5.937 5.937 5.937-2.658 5.937-5.937z"/><path d="m247.658 115.866c-2.362 0-4.276 1.915-4.276 4.277s1.915 4.276 4.276 4.276 4.277-1.915 4.277-4.276-1.915-4.277-4.277-4.277z"/></g></svg>