<svg id="syringe" enable-background="new 0 0 300 300" height="512" viewBox="0 0 300 300" width="512" xmlns="http://www.w3.org/2000/svg"><g><path d="m223.817 200.966c2.211 0 4-1.791 4-4v-8c0-2.209-1.789-4-4-4s-4 1.791-4 4v8c0 2.209 1.789 4 4 4z"/><path d="m223.817 208.966c-2.211 0-4 1.791-4 4v8c0 2.209 1.789 4 4 4s4-1.791 4-4v-8c0-2.209-1.789-4-4-4z"/><path d="m215.817 200.966h-8c-2.211 0-4 1.791-4 4s1.789 4 4 4h8c2.211 0 4-1.791 4-4s-1.789-4-4-4z"/><path d="m239.817 200.966h-8c-2.211 0-4 1.791-4 4s1.789 4 4 4h8c2.211 0 4-1.791 4-4s-1.789-4-4-4z"/><path d="m251.852 45.026c-1.562-1.562-4.094-1.562-5.656 0l-31.875 31.877-7.852-7.85c-1.562-1.562-4.094-1.562-5.656 0l-10.52 10.519-10.52-10.519c-1.562-1.562-4.094-1.562-5.656 0l-109.452 109.452c-.75.75-1.172 1.768-1.172 2.828s.422 2.078 1.172 2.828l15.861 15.86-26.379 26.378-7.85-7.85c-1.562-1.562-4.094-1.562-5.656 0s-1.562 4.094 0 5.656l32.035 32.035c.781.781 1.805 1.172 2.828 1.172s2.047-.391 2.828-1.172c1.562-1.562 1.562-4.094 0-5.656l-7.852-7.852 26.379-26.378 15.859 15.859c.781.781 1.805 1.172 2.828 1.172s2.047-.391 2.828-1.172l109.453-109.451c.75-.75 1.172-1.768 1.172-2.828s-.422-2.078-1.172-2.828l-10.521-10.52 10.521-10.521c.75-.75 1.172-1.768 1.172-2.828s-.422-2.078-1.172-2.828l-7.852-7.85 31.875-31.877c1.565-1.562 1.565-4.093.002-5.656zm-178.703 136.307 34.389-34.388 13.033 13.033-34.389 34.388zm58.099-10.677-34.388 34.387-5.021-5.021 34.388-34.387zm-66.423 66.421-5.021-5.021 26.379-26.378 5.021 5.021zm50.723-13.348-13.031-13.031 34.388-34.387 13.031 13.031zm40.043-40.042-42.397-42.398 7.692-7.691 10.521 10.521c.781.781 1.805 1.172 2.828 1.172s2.047-.391 2.828-1.172c1.562-1.562 1.562-4.094 0-5.656l-10.521-10.521 7.759-7.759 10.52 10.52c.781.781 1.805 1.172 2.828 1.172s2.047-.391 2.828-1.172c1.562-1.562 1.562-4.094 0-5.656l-10.52-10.52 10.293-10.293 10.52 10.52c.781.781 1.805 1.172 2.828 1.172s2.047-.391 2.828-1.172c1.562-1.562 1.562-4.094 0-5.656l-10.52-10.52 7.761-7.761 10.521 10.521c.781.781 1.805 1.172 2.828 1.172s2.047-.391 2.828-1.172c1.562-1.562 1.562-4.094 0-5.656l-10.52-10.522 7.622-7.622 42.398 42.396zm56.061-82.757-15.702-15.701 7.691-7.691 15.703 15.699z"/><path d="m81.364 101.888c.73.584 1.617.877 2.5.877s1.77-.293 2.5-.877c8.996-7.199 29.453-29.926 29.453-40.395 0-10.426-8.48-18.906-18.906-18.906-4.926 0-9.578 1.947-13.047 5.297-3.465-3.35-8.113-5.297-13.043-5.297-10.426 0-18.91 8.48-18.91 18.906 0 10.469 20.457 33.195 29.453 40.395zm-10.543-51.301c3.953 0 7.605 2.199 9.527 5.74.699 1.287 2.051 2.09 3.516 2.09s2.812-.801 3.512-2.088c1.93-3.541 5.582-5.742 9.535-5.742 6.016 0 10.906 4.893 10.906 10.906 0 5.275-13.902 22.967-23.953 32.016-10.051-9.049-23.953-26.74-23.953-32.016 0-6.014 4.894-10.906 10.91-10.906z"/><path d="m256.274 232.573c-2.361-.011-4.285 1.894-4.297 4.256-.011 2.362 1.895 4.285 4.256 4.297 2.362.011 4.286-1.894 4.297-4.256.012-2.361-1.894-4.285-4.256-4.297z"/></g></svg>