<svg id="veterinary" enable-background="new 0 0 300 300" height="512" viewBox="0 0 300 300" width="512" xmlns="http://www.w3.org/2000/svg"><g><path d="m197.631 152.782c-3.016-.787-6.026-1.218-9.008-1.469v-5.519c16.085-4.176 28-18.627 28-35.815l-.004-27.135c-.935-18.473-11.589-34.367-27.221-40.828-2.742-5.875-8.666-9.98-15.564-9.98-7.239 0-13.422 4.507-15.96 10.852-14.461 6.93-24.365 22.576-25.247 39.957-.004.076-.004.152-.004.229v26.906c0 17.188 11.915 31.639 28 35.815v5.443c-2.955.234-5.967.705-8.988 1.474-12.998 3.311-24.367 11.728-31.443 23.133-2.734-.24-5.49.236-8.003 1.5-3.574 1.795-6.238 4.875-7.496 8.67l-5.277 15.912c-.121.004-.246.008-.371.014l-5.281-15.924c-1.258-3.797-3.918-6.877-7.496-8.672-3.582-1.801-7.648-2.088-11.434-.832-7.84 2.6-12.102 11.092-9.504 18.932l6.699 20.197c-5.523 6.57-8.652 14.541-8.652 22.199 0 16.891 16.207 30.123 36.898 30.123 12.788 0 23.851-5.065 30.445-12.916h101.903c2.211 0 4-1.791 4-4v-47.859c0-23.702-16.035-44.43-38.992-50.407zm-41.008 7.058c1.424-.267 2.831-.464 4.223-.587 1.067 6.668 6.813 11.795 13.777 11.795 6.945 0 12.682-5.098 13.771-11.74 1.401.133 2.808.336 4.229.61v29.377c-1.274-.368-2.592-.611-3.953-.611-7.996 0-14.5 6.504-14.5 14.5 0 7.329 11.938 20.765 18.453 26.939v16.925h-36zm41.231 64.294c-7.008-6.539-15.633-17.844-15.684-20.949 0-3.584 2.914-6.5 6.5-6.5 2.348 0 4.52 1.312 5.668 3.426.699 1.287 2.047 2.09 3.516 2.09 1.465 0 2.812-.801 3.512-2.086 1.152-2.115 3.328-3.43 5.676-3.43 3.586 0 6.5 2.916 6.5 6.498-.052 3.109-8.677 14.412-15.688 20.951zm-24.02-184.098c5.078 0 9.211 4.131 9.211 9.209s-4.133 9.211-9.211 9.211-9.211-4.133-9.211-9.211 4.133-9.209 9.211-9.209zm-16.867 12.606c1.583 7.868 8.542 13.814 16.867 13.814 8.656 0 15.77-6.446 16.965-14.778 9.264 5.615 15.643 15.703 17.351 27.37h-67.032c1.661-10.935 7.469-20.635 15.849-26.406zm-16.344 57.337v-22.931h68v22.932c0 16.029-13.238 29.068-29.508 29.068h-8.984c-16.27 0-29.508-13.039-29.508-29.069zm29.508 37.069h8.984c.509 0 1.004-.055 1.508-.075v10.075c0 3.309-2.691 6-6 6s-6-2.691-6-6v-10.075c.504.019.999.075 1.508.075zm-69.856 112.916c-14.207 0-28.898-8.275-28.898-22.123 0-6.352 2.945-13.098 8.078-18.512 1.016-1.07 1.359-2.611.895-4.012l-7.426-22.391c-1.211-3.652.777-7.609 4.426-8.82.723-.24 1.465-.357 2.203-.357 1.074 0 2.141.25 3.125.744 1.668.836 2.906 2.271 3.492 4.041l6.281 18.938c.605 1.828 2.453 2.955 4.332 2.705 1.848-.248 3.277-.309 4.699-.199l.52.037c1.773.117 3.492-1 4.066-2.73l6.219-18.752c.586-1.768 1.824-3.203 3.492-4.039 1.668-.832 3.555-.977 5.328-.387 1.77.586 3.203 1.828 4.039 3.494.836 1.664.973 3.557.387 5.326l-6.91 20.844c-.492 1.482-.074 3.115 1.066 4.182 5.938 5.541 9.48 12.977 9.48 19.889.001 13.846-14.69 22.122-28.894 22.122zm26.719-46.022 6.133-18.498c1.262-3.797.965-7.857-.832-11.434-1.062-2.119-2.618-3.864-4.466-5.239 5.056-7.541 12.365-13.396 20.794-16.671v84.947h-13.153c1.101-2.892 1.7-5.981 1.7-9.207 0-8.319-3.766-17.083-10.176-23.898zm101.629 33.106h-28v-14.719c5.205-4.286 20.918-20.732 20.918-29.144 0-7.996-6.504-14.5-14.5-14.5-2.273 0-4.449.583-6.418 1.572v-28.065c16.708 6.557 28 22.716 28 40.998z"/><path d="m84.623 59.048c2.211 0 4-1.791 4-4v-8c0-2.209-1.789-4-4-4s-4 1.791-4 4v8c0 2.209 1.789 4 4 4z"/><path d="m84.623 67.048c-2.211 0-4 1.791-4 4v8c0 2.209 1.789 4 4 4s4-1.791 4-4v-8c0-2.209-1.789-4-4-4z"/><path d="m68.623 67.048h8c2.211 0 4-1.791 4-4s-1.789-4-4-4h-8c-2.211 0-4 1.791-4 4s1.789 4 4 4z"/><path d="m92.623 67.048h8c2.211 0 4-1.791 4-4s-1.789-4-4-4h-8c-2.211 0-4 1.791-4 4s1.789 4 4 4z"/><path d="m113.889 94.509c2.362 0 4.276-1.915 4.276-4.276s-1.915-4.277-4.276-4.277-4.277 1.915-4.277 4.277 1.915 4.276 4.277 4.276z"/><circle cx="112.623" cy="231.048" r="4"/><circle cx="88.623" cy="231.048" r="4"/><path d="m188.455 121.452c.633-2.117-.566-4.348-2.684-4.982-2.121-.645-4.348.568-4.98 2.682-.832 2.777-3.312 4.643-6.168 4.643s-5.336-1.865-6.168-4.643c-.633-2.113-2.863-3.314-4.98-2.682-2.117.635-3.316 2.865-2.684 4.982 1.855 6.186 7.414 10.342 13.832 10.342s11.977-4.156 13.832-10.342z"/></g></svg>