<svg id="Capa_1" enable-background="new 0 0 512 512" height="512" viewBox="0 0 512 512" width="512" xmlns="http://www.w3.org/2000/svg"><g><path d="m347.061 0h-182.122c-17.069 0-30.905 13.837-30.905 30.905v71.082h30.905v-64.9c0-3.414 2.767-6.181 6.181-6.181h169.76c3.414 0 6.181 2.767 6.181 6.181v64.901h30.905v-71.083c0-17.068-13.836-30.905-30.905-30.905z" fill="#e5edfc"/><g><path d="m347.061 0h-30.905c17.069 0 30.905 13.837 30.905 30.905v6.179.003 64.901h30.905v-71.083c0-17.068-13.836-30.905-30.905-30.905z" fill="#d1d9fc"/></g><path d="m496.547 282.27-40.911-180.917c-3.185-14.087-15.702-24.089-30.144-24.089h-338.984c-14.442 0-26.959 10.002-30.144 24.089l-40.911 180.917v24.724l40.911 180.917c3.185 14.087 15.702 24.089 30.144 24.089h338.984c14.442 0 26.959-10.002 30.144-24.089l40.911-180.917z" fill="#bef8a8"/><path d="m496.547 282.27-40.911-180.917c-3.185-14.087-15.702-24.089-30.144-24.089h-30.905c14.442 0 26.959 10.002 30.144 24.089l40.911 180.917v24.724l-.699 3.091h-448.791l6.989 30.905h425.79c4.624 0 8.054 4.291 7.034 8.802l-31.233 138.119c-3.186 14.087-15.703 24.089-30.145 24.089h30.905c14.442 0 26.959-10.002 30.144-24.089l33.224-146.921 7.688-33.996v-24.724z" fill="#a0e38b"/><path d="m497 310.085h-482c-8.284 0-15-6.716-15-15v-.905c0-8.284 6.716-15 15-15h482c8.284 0 15 6.716 15 15v.905c0 8.284-6.716 15-15 15z" fill="#e5edfc"/><path d="m496.547 279.179h-30.905c8.534 0 15.453 6.918 15.453 15.453 0 8.534-6.918 15.453-15.453 15.453h30.905c8.534 0 15.453-6.918 15.453-15.453s-6.918-15.453-15.453-15.453z" fill="#d1d9fc"/><path d="m301.142 321.754h-90.285c-5.523 0-10-4.477-10-10v-34.244c0-5.523 4.477-10 10-10h90.285c5.523 0 10 4.477 10 10v34.244c0 5.523-4.477 10-10 10z" fill="#695d69"/><path d="m300.84 267.51h-30.905c5.69 0 10.302 4.612 10.302 10.302v33.641c0 5.69-4.612 10.302-10.302 10.302h30.905c5.69 0 10.302-4.612 10.302-10.302v-33.641c0-5.69-4.612-10.302-10.302-10.302z" fill="#564e57"/><g><g><g><g><path d="m93.746 219.943c-4.267 0-7.726-3.459-7.726-7.726v-82.413c0-4.267 3.459-7.726 7.726-7.726s7.726 3.459 7.726 7.726v82.413c.001 4.267-3.458 7.726-7.726 7.726z" fill="#fff"/></g><g><path d="m140.105 219.943c-4.267 0-7.726-3.459-7.726-7.726v-82.413c0-4.267 3.459-7.726 7.726-7.726s7.726 3.459 7.726 7.726v82.413c0 4.267-3.459 7.726-7.726 7.726z" fill="#fff"/></g><g><path d="m186.463 219.943c-4.267 0-7.726-3.459-7.726-7.726v-82.413c0-4.267 3.459-7.726 7.726-7.726s7.726 3.459 7.726 7.726v82.413c0 4.267-3.459 7.726-7.726 7.726z" fill="#fff"/></g></g><g><g><path d="m325.537 219.943c-4.267 0-7.726-3.459-7.726-7.726v-82.413c0-4.267 3.459-7.726 7.726-7.726s7.726 3.459 7.726 7.726v82.413c.001 4.267-3.459 7.726-7.726 7.726z" fill="#fff"/></g><g><path d="m371.895 219.943c-4.267 0-7.726-3.459-7.726-7.726v-82.413c0-4.267 3.459-7.726 7.726-7.726s7.726 3.459 7.726 7.726v82.413c.001 4.267-3.459 7.726-7.726 7.726z" fill="#fff"/></g><g><path d="m418.254 219.943c-4.267 0-7.726-3.459-7.726-7.726v-82.413c0-4.267 3.459-7.726 7.726-7.726s7.726 3.459 7.726 7.726v82.413c0 4.267-3.459 7.726-7.726 7.726z" fill="#fff"/></g></g></g><g><g><g><path d="m93.746 467.187c-4.267 0-7.726-3.459-7.726-7.726v-82.413c0-4.267 3.459-7.726 7.726-7.726s7.726 3.459 7.726 7.726v82.413c.001 4.266-3.458 7.726-7.726 7.726z" fill="#fff"/></g><g><path d="m140.105 467.187c-4.267 0-7.726-3.459-7.726-7.726v-82.413c0-4.267 3.459-7.726 7.726-7.726s7.726 3.459 7.726 7.726v82.413c0 4.266-3.459 7.726-7.726 7.726z" fill="#fff"/></g><g><path d="m186.463 467.187c-4.267 0-7.726-3.459-7.726-7.726v-82.413c0-4.267 3.459-7.726 7.726-7.726s7.726 3.459 7.726 7.726v82.413c0 4.266-3.459 7.726-7.726 7.726z" fill="#fff"/></g></g><g><g><path d="m325.537 467.187c-4.267 0-7.726-3.459-7.726-7.726v-82.413c0-4.267 3.459-7.726 7.726-7.726s7.726 3.459 7.726 7.726v82.413c.001 4.266-3.459 7.726-7.726 7.726z" fill="#fff"/></g><g><path d="m371.895 467.187c-4.267 0-7.726-3.459-7.726-7.726v-82.413c0-4.267 3.459-7.726 7.726-7.726s7.726 3.459 7.726 7.726v82.413c.001 4.266-3.459 7.726-7.726 7.726z" fill="#fff"/></g><g><path d="m418.254 467.187c-4.267 0-7.726-3.459-7.726-7.726v-82.413c0-4.267 3.459-7.726 7.726-7.726s7.726 3.459 7.726 7.726v82.413c0 4.266-3.459 7.726-7.726 7.726z" fill="#fff"/></g></g></g></g><g fill="#695d69"><path d="m433.706 274.783v39.697c0 8.284-6.716 15-15 15h-.905c-8.284 0-15-6.716-15-15v-39.697c0-8.284 6.716-15 15-15h.905c8.285 0 15 6.716 15 15z"/><path d="m109.199 274.783v39.697c0 8.284-6.716 15-15 15h-.905c-8.284 0-15-6.716-15-15v-39.697c0-8.284 6.716-15 15-15h.905c8.284 0 15 6.716 15 15z"/></g></g></svg>