<svg height="512" viewBox="0 0 512 512" width="512" xmlns="http://www.w3.org/2000/svg"><g id="Flat"><path d="m416 72 36.98 66.564a23.994 23.994 0 0 1 3.02 11.655v313.781a24 24 0 0 1 -24 24h-296v-337.781a23.994 23.994 0 0 0 -3.02-11.655l-36.98-66.564z" fill="#f88400"/><path d="m104 24h304a8 8 0 0 1 8 8v40a0 0 0 0 1 0 0h-320a0 0 0 0 1 0 0v-40a8 8 0 0 1 8-8z" fill="#f88400"/><path d="m96 72-36.98 66.564a23.994 23.994 0 0 0 -3.02 11.655v313.781a24 24 0 0 0 24 24h296v-337.781a23.994 23.994 0 0 1 3.02-11.655l36.98-66.564z" fill="#ffb431"/><path d="m400 368h56v64h-56z" fill="#e56b00"/><path d="m400 328h56v16h-56z" fill="#e56b00"/><path d="m400 296h56v16h-56z" fill="#e56b00"/><path d="m400 264h56v16h-56z" fill="#e56b00"/><path d="m400 232h56v16h-56z" fill="#e56b00"/><path d="m200 424h-144v40a24 24 0 0 0 24 24h144z" fill="#d65246"/><path d="m184 416v8h-128v-30.62a23.6 23.6 0 0 1 8-1.38 24 24 0 0 1 24-24 24 24 0 0 1 48 0 24.006 24.006 0 0 1 24 24 24.006 24.006 0 0 1 24 24z" fill="#f88400"/><path d="m244.162 196.607a174.711 174.711 0 0 1 -72.162-.767 174.711 174.711 0 0 0 -72.162-.768l-3.838.768v-60.086a4.774 4.774 0 0 1 3.838-4.682 174.711 174.711 0 0 1 72.162.768 174.711 174.711 0 0 0 72.162.767l3.838-.767v60.086a4.773 4.773 0 0 1 -3.838 4.681z" fill="#d65246"/><path d="m264 488-72-216 5.15-1.2a39.48 39.48 0 0 1 38.434 12.228l4.416 4.972 64-24a39.479 39.479 0 0 1 22.474-39.28l1.526-.72 48 88v176z" fill="#348ed8"/><path d="m260 328a12 12 0 1 0 12 12 12.013 12.013 0 0 0 -12-12z" fill="#4db6e4"/><path d="m324 304a12 12 0 1 0 12 12 12.013 12.013 0 0 0 -12-12z" fill="#4db6e4"/><path d="m336.052 346.373-.644 5.63a11.767 11.767 0 0 1 -21.4 5.327 11.994 11.994 0 0 0 -12.054-20.255l-7.517 2.742a11.995 11.995 0 0 0 3.824 23.264 11.771 11.771 0 0 1 -19.8 9.7l-4.117-3.892-10.991 11.627 4.117 3.892a27.633 27.633 0 0 0 19.023 7.612 27.935 27.935 0 0 0 9.579-1.7 27.594 27.594 0 0 0 15.663-14.375c.029-.062.058-.125.086-.187a27.76 27.76 0 0 0 39.486-21.936l.643-5.629z" fill="#2d7dbe"/><g fill="#f88400"><path d="m88 224h16v16h-16z"/><path d="m120 224h48v16h-48z"/><path d="m88 256h16v16h-16z"/><path d="m120 256h48v16h-48z"/><path d="m88 288h16v16h-16z"/><path d="m120 288h48v16h-48z"/></g></g></svg>