<svg height="512" viewBox="0 0 512 512" width="512" xmlns="http://www.w3.org/2000/svg"><g fill="#fbd699"><path d="m410 64h-50a8 8 0 0 1 0-16h50a8 8 0 0 1 0 16z"/><path d="m408 96h-48a8 8 0 0 1 0-16h48a8 8 0 0 1 0 16z"/><path d="m408 128h-48a8 8 0 0 1 0-16h48a8 8 0 0 1 0 16z"/><path d="m408 160h-48a8 8 0 0 1 0-16h48a8 8 0 0 1 0 16z"/><path d="m408 192h-48a8 8 0 0 1 0-16h48a8 8 0 0 1 0 16z"/><path d="m408 224h-48a8 8 0 0 1 0-16h48a8 8 0 0 1 0 16z"/><path d="m408 256h-48a8 8 0 0 1 0-16h48a8 8 0 0 1 0 16z"/><path d="m408 288h-48a8 8 0 0 1 0-16h48a8 8 0 0 1 0 16z"/></g><path d="m392 48h24v16h-24z" fill="#eac88f"/><path d="m392 80h24v16h-24z" fill="#eac88f"/><path d="m392 112h24v16h-24z" fill="#eac88f"/><path d="m392 144h24v16h-24z" fill="#eac88f"/><path d="m392 176h24v16h-24z" fill="#eac88f"/><path d="m392 208h24v16h-24z" fill="#eac88f"/><path d="m392 240h24v16h-24z" fill="#eac88f"/><path d="m392 272h24v16h-24z" fill="#eac88f"/><path d="m254.069 376a21.72 21.72 0 0 1 -21.612-23.881l5.612-56.119-8-48h48l-8 48 5.612 56.119a21.72 21.72 0 0 1 -21.612 23.881z" fill="#c38325"/><path d="m144 328-23.98 26.98-8.45 9.5-31.57 35.52h-24l33.16-59.68 6.84-12.32z" fill="#cdcdcd"/><path d="m184 400h-24l-64-72v-170.334a227.334 227.334 0 0 1 24-101.666 227.334 227.334 0 0 1 24 101.666v170.334z" fill="#dbdbdb"/><path d="m112 288h16v16h-16z" fill="#c3c3c3"/><path d="m176 392a48 48 0 1 0 48 48 48 48 0 0 0 -48-48zm0 64a16 16 0 1 1 16-16 16 16 0 0 1 -16 16z" fill="#428dc5"/><path d="m72 392a48 48 0 1 0 48 48 48 48 0 0 0 -48-48zm0 64a16 16 0 1 1 16-16 16 16 0 0 1 -16 16z" fill="#3775a4"/><ellipse cx="254.069" cy="156" fill="#ea9d2d" rx="62.069" ry="100"/><path d="m230.069 160h16v16h-16z" fill="#c38325"/><path d="m230.069 192h16v16h-16z" fill="#c38325"/><path d="m230.069 96h16v16h-16z" fill="#c38325"/><path d="m230.069 128h16v16h-16z" fill="#c38325"/><path d="m262.069 96h16v16h-16z" fill="#c38325"/><path d="m262.069 128h16v16h-16z" fill="#c38325"/><path d="m262.069 192h16v16h-16z" fill="#c38325"/><path d="m262.069 160h16v16h-16z" fill="#c38325"/><path d="m440 328h-32a8 8 0 0 1 -8-8v-272h24a24 24 0 0 1 24 24v248a8 8 0 0 1 -8 8z" fill="#fbd699"/><path d="m120.02 354.98-8.45 9.5-22.41-24.16 6.84-12.32h.22z" fill="#a8a8a8"/><circle cx="400" cy="400" fill="#fbb540" r="88"/><path d="m416 448a16 16 0 0 0 0-32 16 16 0 0 0 -32 0v.012a16 16 0 1 0 .31 31.988z" fill="#c38325"/><circle cx="400" cy="363.997" fill="#c38325" r="12"/><circle cx="356" cy="387.997" fill="#c38325" r="12"/><circle cx="444" cy="387.997" fill="#c38325" r="12"/><path d="m400 496a96 96 0 1 1 96-96 96.108 96.108 0 0 1 -96 96zm0-176a80 80 0 1 0 80 80 80.091 80.091 0 0 0 -80-80z" fill="#c38325"/></svg>