<svg height="512" viewBox="0 0 512 512" width="512" xmlns="http://www.w3.org/2000/svg"><path d="m466.31 256a63.99 63.99 0 1 0 -105.794-56h-209.032a63.992 63.992 0 1 0 -105.794 56 63.99 63.99 0 1 0 105.794 56h209.032a63.992 63.992 0 1 0 105.794-56z" fill="#eaeae8"/><g fill="#dbdbdb"><path d="m88 280a72.081 72.081 0 0 1 -72-72 8 8 0 0 1 16 0 56.063 56.063 0 0 0 56 56 8 8 0 0 1 0 16z"/><path d="m488 312a8 8 0 0 1 -8-8 56.063 56.063 0 0 0 -56-56 8 8 0 0 1 0-16 72.081 72.081 0 0 1 72 72 8 8 0 0 1 -8 8z"/><path d="m160 272h16v16h-16z"/><path d="m192 272h16v16h-16z"/><path d="m224 272h48v16h-48z"/></g></svg>