<svg height="512" viewBox="0 0 512 512" width="512" xmlns="http://www.w3.org/2000/svg"><g id="Flat"><path d="m460 260a20 20 0 0 0 -20-20h-32a72 72 0 0 0 -72 72 72 72 0 0 0 72 72h8a32 32 0 0 1 32 32 32 32 0 0 1 -32 32h-80v40h80a72 72 0 0 0 72-72 72 72 0 0 0 -72-72h-8a32 32 0 0 1 -32-32 32 32 0 0 1 32-32h32a20 20 0 0 0 20-20z" fill="#348ed8"/><path d="m192 164.843v-140.843l-7.457 1.864a46.087 46.087 0 0 0 -32.543 30.136h-72a46.087 46.087 0 0 0 -32.543-30.136l-7.457-1.864v424a28.944 28.944 0 0 0 -16 25.889v14.111h320v-105.169a216.311 216.311 0 0 0 -141.531-202.974 16 16 0 0 1 -10.469-15.014z" fill="#348ed8"/><g fill="#2d7dbe"><path d="m80 488h-16v-14.111a36.709 36.709 0 0 1 16-30.443v-139.446h16v144a8 8 0 0 1 -4.422 7.155 20.832 20.832 0 0 0 -11.578 18.734z"/><path d="m136 304h16v184h-16z"/><path d="m152 488h-16a48.054 48.054 0 0 1 48-48h16v-32a88.1 88.1 0 0 1 88-88v16a72.081 72.081 0 0 0 -72 72v40a8 8 0 0 1 -8 8h-24a32.036 32.036 0 0 0 -32 32z"/><path d="m136 160h-8a23.9 23.9 0 0 1 -16-6.126 23.9 23.9 0 0 1 -16 6.126h-8a24.027 24.027 0 0 1 -24-24h16a8.009 8.009 0 0 0 8 8h8a8.009 8.009 0 0 0 8-8 8 8 0 0 1 16 0 8.009 8.009 0 0 0 8 8h8a8.009 8.009 0 0 0 8-8h16a24.027 24.027 0 0 1 -24 24z"/><path d="m116 136h-8a12 12 0 0 1 0-24h8a12 12 0 0 1 0 24z"/></g><path d="m80 112a16 16 0 1 1 16-16 16.019 16.019 0 0 1 -16 16z" fill="#4db6e4"/><path d="m152 112a16 16 0 1 1 16-16 16.019 16.019 0 0 1 -16 16z" fill="#4db6e4"/></g></svg>