<svg id="Capa_1" enable-background="new 0 0 512 512" height="512" viewBox="0 0 512 512" width="512" xmlns="http://www.w3.org/2000/svg"><g><g><path d="m428.944 206.533h-345.496c-4.204 0-7.611-3.408-7.611-7.611 0-4.204 3.408-7.611 7.611-7.611h345.496c4.204 0 7.611 3.408 7.611 7.611s-3.407 7.611-7.611 7.611z" fill="#e5edfc"/></g><g><path d="m434.606 438.975h-87.268c-4.204 0-7.611-3.408-7.611-7.612s3.408-7.611 7.611-7.611h87.268c4.204 0 7.611 3.408 7.611 7.611 0 4.204-3.407 7.612-7.611 7.612z" fill="#d1d9fc"/></g><g><path d="m434.606 378.083h-87.268c-4.204 0-7.611-3.408-7.611-7.611s3.408-7.611 7.611-7.611h87.268c4.204 0 7.611 3.408 7.611 7.611s-3.407 7.611-7.611 7.611z" fill="#d1d9fc"/></g><g><path d="m164.662 438.975h-87.268c-4.204 0-7.611-3.408-7.611-7.612s3.408-7.611 7.611-7.611h87.268c4.204 0 7.611 3.408 7.611 7.611.001 4.204-3.407 7.612-7.611 7.612z" fill="#d1d9fc"/></g><g><path d="m164.662 378.083h-87.268c-4.204 0-7.611-3.408-7.611-7.611s3.408-7.611 7.611-7.611h87.268c4.204 0 7.611 3.408 7.611 7.611s-3.407 7.611-7.611 7.611z" fill="#d1d9fc"/></g><g><path d="m263.611 298.878v190.555c0 4.204-3.408 7.612-7.611 7.612-4.204 0-7.611-3.408-7.611-7.612v-190.555z" fill="#e5edfc"/><path d="m164.662 314.101h182.676v117.262h-182.676z" fill="#d1d9fc"/><path d="m316.892 314.101h30.446v117.262h-30.446z" fill="#b6c9fd"/><path d="m347.338 396.393h-31.12c-10.939 0-19.806-8.868-19.806-19.806v-.589c0-10.939 8.868-19.806 19.806-19.806h31.12z" fill="#695d69"/><path d="m316.892 356.192h30.446v40.202h-30.446z" fill="#564e57"/><g><g><path d="m164.662 497.045c-4.204 0-7.611-3.408-7.611-7.612v-229.326c0-77.826 34.29-151.035 94.077-200.857 3.228-2.691 8.028-2.256 10.72.975 2.691 3.229 2.255 8.029-.975 10.72-56.306 46.921-88.599 115.868-88.599 189.162v229.327c0 4.203-3.408 7.611-7.612 7.611z" fill="#d1d9fc"/></g><g><path d="m347.338 497.045c-4.204 0-7.611-3.408-7.611-7.612v-229.326c0-73.294-32.293-142.241-88.599-189.162-3.229-2.691-3.666-7.491-.975-10.72s7.49-3.666 10.72-.975c59.787 49.823 94.076 123.032 94.076 200.857v229.327c0 4.203-3.407 7.611-7.611 7.611z" fill="#d1d9fc"/></g><g><path d="m256 72.708c-4.204 0-7.611-3.408-7.611-7.611v-20.929c0-5.572 3.919-10.379 9.318-11.43 4.262-.83 7.324-4.743 7.123-9.103-.204-4.429-3.973-8.198-8.402-8.402-2.447-.108-4.768.753-6.53 2.436-1.764 1.685-2.736 3.955-2.736 6.393 0 4.204-3.408 7.611-7.611 7.611s-7.611-3.408-7.611-7.611c0-6.541 2.714-12.884 7.445-17.402 4.799-4.583 11.094-6.937 17.744-6.634 12.281.565 22.344 10.628 22.909 22.909.497 10.8-6.4 20.596-16.425 23.955v18.206c-.002 4.204-3.409 7.612-7.613 7.612z" fill="#d1d9fc"/></g><g><path d="m248.389 298.878v-233.782c0-4.204 3.408-7.611 7.611-7.611 4.204 0 7.611 3.408 7.611 7.611v233.782z" fill="#e5edfc"/></g><g><path d="m434.606 504.389h-357.212c-4.204 0-7.611-3.408-7.611-7.612v-253.075c0-102.681 83.537-186.217 186.217-186.217s186.217 83.537 186.217 186.217v253.075c0 4.204-3.407 7.612-7.611 7.612zm-349.6-15.223h341.989v-245.464c0-94.287-76.708-170.994-170.994-170.994s-170.995 76.707-170.995 170.994z" fill="#e5edfc"/></g><path d="m447.525 512h-383.05c-8.284 0-15-6.716-15-15v-.446c0-8.284 6.716-15 15-15h383.05c8.284 0 15 6.716 15 15v.446c0 8.284-6.716 15-15 15z" fill="#695d69"/><path d="m447.302 481.554h-30.446c8.407 0 15.223 6.816 15.223 15.223s-6.816 15.223-15.223 15.223h30.446c8.407 0 15.223-6.816 15.223-15.223s-6.815-15.223-15.223-15.223z" fill="#564e57"/><path d="m447.525 314.101h-383.05c-8.284 0-15-6.716-15-15v-.446c0-8.284 6.716-15 15-15h383.05c8.284 0 15 6.716 15 15v.446c0 8.284-6.716 15-15 15z" fill="#695d69"/><path d="m447.302 283.655h-30.446c8.407 0 15.223 6.816 15.223 15.223s-6.816 15.223-15.223 15.223h30.446c8.407 0 15.223-6.816 15.223-15.223s-6.815-15.223-15.223-15.223z" fill="#564e57"/></g></g></g></svg>