<svg height="480pt" viewBox="0 0 480.00107 480" width="480pt" xmlns="http://www.w3.org/2000/svg"><path d="m408 328h72v152h-72zm0 0" fill="#80d6fb"/><path d="m376 344c-11.503906-22.566406-43.582031-32-64-32-20.414062 0-48.246094 8.753906-64 32h-72c-13.253906 0-24 10.746094-24 24 0 13.257812 10.746094 24 24 24h-24l-100.023438-59.441406c-14.648437-8.789063-33.617187-4.519532-43.085937 9.691406l-6.203125 9.292969c-4.902344 7.355469-2.910156 17.289062 4.441406 22.195312l128.816406 84.886719c5.246094 3.503906 11.382813 5.375 17.703126 5.375 27.367187 0 103.449218 0 102.351562 0h152v-120zm0 0" fill="#ffd3b3"/><path d="m158.234375 384c4.390625 4.878906 10.6875 8 17.765625 8h80v-8zm0 0" fill="#fcb98b"/><path d="m240 312s176-119.28125 176-224c0-45.953125-42.046875-88-88-88-42.03125 0-79.335938 27.449219-88 52-8.664062-24.550781-45.96875-52-88-52-45.949219 0-88 42.046875-88 88 0 104.71875 176 224 176 224zm0 0" fill="#ffb0aa"/><path d="m304 220s-22.933594 20-64 20c-41.0625 0-64-20-64-20v24s22.9375 16 64 16c41.066406 0 64-16 64-16zm0 0" fill="#6e83b7"/><path d="m240 248c82.664062 0 113.761719-58.320312 100-96-15-41.078125-12-56-12-56l6.875-55.007812c.597656-4.777344-3.121094-8.992188-7.9375-8.992188h-3.863281c-1.976563 0-3.882813.730469-5.351563 2.054688l-33.464844 30.113281c-2.472656 2.222656-6.074218 2.671875-9.023437 1.136719-18.289063-9.511719-35.234375-9.304688-35.234375-9.304688s-16.941406-.207031-35.230469 9.304688c-2.953125 1.535156-6.550781 1.085937-9.023437-1.136719l-33.464844-30.113281c-1.464844-1.324219-3.375-2.054688-5.351562-2.054688h-3.863282c-4.808594 0-8.539062 4.214844-7.9375 8.992188l6.871094 55.007812s3 14.921875-12 56c-13.757812 37.679688 17.335938 96 100 96zm0 0" fill="#ffe352"/><path d="m240 152c-44.933594 0-82.648438 17.730469-93.101562 52.472656 14.535156 23.863282 45.109374 43.527344 93.101562 43.527344s78.570312-19.664062 93.105469-43.527344c-10.457031-34.742187-48.167969-52.472656-93.105469-52.472656zm0 0" fill="#edeff1"/><path d="m327.144531 45.570312-7.144531 46.429688s-2.734375-6.808594-12-12c-8.246094-4.625-16-4-16-4l26.554688-34.136719c.910156-1.175781 2.320312-1.863281 3.8125-1.863281 2.960937 0 5.226562 2.640625 4.777343 5.570312zm0 0" fill="#ffb236"/><path d="m152.855469 45.570312 7.144531 46.429688s2.738281-6.808594 12-12c8.25-4.625 16-4 16-4l-26.550781-34.136719c-.914063-1.175781-2.320313-1.863281-3.816407-1.863281-2.960937 0-5.222656 2.640625-4.777343 5.570312zm0 0" fill="#ffb236"/><path d="m268 200c0 6.617188-5.382812 12-12 12-6.613281 0-12-5.382812-12-12v-48h-8v48c0 6.617188-5.382812 12-12 12-6.613281 0-12-5.382812-12-12h-8c0 11.023438 8.976562 20 20 20 6.570312 0 12.351562-3.222656 16-8.121094 3.648438 4.90625 9.433594 8.121094 16 8.121094 11.023438 0 20-8.976562 20-20zm0 0" fill="#d3d3d3"/><path d="m240 140h-8.597656c-4.089844 0-7.402344 3.3125-7.402344 7.402344v.023437c0 2.796875 1.585938 5.367188 4.089844 6.613281l2.222656 1.113282c1.113281.550781 2.335938.847656 3.578125.847656h12.222656c1.238281 0 2.464844-.289062 3.574219-.847656l2.226562-1.113282c2.503907-1.246093 4.085938-3.804687 4.085938-6.613281v-.023437c0-4.089844-3.3125-7.402344-7.398438-7.402344zm0 0" fill="#ffb236"/><g fill="#d3d3d3"><path d="m358.960938 160.136719 2.0625 7.730469-59.996094 16.015624-2.0625-7.730468zm0 0"/><path d="m301.011719 208.140625 59.996093 16-2.058593 7.730469-60-16zm0 0"/><path d="m304 192h56v8h-56zm0 0"/><path d="m121.019531 160.132812 60 16.003907-2.0625 7.730469-60-16.003907zm0 0"/><path d="m178.960938 208.132812 2.0625 7.726563-59.996094 16.015625-2.0625-7.730469zm0 0"/><path d="m120 192h56v8h-56zm0 0"/></g><path d="m252 260c0 6.628906-5.371094 12-12 12-6.625 0-12-5.371094-12-12 0-6.625 5.375-12 12-12 6.628906 0 12 5.375 12 12zm0 0" fill="#ffe352"/><path d="m252 264h-24c-2.207031 0-4-1.792969-4-4s1.792969-4 4-4h24c2.210938 0 4 1.792969 4 4s-1.789062 4-4 4zm0 0" fill="#ffb236"/></svg>