<svg height="488pt" viewBox="-4 0 488 488" width="488pt" xmlns="http://www.w3.org/2000/svg"><path d="m480 128v336c0 8.839844-7.160156 16-16 16h-240c-8.839844 0-16-7.160156-16-16v-336c0-8.839844 7.160156-16 16-16h240c8.839844 0 16 7.160156 16 16zm0 0" fill="#6e83b7"/><path d="m224 128h240v336h-240zm0 0" fill="#edeff1"/><path d="m240 296h208v16h-208zm0 0" fill="#d3d3d3"/><path d="m240 336h104v16h-104zm0 0" fill="#d3d3d3"/><g fill="#6e83b7"><path d="m344 271.761719c9.335938 0 15.792969 8.238281 28.847656 8.238281 9.296875 0 20.601563-7.320312 20.601563-17.960938 0-32.96875-28.585938-49.445312-49.449219-49.445312s-49.449219 16.476562-49.449219 49.445312c0 10.648438 11.304688 17.960938 20.601563 17.960938 13.054687 0 19.511718-8.238281 28.847656-8.238281zm0 0"/><path d="m291.542969 196.527344c5.90625 6.464844 11.871093 23.503906 5.410156 29.410156-6.464844 5.902344-22.90625-1.5625-28.808594-8.027344-5.90625-6.460937-5.457031-16.484375 1.007813-22.390625 6.464844-5.894531 16.488281-5.449219 22.390625 1.007813zm0 0"/><path d="m297.144531 179.609375c3.863281 10.703125 19.871094 27.871094 30.574219 24.007813 10.707031-3.863282 12.050781-27.304688 8.183594-38-3.863282-10.707032-15.671875-16.25-26.375-12.386719-10.703125 3.867187-16.246094 15.671875-12.382813 26.378906zm0 0"/><path d="m396.457031 196.527344c-5.90625 6.464844-11.871093 23.503906-5.410156 29.410156 6.464844 5.902344 22.90625-1.5625 28.808594-8.027344 5.90625-6.460937 5.457031-16.484375-1.007813-22.390625-6.464844-5.894531-16.488281-5.449219-22.390625 1.007813zm0 0"/><path d="m390.855469 179.609375c-3.863281 10.703125-19.871094 27.871094-30.574219 24.007813-10.707031-3.863282-12.050781-27.304688-8.183594-38 3.863282-10.707032 15.671875-16.25 26.375-12.386719 10.703125 3.867187 16.246094 15.671875 12.382813 26.378906zm0 0"/><path d="m400 104h-24v-16c0-17.671875-14.328125-32-32-32s-32 14.328125-32 32v16h-24c-4.414062 0-8 3.585938-8 8v16c0 4.414062 3.585938 8 8 8h112c4.414062 0 8-3.585938 8-8v-16c0-4.414062-3.585938-8-8-8zm-56-32c4.414062 0 8 3.585938 8 8s-3.585938 8-8 8-8-3.585938-8-8 3.585938-8 8-8zm0 0"/></g><path d="m312 96h64v8h-64zm0 0" fill="#466089"/><path d="m336 448c-.144531 0-.28125 0-.425781-.007812-3.167969-.167969-5.949219-2.199219-7.070313-5.175782l-17.550781-46.824218-7.800781 15.59375c-1.351563 2.703124-4.121094 4.414062-7.152344 4.414062h-56v-16h51.054688l13.792968-27.574219c1.425782-2.839843 4.464844-4.59375 7.578125-4.410156 3.167969.167969 5.949219 2.199219 7.070313 5.175781l17.550781 46.824219 15.800781-31.589844c2.71875-5.425781 11.59375-5.425781 14.3125 0l8.839844 17.6875.839844-1.6875c1.359375-2.714843 4.128906-4.425781 7.160156-4.425781h64v16h-59.054688l-5.792968 11.574219c-2.71875 5.425781-11.59375 5.425781-14.3125 0l-8.839844-17.6875-16.839844 33.6875c-1.359375 2.722656-4.144531 4.425781-7.160156 4.425781zm0 0" fill="#6e83b7"/><path d="m200 272c0 17.671875-14.328125 32-32 32s-32-14.328125-32-32 14.328125-32 32-32 32 14.328125 32 32zm0 0" fill="#edeff1"/><path d="m192 272c0 13.253906-10.746094 24-24 24s-24-10.746094-24-24 10.746094-24 24-24 24 10.746094 24 24zm0 0" fill="#d3d3d3"/><path d="m136 8v16c13.230469 0 24 10.769531 24 24v24c0 39.695312-32.304688 72-72 72s-72-32.304688-72-72v-24c0-13.230469 10.769531-24 24-24v-16c-22.054688 0-40 17.945312-40 40v64c0 45.824219 35.214844 83.535156 80 87.59375v240.40625c0 26.472656 21.527344 48 48 48s48-21.527344 48-48v-168h-16v168c0 17.648438-14.351562 32-32 32s-32-14.351562-32-32v-240.40625c44.785156-4.058594 80-41.769531 80-87.59375v-64c0-22.054688-17.945312-40-40-40zm-48 176c-35.65625 0-65.257812-26.078125-70.9375-60.144531 16.027344 21.863281 41.816406 36.144531 70.9375 36.144531s54.910156-14.28125 70.9375-36.144531c-5.679688 34.066406-35.28125 60.144531-70.9375 60.144531zm0 0" fill="#6e83b7"/><path d="m48 8c0-4.414062-3.585938-8-8-8s-8 3.585938-8 8v16c0 4.414062 3.585938 8 8 8s8-3.585938 8-8c4.414062 0 8-3.585938 8-8s-3.585938-8-8-8zm0 0" fill="#edeff1"/><path d="m136 0c-4.414062 0-8 3.585938-8 8-4.414062 0-8 3.585938-8 8s3.585938 8 8 8c0 4.414062 3.585938 8 8 8s8-3.585938 8-8v-16c0-4.414062-3.585938-8-8-8zm0 0" fill="#edeff1"/><path d="m184 272c0 8.835938-7.164062 16-16 16s-16-7.164062-16-16 7.164062-16 16-16 16 7.164062 16 16zm0 0" fill="#466089"/></svg>