<svg id="Capa_1" enable-background="new 0 0 512 512" height="512" viewBox="0 0 512 512" width="512" xmlns="http://www.w3.org/2000/svg"><g><path d="m364.643 90.015v-33.065h-217.286v33.065c0 8.375-3.916 16.268-10.584 21.335l-11.865 9.015c-11.483 8.725-18.225 22.316-18.225 36.737v33.731l15.453 123.27-15.453 123.27v43.72c0 17.069 13.837 30.905 30.905 30.905h236.825c17.069 0 30.905-13.837 30.905-30.905v-43.72l-15.453-112.284 15.453-134.256v-33.731c0-14.421-6.743-28.013-18.225-36.737l-11.865-9.015c-6.669-5.067-10.585-12.96-10.585-21.335z" fill="#e5edfc"/><path d="m387.093 120.366-11.865-9.015c-6.668-5.067-10.584-12.96-10.584-21.335v-33.065h-15.453-15.453-186.381v33.065c0 4.725-1.247 9.296-3.531 13.293h177.696c8.258 0 16.159 2.953 22.713 7.976.029.022.058.044.087.066l11.865 9.015c11.483 8.725 18.225 22.317 18.225 36.738v323.991c0 17.069-13.837 30.905-30.905 30.905h30.905c17.069 0 30.905-13.837 30.905-30.905v-43.72l-15.452-115.845 15.453-130.696v-33.731c0-14.421-6.743-28.013-18.225-36.737z" fill="#d1d9fc"/><path d="m106.682 190.834h298.636v246.54h-298.636z" fill="#6fd8fd"/><path d="m374.413 190.835h30.905v246.54h-30.905z" fill="#28c1fd"/><g fill="#fff"><g><ellipse cx="171.01" cy="303.843" rx="16.023" ry="21.248"/><ellipse cx="340.99" cy="303.843" rx="16.023" ry="21.248"/></g><g><ellipse cx="221.82" cy="255.237" rx="18.727" ry="24.834"/><ellipse cx="290.18" cy="255.237" rx="18.727" ry="24.834"/></g><path d="m202.252 340.588c19.058-48.993 88.439-48.993 107.496 0 .125.322.249.647.37.973 5.155 13.867 10.472 32.615.365 45.549-10.023 12.826-25.37 12.955-37.917 6.491-10.347-5.33-22.785-5.33-33.132 0-12.547 6.463-27.894 6.334-37.917-6.491-10.107-12.934-4.79-31.682.365-45.549.121-.326.244-.651.37-.973z"/></g><path d="m378.928 72.403h-22.485l-8.884-2.321-6.569 2.321h-30.905l-7.726-3.751-7.726 3.751h-30.905l-7.728-2.412-7.726 2.412h-30.905l-8.47-2.579-6.983 2.579h-30.906l-7.726-1.716-7.726 1.716h-22.485c-8.482 0-15.358-6.876-15.358-15.358v-41.687c0-8.482 6.876-15.358 15.358-15.358h245.855c8.482 0 15.358 6.876 15.358 15.358v41.687c0 8.482-6.876 15.358-15.358 15.358z" fill="#6fd8fd"/><path d="m378.464 0h-30.905c8.738 0 15.821 7.084 15.821 15.821v40.76c0 5.445-2.75 10.247-6.937 13.093-2.533 1.722-5.591 1.871-8.884 1.871l8.884.857h22.021c8.738 0 15.821-7.083 15.821-15.821v-40.76c.001-8.737-7.083-15.821-15.821-15.821z" fill="#28c1fd"/><g><g><path d="m155.557 72.403v-27.311c0-4.267 3.459-7.726 7.726-7.726s7.726 3.459 7.726 7.726v27.311z" fill="#695d69"/></g><g><path d="m201.916 72.403v-27.311c0-4.267 3.459-7.726 7.726-7.726s7.726 3.459 7.726 7.726v27.311z" fill="#695d69"/></g><g><path d="m248.274 72.403v-27.311c0-4.267 3.459-7.726 7.726-7.726 4.268 0 7.726 3.459 7.726 7.726v27.311z" fill="#695d69"/></g><g><path d="m294.632 72.403v-27.311c0-4.267 3.459-7.726 7.726-7.726s7.726 3.459 7.726 7.726v27.311z" fill="#695d69"/></g><g><path d="m340.99 72.403v-27.311c0-4.267 3.459-7.726 7.726-7.726s7.726 3.459 7.726 7.726v27.311z" fill="#695d69"/></g></g></g></svg>