<svg height="512" viewBox="0 0 512 512" width="512" xmlns="http://www.w3.org/2000/svg"><g id="Flat"><rect fill="#f96d00" height="224" rx="32" width="464" x="24" y="200"/><path d="m427.508 488h-343.016a16 16 0 0 1 -15.522-12.119l-12.97-51.881h400l-12.97 51.881a16 16 0 0 1 -15.522 12.119z" fill="#d65246"/><rect fill="#ffb431" height="192" rx="8" width="400" x="56" y="232"/><g fill="#f88400"><path d="m88 296h16v16h-16z"/><path d="m80 264h16v16h-16z"/><path d="m360 352h16v16h-16z"/><path d="m192 304h16v16h-16z"/><path d="m408 320h16v16h-16z"/><path d="m400 376h16v16h-16z"/><path d="m200 352h16v16h-16z"/><path d="m80 368h16v16h-16z"/></g><path d="m483.32 100.68a15.987 15.987 0 0 0 -11.32-4.68h-24a48 48 0 0 0 -48 48v72.01a16 16 0 0 1 -16.03 16c-7.99-.01-31.97-.01-31.97-.01v-56a64 64 0 0 0 -64-64h-93.43a31.987 31.987 0 0 1 -27.78-16.12s-22.79-47.88-32.16-62.51c-4.416-6.895-13.79-9.37-22.63-9.37v32h-32l-24 32v40h40v40a80.01 80.01 0 0 0 32 64v120l-8 16v16h48v-144h32l24.32 18.24a51.472 51.472 0 0 0 51.152 45.76h28.528l-32 48h-15.742a19.934 19.934 0 0 0 -14.1 5.839 19.937 19.937 0 0 0 -3.735 23.013l1.577 3.148h56l49.339-67.841a32 32 0 0 0 -1.3-39.308l-10.706-12.851h50.667a47.948 47.948 0 0 0 48-48v-72a16 16 0 0 1 16-16h24a16.009 16.009 0 0 0 11.32-27.32z" fill="#348ed8"/><path d="m80 24a32 32 0 0 1 32 32 0 0 0 0 1 0 0h-32a0 0 0 0 1 0 0v-32a0 0 0 0 1 0 0z" fill="#2d7dbe"/><path d="m160 224h16v48h-16z" fill="#2d7dbe"/><path d="m220.406 267.028a59.192 59.192 0 0 1 -4.4-23.285c.262-20.458 11.333-39.262 28.682-50.106l39.073-24.421 8.48 13.568-39.163 24.478a44.248 44.248 0 0 0 -21.078 37.596 43.214 43.214 0 0 0 3.214 16.114z" fill="#2d7dbe"/><path d="m342.417 290.332a23.844 23.844 0 0 0 -4.521-8.36l-24.042-28.85 12.292-10.244 24.042 28.851a39.774 39.774 0 0 1 7.534 13.939z" fill="#2d7dbe"/><path d="m96 80h16v16h-16z" fill="#4db6e4"/></g></svg>