<svg height="512" viewBox="0 0 512 512" width="512" xmlns="http://www.w3.org/2000/svg"><path d="m152 80h32v56h-32z" fill="#e4e4e2"/><path d="m328 80h32v56h-32z" fill="#e4e4e2"/><path d="m192 168h-48v-22.874a32 32 0 0 1 14.25-26.626l9.75-6.5 9.75 6.5a32 32 0 0 1 14.25 26.626z" fill="#c7463b"/><path d="m368 168h-48v-22.874a32 32 0 0 1 14.25-26.626l9.75-6.5 9.75 6.5a32 32 0 0 1 14.25 26.626z" fill="#c7463b"/><rect fill="#f55648" height="320" rx="64" width="432" x="40" y="160"/><circle cx="256" cy="296" fill="#eaeae8" r="88"/><circle cx="256" cy="296" fill="#f9f9f9" r="79"/><g fill="#e08122"><path d="m272 344a16 16 0 0 0 0-32 16 16 0 0 0 -32 0v.012a16 16 0 1 0 .31 31.988z"/><circle cx="256" cy="259.997" r="12"/><circle cx="212" cy="283.997" r="12"/><circle cx="300" cy="283.997" r="12"/></g><rect fill="#c7463b" height="32" rx="16" width="240" x="136" y="48"/><path d="m392 356h-28v-28h-32v28h-28v32h28v28h32v-28h28z" fill="#c7463b"/><path d="m112 456h-8a40.045 40.045 0 0 1 -40-40v-8a8 8 0 0 1 16 0v8a24.028 24.028 0 0 0 24 24h8a8 8 0 0 1 0 16z" fill="#ff8e82"/><path d="m152 456h-8a8 8 0 0 1 0-16h8a8 8 0 0 1 0 16z" fill="#ff8e82"/><path d="m384 356h-28v-28h-32v28h-28v32h28v28h32v-28h28z" fill="#85bc94"/></svg>