<svg height="480pt" viewBox="0 -16 480 480" width="480pt" xmlns="http://www.w3.org/2000/svg"><path d="m480 232c0 119.292969-96.707031 216-216 216s-216-96.707031-216-216 96.707031-216 216-216 216 96.707031 216 216zm0 0" fill="#edeff1"/><path d="m392 232c0 70.691406-57.308594 128-128 128s-128-57.308594-128-128 57.308594-128 128-128 128 57.308594 128 128zm0 0" fill="#ffe352"/><path d="m312 232c0 57.441406-48 104-48 104s-48-46.558594-48-104 48-104 48-104 48 46.558594 48 104zm0 0" fill="#6e83b7"/><path d="m160 160c0 44.183594-35.816406 80-80 80s-80-35.816406-80-80 80-160 80-160 80 115.816406 80 160zm0 0" fill="#80d6fb"/></svg>