<svg height="512" viewBox="0 0 512 512" width="512" xmlns="http://www.w3.org/2000/svg"><g id="Flat"><rect fill="#9fdce4" height="40" rx="20" width="368" x="72" y="48"/><path d="m488 256a231.991 231.991 0 0 1 -129.15 208h-205.7a231.9 231.9 0 0 1 -72.43-360q7.26-8.355 15.28-16h320q8.01 7.635 15.27 16a231.1 231.1 0 0 1 56.73 152z" fill="#9fdce4"/><path d="m488 256a231.991 231.991 0 0 1 -129.15 208h-205.7a232.246 232.246 0 0 1 -113.31-292.41c13.67 4.72 20.96 12.41 44.73 12.41 34.29 0 34.29-16 68.57-16s34.28 16 68.57 16 34.28-16 68.57-16 34.28 16 68.57 16 34.29-16 68.57-16c25.8 0 32.19 9.06 48.37 13.54a231.56 231.56 0 0 1 12.21 74.46z" fill="#4db6e4"/><path d="m192 264s24-48 48-48c7.463 0 12.6 1.547 16.148 3.679a75.308 75.308 0 0 0 31.733 10.28 23.49 23.49 0 0 1 8.119 2.041c16 8 8 32 8 32z" fill="#ff7d19"/><path d="m212.369 251h45.763v16h-45.763z" fill="#f76400" transform="matrix(.557 -.83 .83 .557 -110.899 310.036)"/><path d="m251.189 252.75h28.623v16h-28.623z" fill="#f76400" transform="matrix(.454 -.891 .891 .454 -87.387 378.868)"/><path d="m84 280a12 12 0 1 0 12 12 12.013 12.013 0 0 0 -12-12z" fill="#79c5e7"/><path d="m108 240a12 12 0 1 0 12 12 12.013 12.013 0 0 0 -12-12z" fill="#79c5e7"/><path d="m88 236a20 20 0 1 0 -20 20 20.023 20.023 0 0 0 20-20z" fill="#79c5e7"/><path d="m288.512 391.8-17.622-6.16-37.39 6.36 30.5 40s12.822 0 29.094-12.5c10.037-7.7 7.365-23.531-4.582-27.7z" fill="#ff7d19"/><path d="m280 264h-88a88 88 0 0 0 -88 88 86.833 86.833 0 0 0 77.666 48h37.982a98.633 98.633 0 0 0 92.352-64l32-24v-48z" fill="#f76400"/><path d="m424 360a85.4 85.4 0 0 1 -65.607-30.729l-14.393-17.271v-48l14.393-17.271a85.4 85.4 0 0 1 65.607-30.729v20.823a48 48 0 0 1 -23.3 41.16l-16.7 10.017 16.7 10.017a48 48 0 0 1 23.3 41.16z" fill="#ff7d19"/><circle cx="168" cy="328" fill="#415e89" r="16"/><path d="m206.657 380.438-13.314-8.876 3.586-5.378a61.836 61.836 0 0 0 -3.176-73.184l12.494-10a77.784 77.784 0 0 1 3.995 92.057z" fill="#ea5600"/><g fill="#ff7d19"><path d="m240 288h16v16h-16z"/><path d="m272 288h16v16h-16z"/><path d="m256 320h16v16h-16z"/></g><path d="m431.27 104h-350.55q7.26-8.355 15.28-16h320q8.01 7.635 15.27 16z" fill="#91d7df"/></g></svg>