<svg id="Capa_1" enable-background="new 0 0 512 512" height="512" viewBox="0 0 512 512" width="512" xmlns="http://www.w3.org/2000/svg"><g><path d="m496.547 180.282h-149.376c-8.534 0-15.453-6.918-15.453-15.453v-149.376c0-8.535-6.918-15.453-15.452-15.453h-119.501c-8.534 0-15.453 6.918-15.453 15.453v149.376c0 8.534-6.918 15.453-15.453 15.453h-150.406c-8.535 0-15.453 6.918-15.453 15.452v119.501c0 8.534 6.918 15.453 15.453 15.453h149.376c8.534 0 15.453 6.918 15.453 15.453v150.406c0 8.534 6.918 15.453 15.453 15.453h119.501c8.534 0 15.453-6.918 15.453-15.453v-150.406c0-8.534 6.918-15.453 15.453-15.453h150.406c8.534 0 15.453-6.918 15.453-15.453v-119.501c-.001-8.534-6.919-15.452-15.454-15.452z" fill="#fd4755"/><g fill="#fb2b3a"><path d="m300.813 15.453v149.376c0 8.534 6.919 15.453 15.453 15.453h30.905c-8.534 0-15.453-6.918-15.453-15.453v-149.376c0-8.535-6.918-15.453-15.452-15.453h-30.906c8.534 0 15.453 6.918 15.453 15.453z"/><path d="m299.783 346.141v150.406c0 8.534-6.918 15.453-15.453 15.453h30.905c8.534 0 15.453-6.918 15.453-15.453v-150.406c0-8.534 6.918-15.453 15.453-15.453h-30.905c-8.535 0-15.453 6.919-15.453 15.453z"/><path d="m496.547 180.282h-30.905c8.534 0 15.453 6.918 15.453 15.453v119.501c0 8.534-6.919 15.453-15.453 15.453h30.905c8.534 0 15.453-6.918 15.453-15.453v-119.502c0-8.534-6.919-15.452-15.453-15.452z"/></g><path d="m211.187 479.034v-177.191c0-1.138-.922-2.06-2.06-2.06h-176.161c-1.138 0-2.06-.922-2.06-2.06v-84.475c0-1.138.922-2.06 2.06-2.06h177.191c1.138 0 2.06-.922 2.06-2.06v-176.162c0-1.138.922-2.06 2.06-2.06h84.475c1.138 0 2.06.922 2.06 2.06v176.161c0 1.138.922 2.06 2.06 2.06h176.161c1.138 0 2.06.922 2.06 2.06v84.475c0 1.138-.922 2.06-2.06 2.06h-177.19c-1.138 0-2.06.922-2.06 2.06v177.191c0 1.138-.922 2.06-2.06 2.06h-84.475c-1.138.002-2.061-.921-2.061-2.059z" fill="#fff"/><g><path d="m370.037 256c0 54.942-21.497 101.756-70.254 119.609-13.652 4.999-28.399 7.727-43.783 7.727-70.326 0-127.336-57.01-127.336-127.336s57.01-127.336 127.336-127.336c15.773 0 30.876 2.868 44.816 8.11 48.214 18.133 69.221 64.673 69.221 119.226z" fill="#e5edfc"/><path d="m256 128.664c-5.231 0-10.387.323-15.453.936 63.037 7.627 111.883 61.306 111.883 126.4s-48.846 118.773-111.883 126.4c5.066.613 10.221.936 15.453.936 70.325 0 127.336-57.01 127.336-127.336s-57.011-127.336-127.336-127.336z" fill="#d1d9fc"/><g fill="#fd4755"><g><ellipse cx="177.244" cy="242.807" rx="14.848" ry="19.689"/><ellipse cx="334.756" cy="242.807" rx="14.848" ry="19.689"/></g><g><ellipse cx="224.327" cy="197.767" rx="17.354" ry="23.012"/><ellipse cx="287.673" cy="197.767" rx="17.354" ry="23.012"/></g><path d="m206.194 284.224c17.66-45.4 81.952-45.4 99.611 0 .116.299.231.599.343.902 4.777 12.85 9.704 30.222.338 42.208-9.288 11.885-23.509 12.005-35.136 6.015-9.588-4.939-21.114-4.939-30.701 0-11.627 5.989-25.848 5.87-35.136-6.015-9.366-11.985-4.439-29.358.338-42.208.113-.302.227-.603.343-.902z"/></g></g></g></svg>