<svg id="Capa_1" enable-background="new 0 0 512 512" height="512" viewBox="0 0 512 512" width="512" xmlns="http://www.w3.org/2000/svg"><g><g><path d="m285.799 82.451h-59.598v-75.451c0-3.866 3.134-7 7-7h45.598c3.866 0 7 3.134 7 7z" fill="#695d69"/><path d="m381.165 133.846h-250.33c9.745-38.957 44.75-66.284 84.907-66.284h80.516c40.157 0 75.162 27.327 84.907 66.284z" fill="#ffc344"/><path d="m381.165 133.846c-9.745-38.957-44.75-66.284-84.907-66.284h-30.905c40.157 0 75.162 27.327 84.907 66.284z" fill="#feb237"/><path d="m123.622 160.791h264.757v319.19h-264.757z" fill="#ffc344"/><path d="m123.622 160.791v49.366h223.549c5.69 0 10.302 4.612 10.302 10.302v259.523h30.905v-319.19h-264.756z" fill="#feb237"/><path d="m379.331 512h-246.662c-13.531 0-24.5-10.969-24.5-24.5v-1.479c0-13.531 10.969-24.5 24.5-24.5h246.662c13.531 0 24.5 10.969 24.5 24.5v1.479c0 13.531-10.969 24.5-24.5 24.5z" fill="#695d69"/><path d="m378.592 461.521h-30.905c13.939 0 25.239 11.3 25.239 25.239s-11.301 25.24-25.24 25.24h30.905c13.939 0 25.239-11.3 25.239-25.239s-11.299-25.24-25.238-25.24z" fill="#564e57"/><path d="m379.331 179.252h-246.662c-13.531 0-24.5-10.969-24.5-24.5v-1.479c0-13.531 10.969-24.5 24.5-24.5h246.662c13.531 0 24.5 10.969 24.5 24.5v1.479c0 13.531-10.969 24.5-24.5 24.5z" fill="#695d69"/><path d="m378.592 128.773h-30.905c13.939 0 25.239 11.3 25.239 25.239s-11.3 25.239-25.239 25.239h30.905c13.939 0 25.239-11.3 25.239-25.239s-11.3-25.239-25.239-25.239z" fill="#564e57"/><circle cx="256" cy="320.386" fill="#fff" r="95.663"/><g><g><path d="m274.551 341.881c-1.805 0-3.617-.628-5.082-1.91-3.212-2.808-3.54-7.69-.731-10.902 3.17-3.627 14.887-15.409 32.501-14.591 6.479.295 12.93 2.329 18.656 5.881 3.626 2.25 4.741 7.013 2.492 10.638-2.251 3.626-7.013 4.743-10.639 2.492-2.432-1.509-6.351-3.354-11.213-3.575-10.967-.51-18.724 7.68-20.163 9.325-1.529 1.748-3.669 2.642-5.821 2.642z" fill="#695d69"/></g><g><g><path d="m271.233 313.587c-2.152 0-4.292-.893-5.82-2.641-2.809-3.212-2.481-8.094.731-10.902 1.645-1.439 9.827-9.171 9.325-20.163-.221-4.862-2.067-8.782-3.575-11.215-2.25-3.626-1.134-8.389 2.493-10.638 3.624-2.248 8.388-1.134 10.638 2.493 3.552 5.726 5.586 12.177 5.881 18.655.804 17.617-10.965 29.33-14.591 32.5-1.464 1.282-3.277 1.911-5.082 1.911z" fill="#695d69"/></g><g><path d="m215.879 355.961c-.567 0-1.139-.013-1.718-.039-6.479-.295-12.93-2.329-18.656-5.881-3.626-2.25-4.741-7.013-2.492-10.638s7.01-4.743 10.639-2.492c2.432 1.509 6.351 3.354 11.213 3.575 10.971.512 18.724-7.68 20.163-9.325 2.809-3.213 7.689-3.541 10.902-.731 3.212 2.808 3.54 7.69.731 10.902-3.065 3.506-14.123 14.629-30.782 14.629z" fill="#695d69"/></g></g><g><path d="m258.8 391.681c-2.585 0-5.11-1.296-6.572-3.654-3.552-5.725-5.586-12.177-5.881-18.655-.804-17.617 10.965-29.331 14.591-32.501 3.211-2.809 8.093-2.482 10.902.731 2.809 3.212 2.481 8.094-.731 10.902-1.645 1.439-9.827 9.171-9.325 20.164.221 4.862 2.066 8.782 3.575 11.214 2.249 3.626 1.134 8.389-2.492 10.638-1.269.785-2.677 1.161-4.067 1.161z" fill="#695d69"/></g><circle cx="227.636" cy="292.651" fill="#695d69" r="24.317"/><circle cx="259.399" cy="324.414" fill="#564e57" r="35.384"/></g><path d="m256 216.996c-57.009 0-103.389 46.38-103.389 103.39 0 58.582 47.943 103.39 103.389 103.39 57.009 0 103.389-46.38 103.389-103.39 0-61.694-51.378-103.39-103.389-103.39zm-87.937 103.39c0-48.489 39.448-87.937 87.937-87.937 23.634 0 45.102 9.389 60.92 24.61l-124.242 124.252c-15.224-15.818-24.615-37.289-24.615-60.925zm87.937 87.937c-19.29 0-37.136-6.259-51.65-16.83l122.753-122.762c10.574 14.515 16.834 32.363 16.834 51.655 0 48.489-39.448 87.937-87.937 87.937z" fill="#fd4755"/></g><circle cx="256" cy="36.375" fill="#fff" r="7.726"/></g></svg>