<svg height="480pt" viewBox="0 0 480 480.00185" width="480pt" xmlns="http://www.w3.org/2000/svg"><path d="m0 192h64v288h-64zm0 0" fill="#edeff1"/><path d="m56 424v-232h8v240h-16v8h-8v-16zm0 0" fill="#d3d3d3"/><path d="m0 440h64v40h-64zm0 0" fill="#6e83b7"/><path d="m40 448v-8h8v16h-8v24h-8v-32zm0 0" fill="#466089"/><path d="m416 192h64v288h-64zm0 0" fill="#edeff1"/><path d="m424 424v-232h-8v240h16v8h8v-16zm0 0" fill="#d3d3d3"/><path d="m416 440h64v40h-64zm0 0" fill="#6e83b7"/><path d="m48 144h384v32h-384zm0 0" fill="#6e83b7"/><path d="m48 432h384v24h-384zm0 0" fill="#6e83b7"/><path d="m48 448h384v8h-384zm0 0" fill="#466089"/><path d="m40 456h400v24h-400zm0 0" fill="#6e83b7"/><path d="m64 176h352v256h-352zm0 0" fill="#edeff1"/><g fill="#6e83b7"><path d="m240 134.730469c10.503906 0 17.769531 9.269531 32.449219 9.269531 10.457031 0 23.175781-8.230469 23.175781-20.207031 0-37.085938-32.160156-55.632813-55.632812-55.632813-23.472657 0-55.632813 18.546875-55.632813 55.632813 0 11.976562 12.722656 20.207031 23.175781 20.207031 14.699219 0 21.960938-9.269531 32.464844-9.269531zm0 0"/><path d="m180.992188 50.097656c6.640624 7.273438 13.351562 26.441406 6.089843 33.089844-7.265625 6.644531-25.761719-1.761719-32.410156-9.027344-6.640625-7.269531-6.136719-18.542968 1.128906-25.191406s18.542969-6.136719 25.191407 1.128906zm0 0"/><path d="m187.28125 31.058594c4.34375 12.039062 22.351562 31.359375 34.390625 27.007812 12.042969-4.34375 13.554687-30.710937 9.210937-42.753906-4.347656-12.039062-17.632812-18.277344-29.675781-13.925781-12.039062 4.351562-18.269531 17.632812-13.925781 29.671875zm0 0"/><path d="m299.007812 50.097656c-6.640624 7.273438-13.351562 26.441406-6.085937 33.089844 7.261719 6.644531 25.757813-1.761719 32.40625-9.027344 6.648437-7.261718 6.136719-18.542968-1.128906-25.191406-7.261719-6.648438-18.542969-6.136719-25.191407 1.128906zm0 0"/><path d="m292.722656 31.058594c-4.347656 12.039062-22.355468 31.359375-34.394531 27.007812-12.039063-4.34375-13.550781-30.710937-9.207031-42.753906 4.34375-12.039062 17.632812-18.277344 29.671875-13.925781 12.03125 4.34375 18.273437 17.632812 13.929687 29.671875zm0 0"/></g><path d="m264 96h-16v-16h-16v16h-16v16h16v16h16v-16h16zm0 0" fill="#80d6fb"/><path d="m192 320h96v112h-96zm0 0" fill="#d3d3d3"/><path d="m200 328h80v104h-80zm0 0" fill="#80d6fb"/><path d="m440 448v-8h-8v16h8v24h8v-32zm0 0" fill="#466089"/><path d="m320 192h80v96h-80zm0 0" fill="#d3d3d3"/><path d="m328 200h64v80h-64zm0 0" fill="#80d6fb"/><path d="m400 236h-36v-44h-8v44h-36v8h36v44h8v-44h36zm0 0" fill="#d3d3d3"/><path d="m200 192h80v96h-80zm0 0" fill="#d3d3d3"/><path d="m208 200h64v80h-64zm0 0" fill="#80d6fb"/><path d="m280 236h-36v-44h-8v44h-36v8h36v44h8v-44h36zm0 0" fill="#d3d3d3"/><path d="m80 192h80v96h-80zm0 0" fill="#d3d3d3"/><path d="m88 200h64v80h-64zm0 0" fill="#80d6fb"/><path d="m160 236h-36v-44h-8v44h-36v8h36v44h8v-44h36zm0 0" fill="#d3d3d3"/></svg>