<svg height="512" viewBox="0 0 512 512" width="512" xmlns="http://www.w3.org/2000/svg"><g id="Flat"><path d="m488 256a231.809 231.809 0 0 1 -7.87 60.11 226.5 226.5 0 0 1 -7.2 22.3v.01a231.647 231.647 0 0 1 -32.93 58.91 235.491 235.491 0 0 1 -16 18.68 232.187 232.187 0 0 1 -97.25 61 227.969 227.969 0 0 1 -22.63 5.99 234.094 234.094 0 0 1 -95.77.1 229.128 229.128 0 0 1 -22.56-5.92 232.043 232.043 0 0 1 -97.79-61.17 235.491 235.491 0 0 1 -16-18.68 231.647 231.647 0 0 1 -32.93-58.91v-.01a226.5 226.5 0 0 1 -7.2-22.3 233.546 233.546 0 0 1 .36-121.57 227.134 227.134 0 0 1 7.24-21.99 231.362 231.362 0 0 1 32.53-57.88 235.491 235.491 0 0 1 16-18.68 232.043 232.043 0 0 1 97.79-61.17 229.128 229.128 0 0 1 22.56-5.92 234.136 234.136 0 0 1 95.3 0 229.128 229.128 0 0 1 22.56 5.92 232.043 232.043 0 0 1 97.79 61.17 235.491 235.491 0 0 1 16 18.68 231.526 231.526 0 0 1 32.62 58.12 226.577 226.577 0 0 1 7.23 22.06 231.847 231.847 0 0 1 8.15 61.15z" fill="#d65246"/><g fill="#df6257"><path d="m202.236 71.627-4.472-15.362c-6.483 1.887-12.948 4.119-19.215 6.636l5.961 14.848c5.782-2.322 11.745-4.381 17.726-6.122z"/><path d="m171.524 83.532-7.048-14.363a210.2 210.2 0 0 0 -68.3 53.708l12.289 10.246a194.092 194.092 0 0 1 63.059-49.591z"/><path d="m51.6 217.273 15.724 2.962c1.15-6.107 2.615-12.222 4.354-18.175l-15.357-4.487c-1.886 6.453-3.474 13.081-4.721 19.7z"/><path d="m65.212 234.294-15.9-1.787a211.116 211.116 0 0 0 -1.312 23.493 208.283 208.283 0 0 0 8.265 58.236l15.362-4.472a192.283 192.283 0 0 1 -7.627-53.764 195.2 195.2 0 0 1 1.212-21.706z"/><path d="m110.078 380.788-12.156 10.4a208.973 208.973 0 0 0 83.2 58.919l5.762-14.926a192.911 192.911 0 0 1 -76.806-54.393z"/></g><path d="m431.96 342.87-79.96-43.62v-86.5l16-8.73 64.02-34.92 47.83 25.75a226.577 226.577 0 0 0 -7.23-22.06l-32.62-17.57v-40.55a235.491 235.491 0 0 0 -16-18.68v59.26l-80 43.64-80-43.64v-86.5l62.21-33.93a229.128 229.128 0 0 0 -22.56-5.92l-47.65 25.99-47.65-25.99a229.128 229.128 0 0 0 -22.56 5.92l62.21 33.93v86.5l-80 43.64-80-43.64v-59.26a235.491 235.491 0 0 0 -16 18.68v40.53l-32.53 17.35a227.134 227.134 0 0 0 -7.24 21.99l47.73-25.45 53.36 29.11 26.68 14.55v86.5l-79.96 43.62-48.17-26.76a226.5 226.5 0 0 0 7.2 22.3v.01l32.93 18.29v40.62a235.491 235.491 0 0 0 16 18.68v-59.26l80-43.64 80 43.64v86.5l-62.21 33.93a229.128 229.128 0 0 0 22.56 5.92l47.67-26 48.1 25.9a227.969 227.969 0 0 0 22.63-5.99l-62.75-33.79v-86.47l80-43.64 80 43.64v59.26a235.491 235.491 0 0 0 16-18.68v-40.62l32.93-18.29v-.01a226.5 226.5 0 0 0 7.2-22.3zm-95.96-43.62-80 43.64-80-43.64v-86.5l80-43.64 80 43.64z" fill="#b93f33"/></g></svg>