<svg height="512" viewBox="0 0 512 512" width="512" xmlns="http://www.w3.org/2000/svg"><path d="m328 144v56h-32v-56a16 16 0 1 1 32 0z" fill="#c7bfa1"/><path d="m328 144v16h-144v-16a16 16 0 0 1 16-16h112a15.979 15.979 0 0 1 16 16z" fill="#e8dfbc"/><path d="m296 160h32v8h-32z" fill="#b6af94"/><path d="m216 144v56h-32v-56a16 16 0 1 1 32 0z" fill="#c7bfa1"/><path d="m251 288-32 96h-163l-32-96 21.33-64h185.34z" fill="#2d6087"/><path d="m248 288-32-96h224l32 96z" fill="#e8dfbc"/><path d="m48 224h16v136h-16z" fill="#878787"/><path d="m80 216h16v144h-16z" fill="#878787"/><path d="m112 216h16v144h-16z" fill="#878787"/><path d="m144 216h16v144h-16z" fill="#878787"/><path d="m176 216h16v144h-16z" fill="#878787"/><path d="m208 224h16v128h-16z" fill="#878787"/><path d="m45.33 224h181.34l-10.67-32h-160z" fill="#f0e7c3"/><path d="m56 384h160l10.67-32h-181.34z" fill="#4799cf"/><path d="m248 280v16h-221.33l-2.67-8 2.67-8z" fill="#a8a8a8"/><path d="m248 312v16h-210.67l-5.33-16z" fill="#a8a8a8"/><path d="m472 288-5.33 16-2.67 8-24 72h-224l24-72 2.67-8 5.33-16z" fill="#3775a4"/><path d="m288 280a8 8 0 0 1 -7.431-5.031l-16-40a8 8 0 1 1 14.856-5.942l16 40a8 8 0 0 1 -7.425 10.973z" fill="#c1b99c"/><path d="m336 279.989a8 8 0 0 1 -7.417-5l-16.217-40a8 8 0 1 1 14.828-6.012l16.217 40a8 8 0 0 1 -7.411 11.012z" fill="#c1b99c"/><path d="m384 280a8 8 0 0 1 -7.431-5.031l-16-40a8 8 0 1 1 14.856-5.942l16 40a8 8 0 0 1 -7.425 10.973z" fill="#c1b99c"/><path d="m424 280a8 8 0 0 1 -7.431-5.031l-16-40a8 8 0 1 1 14.856-5.942l16 40a8 8 0 0 1 -7.425 10.973z" fill="#c1b99c"/><path d="m264 328h16v32h-16z" fill="#2d6087"/><path d="m264 328h8v32h-8z" fill="#244d6c"/><path d="m312 328h16v32h-16z" fill="#2d6087"/><path d="m360 328h16v32h-16z" fill="#2d6087"/><path d="m408 328h16v32h-16z" fill="#2d6087"/><path d="m480 272v32h-237.33l5.33-16-5.33-16z" fill="#428dc5"/><path d="m466.67 304-2.67 8h-224l2.67-8z" fill="#2d6087"/><g fill="#6f7478"><path d="m48 264h16v8h-16z"/><path d="m80 264h16v8h-16z"/><path d="m112 264h16v8h-16z"/><path d="m144 264h16v8h-16z"/><path d="m176 264h16v8h-16z"/><path d="m208 264h16v8h-16z"/><path d="m48 224h16v8h-16z"/><path d="m80 224h16v8h-16z"/><path d="m112 224h16v8h-16z"/><path d="m144 224h16v8h-16z"/><path d="m176 224h16v8h-16z"/><path d="m208 224h16v8h-16z"/><path d="m48 296h16v8h-16z"/><path d="m80 296h16v8h-16z"/><path d="m112 296h16v8h-16z"/><path d="m144 296h16v8h-16z"/><path d="m176 296h16v8h-16z"/><path d="m208 296h16v8h-16z"/><path d="m48 328h16v8h-16z"/><path d="m80 328h16v8h-16z"/><path d="m112 328h16v8h-16z"/><path d="m144 328h16v8h-16z"/><path d="m176 328h16v8h-16z"/><path d="m208 328h16v8h-16z"/></g><path d="m240 264h-208l5.33-16h197.34z" fill="#a8a8a8"/><path d="m312 328h8v32h-8z" fill="#244d6c"/><path d="m360 328h8v32h-8z" fill="#244d6c"/><path d="m408 328h8v32h-8z" fill="#244d6c"/></svg>