<svg height="512" viewBox="0 0 512 512" width="512" xmlns="http://www.w3.org/2000/svg"><g id="Flat"><path d="m437.46 83.92-13.46 4.08 16 50.67 48-26.67z" fill="#348ed8"/><path d="m280 104v72l-184 160-72 64h296a120 120 0 0 0 120-120v-176a80 80 0 0 0 -80-80 80 80 0 0 0 -80 80z" fill="#60d0df"/><circle cx="380" cy="100" fill="#2b78b7" r="20"/><path d="m440 256q0 4.05-.39 8a79.915 79.915 0 0 1 -15.61 40 80.783 80.783 0 0 1 -7.43 8.57 79.789 79.789 0 0 1 -56.57 23.43h-264l36.8-32 18.4-16 27.6-24 18.4-16 82.8-72h80a80.027 80.027 0 0 1 79.61 72q.39 3.945.39 8z" fill="#348ed8"/><path d="m433.33 288a79.779 79.779 0 0 1 -9.33 16h-291.2l18.4-16z" fill="#5dacef"/><path d="m440 256q0 4.05-.39 8h-260.81l18.4-16h242.41q.39 3.945.39 8z" fill="#5dacef"/><path d="m245.21 280.06-65.29 55.94h-24.6l79.47-68.09z" fill="#2b78b7"/><path d="m317.21 280.06-65.14 55.94h-24.56l79.28-68.08z" fill="#2b78b7"/><path d="m360 480h-34.852l-36.358-80h-17.58l36.368 80h-19.578v16h72z" fill="#f19f9f"/><path d="m261.148 480-36.358-80h-17.58l36.368 80h-35.578v16h80v-16z" fill="#f6aeae"/></g></svg>