<svg id="Capa_1" enable-background="new 0 0 512 512" height="512" viewBox="0 0 512 512" width="512" xmlns="http://www.w3.org/2000/svg"><g><g><path d="m245.758 72.567c-56.208-61.228-147.338-61.228-203.546 0-44.618 48.603-55.079 123.242-25.559 183.992 8.468 17.427 18.96 35.357 31.979 53.056 70.541 95.906 167.171 162.761 201.046 174.655 4.114 1.445 8.533 1.445 12.647 0 33.874-11.894 130.503-78.749 201.045-174.655 13.018-17.699 23.51-35.628 31.978-53.055 29.521-60.75 19.06-135.389-25.559-183.993-56.209-61.227-147.339-61.228-203.547 0-5.657 6.162-14.828 6.162-20.484 0z" fill="#fd4755"/><g><path d="m469.788 72.568c-32.04-34.902-75.428-49.898-117.226-45.009 31.528 3.687 62.153 18.683 86.32 45.009 44.618 48.604 55.079 123.243 25.559 183.993-8.468 17.427-18.96 35.356-31.978 53.055-64.986 88.353-152.111 152.049-191.916 170.833 3.403 1.606 6.461 2.885 9.129 3.822 4.114 1.445 8.533 1.445 12.647 0 33.874-11.894 130.503-78.749 201.045-174.655 13.018-17.699 23.51-35.628 31.978-53.055 29.521-60.75 19.061-135.389-25.558-183.993z" fill="#fb2b3a"/></g><path d="m257.729 452.768c-1.1.51-2.356.51-3.456 0-31.371-14.554-116.597-74.252-180.745-161.464-11.011-14.97-20.794-31.204-29.078-48.252-11.787-24.257-16.009-51.499-12.209-78.78 3.775-27.102 15.095-51.586 32.738-70.804 21.262-23.161 49.32-35.916 79.007-35.916s57.744 12.755 79.006 35.915c8.536 9.296 20.566 14.627 33.01 14.627s24.475-5.331 33.008-14.626c21.262-23.161 49.32-35.916 79.007-35.916 29.686 0 57.744 12.756 79.006 35.916 17.643 19.219 28.964 43.703 32.738 70.805 3.8 27.282-.423 54.524-12.21 78.781-8.284 17.048-18.067 33.282-29.077 48.25-64.149 87.213-149.375 146.91-180.745 161.464z" fill="#fff"/></g><g><circle cx="256" cy="259.188" fill="#fd4755" r="112.649"/><path d="m256 146.54c-5.243 0-10.4.366-15.453 1.06 54.901 7.533 97.196 54.618 97.196 111.589s-42.294 104.056-97.196 111.589c5.053.693 10.21 1.06 15.453 1.06 62.214 0 112.648-50.434 112.648-112.649s-50.434-112.649-112.648-112.649z" fill="#fb2b3a"/><g fill="#fff"><g><ellipse cx="186.328" cy="247.517" rx="13.135" ry="17.418"/><ellipse cx="325.672" cy="247.517" rx="13.135" ry="17.418"/></g><g><ellipse cx="227.98" cy="207.672" rx="15.352" ry="20.358"/><ellipse cx="284.02" cy="207.672" rx="15.352" ry="20.358"/></g><path d="m211.939 284.157c15.623-40.163 72.499-40.163 88.122 0 .103.264.204.53.303.798 4.226 11.367 8.585 26.736.299 37.339-8.216 10.514-20.797 10.62-31.083 5.322-8.482-4.369-18.678-4.369-27.16 0-10.286 5.298-22.867 5.193-31.083-5.322-8.286-10.603-3.927-25.972.299-37.339.099-.268.2-.534.303-.798z"/></g></g></g></svg>