<svg height="512" viewBox="0 0 512 512" width="512" xmlns="http://www.w3.org/2000/svg"><path d="m88 136h384v320h-384z" fill="#787d82"/><path d="m110.868 359.919-56-8a8 8 0 0 1 -6.868-7.919v-40h16v33.062l49.132 7.019z" fill="#3775a4"/><path d="m456 496a8 8 0 0 1 -8-8v-32a8 8 0 0 1 16 0v32a8 8 0 0 1 -8 8z" fill="#c3c3c3"/><path d="m104 496a8 8 0 0 1 -8-8v-32a8 8 0 0 1 16 0v32a8 8 0 0 1 -8 8z" fill="#c3c3c3"/><path d="m88 104h384v32h-384z" fill="#da922a"/><path d="m88 104h384v16h-384z" fill="#c38325"/><g fill="#c3c3c3"><path d="m400 176h72v16h-72z"/><path d="m400 224h72v16h-72z"/><path d="m400 272h72v16h-72z"/><path d="m88 320h232v16h-232z"/><path d="m88 368h216v16h-216z"/><path d="m88 176h72v16h-72z"/><path d="m88 224h72v16h-72z"/><path d="m88 272h72v16h-72z"/></g><path d="m24 184h64v96h-64z" fill="#6cbae5"/><path d="m56 152a32 32 0 0 1 32 32 0 0 0 0 1 0 0h-64a0 0 0 0 1 0 0 32 32 0 0 1 32-32z" fill="#428dc5"/><path d="m64 312h-16l-24-32h64z" fill="#428dc5"/><path d="m24 208h32v16h-32z" fill="#428dc5"/><path d="m24 240h32v16h-32z" fill="#428dc5"/><path d="m440 424h-112l8-48h96z" fill="#fbb540"/><path d="m416 376a16 16 0 1 0 -16.913-27.147 15.98 15.98 0 0 0 -30.174 0 16 16 0 1 0 -16.913 27.147z" fill="#8f563b"/><path d="m88 128h104v16h-104z" fill="#c3c3c3"/><path d="m368 128h104v16h-104z" fill="#c3c3c3"/><path d="m88 424h384v32h-384z" fill="#da922a"/><path d="m88 434.471h384v20.946h-384z" fill="#c38325"/><path d="m240 128h80v16h-80z" fill="#c3c3c3"/><path d="m128 136h16v288h-16z" fill="#dbdbdb"/><path d="m176 304h16v120h-16z" fill="#dbdbdb"/><path d="m224 304h16v120h-16z" fill="#dbdbdb"/><path d="m272 304h16v120h-16z" fill="#dbdbdb"/><path d="m416 136h16v168h-16z" fill="#dbdbdb"/><path d="m472 464h-384a8 8 0 0 1 -8-8v-352a8 8 0 0 1 8-8h384a8 8 0 0 1 8 8v352a8 8 0 0 1 -8 8zm-376-16h368v-336h-368z" fill="#c3c3c3"/><path d="m224 168h-16v-80a8 8 0 0 0 -16 0v8h-16v-8a24 24 0 0 1 48 0z" fill="#6cbae5"/><path d="m352 168h-16v-80a8 8 0 0 0 -16 0v8h-16v-8a24 24 0 0 1 48 0z" fill="#6cbae5"/><path d="m365.155 216a32 32 0 1 0 -53.155-24h-64a32 32 0 1 0 -53.155 24 32 32 0 1 0 53.155 24h64a32 32 0 1 0 53.155-24z" fill="#ebebeb"/><path d="m216 232a40.045 40.045 0 0 1 -40-40h16a24.027 24.027 0 0 0 24 24z" fill="#dbdbdb"/><path d="m384 240h-16a24.027 24.027 0 0 0 -24-24v-16a40.045 40.045 0 0 1 40 40z" fill="#dbdbdb"/></svg>