<svg id="Capa_1" enable-background="new 0 0 512 512" height="512" viewBox="0 0 512 512" width="512" xmlns="http://www.w3.org/2000/svg"><g><path d="m434.606 512h-357.212c-16.815 0-30.446-13.631-30.446-30.446v-313.173l209.052-15.223 209.052 15.223v313.173c0 16.815-13.631 30.446-30.446 30.446z" fill="#e5edfc"/><path d="m465.052 440.239v-271.858l-209.052-15.223-15.223 1.109 193.829 14.114v271.858z" fill="#d1d9fc"/><g><g><path d="m439.488 53.504c-1.583-.264-3.217-.396-4.882-.396h-10.321-346.891c-16.816 0-30.446 13.64-30.446 30.446v84.822h418.105v-84.822c-.001-15.142-11.073-27.716-25.565-30.05z" fill="#fd4755"/><path d="m439.488 53.504c-1.583-.264-3.217-.396-4.882-.396h-10.321-20.125c1.664 0 3.298.132 4.882.396 14.492 2.334 25.564 14.908 25.564 30.05v84.822h30.446v-84.822c0-15.142-11.072-27.716-25.564-30.05z" fill="#fb2b3a"/><path d="m424.285 53.108v-29.441c0-4.658-3.785-8.444-8.444-8.444s-8.444 3.785-8.444 8.444v58.883c0 4.658 3.785 8.454 8.444 8.454s8.444-3.796 8.444-8.454c0-4.202 3.41-7.612 7.611-7.612 4.212 0 7.612 3.41 7.612 7.612 0 13.061-10.616 23.677-23.667 23.677s-23.667-10.615-23.667-23.677v-58.883c.001-13.051 10.616-23.667 23.667-23.667s23.667 10.616 23.667 23.667v29.441c0 .132 0 .264-.02.396-1.583-.264-3.217-.396-4.882-.396z" fill="#695d69"/></g><g><path d="m104.606 53.112v-29.442c0-4.658-3.789-8.447-8.447-8.447s-8.447 3.789-8.447 8.447v58.883c0 4.658 3.789 8.447 8.447 8.447s8.447-3.789 8.447-8.447c0-4.204 3.408-7.611 7.611-7.611s7.611 3.408 7.611 7.611c0 13.052-10.618 23.67-23.67 23.67s-23.67-10.618-23.67-23.67v-58.883c0-13.052 10.619-23.67 23.671-23.67s23.67 10.618 23.67 23.67v29.442z" fill="#695d69"/></g><g><path d="m211.167 53.112v-29.442c0-4.658-3.789-8.447-8.447-8.447s-8.447 3.789-8.447 8.447v58.883c0 4.658 3.789 8.447 8.447 8.447s8.447-3.789 8.447-8.447c0-4.204 3.408-7.611 7.611-7.611 4.204 0 7.611 3.408 7.611 7.611 0 13.052-10.618 23.67-23.67 23.67s-23.67-10.618-23.67-23.67v-58.883c0-13.052 10.618-23.67 23.67-23.67s23.67 10.618 23.67 23.67v29.442z" fill="#695d69"/></g><g><path d="m317.728 53.112v-29.442c0-4.658-3.789-8.447-8.447-8.447s-8.447 3.789-8.447 8.447v58.883c0 4.658 3.789 8.447 8.447 8.447s8.447-3.789 8.447-8.447c0-4.204 3.408-7.611 7.612-7.611s7.611 3.408 7.611 7.611c0 13.052-10.618 23.67-23.67 23.67s-23.67-10.618-23.67-23.67v-58.883c-.001-13.052 10.617-23.67 23.669-23.67s23.67 10.618 23.67 23.67v29.442z" fill="#695d69"/></g></g><g><path d="m317.227 140.731h-122.454c-4.204 0-7.611-3.408-7.611-7.611 0-4.204 3.408-7.612 7.611-7.612h122.454c4.204 0 7.611 3.408 7.611 7.612 0 4.203-3.407 7.611-7.611 7.611z" fill="#fff"/></g><path d="m393.291 512v-52.373c0-10.708 8.68-19.388 19.388-19.388h52.373z" fill="#b6c9fd"/><g><circle cx="256" cy="340.19" fill="#695d69" r="121.065"/><path d="m256 219.126c-5.156 0-10.236.325-15.223.95 59.676 7.487 105.842 58.408 105.842 120.114s-46.166 112.627-105.842 120.114c4.987.626 10.067.95 15.223.95 66.862 0 121.065-54.203 121.065-121.065s-54.203-121.063-121.065-121.063z" fill="#564e57"/><g fill="#fff"><g><ellipse cx="181.123" cy="327.647" rx="14.116" ry="18.72"/><ellipse cx="330.877" cy="327.647" rx="14.116" ry="18.72"/></g><g><ellipse cx="225.887" cy="284.825" rx="16.499" ry="21.879"/><ellipse cx="286.113" cy="284.825" rx="16.499" ry="21.879"/></g><path d="m208.647 367.025c16.79-43.164 77.916-43.164 94.706 0 .11.284.219.57.326.857 4.541 12.217 9.226 28.734.321 40.129-8.83 11.3-22.351 11.413-33.405 5.719-9.116-4.696-20.074-4.696-29.189 0-11.054 5.694-24.575 5.581-33.405-5.719-8.905-11.395-4.22-27.912.321-40.129.106-.287.215-.573.325-.857z"/></g></g></g></svg>