<svg height="512" viewBox="0 0 512 512" width="512" xmlns="http://www.w3.org/2000/svg"><g id="Flat"><path d="m496 216h-96a8 8 0 0 0 -8 8v128a8 8 0 0 0 8 8h96a8 8 0 0 0 8-8v-128a8 8 0 0 0 -8-8zm-88 16h32v112h-32zm80 112h-32v-112h32z" fill="#f9a40f"/><path d="m264.848 88.264c-.058 0-.115-.013-.173-.017v.006c-.225-.013-.449-.031-.674-.043v-8.21a8 8 0 0 0 -3.562-6.656l-10.689-7.125a21.854 21.854 0 0 1 -9.75-18.219 16 16 0 0 1 32 0v8h16v-8a32 32 0 0 0 -64 0 37.821 37.821 0 0 0 16.875 31.531l7.125 4.75v3.929c-.225.012-.449.03-.674.043v-.006c-.056 0-.112.012-.169.017-79.713 4.596-143.157 70.892-143.157 151.736v208a8 8 0 0 0 8 8h288a8 8 0 0 0 8-8v-208c0-80.842-63.441-147.137-143.152-151.736zm125.031 127.736h-31.124c-4-38.417-17.359-71.706-36.444-94.7a136.388 136.388 0 0 1 67.568 94.7zm2.121 24v104h-80v-104q0-4.017-.069-8h79.827c.155 2.648.242 5.314.242 8zm-223.837-8h31.906q-.063 3.986-.069 8v104h-32v-104c0-2.68.065-5.344.163-8zm127.837 8v104h-32v-112h31.928c.043 2.656.072 5.321.072 8zm-79.928-8h31.928v112h-32v-104c0-2.679.029-5.344.072-8zm31.928-127.439v111.439h-31.394c1.369-27.331 5.056-52.661 10.738-73 6.928-24.8 15.121-35.949 20.656-38.439zm16 111.439v-111.439c5.535 2.49 13.728 13.635 20.656 38.44 5.682 20.338 9.369 45.668 10.738 73zm36.066-77.3a157.9 157.9 0 0 0 -8.679-24.2c9.092 6.085 17.561 14.7 24.958 25.547 13.819 20.263 23.016 46.98 26.295 75.953h-31.23c-1.4-28.823-5.3-55.667-11.344-77.3zm-79.422-24.269a157.683 157.683 0 0 0 -8.71 24.269c-6.044 21.636-9.944 48.48-11.344 77.3h-31.232c2.99-26.572 10.908-51.184 23.063-70.962 8.168-13.291 17.771-23.63 28.223-30.61zm-20.644 245.569v80h-32v-80zm16 0h32v80h-32zm48 0h32v80h-32zm48 0h32v80h-32zm-122.216-238.753a134.337 134.337 0 0 0 -10.994 15.414c-13.642 22.2-22.419 49.759-25.519 79.339h-31.15a136.387 136.387 0 0 1 67.663-94.753zm-69.784 118.753c0-2.686.087-5.352.242-8h31.906c-.091 2.657-.148 5.323-.148 8v104h-32zm0 120h32v80h-32zm240 80v-80h32v80z" fill="#ffb431"/><path d="m88 440h336v48h-336z" fill="#d65246"/></g></svg>