<svg height="512" viewBox="0 0 512 512" width="512" xmlns="http://www.w3.org/2000/svg"><path d="m24.004 24h464v104h-464z" fill="#f9adb1"/><path d="m452 88a36 36 0 0 0 -36 36v4a40 40 0 0 0 -80 0l-73.27 7.327 1.27-3.127-80.7-27.24a39.812 39.812 0 0 0 -7.3 23.04 40 40 0 0 0 -80 0v-4a36 36 0 0 0 -72 0 357.394 357.394 0 0 0 10.672 86.686l21.328 85.314 33.957-108.663a132.762 132.762 0 0 0 6.043-39.596v4.144a38.906 38.906 0 0 0 11.4 27.515l27.22 27.22a1.959 1.959 0 0 0 2.77 0l27.22-27.22a38.906 38.906 0 0 0 11.4-27.51 38.906 38.906 0 0 0 11.39 27.5l27.22 27.22a1.962 1.962 0 0 0 2.78 0l27.22-27.22a38.906 38.906 0 0 0 11.38-27.5 38.906 38.906 0 0 0 11.39 27.5l27.22 27.22a1.962 1.962 0 0 0 2.78 0l27.22-27.22a38.906 38.906 0 0 0 11.39-27.5 38.906 38.906 0 0 0 11.4 27.51l27.22 27.22a1.959 1.959 0 0 0 2.77 0l27.22-27.22a38.906 38.906 0 0 0 11.39-27.515v-4.144a132.762 132.762 0 0 0 6.043 39.6l33.957 108.659 21.328-85.314a357.394 357.394 0 0 0 10.672-86.686 36 36 0 0 0 -36-36z" fill="#e4e4e2"/><path d="m325.826 72a7.956 7.956 0 0 1 -4.16-1.173 46.613 46.613 0 0 0 -24.293-6.827h-2.745a46.32 46.32 0 0 0 -19.315 4.188 8 8 0 0 1 -6.626-14.563 62.215 62.215 0 0 1 25.941-5.625h2.745a62.61 62.61 0 0 1 32.627 9.172 8 8 0 0 1 -4.174 14.828z" fill="#eea5a9"/><path d="m368 224h16v16h-16z" fill="#c0f5f9"/><path d="m368 256h16v32h-16z" fill="#c0f5f9"/><path d="m256 128v8l-17.23 5.44a32.787 32.787 0 0 1 -32-6.72c-.38-.35-.76-.71-1.13-1.08l-16.64-16.64a19.806 19.806 0 0 1 -5.7-12.043 40 40 0 0 1 72.7 23.043z" fill="#fbb540"/><circle cx="224" cy="120" fill="#da922a" r="8"/><path d="m336 128h-14.2a18.3 18.3 0 0 0 -15.23 8.15 23.464 23.464 0 0 1 -28.25 8.78l-22.32-8.93v-8a40.012 40.012 0 0 1 34.91-39.68c.33-.04.67-.08 1-.11s.68-.07 1.01-.09c.63-.05 1.25-.08 1.87-.1.41-.01.81-.02 1.21-.02a40.8 40.8 0 0 1 6.09.46c.66.1 1.32.22 1.97.35a41.692 41.692 0 0 1 5.69 1.62c.61.22 1.22.46 1.81.71a40.077 40.077 0 0 1 24.44 36.86z" fill="#fbb540"/><circle cx="288" cy="120" fill="#da922a" r="8"/><path d="m344 320a8 8 0 0 1 -8-8v-152a8 8 0 0 1 3.922-6.883l19.838-11.756a4 4 0 0 0 -3.76-5.361h-44a8 8 0 0 1 0-16h44a20 20 0 0 1 16 32 8.017 8.017 0 0 1 -2.321 2.081l-17.679 10.478v147.441a8 8 0 0 1 -8 8z" fill="#6cbae5"/><path d="m344 312a24 24 0 0 1 24 24v152a0 0 0 0 1 0 0h-48a0 0 0 0 1 0 0v-152a24 24 0 0 1 24-24z" fill="#428dc5"/><g fill="#3775a4"><path d="m344 384h24v16h-24z"/><path d="m344 416h24v16h-24z"/><path d="m344 448h24v16h-24z"/></g><path d="m320 360h48v-24a24 24 0 0 0 -24-24 24 24 0 0 0 -24 24z" fill="#4799cf"/></svg>