<svg height="512" viewBox="0 0 512 512" width="512" xmlns="http://www.w3.org/2000/svg"><g id="Flat"><path d="m24 120h256v328h-256z" fill="#ffb431"/><ellipse cx="152" cy="120" fill="#dfdfdd" rx="128" ry="96"/><path d="m152 192c-36.969 0-70.314-12.993-89.2-34.756l12.084-10.487c15.653 18.043 45.202 29.243 77.116 29.243 24.081 0 46.612-6.18 63.444-17.4 15.835-10.558 24.556-24.266 24.556-38.6s-8.721-28.042-24.556-38.6c-16.832-11.22-39.363-17.4-63.444-17.4-19.061 0-37.229 3.881-52.541 11.225l-6.918-14.425c17.459-8.375 38.018-12.8 59.459-12.8 27.2 0 52.889 7.134 72.32 20.089 20.429 13.619 31.68 32.055 31.68 51.911s-11.251 38.292-31.68 51.911c-19.431 12.955-45.12 20.089-72.32 20.089z" fill="#d5d5d3"/><path d="m112 80a76.162 76.162 0 0 0 -33.889 8l-10.534 5.267a20.945 20.945 0 0 0 0 37.466l10.534 5.267a76.162 76.162 0 0 0 33.889 8 32 32 0 0 0 0-64zm-37.267 36.422a4.944 4.944 0 0 1 0-8.844l10.535-5.267c.9-.449 1.812-.865 2.732-1.268v21.914c-.92-.4-1.834-.819-2.732-1.268zm37.267 11.578a59.514 59.514 0 0 1 -8-.565v-30.87a59.514 59.514 0 0 1 8-.565 16 16 0 0 1 0 32z" fill="#f1f1f1"/><path d="m88 304v80l24-24 24 24v-80z" fill="#2d7dbe"/><path d="m149.142 272.615c6.6-13.877-7.88-28.354-21.757-21.757-5.148-14.477-25.622-14.477-30.77 0-13.877-6.6-28.354 7.88-21.757 21.757-14.477 5.148-14.477 25.622 0 30.77-6.6 13.877 7.88 28.354 21.757 21.757 5.148 14.477 25.622 14.477 30.77 0 13.877 6.6 28.354-7.88 21.757-21.757 14.477-5.148 14.477-25.622 0-30.77z" fill="#348ed8"/><path d="m48 408h232v16h-232z" fill="#ffc261"/><rect fill="#dfdfdd" height="264" rx="48" width="288" x="200" y="224"/><path d="m488 272v126.46a25.54 25.54 0 0 1 -47.44 13.14l-8.33-13.88a28.259 28.259 0 0 0 -24.23-13.72h-160a48 48 0 0 1 -48-48v-64a48 48 0 0 1 48-48h192a48 48 0 0 1 48 48z" fill="#d26699"/><path d="m488 344v35.74a47.629 47.629 0 0 1 -22.41 11.3l-3.18-15.68a32.079 32.079 0 0 0 25.59-31.36z" fill="#c6568b"/><path d="m440 360h-192a24.027 24.027 0 0 1 -24-24v-8h16v8a8.009 8.009 0 0 0 8 8h192a8.009 8.009 0 0 0 8-8v-64a8.009 8.009 0 0 0 -8-8h-112v-16h112a24.027 24.027 0 0 1 24 24v64a24.027 24.027 0 0 1 -24 24z" fill="#df80b2"/><ellipse cx="269.27" cy="283.934" fill="#8851a0" rx="40" ry="24" transform="matrix(.891 -.455 .455 .891 -99.655 153.476)"/><path d="m224 408h16v40h-16z" fill="#eaeae8"/></g></svg>