<svg height="480pt" viewBox="0 0 480 479" width="480pt" xmlns="http://www.w3.org/2000/svg"><path d="m208 392.496094v64l-40 24h56v-88zm0 0" fill="#ffe352"/><path d="m296 392.496094v64l-40 24h56v-88zm0 0" fill="#ffe352"/><path d="m400 232.496094h25.375c4.242188 0 8.3125-1.6875 11.3125-4.6875l16-16c10.082031-10.078125 27.3125-2.945313 27.3125 11.3125v17.375c0 88.367187-71.632812 160-160 160h-88c-88.367188 0-160-71.632813-160-160v-157.253906c0-42.609376 32.152344-79.816407 74.671875-82.570313 46.601563-3.015625 85.328125 33.878906 85.328125 79.824219v48zm0 0" fill="#80d6fb"/><path d="m232 128.496094 248 152-128.480469 25.695312c-20.222656 4.050782-41.238281.121094-58.640625-10.949218l-23.832031-15.167969c-23.070313-14.679688-37.046875-40.136719-37.046875-67.488281zm0 0" fill="#6e83b7"/><path d="m0 120.496094 72 32v-64zm0 0" fill="#ffe352"/></svg>