<svg height="512" viewBox="0 0 512 512" width="512" xmlns="http://www.w3.org/2000/svg"><path d="m112 408v48c0 17.67 64.47 32 144 32s144-14.33 144-32v-48zm80 28.67q7.74.855 16 1.51z" fill="#cbcbcb"/><path d="m192 293.49v-8.49h16v9.61q-8.13-.48-16-1.12zm-136-45.49 2.83 8.1 53.17 151.9c0 12.56 32.58 23.43 80 28.67q7.74.855 16 1.51c15.01 1.18 31.17 1.82 48 1.82 79.53 0 144-14.33 144-32l53.17-151.9 2.83-8.1z" fill="#eaeae8"/><path d="m456 248a13.956 13.956 0 0 1 -2.83 8.1c-10.91 15.42-52.5 28.34-109.17 35.02a762.3 762.3 0 0 1 -88 4.88c-16.55 0-32.63-.48-48-1.39l-16-1.12q-12.39-1-24-2.38c-56.67-6.67-98.25-19.58-109.17-35.01a13.956 13.956 0 0 1 -2.83-8.1c0-26.51 89.54-48 200-48s200 21.49 200 48z" fill="#a8a8a8"/><rect fill="#fbd699" height="224" rx="52" width="240" x="136" y="56"/><g fill="#dbdbdb"><path d="m208 294.61v143.57q-8.25-.645-16-1.51v-143.18q7.86.63 16 1.12z"/><path d="m162.621 304h16v16h-16z"/><path d="m162.621 336h16v16h-16z"/><path d="m162.621 368h16v16h-16z"/><path d="m162.621 400h16v16h-16z"/></g><circle cx="192" cy="168" fill="#744630" r="16"/><circle cx="320" cy="168" fill="#744630" r="16"/><path d="m187.5 87.529-45.321 84.971a8 8 0 0 1 -13.612.823l-34.782-49.693a32 32 0 0 1 1.227-38.341l7.424-9.279a32 32 0 0 1 24.988-12.01h45.953a16 16 0 0 1 14.123 23.529z" fill="#744630"/><path d="m324.505 87.529 45.316 84.971a8 8 0 0 0 13.612.823l34.782-49.689a32 32 0 0 0 -1.227-38.341l-7.424-9.279a32 32 0 0 0 -24.988-12.014h-45.953a16 16 0 0 0 -14.118 23.529z" fill="#744630"/><path d="m240 152h-16a24.027 24.027 0 0 0 -24-24v-16a40.045 40.045 0 0 1 40 40z" fill="#e2c18a"/><path d="m288 152h-16a40.045 40.045 0 0 1 40-40v16a24.027 24.027 0 0 0 -24 24z" fill="#e2c18a"/><path d="m274 56h-16-4-16l-20.4 27.2 12.8 9.6 25.6-34.13 25.6 34.13 12.8-9.6z" fill="#e2c18a"/><path d="m240 352h16v56h-16z" fill="#f9f9f9"/><path d="m240 320h16v16h-16z" fill="#f9f9f9"/><path d="m432.411 50.529a27.065 27.065 0 0 0 -25.711-18.529h-6.7v-16h6.7a43.042 43.042 0 0 1 40.887 29.471z" fill="#c0f5f9"/><path d="m368 16h16v16h-16z" fill="#c0f5f9"/><path d="m79.589 50.529-15.178-5.058a43.042 43.042 0 0 1 40.889-29.471h6.7v16h-6.7a27.065 27.065 0 0 0 -25.711 18.529z" fill="#c0f5f9"/><path d="m128 16h16v16h-16z" fill="#c0f5f9"/><path d="m336 264 8 27.12a762.3 762.3 0 0 1 -88 4.88c-16.55 0-32.63-.48-48-1.39l-16-1.12q-12.39-1-24-2.38l8-27.11z" fill="#fbd699"/><path d="m287.79 296h-63.58a48.21 48.21 0 0 1 -48.21-48.21 48.211 48.211 0 0 1 29.219-44.313l26.781-11.477h48l26.781 11.477a48.211 48.211 0 0 1 29.219 44.313 48.21 48.21 0 0 1 -48.21 48.21z" fill="#8f563b"/><path d="m224.21 296-.106-20.171a31.9 31.9 0 0 1 17.632-28.7 31.893 31.893 0 0 1 28.528 0 31.9 31.9 0 0 1 17.632 28.7l-.106 20.171z" fill="#744630"/><rect fill="#744630" height="40" rx="20" width="48" x="232" y="176"/></svg>