<svg id="Capa_1" enable-background="new 0 0 512 512" height="512" viewBox="0 0 512 512" width="512" xmlns="http://www.w3.org/2000/svg"><g><g><g><path d="m341.252 377.842h-297.731v-231.158c0-81.011 65.673-146.684 146.685-146.684h4.362c81.012 0 146.684 65.673 146.684 146.684z" fill="#695d69"/><path d="m192.387 0c-5.139 0-10.218.26-15.223.769 75.065 7.624 133.642 71.02 133.642 148.096v228.977h30.446v-228.977c0-82.216-66.649-148.865-148.865-148.865z" fill="#564e57"/><path d="m380.967 504.896-4.777-81.223c0-26.146-10.158-37.492-34.939-45.831l-92.546-38.825c-8.26-2.779-21.93-15.922-21.93-24.638l5.806-34.798-78.157 1.407-1.745 33.177c0 8.715-8.649 17.204-16.909 19.983l-3.054-.511-50.895 17.125-10.689 9.492-7.882-3.243-17.973 6.047c-24.781 8.338-41.473 31.566-41.473 57.712v84.124c0 3.923 3.181 7.104 7.104 7.104h362.953c3.926.002 7.106-3.179 7.106-7.102z" fill="#e5edfc"/><path d="m339.494 363.059-85.92-28.91-7.126.878c-8.26-2.779-19.673-11.932-19.673-20.647l5.806-34.798-25.48 1.536v48.275c0 8.715 5.564 16.458 13.824 19.238l38.301 12.888c3.402 1.145 5.377 4.64 4.691 8.163-1.673 8.585-2.553 17.449-2.553 26.516 0 48.347 24.881 90.984 62.505 115.803h49.992c3.923 0 7.104-3.181 7.104-7.104v-84.124c.002-26.148-16.69-49.376-41.471-57.714z" fill="#d1d9fc"/><path d="m132.718 333.638 57.813 57.813c1.585 1.585 4.156 1.585 5.741 0l57.302-57.302-7.125.878c-8.26-2.779-16.111-12.146-16.111-20.862l1.676-31.179-84.789-1.868v33.052c0 8.715-5.564 16.458-13.824 19.237z" fill="#f1b0a2"/><path d="m220.926 348.631 13.592 4.573 19.056-19.056-2.202-.741c-11.228-3.778-13.489-14.214-13.76-17.616-.043-.536-.064-1.077-.064-1.622v-33.052h-30.446v48.275c0 8.717 5.564 16.459 13.824 19.239z" fill="#eb9c8d"/><path d="m43.831 455.387 6.602 30.266c1.416 6.493 7.184 10.936 13.574 10.936.978 0 1.971-.104 2.964-.321l8.334-1.818c4.107-.895 6.711-4.951 5.815-9.058s-4.953-6.713-9.058-5.815l-7.038 1.535-6.32-28.97c-1.177-5.395-.182-10.925 2.8-15.572s7.596-7.854 12.991-9.031c11.139-2.43 22.173 4.655 24.603 15.791l6.319 28.969-7.038 1.536c-4.107.896-6.71 4.952-5.814 9.059.895 4.107 4.954 6.711 9.059 5.814l8.333-1.818c3.627-.791 6.729-2.947 8.734-6.071s2.674-6.841 1.883-10.468l-6.602-30.265c-3.834-17.571-20.011-29.331-37.437-28.167-1.837-7.183-2.817-14.529-2.899-21.918-.151-13.498 2.607-26.692 8.194-39.217.004-.009.006-.018.01-.027l-18.588 6.255c-3.334 10.757-4.964 21.861-4.838 33.159.098 8.754 1.28 17.45 3.489 25.944-5.32 2.85-9.859 7.015-13.209 12.233-5.18 8.069-6.907 17.671-4.863 27.039z" fill="#564e57"/><path d="m312.029 193.129h-15.852v-59.314h15.852c16.139 0 29.223 13.083 29.223 29.223v.869c0 16.138-13.084 29.222-29.223 29.222z" fill="#f1b0a2"/><path d="m72.744 193.129h15.852v-59.314h-15.852c-16.139 0-29.223 13.083-29.223 29.223v.869c0 16.138 13.084 29.222 29.223 29.222z" fill="#eb9c8d"/><g><path d="m195.502 306.04c-15.743-.054-34.229-.857-47.825-6.745-40.788-17.665-69.23-58.714-69.23-105.943v-55.491c0-2.227 1.789-4.03 4.016-4.058 22.625-.283 54.997-3.659 90.576-17.989 17.606-7.091 32.393-15.413 44.385-23.369 2.592-1.72 6.06-1.113 7.966 1.345 6.031 7.777 16.161 18.544 31.523 27.069 18.156 10.075 35.286 12.396 45.549 12.861 2.167.098 1.182 4.012 1.182 6.181l2.681 53.228v1.46c0 46.882-28.315 87.151-68.777 104.638-13.962 6.035-25.854 6.869-42.046 6.813z" fill="#f1b0a2"/></g><path d="m275.88 194.589c.184 7.912.217 45.361-28.451 75.322-39.491 41.272-96.706 29.938-100.204 29.183 8.545 3.699 21.013 7.912 36.534 9.107 0 0 4.182.313 8.225.327 63.112.218 114.342-50.878 114.342-113.939v-56.816c0-2.169-1.696-3.955-3.863-4.053-6.414-.291-15.511-1.306-25.865-4.487z" fill="#eb9c8d"/><g><path d="m192.399 275.325c-.329 0-.659-.003-.992-.011-10.104-.217-17.926-3.743-22.709-6.663-3.588-2.191-4.721-6.875-2.53-10.463s6.874-4.722 10.463-2.53c3.185 1.944 8.39 4.292 15.104 4.437 7.666.158 13.575-2.71 16.408-4.438 3.59-2.19 8.274-1.055 10.462 2.533 2.189 3.588 1.055 8.273-2.533 10.462-5.037 3.073-13.179 6.673-23.673 6.673z" fill="#eb9c8d"/></g><g><g><path d="m123.08 167.475c-2.709 0-5.331-1.449-6.707-4.001-1.995-3.7-.612-8.317 3.089-10.312 4.566-2.461 11.969-5.323 21.279-4.957 6.27.242 12.521 1.958 18.077 4.962 3.698 1.999 5.075 6.617 3.076 10.315-1.999 3.697-6.617 5.076-10.315 3.076-2.454-1.327-6.429-2.948-11.428-3.142-5.886-.235-10.57 1.585-13.467 3.146-1.147.619-2.385.913-3.604.913z" fill="#564e57"/></g><g><path d="m229.581 167.475c-2.709 0-5.331-1.449-6.707-4.001-1.995-3.7-.612-8.317 3.089-10.312 4.566-2.461 11.969-5.323 21.279-4.957 6.27.242 12.521 1.958 18.077 4.962 3.698 1.999 5.075 6.617 3.076 10.315-1.999 3.697-6.617 5.076-10.315 3.076-2.454-1.327-6.429-2.948-11.428-3.142-5.886-.235-10.57 1.585-13.467 3.146-1.147.619-2.385.913-3.604.913z" fill="#564e57"/></g><g><path d="m245.637 200.106c-4.204 0-7.611-3.408-7.611-7.611v-14.69c0-4.204 3.408-7.611 7.611-7.611 4.204 0 7.611 3.408 7.611 7.611v14.69c.001 4.203-3.407 7.611-7.611 7.611z" fill="#564e57"/></g><g><path d="m139.136 200.106c-4.204 0-7.611-3.408-7.611-7.611v-14.69c0-4.204 3.408-7.611 7.611-7.611 4.204 0 7.611 3.408 7.611 7.611v14.69c0 4.203-3.408 7.611-7.611 7.611z" fill="#564e57"/></g></g></g><g><circle cx="400.003" cy="396.197" fill="#bef8a8" r="108.191"/><path d="m400.003 288.006c-5.168 0-10.248.371-15.223 1.071 52.543 7.4 92.968 52.535 92.968 107.12s-40.425 99.72-92.968 107.12c4.975.701 10.055 1.071 15.223 1.071 59.753 0 108.191-48.439 108.191-108.191s-48.439-108.191-108.191-108.191z" fill="#a0e38b"/><g fill="#695d69"><g><ellipse cx="333.088" cy="384.988" rx="12.615" ry="16.729"/><ellipse cx="466.918" cy="384.988" rx="12.615" ry="16.729"/></g><g><ellipse cx="373.092" cy="346.719" rx="14.745" ry="19.552"/><ellipse cx="426.914" cy="346.719" rx="14.745" ry="19.552"/></g><path d="m357.685 420.178c15.005-38.574 69.63-38.574 84.635 0 .099.254.196.509.291.766 4.058 10.918 8.245 25.679.287 35.862-7.891 10.098-19.974 10.2-29.853 5.111-8.146-4.196-17.939-4.196-26.086 0-9.879 5.089-21.962 4.987-29.853-5.111-7.958-10.183-3.771-24.944.287-35.862.097-.257.194-.512.292-.766z"/></g></g></g><g fill="#695d69"><circle cx="194.067" cy="429.5" r="7.5"/><circle cx="194.067" cy="474.5" r="7.5"/></g></g></svg>