<svg id="Capa_1" enable-background="new 0 0 512 512" height="512" viewBox="0 0 512 512" width="512" xmlns="http://www.w3.org/2000/svg"><g><g><g><path d="m419.674 512h-327.348c-16.569 0-30-13.431-30-30v-396.256c0-16.569 13.431-30 30-30h327.348c16.569 0 30 13.431 30 30v396.256c0 16.569-13.431 30-30 30z" fill="#ffc344"/><path d="m418.769 55.744h-30.905c17.069 0 30.905 13.837 30.905 30.905v394.445c0 17.069-13.837 30.905-30.905 30.905h30.905c17.069 0 30.905-13.837 30.905-30.905v-394.444c0-17.069-13.837-30.906-30.905-30.906z" fill="#feb237"/><path d="m103.533 465.642v-363.539c0-2.845 2.306-5.151 5.151-5.151h294.632c2.845 0 5.151 2.306 5.151 5.151v300.099l-68.591 68.591h-231.192c-2.845 0-5.151-2.306-5.151-5.151z" fill="#e5edfc"/><path d="m403.316 96.952h-30.906c2.845 0 5.151 2.306 5.151 5.151v315.552l30.905-15.453v-300.099c.001-2.845-2.305-5.151-5.15-5.151z" fill="#d1d9fc"/><path d="m289.797 45.139v-29.325c0-8.734-7.08-15.814-15.814-15.814h-35.967c-8.734 0-15.814 7.08-15.814 15.814v29.325c0 2.276-1.845 4.121-4.121 4.121h-33.036c-7.137 0-12.922 5.785-12.922 12.922v32.063c0 7.137 5.785 12.922 12.922 12.922h141.907c7.137 0 12.922-5.785 12.922-12.922v-32.063c0-7.137-5.785-12.922-12.922-12.922h-33.036c-2.274-.001-4.119-1.845-4.119-4.121z" fill="#695d69"/><g><path d="m326.954 49.259h-30.905c7.137 0 12.922 5.785 12.922 12.922v32.063c0 7.137-5.785 12.922-12.922 12.922h30.905c7.137 0 12.922-5.785 12.922-12.922v-32.062c0-7.137-5.786-12.923-12.922-12.923z" fill="#564e57"/></g><path d="m339.876 470.793v-58.289c0-5.69 4.612-10.302 10.302-10.302h58.289z" fill="#b6c9fd"/><g><path d="m364.188 333.291h-216.376c-4.268 0-7.726-3.459-7.726-7.726s3.459-7.726 7.726-7.726h216.376c4.268 0 7.726 3.459 7.726 7.726s-3.458 7.726-7.726 7.726z" fill="#695d69"/></g><g><path d="m364.188 379.649h-216.376c-4.268 0-7.726-3.459-7.726-7.726s3.459-7.726 7.726-7.726h216.376c4.268 0 7.726 3.459 7.726 7.726s-3.458 7.726-7.726 7.726z" fill="#695d69"/></g><g><path d="m293.517 426.008h-145.705c-4.268 0-7.726-3.459-7.726-7.726s3.459-7.726 7.726-7.726h145.705c4.268 0 7.726 3.459 7.726 7.726s-3.458 7.726-7.726 7.726z" fill="#695d69"/></g></g><g fill="#695d69"><g><ellipse cx="188.075" cy="207.211" rx="12.806" ry="16.982"/><ellipse cx="323.925" cy="207.211" rx="12.806" ry="16.982"/></g><g><ellipse cx="228.683" cy="168.365" rx="14.967" ry="19.848"/><ellipse cx="283.317" cy="168.365" rx="14.967" ry="19.848"/></g><path d="m213.044 242.933c15.231-39.156 70.681-39.156 85.912 0 .1.258.199.517.296.778 4.12 11.082 8.369 26.066.291 36.403-8.01 10.251-20.276 10.354-30.304 5.188-8.269-4.26-18.21-4.26-26.479 0-10.028 5.166-22.293 5.062-30.304-5.188-8.078-10.337-3.828-25.321.291-36.403.098-.261.197-.521.297-.778z"/></g></g><circle cx="256" cy="33.33" fill="#fff" r="7.5"/></g></svg>