<svg height="480pt" viewBox="0 -16 480 480" width="480pt" xmlns="http://www.w3.org/2000/svg"><path d="m472 296h-9.753906c-3.671875 0-6.871094 2.496094-7.757813 6.054688l-5.390625 21.585937c-5.355468 21.367187-24.546875 36.359375-46.578125 36.359375h-19.359375c-1.289062-8.207031-4.089844-16.136719-8.433594-23.289062l-150.726562-248.710938h-40v-88h-64c-15.503906 0-30.046875 7.488281-39.054688 20.105469l-25.648437 35.894531h-39.296875c-8.839844 0-16 7.160156-16 16v24c0 26.511719 21.488281 48 48 48h37.335938l26.664062 40v224h-16c-8.839844 0-16 7.160156-16 16v8c0 8.839844 7.160156 16 16 16h224c26.855469 0 49.808594-16.550781 59.304688-40h20.695312c44.183594 0 80-35.816406 80-80v-24c0-4.414062-3.585938-8-8-8zm0 0" fill="#edeff1"/><path d="m320 448h-128c-13.230469 0-24-10.769531-24-24s10.769531-24 24-24h26.648438l-15.113282-13.167969c-13.398437-13.375-20.40625-30.65625-20.136718-49.046875.273437-18.378906 7.808593-35.449218 21.210937-48.074218 26.222656-24.71875 69.125-23.269532 95.589844 3.191406l32.839843 32.839844-11.3125 11.3125-32.839843-32.839844c-20.421875-20.421875-53.300781-21.710938-73.3125-2.855469-10.222657 9.625-15.964844 22.648437-16.175781 36.664063-.207032 14.023437 5.136718 27.199218 15.050781 37.121093l30.808593 26.832031c2.511719 2.191407 3.40625 5.710938 2.230469 8.832032s-4.152343 5.191406-7.488281 5.191406h-48c-4.414062 0-8 3.585938-8 8s3.585938 8 8 8h128c4.414062 0 8-3.585938 8-8s-3.585938-8-8-8h-8v-16h8c13.230469 0 24 10.769531 24 24s-10.769531 24-24 24zm0 0" fill="#d3d3d3"/><path d="m180.328125 88c-10.191406 32.457031-40.503906 56-76.328125 56h-18.664062l10.664062 16h16c44.640625 0 82.144531-30.664062 92.839844-72zm0 0" fill="#6e83b7"/><path d="m196.488281 144h-28.488281c-18.367188 0-32.96875-15.433594-31.953125-33.777344l4.449219-80c.945312-16.957031 14.96875-30.222656 31.953125-30.222656h19.941406c17.042969 0 31.089844 13.34375 31.960937 30.359375l4.105469 80c.925781 18.296875-13.648437 33.640625-31.96875 33.640625zm0 0" fill="#d3d3d3"/><path d="m24 64v-8h-8c-8.839844 0-16 7.160156-16 16v8h8c8.839844 0 16-7.160156 16-16zm0 0" fill="#d3d3d3"/><path d="m336 288s96-70.878906 96-128c0-25.0625-22.9375-48-48-48-22.929688 0-43.273438 14.96875-48 28.359375-4.726562-13.390625-25.070312-28.359375-48-28.359375-25.0625 0-48 22.9375-48 48 0 57.121094 96 128 96 128zm0 0" fill="#ffb0aa"/><path d="m328 247.273438c-.128906 0-.257812 0-.382812-.007813-3.304688-.167969-6.167969-2.328125-7.203126-5.464844l-24.414062-73.234375-8.414062 25.234375c-1.089844 3.261719-4.144532 5.472657-7.585938 5.472657h-48v-16h42.230469l14.175781-42.53125c1.089844-3.261719 4.144531-5.46875 7.585938-5.46875 3.441406 0 6.503906 2.199218 7.582031 5.46875l25.488281 76.433593 23.617188-53.152343c1.257812-2.832032 4.039062-4.679688 7.136718-4.75 3.152344.015624 5.945313 1.65625 7.335938 4.421874l17.832031 35.671876 8.351563-12.527344c1.488281-2.222656 3.984374-3.558594 6.65625-3.558594h40v16h-35.71875l-13.625 20.4375c-1.585938 2.378906-4.199219 3.6875-7.160157 3.546875-2.839843-.175781-5.382812-1.859375-6.65625-4.410156l-16.425781-32.832031-25.109375 56.503906c-1.273437 2.898437-4.144531 4.746094-7.296875 4.746094zm0 0" fill="#6e83b7"/></svg>