<svg height="512" viewBox="0 0 512 512" width="512" xmlns="http://www.w3.org/2000/svg"><path d="m488 400v88h-336l-11.56-17.34a8 8 0 0 1 2.22-11.1l17.34-11.56v-32l-25.36-63.39-6.64-16.61-9-18-13.9-27.79a162.116 162.116 0 0 1 -17.1-72.45v-53.26l-39.48-11.28a25.982 25.982 0 0 1 -18.65-21.77l-1.99-15.92-3.88-31.03h56l10.35-20.7a72.01 72.01 0 0 1 69.92-39.59l30.49 2.35a52 52 0 0 1 39.28 23l33.96 50.94 21.69 35.45a350.958 350.958 0 0 0 86.58 95.88l52.1 39.69a161.541 161.541 0 0 1 63.63 128.48z" fill="#f3af3e"/><path d="m173.13 79.157-6.966 45.279a55.61 55.61 0 0 0 30.094 58.195 55.612 55.612 0 0 0 24.87 5.871h10.872v-107.056a20.944 20.944 0 0 0 -2.211-9.366 20.944 20.944 0 0 0 -18.733-11.58h-16.182a22 22 0 0 0 -21.744 18.657z" fill="#c38325"/><path d="m399.25 443.39a8.021 8.021 0 0 1 -7.25 4.61h-65.69a22.338 22.338 0 0 0 -22.31 22.31v17.69h-16v-17.69a38.346 38.346 0 0 1 38.31-38.31h48.64a140.835 140.835 0 0 1 -30.95-88 8 8 0 0 1 16 0 124.8 124.8 0 0 0 28.87 79.75l9.28 11.13a8.019 8.019 0 0 1 1.1 8.51z" fill="#c38325"/><path d="m448 224c0 2.69-.08 5.35-.25 8q-.255 4.035-.76 8a126.422 126.422 0 0 1 -12.04 40.33 128.211 128.211 0 0 1 -82.88 67.61.185.185 0 0 1 -.07.02 127.99 127.99 0 0 1 -158.99-107.96q-.51-3.96-.76-8c-.17-2.65-.25-5.31-.25-8a128.01 128.01 0 0 1 235.4-69.66q2.76 4.245 5.19 8.72a127.416 127.416 0 0 1 15.41 60.94z" fill="#c0f5f9"/><path d="m56 84.5v6.82a22.005 22.005 0 0 1 -16.66 21.35l-11.46 2.86-3.88-31.03z" fill="#c38325"/><circle cx="128" cy="76.502" fill="#c38325" r="16"/><path d="m296 392h48v96h-48z" fill="#428dc5"/><path d="m447.75 232q-.255 4.035-.76 8a126.422 126.422 0 0 1 -12.04 40.33 128.211 128.211 0 0 1 -82.88 67.61.185.185 0 0 1 -.07.02 127.99 127.99 0 0 1 -158.99-107.96q-.51-3.96-.76-8z" fill="#eeb58e"/><path d="m272 256h16v16h-16z" fill="#f55648"/><path d="m272 296h16v16h-16z" fill="#b94137"/><path d="m344 296h16v16h-16z" fill="#f55648"/><path d="m376 296h16v16h-16z" fill="#f55648"/><path d="m360 272h16v16h-16z" fill="#b94137"/><path d="m205.66 453.66-11.37 11.36 12.37 18.54a7.985 7.985 0 0 1 1.34 4.44h-17.62l-9.4-14.11a16.044 16.044 0 0 1 2-20.18l9.02-9.02v-41.1l-57.36-50.98-6.64-16.61-9-18a7.882 7.882 0 0 1 2.48 1.5l83.83 74.52a7.994 7.994 0 0 1 2.69 5.98v48a8.008 8.008 0 0 1 -2.34 5.66z" fill="#c38325"/><path d="m256 384v104h-16v-101.58l-14.66-21.98a8 8 0 1 1 13.32-8.88l16 24a8.066 8.066 0 0 1 1.34 4.44z" fill="#c38325"/><path d="m447.75 232q-.255 4.035-.76 8h-253.98l-.76-8z" fill="#bd9070"/><g fill="#744630"><path d="m359.352 136a258.4 258.4 0 0 0 -46.847 124.477l-.429 4.284a15.352 15.352 0 0 0 4.421 12.383 15.351 15.351 0 0 0 21.711 0l.648-.647a15.354 15.354 0 0 0 4.5-10.856v-33.831a258.394 258.394 0 0 1 7.715-62.67z"/><path d="m432.59 163.06-1.52 6.08a258.11 258.11 0 0 0 -7.72 62.67v33.83a15.4 15.4 0 0 1 -4.49 10.86l-.65.64a15.351 15.351 0 0 1 -26.13-12.38l.42-4.28a258.233 258.233 0 0 1 34.9-106.14q2.76 4.245 5.19 8.72z"/><path d="m263.352 136a258.4 258.4 0 0 0 -46.847 124.477l-.429 4.284a15.352 15.352 0 0 0 4.421 12.383 15.351 15.351 0 0 0 21.711 0l.648-.647a15.354 15.354 0 0 0 4.5-10.856v-33.831a258.394 258.394 0 0 1 7.715-62.67z"/></g><path d="m456 224c0-74.991-61.01-136-136-136s-136 61.009-136 136c0 63.971 44.4 117.758 104 132.188v35.812h64v-35.812c59.6-14.43 104-68.217 104-132.188zm-136 120a120 120 0 1 1 120-120 120.136 120.136 0 0 1 -120 120z" fill="#428dc5"/><path d="m296 392h48v16h-48z" fill="#3775a4"/></svg>