<svg height="512" viewBox="0 0 512 512" width="512" xmlns="http://www.w3.org/2000/svg"><path d="m248 248h16v40h-16z" fill="#cbcbcb"/><path d="m24 152h464v96h-464z" fill="#b94137"/><path d="m80 216h24v16h-24z" fill="#91332b"/><path d="m48 216h16v16h-16z" fill="#91332b"/><path d="m128 152h344a0 0 0 0 1 0 0v96a0 0 0 0 1 0 0h-344a48 48 0 0 1 -48-48 48 48 0 0 1 48-48z" fill="#a83b32"/><path d="m92.232 232h11.768v-16h-21.258a47.967 47.967 0 0 0 9.49 16z" fill="#722822"/><path d="m144 152h344a0 0 0 0 1 0 0v96a0 0 0 0 1 0 0h-344a48 48 0 0 1 -48-48 48 48 0 0 1 48-48z" fill="#dc4d41"/><g fill="#b64036"><path d="m336 192h16v16h-16z"/><path d="m368 192h16v16h-16z"/><path d="m400 192h16v16h-16z"/></g><path d="m200 144v112h112v-112zm80 80h-48v-48h48z" fill="#e4e4e2"/><path d="m312 320a56 56 0 1 1 -56-56 56.008 56.008 0 0 1 56 56z" fill="#f3af3e"/><path d="m299.642 405.527-7.284-14.246a80.611 80.611 0 0 0 29.101-25.281l13.082 9.213a96.691 96.691 0 0 1 -34.899 30.314z" fill="#fbedbf"/><path d="m348.386 346.178-15.4-4.356a80.128 80.128 0 0 0 3.014-21.822h16a96.174 96.174 0 0 1 -3.614 26.178z" fill="#fbedbf"/><path d="m267.314 308.686a16 16 0 1 0 -19.314 25.153v41.591a56.425 56.425 0 0 0 16 0v-41.591a15.948 15.948 0 0 0 3.314-25.153z" fill="#d18d28"/><path d="m168 216h32v16h-32z" fill="#f55648"/><path d="m136 216h16v16h-16z" fill="#f55648"/><path d="m280 176h8v48h-8z" fill="#cbcbcb"/><path d="m192 152h8v96h-8z" fill="#cd483d"/><path d="m192 216h8v16h-8z" fill="#da4c41"/></svg>