<svg height="512" viewBox="0 0 512 512" width="512" xmlns="http://www.w3.org/2000/svg"><g id="Flat"><path d="m192 120a32.036 32.036 0 0 1 -32-32 8 8 0 0 1 16 0 16.019 16.019 0 0 0 16 16 8 8 0 0 1 0 16z" fill="#ffb431"/><path d="m344 296a8 8 0 0 1 -8-8 16.019 16.019 0 0 0 -16-16 8 8 0 0 1 0-16 32.036 32.036 0 0 1 32 32 8 8 0 0 1 -8 8z" fill="#ffb431"/><path d="m488 392a64 64 0 0 0 -64-64h-336a64 64 0 0 0 -64 64v32a64 64 0 0 0 64 64h336a64 64 0 0 0 64-64z" fill="#d65246"/><rect fill="#348ed8" height="128" rx="64" width="464" x="24" y="328"/><path d="m192 56h128v344h-128z" fill="#d65246"/><path d="m192 56h128v56h-128z" fill="#d65246"/><rect fill="#348ed8" height="64" rx="32" width="128" x="192" y="24"/><path d="m192 360h128v16h-128z" fill="#b23b30"/><g fill="#ffb431"><path d="m191.991 136a8 8 0 0 1 -1.466-15.864l128-24a8 8 0 0 1 2.95 15.726l-128 24a8.007 8.007 0 0 1 -1.484.138z"/><path d="m191.991 168a8 8 0 0 1 -1.466-15.864l128-24a8 8 0 0 1 2.95 15.726l-128 24a8.007 8.007 0 0 1 -1.484.138z"/><path d="m191.991 200a8 8 0 0 1 -1.466-15.864l128-24a8 8 0 0 1 2.95 15.726l-128 24a8.007 8.007 0 0 1 -1.484.138z"/><path d="m191.991 232a8 8 0 0 1 -1.466-15.864l128-24a8 8 0 0 1 2.95 15.726l-128 24a8.007 8.007 0 0 1 -1.484.138z"/><path d="m191.991 264a8 8 0 0 1 -1.466-15.864l128-24a8 8 0 0 1 2.95 15.726l-128 24a8.007 8.007 0 0 1 -1.484.138z"/><path d="m191.991 296a8 8 0 0 1 -1.466-15.864l128-24a8 8 0 0 1 2.95 15.726l-128 24a8.007 8.007 0 0 1 -1.484.138z"/><path d="m191.991 328a8 8 0 0 1 -1.466-15.864l128-24a8 8 0 0 1 2.95 15.726l-128 24a8.007 8.007 0 0 1 -1.484.138z"/><path d="m191.991 360a8 8 0 0 1 -1.466-15.864l128-24a8 8 0 0 1 2.95 15.726l-128 24a8.007 8.007 0 0 1 -1.484.138z"/></g></g></svg>