<svg id="Capa_1" enable-background="new 0 0 512 512" height="512" viewBox="0 0 512 512" width="512" xmlns="http://www.w3.org/2000/svg"><g><path d="m35.454 476.546c-47.272-47.272-47.272-123.914 0-171.186l269.907-269.906c47.272-47.272 123.914-47.272 171.186 0 47.272 47.272 47.272 123.914 0 171.186l-269.908 269.906c-47.271 47.272-123.914 47.272-171.185 0z" fill="#ecbba3"/><path d="m476.546 35.454c-27.575-27.575-65.142-39.057-101.046-34.462 25.646 3.282 50.443 14.765 70.14 34.461 47.272 47.272 47.272 123.914 0 171.186l-269.906 269.907c-19.697 19.697-44.494 31.179-70.14 34.461 35.903 4.595 73.471-6.887 101.045-34.461l269.907-269.907c47.272-47.271 47.272-123.914 0-171.185z" fill="#e8ad8c"/><path d="m249.906 362.279-100.185-100.185c-4.902-4.902-4.902-12.849 0-17.75l94.623-94.623c4.902-4.902 12.849-4.902 17.75 0l100.185 100.185c4.902 4.902 4.902 12.849 0 17.75l-94.623 94.623c-4.902 4.902-12.849 4.902-17.75 0z" fill="#c86d36"/><path d="m362.279 249.906-100.185-100.185c-4.902-4.902-12.849-4.902-17.75 0l-6.577 6.578 93.607 93.607c4.902 4.902 4.902 12.849 0 17.75l-88.046 88.046 6.577 6.578c4.902 4.902 12.849 4.902 17.75 0l94.623-94.623c4.903-4.903 4.903-12.85.001-17.751z" fill="#ac5e2e"/><g><g><g><path d="m389.069 50.781c-1.977 0-3.955-.755-5.464-2.263-3.017-3.017-3.017-7.909 0-10.927l7.601-7.601c3.018-3.017 7.909-3.017 10.928 0 3.017 3.017 3.017 7.909 0 10.927l-7.601 7.601c-1.509 1.508-3.487 2.263-5.464 2.263z" fill="#eb956d"/></g><g><path d="m429.008 90.719c-1.977 0-3.955-.755-5.464-2.263-3.017-3.017-3.017-7.909 0-10.927l7.601-7.601c3.018-3.017 7.909-3.017 10.928 0 3.017 3.017 3.017 7.909 0 10.927l-7.601 7.601c-1.509 1.508-3.487 2.263-5.464 2.263z" fill="#eb956d"/></g><g><path d="m468.946 130.657c-1.977 0-3.955-.754-5.463-2.263-3.018-3.018-3.018-7.909-.001-10.927l7.601-7.601c3.018-3.017 7.91-3.018 10.927-.001 3.018 3.018 3.018 7.909.001 10.927l-7.601 7.601c-1.51 1.509-3.487 2.264-5.464 2.264z" fill="#eb956d"/></g></g><g><g><path d="m309.194 130.657c-1.977 0-3.955-.754-5.463-2.263-3.018-3.018-3.018-7.909-.001-10.927l7.601-7.601c3.018-3.017 7.91-3.018 10.927-.001 3.018 3.018 3.018 7.909.001 10.927l-7.601 7.601c-1.509 1.509-3.487 2.264-5.464 2.264z" fill="#eb956d"/></g><g><path d="m349.132 170.595c-1.977 0-3.955-.755-5.464-2.263-3.017-3.017-3.017-7.909 0-10.927l7.601-7.601c3.018-3.017 7.909-3.017 10.928 0 3.017 3.017 3.017 7.909 0 10.927l-7.601 7.601c-1.509 1.508-3.487 2.263-5.464 2.263z" fill="#eb956d"/></g><g><path d="m389.069 210.533c-1.977 0-3.955-.755-5.464-2.263-3.017-3.017-3.017-7.909 0-10.927l7.601-7.601c3.018-3.017 7.909-3.017 10.928 0 3.017 3.017 3.017 7.909 0 10.927l-7.601 7.601c-1.509 1.508-3.487 2.263-5.464 2.263z" fill="#eb956d"/></g></g><g><g><path d="m369.101 110.688c-1.977 0-3.955-.755-5.464-2.263-3.017-3.017-3.017-7.909 0-10.927l7.601-7.601c3.018-3.017 7.909-3.017 10.928 0 3.017 3.017 3.017 7.909 0 10.927l-7.601 7.601c-1.51 1.508-3.488 2.263-5.464 2.263z" fill="#eb956d"/></g><g><path d="m409.038 150.626c-1.977 0-3.955-.755-5.464-2.263-3.017-3.017-3.017-7.909 0-10.927l7.601-7.601c3.018-3.017 7.909-3.017 10.928 0 3.017 3.017 3.017 7.909 0 10.927l-7.601 7.601c-1.509 1.508-3.487 2.263-5.464 2.263z" fill="#eb956d"/></g></g></g><g><g><g><path d="m115.33 324.521c-1.977 0-3.955-.755-5.464-2.263-3.017-3.017-3.017-7.909 0-10.927l7.601-7.601c3.018-3.017 7.909-3.017 10.928 0 3.017 3.017 3.017 7.909 0 10.927l-7.601 7.601c-1.509 1.508-3.487 2.263-5.464 2.263z" fill="#eb956d"/></g><g><path d="m155.268 364.459c-1.977 0-3.955-.755-5.464-2.263-3.017-3.017-3.017-7.909 0-10.927l7.601-7.601c3.018-3.017 7.909-3.017 10.928 0 3.017 3.017 3.017 7.909 0 10.927l-7.601 7.601c-1.51 1.508-3.488 2.263-5.464 2.263z" fill="#eb956d"/></g><g><path d="m195.205 404.397c-1.977 0-3.955-.754-5.463-2.263-3.018-3.018-3.018-7.909-.001-10.927l7.601-7.601c3.018-3.017 7.91-3.018 10.927-.001 3.018 3.018 3.018 7.909.001 10.927l-7.601 7.601c-1.509 1.509-3.487 2.264-5.464 2.264z" fill="#eb956d"/></g></g><g><g><path d="m35.454 404.397c-1.977 0-3.955-.754-5.463-2.263-3.018-3.018-3.018-7.909-.001-10.927l7.601-7.601c3.018-3.017 7.91-3.018 10.927-.001 3.018 3.018 3.018 7.909.001 10.927l-7.601 7.601c-1.51 1.509-3.487 2.264-5.464 2.264z" fill="#eb956d"/></g><g><path d="m75.391 444.335c-1.977 0-3.955-.755-5.464-2.263-3.017-3.017-3.017-7.909 0-10.927l7.601-7.601c3.018-3.017 7.909-3.017 10.928 0 3.017 3.017 3.017 7.909 0 10.927l-7.601 7.601c-1.509 1.508-3.487 2.263-5.464 2.263z" fill="#eb956d"/></g><g><path d="m115.33 484.273c-1.977 0-3.955-.755-5.464-2.263-3.017-3.017-3.017-7.909 0-10.927l7.601-7.601c3.018-3.017 7.909-3.017 10.928 0 3.017 3.017 3.017 7.909 0 10.927l-7.601 7.601c-1.509 1.508-3.487 2.263-5.464 2.263z" fill="#eb956d"/></g></g><g><g><path d="m95.361 384.428c-1.977 0-3.955-.755-5.464-2.263-3.017-3.017-3.017-7.909 0-10.927l7.601-7.601c3.018-3.017 7.909-3.017 10.928 0 3.017 3.017 3.017 7.909 0 10.927l-7.601 7.601c-1.509 1.508-3.487 2.263-5.464 2.263z" fill="#eb956d"/></g><g><path d="m135.299 424.366c-1.977 0-3.955-.755-5.464-2.263-3.017-3.017-3.017-7.909 0-10.927l7.601-7.601c3.018-3.017 7.909-3.017 10.928 0 3.017 3.017 3.017 7.909 0 10.927l-7.601 7.601c-1.509 1.508-3.487 2.263-5.464 2.263z" fill="#eb956d"/></g></g></g></g></svg>