<svg height="484pt" viewBox="0 -2 484.1399 484" width="484pt" xmlns="http://www.w3.org/2000/svg"><path d="m370.074219 376.070312s-45.867188 40-128 40c-82.136719 0-128-40-128-40v48s45.863281 32 128 32c82.132812 0 128-32 128-32zm0 0" fill="#6e83b7"/><path d="m242.074219 432.070312c165.335937 0 227.511719-116.640624 200-192-30-82.167968-24-112-24-112l13.75-110.015624c1.191406-9.554688-6.257813-17.9843755-15.878907-17.9843755h-7.738281c-3.949219 0-7.765625 1.4648435-10.703125 4.1054685l-66.917968 60.230469c-4.945313 4.457031-12.152344 5.34375-18.058594 2.273438-36.574219-19.035157-70.453125-18.609376-70.453125-18.609376s-33.882813-.425781-70.457031 18.609376c-5.90625 3.070312-13.105469 2.183593-18.058594-2.273438l-66.925782-60.230469c-2.9375-2.640625-6.746093-4.1054685-10.695312-4.1054685h-7.738281c-9.621094 0-17.070313 8.4296875-15.878907 17.9843755l13.753907 110.015624s6 29.832032-24 112c-27.515625 75.359376 34.664062 192 200 192zm0 0" fill="#ffe352"/><path d="m242.074219 240.070312c-89.875 0-165.296875 35.464844-186.21875 104.953126 29.089843 47.71875 90.234375 87.046874 186.21875 87.046874 95.980469 0 157.125-39.328124 186.214843-87.046874-20.921874-69.488282-96.34375-104.953126-186.214843-104.953126zm0 0" fill="#edeff1"/><path d="m416.359375 27.207031-14.285156 92.863281s-5.464844-13.609374-24-24c-16.507813-9.25-32-8-32-8l53.09375-68.265624c1.832031-2.359376 4.648437-3.734376 7.632812-3.734376 5.925781 0 10.457031 5.28125 9.558594 11.136719zm0 0" fill="#ffb236"/><path d="m67.785156 27.207031 14.289063 92.863281s5.460937-13.609374 24-24c16.503906-9.25 32-8 32-8l-53.097657-68.265624c-1.832031-2.359376-4.648437-3.734376-7.632812-3.734376-5.925781 0-10.457031 5.28125-9.558594 11.136719zm0 0" fill="#ffb236"/><path d="m298.074219 336.070312c0 13.230469-10.769531 24-24 24-13.234375 0-24-10.769531-24-24v-96h-16v96c0 13.230469-10.769531 24-24 24-13.234375 0-24-10.769531-24-24h-16c0 22.054688 17.941406 40 40 40 13.125 0 24.703125-6.449218 32-16.25 7.292969 9.800782 18.871093 16.25 32 16.25 22.054687 0 40-17.945312 40-40zm0 0" fill="#d3d3d3"/><path d="m242.074219 216.070312h-17.203125c-8.175782 0-14.796875 6.625-14.796875 14.800782v.054687c0 5.609375 3.167969 10.726563 8.183593 13.238281l4.4375 2.226563c2.21875 1.101563 4.671876 1.679687 7.152344 1.679687h24.449219c2.480469 0 4.933594-.578124 7.152344-1.6875l4.4375-2.226562c5.019531-2.503906 8.1875-7.628906 8.1875-13.230469v-.054687c0-8.175782-6.625-14.800782-14.800781-14.800782zm0 0" fill="#ffb236"/><g fill="#d3d3d3"><path d="m480.015625 256.335938 4.125 15.457031-119.996094 32.019531-4.125-15.460938zm0 0"/><path d="m364.105469 352.339844 119.996093 32.003906-4.125 15.460938-119.992187-32.003907zm0 0"/><path d="m370.074219 320.070312h112v16h-112zm0 0"/><path d="m4.125 256.332031 119.992188 32.003907-4.121094 15.457031-119.996094-32.003907zm0 0"/><path d="m120.007812 352.335938 4.125 15.460937-119.992187 32.015625-4.125-15.457031zm0 0"/><path d="m2.074219 320.070312h112v16h-112zm0 0"/></g><path d="m266.074219 456.070312c0 13.253907-10.746094 24-24 24-13.257813 0-24-10.746093-24-24 0-13.253906 10.742187-24 24-24 13.253906 0 24 10.746094 24 24zm0 0" fill="#ffe352"/><path d="m266.074219 464.070312h-48c-4.417969 0-8-3.585937-8-8 0-4.417968 3.582031-8 8-8h48c4.414062 0 8 3.582032 8 8 0 4.414063-3.585938 8-8 8zm0 0" fill="#ffb236"/></svg>