<svg id="Capa_1" enable-background="new 0 0 512 512" height="512" viewBox="0 0 512 512" width="512" xmlns="http://www.w3.org/2000/svg"><g><g><path d="m348.525 125.19h-25.192c-4.204 0-7.612-3.408-7.612-7.611s3.408-7.611 7.612-7.611h25.192c5.28 0 9.577-4.296 9.577-9.576s-4.296-9.577-9.577-9.577h-82.831c-14.617 0-26.509-11.892-26.509-26.509s11.892-26.509 26.509-26.509h150.817c6.224 0 11.286-5.063 11.286-11.286s-5.063-11.286-11.286-11.286h-61.414c-4.204 0-7.612-3.408-7.612-7.611s3.408-7.614 7.612-7.614h61.414c14.617 0 26.509 11.892 26.509 26.509s-11.892 26.509-26.509 26.509h-150.817c-6.223 0-11.286 5.063-11.286 11.286s5.063 11.286 11.286 11.286h82.831c13.674 0 24.8 11.125 24.8 24.8s-11.125 24.8-24.8 24.8z" fill="#d1d9fc"/></g><g fill="#564e57"><path d="m418.513 149.956c-2.972-2.972-7.792-2.972-10.764 0l-4.268 4.268-4.268-4.268c-2.972-2.972-7.792-2.972-10.764 0-2.973 2.972-2.973 7.792 0 10.764l4.268 4.268-4.268 4.268c-2.973 2.972-2.973 7.792 0 10.764 1.486 1.486 3.434 2.229 5.382 2.229s3.896-.743 5.382-2.229l4.268-4.268 4.268 4.268c1.486 1.486 3.434 2.229 5.382 2.229s3.896-.743 5.382-2.229c2.973-2.972 2.973-7.792 0-10.764l-4.268-4.268 4.268-4.268c2.973-2.972 2.973-7.792 0-10.764z"/><path d="m190.168 149.956c-2.972-2.972-7.792-2.972-10.764 0l-4.268 4.268-4.268-4.268c-2.972-2.972-7.792-2.972-10.764 0-2.973 2.972-2.973 7.792 0 10.764l4.268 4.268-4.268 4.268c-2.973 2.972-2.973 7.792 0 10.764 1.486 1.486 3.434 2.229 5.382 2.229s3.896-.743 5.382-2.229l4.268-4.268 4.268 4.268c1.486 1.486 3.434 2.229 5.382 2.229s3.896-.743 5.382-2.229c2.973-2.972 2.973-7.792 0-10.764l-4.268-4.268 4.268-4.268c2.973-2.972 2.973-7.792 0-10.764z"/><path d="m58.933 256.517c-2.972-2.972-7.792-2.972-10.764 0l-4.267 4.267-4.267-4.267c-2.972-2.973-7.791-2.972-10.764 0s-2.973 7.791 0 10.764l4.267 4.268-4.267 4.268c-2.973 2.973-2.973 7.792 0 10.764 1.486 1.486 3.434 2.229 5.382 2.229s3.896-.743 5.382-2.229l4.267-4.267 4.267 4.267c1.486 1.487 3.434 2.229 5.382 2.229 1.947 0 3.896-.743 5.382-2.229 2.973-2.972 2.973-7.791 0-10.764l-4.267-4.268 4.267-4.268c2.972-2.973 2.972-7.792 0-10.764z"/><path d="m478.863 271.549 4.267-4.268c2.973-2.973 2.973-7.792 0-10.764-2.972-2.972-7.792-2.972-10.764 0l-4.267 4.267-4.267-4.267c-2.972-2.973-7.791-2.972-10.764 0s-2.973 7.791 0 10.764l4.267 4.268-4.267 4.268c-2.973 2.973-2.973 7.792 0 10.764 1.486 1.486 3.434 2.229 5.382 2.229s3.896-.743 5.382-2.229l4.267-4.267 4.267 4.267c1.486 1.487 3.434 2.229 5.382 2.229 1.947 0 3.896-.743 5.382-2.229 2.973-2.972 2.973-7.791 0-10.764z"/></g><g><g><g><g><path d="m84.08 468.446c-.994-7.344 3.357-14.431 8.76-20.389 4.204-4.636 8.927-8.764 13.64-12.867 33.538-29.198 76.92-29.679 92.556-30.259 45.631-1.692 110.693-10.759 196.238-43.608 5.912 2.351 33.919 14.195 45.389 44.054 5.964 15.526 7.157 34.085.684 49.607-13.762 32.999-56.557 43.205-88.291 49.189-36.892 6.956-74.856 8.619-112.322 7.515-34.786-1.025-70.064-4.267-103.906-12.694-9.151-2.279-18.389-4.379-27.209-7.775-8.137-3.133-16.987-7.594-22.227-14.836-1.918-2.652-2.957-5.311-3.312-7.937z" fill="#c86d36"/></g></g></g><path d="m440.663 405.376c-11.47-29.859-39.476-41.703-45.389-44.054-5.937 2.28-11.766 4.434-17.506 6.49 10.79 6.558 25.054 18.312 32.449 37.564 5.964 15.526 7.157 34.085.684 49.607-13.762 32.999-56.557 43.205-88.291 49.189-25.188 4.749-50.875 7.028-76.562 7.647 35.737.797 71.858-1.019 107.008-7.647 31.734-5.984 74.529-16.19 88.291-49.189 6.474-15.522 5.28-34.081-.684-49.607z" fill="#ac5e2e"/><g><g><g><path d="m116.72 375.148c-4.975-6.309-13.686-19.312-14.519-36.845-1.179-24.808 14.201-42.931 19.408-49.068 41.359-48.748 107.822-19.139 148.847-62.075 9.697-10.148 20.663-27.165 24.286-57.096.883-7.299 8.666-11.535 15.379-8.536 13.593 6.072 32.917 18.235 42.88 40.935 10.18 23.195 5.045 44.763 1.558 59.405-2.161 9.075-11.175 42.176-41.557 65.73-6.565 5.09-12.067 8.136-42.545 20.374-86.868 34.881-111.358 38.092-135.498 32.706-7.826-1.745-14.105-3.93-18.239-5.53z" fill="#c86d36"/></g></g></g><path d="m355.079 259.675c.311-1.319.627-2.686.939-4.101.019-.085.037-.17.056-.255 3.11-14.17 5.682-32.909-3.073-52.856-9.963-22.7-29.287-34.863-42.88-40.935-6.662-2.976-14.368 1.177-15.349 8.374 10.443 7.083 21.173 17.501 27.783 32.561 1.531 3.487 2.701 7.04 3.577 10.588 6.345 25.708-2.855 52.747-22.798 70.166-16.255 14.198-31.378 23.266-43.504 29.294-54.237 26.965-111.29 24.452-154.794 41.124 3.185 9.816 8.298 17.218 11.685 21.512 4.134 1.6 10.413 3.785 18.239 5.531 1.276.285 2.523.512 3.754.687-.071.011-.144.024-.215.035 23.136 4.274 49.324-.248 131.958-33.429 30.478-12.239 35.98-15.284 42.545-20.374 30.382-23.554 39.396-56.655 41.557-65.73.141-.59.284-1.196.429-1.808.03-.127.06-.254.091-.384z" fill="#ac5e2e"/><g><g><g><path d="m89.677 479.138c-5.605-5.361-26.441-26.457-23.259-52.577 1.283-10.531 6.374-21.381 18.008-32.831 43.96-43.265 119.702-28.117 190.627-63.378 20.816-10.349 50.464-29.637 79.506-68.483 5.263 2.011 12.554 5.528 20.267 11.322 9.252 6.951 19.314 17.471 25.121 32.731.928 2.439 10.652 28.918.215 51.322-.799 1.714-1.701 3.375-2.704 4.985-8.909 14.305-30.229 18.691-51.586 26.266-40.83 14.483-94.19 17.823-145.446 21.946-42.336 3.406-91.286 10.896-108.736 41.015-5.3 9.148-1.681 21.26-2.013 27.682z" fill="#ecbba3"/></g></g></g><path d="m399.947 305.922c-5.808-15.26-15.869-25.78-25.121-32.731-7.712-5.794-15.004-9.311-20.267-11.322-.74.989-1.48 1.957-2.22 2.922 6.662 6.496 13.004 14.981 17.162 25.909.928 2.439 10.652 28.918.215 51.322-21.457 46.06-118.31 53.851-199.394 60.374-42.087 3.386-86.095 6.562-103.756 36.19 2.909 20.401 18.396 36.044 23.111 40.553.331-6.421 1.713-15.665 7.013-24.813 17.45-30.119 61.742-33.301 104.079-36.707 81.083-6.523 177.937-14.314 199.394-60.374 10.436-22.405.712-48.884-.216-51.323z" fill="#e8ad8c"/></g></g></svg>