<svg height="512" viewBox="0 0 512 512" width="512" xmlns="http://www.w3.org/2000/svg"><g id="Flat"><circle cx="416" cy="344" fill="none" r="16"/><path d="m88 296a64 64 0 0 1 -64-64v96a64 64 0 0 0 64 64h208v-96z" fill="#c14135"/><path d="m424 296h-312a48 48 0 0 0 0 96h312a64 64 0 0 0 64-64v-96a64 64 0 0 1 -64 64zm-8 64a16 16 0 1 1 16-16 16 16 0 0 1 -16 16z" fill="#d65246"/><circle cx="208" cy="344" fill="#b93f33" r="16"/><path d="m216 408v-16h64a48 48 0 0 0 48-48 48 48 0 0 0 -48-48h-64v-16a16 16 0 0 1 16-16h48a80 80 0 0 1 80 80 80 80 0 0 1 -80 80h-48a16 16 0 0 1 -16-16z" fill="#fbab1f"/><rect fill="#ffc261" height="32" rx="16" width="96" x="264" y="328"/><g fill="#91563a"><path d="m424 88h-336a64 64 0 0 0 -64 64v96a64 64 0 0 1 64-64h336a64 64 0 0 1 64 64v-96a64 64 0 0 0 -64-64zm-328 64a16 16 0 1 1 16-16 16 16 0 0 1 -16 16zm80 0a16 16 0 1 1 16-16 16 16 0 0 1 -16 16zm80 0a16 16 0 1 1 16-16 16 16 0 0 1 -16 16zm80 0a16 16 0 1 1 16-16 16 16 0 0 1 -16 16zm80 0a16 16 0 1 1 16-16 16 16 0 0 1 -16 16z"/><path d="m128 272h32v144h-32z"/></g></g></svg>