<svg height="512" viewBox="0 0 512 512" width="512" xmlns="http://www.w3.org/2000/svg"><path d="m360 200v272a16 16 0 0 1 -16 16h-176a16 16 0 0 1 -16-16v-272z" fill="#b3e4e8"/><g fill="#fbb540"><path d="m376 112v88h-240v-72a16 16 0 0 1 16-16z"/><path d="m328 456a31.991 31.991 0 0 1 -32 32h-80a32 32 0 0 1 -24-53.17c.44-.5.9-.99 1.37-1.46a31.9 31.9 0 0 1 22.63-9.37h80a32 32 0 0 1 32 32z"/><path d="m320 392a31.991 31.991 0 0 1 -32 32h-64a32 32 0 1 1 0-64h64a31.983 31.983 0 0 1 32 32z"/><path d="m296 368h-88v-17.23a27.775 27.775 0 0 1 22.328-27.236 47.17 47.17 0 0 0 28.485-17.951l13.187-17.583 18.636 14.909a36.88 36.88 0 0 1 11.2 42.494z"/></g><path d="m368 24a120 120 0 0 0 -72 216.005v32l28.34-16.194a120.012 120.012 0 1 0 43.66-231.811z" fill="#da922a"/><circle cx="368" cy="144" fill="#c0f5f9" r="89"/><path d="m368 144h-12.686l10.343-10.343-11.314-11.314-10.343 10.343v-12.686h-16v12.686l-10.343-10.343-11.314 11.314 10.343 10.343h-12.686v16h12.686l-10.343 10.343 11.314 11.314 10.343-10.343v12.686h16v-12.686l10.343 10.343 11.314-11.314-10.343-10.343h12.686zm-40 16v-16h16v16z" fill="#70400e"/><path d="m384 102.915a7.974 7.974 0 0 1 -5.657-2.343l-16-16a8 8 0 1 1 11.314-11.314l16 16a8 8 0 0 1 -5.657 13.657z" fill="#a8d6da"/><path d="m413.061 136a8 8 0 0 1 -4.841-1.63l-21.06-16 9.68-12.74 9.573 7.273 1.62-17.635 15.934 1.464-2.941 32a8 8 0 0 1 -7.965 7.268z" fill="#e08122"/><path d="m368 216a8 8 0 0 1 -5.657-13.657l16-16a8 8 0 0 1 11.314 11.314l-16 16a7.974 7.974 0 0 1 -5.657 2.343z" fill="#5e8569"/><path d="m336 104a8 8 0 0 1 -8-8v-8a8 8 0 0 1 16 0v8a8 8 0 0 1 -8 8z" fill="#5e8569"/><path d="m160 112h16v88h-16z" fill="#da922a"/><path d="m208 112h16v88h-16z" fill="#da922a"/><path d="m200 232a8 8 0 0 1 -8 8h-40v-16h40a8 8 0 0 1 8 8z" fill="#c0f5f9"/><path d="m232 240h-8a8 8 0 0 1 0-16h8a8 8 0 0 1 0 16z" fill="#c0f5f9"/><path d="m232 400h-8a8 8 0 0 1 0-16h8a8 8 0 0 1 0 16z" fill="#da922a"/><path d="m280 400h-16a8 8 0 0 1 0-16h16a8 8 0 0 1 0 16z" fill="#da922a"/><path d="m256 464h-40a8 8 0 0 1 0-16h40a8 8 0 0 1 0 16z" fill="#da922a"/><path d="m296 464h-8a8 8 0 0 1 0-16h8a8 8 0 0 1 0 16z" fill="#da922a"/><path d="m320.98 436h-128.98v-1.17c.44-.5.9-.99 1.37-1.46a31.9 31.9 0 0 1 22.63-9.37h80a31.941 31.941 0 0 1 24.98 12z" fill="#e6a63b"/><path d="m315.72 376h-119.44a32.012 32.012 0 0 1 27.72-16h64a32 32 0 0 1 27.72 16z" fill="#e6a63b"/><circle cx="336" cy="152" fill="#c38325" r="16"/><path d="m413.06 176a15.178 15.178 0 0 1 -14.4-19.979 12.716 12.716 0 0 0 0-8.042 15.178 15.178 0 0 1 14.4-19.979 15.18 15.18 0 0 1 14.4 10.379 43.076 43.076 0 0 1 0 27.242 15.18 15.18 0 0 1 -14.4 10.379z" fill="#fd9226"/></svg>