<svg height="512" viewBox="0 0 512 512" width="512" xmlns="http://www.w3.org/2000/svg"><path d="m463.2 240a40 40 0 0 0 -44.954-47.582 23.986 23.986 0 0 0 -27.144-6.707 55.962 55.962 0 0 0 -48.462-25.679 23.993 23.993 0 0 0 -36.464-11.645 71.939 71.939 0 0 0 -100.352 0 23.993 23.993 0 0 0 -36.464 11.645 55.962 55.962 0 0 0 -48.46 25.679 23.986 23.986 0 0 0 -27.144 6.707 40.03 40.03 0 0 0 -44.956 47.582l15.2 8h392z" fill="#a45e14"/><path d="m488 400h-464v-32l16-8h440l8 8z" fill="#da922a"/><path d="m488 368h-464l24-128h416z" fill="#fbb540"/><path d="m323.3 304a17.5 17.5 0 1 0 -27.224-16h-78.652a17.494 17.494 0 1 0 -27.224 16 17.5 17.5 0 1 0 27.224 16h78.652a17.494 17.494 0 1 0 27.224-16z" fill="#eaeae8"/><circle cx="192" cy="168" fill="#70400e" r="24"/><circle cx="224" cy="184" fill="#834b10" r="24"/><circle cx="112" cy="208" fill="#834b10" r="24"/><circle cx="400" cy="208" fill="#70400e" r="24"/><circle cx="320" cy="168" fill="#834b10" r="24"/><g fill="#fbedbf"><path d="m88 272a8 8 0 0 1 -8 8h-39.5l3-16h36.5a8 8 0 0 1 8 8z"/><path d="m136 280h-24a8 8 0 0 1 0-16h24a8 8 0 0 1 0 16z"/></g></svg>