<svg id="Capa_1" enable-background="new 0 0 512 512" height="512" viewBox="0 0 512 512" width="512" xmlns="http://www.w3.org/2000/svg"><g><g><path d="m433.293 500.668h-407.77c-8.534 0-15.453-6.918-15.453-15.453s22.371-15.453 30.905-15.453h392.318c26.357 0 47.8-21.443 47.801-47.799v-2.779c0-12.769-4.971-24.774-14-33.802-9.029-9.029-21.033-14.002-33.801-14.002h-354.586c-43.399 0-78.707-35.308-78.707-78.706s35.308-78.707 78.707-78.707h83.736c8.534 0 15.453 6.919 15.453 15.453s-6.919 15.453-15.453 15.453h-83.736c-26.358 0-47.801 21.444-47.801 47.801 0 26.358 21.444 47.801 47.801 47.801h354.587c21.024 0 40.789 8.187 55.655 23.054 14.866 14.866 23.053 34.632 23.052 55.656v2.779c-.003 43.398-35.31 78.704-78.708 78.704z" fill="#e5edfc"/></g><g><path d="m47.478 222.89v26.891c0 1.976.736 3.775 1.941 5.154 8.097-6.299 18.258-10.064 29.287-10.064h83.736c8.534 0 15.453-6.919 15.453-15.453s-6.919-15.453-15.453-15.453h-83.735c-11.172 0-21.8 2.355-31.435 6.57.125.96.206 1.771.206 2.355z" fill="#d1d9fc"/><path d="m435.809 266.669h-141.259c-6.719 0-13.423.906-19.845 2.883-14.042 4.323-29.038 6.468-44.6 6.023-27.792-.794-53.601-9.919-74.99-24.959-.693-.487-1.516-.754-2.363-.754h-66.526c-4.332 0-7.843-3.512-7.843-7.843v-26.891c0-4.332 3.512-7.843 7.843-7.843h21.967c3.095 0 5.079-3.281 3.647-6.024-9.165-17.552-14.659-37.297-15.433-58.213-2.904-78.498 59.869-143.048 137.72-143.048 51.046 0 95.605 27.754 119.421 68.994 16.328 28.275 46.894 45.293 79.545 45.293h2.717c42.079 0 76.191 34.112 76.191 76.191-.001 42.079-34.113 76.191-76.192 76.191z" fill="#bef8a8"/><g><path d="m435.809 114.287h-2.717c-.554 0-1.106-.017-1.659-.027 28.997 11.573 49.661 41.561 49.661 76.741 0 34.145-19.469 63.394-47.127 75.668h1.842c42.079 0 76.191-34.112 76.191-76.191s-34.112-76.191-76.191-76.191z" fill="#a0e38b"/></g><path d="m436.753 148.81h-47.543c-22.287 0-40.355 18.068-40.355 40.355v2.436c0 22.287 18.068 40.355 40.355 40.355h47.543c22.287 0 40.355-18.068 40.355-40.355v-2.436c0-22.287-18.068-40.355-40.355-40.355z" fill="#fff"/><circle cx="229.492" cy="137.816" fill="#695d69" r="97.681"/><path d="m229.492 40.135c-5.259 0-10.419.421-15.453 1.221 46.604 7.408 82.228 47.771 82.228 96.46s-35.624 89.052-82.228 96.46c5.034.8 10.194 1.221 15.453 1.221 53.948 0 97.681-43.733 97.681-97.681s-43.733-97.681-97.681-97.681z" fill="#564e57"/></g><path d="m35.391 470.378c-2.832 4.248-4.486 9.349-4.486 14.837 0 5.757 1.823 11.086 4.914 15.453h43.742c3.091-4.367 4.914-9.695 4.914-15.453s-1.823-11.086-4.914-15.453h-38.586c-1.498.001-3.428.218-5.584.616z" fill="#d1d9fc"/><path d="m45.297 485.215c0 14.793-3.719 26.785-18.512 26.785s-26.785-11.992-26.785-26.785 11.992-26.785 26.785-26.785c4.875 0 9.447 1.303 13.385 3.579 8.01 4.631 5.127 13.289 5.127 23.206z" fill="#695d69"/><path d="m26.785 458.431c-5.757 0-11.086 1.823-15.453 4.914 6.853 4.851 11.332 12.836 11.332 21.871s-4.479 17.02-11.332 21.871c4.367 3.091 9.695 4.914 15.453 4.914 14.793 0 26.785-11.992 26.785-26.785-.001-14.794-11.993-26.785-26.785-26.785z" fill="#564e57"/></g></svg>