<svg height="512" viewBox="0 0 512 512" width="512" xmlns="http://www.w3.org/2000/svg"><g id="Flat"><path d="m304 136h-16v-32h-64v32h-16v-32a16.019 16.019 0 0 1 16-16h64a16.019 16.019 0 0 1 16 16z" fill="#2f9ccb"/><path d="m496 200v-16h-8v-32a24.027 24.027 0 0 0 -24-24h-272v16h56v40h-24v16h24v48h-24v16h24v48h-24v16h24v40h-32v16h264a8 8 0 0 0 8-8v-48h8v-16h-8v-48h8v-16h-8v-48zm-24-48v32h-16v-40h8a8.009 8.009 0 0 1 8 8zm-128 96h-16v-48h16zm16-48h16v48h-16zm-16 64v48h-16v-48zm16 0h16v48h-16zm32 0h16v48h-16zm0-16v-48h16v48zm0-64v-40h16v40zm-16 0h-16v-40h16zm-32 0h-16v-40h16zm-32 0h-16v-40h16zm0 16v48h-16v-48zm0 64v48h-16v-48zm0 64v40h-16v-40zm16 0h16v40h-16zm32 0h16v40h-16zm32 0h16v40h-16zm32 0h16v40h-16zm0-16v-48h16v48zm0-64v-48h16v48zm0-64v-40h16v40zm-160-40h16v40h-16zm0 56h16v48h-16zm0 64h16v48h-16zm0 64h16v40h-16zm208 40h-16v-40h16zm0-56h-16v-48h16zm0-64h-16v-48h16z" fill="#2f9ccb"/><path d="m208 128h-160a24.027 24.027 0 0 0 -24 24v32h-8v16h8v48h-8v16h8v48h-8v16h8v48a8 8 0 0 0 8 8h192a8 8 0 0 0 8-8v-224a24.027 24.027 0 0 0 -24-24zm-8 16h8a8.009 8.009 0 0 1 8 8v32h-16zm-64 0h16v40h-16zm-32 0h16v40h-16zm-32 0h16v40h-16zm-16 224h-16v-40h16zm0-56h-16v-48h16zm0-64h-16v-48h16zm0-64h-16v-32a8.009 8.009 0 0 1 8-8h8zm32 184h-16v-40h16zm32 0h-16v-40h16zm32 0h-16v-40h16zm32 0h-16v-40h16zm0-56h-112v-112h112zm0-128h-16v-40h16zm32 184h-16v-40h16zm0-56h-16v-48h16zm-16-64v-48h16v48z" fill="#4db6e4"/><path d="m24 368h472v40h-472z" fill="#2f486e"/><path d="m16 368h208v40h-208z" fill="#415e89"/></g></svg>