<svg height="512" viewBox="0 0 512 512" width="512" xmlns="http://www.w3.org/2000/svg"><g id="Flat"><path d="m488 328-32 144h-400l-32-144v-240a48 48 0 0 1 48-48h368a48 48 0 0 1 48 48z" fill="#ea7206"/><g fill="#f88400"><path d="m232 128h48a24 24 0 0 1 24 24v248a0 0 0 0 1 0 0h-96a0 0 0 0 1 0 0v-248a24 24 0 0 1 24-24z"/><path d="m328 128h48a24 24 0 0 1 24 24v248a0 0 0 0 1 0 0h-96a0 0 0 0 1 0 0v-248a24 24 0 0 1 24-24z"/><path d="m136 128h48a24 24 0 0 1 24 24v248a0 0 0 0 1 0 0h-96a0 0 0 0 1 0 0v-248a24 24 0 0 1 24-24z"/></g><path d="m208 152a8 8 0 0 1 8 8v240a0 0 0 0 1 0 0h-16a0 0 0 0 1 0 0v-240a8 8 0 0 1 8-8z" fill="#ea7206"/><path d="m304 152a8 8 0 0 1 8 8v240a0 0 0 0 1 0 0h-16a0 0 0 0 1 0 0v-240a8 8 0 0 1 8-8z" fill="#ea7206"/><path d="m456 472h-400l-32-144h46.865a45.971 45.971 0 0 1 43.613 31.435l3.044 9.13a45.971 45.971 0 0 0 43.613 31.435h193.987a45.973 45.973 0 0 0 44.878-36 45.973 45.973 0 0 1 44.878-36h43.122z" fill="#7a432a"/><path d="m64 72.645v.044a8.057 8.057 0 0 0 6.79 7.891 39.048 39.048 0 0 1 29.667 24.1l1.151 2.878a7.98 7.98 0 0 0 10.374 4.446l.036-.014a7.98 7.98 0 0 0 4.445-10.374l-1.151-2.879a54.96 54.96 0 0 0 -42.139-33.985 7.951 7.951 0 0 0 -9.173 7.893z" fill="#f88400"/><path d="m396.688 98.74-1.151 2.879a7.98 7.98 0 0 0 4.445 10.374l.036.014a7.98 7.98 0 0 0 10.374-4.446l1.151-2.878a39.048 39.048 0 0 1 29.667-24.1 8.057 8.057 0 0 0 6.79-7.894v-.044a7.951 7.951 0 0 0 -9.173-7.893 54.96 54.96 0 0 0 -42.139 33.988z" fill="#f88400"/><path d="m136 160h16v16h-16z" fill="#ff9319"/><path d="m136 192h16v80h-16z" fill="#ff9319"/></g></svg>