<svg id="Capa_1" enable-background="new 0 0 512 512" height="512" viewBox="0 0 512 512" width="512" xmlns="http://www.w3.org/2000/svg"><g><path d="m396.526 230.505c19.858 0 35.956-17.403 35.956-38.87 0-19.585-13.4-35.783-30.828-38.474-1.795-.277-3.186-1.66-3.443-3.459-2.66-18.628-17.546-32.892-35.522-32.892-4.925 0-9.617 1.073-13.891 3.012-2.245 1.018-4.874-.274-5.466-2.667-4.105-16.582-18.091-28.796-34.725-28.796-5.999 0-11.654 1.589-16.627 4.398-1.936 1.094-4.36.437-5.477-1.486-6.36-10.951-17.631-18.232-30.475-18.232-12.853 0-24.13 7.291-30.488 18.255-1.117 1.927-3.545 2.585-5.483 1.486-4.982-2.823-10.651-4.422-16.665-4.422-16.634 0-30.621 12.213-34.725 28.796-.592 2.393-3.221 3.685-5.466 2.667-4.273-1.939-8.966-3.012-13.891-3.012-17.976 0-32.862 14.264-35.522 32.892-.257 1.798-1.648 3.181-3.443 3.459-17.429 2.691-30.828 18.889-30.828 38.474 0 21.467 16.098 38.87 35.956 38.87h281.053z" fill="#e5edfc"/><g><path d="m401.654 153.162c-1.795-.277-3.186-1.66-3.443-3.459-2.66-18.628-17.546-32.892-35.523-32.892-4.925 0-9.617 1.073-13.89 3.012-2.245 1.018-4.874-.274-5.466-2.667-4.105-16.582-18.091-28.796-34.725-28.796-5.999 0-11.654 1.589-16.627 4.398-1.936 1.094-4.36.437-5.477-1.486-6.36-10.951-17.631-18.232-30.475-18.232-9.068 0-17.342 3.64-23.667 9.627 9.773 2.16 18.104 8.6 23.236 17.437 1.117 1.923 3.54 2.58 5.477 1.486 4.972-2.809 10.628-4.398 16.627-4.398 16.634 0 30.62 12.213 34.725 28.796.592 2.393 3.221 3.685 5.466 2.667 4.273-1.939 8.966-3.012 13.89-3.012 17.977 0 32.862 14.264 35.523 32.892.257 1.798 1.648 3.181 3.443 3.459 17.429 2.69 30.828 18.889 30.828 38.474 0 12.101-5.116 22.909-13.136 30.038h8.085c19.858 0 35.956-17.403 35.956-38.87.002-19.585-13.398-35.784-30.827-38.474z" fill="#d1d9fc"/></g><path d="m496.547 411.683h-481.094c-1.707-28.773-1.135-67.283 7.726-111.51 8.714-43.495 22.728-78.957 35.469-105.142 1.898-3.9 5.853-6.368 10.19-6.368h374.325c4.337 0 8.292 2.468 10.19 6.368 12.741 26.185 26.754 61.647 35.469 105.142 8.86 44.227 9.433 82.737 7.725 111.51z" fill="#ffc344"/><path d="m488.821 300.173c-8.714-43.495-22.728-78.957-35.469-105.142-1.898-3.9-5.852-6.368-10.19-6.368h-30.905c4.337 0 8.292 2.468 10.19 6.368 12.741 26.185 26.755 61.647 35.469 105.142 4.051 20.221 6.359 39.23 7.517 56.672.316 4.761-3.456 8.794-8.227 8.794h-431.619c-3.754 0-7.315.815-10.527 2.267-.607 14.768-.408 28.227.2 40.147h450.574c-.062 1.218-.122 2.445-.192 3.63h30.905c1.708-28.773 1.135-67.283-7.726-111.51z" fill="#feb237"/><path d="m506.88 438.958h-501.76c-2.828 0-5.12-2.292-5.12-5.12v-12.457c0-13.717 11.12-24.837 24.837-24.837h462.326c13.717 0 24.837 11.12 24.837 24.837v12.457c0 2.828-2.292 5.12-5.12 5.12z" fill="#695d69"/><path d="m486.413 396.544h-30.905c14.131 0 25.587 11.456 25.587 25.587v11.553c0 2.913-2.362 5.275-5.275 5.275h30.905c2.913 0 5.275-2.362 5.275-5.275v-11.553c0-14.131-11.455-25.587-25.587-25.587z" fill="#564e57"/><g fill="#695d69"><g><ellipse cx="188.075" cy="283.411" rx="12.806" ry="16.982"/><ellipse cx="323.925" cy="283.411" rx="12.806" ry="16.982"/></g><g><ellipse cx="228.683" cy="244.565" rx="14.967" ry="19.848"/><ellipse cx="283.317" cy="244.565" rx="14.967" ry="19.848"/></g><path d="m213.044 319.133c15.231-39.156 70.681-39.156 85.912 0 .1.258.199.517.296.778 4.12 11.082 8.369 26.066.291 36.403-8.01 10.251-20.276 10.354-30.304 5.188-8.269-4.26-18.21-4.26-26.479 0-10.028 5.166-22.293 5.062-30.304-5.188-8.078-10.337-3.828-25.321.291-36.403.098-.261.197-.521.297-.778z"/></g><g><path d="m347.192 167.336c-1.856 0-3.717-.664-5.198-2.012-1.498-1.363-3.158-2.519-4.935-3.435-3.257-1.68-6.995-2.572-10.811-2.581-4.268-.01-7.718-3.478-7.708-7.745.01-4.261 3.468-7.708 7.726-7.708h.018c6.257.015 12.432 1.502 17.857 4.299 2.978 1.536 5.755 3.467 8.253 5.739 3.156 2.872 3.386 7.759.514 10.914-1.524 1.677-3.616 2.529-5.716 2.529z" fill="#b6c9fd"/></g><g><path d="m244.802 135.206c-3.022 0-5.892-1.785-7.131-4.748-1.646-3.937.211-8.463 4.148-10.109 5.772-2.414 12.042-3.437 18.126-2.965 3.34.26 6.648.963 9.832 2.088 4.023 1.423 6.132 5.837 4.709 9.86-1.424 4.023-5.839 6.129-9.86 4.709-1.909-.675-3.887-1.096-5.88-1.251-3.65-.286-7.445.343-10.966 1.815-.975.408-1.985.601-2.978.601z" fill="#b6c9fd"/></g><g><path d="m164.808 169.545c-2.1 0-4.192-.851-5.717-2.527-2.872-3.156-2.641-8.043.515-10.914 2.497-2.272 5.274-4.203 8.252-5.739 5.426-2.798 11.6-4.284 17.856-4.299h.019c4.259 0 7.716 3.447 7.726 7.708.01 4.267-3.441 7.735-7.708 7.745-3.816.009-7.554.901-10.811 2.581-1.777.916-3.437 2.072-4.935 3.435-1.48 1.346-3.342 2.01-5.197 2.01z" fill="#b6c9fd"/></g></g></svg>