<svg height="512" viewBox="0 0 512 512" width="512" xmlns="http://www.w3.org/2000/svg"><circle cx="256" cy="256" fill="#fbb540" r="200"/><path d="m264 408a8 8 0 0 1 -8-8v-52l-28.8-21.6a8 8 0 0 1 -2.961-8.34l12.34-49.361a8 8 0 1 1 15.521 3.881l-11.05 44.207 27.75 20.813a8 8 0 0 1 3.2 6.4v56a8 8 0 0 1 -8 8z" fill="#5b3726"/><path d="m216 392a8 8 0 0 1 -8-8v-28.687l-29.657-29.656a8 8 0 0 1 -2.1-7.6l19.09-76.358a8 8 0 1 1 15.522 3.881l-17.992 71.963 28.8 28.8a8 8 0 0 1 2.337 5.657v32a8 8 0 0 1 -8 8z" fill="#5b3726"/><path d="m152 344a8 8 0 0 1 -8-8v-44.687l-13.657-13.656a8 8 0 0 1 -2.343-5.657v-53a8 8 0 0 1 16 0v49.687l13.657 13.656a8 8 0 0 1 2.343 5.657v48a8 8 0 0 1 -8 8z" fill="#5b3726"/><path d="m112 256a8 8 0 0 1 -8-8v-26a8 8 0 0 1 16 0v26a8 8 0 0 1 -8 8z" fill="#5b3726"/><path d="m420.14 264.28-1.207-2.415a155.332 155.332 0 0 0 -138.933-85.865h-72l-32 8-56-8a24 24 0 0 0 -24 24v24h32l48 24 56 16 4.115 10.289a47.266 47.266 0 0 0 43.885 29.711 129.178 129.178 0 0 0 86.105 16.907l26.895-4.137a36.564 36.564 0 0 0 27.144-52.49z" fill="#8f563b"/><g fill="#5b3726"><path d="m112 192h16v16h-16z"/><path d="m407.64 242.81-47.31 78.85a128.723 128.723 0 0 1 -13.86.75c-1.73 0-3.46-.03-5.19-.11l55.82-93.03a151.329 151.329 0 0 1 10.54 13.54z"/><path d="m381.9 214.1-53.52 107.04a129.222 129.222 0 0 1 -16.08-3.33 9.075 9.075 0 0 1 .54-1.39l56-112c.06-.12.13-.24.2-.36a153.166 153.166 0 0 1 12.86 10.04z"/><path d="m335.67 186.32-31.91 127.62a6.842 6.842 0 0 1 -.36 1.08 129.253 129.253 0 0 1 -14.82-6.31l31.66-126.65c.06-.24.13-.47.21-.7a153.627 153.627 0 0 1 15.22 4.96z"/><path d="m280 176v128a46.828 46.828 0 0 1 -16-2.8v-125.2z"/><path d="m240 176v105.92a47.13 47.13 0 0 1 -3.88-7.63l-4.12-10.29-8-2.29v-85.71z"/></g><path d="m256 24c-128.13 0-232 103.87-232 232s103.87 232 232 232 232-103.87 232-232-103.87-232-232-232zm-200 232c0-110.457 89.543-200 200-200a199.193 199.193 0 0 1 129.648 47.724l-281.923 281.924a199.188 199.188 0 0 1 -47.725-129.648zm200 200a199.188 199.188 0 0 1 -129.648-47.725l281.923-281.923a199.193 199.193 0 0 1 47.725 129.648c0 110.457-89.543 200-200 200z" fill="#f55648"/></svg>