<svg height="496pt" viewBox="-4 0 496 496" width="496pt" xmlns="http://www.w3.org/2000/svg"><path d="m0 208h384v80h-384zm0 0" fill="#6e83b7"/><path d="m320.007812 208h-8.007812l24 40-24 40h8.007812l23.992188-40zm0 0" fill="#466089"/><path d="m240 232h16v32h-16zm0 0" fill="#ffb236"/><g fill="#466089"><path d="m112 248c0 4.417969-3.582031 8-8 8s-8-3.582031-8-8 3.582031-8 8-8 8 3.582031 8 8zm0 0"/><path d="m72 248c0 4.417969-3.582031 8-8 8s-8-3.582031-8-8 3.582031-8 8-8 8 3.582031 8 8zm0 0"/><path d="m32 248c0 4.417969-3.582031 8-8 8s-8-3.582031-8-8 3.582031-8 8-8 8 3.582031 8 8zm0 0"/></g><path d="m248 256h-56c-4.414062 0-8-3.585938-8-8s3.585938-8 8-8h56zm0 0" fill="#ffe352"/><path d="m344 208h-16v-128c0-35.289062-28.710938-64-64-64s-64 28.710938-64 64v112h-16v-112c0-44.113281 35.886719-80 80-80s80 35.886719 80 80zm0 0" fill="#6e83b7"/><path d="m255.847656 363.960938c3.648438-2.714844 6.480469-6.527344 7.550782-10.992188 3.59375-14.890625-9.488282-27.96875-24.375-24.375-7 1.6875-12.734376 7.421875-14.421876 14.421875-.082031.335937-.042968.648437-.105468.976563h-24.496094v-40h40c8.839844 0 16-7.160157 16-16v-79.992188c0-8.839844-7.160156-16-16-16h-96c-8.839844 0-16 7.160156-16 16v80c0 8.839844 7.160156 16 16 16h40v40h-24.496094c-.0625-.328125-.023437-.640625-.105468-.976562-1.6875-7-7.421876-12.734376-14.421876-14.421876-14.886718-3.59375-27.96875 9.488282-24.375 24.375 1.070313 4.464844 3.902344 8.269532 7.550782 10.992188-4.921875 3.640625-8.152344 9.4375-8.152344 16.03125 0 11.046875 8.953125 20 20 20 9.671875 0 17.742188-6.871094 19.601562-16h64.796876c1.859374 9.128906 9.921874 16 19.601562 16 11.046875 0 20-8.953125 20-20 0-6.59375-3.230469-12.390625-8.152344-16.039062zm-111.847656-75.960938v-80h96v80zm0 0" fill="#ffe352"/><path d="m448 0h-32c-22.054688 0-40 17.945312-40 40v54.609375c0 7.03125 1.023438 14 3.039062 20.6875l17.871094 59.605469c3.074219 10.226562 12.3125 17.097656 22.992188 17.097656h4.097656v248c0 22.054688-17.945312 40-40 40s-40-17.945312-40-40v-152h-16v152c0 30.878906 25.128906 56 56 56s56-25.121094 56-56v-248h4.097656c10.679688 0 19.917969-6.871094 22.992188-17.105469l17.863281-59.589843c2.023437-6.703126 3.046875-13.664063 3.046875-20.695313v-54.609375c0-22.054688-17.945312-40-40-40zm24 94.609375c0 5.460937-.800781 10.878906-2.367188 16.09375l-17.871093 59.601563c-1.027344 3.398437-4.105469 5.695312-7.664063 5.695312h-24.1875c-3.558594 0-6.636718-2.296875-7.664062-5.695312l-17.878906-59.617188c-1.566407-5.199219-2.367188-10.617188-2.367188-16.078125v-54.609375c0-13.230469 10.769531-24 24-24h32c13.230469 0 24 10.769531 24 24zm0 0" fill="#6e83b7"/><path d="m184 176h16v16h-16zm0 0" fill="#466089"/><path d="m328 192h16v16h-16zm0 0" fill="#466089"/><path d="m328 288h16v16h-16zm0 0" fill="#466089"/></svg>