<svg height="480pt" viewBox="0 0 480 480" width="480pt" xmlns="http://www.w3.org/2000/svg"><path d="m216 152c0-60.800781-2.703125-82.28125-21.585938-101.617188-19.46875-19.949218-53.167968-30.628906-90.414062-18.382812 0 0-104 40-104 200 0 0 44.183594-92.34375 127.558594-76.425781 9.867187 1.882812 18.34375 8.234375 22.832031 17.21875l.761719 1.519531c5.421875 10.839844 16.503906 17.6875 28.625 17.6875h4.222656c17.671875 0 32-14.328125 32-32zm0 0" fill="#6e83b7"/><path d="m272 54.054688v-6.054688c0-26.511719-21.488281-48-48-48h-16c-26.511719 0-48 21.488281-48 48v6.054688c0 6.371093 2.527344 12.472656 7.03125 16.96875l1.945312 1.945312c4.496094 4.503906 7.023438 10.605469 7.023438 16.976562v44.117188c0 6.371094-2.527344 12.472656-7.03125 16.96875l-1.945312 1.945312c-4.496094 4.496094-7.023438 10.597657-7.023438 16.96875v6.054688c0 26.511719 21.488281 48 48 48h16c26.511719 0 48-21.488281 48-48v-6.054688c0-6.371093-2.527344-12.472656-7.03125-16.96875l-1.945312-1.945312c-4.496094-4.503906-7.023438-10.605469-7.023438-16.976562v-44.117188c0-6.371094 2.527344-12.472656 7.03125-16.96875l1.945312-1.945312c4.496094-4.496094 7.023438-10.597657 7.023438-16.96875zm0 0" fill="#edeff1"/><path d="m399.960938 72c0-3.472656-.328126-7.015625-1.105469-10.625-3.863281-18-18.449219-32.503906-36.464844-36.277344-31.046875-6.511718-58.390625 17-58.390625 46.902344 0 11.527344 4.070312 22.105469 10.847656 30.375 4.632813 5.648438 4.328125 13.882812-.253906 19.570312-8.640625 10.726563-12.761719 25.246094-9.449219 40.679688 3.863281 18 18.449219 32.503906 36.464844 36.277344 31.046875 6.523437 58.390625-17 58.390625-46.902344h80v-80zm0 0" fill="#edeff1"/><g fill="#ff7b7b"><path d="m280 208h16v16h-16zm0 0"/><path d="m296 193.230469h-16v-29.535157h16zm0-44.308594h-16v-29.539063h16zm0-44.304687h-16v-29.539063h16zm0-44.304688h-16v-29.542969h16zm0 0"/><path d="m280 0h16v16h-16zm0 0"/></g><path d="m308.960938 256c8.503906 7.433594 13.175781 19.128906 10.070312 31.902344-2.765625 11.417968-12.09375 20.65625-23.550781 23.25-20.921875 4.742187-39.480469-11.039063-39.480469-31.152344 0-9.617188 4.328125-18.136719 11.039062-24h-11.039062c-17.671875 0-32 14.328125-32 32v64h128v-64c0-17.671875-14.328125-32-32-32zm0 0" fill="#edeff1"/><path d="m352 440v-56h8v-32h-144v32h8v56l-24 40h64l24-40 24 40h64zm0 0" fill="#6e83b7"/><path d="m224 384h128v16h-128zm0 0" fill="#466089"/></svg>