<svg height="512" viewBox="0 0 512 512" width="512" xmlns="http://www.w3.org/2000/svg"><g id="Flat"><path d="m115.314 140.686 105.372-105.372a38.628 38.628 0 0 1 27.314-11.314 38.628 38.628 0 0 1 27.314 11.314l201.372 201.372a38.628 38.628 0 0 1 11.314 27.314 38.628 38.628 0 0 1 -11.314 27.314l-105.372 105.372a38.628 38.628 0 0 1 -27.314 11.314 38.628 38.628 0 0 1 -27.314-11.314l-201.372-201.372a38.628 38.628 0 0 1 -11.314-27.314 38.628 38.628 0 0 1 11.314-27.314z" fill="#348ed8"/><path d="m216.804 68.922h158.392v294.156h-158.392z" fill="#4db6e4" transform="matrix(.707 -.707 .707 .707 -66.039 272.569)"/><g fill="#9fdce4"><path d="m244.686 104h22.627v16h-22.627z" transform="matrix(.707 -.707 .707 .707 -4.215 213.823)"/><path d="m316.686 176h22.627v16h-22.627z" transform="matrix(.707 -.707 .707 .707 -34.039 285.823)"/><path d="m292.686 152h22.627v16h-22.627z" transform="matrix(.707 -.707 .707 .707 -24.098 261.823)"/><path d="m268.686 128h22.627v16h-22.627z" transform="matrix(.707 -.707 .707 .707 -14.156 237.823)"/><path d="m340.686 200h22.627v16h-22.627z" transform="matrix(.707 -.707 .707 .707 -43.98 309.823)"/><path d="m388.686 248h22.627v16h-22.627z" transform="matrix(.707 -.707 .707 .707 -63.862 357.823)"/><path d="m364.686 224h22.627v16h-22.627z" transform="matrix(.707 -.707 .707 .707 -53.921 333.823)"/><path d="m212.686 136h22.627v16h-22.627z" transform="matrix(.707 -.707 .707 .707 -36.215 200.569)"/><path d="m284.686 208h22.627v16h-22.627z" transform="matrix(.707 -.707 .707 .707 -66.039 272.569)"/><path d="m260.686 184h22.627v16h-22.627z" transform="matrix(.707 -.707 .707 .707 -56.098 248.569)"/><path d="m236.686 160h22.627v16h-22.627z" transform="matrix(.707 -.707 .707 .707 -46.156 224.569)"/><path d="m308.686 232h22.627v16h-22.627z" transform="matrix(.707 -.707 .707 .707 -75.98 296.569)"/><path d="m356.686 280h22.627v16h-22.627z" transform="matrix(.707 -.707 .707 .707 -95.862 344.569)"/><path d="m332.686 256h22.627v16h-22.627z" transform="matrix(.707 -.707 .707 .707 -85.921 320.569)"/><path d="m180.686 168h22.627v16h-22.627z" transform="matrix(.707 -.707 .707 .707 -68.215 187.314)"/><path d="m252.686 240h22.627v16h-22.627z" transform="matrix(.707 -.707 .707 .707 -98.039 259.314)"/><path d="m228.686 216h22.627v16h-22.627z" transform="matrix(.707 -.707 .707 .707 -88.098 235.314)"/><path d="m204.686 192h22.627v16h-22.627z" transform="matrix(.707 -.707 .707 .707 -78.156 211.314)"/><path d="m276.686 264h22.627v16h-22.627z" transform="matrix(.707 -.707 .707 .707 -107.98 283.314)"/><path d="m324.686 312h22.627v16h-22.627z" transform="matrix(.707 -.707 .707 .707 -127.862 331.314)"/><path d="m300.686 288h22.627v16h-22.627z" transform="matrix(.707 -.707 .707 .707 -117.921 307.314)"/></g><path d="m200 280-19.49 17.19-12.02 10.62-65.61 57.89a675.483 675.483 0 0 0 -72.07 74.13 29.366 29.366 0 0 0 41.36 41.36q19.875-16.575 38.45-34.61 18.54-18.03 35.68-37.46l57.89-65.61 10.62-12.02 17.19-19.49zm-138.34 181.66-11.32-11.32 16-16 11.32 11.32z" fill="#415e89"/><path d="m214.81 331.49-10.62 12.02-35.7-35.7 12.02-10.62z" fill="#2f486e"/></g></svg>