<svg id="Capa_1" enable-background="new 0 0 512 512" height="512" viewBox="0 0 512 512" width="512" xmlns="http://www.w3.org/2000/svg"><g><path d="m450.627 72.939-187.852 15.452-201.403-15.452-13.608-64.233c-.95-4.485 2.471-8.706 7.055-8.706h402.362c4.584 0 8.005 4.221 7.055 8.706z" fill="#e5edfc"/><path d="m457.181 0h-30.905c4.584 0 8.005 4.221 7.055 8.706l-13.608 64.233h30.905l13.608-64.233c.95-4.485-2.471-8.706-7.055-8.706z" fill="#d1d9fc"/><path d="m92.278 512h327.444c17.069 0 30.905-13.837 30.905-30.905v-92.034l-15.453-43.937 15.453-40.619v-231.566h-389.255v231.566l15.453 40.619-15.453 43.937v92.034c0 17.068 13.837 30.905 30.906 30.905z" fill="#fd4755"/><path d="m419.722 72.939v408.156c0 17.069-13.837 30.905-30.905 30.905h30.905c17.069 0 30.905-13.837 30.905-30.905v-92.034l-15.453-42.278 15.453-42.278v-231.566z" fill="#fb2b3a"/><path d="m61.372 304.505h389.255v84.556h-389.255z" fill="#e5edfc"/><path d="m419.722 304.505h30.905v84.556h-30.905z" fill="#d1d9fc"/><g><circle cx="256" cy="346.783" fill="#ffc344" r="109.824"/><path d="m256 236.959c-5.246 0-10.403.376-15.453 1.087 53.336 7.512 94.371 53.328 94.371 108.737s-41.035 101.224-94.371 108.737c5.05.711 10.207 1.087 15.453 1.087 60.654 0 109.824-49.17 109.824-109.824s-49.17-109.824-109.824-109.824z" fill="#feb237"/><g fill="#695d69"><g><ellipse cx="188.075" cy="335.404" rx="12.806" ry="16.982"/><ellipse cx="323.925" cy="335.404" rx="12.806" ry="16.982"/></g><g><ellipse cx="228.683" cy="296.558" rx="14.967" ry="19.848"/><ellipse cx="283.317" cy="296.558" rx="14.967" ry="19.848"/></g><path d="m213.044 371.126c15.231-39.156 70.681-39.156 85.912 0 .1.258.199.517.296.778 4.12 11.082 8.369 26.066.291 36.403-8.01 10.251-20.276 10.354-30.304 5.188-8.269-4.26-18.21-4.26-26.479 0-10.028 5.166-22.293 5.062-30.304-5.188-8.078-10.337-3.828-25.321.291-36.403.098-.261.197-.521.297-.778z"/></g></g><path d="m364.895 184.166h-217.79c-3.866 0-7-3.134-7-7v-36.479c0-3.866 3.134-7 7-7h217.791c3.866 0 7 3.134 7 7v36.479c-.001 3.866-3.135 7-7.001 7z" fill="#e5edfc"/></g></svg>