<svg id="Capa_1" enable-background="new 0 0 512 512" height="512" viewBox="0 0 512 512" width="512" xmlns="http://www.w3.org/2000/svg"><g><path d="m386.679 115.673v280.653c0 4.14-2.952 7.71-6.974 8.303-25.399 3.743-44.967 25.842-45.312 52.677-.379 29.455 22.915 54.06 51.817 54.681 12.028.259 23.164-3.573 32.17-10.22 2.872-2.12 6.757-2.12 9.629 0 9.006 6.647 20.142 10.479 32.17 10.22 28.902-.621 52.196-25.226 51.817-54.681-.346-26.835-19.913-48.934-45.313-52.677-4.021-.593-6.974-4.163-6.974-8.303v-280.653c0-4.14 2.952-7.71 6.974-8.303 25.399-3.743 44.967-25.842 45.313-52.677.379-29.455-22.915-54.06-51.817-54.681-12.028-.259-23.165 3.573-32.17 10.22-2.872 2.12-6.756 2.12-9.629 0-9.005-6.647-20.142-10.479-32.17-10.22-28.902.621-52.196 25.226-51.817 54.681.345 26.835 19.913 48.934 45.313 52.677 4.021.593 6.973 4.163 6.973 8.303z" fill="#e5edfc"/><g><path d="m466.683 404.629c-4.021-.593-6.974-4.162-6.974-8.303v-280.653c0-4.14 2.952-7.71 6.973-8.303 25.399-3.743 44.967-25.842 45.313-52.677.379-29.455-22.915-54.06-51.817-54.681-5.805-.125-11.398.711-16.648 2.348 21.922 6.857 37.873 27.922 37.559 52.333-.346 26.835-19.913 48.934-45.313 52.677-4.021.593-6.973 4.163-6.973 8.303v280.653c0 4.14 2.952 7.71 6.974 8.303 25.399 3.743 44.967 25.842 45.313 52.677.314 24.411-15.637 45.476-37.559 52.333 5.25 1.637 10.843 2.473 16.648 2.348 28.902-.621 52.196-25.226 51.817-54.681-.346-26.835-19.914-48.934-45.313-52.677z" fill="#d1d9fc"/></g><g><g><g><g><path d="m166.876 241.057c-8.534 0-15.453-6.919-15.453-15.453v-31.904c0-8.534 6.919-15.453 15.453-15.453s15.453 6.919 15.453 15.453v31.904c0 8.534-6.919 15.453-15.453 15.453z" fill="#6fd8fd"/></g></g><g><g><path d="m114.843 254.999c-7.391 4.267-16.842 1.735-21.109-5.656l-15.952-27.63c-4.267-7.391-1.735-16.842 5.656-21.109s16.842-1.735 21.109 5.656l15.952 27.63c4.267 7.391 1.735 16.842-5.656 21.109z" fill="#6fd8fd"/></g></g><g><g><path d="m76.752 293.09c-4.267 7.391-13.718 9.923-21.109 5.656l-27.63-15.952c-7.391-4.267-9.923-13.718-5.656-21.109s13.718-9.923 21.109-5.656l27.63 15.952c7.39 4.268 9.923 13.718 5.656 21.109z" fill="#6fd8fd"/></g></g><g><g><path d="m62.809 345.124c0 8.534-6.919 15.453-15.453 15.453h-31.903c-8.534-.001-15.453-6.919-15.453-15.453s6.919-15.453 15.453-15.453h31.904c8.534 0 15.452 6.919 15.452 15.453z" fill="#6fd8fd"/></g></g><g><g><path d="m76.752 397.157c4.267 7.391 1.735 16.842-5.656 21.109l-27.63 15.952c-7.391 4.267-16.842 1.735-21.109-5.656s-1.735-16.842 5.656-21.109l27.63-15.952c7.391-4.267 16.842-1.735 21.109 5.656z" fill="#6fd8fd"/></g></g><g><g><path d="m114.843 435.248c7.391 4.267 9.923 13.718 5.656 21.109l-15.952 27.63c-4.267 7.391-13.718 9.923-21.109 5.656s-9.923-13.718-5.656-21.109l15.952-27.63c4.267-7.39 13.718-9.923 21.109-5.656z" fill="#6fd8fd"/></g></g><g><g><path d="m166.876 449.191c8.534 0 15.453 6.919 15.453 15.453v31.904c0 8.534-6.919 15.453-15.453 15.453s-15.453-6.918-15.453-15.453v-31.904c0-8.535 6.919-15.453 15.453-15.453z" fill="#6fd8fd"/></g></g><g><g><path d="m218.91 435.248c7.391-4.267 16.842-1.735 21.109 5.656l15.952 27.63c4.267 7.391 1.735 16.842-5.656 21.109s-16.842 1.735-21.109-5.656l-15.952-27.63c-4.268-7.391-1.735-16.842 5.656-21.109z" fill="#6fd8fd"/></g></g><g><g><path d="m257.001 397.157c4.267-7.391 13.718-9.923 21.109-5.656l27.63 15.952c7.391 4.267 9.923 13.718 5.656 21.109s-13.718 9.923-21.109 5.656l-27.63-15.952c-7.391-4.267-9.923-13.718-5.656-21.109z" fill="#6fd8fd"/></g></g><g><g><path d="m270.943 345.124c0-8.534 6.919-15.453 15.453-15.453h31.904c8.534 0 15.453 6.919 15.453 15.453s-6.918 15.453-15.453 15.453h-31.904c-8.534 0-15.453-6.919-15.453-15.453z" fill="#6fd8fd"/></g></g><g><g><path d="m257.001 293.09c-4.267-7.391-1.735-16.842 5.656-21.109l27.63-15.952c7.391-4.267 16.842-1.735 21.109 5.656s1.735 16.842-5.656 21.109l-27.63 15.952c-7.391 4.268-16.842 1.735-21.109-5.656z" fill="#6fd8fd"/></g></g><g><g><path d="m218.91 254.999c-7.391-4.267-9.923-13.718-5.656-21.109l15.952-27.63c4.267-7.391 13.718-9.923 21.109-5.656s9.923 13.718 5.656 21.109l-15.952 27.63c-4.268 7.391-13.718 9.923-21.109 5.656z" fill="#6fd8fd"/></g></g><path d="m286.946 345.124c0 58.427-34.189 103.575-84.682 120.06-11.652 3.804-21.904 10.145-35.388 10.145-5.229 0-10.386-.308-15.454-.908-64.626-7.642-114.751-62.616-114.751-129.298s50.125-121.655 114.751-129.298c5.068-.599 10.225.841 15.454.841 35.955 0 65.561 23.182 89.124 46.745 23.562 23.563 30.946 45.758 30.946 81.713z" fill="#28c1fd"/><path d="m166.876 214.919c-5.23 0-10.384.317-15.453.917 64.625 7.643 114.753 62.608 114.753 129.288s-50.127 121.645-114.753 129.288c5.068.599 10.223.917 15.453.917 71.91 0 130.205-58.295 130.205-130.205s-58.295-130.205-130.205-130.205z" fill="#0eb0e2"/></g><g fill="#6fd8fd"><circle cx="166.876" cy="270.428" r="18.028"/><circle cx="166.876" cy="419.819" r="18.028"/><circle cx="231.564" cy="382.471" r="18.028"/><circle cx="231.564" cy="307.776" r="18.028"/><circle cx="107.943" cy="382.471" r="18.028"/><circle cx="107.943" cy="307.776" r="18.028"/><circle cx="166.876" cy="345.124" r="18.028"/></g></g></g></svg>