<svg height="480pt" viewBox="0 0 480 480" width="480pt" xmlns="http://www.w3.org/2000/svg"><path d="m400 480h-320c-26.511719 0-48-21.488281-48-48v-160h416v160c0 26.511719-21.488281 48-48 48zm0 0" fill="#ffe352"/><path d="m400 440h-320c-8.839844 0-16-7.160156-16-16v-200c0-8.839844 7.160156-16 16-16h320c8.839844 0 16 7.160156 16 16v200c0 8.839844-7.160156 16-16 16zm0 0" fill="#ffb0aa"/><path d="m445.0625 122.199219c-13.230469-14.886719-21.0625-33.800781-21.0625-53.71875v-68.480469h-368v68.480469c0 19.917969-7.832031 38.832031-21.0625 53.71875-15.882812 17.863281-34.9375 50.082031-34.9375 101.800781h480c0-51.71875-19.054688-83.9375-34.9375-101.800781zm0 0" fill="#ffe352"/><path d="m64 224v96l40 48 40-40c0 4.414062 3.585938 8 8 8h32c4.414062 0 8-3.585938 8-8 0 4.414062 3.585938 8 8 8h32c4.414062 0 8-3.585938 8-8 0 4.414062 3.585938 8 8 8h32c4.414062 0 8-3.585938 8-8 0 4.414062 3.585938 8 8 8h32c4.414062 0 8-3.585938 8-8l40 40 40-48v-96zm0 0" fill="#edeff1"/><path d="m64 318.550781c5.214844.882813 10.535156 1.449219 16 1.449219h80c33.367188 0 62.792969-17.136719 80-43.046875 17.207031 25.910156 46.632812 43.046875 80 43.046875h80c5.464844 0 10.785156-.566406 16-1.449219v-94.550781h-352zm0 0" fill="#d3d3d3"/><g fill="#edeff1"><path d="m376 376-40 40c0-4.414062-3.585938-8-8-8h-32c-4.414062 0-8 3.585938-8 8 0-4.414062-3.585938-8-8-8h-32c-4.414062 0-8 3.585938-8 8 0-4.414062-3.585938-8-8-8h-32c-4.414062 0-8 3.585938-8 8 0-4.414062-3.585938-8-8-8h-32c-4.414062 0-8 3.585938-8 8l-40-40-40 40v8c0 8.839844 7.160156 16 16 16h320c8.839844 0 16-7.160156 16-16v-8zm0 0"/><path d="m240 144h160c44.183594 0 80 35.816406 80 80s-35.816406 80-80 80h-80c-44.183594 0-80-35.816406-80-80zm0 0"/><path d="m240 144h-160c-44.183594 0-80 35.816406-80 80s35.816406 80 80 80h80c44.183594 0 80-35.816406 80-80zm0 0"/><path d="m400 144h-320c-44.183594 0-80 35.816406-80 80s35.816406 80 80 80h80c44.183594 0 80-35.816406 80-80 0 44.183594 35.816406 80 80 80h80c44.183594 0 80-35.816406 80-80s-35.816406-80-80-80zm0 0"/></g><path d="m240 112h-32c-17.671875 0-32 14.328125-32 32v6.054688c0 6.371093 2.527344 12.472656 7.03125 16.96875l15.601562 15.601562c6 6 14.144532 9.375 22.625 9.375h37.484376c8.488281 0 16.625-3.367188 22.625-9.375l15.601562-15.601562c4.503906-4.496094 7.03125-10.597657 7.03125-16.96875v-6.054688c0-17.671875-14.328125-32-32-32zm0 0" fill="#ffb236"/><path d="m344 392c0-10.542969-6.847656-19.40625-16.3125-22.625-1.199219-5.359375-5.96875-9.375-11.6875-9.375-2.503906 0-4.816406.769531-6.742188 2.070312-1.410156-1.246093-3.21875-2.070312-5.257812-2.070312-2.640625 0-4.871094 1.359375-6.328125 3.335938-2.6875-2.0625-6.015625-3.335938-9.671875-3.335938s-6.984375 1.273438-9.671875 3.335938c-1.457031-1.976563-3.6875-3.335938-6.328125-3.335938-2.039062 0-3.847656.824219-5.257812 2.070312-1.925782-1.300781-4.246094-2.070312-6.742188-2.070312-5.71875 0-10.488281 4.015625-11.6875 9.375-9.464844 3.21875-16.3125 12.082031-16.3125 22.625zm0 0" fill="#80d6fb"/><path d="m352 400c0-8.839844-7.160156-16-16-16h-96c-8.839844 0-16 7.160156-16 16v24c0 8.839844 7.160156 16 16 16h96c8.839844 0 16-7.160156 16-16h128v-24zm0 0" fill="#6e83b7"/><path d="m256 352c0 4.417969-3.582031 8-8 8s-8-3.582031-8-8 3.582031-8 8-8 8 3.582031 8 8zm0 0" fill="#80d6fb"/><path d="m240 364c0 6.628906-5.371094 12-12 12s-12-5.371094-12-12 5.371094-12 12-12 12 5.371094 12 12zm0 0" fill="#80d6fb"/></svg>