<svg height="512" viewBox="0 0 512 512" width="512" xmlns="http://www.w3.org/2000/svg"><path d="m40 200h432v288h-432z" fill="#e4e4e2"/><path d="m40 200h432v16h-432z" fill="#c3c3c3"/><path d="m216 408h256v32h-256z" fill="#8f563b"/><path d="m216 440.164h256v7.48h-256z" fill="#c3c3c3"/><path d="m24 96h464v104h-464z" fill="#e4e4e2"/><path d="m216 200h256v208h-256z" fill="#a8d6da"/><path d="m216 200h256v51.365h-256z" fill="#8aced8"/><path d="m40 200h128v64h-128z" fill="#8f563b"/><path d="m40 200h128v16h-128z" fill="#533222"/><path d="m40 264h128v224h-128z" fill="#85bc94"/><path d="m40 264h128v8.002h-128z" fill="#6b9777"/><path d="m400 296h-32v-32h-48v32h-32v48h32v32h48v-32h32z" fill="#85bc94"/><path d="m216 200h256v32h-256z" fill="#8f563b"/><path d="m216 200h256v16h-256z" fill="#533222"/><path d="m248 336a227.093 227.093 0 0 0 10.52-49.17l3.55-35.47 1.93-19.36h-48v176h48l-16-48z" fill="#428dc5"/><path d="m216 336h32v24h-32z" fill="#3775a4"/><path d="m72 296h64v80h-64z" fill="#428dc5"/><path d="m72 432a8 8 0 0 1 -8-8v-16a8 8 0 0 1 8-8h16a8 8 0 0 1 0 16h-8v8a8 8 0 0 1 -8 8z" fill="#e4e4e2"/><path d="m24 168h464v32h-464z" fill="#6b9777"/><path d="m64 224h16v16h-16z" fill="#5b3726"/><path d="m96 224h48v16h-48z" fill="#5b3726"/><path d="m120 296-48 64v16h24l40-56v-24z" fill="#6cbae5"/><circle cx="256" cy="113" fill="#fbb540" r="89"/><g fill="#744630"><path d="m272 161a16 16 0 0 0 0-32 16 16 0 0 0 -32 0v.012a16 16 0 1 0 .31 31.988z"/><circle cx="256" cy="76.997" r="12"/><circle cx="212" cy="100.997" r="12"/><circle cx="300" cy="100.997" r="12"/></g><path d="m264 232-1.93 19.36h-46.07v-19.36z" fill="#3d83b6"/><path d="m440 336a227.093 227.093 0 0 1 -10.52-49.17l-3.55-35.47-1.93-19.36h48v176h-48l16-48z" fill="#428dc5"/><path d="m440 336h32v24h-32z" fill="#3775a4"/><path d="m424 232 1.93 19.36h46.07v-19.36z" fill="#3d83b6"/></svg>