<svg height="512" viewBox="0 0 512 512" width="512" xmlns="http://www.w3.org/2000/svg"><g id="Flat"><path d="m24 256a31.662 31.662 0 0 1 12.881-25.491l8.833-6.509 19.838-72.451a32 32 0 0 1 30.864-23.549h319.168a32 32 0 0 1 30.864 23.549l19.838 72.451 8.833 6.509a31.662 31.662 0 0 1 12.881 25.491z" fill="#4db6e4"/><path d="m488 256a31.662 31.662 0 0 1 -12.881 25.491l-8.833 6.509-19.838 72.451a32 32 0 0 1 -30.864 23.549h-319.168a32 32 0 0 1 -30.864-23.549l-19.838-72.451-8.833-6.509a31.662 31.662 0 0 1 -12.881-25.491z" fill="#348ed8"/><path d="m280 256a31.64 31.64 0 0 1 -12.88 25.49l-8.83 6.51-18.29 66.79-1.55 5.66a32 32 0 0 1 -29.52 23.52q-.675.03-1.35.03h-111.16q-.675 0-1.35-.03a32 32 0 0 1 -29.52-23.52l-1.55-5.66-18.29-66.79-8.83-6.51a31.657 31.657 0 0 1 0-50.98l8.83-6.51 18.29-66.79 1.55-5.66a32 32 0 0 1 29.52-23.52q.675-.03 1.35-.03h111.16q.675 0 1.35.03a32 32 0 0 1 29.52 23.52l1.55 5.66 18.29 66.79 8.83 6.51a31.664 31.664 0 0 1 12.88 25.49z" fill="#2f486e"/><path d="m238.45 151.55a32 32 0 0 0 -29.52-23.52q-.675-.03-1.35-.03h-111.16q-.675 0-1.35.03a32 32 0 0 0 -29.52 23.52l-1.55 5.66v197.58l1.55 5.66a32 32 0 0 0 29.52 23.52q.675.03 1.35.03h111.16q.675 0 1.35-.03a32 32 0 0 0 29.52-23.52l1.55-5.66v-197.58zm-134.45 216.45h-7.58c-6.14 0-16.42-8-16.42-16v-24h24zm0-56h-24v-48h24zm0-64h-24v-48h24zm0-64h-24v-24c0-8 10.28-16 16.42-16h7.58zm40 184h-24v-40h24zm0-56h-24v-48h24zm0-64h-24v-48h24zm0-64h-24v-40h24zm40 184h-24v-40h24zm0-56h-24v-48h24zm0-64h-24v-48h24zm0-64h-24v-40h24zm40 168c0 8-10.27 16-16.42 16h-7.58v-40h24zm0-40h-24v-48h24zm0-64h-24v-48h24zm0-64h-24v-40h7.58c10.22-1.967 16.42 8 16.42 16z" fill="#415e89"/><path d="m456 296h-160v-16h160a8 8 0 0 1 8 8 8 8 0 0 1 -8 8z" fill="#2d7dbe"/><path d="m296 216h16v16h-16z" fill="#79c5e7"/><path d="m328 216v16h128a8 8 0 0 0 8-8 8 8 0 0 0 -8-8z" fill="#79c5e7"/><path d="m192 88v40h32v-32h64v32h32v-40a24 24 0 0 0 -24-24h-80a24 24 0 0 0 -24 24z" fill="#34507b"/><g fill="#2f486e"><rect height="50.596" rx="8" transform="matrix(.949 -.316 .316 .949 -40.877 100.105)" width="16.001" x="280" y="150.702"/><rect height="50.596" rx="8" transform="matrix(.949 -.316 .316 .949 -38.824 112.754)" width="16.001" x="320" y="150.702"/><rect height="50.596" rx="8" transform="matrix(.949 -.316 .316 .949 -36.772 125.404)" width="16.001" x="360" y="150.702"/><rect height="50.596" rx="8" transform="matrix(.949 -.316 .316 .949 -34.719 138.053)" width="16.001" x="400" y="150.702"/><rect height="16.001" rx="8" transform="matrix(.316 -.949 .949 .316 -121.828 502.976)" width="50.596" x="262.702" y="328"/><rect height="16.001" rx="8" transform="matrix(.316 -.949 .949 .316 -94.476 540.924)" width="50.596" x="302.702" y="328"/><rect height="16.001" rx="8" transform="matrix(.316 -.949 .949 .316 -67.125 578.871)" width="50.596" x="342.702" y="328"/><rect height="16.001" rx="8" transform="matrix(.316 -.949 .949 .316 -39.773 616.819)" width="50.596" x="382.702" y="328"/></g></g></svg>