<svg height="512" viewBox="0 0 512 512" width="512" xmlns="http://www.w3.org/2000/svg"><g id="Flat"><path d="m488 376c-109.176 64-354.824 64-464 0l32-168h400z" fill="#d65246"/><path d="m256 400c-60.849 0-119.745-7.781-165.841-21.908l4.69-15.3c44.617 13.677 101.851 21.208 161.151 21.208 57.8 0 113.917-7.194 158.006-20.258a268.989 268.989 0 0 0 47.909-19.552l8.792-4.584a8 8 0 0 1 10.793 3.394 8 8 0 0 1 -3.395 10.793l-8.792 4.584a285.056 285.056 0 0 1 -50.762 20.706c-45.523 13.489-103.251 20.917-162.551 20.917z" fill="#c14135"/><path d="m456 208c0 11.02-15.46 21.17-41.46 29.27-36.57 11.39-93.98 18.73-158.54 18.73s-121.97-7.34-158.54-18.73c-26-8.1-41.46-18.25-41.46-29.27 0-19.7 49.46-36.63 120.2-44.03a775.691 775.691 0 0 1 79.8-3.97 775.691 775.691 0 0 1 79.8 3.97c70.74 7.4 120.2 24.33 120.2 44.03z" fill="#348ed8"/><path d="m414.54 237.27c-36.57 11.39-93.98 18.73-158.54 18.73s-121.97-7.34-158.54-18.73a40.042 40.042 0 0 1 38.54-29.27 40.015 40.015 0 0 1 40-40c0-1.36.07-2.7.2-4.03a40.025 40.025 0 0 1 39.8-35.97 40 40 0 0 1 80 0 40.025 40.025 0 0 1 39.8 35.97c.13 1.33.2 2.67.2 4.03a40 40 0 0 1 40 40 40.018 40.018 0 0 1 38.54 29.27z" fill="#ffb431"/><g fill="#f4970c"><path d="m224 216h-16a40.045 40.045 0 0 1 40-40v16a24.027 24.027 0 0 0 -24 24z"/><path d="m256 136h16v16h-16z"/><path d="m288 200h16v16h-16z"/><path d="m168 200h16v16h-16z"/></g><path d="m48.131 316.364h57.471v16h-57.471z" fill="#df6257" transform="matrix(.184 -.983 .983 .184 -256.106 340.167)"/><path d="m77.192 265.02h18.336v16h-18.336z" fill="#df6257" transform="matrix(.179 -.984 .984 .179 -197.705 309.146)"/></g></svg>