<svg id="Capa_1" enable-background="new 0 0 512 512" height="512" viewBox="0 0 512 512" width="512" xmlns="http://www.w3.org/2000/svg"><g><g><path d="m365 504.5h-218c-16.569 0-30-13.431-30-30v-437c0-16.569 13.431-30 30-30h218c16.569 0 30 13.431 30 30v437c0 16.569-13.431 30-30 30z" fill="#e5edfc"/><path d="m365 7.5h-33.638c16.569 0 30 13.431 30 30v437c0 16.569-13.431 30-30 30h33.638c16.569 0 30-13.431 30-30v-437c0-16.569-13.431-30-30-30z" fill="#d1d9fc"/><path d="m365 512h-218c-20.678 0-37.5-16.822-37.5-37.5v-437c0-20.678 16.822-37.5 37.5-37.5h218c20.678 0 37.5 16.822 37.5 37.5v437c0 20.678-16.822 37.5-37.5 37.5zm-218-497c-12.407 0-22.5 10.093-22.5 22.5v437c0 12.407 10.093 22.5 22.5 22.5h218c12.407 0 22.5-10.093 22.5-22.5v-437c0-12.407-10.093-22.5-22.5-22.5z" fill="#695d69"/></g><path d="m304.061 46.505h-96.122c-11.046 0-20-8.954-20-20v-19.005h136.122v19.005c0 11.046-8.954 20-20 20z" fill="#695d69"/><g fill="#695d69"><g><ellipse cx="172.357" cy="187.877" rx="15.769" ry="20.911"/><ellipse cx="339.643" cy="187.877" rx="15.769" ry="20.911"/></g><g><ellipse cx="222.362" cy="140.042" rx="18.43" ry="24.44"/><ellipse cx="289.638" cy="140.042" rx="18.43" ry="24.44"/></g><path d="m203.104 231.865c18.755-48.217 87.037-48.217 105.793 0 .123.317.245.636.364.958 5.073 13.647 10.306 32.098.359 44.827-9.864 12.623-24.968 12.75-37.316 6.389-10.183-5.245-22.424-5.245-32.607 0-12.349 6.361-27.452 6.234-37.316-6.389-9.947-12.729-4.714-31.18.359-44.827.119-.322.24-.641.364-.958z"/></g><g><path d="m355.412 355.886h-198.824c-4.142 0-7.5-3.358-7.5-7.5s3.358-7.5 7.5-7.5h198.824c4.142 0 7.5 3.358 7.5 7.5s-3.358 7.5-7.5 7.5z" fill="#695d69"/></g><g><path d="m355.412 400.886h-198.824c-4.142 0-7.5-3.358-7.5-7.5s3.358-7.5 7.5-7.5h198.824c4.142 0 7.5 3.358 7.5 7.5s-3.358 7.5-7.5 7.5z" fill="#695d69"/></g><g><path d="m295.412 445.886h-138.824c-4.142 0-7.5-3.358-7.5-7.5s3.358-7.5 7.5-7.5h138.824c4.142 0 7.5 3.358 7.5 7.5s-3.358 7.5-7.5 7.5z" fill="#695d69"/></g></g></svg>