<svg height="480pt" viewBox="0 -16 480 480" width="480pt" xmlns="http://www.w3.org/2000/svg"><path d="m472 296h-9.753906c-3.671875 0-6.871094 2.496094-7.757813 6.054688l-5.390625 21.585937c-5.355468 21.367187-24.546875 36.359375-46.578125 36.359375h-19.359375c-1.289062-8.207031-4.089844-16.136719-8.433594-23.289062l-150.726562-248.710938h-40v-88h-64c-15.503906 0-30.046875 7.488281-39.054688 20.105469l-25.648437 35.894531h-39.296875c-8.839844 0-16 7.160156-16 16v24c0 26.511719 21.488281 48 48 48h37.335938l26.664062 40v224h-16c-8.839844 0-16 7.160156-16 16v8c0 8.839844 7.160156 16 16 16h224c26.855469 0 49.808594-16.550781 59.304688-40h20.695312c44.183594 0 80-35.816406 80-80v-24c0-4.414062-3.585938-8-8-8zm0 0" fill="#edeff1"/><path d="m320 448h-128c-13.230469 0-24-10.769531-24-24s10.769531-24 24-24h26.648438l-15.113282-13.167969c-13.398437-13.375-20.40625-30.65625-20.136718-49.046875.273437-18.378906 7.808593-35.449218 21.210937-48.074218 26.222656-24.71875 69.125-23.277344 95.589844 3.191406l32.839843 32.839844-11.3125 11.3125-32.839843-32.839844c-20.421875-20.421875-53.300781-21.71875-73.3125-2.855469-10.222657 9.625-15.964844 22.648437-16.175781 36.664063-.207032 14.023437 5.136718 27.199218 15.050781 37.121093l30.808593 26.832031c2.511719 2.191407 3.40625 5.710938 2.230469 8.832032s-4.152343 5.191406-7.488281 5.191406h-48c-4.414062 0-8 3.585938-8 8s3.585938 8 8 8h128c4.414062 0 8-3.585938 8-8s-3.585938-8-8-8h-8v-16h8c13.230469 0 24 10.769531 24 24s-10.769531 24-24 24zm0 0" fill="#d3d3d3"/><path d="m180.328125 88c-10.191406 32.457031-40.503906 56-76.328125 56h-18.664062l10.664062 16h16c44.640625 0 82.144531-30.664062 92.839844-72zm0 0" fill="#6e83b7"/><path d="m196.488281 144h-28.488281c-18.367188 0-32.96875-15.433594-31.953125-33.777344l4.449219-80c.945312-16.957031 14.96875-30.222656 31.953125-30.222656h19.941406c17.042969 0 31.089844 13.34375 31.960937 30.359375l4.105469 80c.925781 18.296875-13.648437 33.640625-31.96875 33.640625zm0 0" fill="#d3d3d3"/><path d="m24 64v-8h-8c-8.839844 0-16 7.160156-16 16v8h8c8.839844 0 16-7.160156 16-16zm0 0" fill="#d3d3d3"/><path d="m473.375 353.375-81.664062-81.664062c10.265624-16.109376 16.289062-35.191407 16.289062-55.710938 0-57.441406-46.558594-104-104-104s-104 46.558594-104 104 46.558594 104 104 104c20.519531 0 39.601562-6.023438 55.710938-16.289062l81.65625 81.65625c8.839843 8.839843 23.160156 8.839843 32 0 8.839843-8.832032 8.839843-23.160157.007812-31.992188zm0 0" fill="#6e83b7"/><path d="m392 216c0 48.601562-39.398438 88-88 88s-88-39.398438-88-88 39.398438-88 88-88 88 39.398438 88 88zm0 0" fill="#80d6fb"/><path d="m256.664062 141.894531c-24.425781 15.640625-40.664062 42.945313-40.664062 74.105469 0 48.601562 39.398438 88 88 88 15.960938 0 30.886719-4.3125 43.792969-11.742188zm0 0" fill="#ffd3b3"/><g fill="#edeff1"><path d="m250.070312 162.230469c10.488282-6.09375 29.289063-13.855469 48.058594-5.871094 0 0-11.808594 2.175781-33.953125 23.089844-3.121093 2.941406-8.046875 2.871093-11.085937-.144531l-4.554688-4.503907c-3.726562-3.6875-3-9.929687 1.535156-12.570312zm0 0"/><path d="m234.113281 210.222656c10.488281-6.085937 29.285157-13.847656 48.054688-5.855468 0 0-11.816407 2.175781-33.960938 23.082031-3.117187 2.941406-8.046875 2.871093-11.085937-.144531l-4.554688-4.511719c-3.726562-3.6875-2.992187-9.929688 1.546875-12.570313zm0 0"/><path d="m287.824219 204.425781c10.625-5.859375 29.582031-13.203125 48.175781-4.800781 0 0-11.855469 1.917969-34.457031 22.328125-3.183594 2.871094-8.101563 2.695313-11.085938-.394531l-4.449219-4.605469c-3.640624-3.769531-2.777343-9.992187 1.816407-12.527344zm0 0"/><path d="m247.824219 256.59375c10.625-5.859375 29.582031-13.203125 48.175781-4.800781 0 0-11.855469 1.917969-34.457031 22.328125-3.183594 2.871094-8.101563 2.695312-11.085938-.394532l-4.449219-4.605468c-3.640624-3.769532-2.777343-9.992188 1.816407-12.527344zm0 0"/><path d="m303.824219 232.59375c10.625-5.859375 29.582031-13.203125 48.175781-4.800781 0 0-11.855469 1.917969-34.457031 22.328125-3.183594 2.871094-8.101563 2.695312-11.085938-.394532l-4.449219-4.605468c-3.640624-3.769532-2.777343-9.992188 1.816407-12.527344zm0 0"/><path d="m308.078125 276.425781c10.625-5.859375 29.585937-13.203125 48.179687-4.800781 0 0-11.859374 1.917969-34.457031 22.328125-3.183593 2.871094-8.105469 2.695313-11.089843-.394531l-4.445313-4.605469c-3.648437-3.769531-2.777344-9.992187 1.8125-12.527344zm0 0"/></g></svg>