<svg id="Capa_1" enable-background="new 0 0 512 512" height="512" viewBox="0 0 512 512" width="512" xmlns="http://www.w3.org/2000/svg"><g><g><path d="m132.549 321.404 45.244 33.122 118.383-161.709-38.781-41.951z" fill="#d1d9fc"/><g><path d="m36.02 502.294c22.39 16.391 53.828 11.528 70.219-10.862l77.132-105.361-40.627-45.195-40.454-14.163-77.131 105.362c-16.391 22.39-11.528 53.828 10.861 70.219z" fill="#bef8a8"/><path d="m102.361 326.766 80.939 59.254c9.657 7.07 23.216 4.972 30.286-4.685l.773-1.055c7.07-9.657 4.972-23.216-4.685-30.286l-80.939-59.254c-9.657-7.07-23.216-4.972-30.286 4.685l-.773 1.055c-7.069 9.657-4.972 23.217 4.685 30.286z" fill="#695d69"/><path d="m209.146 349.607-79.884-58.481c-8.826-6.461-20.805-5.475-28.484 1.773l77.462 56.708c9.948 7.283 12.109 21.251 4.826 31.2-.822 1.123-1.739 2.132-2.716 3.053l2.422 1.773c9.948 7.283 23.917 5.122 31.2-4.826 7.284-9.948 5.123-23.917-4.826-31.2z" fill="#564e57"/><path d="m102.291 326.714-13.347 18.231 53.398 39.092c3.214 2.353 3.912 6.865 1.559 10.078l-72.872 99.542c-5.339 7.292-12.279 12.712-19.977 16.157 19.863 6.053 42.227-.68 55.187-18.383l77.132-105.361z" fill="#a0e38b"/></g></g><path d="m303.552 204.688c4.809-3.937 58.352-49.297 51.789-119.081-4.266-45.358-31.437-74.579-41.396-84.186-.832-.803-1.948-1.226-3.104-1.191-11.631.351-23.262-.295-34.893-.223-3.266.02-5.313 3.503-3.739 6.364 6.915 12.568 17.549 37.651 14.529 68.016-5.132 51.591-45.447 79.297-51.177 83.095-7.548 4.911-15.097 9.823-22.645 14.734 30.213 10.823 60.425 21.647 90.636 32.472z" fill="#e5edfc"/><path d="m355.342 85.607c-4.266-45.358-31.437-74.579-41.396-84.186-.832-.803-1.948-1.226-3.104-1.191-11.631.351-23.262-.295-34.893-.223-.575.004-1.109.119-1.596.315 1.861-.012 3.722-.036 5.583-.092 1.156-.035 2.271.389 3.104 1.191 9.959 9.607 37.13 38.828 41.396 84.186 5.167 54.941-26.918 94.737-43.149 111.104 7.422 2.659 14.844 5.318 22.265 7.977 4.81-3.937 58.353-49.298 51.79-119.081z" fill="#d1d9fc"/><g><g><path d="m379.451 321.404-45.244 33.122-119.129-162.728 45.029-33.416z" fill="#e5edfc"/><g><path d="m475.98 502.294c-22.39 16.391-53.828 11.528-70.219-10.862l-77.132-105.361 43.09-46.998 37.991-12.359 77.132 105.361c16.39 22.39 11.527 53.828-10.862 70.219z" fill="#bef8a8"/><path d="m409.639 326.766-80.939 59.254c-9.657 7.07-23.216 4.972-30.286-4.685l-.773-1.055c-7.07-9.657-4.972-23.216 4.685-30.286l80.939-59.254c9.657-7.07 23.216-4.972 30.286 4.685l.773 1.055c7.069 9.657 4.972 23.217-4.685 30.286z" fill="#695d69"/><path d="m413.937 295.953c-7.283-9.948-21.251-12.109-31.2-4.826l-2.422 1.773c.977.922 1.894 1.931 2.716 3.053 7.283 9.948 5.122 23.917-4.826 31.2l-77.462 56.708c7.679 7.248 19.658 8.234 28.484 1.773l79.884-58.481c9.948-7.283 12.109-21.252 4.826-31.2z" fill="#564e57"/><path d="m486.369 431.43-76.66-104.716-81.081 59.357 14.731 20.122 55.14-40.367c3.214-2.353 7.726-1.655 10.078 1.559l46.835 63.976c16.456 22.478 11.942 54.896-10.668 71.171-4.351 3.132-9.039 5.456-13.884 7.024 15.049 4.847 32.16 2.556 45.781-7.757 21.975-16.635 26.008-48.131 9.728-70.369z" fill="#a0e38b"/></g></g><g><path d="m257.395 150.866-74.971 102.409c3.364 4.158 7.087 8.039 11.149 11.572 10.373 9.021 22.666 15.548 35.812 19.205l66.791-91.235z" fill="#b6c9fd"/><path d="m260.107 158.382-45.03 33.416 66.864 91.335c18.409-5.857 34.331-17.355 45.73-32.459z" fill="#d1d9fc"/><path d="m261.676 136.001c-.219-.027-.445-1.685-.663-1.709-6.906-.782-13.624-.382-19.991 1.003-2.998.652-6.094-.414-8.078-2.754-11.574-13.649-23.107-33.178-26.066-58.747-3.5-30.25 6.699-54.977 13.419-67.511 1.525-2.843-.559-6.283-3.785-6.283h-34.959c-1.136 0-2.22.449-3.025 1.25-9.784 9.741-36.523 39.406-40.063 84.864-4.827 61.98 41.772 106.792 52.646 116.027 1.416 1.202 2.374 2.855 2.724 4.679 5.256 27.407 28.826 48.581 57.904 49.674 34.621 1.301 63.615-26.36 63.625-61.32 0-.504-1.919-1.769-1.931-2.27-.736-30.078-21.759-53.185-51.757-56.903z" fill="#d1d9fc"/><path d="m261.669 134.369c-7.136-.884-14.079-.504-20.647.926-2.998.652-6.094-.414-8.078-2.754-11.574-13.649-23.107-33.178-26.066-58.747-3.5-30.25 6.699-54.977 13.419-67.511 1.525-2.843-.559-6.283-3.784-6.283h-34.959c-1.136 0-2.22.449-3.025 1.25-2.959 2.946-7.472 7.726-12.422 14.202h19.5c3.226 0 5.309 3.44 3.785 6.283-6.72 12.534-16.919 37.261-13.419 67.511 2.959 25.569 14.491 45.098 26.066 58.747 1.984 2.34 5.08 3.406 8.078 2.754 6.568-1.429 13.51-1.81 20.647-.926 30.498 3.78 53.704 30.075 53.695 60.806-.006 17.852-7.58 33.789-19.591 44.95 28.52-5.088 50.487-29.976 50.496-60.403.009-30.729-23.197-57.025-53.695-60.805z" fill="#b6c9fd"/><circle cx="254.042" cy="195.217" fill="#695d69" r="20.663"/></g></g></g></svg>