<svg height="480pt" viewBox="0 0 480 480" width="480pt" xmlns="http://www.w3.org/2000/svg"><path d="m344 140.433594h-56v-108.433594h-83.199219c-12.992187 0-25.128906 6.496094-32.335937 17.304688l-36.464844 54.695312h-56c-8.839844 0-16 7.160156-16 16v49.144531c0 21.457031 17.398438 38.855469 38.855469 38.855469h62.855469l34.289062 48v224h280v-104zm0 0" fill="#edeff1"/><path d="m240 368h16v112h-16zm0 0" fill="#d3d3d3"/><path d="m288 480h-16v-32c.167969-23.03125 10.167969-44.992188 27.425781-60.289062 32.03125-28.390626 81.75-25.984376 113.191407 5.457031l41.046874 41.183593-11.328124 11.296876-41.039063-41.175782c-25.464844-25.457031-65.542969-27.578125-91.265625-4.785156-13.855469 12.296875-21.886719 29.921875-22.03125 48.367188zm0 0" fill="#d3d3d3"/><path d="m316.390625 140.433594h-153.824219v59.140625l19.714844 29.570312h19.710938c55.007812 0 101.214843-37.785156 114.398437-88.710937zm0 0" fill="#6e83b7"/><path d="m316.960938 208h-57.921876c-18.816406 0-33.574218-16.160156-31.871093-34.894531l10.183593-112c1.503907-16.480469 15.320313-29.105469 31.871094-29.105469h37.554688c16.550781 0 30.367187 12.625 31.871094 29.105469l10.183593 112c1.695313 18.734375-13.054687 34.894531-31.871093 34.894531zm0 0" fill="#d3d3d3"/><path d="m88 104h-8c-8.839844 0-16 7.160156-16 16v8c13.257812 0 24-10.742188 24-24zm0 0" fill="#d3d3d3"/><path d="m0 184 200 97.847656 184.640625-71.015625 55.359375-210.832031zm0 0" fill="#80d6fb"/><path d="m384.640625 210.832031-38.441406-66.585937-7.550781-83.140625c-.550782-6.050781-2.785157-11.5625-6.175782-16.136719l-268.472656 112.269531v2.761719c0 26.511719 21.488281 48 48 48h53.710938l34.289062 48v25.847656zm0 0" fill="#46bee8"/></svg>