<svg height="512" viewBox="0 0 512 512" width="512" xmlns="http://www.w3.org/2000/svg"><path d="m144 392h136v32h-136z" fill="#c3c3c3"/><path d="m144 408h136v16h-136z" fill="#a8a8a8"/><path d="m376 24a88 88 0 0 0 -65.119 147.191l1.119 68.809 62.424-34c50.176-6 89.576-45.4 89.576-94a88 88 0 0 0 -88-88z" fill="#fbd699"/><path d="m144.81 191.68-21.78 23.45-38.81-36.03-8.09-7.52 21.78-23.45 8.09 7.51z" fill="#ea9d2d"/><path d="m51.294 132.972h48v32h-48z" fill="#fbb540" transform="matrix(.68 -.733 .733 .68 -85.108 102.789)"/><path d="m75.061 158.092h32.008v11.042h-32.008z" fill="#da922a" transform="matrix(.68 -.733 .733 .68 -90.799 119.032)"/><g fill="#c3c3c3"><path d="m192 264a24 24 0 0 1 24 24v24a0 0 0 0 1 0 0h-48a0 0 0 0 1 0 0v-24a24 24 0 0 1 24-24z"/><path d="m168 368h-16v-24l16-8z"/><path d="m184 336h16v32h-16z"/><path d="m232 368h-16v-32l16 8z"/></g><path d="m152 344h16v8h-16z" fill="#a8a8a8"/><path d="m184 344h16v8h-16z" fill="#a8a8a8"/><path d="m216 344h16v8h-16z" fill="#a8a8a8"/><path d="m392 160a16 16 0 0 0 0-32 16 16 0 0 0 -32 0v.012a16 16 0 1 0 .31 31.988z" fill="#ea9d2d"/><circle cx="376" cy="75.997" fill="#ea9d2d" r="12"/><circle cx="332" cy="99.997" fill="#ea9d2d" r="12"/><circle cx="420" cy="99.997" fill="#ea9d2d" r="12"/><path d="m136 160 24 24h48v56 8h-56v-8h-24l-32-32z" fill="#277baa"/><path d="m152 240v24l56 8h32a32 32 0 0 1 32 32v152h48v-200a16 16 0 0 0 -16-16z" fill="#4799cf"/><circle cx="296" cy="352" fill="#fbb540" r="40"/><circle cx="296" cy="352" fill="#ea9d2d" r="16"/><path d="m336 488h-224v-16l12.117-16h195.883l16 16z" fill="#277baa"/><path d="m232 344h-80l16-32h48z" fill="#dbdbdb"/></svg>