<svg height="512" viewBox="0 0 512 512" width="512" xmlns="http://www.w3.org/2000/svg"><g id="Flat"><path d="m416 72 36.98 66.564a23.994 23.994 0 0 1 3.02 11.655v313.781a24 24 0 0 1 -24 24h-296v-337.781a23.994 23.994 0 0 0 -3.02-11.655l-36.98-66.564z" fill="#f88400"/><path d="m104 24h304a8 8 0 0 1 8 8v40a0 0 0 0 1 0 0h-320a0 0 0 0 1 0 0v-40a8 8 0 0 1 8-8z" fill="#f88400"/><path d="m96 72-36.98 66.564a23.994 23.994 0 0 0 -3.02 11.655v313.781a24 24 0 0 0 24 24h296v-337.781a23.994 23.994 0 0 1 3.02-11.655l36.98-66.564z" fill="#ffb431"/><path d="m224 280h96v88h-96z" fill="#ef7800"/><path d="m293.167 336h-42.334a16 16 0 0 1 -14.856-10.058l-11.977-29.942v-72h96v72l-11.977 29.942a16 16 0 0 1 -14.856 10.058z" fill="#f88400"/><path d="m200 280h24v-56l-32 24z" fill="#ff9721"/><path d="m344 280h-24v-56l32 24z" fill="#ff9721"/><path d="m248 248h16v16h-16z" fill="#7a432a"/><path d="m280 248h16v16h-16z" fill="#7a432a"/><path d="m280 280h-16a8 8 0 0 0 -8 8v8a8 8 0 0 0 8 8v32h16v-32a8 8 0 0 0 8-8v-8a8 8 0 0 0 -8-8z" fill="#7a432a"/><path d="m168 368h208v64h-208z" fill="#d65246"/><path d="m224 392h16v16h-16z" fill="#ffb431"/><path d="m256 392h16v16h-16z" fill="#ffb431"/><path d="m288 392h16v16h-16z" fill="#ffb431"/><path d="m320 392h16v16h-16z" fill="#ffb431"/><circle cx="144" cy="400" fill="#f88400" r="56"/><path d="m136 376h-16a8.009 8.009 0 0 1 -8 8v16a24.027 24.027 0 0 0 24-24z" fill="#7a432a"/><path d="m152 376v16a8.009 8.009 0 0 1 8 8h16a24.027 24.027 0 0 0 -24-24z" fill="#7a432a"/><path d="m144 408h-16a24.027 24.027 0 0 0 24 24v-16a8.009 8.009 0 0 1 -8-8z" fill="#7a432a"/><path d="m112 176v80l24-24 24 24v-80z" fill="#2d7dbe"/><path d="m173.142 144.615c6.6-13.877-7.88-28.354-21.757-21.757-5.148-14.477-25.622-14.477-30.77 0-13.877-6.6-28.354 7.88-21.757 21.757-14.477 5.148-14.477 25.622 0 30.77-6.6 13.877 7.88 28.354 21.757 21.757 5.148 14.477 25.622 14.477 30.77 0 13.877 6.6 28.354-7.88 21.757-21.757 14.477-5.148 14.477-25.622 0-30.77z" fill="#348ed8"/><path d="m248 136h96v16h-96z" fill="#f99e0c"/><path d="m216 136h16v16h-16z" fill="#f99e0c"/><path d="m216 168h128v16h-128z" fill="#f99e0c"/><g fill="#ea7206"><path d="m400 368h56v64h-56z"/><path d="m400 328h56v16h-56z"/><path d="m400 296h56v16h-56z"/><path d="m400 264h56v16h-56z"/><path d="m400 232h56v16h-56z"/></g></g></svg>