<svg height="512" viewBox="0 0 512 512" width="512" xmlns="http://www.w3.org/2000/svg"><path d="m368 394-224 1c-95.262-11-120-72.726-120-139 0-66.274 53.726-120 119.048-121.127h224c67.224 1.127 120.952 54.853 120.952 121.127 0 66.274-53.728 138-120 138z" fill="#55785f"/><path d="m424.278 213.8a88.047 88.047 0 0 0 -114.178-27.2 88.005 88.005 0 0 0 -108.206 0 88.052 88.052 0 0 0 -113.805 26.669 122.008 122.008 0 0 0 -59.77 74.72 120.046 120.046 0 0 0 115.681 88.011h51.508a16 16 0 0 1 15.522 12.119l4.97 19.881h80l4.97-19.881a16 16 0 0 1 15.522-12.119h51.508a120.048 120.048 0 0 0 115.677-87.994 121.418 121.418 0 0 0 -59.399-74.206z" fill="#e4e4e2"/><path d="m368 376h-51.508a16 16 0 0 0 -15.522 12.119l-4.97 19.881h-80l-4.97-19.881a16 16 0 0 0 -15.522-12.119h-51.508a120 120 0 0 1 -120-120v64a120 120 0 0 0 120 120h224a120 120 0 0 0 120-120v-64a120 120 0 0 1 -120 120z" fill="#6b9777"/><path d="m352 168a94.959 94.959 0 0 0 -41.118 9.228c-.041-.028-.081-.059-.122-.087a96.041 96.041 0 0 0 -109.52 0c-.041.028-.081.059-.122.087a96.028 96.028 0 0 0 -136.727 78.054 8 8 0 0 0 7.25 8.686c.244.022.486.032.727.032a8 8 0 0 0 7.959-7.282 80.084 80.084 0 0 1 107.089-67.905 95.691 95.691 0 0 0 -20.869 32.277 8 8 0 1 0 14.9 5.82 80.036 80.036 0 0 1 149.1 0 8 8 0 1 0 14.9-5.82 95.691 95.691 0 0 0 -20.869-32.277 80.073 80.073 0 0 1 107.422 75.187 8 8 0 0 0 16 0 96.108 96.108 0 0 0 -96-96z" fill="#cbcbcb"/><g fill="#8f563b"><path d="m256 288a24 24 0 0 0 -24 24h-8a16 16 0 0 0 -16 16 16 16 0 0 0 16 16h64a16 16 0 0 0 16-16 16 16 0 0 0 -16-16h-8a24 24 0 0 0 -24-24z"/><circle cx="256" cy="240" r="16"/><circle cx="200" cy="272" r="16"/><circle cx="312" cy="272" r="16"/></g></svg>