<svg height="512" viewBox="0 0 512 512" width="512" xmlns="http://www.w3.org/2000/svg"><g id="Flat"><path d="m256 80-184 128v280h368v-280z" fill="#348ed8"/><path d="m72 384h368v16h-368z" fill="#2b78b7"/><path d="m72 320h368v16h-368z" fill="#2b78b7"/><path d="m72 256h368v16h-368z" fill="#2b78b7"/><path d="m72 192h368v16h-368z" fill="#2b78b7"/><path d="m160 128h192v16h-192z" fill="#2b78b7"/><path d="m48 456h416v32h-416z" fill="#459ce5"/><path d="m256 232a120 120 0 0 1 120 120v136a0 0 0 0 1 0 0h-240a0 0 0 0 1 0 0v-136a120 120 0 0 1 120-120z" fill="#34507b"/><g fill="#2b78b7"><path d="m96 224h16v16h-16z"/><path d="m96 288h16v16h-16z"/><path d="m96 352h16v16h-16z"/><path d="m96 416h16v16h-16z"/><path d="m400 224h16v16h-16z"/><path d="m400 288h16v16h-16z"/><path d="m400 352h16v16h-16z"/><path d="m400 416h16v16h-16z"/></g><path d="m256 24-232 160v56l48-32 184-128 184 128 48 32v-56z" fill="#d65246"/><path d="m304 384v-24l32-16v-32l-40-40h-80l-40 40v32l32 16v24a40 40 0 0 0 -40 40v40a24 24 0 0 0 24 24h128a24 24 0 0 0 24-24v-40a40 40 0 0 0 -40-40z" fill="#f88400"/><path d="m232 312h16v16h-16z" fill="#7a432a"/><path d="m264 312h16v16h-16z" fill="#7a432a"/><rect fill="#7a432a" height="24" rx="8" width="32" x="240" y="344"/><path d="m312 440v-24h-16v24h-16a31.923 31.923 0 0 0 -24 10.868 31.923 31.923 0 0 0 -24-10.868h-16v-24h-16v24h-8v16h40a16.019 16.019 0 0 1 16 16v16h16v-16a16.019 16.019 0 0 1 16-16h40v-16z" fill="#ea7206"/><rect fill="#ea7206" height="56" rx="8" width="16" x="200" y="304"/><rect fill="#ea7206" height="56" rx="8" width="16" x="296" y="304"/></g></svg>