<svg id="Capa_1" enable-background="new 0 0 512 512" height="512" viewBox="0 0 512 512" width="512" xmlns="http://www.w3.org/2000/svg"><g><g><g><path d="m295.37 98.284c-3.62 0-6.83-2.593-7.486-6.281-.735-4.139 2.025-8.09 6.164-8.826 79.706-14.16 127.458-69.397 136.221-80.327 2.629-3.279 7.42-3.807 10.7-1.176 3.279 2.629 3.807 7.42 1.177 10.7-9.362 11.674-60.368 70.679-145.437 85.791-.449.08-.897.119-1.339.119z" fill="#d1d9fc"/></g><circle cx="256" cy="90.671" fill="#695d69" r="39.379"/><g><path d="m255.999 101.73c-108.976 0-174.171-74.424-186.146-89.356-2.63-3.279-2.103-8.07 1.176-10.7 3.279-2.63 8.07-2.103 10.7 1.176 11.211 13.98 72.259 83.657 174.271 83.657.096 0 .196.004.289 0 4.199 0 7.607 3.401 7.612 7.602.005 4.204-3.398 7.615-7.602 7.621-.094 0-.207 0-.3 0z" fill="#d1d9fc"/></g></g><g><path d="m452.329 315.671c0 100.038-74.82 182.6-171.554 194.781-8.115 1.022-16.384-2.338-24.776-2.338s-16.661 3.36-24.776 2.338c-96.734-12.181-171.554-94.743-171.554-194.781 0-108.43 87.9-196.329 196.329-196.329s196.331 87.899 196.331 196.329z" fill="#ffc344"/><path d="m452.312 314.251c-.765-107.775-88.356-194.91-196.312-194.91-5.123 0-10.199.198-15.223.583 100.815 7.731 180.305 91.608 181.088 194.22h-359.73c-.414 0-.826.011-1.236.03-.462.491-.767.816-1.228 1.307-.019 20.461 3.093 40.191 8.881 58.741h334.509c4.933 0 8.391 4.915 6.68 9.541-21.403 57.874-69.295 102.905-128.964 120.363-12.837 3.756-23.778 3.866-37.559 4.923 5.024.385 9.811 1.597 14.934 1.597 8.253 0 14.236.846 22.221-.143 77.196-9.559 140.5-63.933 163.074-136.281 9.514-30.486 8.88-59.511 8.865-59.971z" fill="#feb237"/><path d="m450.305 343.775h-388.61c-16.347 0-29.599-13.252-29.599-29.599v-.88c0-16.347 13.252-29.599 29.599-29.599h388.61c16.347 0 29.599 13.252 29.599 29.599v.88c-.001 16.347-13.252 29.599-29.599 29.599z" fill="#ffe177"/><path d="m449.865 283.698h-30.446c16.59 0 30.038 13.449 30.038 30.039 0 16.59-13.449 30.039-30.038 30.039h30.446c16.59 0 30.038-13.449 30.038-30.039 0-16.591-13.448-30.039-30.038-30.039z" fill="#ffd15b"/><path d="m255.922 391.87c-21.942.041-40.219 17.744-40.92 39.675-.397 12.404 4.719 23.618 13.079 31.389 1.995 1.854 3.143 4.443 3.143 7.167v40.36c8.117 1.012 16.385 1.539 24.776 1.539s16.659-.527 24.777-1.539v-40.358c0-2.734 1.162-5.325 3.163-7.187 8.045-7.488 13.08-18.167 13.08-30.026 0-22.681-18.407-41.062-41.098-41.02z" fill="#695d69"/><path d="m261.613 392.257c-7.36-1.016-14.444.009-20.78 2.565 15.085 6.061 25.741 20.816 25.741 38.068 0 11.858-5.035 22.537-13.08 30.025-2.001 1.863-3.164 4.454-3.164 7.188v31.017c0 5.363-4.111 9.86-9.458 10.27-.032.002-.064.005-.096.007 5.027.383 10.099.603 15.224.603 8.391 0 16.66-.527 24.777-1.539v-40.358c0-2.732 1.159-5.323 3.159-7.184 8.49-7.9 13.628-19.352 13.038-31.993-.914-19.59-15.935-35.988-35.361-38.669z" fill="#564e57"/></g></g></svg>