<svg height="480pt" viewBox="0 -56 480.0121 480" width="480pt" xmlns="http://www.w3.org/2000/svg"><path d="m480.003906 128.007812h-479.99999975v24.640626c.12109375 7.65625.43359375 14.824218 1.14453175 17.984374 4.039062 17.960938 18.449218 32.503907 36.464843 36.28125 26.664063 5.589844 50.589844-10.960937 56.824219-34.679687 1.871094-7.128906 8.117188-12.226563 15.496094-12.226563h260.140625c7.378906 0 13.625 5.097657 15.507812 12.234376 6.230469 23.71875 30.15625 40.269531 56.820313 34.679687 18.019531-3.777344 32.425781-18.328125 36.464844-36.28125.714843-3.160156 1.015624-10.328125 1.144531-17.984375v-24.648438zm0 0" fill="#466089"/><path d="m480.003906 48.007812h-479.99999975v24.640626c.12109375 7.65625.43359375 14.824218 1.14453175 17.984374 4.039062 17.960938 18.449218 32.503907 36.464843 36.28125 26.664063 5.589844 50.589844-10.960937 56.824219-34.679687 1.871094-7.128906 8.117188-12.226563 15.496094-12.226563h260.140625c7.378906 0 13.625 5.097657 15.507812 12.234376 6.230469 23.71875 30.15625 40.269531 56.820313 34.679687 18.019531-3.777344 32.425781-18.328125 36.464844-36.28125.714843-3.160156 1.015624-10.328125 1.144531-17.984375v-24.648438zm0 0" fill="#466089"/><path d="m458.515625 88.007812c15.632813-10.382812 24.847656-29.65625 20.34375-50.621093-3.863281-18-18.449219-32.503907-36.464844-36.28125-26.664062-5.59375-50.589843 10.960937-56.824219 34.679687-1.871093 7.128906-8.117187 12.222656-15.496093 12.222656h-260.140625c-7.378906 0-13.625-5.09375-15.503906-12.230468-6.234376-23.71875-30.160157-40.273438-56.824219-34.679688-18.015625 3.777344-32.609375 18.289063-36.464844 36.28125-4.496094 20.972656 4.71875 40.246094 20.351563 50.628906-15.632813 10.386719-24.847657 29.65625-20.34375 50.625 3.863281 18 18.449218 32.503907 36.464843 36.28125 26.664063 5.589844 50.589844-10.960937 56.824219-34.679687 1.871094-7.128906 8.117188-12.226563 15.496094-12.226563h260.140625c7.378906 0 13.625 5.097657 15.507812 12.234376 6.230469 23.71875 30.15625 40.269531 56.820313 34.679687 18.019531-3.777344 32.609375-18.289063 36.464844-36.28125 4.496093-20.976563-4.71875-40.246094-20.351563-50.632813zm0 0" fill="#6e83b7"/><path d="m336.003906 272.007812c0 53.019532-42.980468 96-96 96-53.019531 0-96-42.980468-96-96 0-53.019531 42.980469-96 96-96 53.019532 0 96 42.980469 96 96zm0 0" fill="#98ca69"/><path d="m312.445312 209.25c-10.242187 27.742188-8.441406 62.757812-8.441406 62.757812 0 35.34375-28.65625 64-64 64s-64-28.65625-64-64c0 0 1.800782-35.015624-8.433594-62.75-2.0625 2.382813-4.078124 4.808594-5.902343 7.390626 7.703125 24.832031 6.367187 54.648437 6.335937 55.359374 0 39.699219 32.296875 72 72 72s72-32.300781 71.992188-72.414062c-.550782-10.59375.136718-34.695312 6.390625-54.894531-1.839844-2.601563-3.871094-5.050781-5.941407-7.449219zm0 0" fill="#75aa40"/></svg>