<svg height="512" viewBox="0 0 512 512" width="512" xmlns="http://www.w3.org/2000/svg"><g id="Flat"><g fill="#f96d00"><path d="m184 232v104l-104 8-16 56h-40v-32l24-64 88-8-8-64z"/><path d="m474.558 162.287c-26.872 26.174-66.558 30.137-66.558 30.137v31.576c64.544-14.153 77.657-47.338 79.68-54.058a7.576 7.576 0 0 0 .32-2.192c0-6.927-8.446-10.329-13.442-5.463z"/><path d="m352 384-16 72-16 16v16h48l40-136v-72h-112l3.959 47.506a62.539 62.539 0 0 0 52.041 56.494z"/></g><path d="m440 312v-64a64 64 0 0 0 -64-64h-144l-83.412-151.844a16 16 0 0 0 -13.946-8.156h-50.818a19.131 19.131 0 0 0 -17.112 10.576l-10.712 21.424h-24a8 8 0 0 0 -8 8v40a16 16 0 0 0 16 16h40l24 64v88l24 64v40l-8 80-16 16v16h48l32-112v-40h48l104-40a106.478 106.478 0 0 0 71.785 72.735l24.215 7.265-17.143 80-14.857 16v16h48l40-128z" fill="#ffb431"/><rect fill="#f99e0c" height="48" rx="8" width="16" x="176" y="288"/><path d="m104 113.569a8 8 0 0 1 -5.657-2.343l-16-16a8 8 0 0 1 -2.188-7.226l8-40 15.69 3.138-7.161 35.8 9.77 9.77 21.546-5.385v-41.754h16v48a8 8 0 0 1 -6.06 7.761l-32 8a7.976 7.976 0 0 1 -1.94.239z" fill="#f99e0c"/><rect fill="#f99e0c" height="32.985" rx="8" transform="matrix(.97 -.243 .243 .97 -57.997 88.882)" width="16" x="324" y="263.508"/></g></svg>