<svg id="Capa_1" enable-background="new 0 0 512 512" height="512" viewBox="0 0 512 512" width="512" xmlns="http://www.w3.org/2000/svg"><g><path d="m226.77 0h58.46c8.39 0 15.191 6.801 15.191 15.191v91.464h-88.843v-91.464c.001-8.39 6.802-15.191 15.192-15.191z" fill="#e5edfc"/><path d="m284.772 0h-30.905c8.643 0 15.65 7.007 15.65 15.65v91.005h30.905v-91.005c-.001-8.643-7.007-15.65-15.65-15.65z" fill="#d1d9fc"/><path d="m361.377 512h-210.754c-17.069 0-30.905-13.837-30.905-30.905v-58.878l15.453-35.353-15.453-41.367v-138.132c0-70.041 52.838-127.742 120.828-135.416 5.072-.572 10.229.906 15.454.906l2.968-.307c10.084 0 16.762 2.216 26.223 4.294 5.13 1.127 10.335-.043 15.231 1.644 53.456 18.422 91.86 69.165 91.86 128.878v45.415l-15.453 38.762 15.453 37.959v151.594c0 17.069-13.837 30.906-30.905 30.906z" fill="#6fd8fd"/><path d="m256 71.082c-5.226 0-10.38.305-15.453.877 67.989 7.675 120.829 65.364 120.829 135.405v273.73c0 17.069-13.837 30.905-30.905 30.905h30.905c17.069 0 30.905-13.837 30.905-30.905v-151.594l-15.453-37.959 15.453-38.762v-45.415c.001-75.266-61.014-136.282-136.281-136.282z" fill="#28c1fd"/><path d="m175.458 207.365c-2.346 0-4.242-1.959-4.124-4.302 2.248-44.753 39.364-80.471 84.666-80.471s82.418 35.718 84.666 80.471c.118 2.343-1.778 4.302-4.124 4.302z" fill="#e5edfc"/><path d="m256 122.592c-5.278 0-10.439.504-15.453 1.431 38.018 7.033 67.227 39.501 69.213 79.04.117 2.343-1.778 4.302-4.124 4.302h30.905c2.346 0 4.241-1.959 4.124-4.302-2.247-44.753-39.363-80.471-84.665-80.471z" fill="#d1d9fc"/><path d="m392.282 329.5-272.564 92.716v-76.721l272.564-92.716z" fill="#e5edfc"/><path d="m361.377 340.013 30.905-10.513v-76.721l-30.905 10.513z" fill="#d1d9fc"/><g><circle cx="256" cy="337.498" fill="#28c1fd" r="97.566"/><path d="m256 239.932c-5.259 0-10.419.422-15.453 1.223 46.54 7.407 82.114 47.718 82.114 96.344s-35.573 88.937-82.114 96.344c5.034.801 10.194 1.223 15.453 1.223 53.884 0 97.566-43.682 97.566-97.566s-43.682-97.568-97.566-97.568z" fill="#0eb0e2"/><g fill="#fff"><g><ellipse cx="195.656" cy="327.389" rx="11.377" ry="15.086"/><ellipse cx="316.344" cy="327.389" rx="11.377" ry="15.086"/></g><g><ellipse cx="231.732" cy="292.879" rx="13.297" ry="17.632"/><ellipse cx="280.268" cy="292.879" rx="13.297" ry="17.632"/></g><path d="m217.838 359.124c13.531-34.786 62.792-34.786 76.323 0 .089.229.177.459.263.691 3.66 9.845 7.435 23.157.259 32.34-7.116 9.106-18.013 9.198-26.921 4.609-7.346-3.784-16.178-3.784-23.524 0-8.909 4.589-19.805 4.497-26.921-4.609-7.176-9.183-3.401-22.494.259-32.34.086-.232.173-.462.262-.691z"/></g></g><g><path d="m321.398 475.357h-130.796c-4.268 0-7.726-3.459-7.726-7.726s3.459-7.726 7.726-7.726h130.797c4.268 0 7.726 3.459 7.726 7.726s-3.459 7.726-7.727 7.726z" fill="#e5edfc"/></g></g></svg>