<svg height="480pt" viewBox="0 0 480 480" width="480pt" xmlns="http://www.w3.org/2000/svg"><path d="m480 160h-160v-160h-160v160h-160v160h160v160h160v-160h160zm0 0" fill="#80d6fb"/><g fill="#edeff1"><path d="m272 128h-64v-30.871094c0-10.695312 5.34375-20.6875 14.246094-26.625l7.738281-5.160156c1.320313-.878906 2.863281-1.34375 4.441406-1.34375h11.148438c1.578125 0 3.121093.464844 4.441406 1.34375l7.738281 5.160156c8.902344 5.929688 14.246094 15.921875 14.246094 26.625zm0 0"/><path d="m356 108c11.046875 11.046875 11.046875 28.953125 0 40l-32 32-40-40 32-32c11.046875-11.046875 28.953125-11.046875 40 0zm0 0"/><path d="m124 108c-11.046875 11.046875-11.046875 28.953125 0 40l32 32 40-40-32-32c-11.046875-11.046875-28.953125-11.046875-40 0zm0 0"/><path d="m356 372c11.046875-11.046875 11.046875-28.953125 0-40l-32-32-40 40 32 32c11.046875 11.046875 28.953125 11.046875 40 0zm0 0"/><path d="m124 372c-11.046875-11.046875-11.046875-28.953125 0-40l32-32 40 40-32 32c-11.046875 11.046875-28.953125 11.046875-40 0zm0 0"/><path d="m240 368h16l-16 48-16-48zm0 0"/></g><path d="m240 376c-66.273438 0-120-53.726562-120-120v-32c0-66.273438 53.726562-120 120-120s120 53.726562 120 120v32c0 66.273438-53.726562 120-120 120zm0 0" fill="#6e83b7"/><path d="m248 308.640625 47.777344-27.304687 49.816406 31.703124c2.558594-4.71875 4.6875-9.6875 6.597656-14.765624l-48.191406-30.664063v-55.21875l48.191406-30.671875c-1.910156-5.078125-4.046875-10.046875-6.597656-14.765625l-49.816406 31.703125-47.777344-27.296875v-66.960937c-2.65625-.167969-5.296875-.398438-8-.398438s-5.34375.230469-8 .398438v66.953124l-47.777344 27.304688-49.816406-31.703125c-2.558594 4.71875-4.6875 9.6875-6.597656 14.765625l48.191406 30.671875v55.21875l-48.191406 30.671875c1.910156 5.078125 4.046875 10.046875 6.597656 14.765625l49.816406-31.703125 47.777344 27.296875v66.953125c2.65625.175781 5.296875.398438 8 .398438s5.34375-.230469 8-.398438zm-56-41.28125v-54.71875l48-27.425781 48 27.425781v54.71875l-48 27.425781zm0 0" fill="#466089"/></svg>