<svg height="480pt" viewBox="-56 0 480 480" width="480pt" xmlns="http://www.w3.org/2000/svg"><path d="m96 152v56c0 17.671875 14.328125 32 32 32h112c17.671875 0 32-14.328125 32-32v-56zm0 0" fill="#6e83b7"/><path d="m224 264-40 40-40-40-81.351562 18.078125c-36.609376 8.136719-62.648438 40.601563-62.648438 78.097656v119.824219h368v-119.824219c0-37.496093-26.039062-69.960937-62.648438-78.097656zm0 0" fill="#80d6fb"/><path d="m224 264-40 40-40-40-81.351562 18.078125c-36.609376 8.136719-62.648438 40.601563-62.648438 78.097656v119.824219h368v-119.824219c0-37.496093-26.039062-69.960937-62.648438-78.097656zm0 0" fill="#ffb0aa"/><path d="m224 264-40 40-40-40-24 5.335938 64 66.664062 64-66.664062zm0 0" fill="#ff7b7b"/><path d="m296 432h72v48h-72zm0 0" fill="#ffd3b3"/><path d="m0 432h72v48h-72zm0 0" fill="#ffd3b3"/><g fill="#6e83b7"><path d="m258 436.910156c3.503906 0 5.921875 3.089844 10.816406 3.089844 3.488282 0 7.726563-2.742188 7.726563-6.734375 0-12.363281-10.71875-18.546875-18.542969-18.546875s-18.542969 6.183594-18.542969 18.546875c0 3.992187 4.238281 6.734375 7.726563 6.734375 4.894531 0 7.3125-3.089844 10.816406-3.089844zm0 0"/><path d="m238.328125 408.695312c2.214844 2.425782 4.449219 8.816407 2.03125 11.03125-2.421875 2.21875-8.582031-.582031-10.800781-3.007812-2.214844-2.421875-2.046875-6.183594.378906-8.398438 2.421875-2.214843 6.175781-2.039062 8.390625.375zm0 0"/><path d="m240.425781 402.351562c1.445313 4.015626 7.445313 10.457032 11.460938 9 4.015625-1.457031 4.519531-10.238281 3.074219-14.246093-1.449219-4.007813-5.882813-6.097657-9.890626-4.640625-4.015624 1.445312-6.09375 5.871094-4.644531 9.886718zm0 0"/><path d="m277.671875 408.695312c-2.214844 2.425782-4.449219 8.816407-2.03125 11.03125 2.421875 2.21875 8.582031-.582031 10.800781-3.007812 2.214844-2.421875 2.046875-6.183594-.378906-8.398438-2.421875-2.214843-6.175781-2.039062-8.390625.375zm0 0"/><path d="m275.574219 402.351562c-1.445313 4.015626-7.445313 10.457032-11.460938 9-4.015625-1.457031-4.519531-10.238281-3.074219-14.246093 1.449219-4.007813 5.882813-6.097657 9.890626-4.640625 4.015624 1.445312 6.09375 5.871094 4.644531 9.886718zm0 0"/><path d="m184 356c-37.496094 0-68-30.503906-68-68v-14.398438c0-16.328124 13.28125-29.601562 29.601562-29.601562v8c-11.914062 0-21.601562 9.6875-21.601562 21.601562v14.398438c0 33.089844 26.910156 60 60 60s60-26.910156 60-60v-14.398438c0-11.914062-9.6875-21.601562-21.601562-21.601562v-8c16.328124 0 29.601562 13.28125 29.601562 29.601562v14.398438c0 37.496094-30.503906 68-68 68zm0 0"/><path d="m124 424h-8v-8c0-11.023438 8.976562-20 20-20h16c15.441406 0 28-12.558594 28-28v-16h8v16c0 19.847656-16.152344 36-36 36h-16c-6.617188 0-12 5.382812-12 12zm0 0"/></g><path d="m80 424h80v16h-80zm0 0" fill="#ff7b7b"/><path d="m224 235.519531v24.953125c2.734375-.730468 4.800781-3.113281 4.800781-6.082031v-12.796875c0-2.960938-2.066406-5.347656-4.800781-6.074219zm0 0" fill="#edeff1"/><path d="m144 235.519531c-2.734375.726563-4.800781 3.113281-4.800781 6.082031v12.796876c0 2.96875 2.066406 5.355468 4.800781 6.082031zm0 0" fill="#edeff1"/><path d="m224 224v40l-40 40-40-40v-40zm0 0" fill="#fcb98b"/><path d="m272 104v48c0 48.601562-39.398438 88-88 88s-88-39.398438-88-88v-48c0-17.671875 14.328125-32 32-32h112c17.671875 0 32 14.328125 32 32zm0 0" fill="#ffd3b3"/><path d="m272 104h5.113281c9.886719 0 17.40625 8.878906 15.78125 18.632812l-2.664062 16c-1.285157 7.710938-7.964844 13.367188-15.78125 13.367188h-2.449219zm0 0" fill="#ffd3b3"/><path d="m96 104h-5.113281c-9.886719 0-17.40625 8.878906-15.78125 18.632812l2.664062 16c1.285157 7.710938 7.964844 13.367188 15.78125 13.367188h2.449219zm0 0" fill="#ffd3b3"/><path d="m192 0h-16c-44.183594 0-80 35.816406-80 80v72l16-48h64c17.671875 0 32-14.328125 32-32 0 17.671875 14.328125 32 32 32h16l16 48v-72c0-44.183594-35.816406-80-80-80zm0 0" fill="#6e83b7"/></svg>