<svg height="512" viewBox="0 0 512 512" width="512" xmlns="http://www.w3.org/2000/svg"><g id="Flat"><path d="m296 128v-24h-80v24a91.945 91.945 0 0 0 -72 89.756v262.244a8 8 0 0 0 8 8h208a8 8 0 0 0 8-8v-262.244a91.945 91.945 0 0 0 -72-89.756z" fill="#d5d5d3"/><g fill="#dfdfdd"><path d="m206.993 174.643-8.917-13.286a68.3 68.3 0 0 1 15.255-7.669l5.338 15.084a52.21 52.21 0 0 0 -11.676 5.871z"/><path d="m186.343 202.372-15.281-4.744a67.727 67.727 0 0 1 11.883-22.388c1.339-1.668 2.772-3.289 4.26-4.819l11.468 11.158c-1.135 1.166-2.227 2.4-3.248 3.674a51.793 51.793 0 0 0 -9.082 17.119z"/><path d="m224 24h64a8 8 0 0 1 8 8v72a0 0 0 0 1 0 0h-80a0 0 0 0 1 0 0v-72a8 8 0 0 1 8-8z"/></g><path d="m144 224h224v216h-224z" fill="#4db6e4"/><path d="m240 48h16v32h-16z" fill="#eaeae8"/><path d="m304 304a32 32 0 0 1 32 32v96a0 0 0 0 1 0 0h-32a0 0 0 0 1 0 0v-128a0 0 0 0 1 0 0z" fill="#ea7206"/><path d="m336 440h-144v-136l-16-16 24-32h48l24 32-16 16v10.584a8 8 0 0 0 5.029 7.428l34.74 13.9a64 64 0 0 1 40.231 59.418z" fill="#f88400"/><path d="m216 368h16v72h-16z" fill="#ea7206"/><path d="m248 368h16v72h-16z" fill="#ea7206"/><path d="m264 440h-16a40.063 40.063 0 0 1 34.333-39.6 35.725 35.725 0 0 1 8.01-38.056l11.314 11.312a19.655 19.655 0 0 0 -2.449 24.734l3.448 5.172a8 8 0 0 1 -6.656 12.438h-8a24.027 24.027 0 0 0 -24 24z" fill="#ea7206"/><path d="m216 288h16v16h-16z" fill="#7a432a"/><rect fill="#ea7206" height="24" rx="8" width="16" x="184" y="280"/><rect fill="#ea7206" height="24" rx="8" width="16" x="248" y="280"/><path d="m368 224v52.14a74.585 74.585 0 0 1 -24 3.86c-30.93 0-56-17.91-56-40a30.351 30.351 0 0 1 4.67-16z" fill="#348ed8"/></g></svg>