<svg height="512" viewBox="0 0 512 512" width="512" xmlns="http://www.w3.org/2000/svg"><path d="m432 480h-272l-12-6v-314h284z" fill="#f55648"/><path d="m432 160h-282l-30-80-.881-8 272.888-.234-.007 8.234z" fill="#ea9d2d"/><path d="m160 160v320l-40-8-40 8v-320l40-80z" fill="#b94137"/><path d="m392 48h-272v32h272a16 16 0 0 0 0-32z" fill="#fbb540"/><circle cx="296" cy="296" fill="#fbb540" r="88"/><path d="m312 344a16 16 0 0 0 0-32 16 16 0 0 0 -32 0v.012a16 16 0 1 0 .31 31.988z" fill="#d18d28"/><circle cx="296" cy="259.997" fill="#d18d28" r="12"/><circle cx="252" cy="283.997" fill="#d18d28" r="12"/><circle cx="340" cy="283.997" fill="#d18d28" r="12"/><g fill="#b94137"><path d="m184 408h72v16h-72z"/><path d="m184 440h48v16h-48z"/><path d="m248 440h24v16h-24z"/><path d="m392 440h16v16h-16z"/><path d="m360 440h16v16h-16z"/></g><path d="m128 428.8v-332.8l-8-16-8 16v332.8l-32 51.2 40-8 40 8z" fill="#a83b32"/><circle cx="120" cy="64" fill="#da922a" r="16"/></svg>