<svg id="Capa_1" enable-background="new 0 0 512 512" height="512" viewBox="0 0 512 512" width="512" xmlns="http://www.w3.org/2000/svg"><g><g><path d="m168.629 512h-1.952c-17.859 0-32.336-14.477-32.336-32.336v-223.664h66.623v223.664c.001 17.859-14.476 32.336-32.335 32.336z" fill="#a0e38b"/><g><path d="m121.464 54.085h-88.805c-4.268 0-7.726-3.459-7.726-7.726s3.459-7.726 7.726-7.726h81.078v-15.454h-81.078c-4.268 0-7.726-3.459-7.726-7.726s3.459-7.726 7.726-7.726h88.805c4.268 0 7.726 3.459 7.726 7.726v30.905c0 4.267-3.459 7.727-7.726 7.727z" fill="#d1d9fc"/></g><g><path d="m121.464 115.895h-88.805c-4.268 0-7.726-3.459-7.726-7.726s3.459-7.726 7.726-7.726h81.078v-15.453h-81.078c-4.268 0-7.726-3.459-7.726-7.726s3.459-7.726 7.726-7.726h88.805c4.268 0 7.726 3.459 7.726 7.726v30.905c0 4.267-3.459 7.726-7.726 7.726z" fill="#d1d9fc"/></g><g><path d="m121.464 177.706h-88.805c-4.268 0-7.726-3.459-7.726-7.726s3.459-7.726 7.726-7.726h81.078v-15.453h-81.078c-4.268 0-7.726-3.459-7.726-7.726s3.459-7.726 7.726-7.726h88.805c4.268 0 7.726 3.459 7.726 7.726v30.905c0 4.267-3.459 7.726-7.726 7.726z" fill="#d1d9fc"/></g><g><path d="m121.464 239.517h-88.805c-4.268 0-7.726-3.459-7.726-7.726s3.459-7.726 7.726-7.726h81.078v-15.453h-81.078c-4.268 0-7.726-3.459-7.726-7.726s3.459-7.726 7.726-7.726h88.805c4.268 0 7.726 3.459 7.726 7.726v30.905c0 4.267-3.459 7.726-7.726 7.726z" fill="#d1d9fc"/></g><g><path d="m121.464 301.328h-88.805c-4.268 0-7.726-3.459-7.726-7.726s3.459-7.726 7.726-7.726h81.078v-15.453h-81.078c-4.268 0-7.726-3.459-7.726-7.726s3.459-7.726 7.726-7.726h88.805c4.268 0 7.726 3.459 7.726 7.726v30.905c0 4.267-3.459 7.726-7.726 7.726z" fill="#d1d9fc"/></g><path d="m134.341 339.96h32.766c12.653 0 24.347-4.085 33.857-10.992v-72.968h-66.623z" fill="#8fd674"/><path d="m164.952 307.83-14.682 1.224h-15.929-16.213c-5.69 0-10.302-4.612-10.302-10.302v-288.45c0-5.69 4.612-10.302 10.302-10.302h48.979c31.861 0 57.69 25.829 57.69 57.69v193.674c0 19.153-9.333 36.125-23.699 46.618-3.575 2.611-13.324 1.603-17.456 3.346-6.886 2.904-10.747 6.502-18.69 6.502z" fill="#bef8a8"/><path d="m167.107 0h-30.905c31.861 0 57.69 25.829 57.69 57.69v193.674c0 31.861-25.829 57.69-57.69 57.69h30.905c31.861 0 57.69-25.829 57.69-57.69v-193.674c0-31.861-25.828-57.69-57.69-57.69z" fill="#a0e38b"/></g><g><path d="m330.384 311.99 69.692-12.96 15.453-127.485-15.453-158.39-69.692-12.96c-6.969-1.296-13.404 4.052-13.404 11.141v289.514c0 7.087 6.434 12.436 13.404 11.14z" fill="#e5edfc"/><path d="m442.297 512h2.549c23.318 0 42.221-18.903 42.221-42.221v-372.182c0-46.637-37.806-84.443-84.443-84.443h-2.549v456.624c.001 23.319 18.904 42.222 42.222 42.222z" fill="#6fd8fd"/><path d="m400.076 13.154v5.671c32.782 12.466 56.086 44.164 56.086 81.321v368.358c0 18.578-11.652 34.427-28.043 40.66 4.803 1.826 10.009 2.836 15.453 2.836 24.022 0 43.496-19.474 43.496-43.496v-368.358c0-48.044-38.948-86.992-86.992-86.992z" fill="#28c1fd"/><path d="m369.171 304.777 30.905-5.747v-285.876l-30.905-5.747z" fill="#d1d9fc"/><g><g><path d="m316.98 32.47h26.447c4.268 0 7.726 3.459 7.726 7.726s-3.459 7.726-7.726 7.726h-26.447z" fill="#d1d9fc"/></g><g><path d="m316.98 78.828h26.447c4.268 0 7.726 3.459 7.726 7.726s-3.459 7.726-7.726 7.726h-26.447z" fill="#d1d9fc"/></g><g><path d="m316.98 125.187h26.447c4.268 0 7.726 3.459 7.726 7.726s-3.459 7.726-7.726 7.726h-26.447z" fill="#d1d9fc"/></g><g><path d="m316.98 171.545h26.447c4.268 0 7.726 3.459 7.726 7.726s-3.459 7.726-7.726 7.726h-26.447z" fill="#d1d9fc"/></g><g><path d="m316.98 217.903h26.447c4.268 0 7.726 3.459 7.726 7.726s-3.459 7.726-7.726 7.726h-26.447z" fill="#d1d9fc"/></g><g><path d="m316.98 264.261h26.447c4.268 0 7.726 3.459 7.726 7.726s-3.459 7.726-7.726 7.726h-26.447z" fill="#d1d9fc"/></g></g></g></g></svg>