<svg id="Capa_1" enable-background="new 0 0 512 512" height="512" viewBox="0 0 512 512" width="512" xmlns="http://www.w3.org/2000/svg"><g><g><g><g><g><path d="m232.603 231.216h46.795v127.999h-46.795z" fill="#d1d9fc"/><g><path d="m0 180.997c0 44.643 114.615 80.833 256 80.833s256-36.19 256-80.833v-76.984h-512z" fill="#fd4755"/><circle cx="49.221" cy="200.082" fill="#564e57" r="7.5"/><circle cx="127.732" cy="215.493" fill="#564e57" r="7.5"/><path d="m481.095 104.012v76.984c0 43.004-106.36 78.159-240.547 80.683 5.114.096 10.263.151 15.453.151 141.385 0 256-36.19 256-80.833v-76.984h-30.906z" fill="#fb2b3a"/><path d="m291.764 261.042c34.025-1.502 65.905-5.116 94.274-10.41 21.366-4.269 34.95-25.625 30.072-46.142-4.726-19.88-25.322-32.818-45.939-28.111l-35.544-6.112-44.503 24.169z" fill="#fb2b3a"/><path d="m416.111 204.491c-4.726-19.88-25.322-32.818-45.939-28.111l-35.544-6.112-14.082 7.648 18.721 3.219c20.617-4.707 41.212 8.232 45.939 28.111 4.878 20.517-8.707 41.873-30.072 46.142-.973.182-1.96.356-2.942.534 11.74-1.504 23.049-3.274 33.847-5.289 21.365-4.269 34.95-25.625 30.072-46.142z" fill="#e41f2d"/><ellipse cx="256" cy="104.012" fill="#fe646f" rx="256" ry="80.833"/><path d="m256 89.646c-103.867 0-193.292 19.53-233.431 47.599 40.141 28.067 129.561 47.6 233.431 47.6s193.29-19.533 233.431-47.6c-40.139-28.069-129.564-47.599-233.431-47.599z" fill="#fff"/></g><circle cx="256" cy="401.771" fill="#ffc344" r="87.05"/><path d="m256 314.72c-5.277 0-10.435.496-15.453 1.395 40.701 7.296 71.598 42.855 71.598 85.655s-30.897 78.359-71.598 85.655c5.018.9 10.176 1.395 15.453 1.395 48.077 0 87.05-38.974 87.05-87.05s-38.973-87.05-87.05-87.05z" fill="#feb237"/><path d="m259.695 356.214 12.291 24.903c.6 1.216 1.76 2.059 3.103 2.254l27.482 3.993c3.38.491 4.729 4.645 2.284 7.029l-19.887 19.385c-.971.947-1.414 2.311-1.185 3.647l4.695 27.371c.577 3.366-2.956 5.933-5.979 4.344l-24.581-12.923c-1.2-.631-2.635-.631-3.835 0l-24.581 12.923c-3.023 1.589-6.556-.978-5.979-4.344l4.695-27.371c.229-1.337-.214-2.701-1.185-3.647l-19.887-19.385c-2.446-2.384-1.096-6.538 2.284-7.029l27.482-3.993c1.342-.195 2.502-1.038 3.103-2.254l12.291-24.903c1.51-3.062 5.878-3.062 7.389 0z" fill="#fff"/></g></g><path d="m295.511 175.022h-79.021c-8.534 0-15.453 6.918-15.453 15.453v63.058c0 8.534 6.918 15.453 15.453 15.453h79.021c8.534 0 15.453-6.918 15.453-15.453v-63.058c-.001-8.534-6.919-15.453-15.453-15.453zm-15.453 60.998c0 1.138-.922 2.06-2.06 2.06h-43.995c-1.138 0-2.06-.923-2.06-2.06v-28.032c0-1.138.922-2.06 2.06-2.06h43.995c1.138 0 2.06.922 2.06 2.06z" fill="#695d69"/><g><path d="m295.511 175.022h-30.905c8.534 0 15.453 6.918 15.453 15.453v63.058c0 8.534-6.918 15.453-15.453 15.453h30.905c8.534 0 15.453-6.918 15.453-15.453v-63.058c-.001-8.534-6.919-15.453-15.453-15.453z" fill="#564e57"/></g></g></g><circle cx="447.449" cy="196.26" fill="#564e57" r="7.5"/></g></svg>