<svg height="512" viewBox="0 0 512 512" width="512" xmlns="http://www.w3.org/2000/svg"><g id="Flat"><path d="m352 496v-144h24l32-48-16-64-48-32h-176l-48 32-16 64 32 48h24v144" fill="#f88400"/><path d="m344 208a169.443 169.443 0 0 0 -75.777 17.889l-12.223 6.111-12.223-6.111a169.443 169.443 0 0 0 -75.777-17.889v-128h176z" fill="#2b4266"/><path d="m112 80 144-56 144 56-144 56z" fill="#34507b"/><path d="m400 192h-16v-104h-128v-16h136a8 8 0 0 1 8 8z" fill="#2b4266"/><path d="m256 96a16 16 0 1 1 16-16 16.019 16.019 0 0 1 -16 16z" fill="#415e89"/><path d="m160 352a8 8 0 0 1 -8-8v-59.155a61.757 61.757 0 0 1 20.352-45.89 7.987 7.987 0 0 1 11.979 1.542 7.951 7.951 0 0 1 -1.222 10.3 45.79 45.79 0 0 0 -15.109 34.048v59.155a8 8 0 0 1 -8 8z" fill="#ea7206"/><path d="m352 352a8 8 0 0 1 -8-8v-59.155a45.79 45.79 0 0 0 -15.109-34.045 7.951 7.951 0 0 1 -1.222-10.3 7.987 7.987 0 0 1 11.979-1.542 61.757 61.757 0 0 1 20.352 45.887v59.155a8 8 0 0 1 -8 8z" fill="#ea7206"/><path d="m202.085 303.867a16 16 0 1 1 13.782-13.782 16.02 16.02 0 0 1 -13.782 13.782z" fill="#7a432a"/><path d="m314.085 303.867a16 16 0 1 1 13.782-13.782 16.02 16.02 0 0 1 -13.782 13.782z" fill="#7a432a"/><rect fill="#7a432a" height="32" rx="16" width="48" x="232" y="320"/><path d="m320.411 381.47-.706 2.118a24 24 0 0 1 -22.769 16.412h-8.936a24.027 24.027 0 0 1 -24-24v-24h-16v24h.006c0 .035-.006.069-.006.1a24.027 24.027 0 0 1 -24 23.9h-4.222a24 24 0 0 1 -21.467-13.268l-7.156-14.31-14.31 7.156 7.155 14.311a40 40 0 0 0 35.777 22.111h4.223a39.965 39.965 0 0 0 32-16.025 39.965 39.965 0 0 0 32 16.025h8.933a40 40 0 0 0 37.95-27.351l.706-2.119z" fill="#ea7206"/><path d="m160 456h192v40h-192z" fill="#d65246"/><path d="m192 136h16v48h-16z" fill="#34507b"/><g fill="#ffb431"><path d="m480 152h16v16h-16z"/><path d="m424 152h40v16h-40z"/><path d="m478.385 61.334h19.23v16h-19.23z" transform="matrix(.832 -.555 .555 .832 43.5 282.338)"/><path d="m419.963 90.667h48.074v16h-48.074z" transform="matrix(.832 -.555 .555 .832 19.839 262.858)"/><path d="m480 241.052h16v19.23h-16z" transform="matrix(.555 -.832 .832 .555 8.735 517.656)"/><path d="m436 197.296h16v48.074h-16z" transform="matrix(.555 -.832 .832 .555 13.551 467.988)"/><path d="m16 152h16v16h-16z"/><path d="m48 152h40v16h-40z"/><path d="m16 59.719h16v19.23h-16z" transform="matrix(.555 -.832 .832 .555 -47.002 50.842)"/><path d="m60 74.629h16v48.074h-16z" transform="matrix(.555 -.832 .832 .555 -51.815 100.515)"/><path d="m14.385 242.667h19.23v16h-19.23z" transform="matrix(.832 -.555 .555 .832 -135.014 55.412)"/><path d="m43.963 213.334h48.074v16h-48.074z" transform="matrix(.832 -.555 .555 .832 -111.353 74.893)"/></g></g></svg>