<svg height="480pt" viewBox="0 -31 480 479" width="480pt" xmlns="http://www.w3.org/2000/svg"><path d="m448 400.5h-416c-17.671875 0-32-14.328125-32-32v-256c0-17.671875 14.328125-32 32-32h416c17.671875 0 32 14.328125 32 32v256c0 17.671875-14.328125 32-32 32zm0 0" fill="#edeff1"/><g fill="#6e83b7"><path d="m56 400.5h64v16h-64zm0 0"/><path d="m360 400.5h64v16h-64zm0 0"/><path d="m480 352.5v16c0 17.679688-14.320312 32-32 32h-16c0-26.480469 21.519531-48 48-48zm0 0"/><path d="m480 112.5v16c-26.480469 0-48-21.519531-48-48h16c17.679688 0 32 14.320312 32 32zm0 0"/><path d="m48 80.5c0 26.480469-21.519531 48-48 48v-16c0-17.679688 14.320312-32 32-32zm0 0"/><path d="m48 400.5h-16c-17.679688 0-32-14.320312-32-32v-16c26.480469 0 48 21.519531 48 48zm0 0"/></g><path d="m336 209.859375h-65.359375v-65.359375h-61.28125v65.359375h-65.359375v61.28125h65.359375v65.359375h61.28125v-65.359375h65.359375zm0 0" fill="#80d6fb"/><path d="m240 290.683594c8.398438 0 14.214844 7.417968 25.960938 7.417968 8.367187 0 18.542968-6.585937 18.542968-16.167968 0-29.671875-25.726562-44.503906-44.503906-44.503906s-44.503906 14.832031-44.503906 44.503906c0 9.582031 10.175781 16.167968 18.542968 16.167968 11.746094 0 17.5625-7.417968 25.960938-7.417968zm0 0" fill="#6e83b7"/><path d="m192.792969 222.980469c5.3125 5.816406 10.679687 21.152343 4.871093 26.472656-5.808593 5.320313-20.609374-1.410156-25.929687-7.226563-5.308594-5.816406-4.910156-14.839843.90625-20.152343 5.816406-5.316407 14.839844-4.910157 20.152344.90625zm0 0" fill="#6e83b7"/><path d="m197.824219 207.746094c3.480469 9.632812 17.878906 25.089844 27.519531 21.609375 9.632812-3.480469 10.839844-24.566407 7.367188-34.199219-3.472657-9.632812-14.101563-14.625-23.734376-11.144531-9.640624 3.472656-14.625 14.105469-11.152343 23.734375zm0 0" fill="#6e83b7"/><path d="m287.207031 222.980469c-5.3125 5.816406-10.679687 21.152343-4.871093 26.472656 5.816406 5.3125 20.609374-1.410156 25.929687-7.226563 5.308594-5.816406 4.910156-14.839843-.90625-20.152343-5.816406-5.316407-14.839844-4.910157-20.152344.90625zm0 0" fill="#6e83b7"/><path d="m282.175781 207.746094c-3.480469 9.632812-17.886719 25.089844-27.519531 21.609375s-10.839844-24.566407-7.367188-34.199219c3.472657-9.632812 14.101563-14.625 23.734376-11.144531 9.632812 3.480469 14.625 14.105469 11.152343 23.734375zm0 0" fill="#6e83b7"/><path d="m320 64.5v-32c0-17.648438-14.351562-32-32-32h-96c-17.648438 0-32 14.351562-32 32v32h-8v16h48v-16h-8v-32h96v32h-8v16h48v-16zm0 0" fill="#6e83b7"/></svg>