<svg height="480pt" viewBox="0 0 480 480" width="480pt" xmlns="http://www.w3.org/2000/svg"><path d="m376 128h-128v-128h-120v128h-128v120h128v128h120v-128h128zm0 0" fill="#80d6fb"/><g fill="#6e83b7"><path d="m188 286.273438c16.457031 0 27.839844 14.527343 50.839844 14.527343 16.382812 0 36.3125-12.898437 36.3125-31.65625 0-58.105469-50.382813-87.152343-87.152344-87.152343s-87.152344 29.046874-87.152344 87.152343c0 18.757813 19.929688 31.65625 36.3125 31.65625 23 0 34.382813-14.527343 50.839844-14.527343zm0 0"/><path d="m95.550781 153.6875c10.410157 11.382812 20.921875 41.425781 9.539063 51.832031-11.386719 10.410157-40.363282-2.75-50.769532-14.144531-10.410156-11.390625-9.617187-29.054688 1.769532-39.464844 11.382812-10.40625 29.054687-9.613281 39.460937 1.777344zm0 0"/><path d="m105.40625 123.855469c6.808594 18.863281 35.027344 49.128906 53.890625 42.3125 18.863281-6.816407 21.230469-48.121094 14.421875-66.976563-6.808594-18.855468-27.621094-28.632812-46.488281-21.824218-18.863281 6.808593-28.628907 27.625-21.824219 46.488281zm0 0"/><path d="m280.449219 153.6875c-10.410157 11.382812-20.921875 41.425781-9.539063 51.832031 11.386719 10.410157 40.363282-2.75 50.769532-14.144531 10.410156-11.390625 9.617187-29.054688-1.769532-39.464844-11.382812-10.40625-29.054687-9.613281-39.460937 1.777344zm0 0"/><path d="m270.59375 123.855469c-6.808594 18.863281-35.027344 49.128906-53.890625 42.3125-18.863281-6.816407-21.230469-48.121094-14.421875-66.976563 6.808594-18.855468 27.621094-28.632812 46.488281-21.824218 18.863281 6.808593 28.628907 27.625 21.824219 46.488281zm0 0"/></g><path d="m384 224h80c8.839844 0 16 7.160156 16 16v240l-24-16-24 16-24-16-24 16-24-16-24 16-24-16-24 16v-240c0-8.839844 7.160156-16 16-16zm0 0" fill="#edeff1"/><path d="m320 400h128v16h-128zm0 0" fill="#d3d3d3"/><path d="m304 368h160v16h-160zm0 0" fill="#d3d3d3"/><path d="m384 296c0-13.230469-10.769531-24-24-24h-16v80h16v-32c4.40625 0 8 3.59375 8 8v24h16v-24c0-6.167969-2.40625-11.742188-6.238281-16 3.832031-4.257812 6.238281-9.832031 6.238281-16zm-24-8c4.40625 0 8 3.59375 8 8s-3.59375 8-8 8zm0 0" fill="#98ca69"/><path d="m336 288v-16h-32v80h16v-32h16v-16h-16v-16zm0 0" fill="#98ca69"/><path d="m424 288v-16h-32v80h32v-16h-16v-16h16v-16h-16v-16zm0 0" fill="#98ca69"/><path d="m464 288v-16h-32v80h32v-16h-16v-16h16v-16h-16v-16zm0 0" fill="#98ca69"/></svg>