<svg id="Capa_1" enable-background="new 0 0 512 512" height="512" viewBox="0 0 512 512" width="512" xmlns="http://www.w3.org/2000/svg"><g><path d="m402.814 512h-293.628c-32.691 0-59.729-25.455-61.699-58.087l-23.443-388.378c-2.145-35.537 26.097-65.535 61.699-65.535h340.514c35.602 0 63.844 29.998 61.699 65.535l-23.443 388.378c-1.97 32.632-29.008 58.087-61.699 58.087z" fill="#e5edfc"/><path d="m426.257 0h-30.905c35.602 0 63.844 29.998 61.699 65.535l-23.443 388.378c-1.971 32.632-29.009 58.087-61.7 58.087h30.905c32.691 0 59.729-25.455 61.699-58.087l23.443-388.378c2.146-35.537-26.096-65.535-61.698-65.535z" fill="#d1d9fc"/><circle cx="116.926" cy="440.402" fill="#695d69" r="25.755"/><circle cx="395.074" cy="440.402" fill="#695d69" r="25.755"/><path d="m349.399 168.153c-2.758 2.758-7.217 2.83-10.042.14-19.944-18.991-46.378-31.232-75.63-33.077-2.555-.161-5.131-5.033-7.727-5.033s-5.172 4.872-7.727 5.033c-29.259 1.844-55.687 14.085-75.63 33.076-2.825 2.69-7.284 2.618-10.042-.14l-41.561-41.561c-2.834-2.834-2.838-7.461.044-10.247 34.926-33.759 82.491-54.533 134.916-54.533 52.415 0 99.979 20.774 134.915 54.535 2.883 2.786 2.88 7.413.045 10.247z" fill="#6fd8fd"/><g><path d="m390.915 116.346c-34.935-33.76-82.5-54.535-134.915-54.535-5.203 0-10.355.213-15.454.615 46.277 3.645 87.995 23.51 119.464 53.92 2.883 2.786 2.88 7.413.045 10.247l-32.108 32.108c3.999 2.965 7.813 6.167 11.411 9.593 2.825 2.69 7.284 2.618 10.042-.14l41.56-41.56c2.834-2.836 2.837-7.463-.045-10.248z" fill="#28c1fd"/></g><g fill="#695d69"><path d="m256 101.073c-4.267 0-7.726 3.459-7.726 7.726v26.426c2.555-.161 5.13-.252 7.726-.252s5.171.091 7.726.252v-26.425c0-4.267-3.459-7.727-7.726-7.727z"/><g><g><ellipse cx="169.833" cy="291.16" rx="16.245" ry="21.542"/><ellipse cx="342.167" cy="291.16" rx="16.245" ry="21.542"/></g><g><ellipse cx="221.347" cy="241.881" rx="18.987" ry="25.178"/><ellipse cx="290.653" cy="241.881" rx="18.987" ry="25.178"/></g><path d="m201.507 336.475c19.322-49.672 89.664-49.672 108.986 0 .127.327.252.656.375.986 5.226 14.059 10.617 33.067.37 46.18-10.162 13.004-25.721 13.134-38.442 6.581-10.49-5.404-23.101-5.404-33.591 0-12.721 6.553-28.28 6.422-38.442-6.581-10.247-13.113-4.856-32.121.37-46.18.122-.331.247-.659.374-.986z"/></g></g></g></svg>