<svg height="512" viewBox="0 0 512 512" width="512" xmlns="http://www.w3.org/2000/svg"><path d="m360 192 40 48v-24l.329-.986a149.488 149.488 0 0 0 7.671-47.273v-23.741l-10.984 18.307a68.389 68.389 0 0 1 -37.016 29.693z" fill="#dbdbdb"/><path d="m248 360h-64v64a16 16 0 0 1 -16 16h-56v-14.874a32 32 0 0 1 14.25-26.626l9.75-6.5v-120l-24-32-16 16-16-16-16 16-16-16-24 16v-56a16 16 0 0 1 16-16h40l3.668-18.342a32 32 0 0 1 26.118-25.289l26.214-4.369-16-24v-40l56 56 12.8 9.6a48 48 0 0 1 19.2 38.4v16h142.062a57.938 57.938 0 0 1 57.938 57.938v174.062a16 16 0 0 1 -16 16h-56v-14.874a32 32 0 0 1 14.25-26.626l9.75-6.5v-32z" fill="#dbdbdb"/><path d="m215.287 192.651 41.187-24.651 109.729 27.56 13.678 38.431z" fill="#3775a4"/><path d="m24 216h10.841a21.159 21.159 0 0 0 21.159-21.159v-10.841h-16a16 16 0 0 0 -16 16z" fill="#744630"/><path d="m120 184a8 8 0 0 1 -8-8v-8a8 8 0 0 1 16 0v8a8 8 0 0 1 -8 8z" fill="#744630"/><path d="m480.43 164.546a32 32 0 0 0 -39.317 49.836l-63.181 15.868a8 8 0 1 0 3.9 15.518l84.116-21.126a7.994 7.994 0 0 0 2.22-.929 31.984 31.984 0 0 0 12.265-59.167zm-2.7 35.675a15.995 15.995 0 1 1 -5.513-21.947 16.022 16.022 0 0 1 5.509 21.947z" fill="#6cbae5"/><path d="m491.454 263.562a31.954 31.954 0 0 0 -23.283-15.271 8 8 0 0 0 -2.226-.933l-84.116-21.126a8 8 0 0 0 -3.9 15.518l63.181 15.868a32 32 0 1 0 50.341 5.944zm-19.241 30.164a16 16 0 1 1 5.513-21.947 16.018 16.018 0 0 1 -5.513 21.947z" fill="#3775a4"/><path d="m368 384v-186a6 6 0 0 0 -6-6h-108a6 6 0 0 0 -6 6v162a24 24 0 0 0 24 24z" fill="#ebebeb"/><g fill="#c3c3c3"><path d="m280 264a8 8 0 0 1 -8-8v-8a8 8 0 0 1 16 0v8a8 8 0 0 1 -8 8z"/><path d="m280 328a8 8 0 0 1 -8-8v-16a8 8 0 0 1 16 0v16a8 8 0 0 1 -8 8z"/><path d="m312 256a8 8 0 0 1 -8-8v-8a8 8 0 0 1 16 0v8a8 8 0 0 1 -8 8z"/><path d="m312 320a8 8 0 0 1 -8-8v-16a8 8 0 0 1 16 0v16a8 8 0 0 1 -8 8z"/></g><path d="m215.287 279.349 41.187 24.651 109.729-27.56 13.678-38.431z" fill="#6cbae5"/><path d="m392 360v-24l-16 8-16-8-16 8-16-8-16 8-16-8v24a24 24 0 0 1 -24 24h96a24 24 0 0 0 24-24z" fill="#f9f9f9"/><circle cx="383.873" cy="234.993" fill="#428dc5" r="16"/></svg>