<svg height="512" viewBox="0 0 512 512" width="512" xmlns="http://www.w3.org/2000/svg"><g id="Flat"><path d="m432 88h-.088a7.906 7.906 0 0 1 -7.912-7.912v-.088a56 56 0 0 0 -56.743-55.995c-30.775.395-55.257 26.053-55.257 56.83v35.283a48 48 0 0 1 -14.059 33.941l-147.882 147.882a48 48 0 0 1 -33.941 14.059h-35.283c-30.777 0-56.431 24.482-56.83 55.257a56 56 0 0 0 55.995 56.743h.088a7.906 7.906 0 0 1 7.912 7.912v.088a56 56 0 0 0 56.743 56c30.775-.4 55.257-26.053 55.257-56.83v-35.288a48 48 0 0 1 14.059-33.941l147.882-147.882a48 48 0 0 1 33.941-14.059h35.283c30.777 0 56.431-24.482 56.83-55.257a56 56 0 0 0 -55.995-56.743z" fill="#f88400"/><rect fill="#ea7206" height="16.001" rx="8.001" transform="matrix(.707 -.707 .707 .707 -106.039 256)" width="271.529" x="120.235" y="247.999"/><path d="m48 368h16a16.019 16.019 0 0 1 16-16v-16a32.036 32.036 0 0 0 -32 32z" fill="#ff9721"/><g fill="#ea7206"><path d="m378.874 128.165a8 8 0 0 1 -5-10.994 63.836 63.836 0 0 1 17.67-22.771 8 8 0 0 1 11.891 2.093 8.05 8.05 0 0 1 -1.877 10.389 47.868 47.868 0 0 0 -13.1 16.876 8.05 8.05 0 0 1 -9.584 4.407z"/><path d="m88.572 432a8.027 8.027 0 0 1 -7.916-9.21 63.4 63.4 0 0 1 6.092-19.429 8.025 8.025 0 0 1 11.764-3.03 8.035 8.035 0 0 1 2.529 10.224 47.567 47.567 0 0 0 -4.544 14.5 8.034 8.034 0 0 1 -7.925 6.945z"/></g></g></svg>