<svg id="Capa_1" enable-background="new 0 0 512 512" height="512" viewBox="0 0 512 512" width="512" xmlns="http://www.w3.org/2000/svg"><g><g><path d="m339.717 507.941v-128.4c0-14.398-11.267-26.584-25.659-27.011-14.954-.444-27.26 11.591-27.26 26.447v63.378c0 33.533-26.628 61.515-60.156 62.026-34.127.521-62.056-27.089-62.056-61.099v-118.095c0-8.197 6.299-15.25 14.487-15.636 8.742-.412 15.959 6.554 15.959 15.206v117.873c0 16.683 13.056 30.803 29.731 31.299 17.328.515 31.589-13.432 31.589-30.646v-63.443c0-31.227 24.797-57.285 56.021-57.762 31.781-.485 57.79 25.226 57.79 56.898v128.964c0 2.242-1.817 4.059-4.059 4.059h-22.327c-2.242.001-4.06-1.816-4.06-4.058z" fill="#e5edfc"/></g><g><path d="m263.172 282.174-51.465 42.129h-63.797l-50.997-41.693c-9.229-5.85-16.539-13.881-16.539-24.808l-7.958-134.317v-32.626l5.162-7.611-5.162-7.612v-43.737c.001-17.618 14.283-31.899 31.9-31.899h150.987c17.617 0 31.899 14.281 31.899 31.899l-9.251 226.338c-.001 10.926-5.549 18.087-14.779 23.937z" fill="#e5edfc"/><path d="m256.083.02c-.001 0-.002 0-.003 0-.301-.008-31.221-.02-31.223-.02 5.156 0 10.024 1.226 14.333 3.4 4.168 2.103 5.282 7.524 2.217 11.047-19.919 22.889-32.002 52.766-32.002 85.42 0 40.356 18.453 76.47 47.351 100.389v58.651c0 10.927-5.593 21.093-14.822 26.943l-60.671 38.454h30.446l60.671-38.454c9.229-5.849 14.822-16.016 14.822-26.943v-227.008c-.001-17.356-13.864-31.464-31.119-31.879z" fill="#d1d9fc"/><path d="m87.239 285.849 60.671 38.454 28.346 15.223 35.451-15.223 60.671-38.454c9.229-5.85 14.822-16.016 14.822-26.943v-38.566l-15.223-89.244h-196.162l-3.398 7.612v32.625l5.05 7.611-5.05 7.611v32.625l4.795 7.611-4.795 7.612v24.503c0 10.927 5.593 21.093 14.822 26.943z" fill="#fd4755"/><path d="m256.755 131.096v127.81c0 10.927-5.593 21.093-14.822 26.943l-60.671 38.454h30.446l60.671-38.454c9.229-5.85 14.822-16.016 14.822-26.943v-38.566l-15.223-89.244z" fill="#fb2b3a"/><path d="m164.586 354.748h30.446v63.797h-30.446z" fill="#d1d9fc"/><path d="m163.86 388.1h31.899c8.809 0 15.949-7.141 15.949-15.949v-47.848h-63.797v47.848c0 8.808 7.14 15.949 15.949 15.949z" fill="#695d69"/><path d="m181.262 324.302v47.848c0 8.809-7.141 15.949-15.949 15.949h30.446c8.809 0 15.949-7.141 15.949-15.949v-47.848z" fill="#564e57"/><g><path d="m72.417 75.636h36.83c4.204 0 7.611 3.408 7.611 7.611s-3.408 7.611-7.611 7.611h-36.83z" fill="#564e57"/></g><g><path d="m72.417 171.333h36.83c4.204 0 7.611 3.408 7.611 7.611 0 4.204-3.408 7.611-7.611 7.611h-36.83z" fill="#564e57"/></g><g><path d="m72.417 123.484h36.83c4.204 0 7.611 3.408 7.611 7.611 0 4.204-3.408 7.611-7.611 7.611h-36.83z" fill="#564e57"/></g><g><path d="m72.417 219.18h36.83c4.204 0 7.611 3.408 7.611 7.611 0 4.204-3.408 7.611-7.611 7.611h-36.83z" fill="#564e57"/></g><path d="m287.201 220.34h-90.908c-5.605 0-10.149-4.544-10.149-10.149v-134.793c0-5.605 4.544-10.149 10.149-10.149h90.908l-15.223 90.291z" fill="#6fd8fd"/><path d="m214.085 65.25c-3.043 11.028-4.681 22.633-4.681 34.616 0 39.235 17.442 74.46 44.967 98.368 1.532 1.331 2.384 3.282 2.384 5.311v16.795h30.446v-155.09z" fill="#28c1fd"/></g><g><circle cx="339.717" cy="99.866" fill="#e5edfc" r="99.866"/><path d="m339.717 0c-5.176 0-10.259.394-15.223 1.153 47.929 7.331 84.643 48.734 84.643 98.713s-36.714 91.383-84.643 98.713c4.964.759 10.047 1.153 15.223 1.153 55.155 0 99.866-44.712 99.866-99.866s-44.712-99.866-99.866-99.866z" fill="#d1d9fc"/><g fill="#695d69"><g><ellipse cx="277.95" cy="89.52" rx="11.645" ry="15.442"/><ellipse cx="401.483" cy="89.52" rx="11.645" ry="15.442"/></g><g><ellipse cx="314.876" cy="54.196" rx="13.61" ry="18.048"/><ellipse cx="364.557" cy="54.196" rx="13.61" ry="18.048"/></g><path d="m300.655 122.002c13.85-35.606 64.273-35.606 78.123 0 .091.234.181.47.269.707 3.746 10.078 7.611 23.703.265 33.102-7.284 9.321-18.437 9.415-27.556 4.718-7.519-3.873-16.559-3.873-24.078 0-9.119 4.697-20.272 4.603-27.556-4.718-7.346-9.4-3.481-23.025.265-33.102.087-.237.177-.473.268-.707z"/></g></g></g></svg>