<svg height="512" viewBox="0 0 512 512" width="512" xmlns="http://www.w3.org/2000/svg"><g id="Flat"><path d="m99.716 265.206h56.569v237.588h-56.569z" fill="#d65246" transform="matrix(.707 -.707 .707 .707 -234.039 202.981)"/><path d="m123.716 379.716h56.569v56.569h-56.569z" fill="#ffb431" transform="matrix(.707 -.707 .707 .707 -243.98 226.981)"/><path d="m64 280 56-176 288 288-176 56z" fill="#348ed8"/><path d="m110.288 206.999h14.757v16.001h-14.757z" fill="#459ce5" transform="matrix(.316 -.949 .949 .316 -123.511 258.634)"/><path d="m80.504 250.5h45.326v16h-45.326z" fill="#459ce5" transform="matrix(.316 -.949 .949 .316 -174.691 274.649)"/><g fill="#b93f33"><path d="m56 312h16v16h-16z"/><path d="m80 336h16v16h-16z"/><path d="m104 360h16v16h-16z"/><path d="m184 440h16v16h-16z"/></g><path d="m465.08 369.08c-38.25 38.24-114.64 27.06-188.59-21.83a396.241 396.241 0 0 1 -61.36-50.38c-45.45-45.45-76.12-96.89-88.69-142.88-12.06-44.03-7.53-83.06 16.48-107.07 49.09-49.08 160.99-16.75 249.95 72.21a402.869 402.869 0 0 1 41.74 48.87c24.32 33.68 40.87 68.35 48.53 100.11 10.01 41.52 4.83 78.08-18.06 100.97z" fill="#4db6e4"/><path d="m488.03 238.98a89.57 89.57 0 0 1 -21.55 58.13l-.6.69a84.3 84.3 0 0 1 -5.88 6.2 86.705 86.705 0 0 1 -60.1 24.11l-96.31-.1a15.938 15.938 0 0 0 -10.85 4.23l-16.25 15.01a396.241 396.241 0 0 1 -61.36-50.38q-8.985-8.985-17.2-18.26-6.27-7.08-12.07-14.29c-29.47-36.54-49.77-75.04-59.42-110.33l19.15-23.98a48.016 48.016 0 0 1 37.48-18.01h95.99a63.992 63.992 0 0 1 52.08 26.8l16.07 22.5a16.032 16.032 0 0 0 13.02 6.7h111.77a15.984 15.984 0 0 1 16 16c0 14.6.01 36.63.03 54.98z" fill="#ffb431"/><path d="m239.58 154.55-41.65 124.06q-6.27-7.08-12.07-14.29l38.56-114.87z" fill="#f4970c"/><circle cx="288" cy="184" fill="#7a432a" r="16"/><path d="m440 168h32a16 16 0 0 1 16 16v32a0 0 0 0 1 0 0h-48a16 16 0 0 1 -16-16v-16a16 16 0 0 1 16-16z" fill="#7a432a"/><path d="m473.33 288a89.206 89.206 0 0 1 -6.85 9.11l-.6.69a84.3 84.3 0 0 1 -5.88 6.2h-124v-16z" fill="#f4970c"/></g></svg>