<svg height="480pt" viewBox="0 -31 480 479" width="480pt" xmlns="http://www.w3.org/2000/svg"><path d="m418.832031 48.5h21.664063v-48h-400v48h20.664062c-38.015625 42.464844-61.160156 98.519531-61.160156 160 0 88.953125 48.433594 166.542969 120.328125 208h239.34375c71.894531-41.457031 120.328125-119.046875 120.328125-208 0-61.480469-23.152344-117.535156-61.167969-160zm0 0" fill="#edeff1"/><path d="m456.496094 160.5c-13.257813 0-24-10.742188-24-24 0 13.257812-10.742188 24-24 24-13.257813 0-24-10.742188-24-24 0 13.257812-10.742188 24-24 24-13.257813 0-24-10.742188-24-24 0 13.257812-10.742188 24-24 24-13.257813 0-24-10.742188-24-24 0 13.257812-10.742188 24-24 24-13.257813 0-24-10.742188-24-24 0 13.257812-10.742188 24-24 24-13.257813 0-24-10.742188-24-24 0 13.257812-10.742188 24-24 24-13.257813 0-24-10.742188-24-24 0 13.257812-10.742188 24-24 24-13.257813 0-24-10.742188-24-24 0 13.257812-10.742188 24-24 24-13.257813 0-24-10.742188-24-24 0 13.257812-10.742188 24-24 24-1.03125 0-2.023438-.175781-3.023438-.304688-3.480468 15.761719-5.480468 31.914063-5.480468 48.304688 0 78.398438 41.535156 151.574219 108.6875 192h230.625c67.152343-40.425781 108.6875-113.601562 108.6875-192 0-16.359375-1.984376-32.480469-5.457032-48.207031-.679687.0625-1.335937.207031-2.039062.207031zm0 0" fill="#80d6fb"/><path d="m425.6875 56.5c-2.222656-2.71875-4.511719-5.382812-6.847656-8h-357.679688c-2.34375 2.617188-4.625 5.28125-6.847656 8zm0 0" fill="#d3d3d3"/><g fill="#ffb236"><path d="m384.496094 272.5c23.375 19.375 24 56 24 56-53.664063 0-72-56-72-56s18.335937-56 72-56c0 0-.625 36.625-24 56zm0 0"/><path d="m248.496094 232.5s10.496094-30.503906 40-40c0 0 1.75 27.503906-8 40zm0 0"/><path d="m248.496094 312.5s10.496094 30.503906 40 40c0 0 1.75-27.503906-8-40zm0 0"/></g><path d="m360.496094 272.5s-31 48-80 48c-44.183594 0-80-21.488281-80-48s35.816406-48 80-48c49 0 80 48 80 48zm0 0" fill="#ffe352"/><path d="m200.496094 272.5c0 18.566406 17.609375 34.640625 43.3125 42.625 7.75-10.273438 12.6875-25.546875 12.6875-42.625s-4.9375-32.351562-12.6875-42.625c-25.703125 7.984375-43.3125 24.058594-43.3125 42.625zm0 0" fill="#ffb236"/><path d="m176.496094 268.5c0 6.628906-5.371094 12-12 12s-12-5.371094-12-12 5.371094-12 12-12 12 5.371094 12 12zm0 0" fill="#46bee8"/><path d="m192.496094 232.5c0 4.417969-3.582032 8-8 8-4.417969 0-8-3.582031-8-8s3.582031-8 8-8c4.417968 0 8 3.582031 8 8zm0 0" fill="#46bee8"/><path d="m160.496094 204.5c0 11.046875-8.953125 20-20 20s-20-8.953125-20-20 8.953125-20 20-20 20 8.953125 20 20zm0 0" fill="#46bee8"/></svg>