<svg height="512" viewBox="0 0 512 512" width="512" xmlns="http://www.w3.org/2000/svg"><g id="Flat"><rect fill="#459ce5" height="400" rx="40" width="464" x="24" y="88"/><rect fill="#459ce5" height="336" rx="40" width="464" x="24" y="152"/><path d="m488 156.25v35.75a32.042 32.042 0 0 0 -32-32h-400a32.042 32.042 0 0 0 -32 32v-35.75a47.753 47.753 0 0 1 32-12.25h400a47.753 47.753 0 0 1 32 12.25z" fill="#348ed8"/><rect fill="#348ed8" height="272" rx="40" width="464" x="24" y="216"/><rect fill="#d5d5d3" height="64" rx="8" width="48" x="96" y="120"/><rect fill="#d5d5d3" height="64" rx="8" width="48" x="368" y="120"/><rect fill="#dfdfdd" height="48" rx="8" width="48" x="96" y="120"/><rect fill="#dfdfdd" height="48" rx="8" width="48" x="368" y="120"/><path d="m176 48v72h32v-64h96v64h32v-72a24 24 0 0 0 -24-24h-112a24 24 0 0 0 -24 24z" fill="#34507b"/><path d="m328 320h-48v-48h-48v48h-48v48h48v48h48v-48h48z" fill="#dfdfdd"/><g fill="#459ce5"><path d="m56 264h16v16h-16z"/><path d="m56 296h16v112h-16z"/></g></g></svg>