<svg height="512" viewBox="0 0 512 512" width="512" xmlns="http://www.w3.org/2000/svg"><rect fill="#c38325" height="456" rx="16" width="368" x="72" y="32"/><path d="m344 456h-240v-392h304v328z" fill="#f9f9f9"/><path d="m160 96h192v160h-192z" fill="#428dc5"/><path d="m160 216a207.444 207.444 0 0 1 62.813-65.875l9.187-6.125h48l16 16h24v18.762a21.239 21.239 0 0 1 -21.238 21.238h-10.762a24 24 0 0 0 -14.4 4.8 64 64 0 0 0 -25.6 51.2h-88z" fill="#f3af3e"/><path d="m256 144v33.373a16 16 0 0 1 -4.686 11.313 16 16 0 0 1 -22.628 0 16 16 0 0 1 -4.686-11.313v-33.373z" fill="#8f563b"/><path d="m248 240h-1.353a90.844 90.844 0 0 1 -77.507-43.884 8 8 0 0 1 13.72-8.232 74.764 74.764 0 0 0 63.787 36.116h1.353a8 8 0 0 1 0 16z" fill="#f55648"/><path d="m304 64h-96a16 16 0 0 1 -16-16v-24h128v24a16 16 0 0 1 -16 16z" fill="#744630"/><path d="m360 328h-24v-24h-32v24h-24v32h24v24h32v-24h24z" fill="#8dc79d"/><g fill="#eaeae8"><path d="m128 296h64v16h-64z"/><path d="m128 328h16v16h-16z"/><path d="m160 328h88v16h-88z"/><path d="m216 360h32v16h-32z"/><path d="m128 360h72v16h-72z"/><path d="m128 392h96v16h-96z"/><path d="m344 456v-64h64z"/></g><path d="m344 456 64-64v16l-48 48z" fill="#a66f1f"/></svg>