<svg id="Capa_1" enable-background="new 0 0 512 512" height="512" viewBox="0 0 512 512" width="512" xmlns="http://www.w3.org/2000/svg"><g><g><path d="m181.314 411.265-43.728-30.932-43.583-56.378 185.525-185.525 9.174-.272c4.329-4.329 12-3.513 16.329.816l66.542 69.317c4.329 4.329 7.595 13.42 3.266 17.75z" fill="#e5edfc"/><path d="m64.931 381.391h64.876v66.48h-64.876z" fill="#e5edfc" transform="matrix(.707 -.707 .707 .707 -264.67 190.293)"/><g><path d="m353.76 158.24c-6.494-6.494-6.494-17.023 0-23.517l129.853-129.853c6.494-6.494 17.023-6.494 23.517 0s6.494 17.023 0 23.517l-129.853 129.853c-6.494 6.494-17.023 6.494-23.517 0z" fill="#d1d9fc"/></g><path d="m102.149 506.724-96.873-96.873c-7.035-7.035-7.035-18.441 0-25.477 7.035-7.035 18.441-7.035 25.477 0l96.872 96.872c7.035 7.035 7.035 18.441 0 25.477-7.035 7.036-18.441 7.036-25.476.001z" fill="#d1d9fc"/><path d="m127.626 481.247-96.872-96.872c-7.035-7.035-18.441-7.035-25.477 0-.074.074-.136.156-.209.231l94.147 94.147c6.961 6.961 7.023 18.195.208 25.246l2.726 2.725c7.035 7.035 18.441 7.035 25.477 0 7.035-7.036 7.035-18.442 0-25.477z" fill="#b6c9fd"/><path d="m169.667 450.572-108.239-108.239c-3.896-3.896-3.896-10.214 0-14.11l11.367-11.367c3.896-3.896 10.214-3.896 14.11 0l108.239 108.239c3.896 3.896 3.896 10.214 0 14.11l-11.367 11.367c-3.896 3.896-10.213 3.896-14.11 0z" fill="#d1d9fc"/><path d="m195.144 425.095-108.239-108.239c-3.897-3.897-10.214-3.897-14.11 0l-3.641 3.641 106.261 106.261c3.896 3.896 3.896 10.214 0 14.11l-7.726 7.725 1.978 1.978c3.896 3.896 10.214 3.896 14.11 0l11.366-11.367c3.897-3.895 3.897-10.213.001-14.109z" fill="#b6c9fd"/><path d="m358.21 200.799-47.009-47.009 22.974-22.974c4.329-4.329 11.349-4.329 15.678 0l31.331 31.331c4.329 4.329 4.329 11.349 0 15.678z" fill="#e5edfc"/><path d="m381.184 209.181-78.365-78.365c-4.329-4.329-11.349-4.329-15.678 0l-7.614 7.614 70.751 70.751c4.329 4.329 4.329 11.349 0 15.678l-177.685 177.685 15.453 15.453 193.138-193.138c4.33-4.33 4.33-11.349 0-15.678z" fill="#d1d9fc"/><g><g><path d="m353.622 252.421-23.517-23.517c-3.017-3.017-3.017-7.909 0-10.927 3.018-3.017 7.909-3.017 10.928 0l23.517 23.517z" fill="#d1d9fc"/></g><g><path d="m318.346 287.696-23.517-23.517c-3.017-3.017-3.017-7.909 0-10.927 3.018-3.017 7.909-3.017 10.928 0l23.517 23.517z" fill="#d1d9fc"/></g><g><path d="m283.07 322.971-23.517-23.517c-3.017-3.017-3.017-7.909 0-10.927 3.018-3.017 7.909-3.017 10.928 0l23.517 23.517z" fill="#d1d9fc"/></g><path d="m278.545 296.592-10.927 10.927 15.452 15.452 8.931-8.93 1.997-1.996z" fill="#b6c9fd"/><g><path d="m247.796 358.247-23.517-23.517c-3.017-3.017-3.017-7.909 0-10.927 3.018-3.017 7.909-3.017 10.928 0l23.517 23.517z" fill="#d1d9fc"/></g><path d="m237.806 334.13h15.453v21.853h-15.453z" fill="#b6c9fd" transform="matrix(.707 -.707 .707 .707 -172.077 274.683)"/><g><path d="m212.52 393.522-23.517-23.517c-3.017-3.017-3.017-7.909 0-10.927 3.018-3.017 7.909-3.017 10.928 0l23.517 23.517z" fill="#d1d9fc"/></g><g fill="#b6c9fd"><path d="m207.994 367.143-10.927 10.927 15.453 15.452 2.926-2.925 8.001-8.002z"/><path d="m349.096 226.041-10.927 10.927 15.453 15.453 3.93-3.931 6.997-6.996z"/><path d="m313.821 261.317-10.927 10.927 15.452 15.452 3.68-3.679 7.247-7.248z"/></g></g></g><g><path d="m231.78 166.56c0 7.67-.917 15.126-2.647 22.264-2.333 9.626-10.429 18.673-15.465 26.89-12.824 20.921-29.303 36.451-53.814 42.392-7.14 1.731-14.597 2.648-22.269 2.648-52.022 0-94.194-42.172-94.194-94.194s42.172-94.194 94.194-94.194 94.195 42.172 94.195 94.194z" fill="#bef8a8"/><path d="m137.586 72.366c-5.264 0-10.424.439-15.452 1.269 44.669 7.373 78.741 46.167 78.741 92.925s-34.072 85.552-78.741 92.925c5.028.83 10.189 1.269 15.452 1.269 52.022 0 94.194-42.172 94.194-94.194s-42.172-94.194-94.194-94.194z" fill="#a0e38b"/><g><path d="m117.923 208.291c-3.59 0-7.18-1.367-9.913-4.1l-24.068-24.068c-3.017-3.017-3.017-7.909 0-10.927 3.018-3.017 7.909-3.017 10.928 0l23.054 23.054 62.381-62.382c3.018-3.017 7.909-3.017 10.928 0 3.017 3.017 3.017 7.909 0 10.927l-63.395 63.395c-2.735 2.735-6.326 4.101-9.915 4.101z" fill="#fff"/></g></g></g></svg>