<svg height="479pt" viewBox="-52 0 479 479.99536" width="479pt" xmlns="http://www.w3.org/2000/svg"><path d="m188.496094 164.667969c12.839844 0 21.722656 11.328125 39.664062 11.328125 12.785156 0 28.328125-10.066406 28.328125-24.695313 0-45.328125-39.300781-67.992187-67.992187-67.992187-28.6875 0-67.992188 22.664062-67.992188 67.992187 0 14.636719 15.546875 24.695313 28.328125 24.695313 17.945313 0 26.824219-11.328125 39.664063-11.328125zm0 0" fill="#6e83b7"/><path d="m116.378906 61.226562c8.117188 8.878907 16.320313 32.320313 7.4375 40.441407-8.878906 8.121093-31.488281-2.152344-39.605468-11.03125-8.121094-8.882813-7.503907-22.664063 1.382812-30.785157 8.878906-8.128906 22.664062-7.511718 30.785156 1.375zm0 0" fill="#6e83b7"/><path d="m124.066406 37.957031c5.3125 14.710938 27.320313 38.328125 42.039063 33.015625 14.710937-5.3125 16.566406-37.539062 11.257812-52.257812-5.3125-14.71875-21.554687-22.335938-36.265625-17.023438-14.710937 5.3125-22.34375 21.542969-17.03125 36.265625zm0 0" fill="#6e83b7"/><path d="m260.617188 61.226562c-8.121094 8.878907-16.320313 32.320313-7.441407 40.441407 8.882813 8.121093 31.488281-2.152344 39.609375-11.03125 8.121094-8.882813 7.503906-22.664063-1.382812-30.785157-8.878906-8.128906-22.664063-7.511718-30.785156 1.375zm0 0" fill="#6e83b7"/><path d="m252.929688 37.957031c-5.3125 14.710938-27.320313 38.328125-42.039063 33.015625-14.714844-5.3125-16.570313-37.539062-11.257813-52.257812s21.554688-22.335938 36.265626-17.023438c14.71875 5.3125 22.34375 21.542969 17.03125 36.265625zm0 0" fill="#6e83b7"/><path d="m340.496094 143.996094-136 104.503906-40 55.496094 32 32 55.503906-40 104.496094-136v-16zm0 0" fill="#edeff1"/><path d="m356.496094 143.996094v8l-172 172-8-8 172-172zm0 0" fill="#d3d3d3"/><path d="m127.496094 404.996094 69-69-32-32-69 69c-6.78125-12.449219-19.824219-21-35-21-22.085938 0-40 17.910156-40 40 0 22.085937 17.914062 40 40 40 3.160156 0 6.203125-.457032 9.152344-1.152344-.695313 2.953125-1.152344 5.992188-1.152344 9.152344 0 22.085937 17.914062 40 40 40 22.089844 0 40-17.914063 40-40 0-15.175782-8.550782-28.214844-21-35zm-91-13c0-13.257813 10.746094-24 24-24 13.257812 0 24 10.742187 24 24 0 13.253906-10.742188 24-24 24-13.253906 0-24-10.746094-24-24zm72 72c-13.253906 0-24-10.746094-24-24 0-13.257813 10.746094-24 24-24 13.257812 0 24 10.742187 24 24 0 13.253906-10.742188 24-24 24zm0 0" fill="#ffb0aa"/><path d="m108.496094 399.996094 76-76-8-8-76 76c0 3.160156-.453125 6.199218-1.152344 9.152344 2.953125-.695313 5.992188-1.152344 9.152344-1.152344zm0 0" fill="#ff7b7b"/><path d="m48.671875 175.996094-48.175781 48 .007812 15.65625 95.992188 96.34375h16l48-47.824219zm0 0" fill="#edeff1"/><path d="m64.5 143.996094 311.992188 311.996094-24 24-311.996094-311.996094zm0 0" fill="#80d6fb"/><g fill="#d3d3d3"><path d="m57.671875 225.164062 5.65625 5.65625-36 36-5.65625-5.65625zm0 0"/><path d="m73.671875 241.164062 5.65625 5.65625-36 36-5.65625-5.65625zm0 0"/><path d="m89.671875 257.164062 5.65625 5.65625-36 36-5.65625-5.65625zm0 0"/><path d="m105.671875 273.164062 5.65625 5.65625-36 36-5.65625-5.65625zm0 0"/><path d="m121.671875 289.164062 5.65625 5.65625-36 36-5.65625-5.65625zm0 0"/><path d="m41.671875 209.164062 5.65625 5.65625-36 36-5.65625-5.65625zm0 0"/></g></svg>