<svg height="480pt" viewBox="0 0 480 480" width="480pt" xmlns="http://www.w3.org/2000/svg"><path d="m431.167969 225.625c-9.167969-7.074219-14.871094-17.6875-16.824219-29.105469-.878906-5.144531-2.167969-10.183593-3.695312-15.152343l42.808593-74.917969c6.910157-12.089844 10.542969-25.769531 10.542969-39.695313v-10.753906c0-24.800781-11-56-64-56-42.695312 0-109.183594 50.441406-129.71875 66.871094-10.097656-1.855469-20.25-2.871094-30.28125-2.871094s-20.183594 1.015625-30.28125 2.871094c-20.535156-16.429688-87.023438-66.871094-129.71875-66.871094-53 0-64 31.199219-64 56v10.753906c0 13.917969 3.632812 27.597656 10.542969 39.6875l42.808593 74.917969c-1.527343 4.96875-2.816406 10.007813-3.695312 15.152344-1.953125 11.417969-7.65625 22.023437-16.824219 29.105469-25.222656 19.472656-48.832031 55.71875-48.832031 102.382812 0 56.664062 33.0625 103.503906 75.984375 110.960938 9.421875 1.640624 18.464844 5.078124 27.023437 9.359374 23.417969 11.726563 72.71875 31.679688 136.992188 31.679688s113.574219-19.953125 137-31.671875c8.550781-4.28125 17.59375-7.71875 27.023438-9.359375 42.914062-7.464844 75.976562-54.304688 75.976562-110.96875 0-46.664062-23.609375-82.910156-48.832031-102.375zm0 0" fill="#ffe352"/><path d="m77.40625 161.601562c16.890625-33.890624 48.195312-61.875 84.488281-79.066406-26.445312-18.742187-65.453125-42.535156-93.285156-42.535156-9.792969 0-17.96875 1.199219-24.800781 3.28125-6.601563 2.015625-11.039063 8.175781-11.136719 15.070312-.046875 3.128907-.0625 5.726563-.0625 5.726563 0 12.53125 3.269531 24.84375 9.488281 35.722656zm0 0" fill="#ffb236"/><path d="m402.59375 161.601562 35.308594-61.800781c6.21875-10.878906 9.488281-23.191406 9.488281-35.722656 0 0-.023437-2.589844-.0625-5.726563-.097656-6.894531-4.535156-13.054687-11.136719-15.070312-6.824218-2.082031-15-3.28125-24.800781-3.28125-27.832031 0-66.847656 23.792969-93.285156 42.535156 36.292969 17.191406 67.597656 45.175782 84.488281 79.066406zm0 0" fill="#ffb236"/><path d="m289.113281 261.425781-4.441406-37.714843c-2.664063-22.648438-21.855469-39.710938-44.65625-39.710938h-.039063c-22.800781 0-41.992187 17.0625-44.65625 39.703125l-4.441406 37.710937c-2.125 18.066407-14.976562 32.914063-32.445312 37.96875-61.050782 17.65625-110.578125 54.578126-137.160156 101.585938 13.6875 20.253906 32.941406 34.238281 54.765624 38.007812 9.417969 1.625 18.425782 5.085938 26.976563 9.359376 23.449219 11.726562 72.738281 31.664062 136.984375 31.664062s113.535156-19.9375 136.96875-31.664062c8.542969-4.273438 17.550781-7.734376 26.976562-9.359376 21.824219-3.769531 41.078126-17.753906 54.765626-38.007812-26.582032-47-76.101563-83.921875-137.160157-101.585938-17.460937-5.046874-30.320312-19.902343-32.4375-37.957031zm0 0" fill="#edeff1"/><path d="m232 296h16v32h-16zm0 0" fill="#d3d3d3"/><path d="m272 368c-22.054688 0-40-17.945312-40-40h16c0 13.230469 10.769531 24 24 24s24-10.769531 24-24h16c0 22.054688-17.945312 40-40 40zm0 0" fill="#d3d3d3"/><path d="m208 368c-22.054688 0-40-17.945312-40-40h16c0 13.230469 10.769531 24 24 24s24-10.769531 24-24h16c0 22.054688-17.945312 40-40 40zm0 0" fill="#d3d3d3"/><path d="m240 272h-17.199219c-8.175781 0-14.800781 6.625-14.800781 14.800781v.054688c0 5.609375 3.167969 10.730469 8.183594 13.242187l4.441406 2.222656c2.214844 1.105469 4.671875 1.679688 7.152344 1.679688h24.445312c2.480469 0 4.9375-.574219 7.152344-1.6875l4.441406-2.222656c5.015625-2.503906 8.183594-7.632813 8.183594-13.234375v-.054688c0-8.175781-6.625-14.800781-14.800781-14.800781zm0 0" fill="#ffb236"/><g fill="#d3d3d3"><path d="m428.703125 272.714844 6.617187 14.558594-88.003906 39.992187-6.617187-14.558594zm0 0"/><path d="m347.320312 360.726562 88.003907 40-6.617188 14.558594-88.003906-40zm0 0"/><path d="m352 336h80v16h-80zm0 0"/><path d="m51.308594 272.726562 88.003906 40-6.617188 14.558594-88.003906-40zm0 0"/><path d="m132.703125 360.722656 6.617187 14.558594-88.003906 39.988281-6.617187-14.558593zm0 0"/><path d="m48 336h80v16h-80zm0 0"/></g></svg>