<svg height="512" viewBox="0 0 512 512" width="512" xmlns="http://www.w3.org/2000/svg"><path d="m224 176-48 48q-2.145-1.065-4.16-2.31a57.872 57.872 0 0 1 -27.72-45.69q-.12-1.875-.12-3.78v-20.22h48z" fill="#f3af3e"/><path d="m208 200-20 12-16.16 9.69a57.872 57.872 0 0 1 -27.72-45.69h40.61l19.33 19.94z" fill="#5b3726"/><path d="m368 152v20.22q0 1.905-.12 3.78a57.929 57.929 0 0 1 -31.88 48l-48-48 32-24z" fill="#f3af3e"/><path d="m367.88 176a57.883 57.883 0 0 1 -24.58 43.65l-23.3-11.65-16-8 3.94-4.06 19.33-19.94z" fill="#5b3726"/><path d="m344 240v104h-176v-104a88 88 0 0 1 176 0z" fill="#f3af3e"/><path d="m360 32-8 32 88 56v216h32v-232l-104-69.333z" fill="#b9b9b9"/><path d="m472 360v48a80 80 0 0 1 -80 80h-272a80 80 0 0 1 -80-80v-48z" fill="#6fbbc6"/><rect fill="#8aced8" height="32" rx="16" width="464" x="24" y="328"/><path d="m346.788 89.862-35.788-53.062 22.435-10.24a28.331 28.331 0 0 1 35.253 9.932 28.332 28.332 0 0 1 -4 36.406z" fill="#cbcbcb"/><path d="m224 288v16a40.056 40.056 0 0 1 -37.61-26.39 40.128 40.128 0 0 1 -18.39-13.65v-23.96h8a23.937 23.937 0 0 0 8 17.87v-9.87h16v16a24.032 24.032 0 0 0 24 24z" fill="#da922a"/><path d="m344 240v23.96a40.128 40.128 0 0 1 -18.39 13.65 40.056 40.056 0 0 1 -37.61 26.39v-16a24.032 24.032 0 0 0 24-24v-16h16v9.87a23.937 23.937 0 0 0 8-17.87z" fill="#da922a"/><path d="m215.351 203.999h25.298v16.001h-25.298z" fill="#d18d28" transform="matrix(.949 -.316 .316 .949 -55.345 82.99)"/><path d="m275.999 199.351h16.001v25.298h-16.001z" fill="#d18d28" transform="matrix(.316 -.949 .949 .316 -6.93 414.386)"/><path d="m291.578 287.155-7.156-14.31a27.932 27.932 0 0 1 -20.422 1.747v-18.592h-16v18.6a27.951 27.951 0 0 1 -20.422-1.75l-7.156 14.31a43.9 43.9 0 0 0 35.578 1.566 43.9 43.9 0 0 0 35.578-1.571z" fill="#744630"/><path d="m192 320a15.915 15.915 0 0 1 -2.14 8h-21.86v-32a24 24 0 0 1 24 24z" fill="#d18d28"/><path d="m344 296v32h-21.86a15.915 15.915 0 0 1 -2.14-8 24 24 0 0 1 24-24z" fill="#d18d28"/><g fill="#c0f5f9"><path d="m232 136h-16a78.415 78.415 0 0 1 4.676-26.718l15.049 5.436a62.45 62.45 0 0 0 -3.725 21.282z"/><path d="m243.009 100.529-13.19-9.058a78.107 78.107 0 0 1 24.365-22.911l5.7-3.42 8.232 13.72-5.7 3.42a62.212 62.212 0 0 0 -19.407 18.249z"/><path d="m272 136h-16a78.415 78.415 0 0 1 4.676-26.718l15.049 5.436a62.45 62.45 0 0 0 -3.725 21.282z"/><path d="m283.009 100.529-13.19-9.058a78.107 78.107 0 0 1 24.365-22.911l5.7-3.42 8.232 13.72-5.7 3.42a62.212 62.212 0 0 0 -19.407 18.249z"/><path d="m312 136h-16a78.415 78.415 0 0 1 4.676-26.718l15.049 5.436a62.45 62.45 0 0 0 -3.725 21.282z"/></g><circle cx="80" cy="264" fill="#b3e4e8" r="32"/><circle cx="48" cy="184" fill="#c0f5f9" r="24"/><circle cx="392" cy="256" fill="#c0f5f9" r="16"/><path d="m96 392a8 8 0 0 1 -8 8h-48v-16h48a8 8 0 0 1 8 8z" fill="#8aced8"/><path d="m128 400h-8a8 8 0 0 1 0-16h8a8 8 0 0 1 0 16z" fill="#8aced8"/><path d="m256 416a8 8 0 0 0 8-8v-8a8 8 0 0 0 -16 0v8a8 8 0 0 0 8 8z" fill="#744630"/><path d="m240 424v-8a8 8 0 0 0 -16 0v8a8 8 0 0 0 16 0z" fill="#744630"/><path d="m280 408a8 8 0 0 0 -8 8v8a8 8 0 0 0 16 0v-8a8 8 0 0 0 -8-8z" fill="#744630"/><path d="m272 440h-8v-8a8 8 0 0 0 -16 0v8h-8a8 8 0 0 0 0 16h32a8 8 0 0 0 0-16z" fill="#744630"/><path d="m384 464a8 8 0 0 1 0-16 48.053 48.053 0 0 0 48-48 8 8 0 0 1 16 0 64.072 64.072 0 0 1 -64 64z" fill="#8aced8"/><path d="m352 464h-8a8 8 0 0 1 0-16h8a8 8 0 0 1 0 16z" fill="#8aced8"/><path d="m168 336h-16a16 16 0 0 1 -16-16 24 24 0 0 1 24-24 24 24 0 0 1 24 24 16 16 0 0 1 -16 16z" fill="#f3af3e"/><path d="m360 336h-16a16 16 0 0 1 -16-16 24 24 0 0 1 24-24 24 24 0 0 1 24 24 16 16 0 0 1 -16 16z" fill="#f3af3e"/><path d="m256 264a16 16 0 0 1 -16-16v-16h32v16a16 16 0 0 1 -16 16z" fill="#5b3726"/><path d="m40 360h432v16h-432z" fill="#69b0bb"/><path d="m299.63 32.278h32v80h-32z" fill="#b9b9b9" transform="matrix(.829 -.559 .559 .829 13.535 188.831)"/></svg>