<svg height="512" viewBox="0 0 512 512" width="512" xmlns="http://www.w3.org/2000/svg"><g id="Flat"><path d="m144 24h224a16 16 0 0 1 16 16v40a0 0 0 0 1 0 0h-256a0 0 0 0 1 0 0v-40a16 16 0 0 1 16-16z" fill="#d65246"/><path d="m410.22 319.11a305.98 305.98 0 0 1 -41.15 153.22l-9.07 15.67h-208l-9.07-15.67a305.779 305.779 0 0 1 -13.74-279.74 91.151 91.151 0 0 0 3.49-66.55 91.366 91.366 0 0 1 -4.68-28.83v-17.21h256v17.21a91.192 91.192 0 0 1 -4.68 28.83 91.151 91.151 0 0 0 3.49 66.55 305.657 305.657 0 0 1 27.41 126.52z" fill="#dfdfdd"/><path d="m402.6 386.93a305.515 305.515 0 0 1 -33.53 85.4l-9.07 15.67h-208l-9.07-15.67a305.663 305.663 0 0 1 -36.77-101.64l7.66 5.47a167.185 167.185 0 0 0 165.79 16.41 167.25 167.25 0 0 1 122.99-5.64z" fill="#d65246"/><path d="m208 352a54.371 54.371 0 0 1 -53.95-47.63l-1.23-9.81-.487-13.893 19-.334z" fill="#df6257"/><path d="m312 352h-48a47.991 47.991 0 0 1 -48-48v-15.5h32l15.17 14.69.83.81z" fill="#df6257"/><path d="m291.32 352h-22.64l-18.34-18.34 11.32-11.32z" fill="#d65246"/><path d="m296 192-57 57.5h-63v-9.5a48 48 0 0 1 48-48z" fill="#df6257"/><path d="m368 224h-26.617a51.866 51.866 0 0 0 -49.2 35.464 106.577 106.577 0 0 0 -71.408-27.464h-9.55a106.582 106.582 0 0 0 -83.225 40 106.582 106.582 0 0 0 83.225 40h9.55a106.577 106.577 0 0 0 71.4-27.464 51.866 51.866 0 0 0 49.208 35.464h26.617a44.4 44.4 0 0 0 -30.358-42.119l-17.642-5.881 17.642-5.881a44.4 44.4 0 0 0 30.358-42.119z" fill="#d65246"/><path d="m269.69 192-40.92 30.42-9.54-12.84 23.65-17.58z" fill="#d65246"/><path d="m180 256a12 12 0 1 0 12 12 12.01 12.01 0 0 0 -12-12z" fill="#7a432a"/><path d="m206.7 301.982-10.623-11.964a23.335 23.335 0 0 0 0-36.036l10.623-11.964c8.953 7.95 13.884 18.6 13.884 29.982s-4.927 22.032-13.884 29.982z" fill="#c94c41"/><ellipse cx="212" cy="136" fill="#2f9ccb" rx="44" ry="24"/><path d="m280 112h64v16h-64z" fill="#c6c6c4"/><path d="m280 144h64v16h-64z" fill="#c6c6c4"/><g fill="#b93f33"><path d="m160 440h16v16h-16z"/><path d="m192 440h48v16h-48z"/><path d="m336 440h16v16h-16z"/><path d="m304 440h16v16h-16z"/></g></g></svg>