<svg id="Capa_1" enable-background="new 0 0 512 512" height="512" viewBox="0 0 512 512" width="512" xmlns="http://www.w3.org/2000/svg"><g><g><g><path d="m484.254 215.417h-456.508v-128.443l343.024-15 113.484 15z" fill="#e5edfc"/><path d="m500.5 86.974h-489c-2.209 0-4-1.791-4-4v-8.841c0-14.313 11.603-25.916 25.916-25.916h445.168c14.313 0 25.916 11.603 25.916 25.916v8.841c0 2.209-1.791 4-4 4z" fill="#fd4755"/><path d="m478.584 48.217h-30c14.313 0 25.916 11.603 25.916 25.916v8.841c0 2.209-1.791 4-4 4h30c2.209 0 4-1.791 4-4v-8.841c0-14.313-11.603-25.916-25.916-25.916z" fill="#fb2b3a"/><path d="m27.746 86.974v30h419.508c3.866 0 7 3.134 7 7v91.443h30v-128.443z" fill="#d1d9fc"/><g><path d="m370.604 196.038-114.604 15-114.604-15v-166.038c0-16.569 13.431-30 30-30h169.208c16.569 0 30 13.431 30 30z" fill="#6fd8fd"/></g><path d="m340.604 0h-30c16.569 0 30 13.431 30 30v166.038h30v-166.038c0-16.569-13.432-30-30-30z" fill="#28c1fd"/><path d="m27.746 215.417h456.508v289.677h-456.508z" fill="#e5edfc"/><g fill="#fff"><g><ellipse cx="190.065" cy="86.974" rx="12.431" ry="16.484"/><ellipse cx="321.935" cy="86.974" rx="12.431" ry="16.484"/></g><g><ellipse cx="229.483" cy="49.266" rx="14.529" ry="19.266"/><ellipse cx="282.517" cy="49.266" rx="14.529" ry="19.266"/></g><path d="m214.302 121.649c14.785-38.009 68.611-38.009 83.395 0 .097.25.193.502.287.755 3.999 10.758 8.124 25.302.283 35.336-7.776 9.95-19.682 10.05-29.416 5.036-8.027-4.135-17.676-4.135-25.703 0-9.734 5.014-21.64 4.914-29.416-5.036-7.841-10.034-3.716-24.579.283-35.336.094-.253.19-.505.287-.755z"/></g><path d="m33.416 226.038c-1.949 0-3.844.222-5.67.63v38.127h419.508c3.866 0 7 3.134 7 7v233.299h30v-278.426z" fill="#d1d9fc"/><path d="m500.5 234.795h-489c-2.209 0-4-1.791-4-4v-8.841c0-14.313 11.603-25.916 25.916-25.916h445.168c14.313 0 25.916 11.603 25.916 25.916v8.841c0 2.21-1.791 4-4 4z" fill="#fd4755"/><path d="m478.584 196.038h-30c14.313 0 25.916 11.603 25.916 25.916v8.841c0 2.209-1.791 4-4 4h30c2.209 0 4-1.791 4-4v-8.841c0-14.313-11.603-25.916-25.916-25.916z" fill="#fb2b3a"/><path d="m204.616 505.094h-131.87v-193.638c0-3.866 3.134-7 7-7h117.87c3.866 0 7 3.134 7 7z" fill="#6fd8fd"/><path d="m197.616 304.456h-30c3.866 0 7 3.134 7 7v193.638h30v-193.638c0-3.866-3.134-7-7-7z" fill="#28c1fd"/><path d="m432.254 405.053h-146.869c-3.866 0-7-3.134-7-7v-86.597c0-3.866 3.134-7 7-7h146.869c3.866 0 7 3.134 7 7v86.597c0 3.866-3.134 7-7 7z" fill="#6fd8fd"/><path d="m432.254 304.456h-30c3.866 0 7 3.134 7 7v86.597c0 3.866-3.134 7-7 7h30c3.866 0 7-3.134 7-7v-86.597c0-3.866-3.134-7-7-7z" fill="#28c1fd"/><path d="m439.254 362.255v-15h-72.935v-42.799h-15v42.799h-72.934v15h72.934v42.798h15v-42.798z" fill="#28c1fd"/><path d="m409.254 347.255h30v15h-30z" fill="#0eb0e2"/><g><path d="m174.616 423.427c-4.142 0-7.5-3.357-7.5-7.5v-16.739c0-4.143 3.358-7.5 7.5-7.5s7.5 3.357 7.5 7.5v16.739c0 4.142-3.358 7.5-7.5 7.5z" fill="#695d69"/></g></g><g><path d="m504.5 512h-497c-4.142 0-7.5-3.357-7.5-7.5s3.358-7.5 7.5-7.5h497c4.142 0 7.5 3.357 7.5 7.5s-3.358 7.5-7.5 7.5z" fill="#564e57"/></g></g><g fill="#fd4755"><path d="m444.058 145.72h-8.63v-8.63c0-4.143-3.358-7.5-7.5-7.5s-7.5 3.357-7.5 7.5v8.63h-8.629c-4.142 0-7.5 3.357-7.5 7.5s3.358 7.5 7.5 7.5h8.629v8.63c0 4.143 3.358 7.5 7.5 7.5s7.5-3.357 7.5-7.5v-8.63h8.63c4.142 0 7.5-3.357 7.5-7.5s-3.358-7.5-7.5-7.5z"/><path d="m101.389 145.72h-8.629v-8.63c0-4.143-3.358-7.5-7.5-7.5s-7.5 3.357-7.5 7.5v8.63h-8.63c-4.142 0-7.5 3.357-7.5 7.5s3.358 7.5 7.5 7.5h8.63v8.63c0 4.143 3.358 7.5 7.5 7.5s7.5-3.357 7.5-7.5v-8.63h8.629c4.142 0 7.5-3.357 7.5-7.5s-3.358-7.5-7.5-7.5z"/></g></g></svg>