<svg height="512" viewBox="0 0 512 512" width="512" xmlns="http://www.w3.org/2000/svg"><g id="Flat"><rect fill="#f88400" height="304" rx="32" width="64" x="144" y="104"/><rect fill="#f88400" height="272" rx="32" width="64" x="272" y="120"/><path d="m376 256c0 25.07-15.01 48.06-40 66.01-17.16 12.34-39.04 22.3-64 28.91a278.764 278.764 0 0 1 -64 8.97q-3.975.105-8 .11a287.666 287.666 0 0 1 -56-5.39 229.244 229.244 0 0 1 -56-18.38c-29.09-14.2-50.33-33.81-59.29-56.23a65.237 65.237 0 0 1 -4.19-16 60.84 60.84 0 0 1 -.52-8c0-32.3 24.91-61.15 64-80.23a229.244 229.244 0 0 1 56-18.38 287.666 287.666 0 0 1 56-5.39q4.02 0 8 .11a278.764 278.764 0 0 1 64 8.97c24.96 6.61 46.84 16.57 64 28.91 24.99 17.95 40 40.94 40 66.01z" fill="#dfdfdd"/><path d="m488 215.38v81.24a47.384 47.384 0 0 1 -76.98 37l-19.02-15.22-27.01-21.61a55.921 55.921 0 0 1 2.87-89.49l24.14-16.9 19.76-13.84a47.432 47.432 0 0 1 27.18-8.56h1.68a47.376 47.376 0 0 1 47.38 47.38z" fill="#dfdfdd"/><g fill="#ea7206"><path d="m208 152.11v207.78q-3.975.105-8 .11a287.666 287.666 0 0 1 -56-5.39v-197.22a287.666 287.666 0 0 1 56-5.39q4.02 0 8 .11z"/><path d="m336 189.99v132.02c-17.16 12.34-39.04 22.3-64 28.91v-189.84c24.96 6.61 46.84 16.57 64 28.91z"/><path d="m88 175.77v160.46c-29.09-14.2-50.33-33.81-59.29-56.23a65.237 65.237 0 0 1 -4.19-16 60.84 60.84 0 0 1 -.52-8c0-32.3 24.91-61.15 64-80.23z"/><path d="m488 215.38v81.24a47.384 47.384 0 0 1 -76.98 37l-19.02-15.22v-128l19.76-13.84a47.432 47.432 0 0 1 27.18-8.56h1.68a47.376 47.376 0 0 1 47.38 47.38z"/></g><path d="m72 256a16 16 0 1 1 16-16 16.018 16.018 0 0 1 -16 16z" fill="#78462f"/><path d="m48 264v16h-19.29a65.237 65.237 0 0 1 -4.19-16z" fill="#dd5d00"/><path d="m144 240v32l40.265 26.843a30.7 30.7 0 0 0 17.035 5.157 30.7 30.7 0 0 0 30.7-30.7v-34.6a30.7 30.7 0 0 0 -30.7-30.7 30.7 30.7 0 0 0 -17.031 5.157z" fill="#f88400"/></g></svg>