<svg height="480pt" viewBox="-63 0 479 480" width="480pt" xmlns="http://www.w3.org/2000/svg"><path d="m352.5 32v432c0 8.839844-7.160156 16-16 16h-320c-8.839844 0-16-7.160156-16-16v-432c0-8.839844 7.160156-16 16-16h320c8.839844 0 16 7.160156 16 16zm0 0" fill="#6e83b7"/><path d="m16.5 32h320v432h-320zm0 0" fill="#edeff1"/><path d="m240.5 48h-128c-8.839844 0-16-7.160156-16-16v-16c0-8.839844 7.160156-16 16-16h128c8.839844 0 16 7.160156 16 16v16c0 8.839844-7.160156 16-16 16zm0 0" fill="#6e83b7"/><path d="m176.5 104c-18.585938 0-35.183594-14.222656-39.121094-32h-56.878906c-4.414062 0-8-3.574219-8-8v-40c0-4.425781 3.585938-8 8-8h16v16h-8v24h56c4.414062 0 8 3.574219 8 8 0 12.558594 11.441406 24 24 24s24-11.441406 24-24c0-4.425781 3.585938-8 8-8h56v-24h-8v-16h16c4.414062 0 8 3.574219 8 8v40c0 4.425781-3.585938 8-8 8h-56.878906c-3.9375 17.777344-20.535156 32-39.121094 32zm0 0" fill="#466089"/><path d="m168.5 440c-.136719 0-.265625 0-.390625-.007812-3.296875-.167969-6.160156-2.328126-7.203125-5.464844l-24.40625-73.230469-8.40625 25.230469c-1.089844 3.273437-4.144531 5.472656-7.59375 5.472656h-48v-16h42.230469l14.175781-42.527344c1.097656-3.273437 4.144531-5.472656 7.59375-5.472656s6.503906 2.199219 7.59375 5.472656l25.476562 76.429688 23.625-53.148438c1.257813-2.832031 4.03125-4.683594 7.128907-4.753906 3.335937.015625 5.960937 1.664062 7.335937 4.425781l17.832032 35.671875 8.351562-12.53125c1.488281-2.230468 3.984375-3.566406 6.65625-3.566406h40v16h-35.71875l-13.625 20.441406c-1.578125 2.367188-4.335938 3.65625-7.152344 3.542969-2.847656-.175781-5.382812-1.855469-6.664062-4.410156l-16.414063-32.832031-25.121093 56.503906c-1.28125 2.90625-4.152344 4.753906-7.304688 4.753906zm0 0" fill="#6e83b7"/><path d="m48.5 208h256v16h-256zm0 0" fill="#d3d3d3"/><path d="m48.5 248h256v16h-256zm0 0" fill="#d3d3d3"/><path d="m48.5 288h256v16h-256zm0 0" fill="#d3d3d3"/><path d="m152.5 120h152v16h-152zm0 0" fill="#d3d3d3"/><path d="m152.5 160h152v16h-152zm0 0" fill="#d3d3d3"/><g fill="#6e83b7"><path d="m88.5 171.878906c4.664062 0 7.894531 4.121094 14.425781 4.121094 4.644531 0 10.300781-3.65625 10.300781-8.984375 0-16.480469-14.292968-24.71875-24.71875-24.71875-10.421874 0-24.71875 8.238281-24.71875 24.71875 0 5.320313 5.65625 8.984375 10.304688 8.984375 6.511719 0 9.742188-4.121094 14.40625-4.121094zm0 0"/><path d="m62.277344 134.265625c2.949218 3.230469 5.933594 11.75 2.703125 14.703125-3.234375 2.953125-11.449219-.785156-14.402344-4.007812-2.949219-3.234376-2.726563-8.242188.507813-11.191407 3.222656-2.960937 8.238281-2.738281 11.191406.496094zm0 0"/><path d="m65.066406 125.800781c1.9375 5.351563 9.9375 13.933594 15.289063 12.007813 5.351562-1.9375 6.023437-13.648438 4.089843-19-1.9375-5.351563-7.839843-8.121094-13.183593-6.191406-5.355469 1.925781-8.121094 7.832031-6.195313 13.183593zm0 0"/><path d="m114.722656 134.265625c-2.949218 3.230469-5.933594 11.75-2.703125 14.703125 3.234375 2.953125 11.449219-.785156 14.402344-4.007812 2.949219-3.234376 2.726563-8.242188-.507813-11.191407-3.230468-2.953125-8.238281-2.738281-11.191406.496094zm0 0"/><path d="m111.933594 125.800781c-1.9375 5.351563-9.9375 13.933594-15.289063 12.007813-5.351562-1.9375-6.023437-13.648438-4.089843-19 1.9375-5.351563 7.839843-8.121094 13.183593-6.191406 5.355469 1.925781 8.121094 7.832031 6.195313 13.183593zm0 0"/></g></svg>