<svg height="512" viewBox="0 0 512 512" width="512" xmlns="http://www.w3.org/2000/svg"><path d="m336 245.3v210.7a32 32 0 0 1 -32 32h-160a32 32 0 0 1 -32-32v-210.7a79.972 79.972 0 0 1 38.84-68.6l41.16-24.7h64l41.16 24.7a79.972 79.972 0 0 1 38.84 68.6z" fill="#b8eaee"/><path d="m320 245.3v210.7a32 32 0 0 1 -32 32h-144a32 32 0 0 1 -32-32v-210.7a79.972 79.972 0 0 1 38.84-68.6l41.16-24.7h48l41.16 24.7a79.972 79.972 0 0 1 38.84 68.6z" fill="#aedee2"/><path d="m336 392v64a32 32 0 0 1 -32 32h-160a32 32 0 0 1 -32-32v-64z" fill="#eea5a9"/><path d="m320 392v64a32 32 0 0 1 -32 32h-144a31.973 31.973 0 0 1 -32-32v-64z" fill="#de9a9e"/><path d="m277.632 248a81.91 81.91 0 0 0 -107.264 0h-58.368v176h224v-176z" fill="#e4e4e2"/><path d="m192 104h64v48h-64z" fill="#fbb540"/><path d="m200 72h48v32h-48z" fill="#d18d28"/><path d="m264 32v32h72l16 32h32l-32-64z" fill="#d18d28"/><circle cx="226" cy="302" fill="#fbb540" r="82"/><g fill="#d18d28"><path d="m240 356a16 16 0 1 0 0-32 16 16 0 0 0 -32 0v.012a16 16 0 1 0 .31 31.988z"/><circle cx="224" cy="271.997" r="12"/><circle cx="180" cy="295.997" r="12"/><circle cx="268" cy="295.997" r="12"/></g><circle cx="104" cy="240" fill="#c0f5f9" r="32"/><circle cx="392" cy="320" fill="#c0f5f9" r="24"/><circle cx="424" cy="256" fill="#aedee2" r="16"/><path d="m376 128s-13.135 30.344-14.5 33.266a16 16 0 1 0 29.3.667c-1.3-3.133-14.8-33.933-14.8-33.933z" fill="#eea5a9"/><path d="m184 448h16v16h-16z" fill="#eea5a9"/><path d="m168 448v16h-54.99a32 32 0 0 1 -1.01-8v-8z" fill="#eea5a9"/><path d="m320 248h16v176h-16z" fill="#ebebeb"/><circle cx="372" cy="456" fill="#aedee2" r="32"/><circle cx="336" cy="424" fill="#c0f5f9" r="40"/><path d="m200 64h48v24h-48z" fill="#c38325"/><path d="m192 24h64a8 8 0 0 1 8 8v40a0 0 0 0 1 0 0h-80a0 0 0 0 1 0 0v-40a8 8 0 0 1 8-8z" fill="#fbb540"/></svg>