<svg height="512" viewBox="0 0 512 512" width="512" xmlns="http://www.w3.org/2000/svg"><path d="m96 32h35v32h-35z" fill="#f3af3e"/><path d="m128 24h35v56h-35z" fill="#d18d28"/><path d="m176 80a111.579 111.579 0 0 1 -16.96 59.136l-23.04 36.864h24l35.314-35.314a16 16 0 0 1 11.313-4.686h45.373v-32h-36z" fill="#c38325"/><path d="m248 101h80v53h-80z" fill="#d18d28"/><path d="m248 152-74.626 49.75a48 48 0 0 0 -21.374 39.939v214.311a32 32 0 0 0 32 32h144a32 32 0 0 0 32-32v-198.311a190.53 190.53 0 0 0 -32-105.689z" fill="#41dfd0"/><path d="m320.155 249.569-5.69-28.452a80.219 80.219 0 0 0 -2.855-10.5l15.119-5.238a96.419 96.419 0 0 1 3.425 12.6l7.977 38.021z" fill="#37c9c3"/><path d="m152 248h208v208h-208z" fill="#e4e4e2"/><path d="m152 448h208v8h-208z" fill="#cbcbcb"/><circle cx="256" cy="352" fill="#fbb540" r="72"/><g fill="#c38325"><rect height="32" rx="16" width="32" x="240" y="307.5"/><path d="m242.157 346.343-18.157-18.156v-12.687h-16v16a8 8 0 0 0 2.343 5.657l10.343 10.343h-12.686v16h12.686l-10.343 10.343a8 8 0 0 0 -2.343 5.657v16h16v-12.687l18.157-18.156-8.157-8.157v-2z"/><path d="m304 331.5v-16h-16v12.687l-19.794 19.793 8.794 8.795v.725l-7.157 7.157 18.157 18.156v12.687h16v-16a8 8 0 0 0 -2.343-5.657l-10.343-10.343h12.686v-16h-12.686l10.343-10.343a8 8 0 0 0 2.343-5.657z"/></g><path d="m300 175.056h16v17.889h-16z" fill="#37c9c3" transform="matrix(.894 -.447 .447 .894 -49.771 157.167)"/><path d="m216 104-56-24v-56h160l36.292 43.55a16 16 0 0 1 3.708 10.243v26.207z" fill="#f3af3e"/><rect fill="#d18d28" height="48" rx="24" width="48" x="232" y="331.5"/><path d="m256 272a80 80 0 1 0 80 80 80.091 80.091 0 0 0 -80-80zm0 16a63.66 63.66 0 0 1 39.212 13.474l-89.738 89.738a63.947 63.947 0 0 1 50.526-103.212zm0 128a63.66 63.66 0 0 1 -39.212-13.474l89.738-89.738a63.947 63.947 0 0 1 -50.526 103.212z" fill="#dc4d41"/></svg>