<svg id="Capa_1" enable-background="new 0 0 512 512" height="512" viewBox="0 0 512 512" width="512" xmlns="http://www.w3.org/2000/svg"><g><g><path d="m488.19 23.81c-31.747-31.747-83.219-31.747-114.966 0l-279.694 279.694c-9.064 9.064-11.919 22.627-7.276 34.576 4.642 11.949 1.788 25.512-7.276 34.576l-48.115 48.115-15.988 30.843c-16.67 16.67-8.587 25.857 8.083 42.527 16.67 16.67 32.19 13.323 48.86-3.347l19.412-9.656 48.115-48.115c9.064-9.064 22.627-11.919 34.576-7.276 11.949 4.642 25.512 1.788 34.576-7.276l279.693-279.695c31.747-31.747 31.747-83.219 0-114.966z" fill="#bef8a8"/><path d="m494.029 30.318c6.817 26.865-.271 56.531-21.292 77.553l-279.693 279.693c-9.064 9.064-22.627 11.918-34.576 7.276s-25.512-1.788-34.576 7.276l-55.842 55.842-10.634 10.634c-15.705 15.705-30.326 14.122-47.095.235.477 10.249-3.883 15.835 3.944 23.662 16.67 16.67 35.474 14.479 52.144-2.191l24.821-9.161 48.115-48.115c9.064-9.064 22.627-11.919 34.576-7.276 11.949 4.642 25.512 1.788 34.576-7.276l279.693-279.694c29.66-29.66 31.601-76.534 5.839-108.458z" fill="#a0e38b"/><path d="m91.229 481.137-60.367-60.367-18.36 18.36c-16.67 16.67-16.67 43.697 0 60.367 16.67 16.67 43.697 16.67 60.367 0z" fill="#695d69"/><path d="m57.417 468.592c-15.705 15.705-40.6 16.608-57.369 2.721.477 10.249 4.628 20.358 12.455 28.184 16.67 16.67 43.697 16.67 60.367 0l18.36-18.36-23.18-23.179z" fill="#564e57"/><path d="m236.898 331.793-56.691-56.691c-4.023-4.023-4.023-10.546 0-14.569l118.956-118.956c4.023-4.023 10.546-4.023 14.569 0l56.691 56.691c4.023 4.023 4.023 10.546 0 14.569l-118.957 118.956c-4.023 4.023-10.545 4.023-14.568 0z" fill="#fff"/><g><g><g><path d="m269.116 287.695c-3.093 0-6.013-1.87-7.202-4.926l-14.707-37.78-10.283 10.283c-3.017 3.016-7.909 3.016-10.927 0-3.018-3.018-3.018-7.909 0-10.928l18.652-18.652c1.845-1.845 4.498-2.633 7.052-2.098 2.554.536 4.665 2.326 5.612 4.759l19.001 48.81c1.548 3.977-.421 8.455-4.397 10.003-.921.359-1.869.529-2.801.529z" fill="#695d69"/></g></g><g><g><path d="m305.688 251.123c-3.093 0-6.013-1.87-7.202-4.926l-14.707-37.78-10.283 10.283c-3.018 3.017-7.91 3.015-10.927 0-3.018-3.018-3.018-7.909 0-10.928l18.652-18.652c1.845-1.845 4.498-2.634 7.052-2.098s4.665 2.326 5.612 4.759l19.001 48.81c1.548 3.977-.421 8.455-4.397 10.003-.921.359-1.869.529-2.801.529z" fill="#695d69"/></g></g></g></g><circle cx="417.092" cy="94.908" fill="#695d69" r="28.338"/></g></svg>