<svg height="488pt" viewBox="0 -16 488 488" width="488pt" xmlns="http://www.w3.org/2000/svg"><path d="m200 416s200-131.167969 200-252c0-53.015625-46.984375-100-100-100-48.503906 0-90 31.664062-100 60-10-28.335938-51.503906-60-100-60-53.015625 0-100 46.984375-100 100 0 120.832031 200 252 200 252zm0 0" fill="#ffb0aa"/><path d="m304 224c0 17.671875-14.328125 32-32 32s-32-14.328125-32-32 14.328125-32 32-32 32 14.328125 32 32zm0 0" fill="#edeff1"/><path d="m296 224c0 13.253906-10.746094 24-24 24s-24-10.746094-24-24 10.746094-24 24-24 24 10.746094 24 24zm0 0" fill="#d3d3d3"/><path d="m448 8v16c13.230469 0 24 10.769531 24 24v24c0 39.695312-32.296875 72-72 72s-72-32.304688-72-72v-24c0-13.230469 10.769531-24 24-24v-16c-22.054688 0-40 17.945312-40 40v64c0 45.824219 35.214844 83.535156 80 87.59375v184.40625c0 30.878906-25.128906 56-56 56s-56-25.121094-56-56v-160h-16v160c0 39.695312 32.296875 72 72 72s72-32.304688 72-72v-184.40625c44.785156-4.058594 80-41.769531 80-87.59375v-64c0-22.054688-17.945312-40-40-40zm-48 176c-35.65625 0-65.257812-26.078125-70.9375-60.144531 16.027344 21.863281 41.816406 36.144531 70.9375 36.144531s54.910156-14.28125 70.9375-36.144531c-5.679688 34.066406-35.28125 60.144531-70.9375 60.144531zm0 0" fill="#6e83b7"/><path d="m288 224c0 8.835938-7.164062 16-16 16s-16-7.164062-16-16 7.164062-16 16-16 16 7.164062 16 16zm0 0" fill="#466089"/><path d="m448 0c-4.414062 0-8 3.585938-8 8-4.414062 0-8 3.585938-8 8s3.585938 8 8 8c0 4.414062 3.585938 8 8 8s8-3.585938 8-8v-16c0-4.414062-3.585938-8-8-8zm0 0" fill="#edeff1"/><path d="m360 8c0-4.414062-3.585938-8-8-8s-8 3.585938-8 8v16c0 4.414062 3.585938 8 8 8s8-3.585938 8-8c4.414062 0 8-3.585938 8-8s-3.585938-8-8-8zm0 0" fill="#edeff1"/><path d="m144 176c0 22.089844-17.910156 40-40 40s-40-17.910156-40-40 17.910156-40 40-40 40 17.910156 40 40zm0 0" fill="#ff7b7b"/><path d="m120 192v20.71875c-4.878906 2.082031-10.320312 3.28125-16 3.28125s-11.121094-1.199219-16-3.28125v-20.71875h-16c-1.679688 0-3.28125-.160156-4.878906-.398438-15.359375-2.320312-27.121094-15.601562-27.121094-31.601562v-48c0-8.800781 7.199219-16 16-16s16 7.199219 16 16v48h16c17.679688 0 32 14.320312 32 32zm0 0" fill="#6e83b7"/><g fill="#466089"><path d="m88 200h32v8h-32zm0 0"/><path d="m80 160h8v32h-8zm0 0"/><path d="m40 152h32v8h-32zm0 0"/><path d="m40 120h32v8h-32zm0 0"/></g></svg>