<svg height="512" viewBox="0 0 512 512" width="512" xmlns="http://www.w3.org/2000/svg"><g id="Flat"><path d="m256 24v192a80 80 0 0 1 80 80v160h48v-336a96 96 0 0 0 -96-96z" fill="#348ed8"/><path d="m336 456h48v32h-48z" fill="#4db6e4"/><ellipse cx="256" cy="120" fill="#4db6e4" rx="72" ry="96"/><g fill="#2b78b7"><path d="m248 48h16v16h-16z"/><path d="m248 80h16v16h-16z"/><path d="m248 112h16v16h-16z"/><path d="m248 144h16v16h-16z"/><path d="m248 176h16v16h-16z"/><path d="m216 64h16v16h-16z"/><path d="m216 96h16v16h-16z"/><path d="m216 128h16v16h-16z"/><path d="m216 160h16v16h-16z"/><path d="m280 64h16v16h-16z"/><path d="m280 96h16v16h-16z"/><path d="m280 128h16v16h-16z"/><path d="m280 160h16v16h-16z"/></g><rect fill="#fdc8a2" height="48" rx="24" width="96" x="256" y="328"/><rect fill="#fdc8a2" height="48" rx="24" width="96" x="256" y="280"/><rect fill="#fdc8a2" height="48" rx="24" width="96" x="256" y="376"/><rect fill="#fdc8a2" height="48" rx="24" width="96" x="256" y="424"/><path d="m384 280-31.6-31.6a28.283 28.283 0 0 1 -3.534-35.689 28.284 28.284 0 0 1 43.534-4.311l95.6 95.6v152h-104z" fill="#fdc8a2"/><path d="m39.482-1.711h16.001v28.176h-16.001z" fill="#9fdce4" transform="matrix(.311 -.951 .951 .311 20.968 53.665)"/><path d="m22.002 67.872h16v28.24h-16z" fill="#9fdce4" transform="matrix(.129 -.992 .992 .129 -55.175 101.165)"/><path d="m78.01 75.161h16v28.24h-16z" fill="#9fdce4" transform="matrix(.129 -.992 .992 .129 -13.622 163.053)"/><path d="m134.018 82.451h16v28.239h-16z" fill="#9fdce4" transform="matrix(.129 -.992 .992 .129 27.931 224.941)"/><path d="m93.045 15.793h16.001v28.176h-16.001z" fill="#9fdce4" transform="matrix(.311 -.951 .951 .311 41.252 116.645)"/><path d="m146.609 33.299h16v28.175h-16z" fill="#9fdce4" transform="matrix(.311 -.951 .951 .311 61.541 179.628)"/><path d="m15.882 150.005h28.24v16.001h-28.24z" fill="#9fdce4" transform="matrix(.992 -.129 .129 .992 -20.13 5.19)"/><path d="m71.89 142.721h28.24v16.001h-28.24z" fill="#9fdce4" transform="matrix(.992 -.129 .129 .992 -18.722 12.353)"/><path d="m127.899 135.437h28.24v16.001h-28.24z" fill="#9fdce4" transform="matrix(.992 -.129 .129 .992 -17.311 19.511)"/><path d="m33.394 219.623h28.176v16.001h-28.176z" fill="#9fdce4" transform="matrix(.951 -.311 .311 .951 -68.363 26.013)"/><path d="m86.958 202.118h28.176v16.001h-28.176z" fill="#9fdce4" transform="matrix(.951 -.311 .311 .951 -60.275 41.787)"/><path d="m140.521 184.613h28.175v16h-28.175z" fill="#9fdce4" transform="matrix(.951 -.311 .311 .951 -52.179 57.548)"/><rect fill="#fdb683" height="16" rx="8" width="48" x="280" y="320"/><rect fill="#fdb683" height="16" rx="8" width="48" x="280" y="368"/><rect fill="#fdb683" height="16" rx="8" width="48" x="280" y="416"/></g></svg>