<svg id="Capa_1" enable-background="new 0 0 512 512" height="512" viewBox="0 0 512 512" width="512" xmlns="http://www.w3.org/2000/svg"><g><path d="m386.295 41.531-260.59-.001c0 18.712-7.769 36.543-21.341 49.424-42.919 40.732-69.451 98.561-68.664 162.584.517 42.027 12.789 81.188 33.666 114.375 38.983 61.968 115.984 95 194.463 95.065 68.656.057 117.941-24.436 156.828-72.042 5.682-6.956 16.964-15.075 21.939-22.98 21.362-33.942 33.719-74.123 33.719-117.19 0-62.931-26.392-119.692-68.705-159.836-13.565-12.87-21.315-30.699-21.315-49.399z" fill="#e5edfc"/><path d="m407.611 90.931c-13.566-12.871-21.316-30.7-21.316-49.4v-.001h-30.905-229.685c0 17.216-6.59 33.675-18.212 46.231h261.468c2.882 0 5.624 1.153 7.712 3.139.011.01.022.02.032.031 42.313 40.145 68.705 96.905 68.705 159.836 0 116.477-90.392 211.831-204.852 219.769 5.042.349 10.126.543 15.254.547 65.652.054 118.11-33.115 158.507-78.624 8.022-9.037 21.812-14.23 28.277-24.502 21.362-33.942 33.719-74.123 33.719-117.19.002-62.932-26.39-119.692-68.704-159.836z" fill="#d1d9fc"/><path d="m132.812 0h246.376c15.7 0 28.428 12.728 28.428 28.428 0 15.7-12.728 28.428-28.428 28.428h-246.376c-15.7 0-28.428-12.728-28.428-28.428 0-15.7 12.728-28.428 28.428-28.428z" fill="#e5edfc"/><g fill="#d1d9fc"><path d="m379.188 0h-30.905c15.7 0 28.428 12.728 28.428 28.428s-12.728 28.428-28.428 28.428h30.905c15.7 0 28.428-12.728 28.428-28.428s-12.728-28.428-28.428-28.428z"/><circle cx="399.794" cy="207.15" r="24.16"/><circle cx="133.543" cy="165.511" r="19.845"/><circle cx="313.299" cy="117.988" r="19.845"/></g><path d="m486.413 469.586h-30.905c14.131 0 25.587 11.456 25.587 25.587v11.553c0 2.913-2.362 5.275-5.275 5.275h30.905c2.913 0 5.275-2.362 5.275-5.275v-11.553c0-14.131-11.455-25.587-25.587-25.587z" fill="#ac5e2e"/><path d="m69.378 367.906c36.436 57.919 99.072 97.647 171.18 102.644 5.041.349 11.486-.047 16.613-.043 62.428.052 112.65-27.543 152.767-69.219 10.449-10.855 24.582-20.527 32.646-33.339-19.22-5.828-47.797-11.862-81.506-8.385-53.937 5.564-59.878 29.173-104.092 31.228-49.044 2.279-61.111-25.868-124.91-28.778-27.028-1.233-49.123 2.711-62.698 5.892z" fill="#ecbba3"/><path d="m415.568 361.537c-35.74 61.316-100.235 103.813-175.009 108.999 5.042.349 10.126.543 15.254.547 78.688.065 147.748-41.13 186.771-103.134-7.616-2.31-16.723-4.642-27.016-6.412z" fill="#e8ad8c"/><g><g fill="#ffc344"><path d="m216.352 190.837c-2.369 1.663-2.39 5.172.001 6.804 5.132 3.502 10.583 7.004 16.363 10.455 16.604 9.913 32.54 17.387 46.966 23.071 2.908-16.388-3.961-32.836-17.303-41.61-13.752-9.044-32.144-8.465-46.027 1.28z"/><path d="m216.352 347.085c-2.369-1.663-2.39-5.172.001-6.804 5.132-3.502 10.583-7.004 16.363-10.455 16.604-9.913 32.54-17.387 46.966-23.071 2.908 16.388-3.961 32.836-17.303 41.61-13.752 9.044-32.144 8.466-46.027-1.28z"/></g><g><g><path d="m148.848 289.204c4.573-2.144 9.879 2.284 14.753 2.468 5.821.22 11.576 2.057 16.593 5.406 16.919 11.295 36.587 18.792 57.792 21.265 5.072.592 12.784-.418 18.014-.418 38.766 0 68.229-16.9 92.402-43.49 3.615-3.976 4.819-5.805 1.204-9.781-24.173-26.589-54.84-44.694-93.606-44.694-5.231 0-12.943-.972-18.014-.38-21.204 2.473-40.873 9.97-57.792 21.265-4.879 3.257-10.455 5.084-16.112 5.384-5.031.267-9.077 3.383-13.8 1.169l-30.34-13.378c-6.983-3.273-10.034.172-10.034 7.884l-2.415 54.707c0 7.712 3.554 3.512 10.537.239z" fill="#ffe177"/></g><g><path d="m351.252 261.968c-24.173-26.589-59.038-43.284-97.804-43.284-5.231 0-10.389.311-15.462.903 32.524 3.787 61.446 19.375 82.36 42.381 3.615 3.976 3.615 10.011 0 13.987-20.914 23.005-49.836 38.593-82.36 42.38 5.072.592 10.23.903 15.462.903 38.766 0 73.631-16.694 97.804-43.283 3.615-3.977 3.615-10.011 0-13.987z" fill="#ffd15b"/></g><path d="m343.531 273.712c3.615-3.976 6.141-6.85 2.526-10.826-17.453-19.198-35.288-34.152-61.333-40.474-2.698 2.941-18.755 21.052-16.552 48.067 2.1 25.752 19.25 40.706 22.497 43.433 23.603-6.917 36.75-22.476 52.862-40.2z" fill="#ffc344"/><path d="m351.252 275.955c3.615-3.976 3.615-10.011 0-13.987-17.359-19.094-40.232-33.085-66.104-39.456-.135-.032-.273-.064-.407-.096-.005-.001-.011-.002-.016-.004-.955 1.041-3.585 3.991-6.485 8.556 16.047 7.467 30.344 18.06 42.108 31 3.615 3.976 3.615 10.011 0 13.987-10.807 11.887-23.755 21.786-38.23 29.108 3.829 4.79 7.273 7.774 8.553 8.85.001 0 .001 0 .001-.001 23.601-6.917 44.468-20.234 60.58-37.957z" fill="#feb237"/><circle cx="313.299" cy="268.961" fill="#564e57" r="7.726"/><path d="m164.081 246.213c-5.031.267-10.124-.657-14.847-2.871l-29.849-13.992c-6.983-3.273-15 1.823-15 9.535v60.153c0 7.712 8.017 12.808 15 9.535l29.849-13.992c4.573-2.144 9.493-3.08 14.367-2.896l.011-.009c-2.022-2.775-7.025-10.416-7.321-21.381-.343-12.685 5.838-21.496 7.788-24.067z" fill="#ffc344"/></g></g><path d="m506.88 512h-501.76c-2.828 0-5.12-2.292-5.12-5.12v-12.457c0-13.717 11.12-24.837 24.837-24.837h462.326c13.717 0 24.837 11.12 24.837 24.837v12.457c0 2.828-2.292 5.12-5.12 5.12z" fill="#c86d36"/></g></svg>