<svg height="512" viewBox="0 0 512 512" width="512" xmlns="http://www.w3.org/2000/svg"><g id="Flat"><path d="m144 336-32 32h-32a32 32 0 0 0 -32 32v16h96l40-40z" fill="#78462f"/><path d="m488 294.2v121.8h-408v-16a32 32 0 0 1 32-32h21.44l-97.38-135.25a64 64 0 0 1 -12.06-37.39v-22.46c0-1.2.06-2.39.17-3.58a38.72 38.72 0 0 1 7.57-19.64 134.214 134.214 0 0 1 208.36-7.85 53.19 53.19 0 0 0 40.04 18.17h73.66a134.208 134.208 0 0 1 134.2 134.2z" fill="#91563a"/><path d="m100 136a20 20 0 1 0 20 20 20.023 20.023 0 0 0 -20-20z" fill="#61311c"/><path d="m168 200a32.036 32.036 0 0 1 -32-32v-40h16v40a16 16 0 0 0 32 0v-24h16v24a32.036 32.036 0 0 1 -32 32z" fill="#78462f"/><path d="m48 168v16h-16a8.011 8.011 0 0 0 -8 8v-19.1c0-1.2.06-2.39.17-3.58a23.614 23.614 0 0 1 7.83-1.32z" fill="#61311c"/><g fill="#78462f"><path d="m288 416h-16v-16a40.045 40.045 0 0 1 40-40h24.4a80.117 80.117 0 0 1 79.6-72h16v16h-16a64.072 64.072 0 0 0 -64 64 8 8 0 0 1 -8 8h-32a24.028 24.028 0 0 0 -24 24z"/><path d="m104 392h16v24h-16z"/><path d="m304 392h16v24h-16z"/><path d="m224 200h32v16h-32z"/><path d="m288 200h32v16h-32z"/><path d="m352 200h32v16h-32z"/><path d="m248 232h32v16h-32z"/><path d="m312 232h32v16h-32z"/><path d="m179.833 411.833a8 8 0 0 1 0-11.314l25.353-26.019a8 8 0 0 1 11.314 0 8 8 0 0 1 0 11.314l-25.352 26.019a8 8 0 0 1 -11.315 0z"/><path d="m131.833 365.833a8 8 0 0 1 0-11.314l25.353-26.019a8 8 0 0 1 11.314 0 8 8 0 0 1 0 11.314l-25.352 26.019a8 8 0 0 1 -11.315 0z"/></g></g></svg>