<svg height="480pt" viewBox="0 0 480.0026 480" width="480pt" xmlns="http://www.w3.org/2000/svg"><path d="m376 128h-128v-128h-120v128h-128v120h128v128h120v-128h128zm0 0" fill="#80d6fb"/><g fill="#6e83b7"><path d="m188 286.273438c16.457031 0 27.839844 14.527343 50.839844 14.527343 16.382812 0 36.3125-12.894531 36.3125-31.65625 0-58.101562-50.382813-87.152343-87.152344-87.152343s-87.152344 29.050781-87.152344 87.152343c0 18.761719 19.929688 31.65625 36.3125 31.65625 23 0 34.382813-14.527343 50.839844-14.527343zm0 0"/><path d="m95.550781 153.6875c10.410157 11.386719 20.921875 41.425781 9.539063 51.832031-11.386719 10.410157-40.363282-2.75-50.769532-14.140625-10.410156-11.394531-9.617187-29.058594 1.769532-39.464844 11.382812-10.410156 29.054687-9.617187 39.460937 1.773438zm0 0"/><path d="m105.40625 123.855469c6.808594 18.867187 35.027344 49.128906 53.890625 42.3125 18.863281-6.816407 21.230469-48.117188 14.421875-66.976563-6.808594-18.855468-27.621094-28.628906-46.488281-21.820312-18.863281 6.804687-28.628907 27.621094-21.824219 46.484375zm0 0"/><path d="m280.449219 153.6875c-10.410157 11.386719-20.921875 41.425781-9.539063 51.832031 11.386719 10.410157 40.363282-2.75 50.769532-14.140625 10.410156-11.394531 9.617187-29.058594-1.769532-39.464844-11.382812-10.410156-29.054687-9.617187-39.460937 1.773438zm0 0"/><path d="m270.59375 123.855469c-6.808594 18.867187-35.027344 49.128906-53.890625 42.3125-18.863281-6.816407-21.230469-48.117188-14.421875-66.976563 6.808594-18.855468 27.621094-28.628906 46.488281-21.820312 18.863281 6.804687 28.628907 27.621094 21.824219 46.484375zm0 0"/><path d="m328.496094 328.496094c17.734375-17.734375 14-15.046875 23.824218-26.335938 16.183594-18.589844 16.609376-45.207031-.089843-63.03125-.71875-.769531-1.382813-1.597656-1.917969-2.503906l-3.304688-5.503906c-7.550781-12.589844-5.566406-28.710938 4.816407-39.085938l42.976562-42.976562c10.785157-10.785156 27.6875-12.457032 40.375-4l10.585938 7.054687c1.015625.679688 1.972656 1.457031 2.824219 2.335938 37.773437 39.070312 41.941406 101.59375 10.023437 145.761719-21.402344 29.597656-38.839844 50.148437-73.539063 84.855468-34.695312 34.703125-55.253906 52.144532-84.855468 73.535156-44.167969 31.929688-106.6875 27.757813-145.757813-10.023437-.882812-.847656-1.65625-1.808594-2.335937-2.824219l-7.058594-10.585937c-8.460938-12.6875-6.78125-29.589844 4-40.375l42.976562-42.976563c10.386719-10.382812 26.503907-12.367187 39.089844-4.816406l5.503906 3.304688c.902344.542968 1.734376 1.199218 2.503907 1.921874 17.824219 16.6875 44.4375 16.269532 63.03125.085938 11.28125-9.824219 8.585937-6.078125 26.328125-23.816406zm0 0"/></g></svg>