<svg height="512" viewBox="0 0 512 512" width="512" xmlns="http://www.w3.org/2000/svg"><g id="Flat"><circle cx="152" cy="408" fill="#34507b" r="40"/><circle cx="392" cy="408" fill="#34507b" r="40"/><path d="m320 112h32v112h-32z" fill="#c14135"/><path d="m385.662 24.024a55.8 55.8 0 0 0 -27.233 6.144 49.227 49.227 0 0 1 -44.859 0 56 56 0 1 0 -.751 100.044 52.041 52.041 0 0 1 46.362 0 56.005 56.005 0 1 0 26.481-106.188zm-97.662 71.976a16 16 0 1 1 16-16 16 16 0 0 1 -16 16zm96 0a16 16 0 1 1 16-16 16 16 0 0 1 -16 16z" fill="#d65246"/><path d="m56 416h432v-31.914c0-106.086-86-192.086-192.086-192.086a192.087 192.087 0 0 0 -145.375 66.535l-94.539 109.465z" fill="#348ed8"/><path d="m380.015 238.588-8.03 13.84a153.38 153.38 0 0 1 71.19 93.572l15.49-4a169.491 169.491 0 0 0 -78.65-103.412z" fill="#459ce5"/><path d="m334 236.826a151.238 151.238 0 0 1 22.791 7.891l6.426-14.655a167.639 167.639 0 0 0 -25.217-8.726z" fill="#459ce5"/><circle cx="56" cy="384" fill="#34507b" r="32"/><path d="m137.5 215.179c-13.162-33.858-41.512-45.668-66.995-35.831s-38.45 37.6-25.288 71.454 47.47 60.994 72.953 51.157 32.491-52.922 19.33-86.78z" fill="#4db6e4"/><path d="m82.13 265.215a74.8 74.8 0 0 1 -14.546-23.109c-4.273-11-4.759-20.824-1.4-28.422a22.581 22.581 0 0 1 12.965-11.947 24.761 24.761 0 0 1 8.919-1.737c11.3 0 21.162 8.7 27.061 23.874a73.259 73.259 0 0 1 4.871 27.445l-16-.252a57.91 57.91 0 0 0 -3.784-21.394c-3.278-8.434-7.933-13.673-12.148-13.673a8.876 8.876 0 0 0 -3.159.663c-2.76 1.066-3.657 2.5-4.092 3.483-1.533 3.472-.9 9.514 1.68 16.163a58.383 58.383 0 0 0 11.373 18.035z" fill="#3ba5d3"/><path d="m206.5 215.179c13.162-33.858 41.512-45.668 67-35.831s38.45 37.6 25.288 71.454-47.47 60.994-72.953 51.157-32.496-52.922-19.335-86.78z" fill="#4db6e4"/><path d="m261.87 265.215-11.74-10.871a58.4 58.4 0 0 0 11.37-18.036c2.584-6.648 3.212-12.69 1.679-16.162-.435-.985-1.332-2.417-4.092-3.483a8.876 8.876 0 0 0 -3.159-.663c-4.215 0-8.87 5.239-12.149 13.673a57.91 57.91 0 0 0 -3.779 21.394l-16 .252a73.259 73.259 0 0 1 4.87-27.445c5.9-15.174 15.763-23.874 27.062-23.874a24.761 24.761 0 0 1 8.922 1.737 22.579 22.579 0 0 1 12.965 11.948c3.356 7.6 2.87 17.425-1.4 28.42a74.81 74.81 0 0 1 -14.549 23.11z" fill="#3ba5d3"/><circle cx="200" cy="344" fill="#d65246" r="16"/><circle cx="136" cy="344" fill="#d65246" r="16"/><path d="m428.676 496h-64.676a43.544 43.544 0 0 1 -37.15-21.033l-3.42-5.7a27.324 27.324 0 0 0 -46.86 0l-3.42 5.7a43.543 43.543 0 0 1 -37.15 21.033h-92v-16h92a27.46 27.46 0 0 0 23.43-13.266l3.42-5.7a43.324 43.324 0 0 1 74.3 0l3.42 5.7a27.461 27.461 0 0 0 23.43 13.266h64.676a27.356 27.356 0 0 0 27.324-27.324v-36.676h16v36.676a43.374 43.374 0 0 1 -43.324 43.324z" fill="#34507b"/></g></svg>