<svg height="480pt" viewBox="0 -48 480 480" width="480pt" xmlns="http://www.w3.org/2000/svg"><path d="m464 192h-448c-8.839844 0-16 7.160156-16 16v16c0 8.839844 7.160156 16 16 16l14.414062 129.769531c.90625 8.101563 7.753907 14.230469 15.90625 14.230469h387.359376c8.152343 0 15-6.128906 15.90625-14.230469l14.414062-129.769531c8.839844 0 16-7.160156 16-16v-16c0-8.839844-7.160156-16-16-16zm0 0" fill="#6e83b7"/><path d="m463.113281 248 .886719-8h-448l.886719 8zm0 0" fill="#466089"/><path d="m456 192c0-22.089844-17.910156-40-40-40-6.542969 0-12.632812 1.71875-18.089844 4.511719-3.925781-2.816407-8.710937-4.511719-13.910156-4.511719-6.960938 0-13.167969 3.007812-17.550781 7.734375-3.378907-9.167969-12.113281-15.734375-22.449219-15.734375-9.230469 0-17.152344 5.273438-21.167969 12.910156-5.632812-3.03125-11.984375-4.910156-18.832031-4.910156-6.542969 0-12.632812 1.71875-18.089844 4.511719-3.925781-2.816407-8.710937-4.511719-13.910156-4.511719-7.351562 0-13.847656 3.375-18.246094 8.574219-1.875-.335938-3.785156-.574219-5.753906-.574219-.488281 0-.945312.121094-1.425781.144531-3.261719-9.375-12.085938-16.144531-22.574219-16.144531-9.230469 0-17.152344 5.273438-21.167969 12.910156-5.632812-3.03125-11.984375-4.910156-18.832031-4.910156-6.542969 0-12.632812 1.71875-18.089844 4.511719-3.925781-2.816407-8.710937-4.511719-13.910156-4.511719-7.351562 0-13.847656 3.375-18.246094 8.574219-1.875-.335938-3.785156-.574219-5.753906-.574219-.488281 0-.945312.121094-1.425781.144531-3.261719-9.375-12.085938-16.144531-22.574219-16.144531-9.230469 0-17.152344 5.273438-21.167969 12.910156-5.632812-3.03125-11.984375-4.910156-18.832031-4.910156-22.089844 0-40 17.910156-40 40zm0 0" fill="#edeff1"/><path d="m24.808594 184c-.527344 2.585938-.808594 5.257812-.808594 8h432c0-2.742188-.28125-5.414062-.808594-8zm0 0" fill="#d3d3d3"/><path d="m382.640625 40h-142.640625c-8.839844 0-16-7.160156-16-16v-8c0-8.800781-7.199219-16-16-16h-120c-8.800781 0-16 7.199219-16 16v96c0 8.800781 7.199219 16 16 16h120c8.800781 0 16-7.199219 16-16v-8c0-8.839844 7.160156-16 16-16h144c13.679688 0 24.6875-11.449219 23.96875-25.289062-.679688-12.984376-12.328125-22.710938-25.328125-22.710938zm-198.640625 64h-88c-4.398438 0-8-3.601562-8-8s3.601562-8 8-8h88c4.398438 0 8 3.601562 8 8s-3.601562 8-8 8zm0-32h-88c-4.398438 0-8-3.601562-8-8s3.601562-8 8-8h88c4.398438 0 8 3.601562 8 8s-3.601562 8-8 8zm0-32h-88c-4.398438 0-8-3.601562-8-8s3.601562-8 8-8h88c4.398438 0 8 3.601562 8 8s-3.601562 8-8 8zm200 32h-24v-16h24c4.414062 0 8 3.585938 8 8s-3.585938 8-8 8zm0 0" fill="#80d6fb"/><path d="m192 8h-112c-4.414062 0-8 3.585938-8 8v96c0 4.414062 3.585938 8 8 8h112c8.800781 0 16-7.199219 16-16v-80c0-8.800781-7.199219-16-16-16zm-8 96h-88c-4.398438 0-8-3.601562-8-8s3.601562-8 8-8h88c4.398438 0 8 3.601562 8 8s-3.601562 8-8 8zm0-32h-88c-4.398438 0-8-3.601562-8-8s3.601562-8 8-8h88c4.398438 0 8 3.601562 8 8s-3.601562 8-8 8zm0-32h-88c-4.398438 0-8-3.601562-8-8s3.601562-8 8-8h88c4.398438 0 8 3.601562 8 8s-3.601562 8-8 8zm0 0" fill="#46bee8"/></svg>