<svg id="Capa_1" enable-background="new 0 0 512 512" height="512" viewBox="0 0 512 512" width="512" xmlns="http://www.w3.org/2000/svg"><g><path d="m300.843 6.008h35.275v102.522h-35.275z" fill="#d1d9fc"/><path d="m270.729 31.275v-21.275c0-5.523 4.477-10 10-10h111.991c14.851 0 26.889 12.039 26.889 26.889v1.033c0 4.061-3.292 7.352-7.352 7.352h-137.528c-2.209.001-4-1.789-4-3.999z" fill="#695d69"/><path d="m391.908 0h-30.905c15.299 0 27.701 12.402 27.701 27.701 0 4.183-3.391 7.574-7.574 7.574h30.905c4.183 0 7.574-3.391 7.574-7.574 0-15.299-12.402-27.701-27.701-27.701z" fill="#564e57"/><g><path d="m366.232 144.904h-95.503v-59.626c0-4.971 4.029-9 9-9h77.503c4.971 0 9 4.029 9 9z" fill="#695d69"/><path d="m356.961 76.278h-30.905c5.12 0 9.272 4.151 9.272 9.272v59.354h30.905v-59.354c-.001-5.121-4.152-9.272-9.272-9.272z" fill="#564e57"/><path d="m410.561 512h-184.161c-17.069 0-30.905-13.837-30.905-30.905v-43.799l15.453-81.327-15.453-110.757c0-62.689 46.904-114.424 107.533-122.024 5.062-.635 9.309-.249 14.543-.249l1.305.362c11.683 0 21.485 3.389 32.192 6.432 4.639 1.318 10.271.068 14.668 1.9 43.646 18.18 74.568 60.784 75.699 110.744.021.943-8.176 9.334-8.176 10.282l8.208 184.637v43.799c0 17.068-13.837 30.905-30.906 30.905z" fill="#ffc344"/><path d="m318.481 122.227c-5.234 0-10.391.329-15.453.964 60.629 7.601 107.533 59.332 107.533 122.022v235.882c0 17.069-13.837 30.905-30.905 30.905h30.905c17.069 0 30.905-13.837 30.905-30.905v-43.799l-7.644-186.814c0-.948 7.633-7.162 7.612-8.105-1.507-66.614-55.978-120.15-122.953-120.15z" fill="#feb237"/><path d="m195.495 242.376h245.972v194.92h-245.972z" fill="#e5edfc"/><path d="m410.561 242.376h30.905v194.92h-30.905z" fill="#d1d9fc"/><circle cx="318.481" cy="339.836" fill="#ffc344" r="52.263"/><path d="m318.481 287.572c-5.38 0-10.569.815-15.453 2.324 21.32 6.59 36.811 26.454 36.811 49.939 0 23.484-15.49 43.349-36.811 49.939 4.884 1.51 10.073 2.324 15.453 2.324 28.864 0 52.263-23.399 52.263-52.263 0-28.863-23.399-52.263-52.263-52.263z" fill="#feb237"/></g><g><circle cx="164.51" cy="207.572" fill="#fff" r="86.25"/><g><path d="m164.51 263.238c-4.268 0-7.726-3.459-7.726-7.726v-95.88c0-4.268 3.459-7.726 7.726-7.726s7.726 3.459 7.726 7.726v95.88c.001 4.268-3.458 7.726-7.726 7.726z" fill="#a0e38b"/></g><g><path d="m212.45 215.299h-95.88c-4.268 0-7.726-3.459-7.726-7.726s3.459-7.726 7.726-7.726h95.88c4.268 0 7.726 3.459 7.726 7.726s-3.458 7.726-7.726 7.726z" fill="#a0e38b"/></g><g><path d="m130.611 249.197c-1.978 0-3.955-.755-5.464-2.263-3.017-3.018-3.017-7.909 0-10.928l67.798-67.797c3.018-3.017 7.909-3.015 10.928 0 3.017 3.018 3.017 7.909 0 10.928l-67.798 67.797c-1.509 1.509-3.487 2.263-5.464 2.263z" fill="#a0e38b"/></g><circle cx="164.51" cy="207.572" fill="#bef8a8" r="31.421"/><path d="m258.486 207.572c0-51.819-42.157-93.976-93.976-93.976-52.811 0-93.977 42.979-93.977 93.976 0 51.819 42.158 93.976 93.977 93.976 41.43 0 93.976-32.359 93.976-93.976zm-15.453 0c0 18.872-6.696 36.208-17.832 49.765l-110.455-110.457c13.557-11.136 30.892-17.831 49.765-17.831 43.297 0 78.522 35.226 78.522 78.523zm-157.047 0c0-18.872 6.696-36.208 17.832-49.765l110.456 110.457c-13.556 11.136-30.892 17.831-49.764 17.831-43.299.001-78.524-35.225-78.524-78.523z" fill="#fd4755"/></g></g></svg>