<svg height="512" viewBox="0 0 512 512" width="512" xmlns="http://www.w3.org/2000/svg"><path d="m352 280v-40h-112v40a32 32 0 0 0 -32 32v144a32 32 0 0 0 32 32h112a32 32 0 0 0 32-32v-144a32 32 0 0 0 -32-32z" fill="#6b9777"/><path d="m384 176v48a16 16 0 0 1 -16 16h-144a15.974 15.974 0 0 1 -16-16v-48a16 16 0 0 1 16-16h144a16 16 0 0 1 16 16z" fill="#cbcbcb"/><path d="m208 328h176v112h-176z" fill="#e4e4e2"/><g fill="#6b9777"><rect height="24" rx="12" width="48" x="272" y="392"/><path d="m296 376a8 8 0 0 1 -8-8v-8a8 8 0 0 1 16 0v8a8 8 0 0 1 -8 8z"/><path d="m272 384a8 8 0 0 1 -8-8v-8a8 8 0 0 1 16 0v8a8 8 0 0 1 -8 8z"/><path d="m320 384a8 8 0 0 1 -8-8v-8a8 8 0 0 1 16 0v8a8 8 0 0 1 -8 8z"/></g><path d="m34.821 496.011a8 8 0 0 1 -7.164-11.55l49.669-100.385a8 8 0 1 1 14.34 7.095l-49.666 100.386a8 8 0 0 1 -7.179 4.454z" fill="#c3c3c3"/><path d="m384 184v16h-56a8 8 0 0 1 0-16z" fill="#e4e4e2"/><path d="m296 200h-16a8 8 0 0 1 0-16h16a8 8 0 0 1 0 16z" fill="#e4e4e2"/><path d="m432 360v-32h-64v32a16 16 0 0 0 -16 16v96a16 16 0 0 0 16 16h64a16 16 0 0 0 16-16v-96a16 16 0 0 0 -16-16z" fill="#a45e14"/><rect fill="#a8a8a8" height="48" rx="6" width="96" x="352" y="280"/><path d="m352 392h96v64h-96z" fill="#f3af3e"/><path d="m448 416v16h-24a8 8 0 0 1 0-16z" fill="#ea9d2d"/><path d="m392 432h-8a8 8 0 0 1 0-16h8a8 8 0 0 1 0 16z" fill="#ea9d2d"/><path d="m240 240h112v16h-112z" fill="#5e8569"/><path d="m368 328h64v16h-64z" fill="#834b10"/><path d="m247.81 160-36.54 73.71a15.974 15.974 0 0 1 -3.27-9.71v-48a16 16 0 0 1 16-16z" fill="#b9b9b9"/><path d="m190.926 100.889 57.327 28.455-108.417 218.764a12 12 0 0 1 -16.084 5.413l-35.829-17.784a12 12 0 0 1 -5.413-16.084z" fill="#ebebeb"/><path d="m162.83 157.492 57.326 28.455-80.32 162.161a12 12 0 0 1 -16.084 5.413l-35.829-17.784a12 12 0 0 1 -5.413-16.084z" fill="#f388a2"/><path d="m169.079 221.09h16v32h-16z" fill="#cf748a" transform="matrix(.445 -.896 .896 .445 -114.019 290.291)"/><path d="m154.852 249.753h16v32h-16z" fill="#cf748a" transform="matrix(.445 -.896 .896 .445 -147.595 293.466)"/><path d="m140.624 278.416h16v32h-16z" fill="#cf748a" transform="matrix(.445 -.896 .896 .445 -181.171 296.642)"/><path d="m126.397 307.08h16v32h-16z" fill="#cf748a" transform="matrix(.445 -.896 .896 .445 -214.747 299.817)"/><path d="m95.167 342.126a16 16 0 0 1 16 16v32a0 0 0 0 1 0 0h-32a0 0 0 0 1 0 0v-32a16 16 0 0 1 16-16z" fill="#4799cf" transform="matrix(-.896 -.445 .445 -.896 17.627 736.386)"/><path d="m184.229 194.518a8 8 0 0 1 -7.162-11.557l60.272-121.51a8 8 0 0 1 14.334 7.11l-60.273 121.51a8 8 0 0 1 -7.171 4.447z" fill="#f3af3e"/><path d="m212.472 111.583-35.4 71.378a8 8 0 1 0 14.334 7.11l35.394-71.371z" fill="#ea9d2d"/><path d="m162.83 157.492 57.326 28.455-14.517 29.594-57.327-28.456z" fill="#da922a"/><rect fill="#4799cf" height="32" rx="16" transform="matrix(-.896 -.445 .445 -.896 454.471 207.937)" width="80" x="211.62" y="34.674"/></svg>