<svg id="Capa_1" enable-background="new 0 0 512 512" height="512" viewBox="0 0 512 512" width="512" xmlns="http://www.w3.org/2000/svg"><g><g><path d="m0 95.143 99.74 288.381c41.538 8.962 94.576 32.119 156.26 32.119 42.489 0 95.956-19.108 156.26-32.119l99.74-288.381z" fill="#6fd8fd"/><path d="m481.095 95.143-99.74 294.36c10.959-1.839 19.422-3.501 30.905-5.979l99.74-288.381z" fill="#28c1fd"/><path d="m256 154.082c-4.268 0-7.726 3.459-7.726 7.726v238.337c2.562.027 5.134.045 7.726.045 2.536 0 5.113-.014 7.726-.041v-238.341c0-4.267-3.458-7.726-7.726-7.726z" fill="#28c1fd"/><path d="m507.009 94.417c0 36.818-109.624 67.392-251.009 67.392s-256-29.848-256-66.666 114.615-66.665 256-66.665 251.009 29.121 251.009 65.939z" fill="#e5edfc"/><path d="m256 28.478c-5.19 0-10.339.045-15.453.124 134.188 2.081 240.547 31.074 240.547 66.541s-106.36 64.46-240.547 66.541c5.114.079 10.263.124 15.453.124 141.385 0 256-29.847 256-66.665s-114.615-66.665-256-66.665z" fill="#d1d9fc"/><path d="m412.26 457.823c0 5.293-3.719 9.844-8.893 10.894-40.114 8.141-90.001 14.804-147.367 14.804-40.391 0-90.703-3.303-147.378-14.807-5.166-1.048-8.882-5.611-8.882-10.895v-74.296c41.538 8.962 94.576 16.666 156.26 16.666 42.489 0 95.956-3.656 156.26-16.666z" fill="#28c1fd"/><path d="m412.26 457.823c0 5.293-3.719 9.844-8.893 10.894-40.114 8.141-90.001 14.804-147.367 14.804-40.391 0-90.703-3.303-147.378-14.807-5.166-1.048-8.882-5.611-8.882-10.895v-74.296c41.538 8.962 94.576 16.666 156.26 16.666 42.489 0 95.956-3.656 156.26-16.666z" fill="#28c1fd"/><path d="m381.354 389.503v83.329c7.624-1.309 14.977-2.687 22.012-4.115 5.174-1.05 8.893-5.601 8.893-10.894v-74.299c-10.518 2.27-20.824 4.249-30.905 5.979z" fill="#0eb0e2"/></g><g><g><g><path d="m289.247 221.658c-4.143 0-7.5-3.357-7.5-7.5v-13.884c0-4.143 3.357-7.5 7.5-7.5s7.5 3.357 7.5 7.5v13.884c0 4.143-3.357 7.5-7.5 7.5z" fill="#564e57"/></g><g><path d="m289.247 271.657c-4.143 0-7.5-3.357-7.5-7.5v-13.883c0-4.143 3.357-7.5 7.5-7.5s7.5 3.357 7.5 7.5v13.883c0 4.142-3.357 7.5-7.5 7.5z" fill="#564e57"/></g><g><path d="m289.247 321.656c-4.143 0-7.5-3.357-7.5-7.5v-13.883c0-4.143 3.357-7.5 7.5-7.5s7.5 3.357 7.5 7.5v13.883c0 4.142-3.357 7.5-7.5 7.5z" fill="#564e57"/></g><g><path d="m289.247 371.655c-4.143 0-7.5-3.357-7.5-7.5v-13.883c0-4.143 3.357-7.5 7.5-7.5s7.5 3.357 7.5 7.5v13.883c0 4.142-3.357 7.5-7.5 7.5z" fill="#564e57"/></g></g><g><g><path d="m222.753 221.658c-4.143 0-7.5-3.357-7.5-7.5v-13.884c0-4.143 3.357-7.5 7.5-7.5s7.5 3.357 7.5 7.5v13.884c0 4.143-3.357 7.5-7.5 7.5z" fill="#564e57"/></g><g><path d="m222.753 271.657c-4.143 0-7.5-3.357-7.5-7.5v-13.883c0-4.143 3.357-7.5 7.5-7.5s7.5 3.357 7.5 7.5v13.883c0 4.142-3.357 7.5-7.5 7.5z" fill="#564e57"/></g><g><path d="m222.753 321.656c-4.143 0-7.5-3.357-7.5-7.5v-13.883c0-4.143 3.357-7.5 7.5-7.5s7.5 3.357 7.5 7.5v13.883c0 4.142-3.357 7.5-7.5 7.5z" fill="#564e57"/></g><g><path d="m222.753 371.655c-4.143 0-7.5-3.357-7.5-7.5v-13.883c0-4.143 3.357-7.5 7.5-7.5s7.5 3.357 7.5 7.5v13.883c0 4.142-3.357 7.5-7.5 7.5z" fill="#564e57"/></g></g><g><g><path d="m189.507 221.658c-4.143 0-7.5-3.357-7.5-7.5v-13.884c0-4.143 3.357-7.5 7.5-7.5s7.5 3.357 7.5 7.5v13.884c0 4.143-3.358 7.5-7.5 7.5z" fill="#564e57"/></g><g><path d="m189.507 271.657c-4.143 0-7.5-3.357-7.5-7.5v-13.883c0-4.143 3.357-7.5 7.5-7.5s7.5 3.357 7.5 7.5v13.883c0 4.142-3.358 7.5-7.5 7.5z" fill="#564e57"/></g><g><path d="m189.507 321.656c-4.143 0-7.5-3.357-7.5-7.5v-13.883c0-4.143 3.357-7.5 7.5-7.5s7.5 3.357 7.5 7.5v13.883c0 4.142-3.358 7.5-7.5 7.5z" fill="#564e57"/></g><g><path d="m189.507 371.655c-4.143 0-7.5-3.357-7.5-7.5v-13.883c0-4.143 3.357-7.5 7.5-7.5s7.5 3.357 7.5 7.5v13.883c0 4.142-3.358 7.5-7.5 7.5z" fill="#564e57"/></g></g><g><g><path d="m322.493 221.658c-4.143 0-7.5-3.357-7.5-7.5v-13.884c0-4.143 3.357-7.5 7.5-7.5s7.5 3.357 7.5 7.5v13.884c0 4.143-3.357 7.5-7.5 7.5z" fill="#564e57"/></g><g><path d="m322.493 271.657c-4.143 0-7.5-3.357-7.5-7.5v-13.883c0-4.143 3.357-7.5 7.5-7.5s7.5 3.357 7.5 7.5v13.883c0 4.142-3.357 7.5-7.5 7.5z" fill="#564e57"/></g><g><path d="m322.493 321.656c-4.143 0-7.5-3.357-7.5-7.5v-13.883c0-4.143 3.357-7.5 7.5-7.5s7.5 3.357 7.5 7.5v13.883c0 4.142-3.357 7.5-7.5 7.5z" fill="#564e57"/></g><g><path d="m322.493 371.655c-4.143 0-7.5-3.357-7.5-7.5v-13.883c0-4.143 3.357-7.5 7.5-7.5s7.5 3.357 7.5 7.5v13.883c0 4.142-3.357 7.5-7.5 7.5z" fill="#564e57"/></g></g></g></g></svg>