<svg height="512" viewBox="0 0 512 512" width="512" xmlns="http://www.w3.org/2000/svg"><path d="m392 440v-72h48v88a32 32 0 0 1 -32 32h-16z" fill="#f6bb92"/><path d="m416 296 6.753-16 5.99-14.191a41.663 41.663 0 0 0 -8.943-45.609 41.665 41.665 0 0 1 -12.2-29.46v-38.74h-175.6v38.743a41.665 41.665 0 0 1 -12.2 29.46 41.663 41.663 0 0 0 -8.947 45.606l6.34 15.081z" fill="#834b10"/><path d="m440 328.662a48 48 0 0 0 -40.109-47.347l-7.891-1.315-41.315-6.886-30.685 30.886-31.008-31.124-56.992 7.124v208h160v-64a45.262 45.262 0 0 0 6.362-56h41.638z" fill="#85bc94"/><path d="m408 160h-176v-48a88 88 0 0 1 88-88 88 88 0 0 1 88 88z" fill="#834b10"/><path d="m384 136h-8v-48h-112v48h-8a24 24 0 0 0 -24 24 24 24 0 0 0 24 24h8v8a56 56 0 0 0 56 56 56 56 0 0 0 56-56v-8h8a24 24 0 0 0 24-24 24 24 0 0 0 -24-24z" fill="#f6bb92"/><path d="m312 334.55v153.45h-179a154.441 154.441 0 0 1 20.72-25.72l.59-.59a158.562 158.562 0 0 0 33.71-49.74c3.14-7.32 6.27-14.64 8.55-19.95 2.07-4.83 3.43-8 3.43-8h-23.02a32.028 32.028 0 0 1 -31.04-24.24l-3.94-15.76-1.03-4.12a16 16 0 0 1 15.52-19.88h27.51a68.355 68.355 0 0 1 29.69-37.02l3.5-2.09a62.405 62.405 0 0 1 59.98-2.31l.35.18a62.378 62.378 0 0 1 34.48 55.79z" fill="#bd9070"/><path d="m312 336v22.7a24 24 0 0 1 -16.411 22.768 24 24 0 0 1 -15.178 0 24 24 0 0 1 -16.411-22.768v-38.7h32z" fill="#9e785d"/><path d="m237.66 373.66-16 16a8.008 8.008 0 0 1 -5.66 2.34h-19.43c2.07-4.83 3.43-8 3.43-8h-23.02a31.878 31.878 0 0 1 -21.15-8h56.86l13.65-13.66a8 8 0 0 1 11.32 11.32z" fill="#9e785d"/><path d="m168 320v9.669a14.331 14.331 0 0 1 -14.331 14.331h-11.669l-1.03-4.12a16 16 0 0 1 15.52-19.88z" fill="#9e785d"/><path d="m192.815 468.239a8 8 0 0 1 -6.394-12.8 147.633 147.633 0 0 0 21.99-41.969 8 8 0 1 1 15.178 5.06 163.612 163.612 0 0 1 -24.368 46.509 7.988 7.988 0 0 1 -6.406 3.2z" fill="#9e785d"/><g fill="#834b10"><path d="m256 136a54.549 54.549 0 0 0 33.4-31.489l6.6-16.511-40-8z"/><path d="m296 88 .937 1.405a104.635 104.635 0 0 0 87.063 46.595v-56z"/><circle cx="290" cy="152" r="10"/><circle cx="350" cy="152" r="10"/><path d="m320 192h-16a8 8 0 0 1 -7.155-11.578l16-32a8 8 0 1 1 14.31 7.156l-10.211 20.422h3.056a8 8 0 0 1 0 16z"/></g><path d="m368 344a8 8 0 0 1 -8-8v-56a8 8 0 0 1 16 0v56a8 8 0 0 1 -8 8z" fill="#c3c3c3"/><circle cx="368" cy="360" fill="#e4e4e2" r="24"/><circle cx="368" cy="360" fill="#c3c3c3" r="8"/><path d="m400 488h-120a24 24 0 0 1 -24-24 24 24 0 0 1 24-24h8a16 16 0 0 1 16-16h1.373a16 16 0 0 1 11.313 4.686l11.314 11.314h72z" fill="#f6bb92"/><path d="m133.892 450.861a19.96 19.96 0 0 0 12.781 27.427l30.794 8.7a24 24 0 0 0 29.622-16.568 24 24 0 0 0 -16.568-29.62l-7.7-2.175a16 16 0 0 0 -11.045-19.749l-1.321-.373a16 16 0 0 0 -12.162 1.433 48.558 48.558 0 0 0 -20.549 22.393z" fill="#f6bb92"/><path d="m92.219 230.806a20.085 20.085 0 0 1 14.2 5.882l10.118 10.118 10.117-10.118a20.087 20.087 0 0 1 14.2-5.882 20.083 20.083 0 0 1 19.484 15.213 24.553 24.553 0 0 1 -10.2 26.385l-33.6 22.4-33.6-22.4a24.552 24.552 0 0 1 -10.2-26.385 20.083 20.083 0 0 1 19.481-15.213z" fill="#dc4d41"/><path d="m256 136h8v48h-8z" fill="#eeb58e"/><path d="m376 136h8v48h-8z" fill="#eeb58e"/><path d="m288.992 272.876 31.008 31.124 30.685-30.886a8 8 0 0 1 -6.685-7.891v-25.223h-48v24.938a8 8 0 0 1 -7.008 7.938z" fill="#f6bb92"/><path d="m320 248a56 56 0 0 1 -56-56v-8h112v8a56 56 0 0 1 -56 56z" fill="#85bc94"/><circle cx="224" cy="328" fill="#9e785d" r="8"/></svg>