<svg height="512" viewBox="0 0 512 512" width="512" xmlns="http://www.w3.org/2000/svg"><g id="Flat"><path d="m384 64h-24l-104 56-104-56h-24l-104 56v368h232 232v-368z" fill="#4db6e4"/><rect fill="#9fdce4" height="136" rx="16" width="152" x="64" y="136"/><rect fill="#9fdce4" height="136" rx="16" width="152" x="64" y="312"/><rect fill="#9fdce4" height="136" rx="16" width="152" x="296" y="136"/><rect fill="#9fdce4" height="136" rx="16" width="152" x="296" y="312"/><g fill="#87c3cb"><path d="m128 448v-56h-32v-24l24-8v-16a25.887 25.887 0 0 1 23.155 14.311l.845 1.689 16 16h56v40h-56v32z"/><path d="m160 272h-64v-96l16 8h16l16-8v17.578a47.637 47.637 0 0 0 8 26.422 47.637 47.637 0 0 1 8 26.422z"/><path d="m160 272v-16a16.019 16.019 0 0 0 16-16v-40h16v40a32.036 32.036 0 0 1 -32 32z"/><path d="m416 272h-80v-40h24l5.235-2.618a35.087 35.087 0 0 1 22.565-3.022 35.079 35.079 0 0 1 28.2 34.4z"/><path d="m352 248h-8a16 16 0 0 1 -16-16v-24l16 8h8l16-8v24a16 16 0 0 1 -16 16z"/><path d="m432 448h-120a16 16 0 0 1 -16-16v-24l24-16v-16a19.315 19.315 0 0 1 13.657 5.657l2.343 2.343 32-16h45.578a34.423 34.423 0 0 1 28.641 15.328 34.428 34.428 0 0 1 5.781 19.094v29.578a16 16 0 0 1 -16 16z"/></g><path d="m248 96h16v392h-16z" fill="#3ba5d3"/><path d="m256 120-104-56h-24l-104 56v-40l104-56h24l104 56z" fill="#d65246"/><path d="m488 120-104-56h-24l-104 56v-40l104-56h24l104 56z" fill="#d65246"/></g></svg>