<svg id="Capa_1" enable-background="new 0 0 512 512" height="512" viewBox="0 0 512 512" width="512" xmlns="http://www.w3.org/2000/svg"><g><g fill="#695d69"><path d="m442.106 512h-59.101c-5.523 0-10-4.477-10-10v-38.344h79.101v38.344c0 5.523-4.477 10-10 10z"/><path d="m128.996 512h-59.102c-5.523 0-10-4.477-10-10v-38.344h79.101v38.344c.001 5.523-4.476 10-9.999 10z"/></g><path d="m344.872 0h-177.744c-18.203 0-32.959 14.726-32.959 32.891v59.203h32.959v-52.625c0-3.633 2.951-6.578 6.592-6.578h164.56c3.641 0 6.592 2.945 6.592 6.578v52.625h32.959v-59.203c0-18.165-14.757-32.891-32.959-32.891z" fill="#695d69"/><g><path d="m466.051 479.109h-420.102c-16.569 0-30-13.431-30-30v-343.46c0-16.569 13.431-30 30-30h420.102c16.569 0 30 13.431 30 30v343.46c0 16.569-13.432 30-30 30z" fill="#fd4755"/><path d="m465.146 75.649h-30.906c17.069 0 30.905 13.837 30.905 30.905v341.649c0 17.069-13.837 30.905-30.905 30.905h30.905c17.069 0 30.905-13.837 30.905-30.905v-341.649c.001-17.068-13.836-30.905-30.904-30.905z" fill="#fb2b3a"/><path d="m59.894 428.044v-113.612l15.453-41.141-15.453-32.966v-113.611c0-3.983 3.229-7.211 7.211-7.211h151.765l37.13 15.453 37.13-15.453h151.764c3.983 0 7.211 3.229 7.211 7.211v113.611l-15.453 37.053 15.453 37.053v113.611c0 3.983-3.229 7.211-7.211 7.211h-151.764l-37.13-15.451-37.13 15.453h-151.764c-3.983 0-7.212-3.229-7.212-7.211z" fill="#e5edfc"/></g><path d="m218.87 119.503h74.26v315.752h-74.26z" fill="#fd4755"/><path d="m218.947 81.273h74.107v392.211h-74.107z" fill="#fd4755" transform="matrix(0 -1 1 0 -21.379 533.379)"/><g><ellipse cx="256" cy="277.379" fill="#695d69" rx="108.109" ry="107.886"/><path d="m256 169.493c-5.247 0-10.405.381-15.453 1.102 52.386 7.483 92.656 52.437 92.656 106.784s-40.271 99.301-92.656 106.784c5.048.721 10.205 1.102 15.453 1.102 59.707 0 108.109-48.302 108.109-107.886s-48.402-107.886-108.109-107.886z" fill="#564e57"/><g fill="#fff"><g><ellipse cx="189.136" cy="266.201" rx="12.606" ry="16.682"/><ellipse cx="322.864" cy="266.201" rx="12.606" ry="16.682"/></g><g><ellipse cx="229.11" cy="228.041" rx="14.733" ry="19.497"/><ellipse cx="282.89" cy="228.041" rx="14.733" ry="19.497"/></g><path d="m213.715 301.292c14.993-38.465 69.578-38.465 84.571 0 .099.253.196.508.291.764 4.055 10.887 8.239 25.606.287 35.76-7.885 10.07-19.959 10.171-29.831 5.096-8.14-4.184-17.926-4.184-26.066 0-9.871 5.074-21.945 4.973-29.831-5.096-7.952-10.155-3.768-24.874.287-35.76.096-.256.193-.511.292-.764z"/></g></g></g></svg>