<svg height="480pt" viewBox="-48 0 480 480" width="480pt" xmlns="http://www.w3.org/2000/svg"><path d="m168 80h-32v-24c0-4.238281 1.6875-8.3125 4.6875-11.3125l40-40c3-3 7.074219-4.6875 11.3125-4.6875h192v32h-185.375l-30.625 30.625zm0 0" fill="#6e83b7"/><path d="m152 160h144v-33.375c0-4.242188-1.6875-8.3125-4.6875-11.3125l-30.625-30.625c-3-3-7.070312-4.6875-11.3125-4.6875h-194.75c-4.242188 0-8.3125 1.6875-11.3125 4.6875l-30.625 30.625c-3 3-4.6875 7.070312-4.6875 11.3125v33.375zm0 0" fill="#edeff1"/><path d="m296 176h-288c-4.414062 0-8-3.585938-8-8s3.585938-8 8-8h288c4.414062 0 8 3.585938 8 8s-3.585938 8-8 8zm0 0" fill="#6e83b7"/><g fill="#80d6fb"><path d="m216 416c0 35.34375-28.65625 64-64 64s-64-28.65625-64-64 64-112 64-112 64 76.65625 64 112zm0 0"/><path d="m288 232c0 12.855469-11.144531 24-24 24s-24-11.144531-24-24 24-40 24-40 24 27.144531 24 40zm0 0"/><path d="m264 328c0 12.855469-11.144531 24-24 24s-24-11.144531-24-24 24-40 24-40 24 27.144531 24 40zm0 0"/><path d="m40 328c0 12.855469 11.144531 24 24 24s24-11.144531 24-24-24-40-24-40-24 27.144531-24 40zm0 0"/><path d="m176 240c0 12.855469-11.144531 24-24 24s-24-11.144531-24-24 24-40 24-40 24 27.144531 24 40zm0 0"/><path d="m64 232c0 12.855469-11.144531 24-24 24s-24-11.144531-24-24 24-40 24-40 24 27.144531 24 40zm0 0"/></g><path d="m192 403.230469h-27.230469v-27.230469h-25.539062v27.230469h-27.230469v25.539062h27.230469v27.230469h25.539062v-27.230469h27.230469zm0 0" fill="#edeff1"/><path d="m152 147.878906c4.664062 0 7.894531 4.121094 14.425781 4.121094 4.644531 0 10.300781-3.65625 10.300781-8.984375 0-16.480469-14.292968-24.71875-24.71875-24.71875-10.433593 0-24.71875 8.238281-24.71875 24.71875 0 5.320313 5.65625 8.984375 10.304688 8.984375 6.511719 0 9.742188-4.121094 14.40625-4.121094zm0 0" fill="#6e83b7"/><path d="m125.777344 110.265625c2.949218 3.230469 5.933594 11.75 2.703125 14.703125-3.234375 2.953125-11.449219-.785156-14.402344-4.007812-2.949219-3.234376-2.726563-8.242188.507813-11.191407 3.230468-2.953125 8.238281-2.738281 11.191406.496094zm0 0" fill="#6e83b7"/><path d="m128.566406 101.800781c1.9375 5.351563 9.9375 13.933594 15.289063 12.007813 5.351562-1.9375 6.023437-13.648438 4.089843-19-1.9375-5.351563-7.839843-8.121094-13.183593-6.191406-5.347657 1.925781-8.121094 7.832031-6.195313 13.183593zm0 0" fill="#6e83b7"/><path d="m178.222656 110.265625c-2.949218 3.230469-5.933594 11.75-2.703125 14.703125 3.234375 2.953125 11.449219-.785156 14.402344-4.007812 2.949219-3.234376 2.726563-8.242188-.507813-11.191407-3.222656-2.960937-8.238281-2.738281-11.191406.496094zm0 0" fill="#6e83b7"/><path d="m175.433594 101.800781c-1.9375 5.351563-9.9375 13.933594-15.289063 12.007813-5.351562-1.9375-6.023437-13.648438-4.089843-19 1.9375-5.351563 7.839843-8.121094 13.183593-6.191406 5.355469 1.925781 8.121094 7.832031 6.195313 13.183593zm0 0" fill="#6e83b7"/></svg>