<svg id="Capa_1" enable-background="new 0 0 512 512" height="512" viewBox="0 0 512 512" width="512" xmlns="http://www.w3.org/2000/svg"><g><g><g><g><path d="m129.065 44.025 32.611-44.025h177.242l27.86 44.025z" fill="#e5edfc"/></g></g></g><g><g><g><path d="m161.676 132.343h-45.688v-89.594c0-4.798 2.229-9.324 6.032-12.249l39.656-30.5z" fill="#d1d9fc"/></g></g></g><g><g><g><path d="m384.606 132.343h-45.688v-132.343l39.656 30.5c3.803 2.925 6.032 7.451 6.032 12.249z" fill="#d1d9fc"/></g></g></g><g><g><g><path d="m417.688 512h-323.376c-16.569 0-30-13.431-30-30v-339.501c0-8.393 6.804-15.197 15.197-15.197h352.982c8.393 0 15.197 6.804 15.197 15.197v339.501c0 16.569-13.431 30-30 30z" fill="#e5edfc"/></g></g></g><path d="m432.033 127.302h-30.905c8.646 0 15.656 7.01 15.656 15.656v338.137c0 17.069-13.837 30.905-30.905 30.905h30.905c17.069 0 30.905-13.837 30.905-30.905v-338.137c-.001-8.646-7.01-15.656-15.656-15.656z" fill="#d1d9fc"/><g><g><g><path d="m379.664 458.793h-247.328c-8.284 0-15-6.716-15-15v-248.283c0-8.284 6.716-15 15-15h247.328c8.284 0 15 6.716 15 15v248.283c0 8.284-6.716 15-15 15z" fill="#fff"/></g></g></g><g><circle cx="256" cy="319.651" fill="#695d69" r="101.373"/><path d="m256 218.278c-5.254 0-10.414.4-15.453 1.171 48.653 7.441 85.921 49.47 85.921 100.203s-37.268 92.762-85.921 100.203c5.038.771 10.199 1.171 15.453 1.171 55.987 0 101.374-45.386 101.374-101.374s-45.387-101.374-101.374-101.374z" fill="#564e57"/><g fill="#fff"><g><ellipse cx="193.302" cy="309.148" rx="11.82" ry="15.675"/><ellipse cx="318.698" cy="309.148" rx="11.82" ry="15.675"/></g><g><ellipse cx="230.785" cy="273.291" rx="13.815" ry="18.32"/><ellipse cx="281.215" cy="273.291" rx="13.815" ry="18.32"/></g><path d="m216.349 342.121c14.059-36.143 65.243-36.143 79.302 0 .092.238.184.477.273.718 3.803 10.23 7.725 24.06.269 33.602-7.394 9.462-18.716 9.557-27.972 4.789-7.633-3.932-16.809-3.932-24.442 0-9.256 4.768-20.578 4.673-27.972-4.789-7.456-9.542-3.534-23.372.269-33.602.09-.241.181-.48.273-.718z"/></g></g></g></svg>