<svg height="480.006pt" viewBox="0 0 480.006 480.006" width="480.006pt" xmlns="http://www.w3.org/2000/svg"><path d="m344 80h-288c-8.839844 0-16-7.160156-16-16v-48c0-8.839844 7.160156-16 16-16h288c8.839844 0 16 7.160156 16 16v48c0 8.839844-7.160156 16-16 16zm0 0" fill="#6e83b7"/><path d="m336 80v18.742188c0 8.488281 3.367188 16.625 9.375 22.625l13.257812 13.257812c6 6 9.375 14.144531 9.375 22.621094v274.753906c0 26.511719-21.488281 48-48 48h-240.007812c-26.511719 0-48-21.488281-48-48v-274.742188c0-8.488281 3.367188-16.625 9.375-22.625l13.257812-13.257812c6-6.007812 9.367188-14.144531 9.367188-22.632812v-18.742188zm0 0" fill="#edeff1"/><path d="m168 384h-128c-2.71875 0-5.375.265625-8 .640625v47.359375c0 26.511719 21.488281 48 48 48h127.113281c10.40625-10.175781 16.886719-24.335938 16.886719-40 0-30.878906-25.128906-56-56-56zm0 0" fill="#d3d3d3"/><path d="m309.886719 400.398438c-21.832031 21.832031-21.832031 57.363281 0 79.203124.144531.140626.296875.253907.441406.398438h9.671875c26.511719 0 48-21.488281 48-48v-89.703125zm0 0" fill="#d3d3d3"/><path d="m64 80h272v16h-272zm0 0" fill="#d3d3d3"/><path d="m64 16h16v48h-16zm0 0" fill="#466089"/><path d="m128 16h16v48h-16zm0 0" fill="#466089"/><path d="m320 16h16v48h-16zm0 0" fill="#466089"/><path d="m256 16h16v48h-16zm0 0" fill="#466089"/><path d="m192 16h16v48h-16zm0 0" fill="#466089"/><path d="m32 176h336v240h-336zm0 0" fill="#ffb0aa"/><g fill="#6e83b7"><path d="m200 357.695312c11.671875 0 19.742188 10.304688 36.054688 10.304688 11.617187 0 25.753906-9.144531 25.753906-22.449219 0-41.207031-35.738282-61.808593-61.808594-61.808593s-61.808594 20.601562-61.808594 61.808593c0 13.304688 14.136719 22.449219 25.753906 22.449219 16.3125 0 24.382813-10.304688 36.054688-10.304688zm0 0"/><path d="m134.433594 263.664062c7.382812 8.070313 14.839844 29.375 6.757812 36.761719-8.070312 7.382813-28.625-1.953125-36.007812-10.035156-7.382813-8.070313-6.816406-20.605469 1.257812-27.992187 8.078125-7.375 20.605469-6.8125 27.992188 1.265624zm0 0"/><path d="m141.425781 242.503906c4.832031 13.375 24.839844 34.839844 38.214844 30.007813s15.054687-34.128907 10.230469-47.503907c-4.832032-13.375-19.589844-20.304687-32.96875-15.480468-13.375 4.839844-20.308594 19.601562-15.476563 32.976562zm0 0"/><path d="m265.566406 263.664062c-7.382812 8.070313-14.839844 29.375-6.757812 36.761719 8.070312 7.382813 28.625-1.953125 36.007812-10.035156 7.382813-8.070313 6.816406-20.605469-1.257812-27.992187-8.078125-7.375-20.605469-6.8125-27.992188 1.265624zm0 0"/><path d="m258.574219 242.503906c-4.832031 13.375-24.839844 34.839844-38.214844 30.007813s-15.054687-34.128907-10.230469-47.503907c4.832032-13.375 19.589844-20.304687 32.96875-15.480468 13.375 4.839844 20.308594 19.601562 15.476563 32.976562zm0 0"/></g><path d="m168 384h-128c-2.71875 0-5.375.265625-8 .640625v31.359375h186.519531c-9.015625-18.886719-28.238281-32-50.519531-32zm0 0" fill="#ff7b7b"/><path d="m208 440c0 22.089844-17.910156 40-40 40h-128c-22.089844 0-40-17.910156-40-40s17.910156-40 40-40h128c22.089844 0 40 17.910156 40 40zm0 0" fill="#edeff1"/><path d="m80 400h16v80h-16zm0 0" fill="#d3d3d3"/><path d="m96 480h72c22.089844 0 40-17.910156 40-40s-17.910156-40-40-40h-72zm0 0" fill="#ffb0aa"/><path d="m368 416v-73.703125l-58.113281 58.101563c-4.65625 4.65625-8.253907 9.960937-10.925781 15.601562zm0 0" fill="#ff7b7b"/><path d="m468.289062 321.207031c15.621094 15.625 15.621094 40.945313 0 56.570313l-90.511718 90.511718c-15.625 15.621094-40.945313 15.621094-56.570313 0-15.621093-15.625-15.621093-40.945312 0-56.570312l90.511719-90.511719c15.617188-15.621093 40.945312-15.621093 56.570312 0zm0 0" fill="#edeff1"/><path d="m360.804688 372.109375 56.570312 56.570313-11.3125 11.3125-56.570312-56.566407zm0 0" fill="#d3d3d3"/><path d="m417.375 428.6875 50.914062-50.910156c15.621094-15.625 15.621094-40.945313 0-56.570313-15.625-15.621093-40.945312-15.621093-56.570312 0l-50.910156 50.914063zm0 0" fill="#ffb0aa"/></svg>