<svg height="512" viewBox="0 0 512 512" width="512" xmlns="http://www.w3.org/2000/svg"><g id="Flat"><path d="m325.082 449.314-69.082 38.686-69.082-38.686a256 256 0 0 1 -130.918-223.362v-137.952a343.489 343.489 0 0 0 190.533-57.689l9.467-6.311 9.467 6.311a343.489 343.489 0 0 0 190.533 57.689v137.952a256 256 0 0 1 -130.918 223.362z" fill="#348ed8"/><path d="m202.547 421.391a224.22 224.22 0 0 1 -114.547-195.438v-107.3a373.934 373.934 0 0 0 168-56.348 373.9 373.9 0 0 0 168 56.343v107.305a224.22 224.22 0 0 1 -114.547 195.438l-53.453 29.937z" fill="#2d7dbe"/><g fill="#348ed8"><path d="m248 96h16v16h-16z"/><path d="m112 136h16v16h-16z"/><path d="m384 136h16v16h-16z"/><path d="m112 264h16v16h-16z"/><path d="m384 264h16v16h-16z"/><path d="m200 384h16v16h-16z"/><path d="m296 384h16v16h-16z"/></g><path d="m296.367 336a15.632 15.632 0 0 1 -13.008-6.962l-6.718-10.076a15.632 15.632 0 0 0 -13.008-6.962h-15.266a15.632 15.632 0 0 0 -13.008 6.962l-6.718 10.076a15.632 15.632 0 0 1 -13.008 6.962 15.633 15.633 0 0 1 -15.633-15.633 87.963 87.963 0 0 1 12.537-45.261 39.351 39.351 0 0 1 33.744-19.106h19.438a39.351 39.351 0 0 1 33.744 19.106 87.963 87.963 0 0 1 12.537 45.261 15.633 15.633 0 0 1 -15.633 15.633z" fill="#17588e"/><ellipse cx="220" cy="182.333" fill="#17588e" rx="20" ry="30.333"/><ellipse cx="172" cy="241.667" fill="#17588e" rx="20" ry="30.333"/><ellipse cx="292" cy="182.333" fill="#17588e" rx="20" ry="30.333"/><ellipse cx="340" cy="241.667" fill="#17588e" rx="20" ry="30.333"/></g></svg>