<svg height="512" viewBox="0 0 512 512" width="512" xmlns="http://www.w3.org/2000/svg"><path d="m224 176v-20.759a24 24 0 0 1 8.636-18.437l34.463-28.72a17.62 17.62 0 0 1 11.28-4.084 17.62 17.62 0 0 1 17.621 17.62v31.468a36 36 0 0 1 -10.544 25.456l-13.456 13.456v34.4a22 22 0 0 1 -12.161 19.678l-19.839 9.922h-16z" fill="#e08122"/><path d="m112 176v-20.759a24 24 0 0 0 -8.636-18.437l-34.464-28.72a17.62 17.62 0 0 0 -11.279-4.084 17.62 17.62 0 0 0 -17.621 17.62v31.468a36 36 0 0 0 10.544 25.456l13.456 13.456v34.4a22 22 0 0 0 12.161 19.678l19.839 9.922h16z" fill="#e08122"/><path d="m231.994 210.667a8 8 0 0 1 -6.394-12.8l30.4-40.534v-13.333a8 8 0 0 1 16 0v16a8 8 0 0 1 -1.6 4.8l-32 42.666a7.986 7.986 0 0 1 -6.406 3.201z" fill="#bf6e1d"/><path d="m104.006 210.667a7.988 7.988 0 0 1 -6.406-3.2l-32-42.667a8 8 0 0 1 -1.6-4.8v-16a8 8 0 0 1 16 0v13.333l30.4 40.534a8 8 0 0 1 -6.394 12.8z" fill="#bf6e1d"/><path d="m239.68 450.24-7.68 5.76 4.24 1.41 8.82 2.94a16.014 16.014 0 0 1 10.94 15.18v12.47h-176v-14.11a16 16 0 0 1 8.84-14.31l7.16-3.58-14.63-14.63a32 32 0 0 1 -9.37-22.62v-28.12a16.008 16.008 0 0 1 4.69-11.32l19.31-19.31 16-40h112l16 40 19.31 19.31a16.008 16.008 0 0 1 4.69 11.32v25.37a31.992 31.992 0 0 1 -12.8 25.6z" fill="#fd9226"/><path d="m224 320h-112l-16-40v-75.574a30 30 0 0 1 8.787-21.213l.142-.142a30 30 0 0 1 16.97-8.485l.846-.121a320.018 320.018 0 0 1 90.51 0l.846.121a30 30 0 0 1 16.97 8.485l.142.142a30 30 0 0 1 8.787 21.213v75.574z" fill="#fd9226"/><path d="m197.945 344a26.055 26.055 0 0 1 -21.679-11.6l-8.266-12.4-8.265 12.4a26.055 26.055 0 0 1 -21.679 11.6 26.055 26.055 0 0 1 -26.056-26.055v-11.89a26.055 26.055 0 0 1 26.055-26.055h59.89a26.055 26.055 0 0 1 26.055 26.055v11.89a26.055 26.055 0 0 1 -26.055 26.055z" fill="#985713"/><g fill="#e08122"><path d="m120 464v24h-16v-22.11l-7.16-14.31a8.081 8.081 0 0 1 -.84-3.58v-40a8 8 0 0 1 16 0v38.11l7.16 14.31a8.081 8.081 0 0 1 .84 3.58z"/><path d="m160 408v40a8.081 8.081 0 0 1 -.84 3.58l-7.16 14.31v22.11h-16v-24a8.081 8.081 0 0 1 .84-3.58l7.16-14.31v-38.11a8 8 0 0 1 16 0z"/><path d="m240 408v40a8.125 8.125 0 0 1 -.84 3.58l-2.92 5.83-4.24 8.48v22.11h-16v-24a8.081 8.081 0 0 1 .84-3.58l7.16-14.31v-38.11a8 8 0 0 1 16 0z"/><path d="m200 464v24h-16v-22.11l-7.16-14.31a8.081 8.081 0 0 1 -.84-3.58v-40a8 8 0 0 1 16 0v38.11l7.16 14.31a8.081 8.081 0 0 1 .84 3.58z"/></g><circle cx="168" cy="296" fill="#70400e" r="16"/><circle cx="136" cy="240" fill="#985713" r="11"/><circle cx="203" cy="240" fill="#985713" r="11"/><path d="m360 312v152a32 32 0 0 1 -64 0v-34a6 6 0 0 0 -6-6h-58a8 8 0 0 1 0-16h58a22.026 22.026 0 0 1 22 22v34a16 16 0 0 0 32 0v-152a8 8 0 0 1 16 0z" fill="#dbdbdb"/><path d="m352 176a32.048 32.048 0 0 1 -23.85-10.664 8 8 0 0 1 11.922-10.671 16 16 0 1 0 11.928-26.665 8 8 0 0 1 -8-8v-72a8 8 0 0 1 16 0v65.012a32 32 0 0 1 -8 62.988z" fill="#878787"/><path d="m448 56h-104a16 16 0 0 1 -16-16 16 16 0 0 1 16-16h104z" fill="#cbcbcb"/><path d="m416 56h32v400h-32z" fill="#985713"/><path d="m472 488h-80a44.846 44.846 0 0 1 19.969-37.313l4.031-2.687h32l4.031 2.687a44.846 44.846 0 0 1 19.969 37.313z" fill="#70400e"/><path d="m312 336h16v16h-16z" fill="#c0f5f9"/><path d="m312 368h16v32h-16z" fill="#c0f5f9"/><path d="m176 400h64v32h-64z" fill="#6b9777"/><path d="m352 208a8 8 0 0 1 -8-8v-32a8 8 0 0 1 16 0v32a8 8 0 0 1 -8 8z" fill="#cbcbcb"/><path d="m360 312v6.99a32.188 32.188 0 0 1 -16 0v-6.99a8 8 0 0 1 16 0z" fill="#c3c3c3"/><path d="m416 56h32v16h-32z" fill="#70400e"/><path d="m240 408h8v16h-8z" fill="#c3c3c3"/><path d="m320 200h64a0 0 0 0 1 0 0v80a32 32 0 0 1 -32 32 32 32 0 0 1 -32-32v-80a0 0 0 0 1 0 0z" fill="#ebebeb"/><path d="m352 312a32 32 0 0 1 -32-32v-48h64v48a32 32 0 0 1 -32 32z" fill="#c0f5f9"/><path d="m368 264h-8v-8h-16v8h-8v16h8v8h16v-8h8z" fill="#85bc94"/><path d="m320 232h64v8h-64z" fill="#b8eaee"/></svg>