<svg height="480pt" viewBox="0 -56 480 480" width="480pt" xmlns="http://www.w3.org/2000/svg"><path d="m480 206.535156v97.464844c0 8.800781-7.199219 16-16 16h-448c-8.800781 0-16-7.199219-16-16v-224c0-17.601562 14.398438-32 32-32h326.3125c16.046875 0 31.039062 8.023438 39.933594 21.375l73.691406 110.535156c5.253906 7.882813 8.0625 17.144532 8.0625 26.625zm0 0" fill="#edeff1"/><path d="m352 264c-30.929688 0-56 25.070312-56 56h112c0-30.929688-25.070312-56-56-56zm0 0" fill="#d3d3d3"/><path d="m96 264c-30.929688 0-56 25.070312-56 56h112c0-30.929688-25.070312-56-56-56zm0 0" fill="#d3d3d3"/><path d="m335.351562 88h51.832032c2.609375 0 5.054687 1.273438 6.550781 3.414062l44.800781 64c3.710938 5.296876-.078125 12.585938-6.550781 12.585938h-96.632813c-4.414062 0-8-3.585938-8-8v-64c0-4.414062 3.585938-8 8-8zm0 0" fill="#80d6fb"/><path d="m224 168h80c4.414062 0 8-3.585938 8-8v-64c0-4.414062-3.585938-8-8-8h-80c-4.414062 0-8 3.585938-8 8v64c0 4.414062 3.585938 8 8 8zm0 0" fill="#80d6fb"/><path d="m480 288v16c0 8.800781-7.199219 16-16 16h-448c-8.800781 0-16-7.199219-16-16v-16zm0 0" fill="#6e83b7"/><path d="m306.078125 288c-6.335937 9.070312-10.078125 20.097656-10.078125 32h112c0-11.902344-3.742188-22.929688-10.078125-32zm0 0" fill="#466089"/><path d="m432 248h48v8h-48zm0 0" fill="#d3d3d3"/><path d="m432 264h48v8h-48zm0 0" fill="#d3d3d3"/><path d="m472 208c-8.839844 0-16 7.160156-16 16s7.160156 16 16 16h8v-32zm0 0" fill="#ffe352"/><path d="m398.785156 309.015625c7.757813 35.015625-22.753906 65.527344-57.769531 57.769531-17.648437-3.914062-31.886719-18.152344-35.800781-35.800781-7.757813-35.015625 22.753906-65.527344 57.769531-57.769531 17.648437 3.914062 31.886719 18.152344 35.800781 35.800781zm0 0" fill="#6e83b7"/><path d="m376 320c0 13.253906-10.746094 24-24 24s-24-10.746094-24-24 10.746094-24 24-24 24 10.746094 24 24zm0 0" fill="#466089"/><path d="m368 320c0 8.835938-7.164062 16-16 16s-16-7.164062-16-16 7.164062-16 16-16 16 7.164062 16 16zm0 0" fill="#edeff1"/><path d="m50.078125 288c-6.335937 9.070312-10.078125 20.097656-10.078125 32h112c0-11.902344-3.742188-22.929688-10.078125-32zm0 0" fill="#466089"/><path d="m144 320c0 26.507812-21.492188 48-48 48s-48-21.492188-48-48 21.492188-48 48-48 48 21.492188 48 48zm0 0" fill="#6e83b7"/><path d="m120 320c0 13.253906-10.746094 24-24 24s-24-10.746094-24-24 10.746094-24 24-24 24 10.746094 24 24zm0 0" fill="#466089"/><path d="m112 320c0 8.835938-7.164062 16-16 16s-16-7.164062-16-16 7.164062-16 16-16 16 7.164062 16 16zm0 0" fill="#edeff1"/><path d="m440 240h-8c-8.839844 0-16-7.160156-16-16v-8c0-4.414062 3.585938-8 8-8h16c4.414062 0 8 3.585938 8 8v16c0 4.414062-3.585938 8-8 8zm0 0" fill="#ffe352"/><path d="m182 136.472656h-54.472656v-54.472656h-51.054688v54.472656h-54.472656v51.054688h54.472656v54.472656h51.054688v-54.472656h54.472656zm0 0" fill="#80d6fb"/><g fill="#6e83b7"><path d="m102 203.816406c7 0 11.847656 6.183594 21.632812 6.183594 6.96875 0 15.457032-5.488281 15.457032-13.472656 0-24.71875-21.441406-37.085938-37.089844-37.085938s-37.089844 12.359375-37.089844 37.085938c0 7.984375 8.480469 13.472656 15.457032 13.472656 9.785156 0 14.632812-6.183594 21.632812-6.183594zm0 0"/><path d="m62.65625 147.398438c4.433594 4.847656 8.902344 17.625 4.054688 22.058593-4.847657 4.429688-17.175782-1.175781-21.605469-6.015625-4.433594-4.839844-4.089844-12.363281.75-16.792968 4.855469-4.433594 12.375-4.097657 16.800781.75zm0 0"/><path d="m66.855469 134.703125c2.898437 8.023437 14.90625 20.90625 22.929687 18.007813 8.023438-2.894532 9.03125-20.472657 6.136719-28.503907-2.898437-8.023437-11.753906-12.183593-19.785156-9.285156-8.03125 2.894531-12.175781 11.757813-9.28125 19.78125zm0 0"/><path d="m141.34375 147.398438c-4.433594 4.847656-8.902344 17.625-4.054688 22.058593 4.847657 4.429688 17.175782-1.175781 21.605469-6.015625 4.433594-4.839844 4.089844-12.363281-.75-16.792968-4.855469-4.433594-12.375-4.097657-16.800781.75zm0 0"/><path d="m137.144531 134.703125c-2.898437 8.023437-14.90625 20.90625-22.929687 18.007813-8.023438-2.894532-9.03125-20.472657-6.136719-28.503907 2.898437-8.023437 11.753906-12.183593 19.785156-9.285156 8.023438 2.902344 12.175781 11.757813 9.28125 19.78125zm0 0"/></g><path d="m264 32h56v16h-56zm0 0" fill="#d3d3d3"/><path d="m312 32h-40v-16c0-8.839844 7.160156-16 16-16h8c8.839844 0 16 7.160156 16 16zm0 0" fill="#ffb0aa"/></svg>