<svg height="512" viewBox="0 0 512 512" width="512" xmlns="http://www.w3.org/2000/svg"><g id="Flat"><path d="m256 24a24 24 0 0 1 24 24v80a0 0 0 0 1 0 0h-48a0 0 0 0 1 0 0v-80a24 24 0 0 1 24-24z" fill="#2d7dbe"/><path d="m208 128h96v64h-96z" fill="#348ed8"/><path d="m360 488h-208v-240a56 56 0 0 1 56-56h96a56 56 0 0 1 56 56z" fill="#7a432a"/><path d="m232 152h16v16h-16z" fill="#459ce5"/><path d="m152 256h208v200h-208z" fill="#f96d00"/><path d="m199.937 235.841a4.2 4.2 0 0 0 .063-.841h-16c0-2.161.984-13.436 20.422-23.155l7.156 14.31c-10.458 5.227-11.631 9.645-11.641 9.686z" fill="#895036"/><path d="m312 456h-112v-23.029a40.971 40.971 0 0 1 12-28.971 40.971 40.971 0 0 1 28.971-12h30.058a40.971 40.971 0 0 1 28.971 12 40.971 40.971 0 0 1 12 28.971z" fill="#f9a40f"/><path d="m277.167 408h-42.334a16 16 0 0 1 -14.856-10.058l-11.977-29.942v-72l8-8h80l8 8v72l-11.977 29.942a16 16 0 0 1 -14.856 10.058z" fill="#ffb431"/><path d="m208 296-32 32 16 40h16z" fill="#f9a40f"/><path d="m304 296 32 32-16 40h-16z" fill="#f9a40f"/><path d="m248 384h16v24h-16z" fill="#f4970c"/><g fill="#91563a"><path d="m256 392a7.976 7.976 0 0 1 -5.657-2.343l-8-8a8 8 0 0 1 -2.343-5.657v-8a8 8 0 0 1 8-8h16a8 8 0 0 1 8 8v8a8 8 0 0 1 -2.343 5.657l-8 8a7.976 7.976 0 0 1 -5.657 2.343z"/><path d="m232 328h16v16h-16z"/><path d="m264 328h16v16h-16z"/></g></g></svg>