<svg id="Capa_1" enable-background="new 0 0 512 512" height="512" viewBox="0 0 512 512" width="512" xmlns="http://www.w3.org/2000/svg"><g><g><path d="m204.183 504.896v-87.373h103.634v87.373c0 3.923-3.181 7.104-7.104 7.104h-89.426c-3.923 0-7.104-3.181-7.104-7.104z" fill="#c86d36"/><path d="m437.828 130.376-18.666 253.343-147.925 15.223-178.399-15.223-18.666-253.343 181.828-100.74z" fill="#ecbba3"/><path d="m437.828 130.376-181.828-100.74-8.064 4.468-173.764 96.272 3.142 42.644 173.148-93.409c3.456-1.865 7.619-1.865 11.075 0l139.816 75.427c2.464 1.329 3.918 3.982 3.712 6.774l-16.35 221.907h30.446z" fill="#e8ad8c"/><path d="m132.569 391.742-19.474-282.781 142.893-79.325 142.538 84.49-19.121 277.616z" fill="#dc8758"/><path d="m254.443 30.494-141.347 78.468 2.972 43.152 134.395-72.502c3.456-1.865 7.619-1.865 11.075 0l134.372 72.49 2.615-37.975-141.097-83.637c-.995-.047-1.991-.047-2.985.004z" fill="#d77f4a"/><path d="m470.635 118.6v23.825c0 8.828-9.429 14.455-17.199 10.264l-191.898-103.524c-3.456-1.865-7.619-1.865-11.075 0l-191.897 103.523c-7.77 4.192-17.2-1.435-17.2-10.264v-23.824c0-4.286 2.352-8.227 6.124-10.262l194.055-104.688c9.022-4.867 19.888-4.867 28.911 0l194.054 104.687c3.773 2.036 6.125 5.976 6.125 10.263z" fill="#c86d36"/><g><path d="m464.51 108.337-194.055-104.687c-9.022-4.867-19.889-4.867-28.911 0l-.768.414 193.287 104.273c3.772 2.035 6.124 5.976 6.124 10.262v23.825c0 1.02-.139 1.991-.373 2.916l13.62 7.348c7.77 4.192 17.199-1.435 17.199-10.264v-23.824c.002-4.287-2.35-8.227-6.123-10.263z" fill="#ac5e2e"/></g><ellipse cx="256" cy="193.824" fill="#695d69" rx="72.738" ry="72.54"/><path d="m256 121.284c-5.223 0-10.312.56-15.223 1.604 32.862 6.98 57.515 36.082 57.515 70.936s-24.653 63.956-57.515 70.936c4.911 1.043 10 1.603 15.223 1.603 40.172 0 72.738-32.477 72.738-72.54 0-40.062-32.566-72.539-72.738-72.539z" fill="#564e57"/><path d="m204.183 417.523h103.634v42.921h-103.634z" fill="#ac5e2e"/><path d="m427.301 429.998h-342.602c-5.523 0-10-4.477-10-10v-26.279c0-5.523 4.477-10 10-10h342.603c5.523 0 10 4.477 10 10v26.279c-.001 5.523-4.478 10-10.001 10z" fill="#c86d36"/><path d="m427.153 383.719h-30.446c5.605 0 10.149 4.544 10.149 10.149v25.982c0 5.605-4.544 10.149-10.149 10.149h30.446c5.605 0 10.149-4.544 10.149-10.149v-25.982c0-5.605-4.544-10.149-10.149-10.149z" fill="#ac5e2e"/></g><path d="m335.935 341.012h-159.87c-3.866 0-7-3.134-7-7v-20.505c0-3.866 3.134-7 7-7h159.87c3.866 0 7 3.134 7 7v20.505c0 3.866-3.134 7-7 7z" fill="#c86d36"/><path d="m335.831 306.506h-30.446c3.923 0 7.104 3.181 7.104 7.104v20.297c0 3.924-3.181 7.104-7.104 7.104h30.446c3.923 0 7.104-3.18 7.104-7.104v-20.297c0-3.923-3.181-7.104-7.104-7.104z" fill="#ac5e2e"/></g></svg>