<svg height="488pt" viewBox="0 -56 488 488" width="488pt" xmlns="http://www.w3.org/2000/svg"><path d="m408 8v351.953125c0 17.757813 9.753906 16 24 16h-48c-8.839844 0-16-7.160156-16-16v-351.953125zm0 0" fill="#466089"/><g fill="#6e83b7"><path d="m401.625 375.953125h-9.625c3.503906 0 6.734375.101563 9.625 0zm0 0"/><path d="m488 16v-16h-138.34375c-26.136719 0-50.242188 14.191406-62.9375 37.03125l-6.40625 11.527344c-9.65625 17.378906-22.417969 32.472656-37.921875 44.882812l-54.191406 43.351563-171.199219 52.101562c-10.167969 3.097657-17 12.320313-17 22.960938v12.59375c0 6.175781 1.464844 12.359375 4.222656 17.886719l38.042969 76.078124c5.222656 10.457032 14.726563 18.082032 26.070313 20.921876l113.71875 28.433593 121.945312.230469c22.054688 0 40-17.945312 40-40v-48h72v79.953125c0 13.382813-5.542969 15.679687-14.375 16h38.375c8.839844 0 16-7.160156 16-16v-79.953125h32v-40h-32v-224zm-403.359375 201.976562 87.632813-25.5625 8.460937 28.546876-85.871094 23.414062zm-18.730469 34.296876-34.167968 9.320312-12.300782-24.601562 36.4375-10.632813zm166.089844 59.726562h-40v-37.296875l27.519531-7.175781 12.480469 12.472656zm-25.59375-57.59375-14.40625 3.761719v-18.167969zm-38.6875-77.328125-88.878906 25.921875-5.609375-14.496094 89.777343-27.320312zm8.28125 61.761719v23.503906l-67.382812 17.578125-7.953126-20.539063zm0 40.039062v33.121094h-54.96875l-6.605469-17.0625zm-48.777344 49.121094h48.777344v21.753906l-44.679688-11.167968zm64.777344 0h40v24h-40zm56 0h32v24h-32zm0-16v-32h32v32zm48-32h32v32h-32zm-274.335938-75.800781 22.9375-6.976563 5.488282 14.175782-34.089844 9.9375v-9.480469c0-3.542969 2.28125-6.625 5.664062-7.65625zm17.375 71.992187 32.679688-8.910156 7.832031 20.222656-30.832031 8.039063zm17.535157 35.066406-.542969-1.082031 29.328125-7.648437 10.527344 27.207031-23.671875-5.917969c-6.808594-1.703125-12.503906-6.28125-15.640625-12.558594zm247.425781 40.742188h-8v-24h32c0 13.230469-10.769531 24-24 24zm112-112h-164.6875l-28.320312-28.320312-21.640626-64.917969 51.03125-40.824219c17.136719-13.714844 31.242188-30.402344 41.914063-49.601562l6.40625-11.527344c9.871094-17.777344 28.632813-28.808594 48.953125-28.808594h66.34375zm0 0"/></g></svg>