<svg id="Capa_1" enable-background="new 0 0 512 512" height="512" viewBox="0 0 512 512" width="512" xmlns="http://www.w3.org/2000/svg"><g><path d="m482 445.717h-452c-16.569 0-30-13.431-30-30v-319.434c0-16.569 13.431-30 30-30h452c16.569 0 30 13.431 30 30v319.433c0 16.569-13.431 30.001-30 30.001z" fill="#e5edfc"/><path d="m481.095 66.283h-30.905c17.069 0 30.905 13.837 30.905 30.905v317.622c0 17.069-13.837 30.905-30.905 30.905h30.905c17.069 0 30.905-13.837 30.905-30.905v-317.621c0-17.069-13.837-30.906-30.905-30.906z" fill="#d1d9fc"/><path d="m30.905 362.662v-213.324c28.801 0 52.149-23.348 52.149-52.149h345.891c0 28.801 23.348 52.149 52.149 52.149v213.324c-28.801 0-52.149 23.348-52.149 52.149h-345.89c0-28.801-23.348-52.149-52.15-52.149z" fill="#fff"/><g><g fill="#695d69"><g><ellipse cx="185.994" cy="208.296" rx="13.198" ry="17.502"/><ellipse cx="326.006" cy="208.296" rx="13.198" ry="17.502"/></g><g><ellipse cx="227.846" cy="168.26" rx="15.426" ry="20.456"/><ellipse cx="284.154" cy="168.26" rx="15.426" ry="20.456"/></g><path d="m211.728 245.112c15.698-40.356 72.847-40.356 88.545 0 .103.266.205.533.305.801 4.246 11.422 8.626 26.865.3 37.519-8.256 10.565-20.897 10.671-31.232 5.347-8.523-4.39-18.768-4.39-27.291 0-10.335 5.324-22.976 5.218-31.232-5.347-8.326-10.654-3.946-26.096.3-37.519.1-.268.201-.535.305-.801z"/></g><g><path d="m417.566 341.017h-323.132c-4.268 0-7.726-3.459-7.726-7.726s3.459-7.726 7.726-7.726h323.133c4.268 0 7.726 3.459 7.726 7.726s-3.459 7.726-7.727 7.726z" fill="#d1d9fc"/></g><g><path d="m386.661 371.923h-261.322c-4.268 0-7.726-3.459-7.726-7.726s3.459-7.726 7.726-7.726h261.322c4.268 0 7.726 3.459 7.726 7.726s-3.458 7.726-7.726 7.726z" fill="#d1d9fc"/></g></g></g></svg>