<svg id="Capa_1" enable-background="new 0 0 512 512" height="512" viewBox="0 0 512 512" width="512" xmlns="http://www.w3.org/2000/svg"><g><g><g><path d="m42.115 166.549 206.344-119.334c4.669-2.701 10.413-2.701 15.082 0l206.343 119.334v332.515h-427.769z" fill="#dc8758"/><path d="m263.541 47.215c-4.669-2.701-10.413-2.701-15.082 0l-30.125 30.125c4.669-2.701 10.413-2.701 15.082 0l206.344 119.333v302.391h30.125v-332.515z" fill="#d77f4a"/><path d="m212.843 200.599h86.314c2.075 0 3.864 1.479 4.161 3.495 1.876 12.728 12.95 22.534 26.398 22.707 14.761.19 27.091-11.483 27.402-25.967.13-6.028-1.791-11.608-5.122-16.121-1.062-1.439-1.062-3.386 0-4.825 3.331-4.513 5.251-10.094 5.122-16.121-.311-14.484-12.642-26.157-27.402-25.967-13.448.173-24.522 9.979-26.398 22.707-.297 2.015-2.086 3.495-4.161 3.495h-86.314c-2.075 0-3.864-1.479-4.161-3.495-1.876-12.728-12.95-22.534-26.398-22.707-14.761-.19-27.091 11.483-27.402 25.967-.13 6.028 1.791 11.608 5.122 16.121 1.062 1.439 1.062 3.386 0 4.825-3.331 4.513-5.251 10.094-5.122 16.121.311 14.484 12.641 26.157 27.402 25.967 13.448-.173 24.522-9.979 26.398-22.707.297-2.016 2.086-3.495 4.161-3.495z" fill="#fff"/><path d="m497.998 195.532-234.457-135.597c-4.665-2.698-10.416-2.698-15.082 0l-234.457 135.597c-3.347 1.936-7.534-.48-7.534-4.346v-39.96c0-7.17 3.822-13.796 10.029-17.385l224.421-129.794c9.33-5.396 20.833-5.396 30.163 0l224.423 129.793c6.206 3.589 10.029 10.215 10.029 17.385v39.96c-.001 3.867-4.188 6.282-7.535 4.347z" fill="#ecbba3"/><g><path d="m495.504 133.84-224.422-129.793c-9.324-5.392-20.817-5.395-30.144-.01.006.004.013.007.019.01l224.422 129.793c6.206 3.59 10.029 10.215 10.029 17.385v31.242l22.59 13.065c3.347 1.936 7.534-.48 7.534-4.346v-39.961c0-7.17-3.822-13.796-10.028-17.385z" fill="#e8ad8c"/></g><path d="m375.258 499.064h-238.516v-140.132c0-65.592 53.173-118.764 118.764-118.764h.987c65.592 0 118.764 53.173 118.764 118.764v140.132z" fill="#695d69"/><path d="m256 240.168c-5.102 0-10.129.322-15.062.944 58.753 7.405 104.195 57.552 104.195 118.314v139.639h30.125v-139.64c0-65.864-53.394-119.257-119.258-119.257z" fill="#564e57"/></g><g><path d="m503.874 454.554c0 13.196-5.742 25.05-14.864 33.201-2.852 2.549-8.276 1.39-11.717 3.142-6.055 3.083-10.668 8.167-17.929 8.167-8.036 0-14.117-4.729-20.625-8.455-2.819-1.614-6.901-.927-9.29-3.096-8.966-8.143-14.596-19.894-14.596-32.96 0-12.053 4.791-22.987 12.572-31.002 1.674-1.724 3.891-.439 5.824-1.875 2.171-1.613 4.089-5.907 6.538-7.108 5.908-2.898 12.552-4.525 19.576-4.525 6.91 0 13.452 1.575 19.288 4.385 2.949 1.42 3.314 5.241 5.858 7.248 1.459 1.151 5.248.307 6.551 1.629 7.924 8.037 12.814 19.072 12.814 31.249z" fill="#a0e38b"/><path d="m459.363 410.044c-5.287 0-10.358.927-15.062 2.619 17.168 6.174 29.448 22.596 29.448 41.891s-12.28 35.717-29.448 41.891c4.705 1.692 9.775 2.619 15.062 2.619 24.582 0 44.511-19.928 44.511-44.51 0-12.177-4.89-23.212-12.814-31.249-2.215-2.247-5.302-1.926-7.95-3.664-1.627-1.067-2.693-4.363-4.459-5.213-5.835-2.81-12.377-4.384-19.288-4.384z" fill="#8fd674"/><g fill="#e5edfc"><path d="m427.433 423.559c2.564 5.499 4.507 11.273 5.774 17.199 4.075 18.992.399 35.608-3.758 46.755 3.772 3.426 8.137 6.206 12.919 8.184.109-.213.227-.419.317-.645 5.218-13.053 10.363-33.616 5.249-57.448-1.664-7.786-4.306-15.358-7.852-22.506-.09-.181-.191-.353-.293-.524-4.629 2.271-8.802 5.325-12.356 8.985z"/><path d="m491.056 423.31c-3.576-3.627-7.764-6.647-12.405-8.881-.089.151-.179.3-.259.458-3.592 7.195-6.272 14.835-7.966 22.713-5.132 23.929.067 44.557 5.33 57.649.081.201.188.383.283.574 4.793-1.939 9.171-4.683 12.965-8.073-4.208-11.182-7.948-27.883-3.852-46.987 1.298-6.028 3.286-11.887 5.904-17.453z"/></g></g><path d="m203.324 499.064h-133.163l22.609-52.688c1.837-4.281 6.047-7.056 10.705-7.056h66.535c4.658 0 8.868 2.775 10.705 7.056z" fill="#6fd8fd"/><path d="m180.715 446.377c-1.837-4.281-6.047-7.056-10.705-7.056h-30.125c4.658 0 8.868 2.775 10.705 7.056l22.609 52.688h30.125z" fill="#28c1fd"/></g><g><path d="m504.5 512h-497c-4.143 0-7.5-3.357-7.5-7.5s3.357-7.5 7.5-7.5h497c4.143 0 7.5 3.357 7.5 7.5s-3.357 7.5-7.5 7.5z" fill="#564e57"/></g></g></svg>