<svg height="480pt" viewBox="0 0 480 480.00136" width="480pt" xmlns="http://www.w3.org/2000/svg"><path d="m40 424v16l15.96875 16h16l264.128906-264v-24l-20.046875-20.046875zm0 0" fill="#80d6fb"/><path d="m390.089844 137.9375 35.855468-35.871094c9-9.007812 14.054688-21.21875 14.054688-33.9375v-44.128906l-123.949219 123.953125 20.046875 20.046875 16-16h4.046875c12.738281 0 24.945313-5.0625 33.945313-14.0625zm0 0" fill="#edeff1"/><g fill="#6e83b7"><path d="m128 191.617188c14.9375 0 25.273438 13.183593 46.152344 13.183593 14.871094 0 32.96875-11.703125 32.96875-28.734375 0-52.746094-45.734375-79.113281-79.113282-79.113281-33.375 0-79.109374 26.367187-79.109374 79.113281 0 17.03125 18.085937 28.734375 32.96875 28.734375 20.863281 0 31.199218-13.183593 46.132812-13.183593zm0 0"/><path d="m44.074219 71.25c9.445312 10.335938 18.992187 37.605469 8.65625 47.054688-10.335938 9.449218-36.640625-2.503907-46.089844-12.839844-9.449219-10.335938-8.726563-26.375 1.609375-35.824219 10.335938-9.445313 26.375-8.726563 35.824219 1.609375zm0 0"/><path d="m53.023438 44.167969c6.1875 17.121093 31.792968 44.601562 48.921874 38.417969 17.121094-6.183594 19.28125-43.679688 13.097657-60.808594-6.1875-17.121094-25.082031-25.992188-42.203125-19.808594-17.117188 6.183594-26 25.082031-19.816406 42.199219zm0 0"/><path d="m211.929688 71.25c-9.449219 10.335938-18.992188 37.605469-8.65625 47.054688 10.335937 9.449218 36.640624-2.503907 46.089843-12.839844 9.445313-10.335938 8.726563-26.375-1.609375-35.824219-10.335937-9.445313-26.375-8.726563-35.824218 1.609375zm0 0"/><path d="m202.976562 44.167969c-6.183593 17.121093-31.792968 44.601562-48.917968 38.417969-17.121094-6.183594-19.28125-43.679688-13.097656-60.808594 6.183593-17.128906 25.082031-25.992188 42.199218-19.808594 17.121094 6.183594 26 25.082031 19.816406 42.199219zm0 0"/></g><path d="m132 173.417969v-16.214844c11.328125-1.921875 20-11.730469 20-23.59375 0-13.230469-10.765625-24-24-24-13.230469 0-24 10.769531-24 24 0 11.863281 8.671875 21.679687 20 23.59375v16.222656l-9.328125-8.390625-5.34375 5.941406 18.671875 16.808594 18.671875-16.808594-5.34375-5.941406zm-20-39.816407c0-8.824218 7.175781-16 16-16s16 7.175782 16 16c0 8.824219-7.175781 16-16 16s-16-7.175781-16-16zm0 0" fill="#80d6fb"/><path d="m352 466.816406c14.9375 0 25.273438 13.183594 46.152344 13.183594 14.871094 0 32.96875-11.703125 32.96875-28.734375 0-52.746094-45.734375-79.113281-79.113282-79.113281-33.375 0-79.109374 26.367187-79.109374 79.113281 0 17.03125 18.085937 28.734375 32.96875 28.734375 20.863281 0 31.199218-13.183594 46.132812-13.183594zm0 0" fill="#6e83b7"/><path d="m268.074219 346.449219c9.445312 10.335937 18.992187 37.609375 8.65625 47.054687-10.335938 9.449219-36.640625-2.503906-46.089844-12.839844-9.449219-10.335937-8.726563-26.375 1.609375-35.824218 10.335938-9.445313 26.375-8.726563 35.824219 1.609375zm0 0" fill="#6e83b7"/><path d="m277.023438 319.371094c6.1875 17.117187 31.792968 44.597656 48.921874 38.414062 17.128907-6.183594 19.28125-43.679687 13.097657-60.808594-6.1875-17.121093-25.082031-25.992187-42.203125-19.808593-17.117188 6.183593-26 25.082031-19.816406 42.203125zm0 0" fill="#6e83b7"/><path d="m435.929688 346.449219c-9.449219 10.335937-18.992188 37.609375-8.65625 47.054687 10.335937 9.449219 36.640624-2.503906 46.089843-12.839844 9.445313-10.335937 8.726563-26.375-1.609375-35.824218-10.335937-9.445313-26.375-8.726563-35.824218 1.609375zm0 0" fill="#6e83b7"/><path d="m426.976562 319.371094c-6.183593 17.117187-31.792968 44.597656-48.917968 38.414062-17.128906-6.183594-19.28125-43.679687-13.097656-60.808594 6.183593-17.121093 25.082031-25.992187 42.199218-19.808593 17.121094 6.183593 26 25.082031 19.816406 42.203125zm0 0" fill="#6e83b7"/><path d="m376 408.800781c0-13.230469-10.765625-24-24-24-13.230469 0-24 10.769531-24 24 0 11.863281 8.671875 21.679688 20 23.59375v28.40625h8v-28.398437c11.328125-1.921875 20-11.738282 20-23.601563zm-24 16c-8.824219 0-16-7.175781-16-16s7.175781-16 16-16 16 7.175781 16 16-7.175781 16-16 16zm0 0" fill="#edeff1"/></svg>