<svg height="512" viewBox="0 0 512 512" width="512" xmlns="http://www.w3.org/2000/svg"><path d="m488 136v240h-112v112h-240v-112h-112v-240h112v-112h240v112z" fill="#6b9777"/><path d="m472 136v240h-112v112h-224v-112h-112v-240h112v-112h224v112z" fill="#85bc94"/><path d="m144 336h-8a30.739 30.739 0 0 1 -29.821-23.283l-10.179-40.717-5.3 5.3a52.9 52.9 0 0 0 -14.963 44.889 72.713 72.713 0 0 0 28.353 47.886 29.654 29.654 0 0 0 17.792 5.925h22.118z" fill="#744630"/><path d="m352 472-8 16h-208v-118.3a158.453 158.453 0 0 1 8.12-50.08l4.36-13.07a154.035 154.035 0 0 1 37.24-60.27l.59-.59a158.562 158.562 0 0 0 33.71-49.74c3.14-7.32 6.27-14.64 8.55-19.95 2.07-4.83 3.43-8 3.43-8h-23.02a32.037 32.037 0 0 1 -31.04-24.24l-3.94-15.76-1.03-4.12a16 16 0 0 1 15.52-19.88h27.51a68.355 68.355 0 0 1 29.69-37.02l3.5-2.09a62.405 62.405 0 0 1 59.98-2.31l.35.18a62.378 62.378 0 0 1 34.48 55.79v345.45z" fill="#f3af3e"/><path d="m180 488a36.04 36.04 0 0 1 -36-36v-6a36.174 36.174 0 0 1 14.4-28.8 44.206 44.206 0 0 0 17.6-35.2v-6a8 8 0 0 1 16 0v6a60.287 60.287 0 0 1 -24 48 20.1 20.1 0 0 0 -8 16v6a20 20 0 0 0 40 0v-4a24.028 24.028 0 0 1 24-24 8 8 0 0 1 0 16 8.009 8.009 0 0 0 -8 8v4a36.04 36.04 0 0 1 -36 36z" fill="#cd761f"/><path d="m352 472-8 16h-85.57a50.428 50.428 0 0 1 -50.43-50.43 96.685 96.685 0 0 1 3.73-26.62l1.19-4.16a102.115 102.115 0 0 1 45.67-59.54 21.7 21.7 0 0 0 8.23-8.89l13.18-26.36h-27.09a20.909 20.909 0 0 1 -20.91-20.91v-19.09h24l1.99-5.97a34.6 34.6 0 0 1 24.45-22.64l13.56-3.39v-24l23.37 17.53a45.346 45.346 0 0 1 13.45 16.12 105.866 105.866 0 0 1 11.18 47.34v167.01z" fill="#e08122"/><path d="m293.66 309.66-8 8a8.008 8.008 0 0 1 -5.66 2.34h-4l4-8h-27.09a20.841 20.841 0 0 1 -15.96-7.4 7.937 7.937 0 0 1 3.05-.6h36.69l5.65-5.66a8 8 0 0 1 11.32 11.32z" fill="#cd761f"/><path d="m312 384a8 8 0 0 0 -8 8v57.874a25.452 25.452 0 0 0 -9.6-1.874h-7.45l1.09-1.64a34.965 34.965 0 0 0 -29.1-54.36h-2.94a8 8 0 0 0 0 16h2.94a18.968 18.968 0 0 1 15.79 29.49l-9.39 14.07a8.009 8.009 0 0 0 6.66 12.44h22.4a9.615 9.615 0 0 1 9.6 9.6v14.4h16v-96a8 8 0 0 0 -8-8z" fill="#cd761f"/><path d="m344 120v22.7a24 24 0 0 1 -16.411 22.768 24 24 0 0 1 -15.178 0 24 24 0 0 1 -16.411-22.768v-38.7h32z" fill="#744630"/><g fill="#d18d28"><path d="m269.66 157.66-16 16a8.008 8.008 0 0 1 -5.66 2.34h-19.43c2.07-4.83 3.43-8 3.43-8h-23.02a31.863 31.863 0 0 1 -20.3-7.28 8.012 8.012 0 0 1 3.32-.72h52.69l13.65-13.66a8 8 0 1 1 11.32 11.32z"/><path d="m200 104v16a8 8 0 0 1 -8 8h-18l-1.03-4.12a16 16 0 0 1 15.52-19.88z"/><path d="m224.815 252.238a8 8 0 0 1 -6.393-12.8 147.62 147.62 0 0 0 21.988-41.968 8 8 0 0 1 15.18 5.06 163.6 163.6 0 0 1 -24.369 46.508 7.987 7.987 0 0 1 -6.406 3.2z"/><path d="m168 368a8 8 0 0 1 -8-8 128.8 128.8 0 0 1 25.6-76.8 8 8 0 1 1 12.8 9.6 112.7 112.7 0 0 0 -22.4 67.2 8 8 0 0 1 -8 8z"/><circle cx="256" cy="112" r="8"/></g><circle cx="288" cy="272" fill="#cd761f" r="8"/></svg>