<svg id="Capa_1" enable-background="new 0 0 512 512" height="512" viewBox="0 0 512 512" width="512" xmlns="http://www.w3.org/2000/svg"><g><path d="m467.002 2.297 42.701 42.701c2.813 2.813 3.074 7.286.609 10.407l-85.002 107.62-76.335-76.335 107.62-85.002c3.121-2.465 7.594-2.203 10.407.609z" fill="#695d69"/><path d="m509.703 44.998-42.701-42.701c-2.813-2.813-7.286-3.074-10.407-.609l-11.793 9.314 33.995 33.995c2.813 2.813 3.074 7.286.609 10.407l-71.364 90.352 17.267 17.267 85.002-107.619c2.466-3.12 2.204-7.593-.608-10.406z" fill="#564e57"/><path d="m389.721 47.557 75.075 75.075c6.377 6.377 6.924 14.087 1.506 21.296l-29.591 47.947-103.777 112.413-61.711 115.824-43.13 59.484-104.069-88.616-91.621-107.073 59.484-43.13 136.206-81.043 92.032-84.444 41.569-30.14 6.731-.819c7.208-5.419 14.919-3.151 21.296 3.226z" fill="#6fd8fd"/><path d="m468.918 121.468-78.386-78.386c-6.377-6.377-16.474-7.09-23.683-1.672l-5.156 3.738 76.319 76.319c6.377 6.377 7.089 16.474 1.671 23.683l-229.506 316.53 17.915 17.915 43.13-59.484 62.64-101.351 102.847-126.886 33.878-46.724c5.42-7.208 4.707-17.305-1.669-23.682z" fill="#28c1fd"/><path d="m2.297 325.105 184.598 184.598c3.063 3.063 8.029 3.063 11.092 0l30.106-30.106-195.69-195.69-30.106 30.106c-3.063 3.063-3.063 8.029 0 11.092z" fill="#695d69"/><path d="m173.244 496.052 13.651 13.651c3.063 3.063 8.029 3.063 11.092 0l30.106-30.106-17.916-17.916z" fill="#564e57"/><path d="m320.125 75.289-228.237 165.488 179.335 179.336 165.488-228.237z" fill="#e5edfc"/><path d="m271.223 420.112 54.369-74.984 111.119-153.252-17.916-17.916-165.487 228.237z" fill="#d1d9fc"/><ellipse cx="279.986" cy="232.014" fill="#6fd8fd" rx="92.243" ry="44.025" transform="matrix(.707 -.707 .707 .707 -82.052 265.936)"/><path d="m345.212 166.788c-7.906-7.906-21.305-8.932-36.969-4.249 2.265 1.092 4.306 2.492 6.064 4.249 17.193 17.193 1.928 60.333-34.095 96.356-19.458 19.458-40.987 32.844-59.387 38.345 19.888 9.588 57.952-6.004 90.293-38.345 36.022-36.023 51.287-79.163 34.094-96.356z" fill="#28c1fd"/></g></svg>