<svg height="480pt" viewBox="0 -40 480 480" width="480pt" xmlns="http://www.w3.org/2000/svg"><path d="m464 0h-448c-8.839844 0-16 7.160156-16 16v288c0 8.839844 7.160156 16 16 16h168v28.199219c0 12.730469-5.054688 24.9375-14.054688 33.945312l-1.945312 1.933594h-16v15.921875h176v-15.921875h-16l-1.9375-1.933594c-9.007812-9-14.0625-21.207031-14.0625-33.945312v-28.199219h168c8.839844 0 16-7.160156 16-16v-288c0-8.839844-7.160156-16-16-16zm0 0" fill="#6e83b7"/><path d="m184 320h112v17.335938h-112zm0 0" fill="#466089"/><path d="m16 16h448v256h-448zm0 0" fill="#edeff1"/><path d="m352 104h-76.257812v-72h-75.742188v72h-72v80h72v72h80v-72h72zm0 0" fill="#80d6fb"/><g fill="#6e83b7"><path d="m240 202.542969c9.800781 0 16.585938 8.65625 30.289062 8.65625 9.757813 0 21.632813-7.679688 21.632813-18.855469 0-34.617188-30.019531-51.917969-51.921875-51.917969s-51.921875 17.300781-51.921875 51.917969c0 11.175781 11.875 18.855469 21.632813 18.855469 13.703124 0 20.488281-8.65625 30.289062-8.65625zm0 0"/><path d="m184.921875 123.558594c6.199219 6.785156 12.460937 24.679687 5.679687 30.882812-6.785156 6.199219-24.050781-1.640625-30.25-8.425781-6.199218-6.785156-5.726562-17.3125 1.054688-23.511719 6.785156-6.199218 17.3125-5.726562 23.515625 1.054688zm0 0"/><path d="m190.800781 105.785156c4.054688 11.238282 20.863281 29.261719 32.101563 25.207032 11.242187-4.054688 12.648437-28.664063 8.59375-39.902344-4.054688-11.242188-16.457032-17.058594-27.695313-13-11.242187 4.0625-17.058593 16.460937-13 27.695312zm0 0"/><path d="m295.078125 123.558594c-6.199219 6.785156-12.460937 24.679687-5.679687 30.882812 6.785156 6.199219 24.050781-1.640625 30.25-8.425781 6.199218-6.785156 5.726562-17.3125-1.054688-23.511719-6.792969-6.199218-17.3125-5.726562-23.515625 1.054688zm0 0"/><path d="m289.199219 105.785156c-4.054688 11.238282-20.863281 29.261719-32.101563 25.207032-11.242187-4.054688-12.648437-28.664063-8.59375-39.902344 4.054688-11.242188 16.457032-17.058594 27.695313-13 11.242187 4.0625 17.058593 16.460937 13 27.695312zm0 0"/></g><path d="m16 264h448v8h-448zm0 0" fill="#d3d3d3"/></svg>