<svg height="512" viewBox="0 0 512 512" width="512" xmlns="http://www.w3.org/2000/svg"><path d="m352 286.08v41.92h-192v-41.92a48 48 0 0 1 16.76-36.45l12.54-10.74 26.7-22.89h80l26.7 22.89 12.54 10.74a48 48 0 0 1 16.76 36.45z" fill="#fd9226"/><path d="m322.7 238.89a71.946 71.946 0 0 1 -46.59 17.11h-40.22a71.946 71.946 0 0 1 -46.59-17.11l26.7-22.89h80z" fill="#e08122"/><path d="m240 80-5.287-13.219a92.873 92.873 0 0 0 -34.713-42.781 95.263 95.263 0 0 0 -16 52.844v27.156h56z" fill="#985713"/><path d="m272 80 5.287-13.219a92.873 92.873 0 0 1 34.713-42.781 95.263 95.263 0 0 1 16 52.844v27.156h-56z" fill="#985713"/><path d="m344.411 190.768a72 72 0 0 1 -68.306 49.232h-40.205a72 72 0 0 1 -68.306-49.232 72 72 0 0 1 0-45.536l16.406-49.232a53.9 53.9 0 0 1 44.844-24h54.312a53.9 53.9 0 0 1 44.844 24l16.411 49.232a72 72 0 0 1 0 45.536z" fill="#fd9226"/><circle cx="288" cy="136" fill="#985713" r="16"/><circle cx="224" cy="136" fill="#985713" r="16"/><path d="m273.152 217.62a23.348 23.348 0 0 1 -17.152-7.52 23.324 23.324 0 0 1 -27.578 5.055 8 8 0 1 1 7.156-14.31 7.315 7.315 0 0 0 10.24-4.319l2.561-8.023a8 8 0 0 1 15.242 0l2.561 8.023a7.315 7.315 0 0 0 10.24 4.319 8 8 0 1 1 7.156 14.31 23.3 23.3 0 0 1 -10.426 2.465z" fill="#e08122"/><g fill="#cbcbcb"><path d="m192 168a8 8 0 0 1 -2.2-.31l-56-16a8 8 0 1 1 4.4-15.384l56 16a8 8 0 0 1 -2.2 15.694z"/><path d="m192 192h-56a8 8 0 0 1 0-16h56a8 8 0 0 1 0 16z"/><path d="m144 232a8 8 0 0 1 -2.529-15.591l48-16a8 8 0 0 1 5.06 15.178l-48 16a7.988 7.988 0 0 1 -2.531.413z"/><path d="m320 168a8 8 0 0 1 -2.194-15.694l56-16a8 8 0 0 1 4.4 15.384l-56 16a8 8 0 0 1 -2.206.31z"/><path d="m376 192h-56a8 8 0 0 1 0-16h56a8 8 0 0 1 0 16z"/><path d="m368 232a7.992 7.992 0 0 1 -2.531-.413l-48-16a8 8 0 0 1 5.06-15.178l48 16a8 8 0 0 1 -2.529 15.591z"/></g><path d="m368 296-10.86 54.28a32 32 0 0 1 -31.37 25.72h-139.54a32 32 0 0 1 -31.37-25.72l-10.86-54.28h88l2.94 8.82a22.2 22.2 0 0 0 42.12 0l2.94-8.82z" fill="#428dc5"/><path d="m408 488h-304v-88l24-24h256l24 24z" fill="#dbdbdb"/><path d="m200 408h112v48h-112z" fill="#8aced8"/><path d="m200 408h104v40h-104z" fill="#a8d6da"/><circle cx="152" cy="432" fill="#fd9226" r="16"/><circle cx="360" cy="432" fill="#85bc94" r="16"/><path d="m240 313.19v1.87a20.944 20.944 0 0 1 -20.94 20.94h-6.12a20.944 20.944 0 0 1 -20.94-20.94v-19.06h40l2.94 8.82a22.037 22.037 0 0 0 5.06 8.37z" fill="#3775a4"/><path d="m320 296v19.06a20.944 20.944 0 0 1 -20.94 20.94h-6.12a20.944 20.944 0 0 1 -20.94-20.94v-1.87a22.037 22.037 0 0 0 5.06-8.37l2.94-8.82z" fill="#3775a4"/><path d="m228.422 317.789a20.944 20.944 0 0 1 -9.366 2.211h-6.112a20.944 20.944 0 0 1 -9.366-2.211 20.944 20.944 0 0 1 -11.578-18.733v-19.056a24 24 0 0 1 24-24 24 24 0 0 1 24 24v19.056a20.944 20.944 0 0 1 -11.578 18.733z" fill="#e08122"/><path d="m308.422 317.789a20.944 20.944 0 0 1 -9.366 2.211h-6.112a20.944 20.944 0 0 1 -9.366-2.211 20.944 20.944 0 0 1 -11.578-18.733v-19.056a24 24 0 0 1 24-24 24 24 0 0 1 24 24v19.056a20.944 20.944 0 0 1 -11.578 18.733z" fill="#e08122"/><circle cx="256" cy="256" fill="#fece2f" r="16"/><path d="m240 424h16v16h-16z" fill="#c0f5f9"/><path d="m272 424h16v16h-16z" fill="#c0f5f9"/><path d="m228.422 325.789a20.944 20.944 0 0 1 -9.366 2.211h-6.112a20.944 20.944 0 0 1 -9.366-2.211 20.944 20.944 0 0 1 -11.578-18.733v-19.056a24 24 0 0 1 24-24 24 24 0 0 1 24 24v19.056a20.944 20.944 0 0 1 -11.578 18.733z" fill="#fd9226"/><path d="m308.422 325.789a20.944 20.944 0 0 1 -9.366 2.211h-6.112a20.944 20.944 0 0 1 -9.366-2.211 20.944 20.944 0 0 1 -11.578-18.733v-19.056a24 24 0 0 1 24-24 24 24 0 0 1 24 24v19.056a20.944 20.944 0 0 1 -11.578 18.733z" fill="#fd9226"/><path d="m237.208 173.583a10.1 10.1 0 0 0 5.84 14.1l9.758 3.252a10.1 10.1 0 0 0 6.388 0l9.758-3.252a10.1 10.1 0 0 0 5.84-14.1 10.1 10.1 0 0 0 -9.034-5.583h-19.516a10.1 10.1 0 0 0 -9.034 5.583z" fill="#985713"/></svg>