<svg height="512" viewBox="0 0 512 512" width="512" xmlns="http://www.w3.org/2000/svg"><g id="Flat"><path d="m440 384h48a0 0 0 0 1 0 0v64a32 32 0 0 1 -32 32h-16a0 0 0 0 1 0 0v-96a0 0 0 0 1 0 0z" fill="#fdbf92"/><path d="m460.53 284.08-28.53-4.08-25.94-6.49a8 8 0 0 1 -6.06-7.76v-57.75h-64v57.75a8 8 0 0 1 -6.06 7.76l-25.94 6.49-28.53 4.08a31.994 31.994 0 0 0 -27.47 31.67v68.25h48v96h144v-96h48v-68.25a31.994 31.994 0 0 0 -27.47-31.67z" fill="#fdc8a2"/><path d="m248 384h48v96h-48z" fill="#fdbf92"/><path d="m488 315.75a31.994 31.994 0 0 0 -27.47-31.67l-28.53-4.08-64 56-64-56-28.53 4.08a31.994 31.994 0 0 0 -27.47 31.67v68.25h34.427a63.782 63.782 0 0 0 13.573 56v48h144v-48a63.771 63.771 0 0 0 13.564-56h34.436z" fill="#60d0df"/><g fill="#57becb"><path d="m448 488h-16v-48a8 8 0 0 1 1.875-5.146c15.237-18.135 17.772-43.368 6.308-62.788l13.777-8.134c14.421 24.427 11.949 55.759-5.96 78.89z"/><path d="m304 488h-16v-45.179c-13.457-17.394-18.444-39.872-13.344-60.721l15.541 3.8c-4.123 16.858.336 35.158 11.928 48.954a8 8 0 0 1 1.875 5.146z"/><path d="m328 352h16v16h-16z"/><path d="m360 392h16v96h-16z"/><path d="m328 472h16v16h-16z"/></g><path d="m400 208v32.51a72.1 72.1 0 0 1 -64 0v-32.51z" fill="#fdbf92"/><path d="m440 56h-24v32h8a16 16 0 0 1 16 16v88a48 48 0 0 0 48 48v-136a48 48 0 0 0 -48-48z" fill="#663723"/><path d="m368 232a72 72 0 0 1 -72-72v-56a64 64 0 0 1 64-64h16a64 64 0 0 1 64 64v56a72 72 0 0 1 -72 72z" fill="#fdc8a2"/><circle cx="324" cy="132" fill="#7a432a" r="12"/><circle cx="396" cy="132" fill="#7a432a" r="12"/><path d="m368 192a24.028 24.028 0 0 1 -24-24h16a8 8 0 0 0 16 0h16a24.028 24.028 0 0 1 -24 24z" fill="#fdb683"/><path d="m440 112h8a24 24 0 0 1 24 24 24 24 0 0 1 -24 24h-8a0 0 0 0 1 0 0v-48a0 0 0 0 1 0 0z" fill="#fdb683"/><path d="m367.132 296c-48.446-.47-87.132-40.67-87.132-89.118v-54.882a16 16 0 0 1 16-16v71.082c0 39.639 31.653 72.531 71.29 72.915a72.081 72.081 0 0 0 72.71-71.997v-80a16 16 0 0 1 16 16v64a88.1 88.1 0 0 1 -88.868 88z" fill="#348ed8"/><path d="m360 16a80 80 0 0 0 -80 80v56a236.208 236.208 0 0 0 93.4-72.092l18.6-23.908 2.713 6.782a94.1 94.1 0 0 0 45.287 49.218h16v-16a80 80 0 0 0 -80-80z" fill="#7a432a"/><path d="m208 408-32 8v-56l32 8z" fill="#348ed8"/><path d="m292 496a84.1 84.1 0 0 1 -84-84v-28h8a8 8 0 0 1 8 8v20a68 68 0 0 0 136 0v-124h16v124a84.1 84.1 0 0 1 -84 84z" fill="#348ed8"/><path d="m208 368h64l216 64v24a32 32 0 0 1 -32 32h-32l-160-72-56 8z" fill="#fdc8a2"/><path d="m144 386.667a32 32 0 0 0 -6.4-19.2l-17.6-23.467h-96v144h112v-16l8-32z" fill="#ffb431"/><path d="m152 240-5.942-14.856a40 40 0 0 0 -37.139-25.144h-44.919a40 40 0 0 0 -40 40v72h144a32 32 0 0 0 32-32v-40z" fill="#ffb431"/><circle cx="108" cy="244" fill="#7a432a" r="12"/><path d="m152 312a40.045 40.045 0 0 1 -40-40h16a24.028 24.028 0 0 0 24 24z" fill="#f99e0c"/><rect fill="#7a432a" height="32" rx="8" width="32" x="176" y="232"/><path d="m56 320a32.036 32.036 0 0 1 -32-32v-40h16v40a16 16 0 0 0 32 0v-40h16v40a32.036 32.036 0 0 1 -32 32z" fill="#f99e0c"/><path d="m24 312h96v32h-96z" fill="#d65246"/><path d="m168 448h-56l-32-64-32 32 40 72h104v-16a24 24 0 0 0 -24-24z" fill="#ffb431"/><path d="m80.007 486a8 8 0 0 1 -7.116-4.333l-32-62a8 8 0 0 1 14.218-7.338l32 62a8 8 0 0 1 -7.102 11.671z" fill="#f99e0c"/><path d="m144 456h-32a8 8 0 0 1 -7.155-4.422l-32-64a8 8 0 0 1 14.31-7.156l29.789 59.578h27.056a8 8 0 0 1 0 16z" fill="#f99e0c"/></g></svg>