<svg height="480pt" viewBox="0 -31 480 479" width="480pt" xmlns="http://www.w3.org/2000/svg"><path d="m32 .5h224c17.671875 0 32 14.328125 32 32v160c0 17.671875-14.328125 32-32 32h-169.335938l-46.664062 40v-40h-8c-17.671875 0-32-14.328125-32-32v-160c0-17.671875 14.328125-32 32-32zm0 0" fill="#80d6fb"/><path d="m224 136.5c-26.472656 0-48 21.527344-48 48v40h80c17.671875 0 32-14.328125 32-32v-56zm0 0" fill="#46bee8"/><path d="m448 152.5h-224c-17.671875 0-32 14.328125-32 32v160c0 17.671875 14.328125 32 32 32h169.335938l46.664062 40v-40h8c17.671875 0 32-14.328125 32-32v-160c0-17.671875-14.328125-32-32-32zm0 0" fill="#edeff1"/><g fill="#6e83b7"><path d="m297 309.804688c7.585938 0 12.832031 6.695312 23.433594 6.695312 7.550781 0 16.734375-5.945312 16.734375-14.59375 0-26.78125-23.222657-40.175781-40.175781-40.175781-16.953126 0-40.175782 13.394531-40.175782 40.175781 0 8.648438 9.183594 14.59375 16.734375 14.59375 10.617188 0 15.863281-6.695312 23.449219-6.695312zm0 0"/><path d="m254.382812 248.683594c4.800782 5.25 9.648438 19.097656 4.402344 23.894531-5.25 4.800781-18.609375-1.269531-23.410156-6.519531-4.800781-5.246094-4.429688-13.390625.816406-18.191406 5.25-4.800782 13.394532-4.429688 18.191406.816406zm0 0"/><path d="m258.929688 234.933594c3.132812 8.695312 16.140624 22.644531 24.839843 19.503906 8.695313-3.136719 9.789063-22.183594 6.644531-30.882812-3.132812-8.695313-12.734374-13.199219-21.429687-10.0625-8.695313 3.144531-13.199219 12.742187-10.054687 21.441406zm0 0"/><path d="m339.617188 248.683594c-4.800782 5.25-9.648438 19.097656-4.402344 23.894531 5.25 4.800781 18.609375-1.269531 23.410156-6.519531 4.800781-5.246094 4.429688-13.390625-.816406-18.191406-5.25-4.800782-13.394532-4.429688-18.191406.816406zm0 0"/><path d="m335.070312 234.933594c-3.132812 8.695312-16.140624 22.644531-24.839843 19.503906-8.695313-3.136719-9.789063-22.183594-6.644531-30.882812 3.132812-8.695313 12.734374-13.199219 21.429687-10.0625 8.695313 3.144531 13.199219 12.742187 10.054687 21.441406zm0 0"/><path d="m408 292.5h-16v-8c0-13.230469 10.769531-24 24-24 8.824219 0 16-7.175781 16-16s-7.175781-16-16-16h-16c-8.824219 0-16 7.175781-16 16h-16c0-17.648438 14.351562-32 32-32h16c17.648438 0 32 14.351562 32 32s-14.351562 32-32 32c-4.414062 0-8 3.59375-8 8zm0 0"/><path d="m392 300.5h16v16h-16zm0 0"/></g><path d="m200 80.5c0-34.609375-31.390625-61.878906-67.257812-54.902344-22.429688 4.367188-40.238282 22.832032-43.957032 45.382813-3.371094 20.441406 4.351563 39.207031 18.085938 51.367187 5.800781 5.136719 9.367187 12.335938 10.226562 20.039063l2.902344 26.113281h48l2.902344-26.105469c.851562-7.664062 4.355468-14.863281 10.128906-19.957031 11.625-10.25 18.96875-25.226562 18.96875-41.9375zm0 0" fill="#ffe352"/><path d="m120 168.5v16l8 16h32l8-16v-16zm0 0" fill="#edeff1"/><path d="m160 84.5c-6.535156 0-12.34375 3.152344-16 8.007812-3.65625-4.855468-9.464844-8.007812-16-8.007812-11.023438 0-20 8.976562-20 20s8.976562 20 20 20v-8c-6.617188 0-12-5.382812-12-12s5.382812-12 12-12 12 5.382812 12 12v64h8v-64c0-6.617188 5.382812-12 12-12s12 5.382812 12 12-5.382812 12-12 12v8c11.023438 0 20-8.976562 20-20s-8.976562-20-20-20zm0 0" fill="#ffb236"/></svg>