<svg id="Capa_1" enable-background="new 0 0 512 512" height="512" viewBox="0 0 512 512" width="512" xmlns="http://www.w3.org/2000/svg"><g><g><g><path d="m53.378 29.52v360.095l15.452 92.865h389.792v-360.095l-15.453-92.865z" fill="#e5edfc"/><path d="m427.717 29.52h30.905v452.959h-30.905z" fill="#d1d9fc"/><path d="m458.622 29.52h-45.149l-360.095 360.095v92.865h45.149l360.095-360.095z" fill="#ffc344"/><path d="m53.378 30.905h405.244v75.289h-405.244z" fill="#d1d9fc"/><path d="m412.088 30.905-75.289 75.289h83.707c3.983 0 7.211 3.229 7.211 7.211v39.884l30.905-30.905v-91.479z" fill="#feb237"/><path d="m468.733 75.289h-425.466c-5.523 0-10-4.477-10-10v-55.289c0-5.523 4.477-10 10-10h425.465c5.523 0 10 4.477 10 10v55.289c.001 5.523-4.476 10-9.999 10z" fill="#ffe177"/><path d="m468.431 0h-30.905c5.69 0 10.302 4.612 10.302 10.302v54.686c0 5.689-4.612 10.302-10.302 10.302h30.905c5.69 0 10.302-4.612 10.302-10.302v-54.686c0-5.69-4.613-10.302-10.302-10.302z" fill="#ffd15b"/></g><path d="m468.733 512h-425.466c-5.523 0-10-4.477-10-10v-55.289c0-5.523 4.477-10 10-10h425.465c5.523 0 10 4.477 10 10v55.289c.001 5.523-4.476 10-9.999 10z" fill="#ffe177"/><path d="m468.431 436.711h-30.905c5.69 0 10.302 4.612 10.302 10.302v54.686c0 5.69-4.612 10.302-10.302 10.302h30.905c5.69 0 10.302-4.612 10.302-10.302v-54.686c0-5.69-4.613-10.302-10.302-10.302z" fill="#ffd15b"/><circle cx="253.425" cy="256" fill="#ffe177" r="141.135"/><path d="m253.425 114.865c-5.223 0-10.377.293-15.453.846 70.676 7.698 125.682 67.566 125.682 140.289s-55.007 132.592-125.682 140.289c5.076.553 10.23.846 15.453.846 77.947 0 141.135-63.188 141.135-141.135s-63.189-141.135-141.135-141.135z" fill="#ffd15b"/><g><path d="m219.144 311.521c3.211-8.878 10.784-15.548 20.051-17.356 21.594-4.214 42.209-14.678 58.937-31.406 24.904-24.904 35.94-58.421 33.115-90.962-.175-2.015-1.769-3.609-3.784-3.784-32.541-2.825-66.058 8.211-90.962 33.115-16.728 16.728-27.192 37.343-31.406 58.937-1.808 9.267-8.478 16.84-17.356 20.051l-26.871 9.719c-6.286 2.274-8.076 10.311-3.35 15.038l36.869 36.869c4.727 4.727 12.764 2.937 15.038-3.35z" fill="#ffc344"/></g></g><circle cx="299.12" cy="199.992" fill="#564e57" r="7.5"/></g></svg>