<svg height="480pt" viewBox="0 -48 480 480" width="480pt" xmlns="http://www.w3.org/2000/svg"><path d="m240 264h200v-128l-18.734375-37.464844c-8.128906-16.261718-24.753906-26.535156-42.929687-26.535156h-2.855469c-14.816407 0-28.792969-6.839844-37.886719-18.527344l-27.179688-34.9375c-9.09375-11.695312-23.078124-18.535156-37.894531-18.535156h-65.039062c-14.816407 0-28.792969 6.839844-37.886719 18.527344l-27.179688 34.9375c-9.09375 11.695312-23.078124 18.535156-37.894531 18.535156h-2.855469c-18.183593 0-34.800781 10.273438-42.9375 26.535156l-18.726562 37.464844v128zm0 0" fill="#6e83b7"/><path d="m56 248v-108.222656l17.046875-34.089844c5.457031-10.910156 16.417969-17.6875 28.617187-17.6875h2.855469c19.894531 0 38.3125-9.007812 50.519531-24.710938l27.167969-34.9375c6.113281-7.847656 15.320313-12.351562 25.273438-12.351562h65.046875c9.953125 0 19.160156 4.503906 25.257812 12.351562l27.175782 34.9375c12.207031 15.703126 30.613281 24.710938 50.519531 24.710938h2.855469c12.199218 0 23.167968 6.777344 28.617187 17.6875l17.046875 34.089844v108.222656zm0 0" fill="#edeff1"/><path d="m414.191406 120.160156c-20.511718.847656-38.535156 14.792969-44.207031 34.648438l-9.632813 33.726562c-44.992187-11.039062-96.398437-12.535156-120.351562-12.535156s-75.359375 1.496094-120.351562 12.535156l-9.632813-33.726562c-5.671875-19.855469-23.695313-33.800782-44.207031-34.648438l-9.808594 19.617188v124.222656h368v-124.222656zm0 0" fill="#d3d3d3"/><path d="m240 264h152v-48c-43-20-113.527344-24-152-24s-109 4-152 24v48zm0 0" fill="#edeff1"/><g fill="#6e83b7"><path d="m240 384c96.992188 0 160.121094-14.6875 197.167969-27.816406 25.640625-9.085938 42.832031-33.207032 42.832031-60.414063v-127.769531c0-17.671875-14.328125-32-32-32h-31.863281c-14.289063 0-26.839844 9.472656-30.769531 23.207031l-17.976563 62.929688c-4.878906 17.078125-18.734375 30.207031-36.132813 33.757812-19.746093 4.035157-49.90625 8.105469-91.257812 8.105469s-71.511719-4.070312-91.257812-8.105469c-17.398438-3.550781-31.253907-16.6875-36.132813-33.757812l-17.976563-62.929688c-3.929687-13.734375-16.480468-23.207031-30.769531-23.207031h-31.863281c-17.671875 0-32 14.328125-32 32v127.769531c0 27.207031 17.191406 51.328125 42.832031 60.414063 37.046875 13.128906 100.175781 27.816406 197.167969 27.816406zm0 0"/><path d="m240 129.304688c7.585938 0 12.832031 6.695312 23.433594 6.695312 7.550781 0 16.734375-5.945312 16.734375-14.59375 0-26.78125-23.222657-40.175781-40.175781-40.175781-16.953126 0-40.175782 13.394531-40.175782 40.175781 0 8.648438 9.183594 14.59375 16.734375 14.59375 10.617188 0 15.863281-6.695312 23.449219-6.695312zm0 0"/><path d="m197.382812 68.183594c4.800782 5.25 9.648438 19.097656 4.402344 23.894531-5.25 4.800781-18.609375-1.269531-23.410156-6.519531-4.800781-5.246094-4.429688-13.390625.816406-18.191406 5.25-4.800782 13.394532-4.429688 18.191406.816406zm0 0"/><path d="m201.929688 54.433594c3.132812 8.695312 16.140624 22.644531 24.839843 19.503906 8.695313-3.136719 9.789063-22.183594 6.644531-30.882812-3.140624-8.695313-12.734374-13.199219-21.429687-10.0625-8.695313 3.144531-13.199219 12.742187-10.054687 21.441406zm0 0"/><path d="m282.617188 68.183594c-4.800782 5.25-9.648438 19.097656-4.402344 23.894531 5.25 4.800781 18.609375-1.269531 23.410156-6.519531 4.800781-5.246094 4.429688-13.390625-.816406-18.191406-5.25-4.800782-13.394532-4.429688-18.191406.816406zm0 0"/><path d="m278.070312 54.433594c-3.132812 8.695312-16.140624 22.644531-24.839843 19.503906-8.695313-3.136719-9.789063-22.183594-6.644531-30.882812 3.132812-8.695313 12.734374-13.199219 21.429687-10.0625 8.695313 3.136718 13.199219 12.742187 10.054687 21.441406zm0 0"/></g></svg>