<svg id="Capa_1" enable-background="new 0 0 512 512" height="512" viewBox="0 0 512 512" width="512" xmlns="http://www.w3.org/2000/svg"><g><g><g><g><path d="m185.766 77.264c0 8.534-6.919 15.453-15.453 15.453h-117.186c-8.534 0-15.453-6.919-15.453-15.453s6.919-15.453 15.453-15.453h117.186c8.534 0 15.453 6.918 15.453 15.453z" fill="#6fd8fd"/></g><g><path d="m185.766 139.074c0 8.534-6.919 15.453-15.453 15.453h-117.186c-8.534 0-15.453-6.919-15.453-15.453s6.919-15.453 15.453-15.453h117.186c8.534.001 15.453 6.919 15.453 15.453z" fill="#6fd8fd"/></g><g><path d="m185.766 200.885c0 8.534-6.919 15.453-15.453 15.453h-117.186c-8.534 0-15.453-6.919-15.453-15.453s6.919-15.453 15.453-15.453h117.186c8.534.001 15.453 6.919 15.453 15.453z" fill="#6fd8fd"/></g><g><path d="m185.766 262.696c0 8.534-6.919 15.453-15.453 15.453h-117.186c-8.534 0-15.453-6.919-15.453-15.453s6.919-15.453 15.453-15.453h117.186c8.534 0 15.453 6.919 15.453 15.453z" fill="#6fd8fd"/></g><g><path d="m185.766 15.453c0 8.534-6.919 15.453-15.453 15.453h-117.186c-8.534 0-15.453-6.919-15.453-15.453s6.919-15.453 15.453-15.453h117.186c8.534 0 15.453 6.919 15.453 15.453z" fill="#6fd8fd"/></g><path d="m74.173 4v472c0 19.882-16.118 36-36 36h-2.173c-19.882 0-36-16.118-36-36v-424.43c0-28.481 23.089-51.57 51.57-51.57h18.603c2.209 0 4 1.791 4 4z" fill="#6fd8fd"/><path d="m70.052 0h-16.925c-3.811 0-7.525.409-11.108 1.172.769.748 1.249 1.791 1.249 2.949v470.793c0 14.966-8.869 27.852-21.634 33.712 4.705 2.16 9.936 3.374 15.453 3.374 20.482 0 37.087-16.604 37.087-37.087v-470.792c-.001-2.276-1.846-4.121-4.122-4.121z" fill="#28c1fd"/></g><g><g><path d="m511.735 423.436c-2.93-36.564-28.589-63.682-60.129-72.463-20.316-5.657-37.188-19.761-45.585-39.034l-135.299-310.579c-.499-1.144-1.834-1.67-2.984-1.173l-11.333 4.897c-18.448 7.971-26.914 29.325-18.911 47.697l134.435 308.593c1.793 4.115.997 8.923-2.1 12.18-15.697 16.51-24.485 39.408-22.236 63.9 4.016 43.735 42.575 76.882 86.603 74.417 46.341-2.594 81.21-42.617 77.539-88.435z" fill="#e5edfc"/><path d="m511.735 423.436c-2.93-36.564-28.589-63.682-60.129-72.463-20.316-5.656-37.188-19.761-45.585-39.034l-135.299-310.579c-.499-1.145-1.835-1.67-2.984-1.173l-11.333 4.897c-6.361 2.748-11.535 7.09-15.257 12.35l4.153-1.794c1.149-.496 2.485.029 2.983 1.173l135.3 310.579c8.396 19.273 25.268 33.377 45.585 39.034 31.539 8.781 57.198 35.899 60.129 72.463 2.031 25.35-7.75 48.912-24.73 65.357 30.201-14.098 49.976-45.746 47.167-80.81z" fill="#d1d9fc"/><ellipse cx="429.623" cy="429.962" fill="#fff" rx="37.683" ry="37.529"/></g><g><path d="m405.018 5.084-11.333-4.897c-1.149-.497-2.485.029-2.984 1.173l-135.701 311.502c-8.21 18.845-24.792 32.534-44.691 37.941-31.656 8.601-57.656 35.647-60.62 72.633-3.672 45.818 31.199 85.842 77.539 88.435 44.028 2.464 82.585-30.682 86.602-74.416 2.249-24.493-6.537-47.393-22.234-63.904-3.097-3.257-3.892-8.065-2.1-12.18l41.017-94.155 11.98-44.809 16.367-20.261 65.069-149.365c8.004-18.372-.463-39.726-18.911-47.697z" fill="#e5edfc"/><path d="m423.929 52.781c8.004-18.372-.463-39.727-18.911-47.697l-11.333-4.897c-1.149-.496-2.485.029-2.984 1.173l-5.062 11.62c10.045 10.225 13.453 25.868 7.384 39.8l-134.433 308.591c-1.793 4.115-.997 8.923 2.1 12.18 15.697 16.511 24.484 39.411 22.234 63.904-3.391 36.926-31.407 66.302-66.549 73.07 3.539.668 7.154 1.138 10.853 1.346 44.028 2.464 82.586-30.683 86.602-74.416 2.25-24.493-6.537-47.393-22.234-63.904-3.097-3.257-3.892-8.065-2.1-12.18z" fill="#d1d9fc"/><ellipse cx="231.801" cy="429.962" fill="#fff" rx="37.683" ry="37.529"/></g></g></g><circle cx="330.513" cy="202.146" fill="#564e57" r="7.726"/></g></svg>