<svg id="Capa_1" enable-background="new 0 0 512 512" height="512" viewBox="0 0 512 512" width="512" xmlns="http://www.w3.org/2000/svg"><g><g><path d="m374.465 0c-25.504 0-46.178 21.211-46.178 47.377v174.263l7.531 194.247c0 8.255.471 10.371 7.835 13.698l-3.249 5.179c7.364 3.327 18.608 3.773 18.608 12.028v32.578c0 12.434 3.333 19.818 15.453 19.818v5.991c12.119 0 12.511-2.314 12.511-14.748l2.852-38.253c0-8.255-2.842-13.264 4.522-16.592l2.411-4.248c7.364-3.327 13.72-7.197 13.72-15.453l10.163-194.247v-174.263c-.001-26.164-20.675-47.375-46.179-47.375z" fill="#e5edfc"/><path d="m420.643 221.64v-174.263c0-26.166-20.674-47.377-46.178-47.377-5.421 0-10.62.967-15.453 2.727 17.902 6.522 30.725 24.046 30.725 44.649v100.729h-61.451v43.073h54.239c3.983 0 7.211 3.229 7.211 7.211v23.251z" fill="#d1d9fc"/><path d="m427.666 160.273h-106.402c-3.845 0-6.962-2.97-6.962-6.634v-29.804c0-3.664 3.117-6.634 6.962-6.634h106.402c3.845 0 6.962 2.97 6.962 6.634v29.804c.001 3.663-3.116 6.634-6.962 6.634z" fill="#695d69"/><path d="m427.667 117.2h-30.905c3.845 0 6.962 2.97 6.962 6.634v29.804c0 3.664-3.117 6.634-6.962 6.634h30.905c3.845 0 6.962-2.97 6.962-6.634v-29.804c0-3.664-3.117-6.634-6.962-6.634z" fill="#564e57"/><path d="m328.287 221.64v194.065c0 8.255 4.753 15.731 12.117 19.059 7.364 3.327 12.117 10.803 12.117 19.059v35.663c0 6.217 2.456 11.845 6.427 15.92 3.971 4.074 9.457 2.484 15.517 2.484l4.881-4.305c12.119 0 7.63-.719 7.63-13.153l2.852-38.253c0-8.256-2.842-13.264 4.522-16.592l5.128-8.546c7.364-3.327 11.002-2.899 11.002-11.154l10.163-194.247z" fill="#fd4755"/><path d="m389.738 415.706c0 8.255-4.753 15.731-12.117 19.059-7.364 3.327-12.117 10.803-12.117 19.059v35.663c0 6.25-2.483 11.903-6.491 15.982 1.487 1.514 3.184 2.81 5.043 3.84h.001c.619.343 1.256.656 1.908.938.002.001.004.001.006.002.651.281 1.318.53 1.999.747.005.002.01.003.015.004.679.215 1.372.398 2.078.546l.015.003c.706.147 1.424.26 2.153.336.005 0 .01.001.014.001.73.075 1.471.114 2.221.114 12.119 0 21.944-10.08 21.944-22.514v-35.663c0-8.256 4.753-15.731 12.117-19.059 7.364-3.327 12.117-10.803 12.117-19.059v-194.065h-30.905v194.066z" fill="#fb2b3a"/></g><path d="m223.172 157.705v-29.027h-111.722v29.027c0 11.392-6.664 21.731-17.04 26.436-10.375 4.705-17.04 15.044-17.04 26.436v270.518c0 17.069 13.837 30.905 30.905 30.905h118.07c17.069 0 30.905-13.837 30.905-30.905v-270.519c0-11.392-6.664-21.731-17.04-26.436-10.373-4.704-17.038-15.043-17.038-26.435z" fill="#e5edfc"/><path d="m111.45 97.772 51.139 15.453 60.583-15.453v-41.911c0-30.851-25.009-55.861-55.861-55.861-30.851 0-55.861 25.01-55.861 55.861z" fill="#695d69"/><path d="m167.311 0c-5.363 0-10.543.771-15.453 2.182 23.331 6.705 40.408 28.191 40.408 53.679v41.911h30.905v-41.911c.002-30.851-25.009-55.861-55.86-55.861z" fill="#564e57"/><path d="m240.373 184.214c-10.405-4.795-17.201-15.053-17.201-26.51v-13.574h-30.905-80.817v13.574c0 6.375-2.09 12.419-5.746 17.331h61.939c14.286 0 28.452 2.96 41.405 8.986.095.044.189.087.285.13 10.371 4.69 17.013 15.042 17.013 26.424v270.518c0 17.069-13.837 30.905-30.905 30.905h30.905c17.069 0 30.905-13.837 30.905-30.905v-270.517c0-11.333-6.594-21.624-16.878-26.362z" fill="#d1d9fc"/><path d="m99.129 97.772h136.366c3.983 0 7.211 3.229 7.211 7.211v31.936c0 3.983-3.229 7.211-7.211 7.211h-136.366c-3.983 0-7.211-3.229-7.211-7.211v-31.936c-.001-3.982 3.228-7.211 7.211-7.211z" fill="#e5edfc"/><path d="m235.494 97.772h-30.905c3.983 0 7.211 3.229 7.211 7.211v31.936c0 3.983-3.229 7.211-7.211 7.211h30.905c3.983 0 7.211-3.229 7.211-7.211v-31.936c0-3.982-3.228-7.211-7.211-7.211z" fill="#d1d9fc"/><path d="m216.346 358.545h-98.07c-5.523 0-10-4.477-10-10v-84.09c0-5.523 4.477-10 10-10h98.07c5.523 0 10 4.477 10 10v84.09c0 5.523-4.477 10-10 10z" fill="#fd4755"/><path d="m216.044 254.455h-30.905c5.69 0 10.302 4.612 10.302 10.302v83.486c0 5.689-4.612 10.302-10.302 10.302h30.905c5.69 0 10.302-4.612 10.302-10.302v-83.486c0-5.69-4.612-10.302-10.302-10.302z" fill="#fb2b3a"/><g><path d="m226.346 431.34h-118.069c-4.268 0-7.726-3.459-7.726-7.726s3.459-7.726 7.726-7.726h118.069c4.268 0 7.726 3.459 7.726 7.726s-3.458 7.726-7.726 7.726z" fill="#695d69"/></g><g><path d="m226.346 462.245h-118.069c-4.268 0-7.726-3.459-7.726-7.726s3.459-7.726 7.726-7.726h118.069c4.268 0 7.726 3.459 7.726 7.726s-3.458 7.726-7.726 7.726z" fill="#695d69"/></g></g></svg>