<svg height="480pt" viewBox="0 0 480 480" width="480pt" xmlns="http://www.w3.org/2000/svg"><path d="m240 56-208 136v288h416v-288zm0 0" fill="#edeff1"/><path d="m240 56-208 136v40l208-136 208 136v-40zm0 0" fill="#d3d3d3"/><path d="m240 0-240 152v72l240-160 240 160v-72zm0 0" fill="#6e83b7"/><path d="m96 304c0-79.527344 64.472656-144 144-144s144 64.472656 144 144v176h-288zm0 0" fill="#80d6fb"/><path d="m240 357.335938h-82.136719v31.585937c0 3.796875.730469 7.566406 2.136719 11.085937l3.40625 8.527344c5.671875 14.167969 19.402344 23.464844 34.671875 23.464844h83.84375c15.261719 0 28.988281-9.296875 34.664063-23.472656l3.414062-8.519532c1.40625-3.527343 2.136719-7.296874 2.136719-11.085937v-31.585937zm0 0" fill="#edeff1"/><path d="m157.863281 357.335938v31.585937c0 1.070313.074219 2.140625.191407 3.207031 4.625 1.613282 9.578124 2.542969 14.746093 2.542969h37.335938c12.214843 0 23.046875-5.929687 29.863281-15.023437 6.816406 9.105468 17.648438 15.023437 29.863281 15.023437h37.335938c5.167969 0 10.121093-.929687 14.746093-2.542969.109376-1.066406.191407-2.136718.191407-3.207031v-31.585937zm0 0" fill="#d3d3d3"/><path d="m240 413.335938c-12.367188 0-22.398438-10.03125-22.398438-22.398438v-37.335938h44.796876v37.335938c0 12.367188-10.03125 22.398438-22.398438 22.398438zm0 0" fill="#ffb0aa"/><path d="m240 357.335938h-22.398438v33.601562c0 .972656.085938 1.933594.207032 2.878906 9.015625-1.90625 16.847656-7.039062 22.191406-14.175781 5.34375 7.136719 13.175781 12.269531 22.191406 14.175781.121094-.945312.207032-1.90625.207032-2.878906v-33.601562zm0 0" fill="#ff7b7b"/><path d="m269.863281 226.664062c0-10.3125 8.359375-18.664062 18.664063-18.664062h.671875c8.417969 0 15.792969 5.632812 18.007812 13.753906l16.015625 58.726563c1.746094 6.398437 2.632813 13.007812 2.632813 19.648437v19.871094h-56v-93.335938zm0 0" fill="#466089"/><path d="m210.136719 226.664062c0-10.3125-8.359375-18.664062-18.664063-18.664062h-.671875c-8.417969 0-15.792969 5.632812-18.007812 13.753906l-16.015625 58.726563c-1.746094 6.398437-2.632813 13.007812-2.632813 19.648437v19.871094h56v-93.335938zm0 0" fill="#466089"/><path d="m304 282.382812-7.984375-37.933593c-2.183594-10.371094-11.328125-17.785157-21.917969-17.785157h-3.53125c5.472656-6.367187 3.859375-18.664062-8.167968-18.664062-6.039063 0-11.390626 2.96875-15.671876 6.527344-1.335937-3.664063-4.679687-6.527344-10.460937-6.527344-15.167969 0-26.136719 18.664062-26.136719 18.664062h-4.226562c-10.589844 0-19.734375 7.414063-21.917969 17.785157l-7.984375 37.933593c-2.128906 10.121094-3.199219 20.425782-3.199219 30.769532v47.917968h134.398438v-47.917968c0-10.34375-1.070313-20.648438-3.199219-30.769532zm0 0" fill="#6e83b7"/><path d="m307.199219 387.199219h-37.335938c-16.496093 0-29.863281-13.367188-29.863281-29.863281v-44.800782h67.199219c20.617187 0 37.335937 16.710938 37.335937 37.335938 0 20.617187-16.71875 37.328125-37.335937 37.328125zm0 0" fill="#edeff1"/><path d="m172.800781 387.199219h37.335938c16.496093 0 29.863281-13.367188 29.863281-29.863281v-44.800782h-67.199219c-20.617187 0-37.335937 16.710938-37.335937 37.335938 0 20.617187 16.71875 37.328125 37.335937 37.328125zm0 0" fill="#edeff1"/><g fill="#d3d3d3"><path d="m240 305.0625h-14.9375c-8.246094 0-14.933594 6.691406-14.933594 14.9375v2.824219c0 2.96875 1.175782 5.816406 3.277344 7.917969l7.28125 7.28125c2.800781 2.800781 6.601562 4.375 10.558594 4.375h17.496094c3.960937 0 7.761718-1.574219 10.5625-4.375l7.28125-7.28125c2.101562-2.101563 3.277343-4.949219 3.277343-7.917969v-2.824219c0-8.246094-6.6875-14.9375-14.933593-14.9375zm0 0"/><path d="m350.714844 312.460938 2.535156 7.589843-56 18.683594-2.53125-7.589844zm0 0"/><path d="m297.261719 361.015625 56.003906 18.664063-2.53125 7.589843-56-18.664062zm0 0"/><path d="m296 345.863281h56v8h-56zm0 0"/><path d="m129.285156 312.472656 56.003906 18.667969-2.527343 7.589844-56.003907-18.667969zm0 0"/><path d="m182.722656 360.992188 2.535156 7.585937-56 18.683594-2.53125-7.585938zm0 0"/><path d="m128 345.863281h56v8h-56zm0 0"/></g></svg>