<svg height="480pt" viewBox="0 -31 480 479" width="480pt" xmlns="http://www.w3.org/2000/svg"><path d="m456 208.5-28.6875-100.390625c-1.960938-6.875-8.242188-11.609375-15.382812-11.609375h-343.859376c-7.140624 0-13.421874 4.734375-15.382812 11.609375l-28.6875 100.390625h-8c-8.839844 0-16 7.160156-16 16v32h480v-32c0-8.839844-7.160156-16-16-16zm0 0" fill="#edeff1"/><g fill="#d3d3d3"><path d="m240 208.5c-8.839844 0-16-7.160156-16-16v-64c0-8.839844 7.160156-16 16-16s16 7.160156 16 16v64c0 8.839844-7.160156 16-16 16zm0 0"/><path d="m304 208.5c-8.839844 0-16-7.160156-16-16v-64c0-8.839844 7.160156-16 16-16s16 7.160156 16 16v64c0 8.839844-7.160156 16-16 16zm0 0"/><path d="m368 208.5c-8.839844 0-16-7.160156-16-16v-64c0-8.839844 7.160156-16 16-16s16 7.160156 16 16v64c0 8.839844-7.160156 16-16 16zm0 0"/><path d="m176 208.5c8.839844 0 16-7.160156 16-16v-64c0-8.839844-7.160156-16-16-16s-16 7.160156-16 16v64c0 8.839844 7.160156 16 16 16zm0 0"/><path d="m112 208.5c8.839844 0 16-7.160156 16-16v-64c0-8.839844-7.160156-16-16-16s-16 7.160156-16 16v64c0 8.839844 7.160156 16 16 16zm0 0"/></g><path d="m424 256.5v-8c0-4.414062-3.585938-8-8-8h-32c-4.414062 0-8 3.585938-8 8v8h-112v-8c0-4.414062-3.585938-8-8-8h-32c-4.414062 0-8 3.585938-8 8v8h-112v-8c0-4.414062-3.585938-8-8-8h-32c-4.414062 0-8 3.585938-8 8v8h-56v32c0 8.839844 7.160156 16 16 16h8l28.6875 100.390625c1.960938 6.875 8.242188 11.609375 15.382812 11.609375h343.867188c7.140625 0 13.421875-4.734375 15.382812-11.609375l28.679688-100.390625h8c8.839844 0 16-7.160156 16-16v-32zm0 0" fill="#6e83b7"/><path d="m192 96.5h-64c0-8.839844 7.160156-16 16-16h32c8.839844 0 16 7.160156 16 16zm0 0" fill="#d3d3d3"/><path d="m288 96.5h64c0-8.839844-7.160156-16-16-16h-32c-8.839844 0-16 7.160156-16 16zm0 0" fill="#d3d3d3"/><path d="m144 32.5v48h32v-48h128v48h32v-48c0-17.671875-14.328125-32-32-32h-128c-17.671875 0-32 14.328125-32 32zm0 0" fill="#6e83b7"/><path d="m26.289062 312.5h427.421876l2.289062-8h-432zm0 0" fill="#466089"/></svg>