<svg id="Capa_1" enable-background="new 0 0 512 512" height="512" viewBox="0 0 512 512" width="512" xmlns="http://www.w3.org/2000/svg"><g><g><path d="m408.747 432.805-304.919 2.69c-56.895 0-82.508-32.787-82.508-89.682l-21.32-115.568v-103.74c0-36.583 29.656-66.239 66.239-66.239h379.522c36.583 0 66.239 29.656 66.239 66.239v103.741l-23.435 110.744c0 56.895-22.922 91.815-79.818 91.815z" fill="#bef8a8"/><path d="m445.761 60.266h-30.905c36.583 0 66.239 29.656 66.239 66.239v222.212c0 56.895-46.123 103.018-103.018 103.018h30.905c56.895 0 103.018-46.123 103.018-103.018v-87.565l-8.264-13.27 8.264-17.637v-103.74c0-36.583-29.656-66.239-66.239-66.239z" fill="#a0e38b"/><path d="m103.018 389.924c-39.763 0-72.113-32.35-72.113-72.113v-191.306c0-19.483 15.851-35.334 35.334-35.334h379.522c19.483 0 35.333 15.851 35.333 35.334v191.306c0 39.763-32.35 72.113-72.113 72.113z" fill="#fff"/><path d="m409.467 450.611-31.391 1.123h-275.058c-56.895 0-103.018-46.122-103.018-103.018v-118.471h116.926c17.069 0 30.905 13.837 30.905 30.905v46.358c0 17.069 13.837 30.905 30.905 30.905h154.527c17.069 0 30.905-13.837 30.905-30.905v-46.358c0-17.069 13.837-30.905 30.905-30.905h116.927l-9.369 30.905 1.506 90.154c-.001 56.896-37.774 99.307-94.67 99.307z" fill="#bef8a8"/><g><path d="m481.095 230.245v118.471c0 56.895-46.123 103.018-103.018 103.018h30.905c56.895 0 103.018-46.123 103.018-103.018v-87.565l-7.228-30.905h-23.677z" fill="#a0e38b"/></g><path d="m395.074 230.245c-17.069 0-30.905 13.837-30.905 30.905v46.358c0 17.069-13.837 30.905-30.905 30.905h-154.528c-17.069 0-30.905-13.837-30.905-30.905v-46.358c0-17.069-13.837-30.905-30.905-30.905h-116.926v30.905h112.805c2.276 0 4.121 1.845 4.121 4.121v42.237c0 34.137 27.674 61.811 61.811 61.811h154.527c34.137 0 61.811-27.674 61.811-61.811v-42.237c0-2.276 1.845-4.121 4.121-4.121h112.804v-30.905z" fill="#8fd674"/><path d="m481.095 230.245h30.905v30.905h-30.905z" fill="#78c159"/></g><path d="m206.99 189.983h88.551c2.129 0 3.964 1.518 4.269 3.585 1.924 13.058 13.286 23.118 27.082 23.296 15.143.195 27.793-11.781 28.113-26.64.133-6.184-1.837-11.909-5.254-16.539-1.09-1.477-1.09-3.474 0-4.95 3.417-4.63 5.387-10.355 5.254-16.539-.319-14.859-12.969-26.835-28.113-26.64-13.796.178-25.158 10.238-27.082 23.296-.305 2.068-2.14 3.585-4.269 3.585h-88.552c-2.129 0-3.964-1.518-4.269-3.585-1.924-13.058-13.286-23.118-27.082-23.296-15.143-.195-27.793 11.781-28.113 26.64-.133 6.184 1.837 11.909 5.254 16.539 1.09 1.477 1.09 3.474 0 4.95-3.417 4.63-5.387 10.355-5.254 16.539.319 14.859 12.969 26.835 28.113 26.64 13.796-.178 25.158-10.238 27.082-23.296.306-2.067 2.141-3.585 4.27-3.585z" fill="#a0e38b"/></g></svg>