<svg height="480pt" viewBox="0 -72 480 480" width="480pt" xmlns="http://www.w3.org/2000/svg"><path d="m480 292.574219v27.425781c0 8.839844-7.160156 16-16 16h-448c-8.839844 0-16-7.160156-16-16v-27.425781c0-3.039063.289062-6.078125.863281-9.0625l34.144531-177.550781c2.894532-15.074219 16.082032-25.960938 31.425782-25.960938h347.132812c15.34375 0 28.53125 10.886719 31.425782 25.960938l34.144531 177.550781c.574219 2.984375.863281 6.015625.863281 9.0625zm0 0" fill="#6e83b7"/><g fill="#466089"><path d="m444.71875 293.28125-26.398438-152c-1.359374-7.679688-8-13.28125-15.761718-13.28125h-122.558594v8c0 8.800781-7.199219 16-16 16h-47.761719c-8.796875 0-16-7.199219-16-16v-8h-122.796875c-7.761718 0-14.402344 5.601562-15.761718 13.28125l-26.398438 152c-1.761719 9.757812 5.839844 18.71875 15.757812 18.71875h377.921876c9.917968 0 17.519531-8.960938 15.757812-18.71875zm-332.71875-21.28125c0 8.800781-7.199219 16-16 16s-16-7.199219-16-16v-72c0-8.800781 7.199219-16 16-16 4.398438 0 8.398438 1.761719 11.28125 4.71875 2.957031 2.882812 4.71875 6.882812 4.71875 11.28125zm72 0c0 8.800781-7.199219 16-16 16s-16-7.199219-16-16v-72c0-8.800781 7.199219-16 16-16 4.398438 0 8.398438 1.761719 11.28125 4.71875 2.957031 2.882812 4.71875 6.882812 4.71875 11.28125zm72 0c0 8.800781-7.199219 16-16 16s-16-7.199219-16-16v-72c0-8.800781 7.199219-16 16-16 4.398438 0 8.398438 1.761719 11.28125 4.71875 2.957031 2.882812 4.71875 6.882812 4.71875 11.28125zm72 0c0 8.800781-7.199219 16-16 16s-16-7.199219-16-16v-72c0-8.800781 7.199219-16 16-16 4.398438 0 8.398438 1.761719 11.28125 4.71875 2.957031 2.882812 4.71875 6.882812 4.71875 11.28125zm72 0c0 8.800781-7.199219 16-16 16s-16-7.199219-16-16v-72c0-8.800781 7.199219-16 16-16 4.398438 0 8.398438 1.761719 11.28125 4.71875 2.957031 2.882812 4.71875 6.882812 4.71875 11.28125zm0 0"/><path d="m200 80h-48v-8c0-4.414062 3.585938-8 8-8h32c4.414062 0 8 3.585938 8 8zm0 0"/><path d="m280 80h48v-8c0-4.414062-3.585938-8-8-8h-32c-4.414062 0-8 3.585938-8 8zm0 0"/></g><path d="m168 32v32h16v-32c0-8.839844 7.160156-16 16-16h80c8.839844 0 16 7.160156 16 16v32h16v-32c0-17.671875-14.328125-32-32-32h-80c-17.671875 0-32 14.328125-32 32zm0 0" fill="#6e83b7"/></svg>