<svg id="Capa_1" enable-background="new 0 0 512 512" height="512" viewBox="0 0 512 512" width="512" xmlns="http://www.w3.org/2000/svg"><g><g><g><path d="m294.793 96.844c-3.567 0-6.73-2.555-7.375-6.189-.725-4.078 1.994-7.972 6.072-8.696 78.531-13.95 125.591-68.381 134.227-79.15 2.591-3.23 7.311-3.752 10.543-1.158 3.231 2.591 3.75 7.312 1.159 10.543-9.226 11.504-59.492 69.645-143.305 84.535-.444.077-.885.115-1.321.115z" fill="#d1d9fc"/></g><circle cx="256" cy="89.343" fill="#695d69" r="38.802"/><g><g><path d="m59.165 512c-1.919 0-3.839-.732-5.303-2.196-51.733-51.733-51.733-135.909 0-187.642 2.929-2.928 7.678-2.928 10.606 0 2.929 2.93 2.929 7.678 0 10.607-45.884 45.884-45.884 120.544 0 166.427 2.929 2.93 2.929 7.678 0 10.607-1.464 1.465-3.383 2.197-5.303 2.197z" fill="#d1d9fc"/></g><g><path d="m90.407 480.759c-1.919 0-3.839-.732-5.303-2.196-34.507-34.507-34.507-90.653 0-125.16 2.929-2.928 7.678-2.928 10.606 0 2.929 2.93 2.929 7.678 0 10.607-28.658 28.657-28.658 75.288 0 103.945 2.929 2.93 2.929 7.678 0 10.607-1.464 1.464-3.384 2.197-5.303 2.197z" fill="#d1d9fc"/></g></g><g><g><path d="m452.835 512c-1.919 0-3.839-.732-5.303-2.196-2.929-2.93-2.929-7.678 0-10.607 45.884-45.884 45.884-120.544 0-166.427-2.929-2.93-2.929-7.678 0-10.607 2.929-2.928 7.678-2.928 10.606 0 51.733 51.733 51.733 135.909 0 187.642-1.465 1.463-3.384 2.195-5.303 2.195z" fill="#d1d9fc"/></g><g><path d="m421.593 480.759c-1.919 0-3.839-.732-5.303-2.196-2.929-2.93-2.929-7.678 0-10.607 28.658-28.657 28.658-75.288 0-103.945-2.929-2.93-2.929-7.678 0-10.607 2.929-2.928 7.678-2.928 10.606 0 34.507 34.507 34.507 90.653 0 125.16-1.464 1.462-3.384 2.195-5.303 2.195z" fill="#d1d9fc"/></g></g><g><path d="m334.592 504.5h-157.184c-23.261 0-42.118-18.857-42.118-42.118v-297.428c0-23.261 18.857-42.118 42.118-42.118h157.185c23.261 0 42.118 18.857 42.118 42.118v297.428c-.001 23.261-18.858 42.118-42.119 42.118z" fill="#fd4755"/><path d="m334.592 122.836h-30c23.261 0 42.118 18.857 42.118 42.118v297.428c0 23.261-18.857 42.118-42.118 42.118h30c23.261 0 42.118-18.857 42.118-42.118v-297.428c0-23.261-18.857-42.118-42.118-42.118z" fill="#fb2b3a"/><path d="m319.44 406.482c0 37.565-24.478 65.267-62.043 65.267-5.156 0-11.573 2.177-16.401 1.09-30.346-6.832-53.014-33.948-53.014-66.358s22.668-59.525 53.014-66.358c4.827-1.087 12.845.983 18.001.983 37.565.001 60.443 27.81 60.443 65.376z" fill="#ffc344"/><path d="m256 338.464c-5.157 0-10.172.593-15 1.68 30.345 6.833 53.018 33.929 53.018 66.338s-22.673 59.505-53.018 66.338c4.828 1.087 9.843 1.68 15 1.68 37.565 0 68.018-30.453 68.018-68.018s-30.453-68.018-68.018-68.018z" fill="#feb237"/><circle cx="256" cy="406.482" fill="#fff" r="36.188"/></g><g><path d="m255.999 100.24c-107.379 0-171.619-73.333-183.419-88.047-2.591-3.231-2.072-7.952 1.16-10.543 3.231-2.592 7.952-2.073 10.543 1.158 11.045 13.775 71.2 82.432 171.717 82.432.095 0 .184-.005.285 0 4.138 0 7.495 3.352 7.5 7.49.005 4.143-3.349 7.505-7.491 7.51-.092 0-.203 0-.295 0z" fill="#d1d9fc"/></g></g><g fill="#fff"><g><ellipse cx="188.045" cy="219.824" rx="12.812" ry="16.989"/><ellipse cx="323.955" cy="219.824" rx="12.812" ry="16.989"/></g><g><ellipse cx="228.671" cy="180.961" rx="14.974" ry="19.856"/><ellipse cx="283.329" cy="180.961" rx="14.974" ry="19.856"/></g><path d="m213.025 255.562c15.238-39.174 70.713-39.174 85.951 0 .1.258.199.517.296.778 4.122 11.087 8.373 26.078.292 36.419-8.014 10.255-20.285 10.358-30.317 5.19-8.273-4.262-18.218-4.262-26.491 0-10.033 5.168-22.303 5.065-30.317-5.19-8.082-10.342-3.83-25.332.292-36.419.095-.261.193-.52.294-.778z"/></g></g></svg>