<svg id="Capa_1" enable-background="new 0 0 512 512" height="512" viewBox="0 0 512 512" width="512" xmlns="http://www.w3.org/2000/svg"><g><g><path d="m408.753 303.813c-4.234 0-7.686-3.413-7.724-7.657l-.555-61.555c-.127-14.131-11.728-25.628-25.861-25.628-22.781 0-41.315-18.534-41.315-41.315v-126.096c0-14.045-11.427-25.472-25.472-25.472h-18.224c-4.267 0-7.726-3.459-7.726-7.726s3.459-7.726 7.726-7.726h18.224c22.566 0 40.925 18.358 40.925 40.925v126.096c0 14.261 11.602 25.862 25.862 25.862 22.577 0 41.11 18.366 41.313 40.942l.555 61.555c.039 4.267-3.389 7.757-7.656 7.796-.025-.001-.048-.001-.072-.001z" fill="#d1d9fc"/></g><g><path d="m423.288 422.945c4.069 9.181 8.592 17.876 13.463 26.006 1.338 2.233 3.817 1.889 5.206 4.035 2.067 3.194 3.072 8.824 5.238 11.816 14.521 20.058 31.114 35.447 47.598 44.507 1.3.715 2.731-.148 4.029.487 3.633 1.778 5.26 1.311 6.383-2.574.401-1.388 3.388-2.739 3.732-4.183 4.359-18.297 4.102-40.926-1.005-65.155-.705-3.347-5.843-6.755-6.734-10.155-.718-2.739 2.843-5.463 2.004-8.229-2.751-9.069-6.155-18.26-10.224-27.441-20.419-46.071-52.268-79.914-82.171-91.34-11.618 29.829-7.937 76.155 12.481 122.226z" fill="#ffc344"/><path d="m421.468 305.703c-3.566-1.96-7.127-3.633-10.661-4.984-1.373 3.525-2.524 7.287-3.468 11.244l43.98 99.233-14.565 37.753c3.33 5.558 6.826 10.846 10.448 15.848l12.972-33.622 34.624 78.124c1.298.714 2.596 1.401 3.892 2.035 3.633 1.778 8.006-.16 9.129-4.046.401-1.386.763-2.81 1.107-4.251l-34.623-78.122 33.621 12.971c-1.274-6.044-2.843-12.185-4.724-18.385l-37.751-14.565z" fill="#ffe177"/><circle cx="408.754" cy="296.087" fill="#fd4755" r="18.303"/></g><path d="m11.767 508.843c-11.253-6.498-15.108-20.889-8.611-32.143l93.107-161.292 37.182-52.747 76.58-144.326 61.516-106.565c1.337-2.316 3.008-4.319 4.918-5.983 7.369-6.42 15.598-5.141 24.535.02l.279 3.068c11.253 6.498 15.561 15.102 9.064 26.356l.106 3.269-61.322 106.23-80.405 128.417-32.866 67.806-91.945 159.277c-6.497 11.254-20.885 15.11-32.138 8.613z" fill="#c86d36"/><path d="m303.679 3.155c-8.937-5.16-19.847-3.785-27.216 2.635 8.33 7.241 10.646 19.591 4.922 29.508l-268.385 464.932c-1.337 2.316-3.013 4.313-4.922 5.977 1.123.976 2.352 1.863 3.69 2.635 11.253 6.497 25.641 2.642 32.138-8.613l91.945-159.279 27.623-59.703 85.648-136.52 63.169-109.43c6.496-11.253 2.641-25.644-8.612-32.142z" fill="#ac5e2e"/><path d="m210.025 118.333 39.096 26.395-113.271 196.223-39.587-25.544z" fill="#695d69"/><path d="m135.85 340.951 113.271-196.223-22.238-15.014-113.551 196.707z" fill="#564e57"/></g></svg>