<svg id="Capa_1" enable-background="new 0 0 512 512" height="512" viewBox="0 0 512 512" width="512" xmlns="http://www.w3.org/2000/svg"><g><g><path d="m367.255 403.022h-268.868v-331.771l242.519-70.421c13.181-3.827 26.349 6.061 26.349 19.786z" fill="#d1d9fc"/><path d="m393.613 512h-275.226c-11.046 0-20-8.954-20-20v-420.749h295.227c11.046 0 20 8.954 20 20v400.749c-.001 11.046-8.955 20-20.001 20z" fill="#e5edfc"/><path d="m393.01 71.252h-30.905c11.379 0 20.604 9.225 20.604 20.604v399.541c0 11.379-9.225 20.604-20.604 20.604h30.905c11.379 0 20.604-9.224 20.604-20.604v-399.542c-.001-11.379-9.225-20.603-20.604-20.603z" fill="#d1d9fc"/></g><path d="m357.255 465.642h-202.51c-5.523 0-10-4.477-10-10v-104.468c0-5.523 4.477-10 10-10h202.51c5.523 0 10 4.477 10 10v104.468c0 5.523-4.477 10-10 10z" fill="#695d69"/><path d="m356.953 341.174h-30.905c5.69 0 10.302 4.612 10.302 10.302v103.864c0 5.69-4.612 10.302-10.302 10.302h30.905c5.69 0 10.302-4.612 10.302-10.302v-103.865c0-5.689-4.612-10.301-10.302-10.301z" fill="#564e57"/><g fill="#695d69"><g><ellipse cx="178.696" cy="199.491" rx="14.574" ry="19.326"/><ellipse cx="333.304" cy="199.491" rx="14.574" ry="19.326"/></g><g><ellipse cx="224.911" cy="155.281" rx="17.034" ry="22.588"/><ellipse cx="287.089" cy="155.281" rx="17.034" ry="22.588"/></g><path d="m207.112 240.145c17.334-44.563 80.441-44.563 97.775 0 .114.293.226.588.337.885 4.689 12.613 9.525 29.665.332 41.43-9.117 11.666-23.075 11.783-34.488 5.904-9.411-4.848-20.724-4.848-30.136 0-11.413 5.879-25.372 5.762-34.488-5.904-9.193-11.764-4.357-28.817.332-41.43.11-.297.222-.592.336-.885z"/></g><g><g><path d="m319.068 380.228h-128.478c-4.267 0-7.726-3.459-7.726-7.726s3.459-7.726 7.726-7.726h128.478c4.268 0 7.726 3.459 7.726 7.726s-3.458 7.726-7.726 7.726z" fill="#fff"/></g><g><path d="m319.068 411.134h-128.478c-4.267 0-7.726-3.459-7.726-7.726s3.459-7.726 7.726-7.726h128.478c4.268 0 7.726 3.459 7.726 7.726s-3.458 7.726-7.726 7.726z" fill="#fff"/></g><g><path d="m272.71 442.039h-82.12c-4.267 0-7.726-3.459-7.726-7.726s3.459-7.726 7.726-7.726h82.12c4.268 0 7.726 3.459 7.726 7.726s-3.458 7.726-7.726 7.726z" fill="#fff"/></g></g></g></svg>