<svg height="481pt" viewBox="0 0 481.27141 481" width="481pt" xmlns="http://www.w3.org/2000/svg"><path d="m201.269531 266.800781h-146.664062v56.390625c0 6.785156 1.296875 13.503906 3.816406 19.808594l6.089844 15.222656c10.121093 25.3125 34.632812 41.914063 61.894531 41.914063h149.730469c27.261719 0 51.773437-16.601563 61.894531-41.90625l6.089844-15.222657c2.519531-6.296874 3.8125-13.023437 3.8125-19.808593v-56.390625h-146.664063zm0 0" fill="#edeff1"/><path d="m54.605469 266.800781v56.390625c0 1.921875.128906 3.832032.339843 5.726563 8.261719 2.890625 17.09375 4.546875 26.324219 4.546875h66.664063c21.816406 0 41.167968-10.585938 53.335937-26.832032 12.167969 16.253907 31.515625 26.832032 53.335938 26.832032h66.664062c9.234375 0 18.074219-1.65625 26.328125-4.546875.210938-1.902344.335938-3.804688.335938-5.726563v-56.390625zm0 0" fill="#d3d3d3"/><path d="m201.269531 366.800781c-22.085937 0-40-17.914062-40-40v-66.664062h80v66.664062c0 22.09375-17.910156 40-40 40zm0 0" fill="#ffb0aa"/><path d="m201.269531 266.800781h-40v60c0 1.75.152344 3.453125.371094 5.144531 16.101563-3.402343 30.085937-12.570312 39.628906-25.320312 9.546875 12.742188 23.53125 21.910156 39.632813 25.320312.21875-1.679687.367187-3.394531.367187-5.144531v-60zm0 0" fill="#ff7b7b"/><path d="m254.605469 33.472656c0-18.417968 14.921875-33.335937 33.328125-33.335937h1.210937c15.03125 0 28.199219 10.0625 32.160157 24.558593l28.597656 104.878907c3.121094 11.433593 4.695312 23.234375 4.695312 35.082031v35.480469h-100v-166.664063zm0 0" fill="#466089"/><path d="m147.933594 33.472656c0-18.417968-14.917969-33.335937-33.328125-33.335937h-1.207031c-15.03125 0-28.199219 10.0625-32.160157 24.558593l-28.597656 104.878907c-3.121094 11.433593-4.695313 23.234375-4.695313 35.082031v35.480469h100v-166.664063zm0 0" fill="#466089"/><path d="m315.550781 132.96875-14.261719-67.738281c-3.898437-18.511719-20.226562-31.757813-39.144531-31.757813h-6.296875c9.785156-11.375 6.894532-33.335937-14.578125-33.335937-10.78125 0-20.335937 5.296875-27.980469 11.65625-2.394531-6.546875-8.363281-11.65625-18.683593-11.65625-27.078125 0-46.660157 33.335937-46.660157 33.335937h-7.554687c-18.910156 0-35.246094 13.246094-39.144531 31.757813l-14.261719 67.738281c-3.792969 18.0625-5.714844 36.472656-5.714844 54.933594v85.570312h240v-85.570312c0-18.460938-1.917969-36.871094-5.71875-54.933594zm0 0" fill="#6e83b7"/><path d="m321.269531 186.800781h-240c-36.8125 0-66.664062 29.847657-66.664062 66.664063 0 36.824218 29.851562 66.671875 66.664062 66.671875h66.664063c29.457031 0 53.335937-23.882813 53.335937-53.335938 0 29.453125 23.882813 53.335938 53.335938 53.335938h66.664062c36.816407 0 66.664063-29.847657 66.664063-66.664063 0-36.824218-29.847656-66.671875-66.664063-66.671875zm0 0" fill="#edeff1"/><g fill="#d3d3d3"><path d="m201.269531 173.472656h-26.664062c-14.726563 0-26.660157 11.933594-26.660157 26.664063v5.046875c0 5.304687 2.101563 10.390625 5.855469 14.144531l13 13c4.992188 5 11.773438 7.808594 18.847657 7.808594h31.238281c7.074219 0 13.855469-2.808594 18.855469-7.808594l13-13c3.753906-3.753906 5.855468-8.839844 5.855468-14.144531v-5.046875c0-14.730469-11.933594-26.664063-26.664062-26.664063zm0 0"/><path d="m399.992188 189.675781 2.53125 7.597657-100 33.328124-2.53125-7.597656zm0 0"/><path d="m302.53125 276.359375 100 33.34375-2.53125 7.59375-100.003906-33.339844zm0 0"/><path d="m301.269531 249.472656h100v8h-100zm0 0"/><path d="m2.53125 189.675781 100 33.332031-2.53125 7.597657-100-33.332031zm0 0"/><path d="m100.003906 276.335938 2.53125 7.597656-100 33.328125-2.53124975-7.597657zm0 0"/><path d="m1.269531 249.472656h100v8h-100zm0 0"/></g><path d="m472.421875 438.449219-80 40c-4.503906 2.253906-9.804687 2.253906-14.308594 0l-80-40c-5.417969-2.714844-8.84375-8.25-8.84375-14.3125v-129.617188c0-7.34375 5-13.742187 12.121094-15.519531l80-20c2.542969-.640625 5.214844-.640625 7.761719 0l80 20c7.117187 1.777344 12.117187 8.175781 12.117187 15.519531v129.617188c0 6.0625-3.421875 11.597656-8.847656 14.3125zm0 0" fill="#ffe352"/><path d="m385.269531 468.609375-84-42v-135.21875l84-21 84 21v135.210937zm-76-46.945313 76 38 76-38v-124.023437l-76-19-76 19zm0 0" fill="#ffb236"/><path d="m369.269531 432.136719c-4.847656 0-9.453125-2.199219-12.492187-6.007813l-32-40c-5.523438-6.898437-4.410156-16.96875 2.503906-22.488281 6.886719-5.511719 16.964844-4.417969 22.484375 2.503906l18.335937 22.910157 51.859376-77.800782c4.894531-7.359375 14.832031-9.351562 22.183593-4.4375 7.351563 4.894532 9.335938 14.832032 4.4375 22.183594l-64 96c-2.832031 4.246094-7.511719 6.886719-12.613281 7.113281-.234375.015625-.472656.023438-.699219.023438zm0 0" fill="#98ca69"/></svg>