<svg id="Capa_1" enable-background="new 0 0 512 512" height="512" viewBox="0 0 512 512" width="512" xmlns="http://www.w3.org/2000/svg"><g><g><path d="m403.972 512h-295.944c-17.069 0-30.905-13.837-30.905-30.905v-315.612l47.159-60.459 257.119 3.238 53.477 57.551v315.281c0 17.069-13.837 30.906-30.906 30.906z" fill="#e5edfc"/><path d="m388.199 105.024-20.951 3.06 36.725 57.73v315.281c0 17.068-13.837 30.905-30.905 30.905h30.905c17.069 0 30.905-13.837 30.905-30.905v-315.282z" fill="#d1d9fc"/><path d="m379.117 4.079-11.87-4.079h-237.971c-8.534 0-15.453 6.918-15.453 15.453v85.505l142.165 15.453 142.165-15.453-9.089-83.615c0-8.535-1.413-13.264-9.947-13.264z" fill="#6fd8fd"/><path d="m382.7 0h-15.453v62.841c0 3.983-3.229 7.211-7.211 7.211h-246.213v30.905h284.33v-85.504c0-8.535-6.919-15.453-15.453-15.453z" fill="#28c1fd"/><path d="m371.099 465.642h-230.198c-5.69 0-10.302-4.612-10.302-10.302v-233.183c0-5.695 4.621-10.309 10.315-10.302l230.197.303c5.684.007 10.288 4.618 10.288 10.302v232.88c.002 5.69-4.611 10.302-10.3 10.302z" fill="#6fd8fd"/><path d="m371.112 212.158-230.197-.303c-.272-.001-.539.019-.806.039l200.098.264c5.684.008 10.288 4.618 10.288 10.302v232.88c0 5.69-4.612 10.302-10.302 10.302h30.905c5.69 0 10.302-4.612 10.302-10.302v-232.88c0-5.684-4.603-10.295-10.288-10.302z" fill="#28c1fd"/></g><g fill="#fff"><g><ellipse cx="185.994" cy="327.014" rx="13.198" ry="17.502"/><ellipse cx="326.006" cy="327.014" rx="13.198" ry="17.502"/></g><g><ellipse cx="227.846" cy="286.978" rx="15.426" ry="20.456"/><ellipse cx="284.154" cy="286.978" rx="15.426" ry="20.456"/></g><path d="m211.728 363.83c15.698-40.356 72.847-40.356 88.545 0 .103.266.205.533.305.801 4.246 11.422 8.626 26.865.3 37.519-8.256 10.565-20.897 10.671-31.232 5.347-8.523-4.39-18.768-4.39-27.291 0-10.335 5.324-22.976 5.218-31.232-5.347-8.326-10.654-3.946-26.096.3-37.519.1-.268.201-.535.305-.801z"/></g><path d="m77.122 165.483 357.756.33-36.725-64.855h-284.33z" fill="#6fd8fd"/><path d="m434.878 165.813-36.725-64.855h-30.906l36.709 64.827z" fill="#28c1fd"/><circle cx="255.988" cy="50.479" fill="#695d69" r="23.167"/></g></svg>