<svg height="480pt" viewBox="0 -16 480 480" width="480pt" xmlns="http://www.w3.org/2000/svg"><path d="m360 448h-240c-22.089844 0-40-17.910156-40-40s17.910156-40 40-40h240c22.089844 0 40 17.910156 40 40s-17.910156 40-40 40zm0 0" fill="#edeff1"/><path d="m360 368h-120v80h120c22.089844 0 40-17.910156 40-40s-17.910156-40-40-40zm0 0" fill="#6e83b7"/><path d="m120 424h120v-32h-120c-8.839844 0-16 7.160156-16 16s7.160156 16 16 16zm0 0" fill="#ffb0aa"/><path d="m16 0h448c8.839844 0 16 7.160156 16 16v264c0 8.839844-7.160156 16-16 16h-192l-32 40-32-40h-192c-8.839844 0-16-7.160156-16-16v-264c0-8.839844 7.160156-16 16-16zm0 0" fill="#edeff1"/><path d="m175.464844 206.9375s-19.871094 17.335938-55.464844 17.335938-55.464844-17.335938-55.464844-17.335938v20.796875s19.871094 13.867187 55.464844 13.867187 55.464844-13.867187 55.464844-13.867187zm0 0" fill="#6e83b7"/><path d="m120 231.199219c71.648438 0 98.59375-50.542969 86.664062-83.199219-13-35.609375-10.398437-48.535156-10.398437-48.535156l5.957031-47.671875c.519532-4.136719-2.703125-7.792969-6.878906-7.792969h-3.351562c-1.710938 0-3.367188.632812-4.640626 1.777344l-29 26.09375c-2.144531 1.929687-5.261718 2.3125-7.824218.984375-15.847656-8.238281-30.527344-8.054688-30.527344-8.054688s-14.679688-.183593-30.535156 8.0625c-2.5625 1.328125-5.679688.945313-7.824219-.984375l-28.992187-26.101562c-1.28125-1.144532-2.929688-1.777344-4.640626-1.777344h-3.351562c-4.167969 0-7.398438 3.65625-6.878906 7.792969l5.957031 47.671875s2.601563 12.925781-10.398437 48.535156c-11.929688 32.65625 15.015624 83.199219 86.664062 83.199219zm0 0" fill="#ffe352"/><path d="m120 148c-38.945312 0-71.632812 15.367188-80.695312 45.480469 12.605468 20.679687 39.101562 37.71875 80.695312 37.71875s68.089844-17.039063 80.695312-37.71875c-9.0625-30.113281-41.75-45.480469-80.695312-45.480469zm0 0" fill="#edeff1"/><path d="m195.527344 55.761719-6.191406 40.238281s-2.367188-5.894531-10.398438-10.398438c-7.152344-4.007812-13.867188-3.464843-13.867188-3.464843l23.007813-29.585938c.792969-1.023437 2.019531-1.613281 3.304687-1.613281 2.570313 0 4.527344 2.285156 4.144532 4.824219zm0 0" fill="#ffb236"/><path d="m44.472656 55.761719 6.191406 40.238281s2.367188-5.894531 10.398438-10.398438c7.152344-4.007812 13.867188-3.464843 13.867188-3.464843l-23.007813-29.585938c-.792969-1.023437-2.019531-1.613281-3.304687-1.613281-2.570313 0-4.527344 2.285156-4.144532 4.824219zm0 0" fill="#ffb236"/><path d="m143.734375 189.601562c0 5.4375-4.421875 9.863282-9.863281 9.863282-5.4375 0-9.871094-4.425782-9.871094-9.863282v-41.601562h-8v41.601562c0 5.4375-4.425781 9.863282-9.863281 9.863282-5.441407 0-9.863281-4.425782-9.863281-9.863282h-8c0 9.847657 8.015624 17.863282 17.863281 17.863282 5.625 0 10.589843-2.664063 13.863281-6.738282 3.28125 4.074219 8.238281 6.738282 13.863281 6.738282 9.847657 0 17.863281-8.007813 17.863281-17.863282zm0 0" fill="#d3d3d3"/><path d="m120 137.601562h-7.457031c-3.542969 0-6.414063 2.871094-6.414063 6.414063v.023437c0 2.433594 1.375 4.648438 3.542969 5.738282l1.929687.957031c.957032.480469 2.023438.730469 3.101563.730469h10.59375c1.078125 0 2.136719-.25 3.101563-.730469l1.929687-.957031c2.175781-1.089844 3.542969-3.304688 3.542969-5.738282v-.023437c0-3.542969-2.871094-6.414063-6.414063-6.414063zm0 0" fill="#ffb236"/><g fill="#d3d3d3"><path d="m24.742188 160.070312 44 8.261719-1.476563 7.863281-44-8.265624zm0 0"/><path d="m66.730469 196.195312 2.53125 7.589844-35.992188 12.007813-2.535156-7.585938zm0 0"/><path d="m24 182.136719h40.535156v8h-40.535156zm0 0"/><path d="m215.257812 160.058594 1.476563 7.863281-43.996094 8.261719-1.480469-7.859375zm0 0"/><path d="m173.273438 196.203125 35.996093 11.996094-2.527343 7.589843-36-11.996093zm0 0"/><path d="m175.464844 182.136719h40.535156v8h-40.535156zm0 0"/></g><path d="m130.398438 241.601562c0 5.742188-4.65625 10.398438-10.398438 10.398438s-10.398438-4.65625-10.398438-10.398438c0-5.746093 4.65625-10.402343 10.398438-10.402343s10.398438 4.65625 10.398438 10.402343zm0 0" fill="#ffe352"/><path d="m130.398438 245.0625h-20.796876c-1.914062 0-3.464843-1.550781-3.464843-3.460938 0-1.914062 1.550781-3.464843 3.464843-3.464843h20.796876c1.914062 0 3.464843 1.550781 3.464843 3.464843 0 1.910157-1.550781 3.460938-3.464843 3.460938zm0 0" fill="#ffb236"/><path d="m240 56h112v16h-112zm0 0" fill="#6e83b7"/><path d="m240 96h208v16h-208zm0 0" fill="#d3d3d3"/><path d="m240 136h208v16h-208zm0 0" fill="#d3d3d3"/><path d="m240 176h208v16h-208zm0 0" fill="#d3d3d3"/><path d="m240 216h208v16h-208zm0 0" fill="#d3d3d3"/></svg>