<svg id="Capa_1" enable-background="new 0 0 512 512" height="512" viewBox="0 0 512 512" width="512" xmlns="http://www.w3.org/2000/svg"><g><path d="m465.12.736c-25.612-1.613-52.255-.572-79.183 3.09-22.288 3.031-45.073 7.906-67.722 14.489-18.389 5.344-31.905 20.424-35.271 39.354-3.38 19.007 4.137 37.941 19.619 49.416v.001c13.6 10.08 26.727 20.899 39.247 32.303 1.731 1.577 1.785 4.287.134 5.947l-24.267 24.399c-1.532 1.54-3.985 1.614-5.631.196-24.163-20.819-52.155-37.382-81.966-48.359-8.47-3.121-17.854 1.255-20.957 9.775-3.102 8.518 1.25 17.952 9.722 21.071 25.179 9.271 48.875 23.088 69.523 40.401 1.86 1.559 2.009 4.366.298 6.086l-34.481 34.669c-1.532 1.54-3.985 1.614-5.631.196-24.163-20.819-52.155-37.382-81.966-48.359-8.468-3.123-17.854 1.255-20.957 9.775-3.102 8.518 1.25 17.952 9.722 21.071 25.179 9.271 48.875 23.088 69.523 40.401 1.86 1.559 2.009 4.366.298 6.086l-34.481 34.668c-1.532 1.54-3.985 1.614-5.631.196-24.164-20.82-52.156-37.383-81.967-48.359-8.47-3.122-17.854 1.255-20.957 9.775-3.102 8.518 1.25 17.952 9.722 21.071 25.179 9.271 48.875 23.087 69.524 40.401 1.86 1.559 2.009 4.366.298 6.086l-15.289 15.372c-1.072 1.077-2.646 1.47-4.102 1.034-2.852-.854-5.839-1.4-8.927-1.594-18.265-1.15-37.247-.411-56.424 2.2-15.856 2.157-32.051 5.621-48.137 10.297-14.684 4.268-25.476 16.31-28.164 31.427-2.697 15.169 3.302 30.281 15.656 39.437 14.261 10.57 27.79 22.302 40.209 34.87 11.155 11.289 21.652 23.493 31.201 36.272 7.707 10.317 19.414 16.103 31.822 16.103 2.731-.001 5.498-.281 8.263-.855 15.246-3.169 26.985-14.595 30.635-29.818 2.653-11.065 4.912-22.241 6.713-33.218 3.693-22.513 5.593-44.947 5.648-66.678.011-4.325-.672-8.501-1.942-12.42-.476-1.47-.1-3.079.99-4.174l14.914-14.995c1.724-1.733 4.556-1.583 6.116.299 17.207 20.753 30.939 44.565 40.153 69.866 2.423 6.654 8.679 10.781 15.34 10.781 1.865 0 3.763-.324 5.616-1.006 8.471-3.118 12.824-12.553 9.722-21.071-10.92-29.985-27.404-58.142-48.126-82.445-1.398-1.64-1.325-4.07.195-5.598l34.476-34.663c1.724-1.733 4.556-1.583 6.116.299 17.207 20.753 30.939 44.566 40.153 69.866 2.423 6.654 8.679 10.781 15.34 10.781 1.865 0 3.763-.324 5.616-1.006 8.471-3.118 12.824-12.553 9.722-21.071-10.92-29.985-27.404-58.142-48.126-82.445-1.398-1.64-1.325-4.07.195-5.598l34.476-34.663c1.724-1.733 4.556-1.583 6.116.299 17.207 20.753 30.939 44.566 40.153 69.866 2.423 6.654 8.679 10.781 15.34 10.781 1.865 0 3.763-.324 5.616-1.006 8.471-3.118 12.824-12.553 9.722-21.071-10.92-29.985-27.404-58.142-48.126-82.445-1.398-1.64-1.325-4.07.195-5.598l24.5-24.633c1.646-1.655 4.346-1.623 5.936.086 12.291 13.213 23.953 27.167 34.771 41.644 9.662 12.931 24.331 20.181 39.878 20.181 3.422 0 6.89-.352 10.353-1.071 19.089-3.968 33.788-18.274 38.36-37.337 3.748-15.628 6.937-31.414 9.481-46.92 5.211-31.766 7.892-63.416 7.971-94.07.07-26.458-20.523-48.481-46.878-50.138zm-332.218 442.028c-1.672 10.189-3.771 20.574-6.239 30.864-.924 3.852-3.835 5.003-5.488 5.348-1.365.283-4.818.58-7.351-2.811-10.447-13.982-21.935-27.337-34.146-39.694-13.594-13.757-28.398-26.595-44-38.159-3.32-2.46-3.12-5.865-2.88-7.215.292-1.645 1.34-4.565 5.075-5.65 14.554-4.231 29.17-7.361 43.444-9.303 11.884-1.617 23.656-2.427 35.158-2.427 5.004 0 9.957.153 14.846.461 1.643.104 3.129.747 4.291 1.746.016.016.028.033.044.049.098.098.204.181.304.276 1.333 1.307 2.159 3.113 2.154 5.099-.051 19.974-1.805 40.637-5.212 61.416z" fill="#e5edfc"/><g><path d="m465.12.736c-12.863-.81-25.986-.949-39.274-.425 2.8.113 5.592.25 8.369.425 26.355 1.657 46.948 23.68 46.88 50.137-.079 30.654-2.76 62.304-7.971 94.07-2.544 15.506-5.733 31.292-9.481 46.92-4.145 17.281-16.612 30.653-33.128 35.958 4.901 1.601 10.057 2.451 15.32 2.451 3.423 0 6.89-.352 10.354-1.071 19.089-3.968 33.788-18.275 38.36-37.337 3.748-15.628 6.937-31.414 9.481-46.92 5.211-31.766 7.892-63.417 7.971-94.07.067-26.458-20.526-48.481-46.881-50.138z" fill="#d1d9fc"/></g><circle cx="443.978" cy="70.052" fill="#564e57" r="23.694"/></g></svg>