<svg height="480pt" viewBox="0 0 480 480" width="480pt" xmlns="http://www.w3.org/2000/svg"><path d="m24 24v-16c0-4.414062 3.585938-8 8-8h416c4.414062 0 8 3.585938 8 8v16c0 4.414062-3.585938 8-8 8h-416c-4.414062 0-8-3.585938-8-8zm0 0" fill="#6e83b7"/><path d="m16 128h448v352h-448zm0 0" fill="#edeff1"/><path d="m16 448h448v32h-448zm0 0" fill="#6e83b7"/><path d="m16 189.886719c9.078125 6.351562 20.105469 10.113281 32 10.113281 20.382812 0 38.199219-10.984375 48-27.304688 9.800781 16.320313 27.617188 27.304688 48 27.304688s38.199219-10.984375 48-27.304688c9.800781 16.320313 27.617188 27.304688 48 27.304688s38.199219-10.984375 48-27.304688c9.800781 16.320313 27.617188 27.304688 48 27.304688s38.199219-10.984375 48-27.304688c9.800781 16.320313 27.617188 27.304688 48 27.304688 11.894531 0 22.921875-3.761719 32-10.113281v-61.886719h-448zm0 0" fill="#d3d3d3"/><path d="m208 240h240v160h-240zm0 0" fill="#d3d3d3"/><path d="m216 248h224v144h-224zm0 0" fill="#80d6fb"/><g fill="#6e83b7"><path d="m328 364.609375c7.472656 0 12.640625 6.589844 23.070312 6.589844 7.441407 0 16.480469-5.855469 16.480469-14.367188 0-26.367187-22.871093-39.558593-39.558593-39.558593s-39.558594 13.183593-39.558594 39.558593c0 8.511719 9.046875 14.367188 16.476562 14.367188 10.449219 0 15.617188-6.589844 23.089844-6.589844zm0 0"/><path d="m286.039062 304.425781c4.730469 5.167969 9.496094 18.796875 4.328126 23.527344-5.167969 4.726563-18.320313-1.25-23.046876-6.417969-4.726562-5.167968-4.367187-13.191406.808594-17.910156 5.167969-4.730469 13.183594-4.367188 17.910156.800781zm0 0"/><path d="m290.511719 290.886719c3.089843 8.5625 15.894531 22.296875 24.457031 19.210937 8.558594-3.089844 9.640625-21.839844 6.542969-30.402344-3.085938-8.558593-12.535157-13-21.105469-9.902343-8.550781 3.078125-12.980469 12.527343-9.894531 21.09375zm0 0"/><path d="m369.960938 304.425781c-4.730469 5.167969-9.496094 18.796875-4.328126 23.527344 5.167969 4.726563 18.320313-1.25 23.046876-6.417969 4.726562-5.167968 4.367187-13.191406-.808594-17.910156-5.167969-4.730469-13.183594-4.367188-17.910156.800781zm0 0"/><path d="m365.488281 290.886719c-3.089843 8.5625-15.894531 22.296875-24.457031 19.210937-8.558594-3.089844-9.640625-21.839844-6.542969-30.402344 3.085938-8.558593 12.535157-13 21.105469-9.902343 8.550781 3.078125 12.980469 12.527343 9.894531 21.09375zm0 0"/></g><path d="m32 240h144v240h-144zm0 0" fill="#d3d3d3"/><path d="m40 248h128v232h-128zm0 0" fill="#80d6fb"/><path d="m160 376c0 4.417969-3.582031 8-8 8s-8-3.582031-8-8 3.582031-8 8-8 8 3.582031 8 8zm0 0" fill="#ffe352"/><path d="m32 32-32 96v16c0 26.511719 21.488281 48 48 48s48-21.488281 48-48v-16l16-96zm0 0" fill="#ffb0aa"/><path d="m112 32-16 96v16c0 26.511719 21.488281 48 48 48s48-21.488281 48-48v-16l8-96zm0 0" fill="#edeff1"/><path d="m448 32h-80l16 96v16c0 26.511719 21.488281 48 48 48s48-21.488281 48-48v-16zm0 0" fill="#ffb0aa"/><path d="m368 32h-88l8 96v16c0 26.511719 21.488281 48 48 48s48-21.488281 48-48v-16zm0 0" fill="#edeff1"/><path d="m200 32-8 96v16c0 26.511719 21.488281 48 48 48s48-21.488281 48-48v-16l-8-96zm0 0" fill="#ffb0aa"/><path d="m281.335938 48-1.335938-16h-80l-1.335938 16zm0 0" fill="#ff7b7b"/><path d="m370.664062 48-2.664062-16h-88l1.335938 16zm0 0" fill="#d3d3d3"/><path d="m453.335938 48-5.335938-16h-80l2.664062 16zm0 0" fill="#ff7b7b"/><path d="m109.335938 48 2.664062-16h88l-1.335938 16zm0 0" fill="#d3d3d3"/><path d="m26.664062 48 5.335938-16h80l-2.664062 16zm0 0" fill="#ff7b7b"/></svg>