<svg id="Capa_1" enable-background="new 0 0 512 512" height="512" viewBox="0 0 512 512" width="512" xmlns="http://www.w3.org/2000/svg"><g><path d="m2.593 220.633c-2.385-.945-3.324-3.819-1.97-5.998 9.522-15.322 33.234-47.749 77.285-66.509 53.92-22.963 102.172-10.059 115.354-6.059-14.874 20.976-29.748 41.952-44.622 62.928-23.168-15.23-39.369-15.719-49.999-13.196-21.97 5.215-27.545 25.056-50.992 32.384-16.417 5.129-32.698 1.345-45.056-3.55z" fill="#bef8a8"/><path d="m509.407 220.633c2.385-.945 3.324-3.819 1.97-5.998-9.522-15.322-33.234-47.749-77.285-66.509-53.92-22.963-102.172-10.059-115.354-6.059 14.874 20.976 29.748 41.952 44.622 62.928 23.168-15.23 39.369-15.719 49.999-13.196 21.97 5.215 27.545 25.056 50.992 32.384 16.417 5.129 32.698 1.345 45.056-3.55z" fill="#bef8a8"/><g><path d="m511.376 214.634c-9.522-15.322-33.234-47.749-77.285-66.509-30.726-13.086-59.6-14.519-81.204-12.595 15.46 1.386 32.567 5.043 50.299 12.595 44.051 18.76 67.763 51.187 77.285 66.509 1.354 2.179.415 5.053-1.97 5.998-3.836 1.519-8.05 2.931-12.529 4.003 15.863 4.401 31.483.731 43.434-4.003 2.386-.944 3.325-3.819 1.97-5.998z" fill="#a0e38b"/></g><ellipse cx="256" cy="73.157" fill="#bef8a8" rx="57.955" ry="73.157"/><path d="m256 0c-5.354 0-10.531.936-15.453 2.65 24.503 8.539 42.503 36.861 42.503 70.507 0 33.645-18 61.967-42.503 70.506 4.921 1.715 10.099 2.65 15.453 2.65 32.008 0 57.955-32.754 57.955-73.156 0-40.403-25.947-73.157-57.955-73.157z" fill="#a0e38b"/><g><path d="m322.563 438.838c-10.63 32.828 22.747 76.015 41.817 73.014 13.819-2.175 22.823-29.027 21.241-49.782-1.717-22.527-16.843-50.184-35.18-49.783-12.932.283-23.958 14.445-27.878 26.551z" fill="#bef8a8"/><path d="m385.621 462.069c-1.717-22.527-16.843-50.184-35.18-49.783-5.518.121-10.687 2.774-15.107 6.71 10.615 9.52 18.196 27.517 19.381 43.072 1.088 14.271-2.829 31.425-9.875 41.457 6.749 5.936 13.794 9.23 19.54 8.325 13.82-2.173 22.823-29.025 21.241-49.781z" fill="#a0e38b"/><path d="m189.437 438.838c10.63 32.828-22.747 76.015-41.817 73.014-13.819-2.175-22.823-29.027-21.241-49.782 1.717-22.527 16.843-50.184 35.18-49.783 12.932.283 23.958 14.445 27.878 26.551z" fill="#bef8a8"/></g><g><g><path d="m279.179 59.295c-4.267 0-7.726-3.459-7.726-7.726v-10.685c0-4.268 3.459-7.726 7.726-7.726s7.726 3.459 7.726 7.726v10.684c0 4.268-3.459 7.727-7.726 7.727z" fill="#695d69"/></g><g><path d="m232.821 59.295c-4.267 0-7.726-3.459-7.726-7.726v-10.685c0-4.268 3.459-7.726 7.726-7.726s7.726 3.459 7.726 7.726v10.684c0 4.268-3.459 7.727-7.726 7.727z" fill="#695d69"/></g></g><g><path d="m116.592 157.036c-11.064 11.889-20.611 24.958-28.561 38.927 3.13-1.765 6.594-3.211 10.611-4.164 10.63-2.523 26.831-2.034 49.999 13.196 14.874-20.976 29.748-41.952 44.622-62.929-7.627-2.314-27.006-7.596-52.417-7.201-8.549 6.622-16.665 14.015-24.254 22.171z" fill="#a0e38b"/><path d="m161.558 412.287c-13.77-.301-25.728 15.22-31.558 32.51 17.138 15.824 35.405 29.284 51.84 40.418 8.06-13.982 12.487-31.274 7.596-46.377-3.919-12.107-14.945-26.268-27.878-26.551z" fill="#a0e38b"/><path d="m415.369 303.559c0 104.219-96.929 150.086-140.401 178.364-10.434 6.787-23.445 9.586-34.43 4.18-1.243-.612-2.459-1.302-3.64-2.07-25.425-16.539-71.07-42.888-104.586-80.962-1.971-2.24-1.476-6.521-3.357-8.842-1.38-1.703-5.159-1.426-6.483-3.173-18.663-24.608-31.627-53.619-31.627-87.464 0-34.553 9.188-66.799 25.081-94.072 1.978-3.394 4.784-4.064 6.965-7.298.754-1.119.795-4.875 1.573-5.974 27.237-38.486 68.765-64.656 116.083-69.375 5.088-.507 10.816.346 16.028.346 91.212-.001 158.794 78.317 158.794 176.34z" fill="#c86d36"/><path d="m256 126.933c-2.59 0-5.166-.761-7.726-.631-2.591.131-5.167.327-7.726.583 83.966 8.375 149.703 84.284 149.703 176.706 0 104.219-102.581 152.164-146.053 180.441-1.182.769-2.406 1.439-3.65 2.051 2.485 1.223 5.08 2.135 7.728 2.735 2.088.473 4.2-2.647 6.327-2.56 3.053.124 6.128 3.249 9.125 2.574 3.977-.895 7.832-2.495 11.375-4.8 26.028-16.931 73.247-40.912 106.95-79.802 1.272-1.468.8-5.088 2.032-6.599 1.903-2.334 5.48-2.588 7.275-5.027 17.675-24.013 29.797-53.189 29.797-89.014 0-34.552-9.188-66.799-25.081-94.071-1.584-2.717-5.268-2.682-6.982-5.298-1.171-1.788-.339-6.254-1.569-7.993-28.711-40.557-73.294-67.433-123.797-69.932-2.562-.127-5.138.637-7.728.637z" fill="#ac5e2e"/><path d="m382.046 404.224c3.375-3.894 6.616-7.936 9.686-12.138l-44.948-43.831v-89.45l49.281-49.28c-2.666-4.574-5.519-9.009-8.55-13.291-.047.045-.098.085-.145.131l-49.584 49.584-74.06-42.758v-76.887c-2.561-.127-5.136-.199-7.726-.199s-5.165.072-7.726.199v76.887l-74.06 42.758-49.584-49.584c-.047-.046-.097-.086-.145-.131-3.031 4.282-5.884 8.716-8.55 13.29l49.281 49.281v89.506l-42.738 42.738c3.131 4.128 6.423 8.131 9.84 12.014l41.896-41.896 74.06 42.759v84.9c5.086 1.149 10.367 1.149 15.453 0v-84.9l74.127-42.798zm-50.715-57.173-75.331 43.493-75.331-43.493v-86.986l75.331-43.492 75.331 43.492z" fill="#ecbba3"/><g fill="#e8ad8c"><path d="m248.274 481.428v7.372c5.087 1.154 10.366 1.159 15.453.014v-16.847c-5.582 3.382-10.788 6.526-15.453 9.461z"/><path d="m391.732 392.086-19.102-18.628c-2.537 4.684-5.292 9.199-8.237 13.551l17.654 17.215c3.374-3.895 6.616-7.936 9.685-12.138z"/><path d="m375.472 230.118 20.593-20.593c-2.666-4.574-5.519-9.009-8.55-13.291-.047.045-.098.085-.145.131l-18.967 18.967c2.562 4.793 4.924 9.725 7.069 14.786z"/><path d="m263.726 131.002v-4.697c-2.561-.127-5.136-.199-7.726-.199s-5.166.068-7.726.198v.002 1.549c5.233.789 10.388 1.842 15.452 3.147z"/></g></g></g></svg>