<svg height="488pt" viewBox="-4 0 488 488" width="488pt" xmlns="http://www.w3.org/2000/svg"><path d="m464 0h-352c-8.839844 0-16 7.160156-16 16v304c0 8.839844 7.160156 16 16 16h8v16c0 8.839844 7.160156 16 16 16h304c8.839844 0 16-7.160156 16-16v-16h8c8.839844 0 16-7.160156 16-16v-304c0-8.839844-7.160156-16-16-16zm0 0" fill="#6e83b7"/><path d="m112 16h352v272h-352zm0 0" fill="#edeff1"/><path d="m112 280h352v8h-352zm0 0" fill="#d3d3d3"/><path d="m120 336h336v8h-336zm0 0" fill="#466089"/><path d="m381.679688 163.28125c-30.960938 10.480469-66 16.71875-93.679688 16.71875s-62.71875-6.238281-93.679688-16.71875l13.679688-27.28125c16 8.320312 59.039062 16 80 16 21.039062 0 64-7.679688 80-16zm0 0" fill="#d3d3d3"/><path d="m288 220c-37.519531 0-83.921875-11.601562-110.480469-23.121094l13.121094-26.238281c31.917969 10.878906 68.640625 17.359375 97.359375 17.359375s65.441406-6.480469 97.359375-17.359375l13.121094 26.238281c-26.558594 11.519532-72.960938 23.121094-110.480469 23.121094zm0 0" fill="#d3d3d3"/><path d="m416 232c-17.28125 12.71875-78.480469 32-128 32s-110.71875-19.28125-128-32l14.160156-27.839844c26.480469 11.441406 73.359375 23.839844 113.839844 23.839844s87.359375-12.398438 113.839844-23.839844zm0 0" fill="#d3d3d3"/><g fill="#6e83b7"><path d="m288 123.816406c7 0 11.847656 6.183594 21.632812 6.183594 6.96875 0 15.457032-5.488281 15.457032-13.472656 0-24.71875-21.441406-37.085938-37.089844-37.085938s-37.089844 12.359375-37.089844 37.085938c0 7.984375 8.480469 13.472656 15.457032 13.472656 9.785156 0 14.632812-6.183594 21.632812-6.183594zm0 0"/><path d="m248.65625 67.398438c4.433594 4.847656 8.902344 17.625 4.054688 22.058593-4.847657 4.429688-17.175782-1.175781-21.605469-6.015625-4.433594-4.839844-4.089844-12.363281.75-16.792968 4.855469-4.433594 12.375-4.097657 16.800781.75zm0 0"/><path d="m252.855469 54.703125c2.898437 8.023437 14.90625 20.90625 22.929687 18.007813 8.023438-2.894532 9.03125-20.472657 6.136719-28.503907-2.898437-8.023437-11.753906-12.183593-19.785156-9.285156-8.023438 2.902344-12.175781 11.757813-9.28125 19.78125zm0 0"/><path d="m327.34375 67.398438c-4.433594 4.847656-8.902344 17.625-4.054688 22.058593 4.847657 4.429688 17.175782-1.175781 21.605469-6.015625 4.433594-4.839844 4.089844-12.363281-.75-16.792968-4.855469-4.433594-12.375-4.097657-16.800781.75zm0 0"/><path d="m323.144531 54.703125c-2.898437 8.023437-14.90625 20.90625-22.929687 18.007813-8.023438-2.894532-9.03125-20.472657-6.136719-28.503907 2.898437-8.023437 11.753906-12.183593 19.785156-9.285156 8.023438 2.902344 12.175781 11.757813 9.28125 19.78125zm0 0"/></g><path d="m40 256h8c8.839844 0 16-7.160156 16-16v-64l16-16v-40h-80v40l16 16v64c0 8.839844 7.160156 16 16 16zm0 0" fill="#edeff1"/><path d="m72 120h-64v-8c0-4.414062 3.585938-8 8-8h48c4.414062 0 8 3.585938 8 8zm0 0" fill="#6e83b7"/><path d="m56 488c-13.230469 0-24-10.769531-24-24v-208h16v208c0 4.40625 3.59375 8 8 8s8-3.59375 8-8v-144c0-13.230469 10.769531-24 24-24h8v16h-8c-4.40625 0-8 3.59375-8 8v144c0 13.230469-10.769531 24-24 24zm0 0" fill="#6e83b7"/></svg>