<svg id="Capa_1" enable-background="new 0 0 512 512" height="512" viewBox="0 0 512 512" width="512" xmlns="http://www.w3.org/2000/svg"><g><g><path d="m413.558 512c-4.204 0-7.612-3.407-7.612-7.612v-56.66c0-4.204 3.408-7.612 7.612-7.612s7.611 3.407 7.611 7.612v56.66c0 4.205-3.407 7.612-7.611 7.612z" fill="#564e57"/></g><path d="m413.912 464.964h-.708c-13.153 0-23.815-10.662-23.815-23.815v-32.18h48.338v32.18c0 13.152-10.662 23.815-23.815 23.815z" fill="#695d69"/><g><path d="m408.033 279.98h-50.004c-12.643 0-22.893-10.249-22.893-22.893v-.681c0-12.643 10.249-22.893 22.893-22.893h50.004z" fill="#695d69"/><path d="m413.558 428.273c-33.63 0-60.892-27.262-60.892-60.892 0-15.004 3.337-29.798 9.63-43.418 7.118-15.407 13.96-35.099 17.142-58.495 8.833-64.947-16.384-115.411-26.772-133.782h121.784v235.695c0 33.63-27.262 60.892-60.892 60.892z" fill="#a0e38b"/><g><path d="m352.666 131.686c8.287 14.657 25.997 49.757 28.34 96.328 10.083 2.419 20.36 3.656 30.629 3.658h.013c8.127 0 16.152-.751 23.997-2.216 4.351-.813 8.359 2.562 8.359 6.988v130.937c0 28.373-19.406 52.214-45.669 58.973 5.113 1.316 10.486 1.985 16.026 1.914 33.47-.431 60.089-28.354 60.089-61.827v-234.755s-91.338 0-121.784 0z" fill="#8fd674"/><path d="m383.985 3.884-175.01 49.687c-3.796 1.078-7.701 1.619-11.604 1.627-4.601.009-8.25 3.961-12.663 2.49l-63.375-22.218c-3.527-1.176-2.452 6.423-3.873 9.858-5.627 13.6-8.436 23.57-9.154 48.939-.849 30.021 3.39 44.679 9.506 59.501 1.427 3.457 4.198 5.515 7.746 4.332l58.445-13.134c4.079-1.36 8.071 1.168 12.321 1.072s8.515.442 12.651 1.616l175.01 49.687c4.012 1.139 8.023 2.019 12.017 2.65 27.093 4.285 50.279-5.635 70.975-20.508 1.479-1.063 6.055.636 7.474-.505 22.647-18.191 37.549-46.116 37.549-78.365 0-66.735-63.817-114.956-128.015-96.729z" fill="#bef8a8"/><g><path d="m396.373 1.18c47.002 7.287 85.181 47.817 85.181 99.433s-38.179 92.146-85.181 99.433c59.769 9.227 115.627-36.998 115.627-99.433s-55.858-108.66-115.627-99.433z" fill="#a0e38b"/></g><circle cx="408.033" cy="100.159" fill="#695d69" r="62.866"/><g><g><g><path d="m438.479 128.49c-4.204 0-7.612-3.407-7.612-7.611v-41.44c0-4.204 3.408-7.611 7.612-7.611s7.611 3.407 7.611 7.611v41.439c0 4.204-3.408 7.612-7.611 7.612z" fill="#fff"/></g></g><g><g><path d="m408.033 128.49c-4.204 0-7.612-3.407-7.612-7.611v-41.44c0-4.204 3.408-7.611 7.612-7.611s7.611 3.407 7.611 7.611v41.439c0 4.204-3.408 7.612-7.611 7.612z" fill="#fff"/></g></g><g><g><path d="m377.587 128.49c-4.204 0-7.612-3.407-7.612-7.611v-41.44c0-4.204 3.408-7.611 7.612-7.611s7.611 3.407 7.611 7.611v41.439c0 4.204-3.408 7.612-7.611 7.612z" fill="#fff"/></g></g></g></g><g><g><path d="m53.476 107.986c-.016 0-.031 0-.047 0l-45.863-.276c-4.204-.026-7.591-3.454-7.565-7.657.025-4.188 3.428-7.566 7.611-7.566h.047l45.863.277c4.204.026 7.591 3.454 7.565 7.657-.026 4.188-3.429 7.565-7.611 7.565z" fill="#d1d9fc"/></g><g><path d="m20.607 172.974c-3.241 0-6.246-2.087-7.263-5.345-1.253-4.013.984-8.281 4.997-9.534l46.493-14.518c4.01-1.253 8.281.984 9.534 4.997s-.984 8.281-4.997 9.534l-46.493 14.518c-.755.236-1.52.348-2.271.348z" fill="#d1d9fc"/></g><g><path d="m67.711 57.688c-.781 0-1.575-.121-2.358-.376l-46.314-15.078c-3.997-1.301-6.183-5.597-4.881-9.595 1.301-3.996 5.598-6.179 9.594-4.881l46.314 15.078c3.997 1.301 6.183 5.597 4.881 9.595-1.046 3.214-4.03 5.257-7.236 5.257z" fill="#d1d9fc"/></g></g><path d="m122.137 32.461c-3.527-1.175-7.378.557-8.799 3.993-5.627 13.601-11.994 34.04-12.711 59.409-.849 30.021 6.578 54.035 12.694 68.858 1.427 3.457 5.273 5.226 8.821 4.044l61.618-20.54c4.411-1.47 9.007-2.197 13.605-2.189l.007-.006v-90.831l-.011-.008c-4.597.007-9.191-.719-13.6-2.189z" fill="#8fd674"/></g></g></svg>