<svg id="Capa_1" enable-background="new 0 0 512 512" height="512" viewBox="0 0 512 512" width="512" xmlns="http://www.w3.org/2000/svg"><g><path d="m336.151 504.896v-79.255l-15-52.103 15-82.571v-61.927c0-9.965 3.469-19.648 9.925-27.239 14.158-16.647 30.723-42.461 34.182-76.024 1.146-11.121 5.801-56.29-17.604-67.693-9.328-4.545-20.11-2.263-28.146.794-3.011 1.146-6.042-1.468-5.421-4.63 3.427-17.454-3.563-35.695-18.292-46.066-15.639-11.013-36.754-10.866-52.453.193-1.408.992-3.276.992-4.683 0-15.699-11.059-36.814-11.206-52.453-.193-14.729 10.372-21.719 28.613-18.292 46.066.621 3.161-2.41 5.775-5.421 4.63-8.036-3.058-18.818-5.339-28.146-.794-23.405 11.403-18.75 56.572-17.604 67.693 3.459 33.563 20.024 59.377 34.182 76.024 6.456 7.591 9.925 17.274 9.925 27.239v31.481l15 53.722-15 50.507v46.835l15 22.73-15 36.995v33.586c0 3.923 3.181 7.104 7.104 7.104h146.094c3.922 0 7.103-3.181 7.103-7.104z" fill="#e8ad8c"/><g><g><g><path d="m119.585 366.444c-.016 0-.031 0-.047 0l-45.863-.277c-4.204-.026-7.591-3.454-7.565-7.657.025-4.188 3.428-7.566 7.611-7.566h.047l45.863.277c4.204.026 7.591 3.454 7.565 7.657-.026 4.188-3.428 7.566-7.611 7.566z" fill="#d1d9fc"/></g><g><path d="m86.716 431.432c-3.241 0-6.246-2.087-7.263-5.345-1.253-4.013.984-8.281 4.997-9.534l46.493-14.518c4.009-1.254 8.281.984 9.534 4.997s-.984 8.281-4.997 9.534l-46.493 14.518c-.755.236-1.519.348-2.271.348z" fill="#d1d9fc"/></g><g><path d="m133.82 316.147c-.781 0-1.575-.121-2.358-.376l-46.314-15.078c-3.997-1.301-6.183-5.597-4.881-9.595 1.301-3.997 5.598-6.182 9.594-4.881l46.314 15.078c3.997 1.301 6.183 5.597 4.881 9.595-1.046 3.214-4.029 5.257-7.236 5.257z" fill="#d1d9fc"/></g></g><g><g><path d="m392.414 366.444c-4.182 0-7.585-3.378-7.611-7.566-.025-4.203 3.362-7.631 7.566-7.657l45.863-.277h.047c4.182 0 7.585 3.378 7.611 7.566.025 4.203-3.362 7.631-7.566 7.657l-45.863.277c-.015 0-.031 0-.047 0z" fill="#d1d9fc"/></g><g><path d="m425.283 431.432c-.751 0-1.515-.112-2.271-.348l-46.493-14.518c-4.013-1.253-6.25-5.521-4.997-9.534s5.521-6.252 9.534-4.997l46.493 14.518c4.013 1.253 6.25 5.521 4.997 9.534-1.016 3.258-4.021 5.345-7.263 5.345z" fill="#d1d9fc"/></g><g><path d="m378.179 316.147c-3.206 0-6.189-2.043-7.236-5.257-1.301-3.998.884-8.293 4.881-9.595l46.314-15.078c3.998-1.299 8.293.884 9.595 4.881 1.301 3.998-.884 8.293-4.881 9.595l-46.314 15.078c-.783.255-1.578.376-2.359.376z" fill="#d1d9fc"/></g></g></g><g><path d="m362.654 58.083c-9.328-4.545-20.111-2.263-28.146.794-.185.07-.37.126-.555.168 21.41 12.763 16.976 55.896 15.859 66.73-3.459 33.564-20.024 59.378-34.182 76.024-6.456 7.591-9.925 17.275-9.925 27.239v275.856c0 3.924-3.181 7.104-7.104 7.104h30.446c3.923 0 7.104-3.18 7.104-7.104v-79.255l-15-46.456 15-88.219v-61.924c0-9.965 3.469-19.649 9.925-27.239 14.158-16.647 30.723-42.46 34.182-76.024 1.146-11.122 5.801-56.291-17.604-67.694z" fill="#e19974"/></g><g fill="#695d69"><g><ellipse cx="187.034" cy="104.105" rx="13.002" ry="17.242"/><ellipse cx="324.966" cy="104.105" rx="13.002" ry="17.242"/></g><g><ellipse cx="228.264" cy="64.664" rx="15.196" ry="20.152"/><ellipse cx="283.736" cy="64.664" rx="15.196" ry="20.152"/></g><path d="m212.386 140.374c15.464-39.756 71.764-39.756 87.229 0 .102.262.202.525.3.79 4.183 11.252 8.498 26.465.296 36.961-8.133 10.408-20.586 10.512-30.768 5.268-8.396-4.325-18.489-4.325-26.885 0-10.182 5.245-22.635 5.14-30.768-5.268-8.202-10.495-3.887-25.709.296-36.961.098-.265.198-.528.3-.79z"/></g><g><path d="m336.151 365.915-160.302 45.669v59.726l160.302-45.669z" fill="#e5edfc"/><path d="m305.705 434.315 30.446-8.674v-59.726l-30.446 8.674z" fill="#d1d9fc"/><path d="m336.151 410.418-160.302-45.669v-59.726l160.302 45.669z" fill="#d1d9fc"/><path d="m305.705 401.744 30.446 8.674v-59.726l-30.446-8.674z" fill="#b6c9fd"/><path d="m336.151 350.692-160.302-30.446v-59.726l160.302 30.446z" fill="#e5edfc"/><path d="m305.705 344.91 30.446 5.782v-59.726l-30.446-5.782z" fill="#d1d9fc"/></g></g></svg>