<svg height="480pt" viewBox="0 0 480 480" width="480pt" xmlns="http://www.w3.org/2000/svg"><path d="m280 80h-256c-8.839844 0-16-7.160156-16-16v-48c0-8.839844 7.160156-16 16-16h256c8.839844 0 16 7.160156 16 16v48c0 8.839844-7.160156 16-16 16zm0 0" fill="#6e83b7"/><path d="m272 80v18.742188c0 8.488281 3.367188 16.625 9.375 22.625l13.257812 13.257812c6 6 9.375 14.144531 9.375 22.621094v274.753906c0 26.511719-21.488281 48-48 48h-208.007812c-26.511719 0-48-21.488281-48-48v-274.742188c0-8.488281 3.367188-16.625 9.375-22.625l13.257812-13.257812c6-6.007812 9.367188-14.144531 9.367188-22.632812v-18.742188zm0 0" fill="#edeff1"/><path d="m281.375 121.375c-2.71875-2.71875-4.816406-5.917969-6.382812-9.351562-16.992188.121093-32.777344 9.273437-41.273438 23.984374-6.40625 11.105469-8.109375 24.03125-4.796875 36.425782 3.316406 12.382812 11.261719 22.734375 22.367187 29.152344l52.710938 30.421874v-74.761718c0-8.484375-3.367188-16.621094-9.375-22.621094zm0 0" fill="#d3d3d3"/><path d="m32 80h240v16h-240zm0 0" fill="#d3d3d3"/><path d="m40 16h16v48h-16zm0 0" fill="#466089"/><path d="m96 16h16v48h-16zm0 0" fill="#466089"/><path d="m144 16h16v48h-16zm0 0" fill="#466089"/><path d="m192 16h16v48h-16zm0 0" fill="#466089"/><path d="m248 16h16v48h-16zm0 0" fill="#466089"/><path d="m0 176h304v240h-304zm0 0" fill="#ffe352"/><path d="m304 292.230469c-13.28125 21.027343-24 43.089843-24 59.769531 0 22.320312 9.207031 42.511719 24 57.03125zm0 0" fill="#ffb236"/><path d="m251.289062 201.574219 52.710938 30.433593v-56.007812h-73.734375c3.804687 10.753906 11.039063 19.808594 21.023437 25.574219zm0 0" fill="#ffb236"/><g fill="#6e83b7"><path d="m152 357.695312c11.671875 0 19.742188 10.304688 36.054688 10.304688 11.617187 0 25.753906-9.144531 25.753906-22.449219 0-41.207031-35.738282-61.808593-61.808594-61.808593s-61.808594 20.601562-61.808594 61.808593c0 13.304688 14.136719 22.449219 25.753906 22.449219 16.3125 0 24.382813-10.304688 36.054688-10.304688zm0 0"/><path d="m86.433594 263.664062c7.382812 8.070313 14.839844 29.375 6.757812 36.761719-8.070312 7.382813-28.625-1.953125-36.007812-10.035156-7.382813-8.070313-6.816406-20.605469 1.257812-27.992187 8.078125-7.375 20.605469-6.8125 27.992188 1.265624zm0 0"/><path d="m93.425781 242.503906c4.832031 13.375 24.839844 34.839844 38.214844 30.007813s15.054687-34.128907 10.230469-47.503907c-4.832032-13.375-19.589844-20.304687-32.96875-15.480468-13.375 4.839844-20.308594 19.601562-15.476563 32.976562zm0 0"/><path d="m217.566406 263.664062c-7.382812 8.070313-14.839844 29.375-6.757812 36.761719 8.070312 7.382813 28.625-1.953125 36.007812-10.035156 7.382813-8.070313 6.816406-20.605469-1.257812-27.992187-8.078125-7.375-20.605469-6.8125-27.992188 1.265624zm0 0"/><path d="m210.574219 242.503906c-4.832031 13.375-24.839844 34.839844-38.214844 30.007813s-15.054687-34.128907-10.230469-47.503907c4.832032-13.375 19.589844-20.304687 32.96875-15.480468 13.375 4.839844 20.308594 19.601562 15.476563 32.976562zm0 0"/></g><path d="m317.640625 230.648438-62.351563-36c-19.128906-11.046876-25.6875-35.511719-14.640624-54.640626 11.046874-19.128906 35.511718-25.6875 54.640624-14.640624l62.351563 36zm0 0" fill="#edeff1"/><path d="m397.640625 230.648438 62.351563-36c19.128906-11.046876 25.6875-35.511719 14.640624-54.640626-11.046874-19.128906-35.511718-25.6875-54.640624-14.640624l-62.351563 36zm0 0" fill="#ffe352"/><path d="m432 352c0 39.769531-32.230469 72-72 72s-72-32.230469-72-72 72-120 72-120 72 80.230469 72 120zm0 0" fill="#ffe352"/><path d="m360 400c-17.648438 0-32-14.351562-32-32v-32c0-17.648438 14.351562-32 32-32s32 14.351562 32 32h-16c0-8.824219-7.175781-16-16-16s-16 7.175781-16 16v32c0 8.824219 7.175781 16 16 16s16-7.175781 16-16h16c0 17.648438-14.351562 32-32 32zm0 0" fill="#ffb236"/></svg>