<svg height="497pt" viewBox="0 -4 497.728 497" width="497pt" xmlns="http://www.w3.org/2000/svg"><path d="m480 296.363281h-9.753906c-3.671875 0-6.871094 2.496094-7.757813 6.058594l-5.390625 21.582031c-5.355468 21.367188-24.546875 36.359375-46.578125 36.359375h-19.359375c-1.289062-8.207031-4.089844-16.136719-8.433594-23.289062l-150.726562-248.710938h-40v-88h-64c-15.503906 0-30.046875 7.488281-39.054688 20.105469l-25.648437 35.894531h-39.296875c-8.839844 0-16 7.160157-16 16v24c0 26.511719 21.488281 48 48 48h37.335938l26.664062 40v224h-16c-8.839844 0-16 7.160157-16 16v8c0 8.839844 7.160156 16 16 16h224c26.855469 0 49.808594-16.550781 59.304688-40h20.695312c44.183594 0 80-35.816406 80-80v-24c0-4.414062-3.585938-8-8-8zm0 0" fill="#edeff1"/><path d="m328 448.363281h-128c-13.230469 0-24-10.765625-24-24 0-13.230469 10.769531-24 24-24h26.648438l-15.113282-13.167969c-13.398437-13.375-20.40625-30.65625-20.136718-49.046874.28125-18.375 7.816406-35.457032 21.21875-48.082032 26.230468-24.703125 69.125-23.269531 95.589843 3.203125l32.839844 32.839844-11.3125 11.3125-32.839844-32.84375c-20.414062-20.421875-53.292969-21.710937-73.308593-2.863281-10.226563 9.632812-15.976563 22.65625-16.1875 36.671875-.207032 14.023437 5.136718 27.203125 15.050781 37.121093l30.808593 26.832032c2.511719 2.191406 3.398438 5.710937 2.230469 8.832031s-4.152343 5.191406-7.488281 5.191406h-48c-4.40625 0-8 3.585938-8 8 0 4.417969 3.59375 8 8 8h128c4.40625 0 8-3.582031 8-8 0-4.414062-3.59375-8-8-8h-8v-16h8c13.230469 0 24 10.769531 24 24 0 13.234375-10.769531 24-24 24zm0 0" fill="#d3d3d3"/><path d="m188.328125 88.363281c-10.191406 32.457031-40.503906 56-76.328125 56h-18.664062l10.664062 16h16c44.640625 0 82.144531-30.664062 92.839844-72zm0 0" fill="#6e83b7"/><path d="m204.488281 144.363281h-28.488281c-18.367188 0-32.96875-15.429687-31.953125-33.773437l4.449219-80c.945312-16.960938 14.96875-30.226563 31.953125-30.226563h19.941406c17.042969 0 31.089844 13.34375 31.960937 30.359375l4.105469 80c.925781 18.296875-13.648437 33.640625-31.96875 33.640625zm0 0" fill="#d3d3d3"/><path d="m32 64.363281v-8h-8c-8.839844 0-16 7.160157-16 16v8h8c8.839844 0 16-7.160156 16-16zm0 0" fill="#d3d3d3"/><path d="m466.65625 212.660156-41.503906-24.902344c-12.441406-7.457031-26.664063-11.394531-41.152344-11.394531h-270.273438c-14.488281 0-28.710937 3.9375-41.160156 11.402344l-41.503906 24.894531c-19.160156 11.511719-31.0625 32.535156-31.0625 54.878906v220.824219h497.726562v-220.824219c0-22.34375-11.902343-43.367187-31.070312-54.878906zm-64.929688-.832031v244.535156h-49.726562v-248h32c6.097656 0 12.097656 1.234375 17.726562 3.464844zm-137.726562-3.464844h56v248h-56zm-32 248h-56v-248h56zm-88-248v248h-48v-244.527343c5.632812-2.238282 11.632812-3.472657 17.726562-3.472657zm-112 59.175781c0-11.167968 5.953125-21.6875 15.535156-27.445312l16.464844-9.875v226.144531h-32zm433.726562 188.824219h-32v-226.144531l16.464844 9.882812c9.585938 5.757813 15.535156 16.269532 15.535156 27.445313zm0 0" fill="#6e83b7"/></svg>