<svg id="Capa_1" enable-background="new 0 0 512 512" height="512" viewBox="0 0 512 512" width="512" xmlns="http://www.w3.org/2000/svg"><g><path d="m86.354 504.12c1.274-10.346 3.033-21.718 5.479-33.94 1.709-8.541 11.433-12.543 13.883-21.855 3.52-13.381.197-32.452 5.593-47.124 2.312-6.285 4.814-12.672 7.523-19.147 4.164-9.95 8.533-19.433 13.025-28.446 2.946-5.911 9.119-8.472 12.147-13.978 4.961-9.021 6.824-20.645 11.836-28.573 7.11-11.247 14.166-21.39 20.87-30.42h158.58c18.712 25.201 33.919 59.262 51.636 101.603 19.734 47.162 34.728 89.466 38.72 121.881l.327 3.439c.226 2.382-1.647 4.441-4.039 4.441h-331.811c-2.366 0-4.23-2.017-4.045-4.376z" fill="#e5edfc"/><path d="m425.646 504.12c-1.24-10.069-2.939-21.11-5.284-32.961-1.761-8.901-8.067-18.252-10.636-27.998-4.108-15.587-5.17-32.173-11.868-49.466-1.49-3.846-3.052-7.728-4.69-11.642-4.164-9.951-8.533-19.434-13.025-28.447-4.051-8.127-12.985-14.576-17.173-21.936-3.849-6.765-2.945-14.501-6.81-20.614-7.11-11.247-14.166-21.39-20.87-30.42h-30.43c18.712 25.201 40.161 59.076 57.878 101.417 19.734 47.161 28.486 89.651 32.478 122.066l.327 3.439c.226 2.382-1.647 4.441-4.039 4.441h30.43c2.392 0 4.265-2.059 4.039-4.441z" fill="#d1d9fc"/><g><g><g><g><path d="m306.427 61.038c7.502-11.426 22.838-31.223 49.184-45.339 38.541-20.651 76.772-16.354 95.319-12.428 5.502 1.165 9.664 5.677 10.351 11.259 2.024 16.44-8.818 38.455-14.957 64.733-10.389 44.474-22.981 74.668-35.381 87.822-34.839-35.348-69.677-70.698-104.516-106.047z" fill="#e5edfc"/><path d="m461.28 14.53c-.687-5.582-4.849-10.095-10.351-11.259-10.408-2.203-27.017-4.522-46.4-2.484 6.228.635 11.641 1.568 15.97 2.484 5.502 1.164 9.664 5.677 10.351 11.259 2.024 16.439 2.678 39.441-3.46 65.719-7.196 30.805-20.964 54.28-32.868 70.175 5.474 5.554 10.947 11.108 16.42 16.661 12.4-13.154 30.493-42.608 40.882-87.082 6.139-26.277 11.48-49.033 9.456-65.473z" fill="#d1d9fc"/><path d="m411.88 166.083c12.64-13.599 29.81-42.694 39.945-86.078 6.139-26.278 11.48-49.035 9.456-65.474-14.614 8.608-37.085 24.313-57.297 50.554-17.301 22.462-26.511 44.287-31.508 59.345l2.554 6.217c11.669 11.84 23.338 23.681 35.007 35.521z" fill="#fdd5d5"/><path d="m427.39 80.25c-7.196 30.805-20.964 54.28-32.868 70.175 5.171 5.247 10.343 10.495 15.515 15.742l1.843-.085c0-.001.001-.001.001-.001 12.64-13.599 35.805-42.449 45.939-85.831 6.139-26.278 5.484-49.28 3.46-65.719-7.908 4.658-18.117 11.4-29.024 20.759.171 13.137-.996 28.395-4.866 44.96z" fill="#f9b1b1"/></g><g><path d="m205.573 61.038c-5.993-9.128-20.881-17.668-38.491-30.316-4.284-3.077-5.064-11.975-10.155-14.733-.179-.097-.358-.194-.538-.29-38.541-20.651-76.772-16.354-95.319-12.428-5.502 1.165-9.663 5.678-10.35 11.259-2.024 16.44 2.078 37.813 8.217 64.091 10.389 44.474 29.721 75.31 42.121 88.465 34.838-35.349 69.676-70.699 104.515-106.048z" fill="#e5edfc"/><path d="m70.838 106.874c11.859 29.761 20.479 49.879 30.219 60.212 34.838-35.349 69.676-70.699 104.515-106.048-7.451-11.348-22.634-30.948-48.648-45.044-17.067 7.955-32.937 18.026-47.142 30.073-3.459 2.933-6.784 5.952-9.975 9.052-15.889 15.436-20.092 32.99-28.969 51.755z" fill="#d1d9fc"/><path d="m139.524 124.429c-4.998-15.058-14.207-36.883-31.508-59.345-20.212-26.241-42.683-41.946-57.296-50.554-2.024 16.439-2.678 39.441 3.46 65.719 2.228 9.539 5.087 18.375 8.325 26.502 2.221 5.573 8.894 6.011 11.391 10.914 10.839 21.28 19.246 41.022 27.162 49.42 11.732-11.904 23.463-23.807 35.195-35.711z" fill="#fdd5d5"/><path d="m139.524 124.429c-4.998-15.058-14.207-36.883-31.508-59.345-2.701-3.506-5.442-6.818-8.199-9.956-15.888 15.436-28.432 32.857-37.308 51.622 11.859 29.761 28.809 50.004 38.548 60.336 11.732-11.904 23.463-23.807 35.195-35.711z" fill="#f9b1b1"/></g></g><path d="m425.991 178.2c0 56.495-29.213 97.15-83.388 123.036-25.783 12.32-53.176 22.41-84.879 22.41-34.859 0-69.763-5.136-97.219-19.823-49.979-26.734-83.18-73.975-83.18-127.793 0-83.383 79.7-150.978 178.015-150.978s170.651 69.766 170.651 153.148z" fill="#e5edfc"/><path d="m433.356 176.031c0-47.726-26.11-90.279-66.876-117.946-11.219-7.614-24.98-10.21-38.181-15.367-22.636-8.842-44.754-16.852-71.31-16.852-5.126 0-11.847-.619-16.863-.259 45.596 3.274 86.296 21.121 115.597 48.029 11.606 10.658 49.644 48.904 47.203 102.394-3.287 72.038-77.882 111.098-90.794 117.859-68.307 35.767-136.456 14.965-151.623 9.924.001 0 .001 0 .002.001 27.456 14.687 59.97 23.193 94.83 23.193 98.315.001 178.015-67.594 178.015-150.976z" fill="#d1d9fc"/><g><g><path d="m345.007 160.506c-4.202 0-7.607-3.406-7.607-7.607v-20.72c0-4.202 3.406-7.607 7.607-7.607s7.607 3.406 7.607 7.607v20.72c.001 4.202-3.405 7.607-7.607 7.607z" fill="#564e57"/></g><g><path d="m166.993 160.506c-4.202 0-7.607-3.406-7.607-7.607v-20.72c0-4.202 3.406-7.607 7.607-7.607 4.202 0 7.607 3.406 7.607 7.607v20.72c0 4.202-3.405 7.607-7.607 7.607z" fill="#564e57"/></g></g><path d="m298.025 239.078c-4.202 0-7.607 3.406-7.607 7.607 0 7.392-6.014 13.404-13.405 13.404s-13.405-6.013-13.405-13.404v-33.585c0-4.202-3.406-7.607-7.607-7.607-4.202 0-7.607 3.406-7.607 7.607v33.586c0 7.392-6.014 13.404-13.405 13.404s-13.405-6.013-13.405-13.404c0-4.202-3.406-7.607-7.607-7.607-4.202 0-7.607 3.406-7.607 7.607 0 15.781 12.839 28.619 28.62 28.619 8.299 0 15.78-3.553 21.013-9.215 5.232 5.661 12.714 9.215 21.013 9.215 15.781 0 28.62-12.839 28.62-28.619-.003-4.203-3.409-7.608-7.611-7.608z" fill="#564e57"/><path d="m248.625 225.656-21.953-21.952c-5.133-5.133-3.567-13.776 3.015-16.841 6.844-3.186 16.068-6.024 27.143-5.876 10.38.139 19.035 2.856 25.543 5.897 6.551 3.061 8.064 11.699 2.952 16.813-7.32 7.319-14.64 14.639-21.96 21.959-4.072 4.07-10.67 4.07-14.74 0z" fill="#695d69"/></g><g><g><g><path d="m478.6 230.835c-1.097 0-2.21-.238-3.266-.741-18.581-8.848-47.984-18.545-82.544-14.485-10.44 1.224-20.824 3.647-30.863 7.201-3.963 1.405-8.308-.673-9.71-4.633-1.402-3.961.673-8.308 4.633-9.71 11.107-3.932 22.601-6.613 34.166-7.97 30.204-3.546 61.624 1.939 90.859 15.86 3.793 1.806 5.404 6.345 3.598 10.139-1.303 2.738-4.03 4.339-6.873 4.339z" fill="#564e57"/></g><g><path d="m464.927 284.868c-1.585.001-3.183-.493-4.551-1.516-13.999-10.469-36.867-23.451-66.312-25.839-8.895-.722-17.939-.438-26.884.847-4.164.593-8.015-2.291-8.611-6.449-.597-4.159 2.291-8.015 6.449-8.611 10.065-1.443 20.252-1.766 30.275-.952 26.164 2.122 51.821 12.088 74.194 28.82 3.364 2.516 4.052 7.284 1.535 10.648-1.49 1.998-3.779 3.052-6.095 3.052z" fill="#564e57"/></g></g><g><g><path d="m33.4 230.835c-2.843 0-5.57-1.601-6.873-4.339-1.807-3.794-.195-8.334 3.598-10.139 29.236-13.922 60.65-19.406 90.86-15.86 11.564 1.357 23.058 4.038 34.165 7.97 3.96 1.403 6.034 5.749 4.633 9.71-1.403 3.961-5.749 6.033-9.71 4.633-10.038-3.554-20.422-5.977-30.862-7.201-34.56-4.06-63.964 5.637-82.545 14.485-1.056.503-2.17.741-3.266.741z" fill="#564e57"/></g><g><path d="m47.073 284.868c-2.317 0-4.604-1.054-6.098-3.051-2.517-3.365-1.829-8.132 1.535-10.648 22.374-16.732 48.03-26.698 74.194-28.82 10.025-.815 20.21-.492 30.275.952 4.158.596 7.047 4.452 6.449 8.611-.596 4.158-4.46 7.049-8.611 6.449-8.945-1.283-17.99-1.569-26.884-.847-29.444 2.387-52.312 15.369-66.312 25.839-1.365 1.022-2.964 1.515-4.548 1.515z" fill="#564e57"/></g></g></g></g><path d="m255.341 25.053c-20.33 0-39.86 2.898-58.059 8.221h-.001c2.185 5.501 19.063 46.016 62.597 59.212 37.539 11.379 79.751-2.146 106.595-34.393-6.664-4.523-16.293-5.31-23.69-8.996-26.41-13.157-54.598-24.044-87.442-24.044z" fill="#695d69"/><path d="m366.473 58.094c-.02-.013-.039-.027-.059-.041-30.449-20.647-69.058-33-111.074-33-5.126 0-10.199.194-15.215.555 44.34 3.184 84.047 20.152 113.147 45.83 4.706-4.006 9.133-8.457 13.201-13.344z" fill="#564e57"/><path d="m397.853 393.697c-14.901 3.579-26.715 14.093-30.488 27.43-6.375 22.533 12.414 45.274 32.897 50.335 7.49 1.851 14.465 1.154 20.099-.303-4.577-23.134-11.622-49.358-22.508-77.462z" fill="#695d69"/><path d="m397.853 393.697c-10.189 2.447-18.93 8.139-24.648 15.757 7.101 20.488 12.194 39.793 15.854 57.405 3.571 2.079 7.358 3.653 11.204 4.603 7.49 1.851 14.465 1.154 20.099-.303-4.578-23.134-11.623-49.358-22.509-77.462z" fill="#564e57"/><path d="m91.836 470.18c14.128 8.016 31.099 7.14 42.576-2.014 11.039-8.805 14.587-23.344 12.33-35.092-3.059-15.922-17.185-28.831-35.429-31.871-9.15 24.881-15.312 48.163-19.477 68.977z" fill="#695d69"/><circle cx="256" cy="436.93" fill="#ffc344" r="30.155"/><path d="m256 406.777c-5.551 0-10.747 1.507-15.215 4.123 8.935 5.234 14.94 14.928 14.94 26.031s-6.005 20.797-14.94 26.031c4.467 2.617 9.664 4.123 15.215 4.123 16.654 0 30.155-13.5 30.155-30.154s-13.501-30.154-30.155-30.154z" fill="#feb237"/><path d="m256 416.147c50.785 0 95.927-24.614 124.132-62.534-7.775-15.598-15.909-29.785-23.98-42.551-20.024 34.514-57.376 57.729-100.152 57.729s-80.127-23.214-100.152-57.729c-8.071 12.767-16.205 26.954-23.98 42.552 28.205 37.92 73.347 62.533 124.132 62.533z" fill="#fd4755"/><path d="m380.132 353.613c-7.774-15.598-15.909-29.785-23.979-42.551-4.754 8.194-10.495 15.742-17.043 22.503 7.227 12.929 14.311 27.001 20.94 42.22 7.378-6.726 14.113-14.147 20.082-22.172z" fill="#fb2b3a"/></g></svg>