<svg height="480pt" viewBox="0 -80 480 480" width="480pt" xmlns="http://www.w3.org/2000/svg"><path d="m312 208.003906h-.183594c5.0625-6.707031 8.183594-14.953125 8.183594-24 0-22.089844-17.910156-40-40-40h-8.183594c5.0625-6.707031 8.183594-14.953125 8.183594-24v-64c0-4.417968-3.585938-8-8-8h-5.191406c-1.816406 0-3.578125.613282-5 1.75l-29.039063 23.230469c-5.679687 4.546875-12.730469 7.019531-19.992187 7.019531h-68.777344c-22.089844 0-40 17.910156-40 40 0 9.046875 3.121094 17.292969 8.183594 24h-8.183594c-22.089844 0-40 17.910156-40 40 0 9.046875 3.121094 17.292969 8.183594 24h-.183594c-22.089844 0-40 17.910156-40 40 0 22.085938 17.910156 40 40 40h240c22.089844 0 40-17.914062 40-40 0-22.089844-17.910156-40-40-40zm0 0" fill="#ffe352"/><path d="m400 224.003906h-40l-345.640625 61.445313c-8.304687 1.472656-14.359375 8.703125-14.359375 17.144531 0 9.617188 7.792969 17.410156 17.40625 17.410156h350.59375c17.671875 0 32-14.328125 32-32l15.9375-10.625c5.253906-3.503906 11.429688-5.375 17.75-5.375h46.3125v-48zm0 0" fill="#6e83b7"/><path d="m416 277.339844v-53.335938h-16v64l15.9375-10.625zm0 0" fill="#466089"/><path d="m290.34375 2.347656c3.128906-3.128906 8.191406-3.128906 11.3125 0 3.128906 3.125 8.785156 13.847656 5.65625 16.964844-3.128906 3.128906-13.847656-2.535156-16.96875-5.65625-3.128906-3.117188-3.128906-8.191406 0-11.308594zm0 0" fill="#edeff1"/><path d="m296 30.625c-3.128906-3.128906-3.128906-8.191406 0-11.3125l11.3125-11.308594c3.128906-3.128906 8.191406-3.128906 11.3125 0 3.128906 3.125 3.128906 8.191406 0 11.308594l-11.3125 11.3125c-3.121094 3.128906-8.183594 3.128906-11.3125 0zm0 0" fill="#466089"/><path d="m324.289062 36.289062c-3.128906 3.128907-8.191406 3.128907-11.3125 0-3.128906-3.128906-8.785156-13.847656-5.65625-16.96875 3.128907-3.125 13.847657 2.539063 16.96875 5.65625 3.117188 3.121094 3.117188 8.183594 0 11.3125zm0 0" fill="#edeff1"/><path d="m35.710938 109.65625c-3.125-3.125-3.125-8.191406 0-11.308594 3.128906-3.128906 13.847656-8.785156 16.96875-5.65625 3.128906 3.125-2.535157 13.847656-5.65625 16.964844-3.121094 3.128906-8.183594 3.128906-11.3125 0zm0 0" fill="#edeff1"/><path d="m64 104.003906c-3.128906 3.125-8.191406 3.125-11.3125 0l-11.3125-11.3125c-3.128906-3.128906-3.128906-8.195312 0-11.3125 3.128906-3.128906 8.191406-3.128906 11.3125 0l11.3125 11.3125c3.128906 3.117188 3.128906 8.183594 0 11.3125zm0 0" fill="#466089"/><path d="m69.65625 75.714844c3.128906 3.128906 3.128906 8.191406 0 11.3125-3.128906 3.117187-13.847656 8.78125-16.96875 5.65625-3.128906-3.128906 2.535156-13.847656 5.65625-16.96875s8.191406-3.121094 11.3125 0zm0 0" fill="#edeff1"/></svg>