<svg id="Capa_1" enable-background="new 0 0 512 512" height="512" viewBox="0 0 512 512" width="512" xmlns="http://www.w3.org/2000/svg"><g><path d="m75.512 504.388c4.247-30.232 13.559-69.861 34.554-113.846 11.891-24.912 25.363-46.681 38.686-65.26 7.797-10.872 21.727-9.661 29.076-18.337l159.073-1.411c19.908 23.504 44.501 51.222 63.35 90.711 20.995 43.986 27.112 77.472 31.359 107.705l1.591 2.727c.274 2.408-1.44 3.636-3.864 3.636l-26.968 1.687h-323.203c-2.438 0-4.327-2.135-4.029-4.555z" fill="#e8ad8c"/><path d="m436.848 507.482-.352-3.093c-4.247-30.232-13.559-69.861-34.554-113.846-11.891-24.912-25.363-46.681-38.686-65.26-7.797-10.872-21.147-15.42-28.497-24.097l-24.842-5.231c19.908 23.504 42.729 55.098 61.579 94.587 20.995 43.986 30.307 83.614 34.554 113.846l.352 3.093c.274 2.408-1.61 4.518-4.033 4.518h30.446c2.424.001 4.307-2.109 4.033-4.517z" fill="#e19974"/><path d="m281.192 403.612c0 17.375-7.812 28.057-25.188 28.057-5.523 0-10.713 1.98-15.225-.519-9.681-5.364-16.235-15.686-16.235-27.538 0-17.375 14.085-31.461 31.461-31.461s25.187 14.086 25.187 31.461z" fill="#fd4755"/><path d="m256.005 372.152c-5.523 0-10.711 1.428-15.223 3.928 9.681 5.364 16.238 15.681 16.238 27.533s-6.556 22.169-16.238 27.533c4.512 2.5 9.7 3.928 15.223 3.928 17.375 0 31.461-14.086 31.461-31.461 0-17.376-14.086-31.461-31.461-31.461z" fill="#fb2b3a"/><path d="m256.004 383.652c44.965 0 84.494-23.244 107.248-58.367-7.795-10.87-17.331-14.89-24.679-23.565l-7.082-5.765c-14.351 27.016-42.764 45.422-75.487 45.422s-61.137-18.406-75.487-45.422h-8.872c-7.348 8.675-15.093 18.46-22.889 29.33 22.754 35.123 62.283 58.367 107.248 58.367z" fill="#ffc344"/><path d="m346.685 345.839c6.197-6.253 11.76-13.135 16.567-20.555-7.795-10.87-15.541-20.655-22.889-29.33h-8.872c-2.755 5.187-6.033 10.053-9.757 14.536 8.214 10.525 16.669 22.321 24.951 35.349z" fill="#feb237"/><g><path d="m256.668 358.637h-1.327c-24.642 0-44.618-19.976-44.618-44.618v-76.391h90.563v76.391c0 24.642-19.976 44.618-44.618 44.618z" fill="#fd4755"/><path d="m256.005 291.883c0 24.093-19.532 43.625-43.625 43.625-6.374-.721-19.142-3.125-30.848-12.778-18.235-15.037-21.132-37.142-21.372-48.018-.235-10.686-2.678-21.259-7.707-30.691-3.39-6.356-7.743-12.315-12.946-17.714-23.112-23.98-37.085-55.173-37.085-89.281 0-70.947 60.434-129.301 137.88-136.319 5.163-.468 15.067 1.422 20.368 1.422 84.821 0 139.583 60.863 139.583 136.54 0 34.108-8.098 62.522-31.211 86.502-5.204 5.399-9.852 11.941-13.241 18.297-5.03 9.431-7.71 20.853-7.945 31.539-.239 10.876-3.432 28.54-21.668 43.576-11.705 9.652-20.831 13.001-27.205 13.723-5.837 0-10.76 2.054-15.849-.026-15.915-6.504-27.129-22.141-27.129-40.397z" fill="#e8ad8c"/><g><path d="m256.005 0c-5.137 0-10.215.23-15.223.669 9.785 2.514 72.498 19.74 103.585 82.185 29.413 59.08 14.329 126.12-2.31 143.452-1.645 1.714-7.673 7.826-12.946 17.715-5.03 9.431-7.472 20.004-7.707 30.69-.239 10.876-3.136 32.982-21.371 48.018-5.666 4.672-11.575 7.635-16.893 9.542 5.089 2.08 10.654 3.235 16.491 3.235 6.374-.722 19.142-3.125 30.848-12.778 18.235-15.037 21.132-37.142 21.371-48.018.235-10.686 2.678-21.259 7.707-30.69 3.389-6.356 7.743-12.315 12.946-17.715 23.112-23.98 37.085-55.173 37.085-89.28-.001-75.676-68.762-137.025-153.583-137.025z" fill="#e19974"/></g><g><g><path d="m315.862 126.859c-4.204 0-7.612-3.407-7.612-7.611v-18.18c0-4.204 3.407-7.611 7.612-7.611s7.611 3.407 7.611 7.611v18.18c0 4.204-3.407 7.611-7.611 7.611z" fill="#564e57"/></g><g><path d="m196.148 126.859c-4.204 0-7.611-3.407-7.611-7.611v-18.18c0-4.204 3.407-7.611 7.611-7.611s7.611 3.407 7.611 7.611v18.18c.001 4.204-3.407 7.611-7.611 7.611z" fill="#564e57"/></g></g><path d="m341.44 23.143c17.335 41.339 22.593 74.93 24.114 98.311 1.144 17.587.404 32.934 6.606 54.731 5.118 17.99 12.798 32.759 20.219 44.193 4.453 6.861 14.124 7.793 19.766 1.871 20.818-21.849 41.637-43.698 62.455-65.547 18.594-19.514 21.057-49.533 5.496-71.542-.12-.17-.24-.339-.362-.509-43.745-61.228-126.294-61.632-138.294-61.508z" fill="#c86d36"/><path d="m480.096 85.161c-.12-.169-.241-.339-.362-.509-43.745-61.229-126.295-61.633-138.294-61.509.32.763.627 1.518.939 2.276 31.256 4.606 77.719 18.377 106.909 59.233.121.17.242.339.362.509 15.561 22.009 13.098 52.027-5.496 71.542-18.429 19.341-36.857 38.682-55.286 58.023 1.169 1.963 2.343 3.854 3.51 5.653 4.453 6.861 14.124 7.793 19.766 1.871 20.818-21.849 41.637-43.698 62.455-65.547 18.595-19.515 21.058-49.533 5.497-71.542z" fill="#ac5e2e"/><path d="m170.56 23.143c-17.335 41.339-22.593 74.93-24.114 98.311-1.144 17.587-.404 32.934-6.606 54.731-5.118 17.99-12.798 32.759-20.219 44.193-4.453 6.861-14.124 7.793-19.766 1.871-20.818-21.849-41.637-43.698-62.455-65.547-18.594-19.514-21.057-49.533-5.496-71.542.12-.17.24-.339.362-.509 43.745-61.228 126.294-61.632 138.294-61.508z" fill="#c86d36"/><path d="m139.175 25.419c-16.58 40.294-21.682 73.086-23.175 96.036-1.144 17.587-.404 32.934-6.606 54.731-4.313 15.16-10.445 28.022-16.709 38.54 2.39 2.508 4.779 5.016 7.169 7.524 5.643 5.922 15.313 4.99 19.766-1.871 7.421-11.435 15.101-26.204 20.219-44.193 6.201-21.797 5.461-37.144 6.606-54.731 1.521-23.382 6.779-56.973 24.114-98.311-3.992-.042-15.799-.022-31.384 2.275z" fill="#ac5e2e"/><path d="m247.853 268.952-24.267-24.267c-5.674-5.674-3.943-15.229 3.332-18.616 7.565-3.522 17.761-6.659 30.003-6.495 11.474.154 21.041 3.157 28.234 6.519 7.241 3.384 8.914 12.933 3.263 18.585-8.091 8.091-16.183 16.182-24.274 24.274-4.499 4.499-11.793 4.499-16.291 0z" fill="#695d69"/></g></g></svg>