<svg height="480pt" viewBox="0 0 480 480" width="480pt" xmlns="http://www.w3.org/2000/svg"><path d="m480 160h-160v-160h-160v160h-160v160h160v160h160v-160h160zm0 0" fill="#80d6fb"/><path d="m272 176 95.511719-150.089844c9.230469-14.503906 28.230469-19.207031 43.160156-10.671875 15.96875 9.128907 21.070313 29.746094 11.191406 45.265625l-93.863281 147.496094zm0 0" fill="#ffb0aa"/><path d="m294.503906 170.433594 86.503906-135.929688c2.992188-4.703125 8.121094-7.511718 13.710938-7.511718 2.832031 0 5.527344.71875 8.015625 2.144531 3.882813 2.222656 6.617187 5.832031 7.691406 10.175781 1.078125 4.34375.34375 8.824219-2.066406 12.597656l-85.664063 134.625zm0 0" fill="#ff7b7b"/><path d="m208 176-95.511719-150.089844c-9.230469-14.503906-28.230469-19.207031-43.160156-10.671875-15.96875 9.121094-21.0625 29.746094-11.191406 45.265625l93.863281 147.496094zm0 0" fill="#ffb0aa"/><path d="m185.496094 170.433594-86.503906-135.929688c-2.992188-4.703125-8.121094-7.511718-13.710938-7.511718-2.832031 0-5.527344.71875-8.015625 2.144531-3.882813 2.222656-6.617187 5.832031-7.691406 10.175781-1.078125 4.34375-.34375 8.824219 2.066406 12.597656l85.664063 134.632813zm0 0" fill="#ff7b7b"/><path d="m240 400c99.710938 0 156.425781-46.503906 152-104-3-39-32.007812-57.902344-48-80-38-52.503906-40-88-104-88s-66 35.503906-104 88c-15.992188 22.097656-45 41-48 80-4.425781 57.496094 52.289062 104 152 104zm0 0" fill="#ffb0aa"/><path d="m176 328c0 35.34375 28.65625 64 64 64s64-28.65625 64-64v-32h-128zm0 0" fill="#d3d3d3"/><path d="m216 304h48v56h-48zm0 0" fill="#edeff1"/><path d="m236 304h8v56h-8zm0 0" fill="#d3d3d3"/><path d="m296 280h-112c-22.089844 0-40 17.910156-40 40s17.910156 40 40 40h8c26.511719 0 48-21.488281 48-48 0 26.511719 21.488281 48 48 48h8c22.089844 0 40-17.910156 40-40s-17.910156-40-40-40zm0 0" fill="#edeff1"/><path d="m240 264h-17.199219c-8.175781 0-14.800781 6.625-14.800781 14.800781v.054688c0 5.609375 3.167969 10.730469 8.183594 13.242187l4.441406 2.222656c2.214844 1.105469 4.671875 1.679688 7.152344 1.679688h24.445312c2.480469 0 4.9375-.574219 7.152344-1.6875l4.441406-2.222656c5.015625-2.503906 8.183594-7.632813 8.183594-13.234375v-.054688c0-8.175781-6.625-14.800781-14.800781-14.800781zm0 0" fill="#ff7b7b"/><g fill="#d3d3d3"><path d="m399.105469 268.140625 1.796875 7.792969-104.015625 23.972656-1.796875-7.792969zm0 0"/><path d="m296.886719 340.117188 104.003906 24.003906-1.800781 7.796875-104.003906-24.003907zm0 0"/><path d="m304 316h96v8h-96zm0 0"/><path d="m80.886719 268.109375 104.003906 24.003906-1.800781 7.796875-104.003906-24.007812zm0 0"/><path d="m183.097656 340.132812 1.796875 7.792969-104.015625 23.972657-1.796875-7.792969zm0 0"/><path d="m80 316h96v8h-96zm0 0"/></g></svg>