<svg height="480pt" viewBox="0 0 480 480.00586" width="480pt" xmlns="http://www.w3.org/2000/svg"><path d="m152.003906 232.003906-4.6875 4.6875c-6.25 6.25-6.25 16.378906 0 22.625l5.375 5.375c6.25 6.25 6.25 16.378906 0 22.625l-144.6875 144.6875.199219.199219c-6.238281 6.242187-9.550781 15.417969-7.679687 25.28125 2.074218 10.960937 11.039062 19.921875 22 22 9.863281 1.871094 19.039062-1.441406 25.28125-7.679687l144.886718-144.511719c6.25-6.230469 16.367188-6.230469 22.617188.015625l5.382812 5.382812c6.25 6.25 16.375 6.25 22.625 0l4.6875-4.6875zm-124 232c-6.625 0-12-5.375-12-12s5.375-12 12-12 12 5.375 12 12-5.375 12-12 12zm0 0" fill="#6e83b7"/><path d="m480.003906 96-15.996094 16-96.003906-96.003906 16-15.996094zm0 0" fill="#6e83b7"/><path d="m250.347656 330.347656-100.6875-100.6875c-3.128906-3.128906-3.128906-8.191406 0-11.3125l204.6875-204.6875c3.128906-3.128906 8.191406-3.128906 11.3125 0l100.6875 100.6875c3.128906 3.128906 3.128906 8.191406 0 11.3125l-204.6875 204.6875c-3.121094 3.121094-8.191406 3.121094-11.3125 0zm0 0" fill="#edeff1"/></svg>