<svg height="480pt" viewBox="0 0 480 480" width="480pt" xmlns="http://www.w3.org/2000/svg"><path d="m224 72h-24v-72h-46.3125c-16.046875 0-31.039062 8.023438-39.933594 21.375l-17.753906 26.625h-32c-8.839844 0-16 7.160156-16 16v24c0 17.671875 14.328125 32 32 32h36.800781l19.199219 32v208h216v-80zm0 0" fill="#edeff1"/><path d="m197.902344 72c-7.109375 27.59375-32.085938 48-61.902344 48h-19.199219l9.597657 16h9.601562c38.632812 0 70.953125-27.527344 78.382812-64zm0 0" fill="#ffb0aa"/><path d="m206.34375 120h-28.695312c-13.878907 0-24.871094-11.742188-23.945313-25.601562l4.800781-72c.839844-12.597657 11.3125-22.398438 23.953125-22.398438h19.09375c12.632813 0 23.105469 9.800781 23.945313 22.398438l4.800781 72c.917969 13.859374-10.066406 25.601562-23.953125 25.601562zm0 0" fill="#d3d3d3"/><path d="m72 48h-8c-8.839844 0-16 7.160156-16 16v8h8c8.839844 0 16-7.160156 16-16zm0 0" fill="#d3d3d3"/><path d="m336 464h64v16h-64zm0 0" fill="#6e83b7"/><path d="m416 464h-352v-72l32-32h288l32 32zm0 0" fill="#80d6fb"/><path d="m80 464h64v16h-64zm0 0" fill="#6e83b7"/><path d="m80 464h64v8h-64zm0 0" fill="#466089"/><path d="m336 464h64v8h-64zm0 0" fill="#466089"/><path d="m464 208h-448c-8.839844 0-16 7.160156-16 16s7.160156 16 16 16l39.953125 99.886719c4.863281 12.144531 16.632813 20.113281 29.710937 20.113281h308.671876c13.089843 0 24.847656-7.96875 29.710937-20.113281l39.953125-99.886719c8.839844 0 16-7.160156 16-16s-7.160156-16-16-16zm0 0" fill="#80d6fb"/><path d="m457.601562 256 6.398438-16h-448l6.398438 16zm0 0" fill="#46bee8"/><path d="m296 448h-112c-8.839844 0-16-7.160156-16-16v-32c0-8.839844 7.160156-16 16-16h112c8.839844 0 16 7.160156 16 16v32c0 8.839844-7.160156 16-16 16zm0 0" fill="#edeff1"/><path d="m392 368-8-8h-288l-8 8zm0 0" fill="#46bee8"/></svg>