<svg height="488pt" viewBox="0 0 488 488" width="488pt" xmlns="http://www.w3.org/2000/svg"><path d="m273.792969 174.214844 22.71875 60.59375 14.984375-5.617188-25.28125-67.40625-44.390625-16.648437c-.433594-.6875-.847657-1.402344-1.289063-2.074219l23.464844-28.167969v-50.894531h-16v45.105469l-17.457031 20.949219c-8.808594-10.039063-17.949219-17.398438-23.910157-21.664063-4.199218-3-6.632812-7.886719-6.632812-13.046875v-7.34375c0-3.566406-1.207031-6.839844-3.191406-9.496094l3.191406-3.191406v-11.3125h-16v4.6875l-3.3125 3.3125h-9.375l-3.3125-3.3125v-4.6875h-16v11.3125l3.191406 3.191406c-1.984375 2.65625-3.191406 5.929688-3.191406 9.496094v7.34375c0 5.160156-2.433594 10.046875-6.625 13.046875-5.960938 4.265625-15.101562 11.617187-23.910156 21.664063l-17.464844-20.949219v-45.105469h-16v50.894531l23.472656 28.167969c-.441406.671875-.855468 1.386719-1.289062 2.074219l-44.398438 16.648437-25.28125 67.40625 14.984375 5.617188 22.71875-60.59375 22.105469-8.285156c-1.449219 4.375-2.570312 8.949218-3.296875 13.734374l-16.144531 16.144532-16.566406 57.992187 15.382812 4.398438 15.433594-54.007813 1.421875-1.421875c4.082031 44.519531 33.167969 85.230469 79.457031 85.230469 46.28125 0 75.375-40.710938 79.457031-85.230469l1.421875 1.421875 15.433594 54.007813 15.390625-4.398438-16.566406-57.992187-16.152344-16.152344c-.738281-4.785156-1.847656-9.359375-3.296875-13.734375zm0 0" fill="#6e83b7"/><path d="m176 0c-97.046875 0-176 78.953125-176 176s78.953125 176 176 176 176-78.953125 176-176-78.953125-176-176-176zm0 16c41.238281 0 78.761719 15.816406 107.160156 41.527344l-225.632812 225.632812c-25.710938-28.398437-41.527344-65.921875-41.527344-107.160156 0-88.222656 71.777344-160 160-160zm0 320c-41.238281 0-78.761719-15.816406-107.160156-41.527344l225.632812-225.632812c25.710938 28.398437 41.527344 65.921875 41.527344 107.160156 0 88.222656-71.777344 160-160 160zm0 0" fill="#ffb0aa"/><path d="m488 488h-160v-160c0-17.671875 14.328125-32 32-32h96c17.671875 0 32 14.328125 32 32zm0 0" fill="#98ca69"/><path d="m344 416h128v72h-128zm0 0" fill="#ffe352"/><path d="m440 296h-64v-24c0-4.414062 3.585938-8 8-8h48c4.414062 0 8 3.585938 8 8zm0 0" fill="#6e83b7"/><path d="m432 264h-48v-40c0-4.414062 3.585938-8 8-8h32c4.414062 0 8 3.585938 8 8zm0 0" fill="#edeff1"/><path d="m384 240-24-16v32zm0 0" fill="#80d6fb"/></svg>