<svg height="480pt" viewBox="0 0 480 480" width="480pt" xmlns="http://www.w3.org/2000/svg"><path d="m0 0h8l96 96-8 8-96-96zm0 0" fill="#edeff1"/><path d="m88 152-12.6875-12.6875c-6.25-6.25-6.25-16.375 0-22.625l41.375-41.375c6.25-6.25 16.375-6.25 22.625 0l12.6875 12.6875zm0 0" fill="#6e83b7"/><path d="m288 336 120 120-8 8 16 16 64-64-16-16-8 8-120-120zm0 0" fill="#edeff1"/><path d="m88 152v24l168 168-8 8 16 16 104-104-16-16-8 8-168-168h-24zm0 0" fill="#edeff1"/><path d="m248 336 87.996094-87.996094 7.996094 7.996094-87.996094 87.996094zm0 0" fill="#d3d3d3"/><path d="m399.992188 448.003906 48-48 7.996093 8-47.996093 47.996094zm0 0" fill="#d3d3d3"/><path d="m291.992188 340.003906 48-48 8 8-48 47.996094zm0 0" fill="#d3d3d3"/><path d="m136 288h-96v-24c0-4.414062 3.585938-8 8-8h80c4.414062 0 8 3.585938 8 8zm0 0" fill="#6e83b7"/><path d="m152 464v-153.375c0-4.242188-1.6875-8.3125-4.6875-11.3125l-11.3125-11.3125h-96l-11.3125 11.3125c-3 3-4.6875 7.070312-4.6875 11.3125v153.375c0 8.839844 7.160156 16 16 16h96c8.839844 0 16-7.160156 16-16zm0 0" fill="#edeff1"/><path d="m24 344h128v96h-128zm0 0" fill="#ffe352"/><path d="m52 264h8v16h-8zm0 0" fill="#466089"/><path d="m68 264h8v16h-8zm0 0" fill="#466089"/><path d="m84 264h8v16h-8zm0 0" fill="#466089"/><path d="m100 264h8v16h-8zm0 0" fill="#466089"/><path d="m116 264h8v16h-8zm0 0" fill="#466089"/><g fill="#6e83b7"><path d="m88 419.878906c4.664062 0 7.894531 4.121094 14.425781 4.121094 4.644531 0 10.300781-3.65625 10.300781-8.984375 0-16.480469-14.292968-24.71875-24.71875-24.71875-10.421874 0-24.71875 8.238281-24.71875 24.71875 0 5.320313 5.65625 8.984375 10.304688 8.984375 6.511719 0 9.742188-4.121094 14.40625-4.121094zm0 0"/><path d="m61.777344 382.265625c2.949218 3.230469 5.933594 11.75 2.703125 14.703125-3.234375 2.953125-11.449219-.785156-14.402344-4.007812-2.949219-3.234376-2.726563-8.242188.507813-11.191407 3.222656-2.960937 8.238281-2.738281 11.191406.496094zm0 0"/><path d="m64.566406 373.800781c1.9375 5.351563 9.9375 13.933594 15.289063 12.007813 5.351562-1.929688 6.023437-13.648438 4.089843-19-1.9375-5.351563-7.839843-8.121094-13.183593-6.191406-5.355469 1.925781-8.121094 7.832031-6.195313 13.183593zm0 0"/><path d="m114.222656 382.265625c-2.949218 3.230469-5.933594 11.75-2.703125 14.703125 3.234375 2.953125 11.449219-.785156 14.402344-4.007812 2.949219-3.234376 2.726563-8.242188-.507813-11.191407-3.222656-2.960937-8.238281-2.738281-11.191406.496094zm0 0"/><path d="m111.433594 373.800781c-1.9375 5.351563-9.9375 13.933594-15.289063 12.007813-5.351562-1.929688-6.023437-13.648438-4.089843-19 1.9375-5.351563 7.839843-8.121094 13.183593-6.191406 5.355469 1.925781 8.121094 7.832031 6.195313 13.183593zm0 0"/></g><path d="m120 192h144l56 56-72 72zm0 0" fill="#ffe352"/></svg>