<svg height="480pt" viewBox="0 0 480 480" width="480pt" xmlns="http://www.w3.org/2000/svg"><path d="m376 128h-128v-128h-120v128h-128v120h128v128h120v-128h128zm0 0" fill="#80d6fb"/><path d="m188 286.273438c16.457031 0 27.839844 14.527343 50.839844 14.527343 16.382812 0 36.3125-12.898437 36.3125-31.65625 0-58.105469-50.382813-87.152343-87.152344-87.152343s-87.152344 29.046874-87.152344 87.152343c0 18.757813 19.929688 31.65625 36.3125 31.65625 23 0 34.382813-14.527343 50.839844-14.527343zm0 0" fill="#6e83b7"/><path d="m95.550781 153.6875c10.410157 11.382812 20.921875 41.425781 9.539063 51.832031-11.386719 10.410157-40.363282-2.75-50.769532-14.144531-10.410156-11.390625-9.617187-29.054688 1.769532-39.464844 11.382812-10.40625 29.054687-9.613281 39.460937 1.777344zm0 0" fill="#6e83b7"/><path d="m105.40625 123.855469c6.808594 18.863281 35.027344 49.128906 53.890625 42.3125 18.863281-6.816407 21.230469-48.121094 14.421875-66.976563-6.808594-18.855468-27.621094-28.632812-46.488281-21.824218-18.863281 6.808593-28.628907 27.625-21.824219 46.488281zm0 0" fill="#6e83b7"/><path d="m280.449219 153.6875c-10.410157 11.382812-20.921875 41.425781-9.539063 51.832031 11.386719 10.410157 40.363282-2.75 50.769532-14.144531 10.410156-11.390625 9.617187-29.054688-1.769532-39.464844-11.382812-10.40625-29.054687-9.613281-39.460937 1.777344zm0 0" fill="#6e83b7"/><path d="m270.59375 123.855469c-6.808594 18.863281-35.027344 49.128906-53.890625 42.3125-18.863281-6.816407-21.230469-48.121094-14.421875-66.976563 6.808594-18.855468 27.621094-28.632812 46.488281-21.824218 18.863281 6.808593 28.628907 27.625 21.824219 46.488281zm0 0" fill="#6e83b7"/><path d="m480 352c0 70.691406-57.308594 128-128 128s-128-57.308594-128-128 57.308594-128 128-128 128 57.308594 128 128zm0 0" fill="#ffb0aa"/><path d="m456 352c0 57.4375-46.5625 104-104 104s-104-46.5625-104-104 46.5625-104 104-104 104 46.5625 104 104zm0 0" fill="#edeff1"/><g fill="#d3d3d3"><path d="m344 256h16v16h-16zm0 0"/><path d="m310.921875 264.851562 8 13.855469-13.855469 8-8-13.855469zm0 0"/><path d="m272.867188 297.0625 13.859374 8-8 13.855469-13.859374-8zm0 0"/><path d="m256 344h16v16h-16zm0 0"/><path d="m278.703125 385.074219 8 13.855469-13.859375 8-7.996094-13.859376zm0 0"/><path d="m305.089844 417.285156 13.855468 8-7.996093 13.855469-13.859375-7.996094zm0 0"/><path d="m344 432h16v16h-16zm0 0"/><path d="m398.921875 417.265625 8 13.855469-13.855469 8-8-13.855469zm0 0"/><path d="m425.285156 385.054688 13.855469 8-8 13.855468-13.855469-8zm0 0"/><path d="m432 344h16v16h-16zm0 0"/><path d="m431.121094 297.078125 7.996094 13.855469-13.855469 8-8-13.859375zm0 0"/><path d="m393.085938 264.863281 13.859374 8-8 13.855469-13.855468-7.996094zm0 0"/></g><path d="m382.855469 387.878906-16.910157-28.183594c1.269532-2.296874 2.054688-4.886718 2.054688-7.695312 0-5.902344-3.238281-11.007812-8-13.785156v-50.214844h-16v50.214844c-4.761719 2.769531-8 7.875-8 13.785156 0 8.839844 7.160156 16 16 16 .089844 0 .167969-.023438.257812-.023438l16.886719 28.144532zm0 0" fill="#6e83b7"/></svg>