<svg height="480pt" viewBox="0 0 480 480" width="480pt" xmlns="http://www.w3.org/2000/svg"><path d="m480 160h-160v-160h-160v160h-160v160h160v160h160v-160h160zm0 0" fill="#80d6fb"/><g fill="#6e83b7"><path d="m240 365.457031c21.007812 0 35.542969 18.542969 64.894531 18.542969 20.914063 0 46.363281-16.464844 46.363281-40.414062 0-74.171876-64.320312-111.257813-111.257812-111.257813s-111.257812 37.085937-111.257812 111.257813c0 23.949218 25.441406 40.414062 46.363281 40.414062 29.351562 0 43.886719-18.542969 64.894531-18.542969zm0 0"/><path d="m121.976562 196.191406c13.289063 14.535156 26.710938 52.878906 12.175782 66.167969s-51.527344-3.519531-64.816406-18.054687c-13.289063-14.535157-12.273438-37.089844 2.265624-50.375 14.535157-13.289063 37.09375-12.273438 50.375 2.261718zm0 0"/><path d="m134.566406 158.113281c8.699219 24.078125 44.714844 62.710938 68.792969 54.015625 24.082031-8.695312 27.105469-61.425781 18.417969-85.503906-8.6875-24.082031-35.265625-36.554688-59.34375-27.855469-24.082032 8.695313-36.5625 35.261719-27.867188 59.34375zm0 0"/><path d="m358.023438 196.191406c-13.289063 14.535156-26.710938 52.878906-12.175782 66.167969s51.527344-3.519531 64.816406-18.054687c13.289063-14.535157 12.273438-37.089844-2.265624-50.375-14.535157-13.289063-37.09375-12.273438-50.375 2.261718zm0 0"/><path d="m345.433594 158.113281c-8.699219 24.078125-44.714844 62.710938-68.792969 54.015625-24.082031-8.695312-27.105469-61.425781-18.417969-85.503906 8.699219-24.082031 35.265625-36.554688 59.34375-27.855469 24.082032 8.695313 36.5625 35.261719 27.867188 59.34375zm0 0"/></g></svg>