<svg width="64" height="56" viewBox="0 0 64 56" fill="none" xmlns="http://www.w3.org/2000/svg">
<g opacity="0.2">
<path d="M41.9062 27.9375H51.8839V35.9196C51.8839 40.3223 48.3045 43.9018 43.9018 43.9018H42.9041C42.5107 43.9008 42.121 43.9776 41.7574 44.1277C41.3938 44.2778 41.0635 44.4982 40.7853 44.7764C40.5072 45.0545 40.2867 45.3849 40.1366 45.7485C39.9865 46.1121 39.9097 46.5018 39.9107 46.8951V52.8817C39.9097 53.2751 39.9865 53.6648 40.1366 54.0284C40.2867 54.392 40.5072 54.7223 40.7853 55.0005C41.0635 55.2786 41.3938 55.4991 41.7574 55.6492C42.121 55.7993 42.5107 55.876 42.9041 55.8751H43.9018C54.9271 55.8751 63.8571 46.9451 63.8571 35.9198V5.9866C63.8571 2.68149 61.1756 0 57.8705 0H41.9062C38.6011 0 35.9196 2.68149 35.9196 5.9866V21.9509C35.9196 25.256 38.6011 27.9375 41.9062 27.9375ZM5.9866 27.9375H15.9643V35.9196C15.9643 40.3223 12.3848 43.9018 7.98214 43.9018H6.98444C6.59108 43.9008 6.20141 43.9776 5.83781 44.1277C5.47421 44.2778 5.14385 44.4982 4.8657 44.7764C4.58755 45.0545 4.3671 45.3849 4.217 45.7485C4.06691 46.1121 3.99013 46.5018 3.99107 46.8951V52.8817C3.99013 53.2751 4.06691 53.6648 4.217 54.0284C4.3671 54.392 4.58755 54.7223 4.8657 55.0005C5.14385 55.2786 5.47421 55.4991 5.83781 55.6492C6.20141 55.7993 6.59108 55.876 6.98444 55.8751H7.98214C19.0075 55.8751 27.9375 46.9451 27.9375 35.9198V5.9866C27.9375 2.68149 25.256 0 21.9509 0H5.9866C2.68149 0 0 2.68149 0 5.9866V21.9509C0 25.256 2.68149 27.9375 5.9866 27.9375Z" fill="#FF5B2E"/>
</g>
</svg>
