<svg width="19" height="16" viewBox="0 0 19 16" fill="none" xmlns="http://www.w3.org/2000/svg">
<path d="M12.0312 8.4718C11.3475 7.82431 10.4417 7.46345 9.49999 7.46345C8.55833 7.46345 7.65247 7.82431 6.96874 8.4718L3.91561 11.3593C2.16561 12.9499 3.42811 15.9906 5.79061 15.8718C7.07186 15.8374 8.11249 15.1812 9.49686 15.2062C10.9312 15.1812 11.9969 15.7593 13.2844 15.8718C15.6062 15.9249 16.8062 12.9187 15.0812 11.3593L12.0312 8.4718ZM17.2875 4.22805C16.0937 3.99368 15.1812 5.3218 14.9437 6.46555C14.2312 10.0062 17.6625 10.6812 18.4656 7.2468C18.7937 5.77493 18.275 4.4468 17.2875 4.22805ZM12.2281 6.14055C13.4156 6.14055 14.3812 4.79055 14.3812 3.1343C14.2625 -0.853198 10.1937 -0.853198 10.0781 3.1343C10.0781 4.79055 11.0437 6.14055 12.2281 6.14055ZM4.05624 6.46555C3.82186 5.3218 2.90624 3.99368 1.71249 4.22805C-0.500011 4.78743 0.437489 9.50305 2.59999 9.51555C3.82499 9.47493 4.39061 8.05305 4.05624 6.46555ZM6.77186 6.14055C7.95624 6.14055 8.92186 4.79055 8.92186 3.1343C8.80624 -0.853198 4.73749 -0.853198 4.61874 3.1343C4.61874 4.79055 5.58436 6.14055 6.77186 6.14055Z" fill="#19825c"/>
</svg>
