<svg width="64" height="64" viewBox="0 0 64 64" fill="none" xmlns="http://www.w3.org/2000/svg">
<g filter="url(#filter0_d_83_1436)">
<rect x="1" y="1" width="60" height="60" rx="6" fill="#19825c"/>
</g>
<g clip-path="url(#clip0_83_1436)">
<path d="M39.2279 25.1734L40.6832 23.7181V22.0298L47.8343 14.8786L47.0386 14.0829L39.8874 21.234H38.1991L36.7438 22.6893L34.4927 20.4383L20.4235 34.5075L18.7352 32.8192L16.2511 35.3033L19.6277 38.6799L17.0468 41.2608L16.4841 40.698L14 43.1821L18.7352 47.9172L21.2192 45.4331L20.6565 44.8704L23.2373 42.2895L26.6139 45.6661L29.098 43.1821L27.4097 41.4938L41.479 27.4245L39.2279 25.1734ZM38.6651 22.3596H39.5577V23.2521L38.4321 24.3776L37.5396 23.4851L38.6651 22.3596ZM18.7352 46.3257L15.5915 43.1821L16.4841 42.2895L19.6277 45.4331L18.7352 46.3257ZM19.8607 44.0746L17.8426 42.0565L20.4235 39.4757L22.4416 41.4938L19.8607 44.0746ZM27.5065 43.1821L26.6139 44.0746L24.0331 41.4938L20.4235 37.8841L17.8426 35.3033L18.7352 34.4107L19.6277 35.3033L26.6139 42.2895L27.5065 43.1821ZM26.6139 40.698L21.2192 35.3033L23.2373 33.2852L25.6533 35.7012L26.449 34.9054L24.0331 32.4894L26.0512 30.4713L29.5927 34.0128L30.3884 33.2171L26.8469 29.6756L28.865 27.6575L31.281 30.0735L32.0768 29.2777L29.6608 26.8617L31.6789 24.8436L35.2204 28.3851L36.0161 27.5894L32.4746 24.0479L34.4927 22.0298L35.9481 23.4851L38.4321 25.9692L39.8874 27.4245L26.6139 40.698Z" fill="white"/>
<path d="M47.3685 21.4951H47.3679L45.7483 19.8755L44.1286 21.4951C43.2869 22.3361 43.2863 23.7001 44.1273 24.5418C44.3274 24.7421 44.5651 24.901 44.8268 25.0094C45.0884 25.1178 45.3688 25.1735 45.652 25.1734H45.845C47.0348 25.1738 47.9997 24.2097 48.0001 23.0199C48.0002 22.7367 47.9445 22.4563 47.8361 22.1946C47.7277 21.933 47.5688 21.6953 47.3685 21.4951ZM46.5718 23.7465C46.3789 23.9393 46.1173 24.0477 45.8445 24.0478H45.6515C45.083 24.0476 44.6223 23.5866 44.6225 23.0181C44.6226 22.7454 44.7309 22.4838 44.9238 22.2908L45.7483 21.4669L46.5721 22.2908C46.974 22.6929 46.9739 23.3446 46.5718 23.7465Z" fill="white"/>
</g>
<defs>
<filter id="filter0_d_83_1436" x="0" y="0" width="64" height="64" filterUnits="userSpaceOnUse" color-interpolation-filters="sRGB">
<feFlood flood-opacity="0" result="BackgroundImageFix"/>
<feColorMatrix in="SourceAlpha" type="matrix" values="0 0 0 0 0 0 0 0 0 0 0 0 0 0 0 0 0 0 127 0" result="hardAlpha"/>
<feOffset dx="1" dy="1"/>
<feGaussianBlur stdDeviation="1"/>
<feComposite in2="hardAlpha" operator="out"/>
<feColorMatrix type="matrix" values="0 0 0 0 0.458333 0 0 0 0 0.458333 0 0 0 0 0.458333 0 0 0 0.1 0"/>
<feBlend mode="normal" in2="BackgroundImageFix" result="effect1_dropShadow_83_1436"/>
<feBlend mode="normal" in="SourceGraphic" in2="effect1_dropShadow_83_1436" result="shape"/>
</filter>
<clipPath id="clip0_83_1436">
<rect width="34" height="34" fill="white" transform="translate(14 14)"/>
</clipPath>
</defs>
</svg>
