<svg width="64" height="65" viewBox="0 0 64 65" fill="none" xmlns="http://www.w3.org/2000/svg">
<g filter="url(#filter0_d_833_6870)">
<rect x="1" y="1.5" width="60" height="60" rx="6" fill="#19825c"/>
</g>
<g clip-path="url(#clip0_833_6870)">
<path d="M23.9782 36.229V30.5848C23.9782 29.5588 23.147 28.7271 22.1218 28.7271M22.0843 34.3889V27.8609C22.0843 26.835 21.2531 26.0032 20.2279 26.0032M20.0372 32.5283V25.6269C20.0372 24.4851 19.1122 23.5595 17.9713 23.5595C17.5674 23.5595 17.24 23.8872 17.24 24.2914V25.1273" stroke="white" stroke-width="0.996094" stroke-miterlimit="10" stroke-linecap="round" stroke-linejoin="round"/>
<path d="M21.2387 48.002V46.5117C21.2386 45.5385 20.953 44.5866 20.4174 43.7739L15.4906 36.307C15.2764 35.9818 15.1622 35.6009 15.1621 35.2114V25.4831C15.1621 25.0791 15.4892 24.7518 15.8936 24.7518C16.4638 24.7518 16.9804 24.9828 17.3545 25.3572C17.7278 25.7315 17.9594 26.2485 17.9594 26.8191V33.992" stroke="white" stroke-width="0.996094" stroke-miterlimit="10" stroke-linecap="round" stroke-linejoin="round"/>
<path d="M22.4676 39.4734L18.3457 34.9843C18.0969 34.7144 17.9589 34.3607 17.9592 33.9936V33.9922C17.9599 33.6144 18.106 33.2365 18.3949 32.951C18.9659 32.3865 19.8843 32.3879 20.4541 32.953L24.9213 37.3856L26.5469 39.0471C27.3186 40.0072 27.7394 41.202 27.7395 42.4338V48.002M38.022 36.229V30.5848C38.022 29.5588 38.8531 28.7271 39.8783 28.7271M39.9159 34.3889V27.8609C39.9159 26.835 40.747 26.0032 41.7722 26.0032M41.9631 32.56V25.6272C41.9631 24.4853 42.8878 23.5599 44.0289 23.5599C44.125 23.5598 44.2202 23.5787 44.309 23.6155C44.3978 23.6523 44.4784 23.7062 44.5463 23.7743C44.6143 23.8421 44.6683 23.9227 44.705 24.0114C44.7418 24.1002 44.7606 24.1953 44.7605 24.2913V25.1277" stroke="white" stroke-width="0.996094" stroke-miterlimit="10" stroke-linecap="round" stroke-linejoin="round"/>
<path d="M44.0408 33.9922V26.819C44.0408 26.2479 44.2719 25.7306 44.6458 25.3568C45.0196 24.9829 45.5363 24.7511 46.1067 24.7511C46.5104 24.7511 46.8378 25.0792 46.8378 25.4836V29.0337V31.3579V35.2114C46.8378 35.6012 46.7236 35.9818 46.5091 36.3071L41.5831 43.7739C41.0468 44.5863 40.7609 45.5383 40.761 46.5118V48.0019" stroke="white" stroke-width="0.996094" stroke-miterlimit="10" stroke-linecap="round" stroke-linejoin="round"/>
<path d="M39.5325 39.4735L43.6547 34.9847C43.9036 34.7146 44.0416 34.3607 44.0411 33.9934C44.0411 33.9819 44.0411 33.9695 44.0404 33.958C44.0316 33.5785 43.8757 33.2173 43.6055 32.9507C43.0339 32.3867 42.1157 32.3874 41.5462 32.9529L35.8589 38.5966C35.3524 39.099 34.9503 39.6967 34.676 40.3552C34.4016 41.0138 34.2604 41.7202 34.2605 42.4336V48.002M26.6603 15.9829C26.2997 16.4005 26.0553 16.9225 25.9916 17.4909C25.9866 17.5374 25.9724 17.5824 25.9499 17.6233C25.9275 17.6643 25.8971 17.7004 25.8607 17.7296C25.8242 17.7588 25.7823 17.7805 25.7374 17.7934C25.6925 17.8064 25.6455 17.8103 25.5991 17.805C25.4344 17.7864 25.2658 17.7825 25.0924 17.7951C23.7211 17.8914 22.6069 19.0057 22.5126 20.3789C22.411 21.8412 23.4369 23.0843 24.8076 23.3247C24.9869 23.3559 25.1051 23.5253 25.0904 23.7079C25.0028 24.7883 25.3348 26.054 25.9431 27.0607C26.0009 27.1564 26.056 27.2527 26.1085 27.3509C27.0574 29.1286 28.9407 30.2071 30.9554 30.1958L31.1201 30.1951C32.3911 30.1878 33.5858 29.7356 34.5374 28.9573C34.9958 28.4565 35.9311 27.3914 36.005 27.1378C36.0349 27.0853 36.0654 27.0335 36.0973 26.9824C36.6763 26.0334 36.9931 24.9059 36.9021 23.7019C36.8888 23.5226 37.0077 23.3566 37.185 23.3261C38.5596 23.0883 39.5896 21.8432 39.4873 20.3783C39.3924 19.005 38.2787 17.8914 36.9061 17.7951C36.7348 17.7825 36.5674 17.7864 36.4034 17.805C36.2062 17.8263 36.0322 17.6848 36.011 17.487C35.8635 16.1502 34.6629 14.9967 33.2385 14.998C32.4615 14.998 31.7596 15.3161 31.2536 15.8288C31.2205 15.8625 31.1811 15.8893 31.1375 15.9077C31.094 15.926 31.0472 15.9354 30.9999 15.9354C30.9527 15.9354 30.9059 15.926 30.8624 15.9077C30.8188 15.8893 30.7793 15.8625 30.7463 15.8288C30.2402 15.3161 29.5383 14.998 28.7614 14.998C27.7707 14.9965 26.9479 15.6539 26.6603 15.9829Z" stroke="white" stroke-width="0.996094" stroke-miterlimit="10" stroke-linecap="round" stroke-linejoin="round"/>
<path d="M33.324 23.4101C32.9465 23.2211 32.6124 22.9487 32.3975 22.5852C32.1078 22.095 31.5898 21.7685 30.9995 21.7685C30.4118 21.7685 29.8956 22.0928 29.6054 22.58C29.3904 22.941 29.0653 23.2224 28.688 23.4065C28.1126 23.6872 27.7057 24.3087 27.713 24.9731C27.713 25.9251 28.4491 26.697 29.3563 26.697C29.6922 26.697 30.0045 26.5913 30.2646 26.41C30.6993 26.1068 31.2744 26.0993 31.71 26.4012C31.9795 26.5879 32.3023 26.697 32.6436 26.697C33.5507 26.697 34.2869 25.925 34.2869 24.9731C34.2853 24.2881 33.8758 23.6864 33.324 23.4101Z" stroke="white" stroke-width="0.996094" stroke-miterlimit="10" stroke-linecap="round" stroke-linejoin="round"/>
<path d="M36.7071 21.5678C37.3359 21.268 37.6605 20.6368 37.4322 20.1581C37.2039 19.6793 36.5091 19.5343 35.8804 19.8341C35.2516 20.1339 34.927 20.7651 35.1553 21.2438C35.3836 21.7226 36.0784 21.8676 36.7071 21.5678Z" stroke="white" stroke-width="0.996094" stroke-miterlimit="10" stroke-linecap="round" stroke-linejoin="round"/>
<path d="M33.9628 18.7003C34.2079 18.0478 34.0042 17.3678 33.5079 17.1814C33.0117 16.995 32.4107 17.3728 32.1656 18.0252C31.9206 18.6777 32.1242 19.3577 32.6205 19.5441C33.1168 19.7305 33.7178 19.3527 33.9628 18.7003Z" stroke="white" stroke-width="0.996094" stroke-miterlimit="10" stroke-linecap="round" stroke-linejoin="round"/>
<path d="M26.8441 21.2448C27.0723 20.766 26.7477 20.1349 26.119 19.8351C25.4902 19.5352 24.7955 19.6803 24.5672 20.1591C24.3389 20.6378 24.6635 21.269 25.2923 21.5688C25.921 21.8686 26.6158 21.7235 26.8441 21.2448Z" stroke="white" stroke-width="0.996094" stroke-miterlimit="10" stroke-linecap="round" stroke-linejoin="round"/>
<path d="M29.3793 19.5434C29.8756 19.357 30.0792 18.677 29.8342 18.0246C29.5891 17.3722 28.9882 16.9944 28.4919 17.1808C27.9956 17.3672 27.7919 18.0472 28.037 18.6996C28.282 19.3521 28.883 19.7298 29.3793 19.5434Z" stroke="white" stroke-width="0.996094" stroke-miterlimit="10" stroke-linecap="round" stroke-linejoin="round"/>
</g>
<defs>
<filter id="filter0_d_833_6870" x="0" y="0.5" width="64" height="64" filterUnits="userSpaceOnUse" color-interpolation-filters="sRGB">
<feFlood flood-opacity="0" result="BackgroundImageFix"/>
<feColorMatrix in="SourceAlpha" type="matrix" values="0 0 0 0 0 0 0 0 0 0 0 0 0 0 0 0 0 0 127 0" result="hardAlpha"/>
<feOffset dx="1" dy="1"/>
<feGaussianBlur stdDeviation="1"/>
<feComposite in2="hardAlpha" operator="out"/>
<feColorMatrix type="matrix" values="0 0 0 0 0.458333 0 0 0 0 0.458333 0 0 0 0 0.458333 0 0 0 0.1 0"/>
<feBlend mode="normal" in2="BackgroundImageFix" result="effect1_dropShadow_833_6870"/>
<feBlend mode="normal" in="SourceGraphic" in2="effect1_dropShadow_833_6870" result="shape"/>
</filter>
<clipPath id="clip0_833_6870">
<rect width="34" height="34" fill="white" transform="translate(14 14.5)"/>
</clipPath>
</defs>
</svg>
