<svg width="64" height="64" viewBox="0 0 64 64" fill="none" xmlns="http://www.w3.org/2000/svg">
<g filter="url(#filter0_d_83_1441)">
<rect x="1" y="1" width="60" height="60" rx="6" fill="#19825c"/>
</g>
<path d="M37.3964 29.1453C37.0271 29.1453 36.7276 29.4447 36.7276 29.814V29.8179C36.7276 30.1872 37.0271 30.4847 37.3964 30.4847C37.7658 30.4847 38.0652 30.1834 38.0652 29.814C38.0652 29.4445 37.7658 29.1453 37.3964 29.1453ZM26.2796 18.1495H31.0211C31.3904 18.1495 31.6899 17.8501 31.6899 17.4807C31.6899 17.1114 31.3904 16.812 31.0211 16.812H26.2796C25.9103 16.812 25.6108 17.1114 25.6108 17.4807C25.6108 17.8501 25.9103 18.1495 26.2796 18.1495Z" fill="white"/>
<path d="M44.5592 36.8099C43.8965 36.1059 43.0342 35.7337 42.0657 35.7335H42.0649C41.7524 35.7335 41.4311 35.7751 41.1094 35.8522V17.8291C41.1094 16.8841 40.3392 16.1152 39.3925 16.1152H35.8333C35.8453 15.9677 35.8514 15.8196 35.8514 15.6716C35.8514 14.7499 34.9897 14 33.9304 14H23.3704C22.31 14 21.4474 14.7499 21.4474 15.6716C21.4474 15.8206 21.4536 15.9685 21.4655 16.1152H17.9063C16.9607 16.1152 16.1914 16.884 16.1914 17.8291V44.8958C16.1914 45.8408 16.9607 46.6096 17.9063 46.6096H36.4186L36.8133 47.0287C36.8264 47.0426 36.8401 47.056 36.8543 47.0687C37.5485 47.6896 38.2291 48 38.9058 48C39.5931 48 40.2766 47.6796 40.9654 47.0388C40.9761 47.0287 40.9866 47.0183 40.9967 47.0076L44.5593 43.2255C46.2251 41.4555 46.225 38.5774 44.5592 36.8099ZM35.5506 17.4528H39.3926C39.5982 17.4528 39.7719 17.6251 39.7719 17.8291V36.3845C39.4623 36.5585 39.1694 36.7608 38.897 36.9886C38.6376 36.7694 38.3593 36.5738 38.0654 36.4039V32.6684C38.0654 32.299 37.7659 31.9996 37.3966 31.9996C37.0272 31.9996 36.7278 32.299 36.7278 32.6684V35.8589C36.3972 35.7781 36.065 35.7352 35.7388 35.7352C34.7603 35.7352 33.8933 36.1068 33.2316 36.8099C33.0126 37.0432 32.8193 37.2991 32.6547 37.5734H29.1619C28.7925 37.5734 28.4931 37.8728 28.4931 38.2422C28.4931 38.6115 28.7925 38.911 29.1619 38.911H32.112C31.8517 40.0192 31.9899 41.2119 32.5254 42.2311H20.5731V20.4938H24.2438C25.4779 21.2746 27.01 21.6987 28.6494 21.6987C30.2894 21.6987 31.8218 21.2746 33.0558 20.4938H36.7277V26.9598C36.7277 27.3291 37.0271 27.6286 37.3965 27.6286C37.7658 27.6286 38.0652 27.3291 38.0652 26.9598V19.825C38.0652 19.4556 37.7658 19.1562 37.3965 19.1562H34.5853C35.0122 18.6375 35.337 18.0637 35.5506 17.4528ZM23.3704 15.3376H33.9304C34.2811 15.3376 34.5139 15.5386 34.5139 15.6716C34.5139 16.0035 34.4748 16.3251 34.4004 16.6342C34.3991 16.6396 34.3975 16.645 34.3963 16.6505C34.1392 17.6988 33.4708 18.5986 32.5206 19.2501C32.4931 19.2665 32.4667 19.2843 32.4419 19.3043C31.4336 19.9699 30.1214 20.3611 28.6494 20.3611C27.1836 20.3611 25.876 19.9734 24.8694 19.3129C24.8366 19.2853 24.8011 19.2609 24.7635 19.2401C23.8259 18.5927 23.1655 17.7025 22.9068 16.6665C22.9025 16.6413 22.8966 16.6164 22.8894 16.5918C22.8199 16.29 22.7849 15.9813 22.7849 15.6716C22.7849 15.5386 23.0184 15.3376 23.3704 15.3376ZM17.9063 45.2721C17.6982 45.2721 17.529 45.1033 17.529 44.8958V17.8291C17.529 17.6217 17.6982 17.4528 17.9063 17.4528H21.7484C21.9621 18.0637 22.287 18.6375 22.7141 19.1562H19.9043C19.535 19.1562 19.2355 19.4556 19.2355 19.825V42.8999C19.2355 43.2692 19.535 43.5686 19.9043 43.5686H33.5547L35.159 45.272L17.9063 45.2721ZM43.5855 42.3085L40.0388 46.0739C39.1926 46.8547 38.6351 46.859 37.7667 46.0902C37.7667 46.0902 34.3262 42.4348 34.3066 42.4162L34.2057 42.309C33.2555 41.2979 33.0659 39.7812 33.6353 38.5683C33.6491 38.5438 33.6612 38.5183 33.6718 38.492C33.8116 38.2123 33.9913 37.9545 34.2054 37.7266C34.6138 37.2927 35.1296 37.0727 35.7387 37.0727C36.1343 37.0727 36.5546 37.1695 36.9653 37.346C37.0517 37.4191 37.1552 37.469 37.2662 37.4911C37.6777 37.71 38.0707 38.0069 38.4083 38.3656C38.4709 38.4321 38.5463 38.485 38.63 38.5212C38.7137 38.5574 38.804 38.576 38.8952 38.5761H38.8954C39.0796 38.5761 39.2558 38.5001 39.3821 38.366C40.1234 37.5793 41.1763 37.0711 42.0649 37.0711H42.0653C42.6645 37.0712 43.1759 37.2918 43.5856 37.727C44.7752 38.9893 44.775 41.0446 43.5855 42.3085Z" fill="white"/>
<path d="M26.4646 23.2307H23.4648C23.0954 23.2307 22.796 23.5301 22.796 23.8995V26.8962C22.796 27.2656 23.0954 27.565 23.4648 27.565H26.4646C26.834 27.565 27.1334 27.2656 27.1334 26.8962V23.8995C27.1334 23.5301 26.834 23.2307 26.4646 23.2307ZM25.7958 26.2274H24.1335V24.5683H25.7958V26.2274ZM33.7397 24.7281H29.2178C28.8485 24.7281 28.549 25.0275 28.549 25.3969C28.549 25.7662 28.8485 26.0657 29.2178 26.0657H33.7397C34.109 26.0657 34.4084 25.7662 34.4084 25.3969C34.4084 25.0275 34.109 24.7281 33.7397 24.7281ZM26.4106 29.6533H23.4108C23.0415 29.6533 22.7421 29.9528 22.7421 30.3221V33.3188C22.7421 33.6882 23.0415 33.9876 23.4108 33.9876H26.4106C26.78 33.9876 27.0794 33.6882 27.0794 33.3188V30.3221C27.0794 29.9528 26.78 29.6533 26.4106 29.6533ZM25.7418 32.65H24.0796V30.9909H25.7418V32.65ZM33.6838 31.1507H29.5627C29.1934 31.1507 28.8939 31.4501 28.8939 31.8195C28.8939 32.1889 29.1934 32.4883 29.5627 32.4883H33.6838C34.0532 32.4883 34.3526 32.1889 34.3526 31.8195C34.3526 31.4501 34.0531 31.1507 33.6838 31.1507ZM26.4106 36.074H23.4108C23.0415 36.074 22.7421 36.3734 22.7421 36.7428V39.7395C22.7421 40.1089 23.0415 40.4083 23.4108 40.4083H26.4106C26.78 40.4083 27.0794 40.1089 27.0794 39.7395V36.7428C27.0794 36.3734 26.78 36.074 26.4106 36.074ZM25.7418 39.0707H24.0796V37.4116H25.7418V39.0707Z" fill="white"/>
<defs>
<filter id="filter0_d_83_1441" x="0" y="0" width="64" height="64" filterUnits="userSpaceOnUse" color-interpolation-filters="sRGB">
<feFlood flood-opacity="0" result="BackgroundImageFix"/>
<feColorMatrix in="SourceAlpha" type="matrix" values="0 0 0 0 0 0 0 0 0 0 0 0 0 0 0 0 0 0 127 0" result="hardAlpha"/>
<feOffset dx="1" dy="1"/>
<feGaussianBlur stdDeviation="1"/>
<feComposite in2="hardAlpha" operator="out"/>
<feColorMatrix type="matrix" values="0 0 0 0 0.458333 0 0 0 0 0.458333 0 0 0 0 0.458333 0 0 0 0.1 0"/>
<feBlend mode="normal" in2="BackgroundImageFix" result="effect1_dropShadow_83_1441"/>
<feBlend mode="normal" in="SourceGraphic" in2="effect1_dropShadow_83_1441" result="shape"/>
</filter>
</defs>
</svg>
