<svg width="64" height="65" viewBox="0 0 64 65" fill="none" xmlns="http://www.w3.org/2000/svg">
<g filter="url(#filter0_d_833_6869)">
<rect x="1" y="1.5" width="60" height="60" rx="6" fill="#19825c"/>
</g>
<path d="M24.3971 35.4006H22.5815C22.4495 35.4006 22.3228 35.4531 22.2294 35.5465C22.136 35.6399 22.0835 35.7666 22.0835 35.8987C22.0835 36.0308 22.136 36.1575 22.2294 36.2509C22.3228 36.3443 22.4495 36.3967 22.5815 36.3967H24.3971C24.5292 36.3967 24.6559 36.3443 24.7493 36.2509C24.8427 36.1575 24.8951 36.0308 24.8951 35.8987C24.8951 35.7666 24.8427 35.6399 24.7493 35.5465C24.6559 35.4531 24.5292 35.4006 24.3971 35.4006Z" fill="white"/>
<path d="M47.5 26.5C47.4066 26.5934 47.6321 26.5 47.5 26.5C47.5934 26.4066 48 26.6321 48 26.5V19.7848C48 19.0678 47.4167 18.4845 46.6997 18.4845H28.3286C27.6116 18.4845 27.0283 19.0678 27.0283 19.7848V24.799H25.9813V22.6358C25.9813 21.8115 25.3106 21.1407 24.4863 21.1407C23.6619 21.1407 22.9912 21.8115 22.9912 22.6358V24.799H22.6371C21.9599 24.799 21.3903 25.2843 21.2828 25.9529L20.1403 33.0575H17.7958C16.4352 33.0575 15.3281 34.1645 15.3281 35.5252V41.1163H14.498C14.366 41.1163 14.2393 41.1688 14.1459 41.2622C14.0525 41.3556 14 41.4822 14 41.6143C14 41.7464 14.0525 41.8731 14.1459 41.9665C14.2393 42.0599 14.366 42.1124 14.498 42.1124H18.1681C18.4185 43.4777 19.6172 44.5155 21.0537 44.5155C22.4903 44.5155 23.6889 43.4777 23.9393 42.1124H32.2318C32.3639 42.1124 32.9066 42.0934 33 42C33.0934 41.9066 32.5 41.6321 32.5 41.5C32.5 41.3679 32.5934 41.5934 32.5 41.5C32.4066 41.4066 32.3146 41.1163 32.1825 41.1163H28.0244V37.6375H47.0039V41.1163H45.0598C44.8361 39.7191 43.6223 38.6482 42.163 38.6482C40.7037 38.6482 39.49 39.7191 39.2663 41.1163H32.1516C32.0195 41.1163 31.8928 41.1688 31.7994 41.2622C31.706 41.3556 31.6536 41.4822 31.6536 41.6143C31.6536 41.7464 31.706 41.8731 31.7994 41.9665C31.8928 42.0599 32.0195 42.1124 32.1516 42.1124H39.2775C39.5279 43.4777 40.7265 44.5155 42.1631 44.5155C43.5997 44.5155 44.7983 43.4777 45.0487 42.1124H47.502C47.634 42.1124 47.7607 42.0599 47.8541 41.9665C47.9475 41.8731 48 41.7464 48 41.6143V26.0793C48 25.9472 47.9475 25.8205 47.8541 25.7271C47.7607 25.6337 47.634 25.5813 47.502 25.5813C47.3699 25.5813 47.2432 25.6337 47.1498 25.7271C47.0564 25.8205 47.0039 25.9472 47.0039 26.0793V36.6413H28.0244V19.7848C28.0245 19.7041 28.0566 19.6268 28.1136 19.5698C28.1706 19.5128 28.248 19.4807 28.3286 19.4806H46.6996C46.7803 19.4807 46.8576 19.5128 46.9146 19.5698C46.9717 19.6268 47.0037 19.7041 47.0038 19.7848L47 26.5C47 26.6321 47.4066 26.4066 47.5 26.5C47.5934 26.5934 47.3679 26.5 47.5 26.5ZM23.9874 22.6358C23.9874 22.3606 24.2112 22.1368 24.4863 22.1368C24.7615 22.1368 24.9853 22.3606 24.9853 22.6358V24.6421H23.9874L23.9874 22.6358ZM21.9987 27.7748H23.899V33.0575H21.1492L21.9987 27.7748ZM16.3242 36.642H17.4835V37.6381H16.3242V36.642ZM21.0537 43.5195C19.9853 43.5195 19.1161 42.6503 19.1161 41.5819C19.1161 40.5134 19.9853 39.6443 21.0537 39.6443C22.1221 39.6443 22.9913 40.5134 22.9913 41.5819C22.9913 42.6503 22.1221 43.5195 21.0537 43.5195ZM27.0283 41.1163H23.9504C23.7267 39.7191 22.5129 38.6482 21.0537 38.6482C19.5945 38.6482 18.3807 39.7191 18.157 41.1163H16.3242V38.6341H17.9816C18.1137 38.6341 18.2404 38.5817 18.3338 38.4883C18.4272 38.3949 18.4796 38.2682 18.4796 38.1361V36.1439C18.4796 36.0118 18.4272 35.8851 18.3338 35.7917C18.2404 35.6983 18.1137 35.6459 17.9816 35.6459H16.3242V35.5252C16.3242 34.7138 16.9844 34.0536 17.7958 34.0536H24.3972C24.5293 34.0536 24.6559 34.0012 24.7493 33.9078C24.8427 33.8144 24.8952 33.6877 24.8952 33.5556V27.2768C24.8952 27.1447 24.8427 27.018 24.7493 26.9246C24.6559 26.8312 24.5293 26.7787 24.3972 26.7787H22.1589L22.2663 26.111C22.2802 26.0227 22.3252 25.9423 22.3932 25.8844C22.4613 25.8264 22.5478 25.7948 22.6371 25.7951H27.0284L27.0283 41.1163ZM42.1631 43.5195C41.0947 43.5195 40.2255 42.6503 40.2255 41.5819C40.2255 40.5134 41.0947 39.6443 42.1631 39.6443C43.2315 39.6443 44.1007 40.5134 44.1007 41.5819C44.1007 42.6503 43.2314 43.5195 42.1631 43.5195Z" fill="white"/>
<path d="M34.2793 33.5097C34.9072 33.9886 35.7395 34.1491 36.5058 33.939C36.8077 33.8562 37.1588 33.8125 37.5213 33.8125C37.8898 33.8125 38.2461 33.8577 38.5514 33.9431C38.7747 34.0056 39.0054 34.0373 39.2373 34.0373C39.7371 34.0372 40.2258 33.8901 40.6428 33.6144C41.2206 33.2326 41.6022 32.6303 41.6896 31.9619L41.6897 31.9615C41.7978 31.1298 41.4777 30.3296 40.8327 29.8142C40.6099 29.5897 40.0928 29.0052 39.6805 28.0607C39.3162 27.1888 38.4705 26.6256 37.525 26.6256C37.064 26.6247 36.6131 26.7607 36.2295 27.0162C35.8458 27.2718 35.5465 27.6354 35.3696 28.0611C34.8486 29.255 34.1411 29.8883 34.1354 29.8934C33.8892 30.1127 33.692 30.3816 33.557 30.6824C33.4219 30.9832 33.352 31.3092 33.3517 31.6389C33.3517 32.3783 33.6898 33.0601 34.2793 33.5097ZM34.7932 30.6414C34.8651 30.5779 35.6828 29.8363 36.2844 28.4553L36.2878 28.4476C36.3889 28.2028 36.5606 27.9936 36.7809 27.8465C37.0012 27.6995 37.2602 27.6212 37.525 27.6217C38.0684 27.6217 38.5541 27.9457 38.7626 28.4473L38.7659 28.4551C39.2596 29.5882 39.8989 30.2913 40.1507 30.541C40.165 30.555 40.18 30.5682 40.1958 30.5805C40.5762 30.8762 40.7655 31.3444 40.702 31.8332C40.6512 32.2204 40.4352 32.5578 40.0937 32.7835C39.9082 32.9063 39.6984 32.9878 39.4787 33.0224C39.2589 33.057 39.0342 33.0439 38.82 32.984C38.4284 32.8745 37.9793 32.8166 37.5214 32.8166C37.0712 32.8166 36.629 32.8725 36.2425 32.9785C35.774 33.107 35.2659 33.0095 34.8835 32.7178C34.5381 32.4544 34.3479 32.0714 34.3479 31.639C34.348 31.4508 34.3877 31.2647 34.4644 31.0929C34.5412 30.921 34.6532 30.7672 34.7932 30.6414ZM33.8056 26.7292C33.5689 26.271 33.2078 25.9054 32.7888 25.6999C32.3266 25.4732 31.8279 25.4639 31.4206 25.6746C30.6062 26.0953 30.3778 27.2177 30.9007 28.2299C31.2931 28.9891 31.9807 29.4394 32.6435 29.4394C32.8643 29.4394 33.0823 29.3895 33.2857 29.2843C34.1001 28.8637 34.3285 27.7413 33.8056 26.7292C33.8057 26.7292 33.8056 26.7292 33.8056 26.7292ZM32.8285 28.3996C32.5603 28.5381 32.0659 28.3149 31.7856 27.7728C31.5056 27.2306 31.6094 26.6983 31.8779 26.5596C31.9359 26.5296 31.9971 26.5182 32.0569 26.5182C32.1724 26.5182 32.282 26.5609 32.3501 26.5943C32.5753 26.7048 32.7833 26.9206 32.9207 27.1865C33.2007 27.7286 33.0969 28.2609 32.8285 28.3996ZM42.3847 29.4395C43.0475 29.4395 43.7352 28.9891 44.1276 28.2299C44.6504 27.2178 44.4221 26.0953 43.6078 25.6747C43.2004 25.4641 42.7016 25.4733 42.2394 25.6999C41.8205 25.9055 41.4594 26.271 41.2226 26.7292C40.6998 27.7413 40.9282 28.8637 41.7426 29.2845C41.941 29.3871 42.1613 29.4403 42.3847 29.4395ZM42.1076 27.1864C42.2449 26.9205 42.4529 26.7047 42.6781 26.5942C42.7815 26.5435 42.9803 26.4716 43.1505 26.5596C43.4189 26.6982 43.5227 27.2305 43.2427 27.7727C42.9625 28.3149 42.4682 28.5381 42.1997 28.3996C41.9314 28.2609 41.8275 27.7286 42.1076 27.1864ZM35.5394 26.101C35.9974 26.101 36.4127 25.8343 36.679 25.3692C36.9106 24.9644 37.0078 24.4318 36.9456 23.908C36.824 22.879 36.118 22.073 35.338 22.073C34.8801 22.073 34.4648 22.3396 34.1987 22.8044C33.9672 23.2091 33.87 23.7416 33.932 24.2654C34.0535 25.2947 34.7596 26.101 35.5394 26.101ZM35.0632 23.2992C35.0941 23.2452 35.2053 23.0691 35.3381 23.0691C35.5394 23.0691 35.8887 23.4504 35.9565 24.0251V24.0255C35.9935 24.337 35.9404 24.6544 35.8145 24.8744C35.7835 24.9285 35.6722 25.1049 35.5394 25.1049C35.3383 25.1049 34.9891 24.7235 34.9212 24.1484C34.8843 23.8365 34.9374 23.519 35.0632 23.2992ZM39.5227 26.101C40.3026 26.101 41.0086 25.2947 41.1301 24.2654C41.1922 23.7415 41.095 23.2089 40.8634 22.8043C40.5974 22.3395 40.1822 22.073 39.7242 22.073C38.9441 22.073 38.238 22.8792 38.1165 23.9084C38.0544 24.432 38.1516 24.9645 38.3833 25.3694C38.6494 25.8343 39.0648 26.101 39.5227 26.101ZM39.1057 24.0254V24.025C39.1735 23.4504 39.5228 23.0691 39.7242 23.0691C39.857 23.0691 39.9681 23.2452 39.9989 23.299C40.1248 23.519 40.1778 23.8364 40.1409 24.1484C40.0731 24.7234 39.7239 25.1048 39.5227 25.1048C39.39 25.1048 39.2786 24.9284 39.2478 24.8744C39.1218 24.6544 39.0687 24.337 39.1057 24.0254Z" fill="white"/>
<path d="M21.0537 42.0798C21.3288 42.0798 21.5518 41.8569 21.5518 41.5818C21.5518 41.3067 21.3288 41.0837 21.0537 41.0837C20.7786 41.0837 20.5557 41.3067 20.5557 41.5818C20.5557 41.8569 20.7786 42.0798 21.0537 42.0798Z" fill="white"/>
<path d="M42.1628 42.0798C42.4379 42.0798 42.6609 41.8569 42.6609 41.5818C42.6609 41.3067 42.4379 41.0837 42.1628 41.0837C41.8878 41.0837 41.6648 41.3067 41.6648 41.5818C41.6648 41.8569 41.8878 42.0798 42.1628 42.0798Z" fill="white"/>
<defs>
<filter id="filter0_d_833_6869" x="0" y="0.5" width="64" height="64" filterUnits="userSpaceOnUse" color-interpolation-filters="sRGB">
<feFlood flood-opacity="0" result="BackgroundImageFix"/>
<feColorMatrix in="SourceAlpha" type="matrix" values="0 0 0 0 0 0 0 0 0 0 0 0 0 0 0 0 0 0 127 0" result="hardAlpha"/>
<feOffset dx="1" dy="1"/>
<feGaussianBlur stdDeviation="1"/>
<feComposite in2="hardAlpha" operator="out"/>
<feColorMatrix type="matrix" values="0 0 0 0 0.458333 0 0 0 0 0.458333 0 0 0 0 0.458333 0 0 0 0.1 0"/>
<feBlend mode="normal" in2="BackgroundImageFix" result="effect1_dropShadow_833_6869"/>
<feBlend mode="normal" in="SourceGraphic" in2="effect1_dropShadow_833_6869" result="shape"/>
</filter>
</defs>
</svg>
