<svg width="64" height="65" viewBox="0 0 64 65" fill="none" xmlns="http://www.w3.org/2000/svg">
<g filter="url(#filter0_d_909_6989)">
<rect x="1" y="1.5" width="60" height="60" rx="6" fill="#19825c"/>
</g>
<g clip-path="url(#clip0_909_6989)">
<path d="M42.1438 17.4707H36.2126C36.0599 16.5405 35.2507 15.8284 34.2779 15.8284H33.4303V15.3309C33.4303 14.8727 33.0575 14.4999 32.5993 14.4999H29.401C28.9428 14.4999 28.5701 14.8727 28.5701 15.3309V15.8284H27.7224C26.7496 15.8284 25.9404 16.5405 25.7877 17.4707H19.8564C19.215 17.4707 18.6931 17.9926 18.6931 18.634V47.3367C18.6931 47.9781 19.215 48.5 19.8564 48.5H42.1438C42.7852 48.5 43.3071 47.9781 43.3071 47.3367V18.634C43.3071 17.9926 42.7852 17.4707 42.1438 17.4707ZM26.0529 20.0675C26.2662 20.3095 26.5775 20.4632 26.9247 20.4632H35.0756C35.4228 20.4632 35.7341 20.3095 35.9475 20.0675H39.4841C39.5282 20.0676 39.5704 20.0851 39.6016 20.1162C39.6327 20.1474 39.6503 20.1897 39.6503 20.2337V43.8411C39.6503 43.8852 39.6328 43.9275 39.6016 43.9586C39.5704 43.9898 39.5282 44.0073 39.4841 44.0074H22.3832C22.3391 44.0073 22.2969 43.9898 22.2657 43.9586C22.2345 43.9275 22.217 43.8852 22.217 43.8411V20.2337C22.217 20.1896 22.2345 20.1474 22.2657 20.1162C22.2968 20.0851 22.3391 20.0675 22.3832 20.0675H26.0529ZM29.5671 15.4971H32.433V16.6271H29.5671V15.4971ZM26.7585 17.7894C26.7585 17.258 27.1909 16.8256 27.7224 16.8256H28.5717C28.5888 17.2687 28.9537 17.6242 29.401 17.6242H32.5993C33.0466 17.6242 33.4115 17.2687 33.4286 16.8256H34.2779C34.8094 16.8256 35.2418 17.258 35.2418 17.7894V19.3C35.2418 19.3441 35.2243 19.3863 35.1931 19.4175C35.1619 19.4486 35.1197 19.4662 35.0756 19.4662H26.9247C26.8806 19.4661 26.8384 19.4486 26.8072 19.4175C26.7761 19.3863 26.7585 19.344 26.7585 19.3V17.7894ZM42.31 47.3367C42.3099 47.3808 42.2924 47.423 42.2612 47.4542C42.2301 47.4854 42.1878 47.5029 42.1438 47.5029H19.8564C19.8124 47.5029 19.7701 47.4853 19.7389 47.4542C19.7078 47.423 19.6903 47.3808 19.6902 47.3367V18.634C19.6902 18.5899 19.7078 18.5477 19.7389 18.5165C19.7701 18.4853 19.8123 18.4678 19.8564 18.4678H25.7613V19.0703H22.3832C21.7418 19.0703 21.2199 19.5922 21.2199 20.2337V43.8411C21.2199 44.4825 21.7418 45.0044 22.3832 45.0044H39.4841C40.1255 45.0044 40.6474 44.4825 40.6474 43.8411V20.2337C40.6474 19.5922 40.1255 19.0703 39.4841 19.0703H36.2389V18.4678H42.1438C42.1879 18.4678 42.2301 18.4854 42.2613 18.5165C42.2925 18.5477 42.31 18.5899 42.31 18.634V47.3367H42.31Z" fill="white"/>
<path d="M25.0357 25.2116H36.9642C37.0964 25.2116 37.2232 25.159 37.3167 25.0655C37.4102 24.972 37.4627 24.8452 37.4627 24.713C37.4627 24.5808 37.4102 24.4539 37.3167 24.3604C37.2232 24.2669 37.0964 24.2144 36.9642 24.2144H25.0357C24.9049 24.2166 24.7801 24.27 24.6884 24.3633C24.5966 24.4566 24.5452 24.5822 24.5452 24.713C24.5452 24.8438 24.5966 24.9694 24.6884 25.0627C24.7801 25.156 24.9049 25.2094 25.0357 25.2116ZM25.0357 27.6331H34.018C34.1502 27.6331 34.277 27.5806 34.3705 27.4871C34.464 27.3936 34.5166 27.2668 34.5166 27.1346C34.5166 27.0023 34.464 26.8755 34.3705 26.782C34.277 26.6885 34.1502 26.636 34.018 26.636H25.0357C24.9049 26.6381 24.7801 26.6916 24.6884 26.7849C24.5966 26.8781 24.5452 27.0037 24.5452 27.1346C24.5452 27.2654 24.5966 27.391 24.6884 27.4843C24.7801 27.5775 24.9049 27.631 25.0357 27.6331ZM33.7954 41.3399C33.2603 41.3399 32.6982 41.1161 32.2607 40.6787C31.7559 40.1739 31.5166 39.4902 31.6206 38.85C31.6401 38.7311 31.6163 38.6091 31.5534 38.5063C31.0476 37.6803 31.1162 36.6816 31.7201 36.0776C32.3242 35.4737 33.3228 35.4051 34.1489 35.9109C34.2517 35.9737 34.3736 35.9975 34.4925 35.9781C35.1327 35.8739 35.8164 36.1133 36.3212 36.6181C37.1252 37.4221 37.2076 38.648 36.5048 39.3508C36.2542 39.6014 35.9291 39.7612 35.5648 39.8128C35.5374 39.817 35.5119 39.8299 35.4922 39.8496C35.4726 39.8692 35.4597 39.8947 35.4554 39.9222C35.4038 40.2867 35.244 40.6116 34.9935 40.8623C34.6729 41.1827 34.2437 41.3399 33.7954 41.3399ZM32.9864 36.568C32.767 36.568 32.5669 36.6396 32.4245 36.782C32.1473 37.0591 32.1384 37.5543 32.4029 37.9861C32.5902 38.2923 32.6615 38.6555 32.6038 39.0097C32.5517 39.3299 32.6902 39.6996 32.9649 39.9743C33.3735 40.3829 33.9798 40.4669 34.289 40.1579C34.3871 40.0598 34.4476 39.9336 34.469 39.7826C34.5387 39.2895 34.9319 38.8963 35.4251 38.8265C35.5759 38.8052 35.7022 38.7446 35.8003 38.6465C36.1093 38.3374 36.0253 37.7311 35.6166 37.3225C35.3419 37.0477 34.9723 36.9094 34.6521 36.9613C34.2979 37.0189 33.9348 36.9477 33.6286 36.7605C33.4188 36.6319 33.1939 36.568 32.9864 36.568ZM30.685 35.0204C31.1717 35.5071 31.1144 35.9612 30.7989 36.2766C30.4835 36.592 30.0294 36.6493 29.5427 36.1626C29.056 35.6759 28.7971 34.75 29.0347 34.5124C29.2724 34.2747 30.1983 34.5337 30.685 35.0204ZM32.742 33.9991C33.1141 34.5466 32.9783 34.9653 32.6235 35.2065C32.2686 35.4477 31.8293 35.4201 31.4571 34.8726C31.085 34.3252 31.0069 33.4037 31.2743 33.222C31.5416 33.0402 32.3698 33.4517 32.742 33.9991ZM34.9904 34.7451C34.997 35.1705 34.7761 35.3474 34.5004 35.3517C34.2246 35.3559 33.9984 35.1859 33.9918 34.7605C33.9852 34.335 34.2688 33.8125 34.4766 33.8093C34.6844 33.8061 34.9839 34.3196 34.9904 34.7451ZM30.3174 37.3454C30.8513 37.5076 30.9837 37.8542 30.8786 38.2002C30.7734 38.5461 30.4706 38.7605 29.9368 38.5983C29.4029 38.4362 28.8642 37.873 28.9434 37.6123C29.0226 37.3515 29.7836 37.1832 30.3174 37.3454Z" fill="white"/>
</g>
<defs>
<filter id="filter0_d_909_6989" x="0" y="0.5" width="64" height="64" filterUnits="userSpaceOnUse" color-interpolation-filters="sRGB">
<feFlood flood-opacity="0" result="BackgroundImageFix"/>
<feColorMatrix in="SourceAlpha" type="matrix" values="0 0 0 0 0 0 0 0 0 0 0 0 0 0 0 0 0 0 127 0" result="hardAlpha"/>
<feOffset dx="1" dy="1"/>
<feGaussianBlur stdDeviation="1"/>
<feComposite in2="hardAlpha" operator="out"/>
<feColorMatrix type="matrix" values="0 0 0 0 0.458333 0 0 0 0 0.458333 0 0 0 0 0.458333 0 0 0 0.1 0"/>
<feBlend mode="normal" in2="BackgroundImageFix" result="effect1_dropShadow_909_6989"/>
<feBlend mode="normal" in="SourceGraphic" in2="effect1_dropShadow_909_6989" result="shape"/>
</filter>
<clipPath id="clip0_909_6989">
<rect width="34" height="34" fill="white" transform="translate(14 14.5)"/>
</clipPath>
</defs>
</svg>