<svg width="64" height="64" viewBox="0 0 64 64" fill="none" xmlns="http://www.w3.org/2000/svg">
<g filter="url(#filter0_d_83_1442)">
<rect x="1" y="1" width="60" height="60" rx="6" fill="#19825c"/>
</g>
<g clip-path="url(#clip0_83_1442)">
<path d="M39.6344 30.6289C38.3004 31.0432 36.9363 31.3537 35.5544 31.5577C35.2312 31.6103 34.9374 31.7765 34.7258 32.0264C34.5142 32.2764 34.3987 32.5936 34.4001 32.9211V37.6403C34.4002 39.2977 34.8844 40.919 35.7932 42.305C36.7021 43.691 37.996 44.7814 39.516 45.4421C39.6906 45.5148 39.8777 45.5522 40.0668 45.5522C40.2559 45.5522 40.4431 45.5148 40.6176 45.4421C42.1378 44.783 43.432 43.6937 44.3409 42.3084C45.2499 40.9231 45.734 39.3023 45.7335 37.6454V32.9211C45.735 32.5933 45.6193 32.2758 45.4073 32.0258C45.1954 31.7759 44.9011 31.6098 44.5775 31.5577C43.1957 31.3537 41.8316 31.0435 40.4975 30.63C40.2176 30.536 39.9146 30.5356 39.6344 30.6289ZM44.3944 32.6768C44.4523 32.6862 44.5049 32.716 44.5426 32.7608C44.5803 32.8056 44.6008 32.8625 44.6001 32.9211V37.6454C44.6006 39.0817 44.1808 40.4868 43.3926 41.6876C42.6045 42.8884 41.4823 43.8325 40.1643 44.4034C40.1315 44.4169 40.0962 44.4236 40.0607 44.4229C40.0253 44.4222 39.9903 44.4142 39.958 44.3995C38.6427 43.8257 37.5234 42.8806 36.7374 41.6799C35.9515 40.4793 35.533 39.0753 35.5335 37.6403V32.9211C35.5328 32.8626 35.5531 32.8059 35.5906 32.7611C35.6281 32.7163 35.6804 32.6864 35.738 32.6768C37.1796 32.4632 38.6024 32.1381 39.9937 31.7044C40.0417 31.6875 40.0941 31.6875 40.1422 31.7044C41.5329 32.1373 42.9549 32.4624 44.3956 32.6768H44.3944ZM22.6531 23.5841C23.2178 23.9763 23.8867 24.1908 24.5741 24.2001C24.7835 24.2001 24.9923 24.179 25.1975 24.1372C27.3089 23.698 28.5839 21.0857 28.0393 18.313C27.7914 16.8267 26.9676 15.4979 25.7466 14.6149C25.3815 14.3568 24.9681 14.1749 24.5312 14.0799C24.0942 13.985 23.6427 13.9791 23.2034 14.0624C21.092 14.4959 19.817 17.1082 20.361 19.8866C20.6086 21.3728 21.4322 22.7014 22.6531 23.5841ZM23.4312 15.1725C23.5589 15.1465 23.689 15.1334 23.8193 15.1334C24.2851 15.1433 24.7374 15.2914 25.1187 15.559C26.0835 16.2793 26.7316 17.3454 26.9269 18.5334C27.3525 20.6992 26.4736 22.716 24.9674 23.0293C24.6748 23.0809 24.3747 23.0732 24.0851 23.0068C23.7954 22.9405 23.522 22.8167 23.281 22.6429C22.3159 21.9223 21.6679 20.8554 21.4733 19.6667C21.0483 17.4987 21.9261 15.4813 23.4312 15.1725ZM15.8333 22.2864C13.995 23.2424 13.4522 25.9001 14.6235 28.2058C15.2063 29.428 16.2504 30.3688 17.5265 30.8216C17.8838 30.9379 18.2569 30.9981 18.6326 31.0001C19.1413 31.003 19.643 30.8822 20.0946 30.6482C21.9369 29.6882 22.482 27.0334 21.3101 24.7276C20.7275 23.5066 19.6843 22.5665 18.4094 22.1136C17.9901 21.9696 17.5463 21.9107 17.1039 21.9404C16.6616 21.97 16.2296 22.0877 15.8333 22.2864ZM20.2992 25.2399C21.1911 26.9966 20.8659 28.9686 19.571 29.6412C19.309 29.7715 19.0233 29.8475 18.7312 29.8645C18.439 29.8816 18.1465 29.8393 17.871 29.7404C16.8837 29.3807 16.0791 28.6445 15.6333 27.693C14.743 25.9363 15.0666 23.9615 16.3569 23.2906C16.6464 23.1413 16.9679 23.0645 17.2936 23.0667C17.555 23.0686 17.8144 23.1112 18.0626 23.1931C19.049 23.5535 19.853 24.2892 20.2992 25.2399ZM33.4045 24.1377C33.6097 24.1796 33.8185 24.2007 34.0278 24.2006C34.7153 24.1912 35.3843 23.9765 35.9488 23.5841C37.1698 22.7014 37.9934 21.3728 38.241 19.8866C38.785 17.1099 37.51 14.4959 35.398 14.0624C34.9588 13.9782 34.5071 13.9837 34.0701 14.0788C33.6332 14.1738 33.2199 14.3564 32.8554 14.6155C31.6344 15.4985 30.8106 16.8272 30.5627 18.3135C30.0181 21.0862 31.2931 23.6969 33.4045 24.1377ZM31.6733 18.5334C31.8691 17.346 32.5172 16.2806 33.4816 15.5607C33.7225 15.3865 33.996 15.2625 34.2858 15.1961C34.5756 15.1297 34.8758 15.1223 35.1685 15.1742C36.6742 15.483 37.5519 17.5004 37.1269 19.6701C36.9316 20.8576 36.2837 21.9231 35.3193 22.6429C35.0783 22.8167 34.8048 22.9404 34.5152 23.0068C34.2255 23.0732 33.9255 23.0808 33.6329 23.0293C32.1267 22.7143 31.2478 20.6975 31.6733 18.5334Z" fill="white"/>
<path d="M23.685 42.3084C23.855 42.3237 24.025 42.331 24.195 42.331C25.4324 42.3334 26.6365 41.9295 27.6222 41.1813C28.1092 40.8284 28.6952 40.6384 29.2966 40.6384C29.8981 40.6384 30.4841 40.8284 30.9712 41.1813C31.6128 41.6644 32.3493 42.0064 33.1324 42.1848C34.2422 44.5725 36.1887 46.4704 38.6036 47.5194L39.385 47.8594C39.5992 47.9515 39.8299 47.999 40.063 47.999C40.2962 47.999 40.5269 47.9515 40.741 47.8594L41.5225 47.5194C43.4473 46.6843 45.086 45.3047 46.2368 43.5504C47.3877 41.796 48.0006 39.7434 48 37.6453V31.2357C48 30.8235 47.8503 30.4254 47.5786 30.1154C47.307 29.8053 46.9319 29.6046 46.5233 29.5504C45.4958 29.4185 44.4732 29.2514 43.4571 29.0495C43.6544 28.784 43.8287 28.5021 43.9778 28.2069C45.1441 25.9 44.6 23.244 42.7663 22.2869C42.3713 22.0873 41.9403 21.9689 41.4987 21.9385C41.0572 21.9081 40.614 21.9665 40.1954 22.1101C38.9186 22.5627 37.8737 23.5035 37.29 24.7258C36.9401 25.3724 36.7345 26.0872 36.6872 26.8208C36.64 27.5545 36.7522 28.2897 37.0163 28.9758C36.3994 29.1069 35.7793 29.2224 35.1565 29.3221C34.8768 28.8949 34.6252 28.4499 34.4035 27.9898C33.9317 27.035 33.2057 26.2289 32.3052 25.6602C31.4048 25.0915 30.3649 24.7823 29.3001 24.7666C28.2338 24.7871 27.1937 25.0998 26.2929 25.6707C25.3921 26.2415 24.6653 27.0486 24.1916 28.004C23.4317 29.6312 22.2764 31.0422 20.8312 32.1084C19.9075 32.7912 19.2131 33.7387 18.8401 34.8251C18.4671 35.9116 18.4331 37.0857 18.7426 38.1919C19.0521 39.2981 19.6905 40.2842 20.5731 41.0193C21.4558 41.7545 22.541 42.204 23.685 42.3084ZM46.8667 31.2357V37.6453C46.8671 39.5222 46.319 41.3583 45.2898 42.9278C44.2606 44.4973 42.7952 45.7319 41.0737 46.4796L40.2911 46.8196C40.2196 46.8508 40.1425 46.8669 40.0644 46.8669C39.9864 46.8669 39.9093 46.8508 39.8378 46.8196L39.0558 46.4796C37.3351 45.7312 35.8705 44.4964 34.842 42.9269C33.8136 41.3575 33.266 39.5217 33.2667 37.6453V31.2357C33.2667 31.0987 33.3162 30.9664 33.4063 30.8632C33.4963 30.7599 33.6206 30.6928 33.7563 30.6741C35.3044 30.473 38.1553 30.0327 39.8633 29.3396C39.9943 29.2867 40.1408 29.2867 40.2719 29.3396C41.9792 30.0321 44.8307 30.473 46.3788 30.6741C46.5142 30.6931 46.6382 30.7605 46.7278 30.8637C46.8175 30.9669 46.8668 31.099 46.8667 31.2357ZM38.2999 25.2381C38.7468 24.286 39.5523 23.5493 40.5404 23.189C40.8161 23.0906 41.1087 23.0489 41.4009 23.0664C41.693 23.0839 41.9786 23.1603 42.2404 23.291C43.5285 23.9637 43.8543 25.9391 42.9658 27.6963C42.7633 28.0873 42.505 28.4467 42.1991 28.7633C41.6885 28.6378 41.1865 28.4796 40.6963 28.2896C40.292 28.1247 39.8392 28.1247 39.4349 28.2896C39.0105 28.4555 38.5766 28.5961 38.1355 28.7106C37.8948 28.158 37.7844 27.5574 37.8129 26.9552C37.8414 26.3531 38.008 25.7656 38.2999 25.2381ZM21.5056 33.019C23.1018 31.8416 24.3777 30.283 25.2167 28.4857C25.5956 27.7223 26.1767 27.0776 26.8967 26.6217C27.6167 26.1658 28.448 25.9161 29.3001 25.9C30.153 25.9145 30.9854 26.1639 31.7059 26.6206C32.4263 27.0774 33.007 27.7239 33.384 28.4891C33.5495 28.8364 33.7348 29.1753 33.9314 29.5091L33.609 29.5527C33.201 29.607 32.8265 29.8076 32.5551 30.1171C32.2837 30.4266 32.1339 30.8241 32.1334 31.2357V37.6453C32.1339 38.7267 32.2975 39.8018 32.6184 40.8345C32.2781 40.6886 31.9567 40.5019 31.6614 40.2786C30.9784 39.7731 30.1512 39.5002 29.3015 39.5002C28.4518 39.5002 27.6245 39.7731 26.9416 40.2786C26.304 40.7619 25.5498 41.0679 24.7557 41.1654C23.9616 41.263 23.1558 41.1486 22.4202 40.8339C21.6846 40.5193 21.0453 40.0155 20.5674 39.3739C20.0895 38.7322 19.7899 37.9755 19.699 37.1806C19.6044 36.3891 19.7218 35.5866 20.0392 34.8554C20.3566 34.1241 20.8627 33.4904 21.5056 33.019Z" fill="white"/>
<path d="M38.7673 38.5327C38.6605 38.4295 38.5173 38.3724 38.3687 38.3737C38.2202 38.3749 38.078 38.4345 37.973 38.5396C37.8679 38.6447 37.8083 38.7868 37.807 38.9354C37.8057 39.0839 37.8629 39.2271 37.9661 39.334L38.5327 39.9006C38.5852 39.9534 38.6477 39.9953 38.7164 40.0238C38.7852 40.0523 38.8589 40.0669 38.9334 40.0667H38.9589C39.0376 40.063 39.1146 40.0431 39.1852 40.0082C39.2558 39.9733 39.3185 39.9241 39.3691 39.8638L42.2025 36.4638C42.2502 36.4066 42.2861 36.3405 42.3083 36.2694C42.3305 36.1983 42.3384 36.1235 42.3317 36.0493C42.325 35.9751 42.3037 35.9029 42.2691 35.837C42.2344 35.771 42.1872 35.7125 42.1299 35.6648C42.0727 35.6171 42.0067 35.5811 41.9355 35.559C41.8644 35.5368 41.7896 35.5289 41.7154 35.5356C41.6412 35.5423 41.5691 35.5636 41.5031 35.5982C41.4371 35.6328 41.3786 35.6801 41.3309 35.7373L38.8943 38.6613L38.7673 38.5327Z" fill="white"/>
</g>
<defs>
<filter id="filter0_d_83_1442" x="0" y="0" width="64" height="64" filterUnits="userSpaceOnUse" color-interpolation-filters="sRGB">
<feFlood flood-opacity="0" result="BackgroundImageFix"/>
<feColorMatrix in="SourceAlpha" type="matrix" values="0 0 0 0 0 0 0 0 0 0 0 0 0 0 0 0 0 0 127 0" result="hardAlpha"/>
<feOffset dx="1" dy="1"/>
<feGaussianBlur stdDeviation="1"/>
<feComposite in2="hardAlpha" operator="out"/>
<feColorMatrix type="matrix" values="0 0 0 0 0.458333 0 0 0 0 0.458333 0 0 0 0 0.458333 0 0 0 0.1 0"/>
<feBlend mode="normal" in2="BackgroundImageFix" result="effect1_dropShadow_83_1442"/>
<feBlend mode="normal" in="SourceGraphic" in2="effect1_dropShadow_83_1442" result="shape"/>
</filter>
<clipPath id="clip0_83_1442">
<rect width="34" height="34" fill="white" transform="translate(14 14)"/>
</clipPath>
</defs>
</svg>
