<svg width="64" height="64" viewBox="0 0 64 64" fill="none" xmlns="http://www.w3.org/2000/svg">
<g filter="url(#filter0_d_83_1443)">
<rect x="1" y="1" width="60" height="60" rx="6" fill="#19825c"/>
</g>
<g clip-path="url(#clip0_83_1443)">
<path d="M19.6579 16.7377C19.6383 16.6217 19.5831 16.5147 19.4999 16.4315C19.4167 16.3484 19.3097 16.2931 19.1937 16.2735C18.7433 16.1983 18.3277 15.9842 18.0048 15.6613C17.682 15.3383 17.4681 14.9226 17.393 14.4722C17.3706 14.3402 17.3023 14.2203 17.2 14.1339C17.0977 14.0475 16.9682 14.0001 16.8343 14.0001C16.7004 14.0001 16.5708 14.0475 16.4685 14.1339C16.3663 14.2203 16.2979 14.3402 16.2756 14.4722C16.2005 14.9226 15.9866 15.3383 15.6637 15.6613C15.3409 15.9842 14.9252 16.1983 14.4748 16.2735C14.3428 16.2958 14.223 16.3642 14.1365 16.4665C14.0501 16.5687 14.0027 16.6983 14.0027 16.8322C14.0027 16.9661 14.0501 17.0957 14.1365 17.1979C14.223 17.3002 14.3428 17.3686 14.4748 17.3909C14.9252 17.4661 15.3409 17.6802 15.6637 18.0031C15.9865 18.3261 16.2005 18.7418 16.2756 19.1922C16.2979 19.3242 16.3663 19.4441 16.4685 19.5305C16.5708 19.6169 16.7004 19.6643 16.8343 19.6643C16.9682 19.6643 17.0977 19.6169 17.2 19.5305C17.3023 19.4441 17.3706 19.3242 17.393 19.1922C17.4681 18.7418 17.682 18.3261 18.0048 18.0031C18.3277 17.6802 18.7433 17.4661 19.1937 17.3909C19.2671 17.3785 19.3373 17.3518 19.4003 17.3122C19.4633 17.2727 19.518 17.2211 19.5611 17.1605C19.6042 17.0998 19.6349 17.0312 19.6515 16.9587C19.6681 16.8862 19.6703 16.8111 19.6579 16.7377ZM16.8343 17.6413C16.6133 17.3269 16.3396 17.0531 16.0251 16.8322C16.3396 16.6113 16.6133 16.3375 16.8343 16.0231C17.0552 16.3375 17.329 16.6113 17.6434 16.8322C17.329 17.0531 17.0552 17.3269 16.8343 17.6413ZM36.5109 17.3983C35.415 17.3982 34.3304 17.6208 33.3231 18.0527C32.5885 18.3656 31.7984 18.5269 30.9999 18.5269C30.2015 18.5269 29.4113 18.3656 28.6768 18.0527C24.571 16.2924 19.8156 18.1938 18.0553 22.2996C17.6235 23.3069 17.4008 24.3914 17.4009 25.4874C17.3998 28.8244 18.3376 32.0943 20.1071 34.9235L20.2692 35.1835L22.7158 45.9494C23.0376 47.3673 24.4479 48.2558 25.8657 47.9341C26.3756 47.8183 26.8396 47.5534 27.1983 47.173C27.5571 46.7926 27.7944 46.314 27.8801 45.7982L29.58 35.6023C29.7115 34.8177 30.4541 34.2884 31.2387 34.4199C31.5343 34.4695 31.8071 34.61 32.019 34.822C32.2309 35.0339 32.3715 35.3067 32.421 35.6023L34.1209 45.7976C34.3602 47.232 35.7169 48.2009 37.1513 47.9617C37.6667 47.8757 38.1448 47.6384 38.5249 47.2798C38.905 46.9213 39.1698 46.4578 39.2857 45.9483L41.7318 35.1824L41.8939 34.9223C43.6628 32.0934 44.6002 28.8239 44.599 25.4874C44.5992 21.0202 40.9781 17.3986 36.5109 17.3983ZM40.9318 34.3234L40.7187 34.6634C40.6853 34.7173 40.6608 34.7762 40.6462 34.8379L38.1797 45.6956C37.996 46.5033 37.1923 47.0092 36.3846 46.8256C36.0944 46.7596 35.8304 46.6088 35.6262 46.3923C35.4219 46.1759 35.2867 45.9036 35.2377 45.61L33.5378 35.4147C33.3038 34.0131 31.9779 33.0665 30.5762 33.3006C30.0475 33.3888 29.5595 33.64 29.1805 34.019C28.8015 34.3981 28.5503 34.886 28.462 35.4147L26.7621 45.6106C26.6268 46.4275 25.8547 46.98 25.0379 46.8446C24.7439 46.7959 24.4711 46.6607 24.2543 46.4562C24.0375 46.2518 23.8866 45.9873 23.8208 45.6967L21.3537 34.8385C21.339 34.7768 21.3146 34.7178 21.2811 34.6639L21.0681 34.324C19.4114 31.6744 18.5333 28.6123 18.5341 25.4874C18.5385 21.6479 21.65 18.5365 25.4895 18.5321C26.4316 18.5311 27.364 18.7223 28.2297 19.0942C29.1055 19.4678 30.0478 19.6604 30.9999 19.6604C31.9521 19.6604 32.8944 19.4678 33.7702 19.0942C37.3013 17.5811 41.3904 19.2171 42.9035 22.7482C43.2744 23.6138 43.4657 24.5457 43.4657 25.4874C43.4664 28.6121 42.5884 31.674 40.9318 34.3234Z" fill="white"/>
<path d="M23.6339 21.3652L23.5206 20.8099C22.3873 21.0371 20.2341 22.2746 20.2341 25.3316H21.3674C21.3674 22.4582 23.6509 21.9409 23.7472 21.9199L23.6339 21.3652ZM24.7671 20.7986H25.9004V21.9318H24.7671V20.7986ZM47.9893 40.536C47.9697 40.42 47.9145 40.313 47.8313 40.2298C47.7481 40.1467 47.6411 40.0914 47.5251 40.0718C47.0747 39.9966 46.6591 39.7825 46.3363 39.4596C46.0134 39.1366 45.7995 38.7209 45.7244 38.2705C45.7021 38.1385 45.6337 38.0186 45.5314 37.9322C45.4292 37.8458 45.2996 37.7984 45.1657 37.7984C45.0318 37.7984 44.9022 37.8458 44.8 37.9322C44.6977 38.0186 44.6293 38.1385 44.607 38.2705C44.5319 38.7209 44.318 39.1366 43.9951 39.4596C43.6723 39.7825 43.2567 39.9966 42.8063 40.0718C42.6742 40.0941 42.5544 40.1625 42.468 40.2648C42.3815 40.367 42.3341 40.4966 42.3341 40.6305C42.3341 40.7644 42.3815 40.894 42.468 40.9963C42.5544 41.0985 42.6742 41.1669 42.8063 41.1892C43.2567 41.2645 43.6723 41.4785 43.9951 41.8014C44.318 42.1244 44.5319 42.5401 44.607 42.9905C44.6293 43.1225 44.6977 43.2424 44.8 43.3288C44.9022 43.4152 45.0318 43.4627 45.1657 43.4627C45.2996 43.4627 45.4292 43.4152 45.5314 43.3288C45.6337 43.2424 45.7021 43.1225 45.7244 42.9905C45.7995 42.5401 46.0134 42.1244 46.3363 41.8014C46.6591 41.4785 47.0747 41.2645 47.5251 41.1892C47.5985 41.1768 47.6687 41.1501 47.7317 41.1105C47.7948 41.071 47.8494 41.0194 47.8925 40.9588C47.9356 40.8981 47.9664 40.8296 47.983 40.757C47.9996 40.6845 48.0017 40.6094 47.9893 40.536ZM45.1657 41.4397C44.9448 41.1252 44.671 40.8515 44.3566 40.6305C44.671 40.4096 44.9448 40.1358 45.1657 39.8214C45.3866 40.1358 45.6604 40.4096 45.9748 40.6305C45.6604 40.8515 45.3866 41.1252 45.1657 41.4397Z" fill="white"/>
</g>
<defs>
<filter id="filter0_d_83_1443" x="0" y="0" width="64" height="64" filterUnits="userSpaceOnUse" color-interpolation-filters="sRGB">
<feFlood flood-opacity="0" result="BackgroundImageFix"/>
<feColorMatrix in="SourceAlpha" type="matrix" values="0 0 0 0 0 0 0 0 0 0 0 0 0 0 0 0 0 0 127 0" result="hardAlpha"/>
<feOffset dx="1" dy="1"/>
<feGaussianBlur stdDeviation="1"/>
<feComposite in2="hardAlpha" operator="out"/>
<feColorMatrix type="matrix" values="0 0 0 0 0.458333 0 0 0 0 0.458333 0 0 0 0 0.458333 0 0 0 0.1 0"/>
<feBlend mode="normal" in2="BackgroundImageFix" result="effect1_dropShadow_83_1443"/>
<feBlend mode="normal" in="SourceGraphic" in2="effect1_dropShadow_83_1443" result="shape"/>
</filter>
<clipPath id="clip0_83_1443">
<rect width="34" height="34" fill="white" transform="translate(14 14)"/>
</clipPath>
</defs>
</svg>
