<svg width="189" height="173" viewBox="0 0 189 173" fill="none" xmlns="http://www.w3.org/2000/svg">
<g opacity="0.6">
<path d="M3.8522 7.70442C1.73647 7.70442 0 5.98789 0 3.85221C0 1.73649 1.71651 0 3.8522 0C5.98788 0 7.70439 1.71653 7.70439 3.85221C7.70439 5.96793 5.96792 7.70442 3.8522 7.70442Z" fill="#2F2D53"/>
<path d="M40.059 7.70442C37.9433 7.70442 36.2068 5.98789 36.2068 3.85221C36.2068 1.73649 37.9233 0 40.059 0C42.1747 0 43.9112 1.71653 43.9112 3.85221C43.8912 5.96793 42.1747 7.70442 40.059 7.70442Z" fill="#2F2D53"/>
<path d="M76.2459 7.70442C74.1302 7.70442 72.3937 5.98789 72.3937 3.85221C72.3937 1.73649 74.1102 0 76.2459 0C78.3616 0 80.0981 1.71653 80.0981 3.85221C80.0981 5.96793 78.3816 7.70442 76.2459 7.70442Z" fill="#2F2D53"/>
<path d="M112.453 7.70442C110.337 7.70442 108.6 5.98789 108.6 3.85221C108.6 1.73649 110.317 0 112.453 0C114.568 0 116.305 1.71653 116.305 3.85221C116.305 5.96793 114.568 7.70442 112.453 7.70442Z" fill="#2F2D53"/>
<path d="M148.64 7.70442C146.524 7.70442 144.787 5.98789 144.787 3.85221C144.787 1.73649 146.504 0 148.64 0C150.755 0 152.492 1.71653 152.492 3.85221C152.492 5.96793 150.775 7.70442 148.64 7.70442Z" fill="#2F2D53"/>
<path d="M184.846 7.70442C182.73 7.70442 180.994 5.98789 180.994 3.85221C180.994 1.73649 182.71 0 184.846 0C186.982 0 188.698 1.71653 188.698 3.85221C188.698 5.96793 186.962 7.70442 184.846 7.70442Z" fill="#2F2D53"/>
<path d="M3.8522 40.7177C1.73647 40.7177 0 39.0011 0 36.8655C0 34.7497 1.71651 33.0132 3.8522 33.0132C5.98788 33.0132 7.70439 34.7298 7.70439 36.8655C7.70439 38.9812 5.96792 40.7177 3.8522 40.7177Z" fill="#2F2D53"/>
<path d="M40.059 40.7175C37.9433 40.7175 36.2068 39.001 36.2068 36.8653C36.2068 34.7496 37.9233 33.0131 40.059 33.0131C42.1747 33.0131 43.9112 34.7297 43.9112 36.8653C43.8912 38.9811 42.1747 40.7175 40.059 40.7175Z" fill="#2F2D53"/>
<path d="M76.2459 40.7175C74.1302 40.7175 72.3937 39.001 72.3937 36.8653C72.3937 34.7496 74.1102 33.0131 76.2459 33.0131C78.3616 33.0131 80.0981 34.7297 80.0981 36.8653C80.0981 38.9811 78.3816 40.7175 76.2459 40.7175Z" fill="#2F2D53"/>
<path d="M112.453 40.7175C110.337 40.7175 108.6 39.001 108.6 36.8653C108.6 34.7496 110.317 33.0131 112.453 33.0131C114.568 33.0131 116.305 34.7297 116.305 36.8653C116.305 38.9811 114.568 40.7175 112.453 40.7175Z" fill="#2F2D53"/>
<path d="M148.64 40.7175C146.524 40.7175 144.787 39.001 144.787 36.8653C144.787 34.7496 146.504 33.0131 148.64 33.0131C150.755 33.0131 152.492 34.7297 152.492 36.8653C152.492 38.9811 150.775 40.7175 148.64 40.7175Z" fill="#2F2D53"/>
<path d="M184.846 40.7175C182.73 40.7175 180.994 39.001 180.994 36.8653C180.994 34.7496 182.71 33.0131 184.846 33.0131C186.982 33.0131 188.698 34.7297 188.698 36.8653C188.698 38.9811 186.962 40.7175 184.846 40.7175Z" fill="#2F2D53"/>
<path d="M3.8522 73.7111C1.73647 73.7111 0 71.9946 0 69.8589C0 67.7432 1.71651 66.0067 3.8522 66.0067C5.98788 66.0067 7.70439 67.7232 7.70439 69.8589C7.70439 71.9946 5.96792 73.7111 3.8522 73.7111Z" fill="#2F2D53"/>
<path d="M40.059 73.7112C37.9433 73.7112 36.2068 71.9947 36.2068 69.859C36.2068 67.7432 37.9233 66.0068 40.059 66.0068C42.1747 66.0068 43.9112 67.7233 43.9112 69.859C43.8912 71.9947 42.1747 73.7112 40.059 73.7112Z" fill="#2F2D53"/>
<path d="M76.2459 73.7112C74.1302 73.7112 72.3937 71.9947 72.3937 69.859C72.3937 67.7432 74.1102 66.0068 76.2459 66.0068C78.3616 66.0068 80.0981 67.7233 80.0981 69.859C80.0981 71.9947 78.3816 73.7112 76.2459 73.7112Z" fill="#2F2D53"/>
<path d="M112.453 73.7112C110.337 73.7112 108.6 71.9947 108.6 69.859C108.6 67.7432 110.317 66.0068 112.453 66.0068C114.568 66.0068 116.305 67.7233 116.305 69.859C116.305 71.9947 114.568 73.7112 112.453 73.7112Z" fill="#2F2D53"/>
<path d="M148.64 73.7112C146.524 73.7112 144.787 71.9947 144.787 69.859C144.787 67.7432 146.504 66.0068 148.64 66.0068C150.755 66.0068 152.492 67.7233 152.492 69.859C152.492 71.9947 150.775 73.7112 148.64 73.7112Z" fill="#2F2D53"/>
<path d="M184.846 73.7112C182.73 73.7112 180.994 71.9947 180.994 69.859C180.994 67.7432 182.71 66.0068 184.846 66.0068C186.982 66.0068 188.698 67.7233 188.698 69.859C188.698 71.9947 186.962 73.7112 184.846 73.7112Z" fill="#2F2D53"/>
<path d="M3.8522 106.724C1.73647 106.724 0 105.008 0 102.872C0 100.756 1.71651 99.0197 3.8522 99.0197C5.98788 99.0197 7.70439 100.736 7.70439 102.872C7.70439 104.988 5.96792 106.724 3.8522 106.724Z" fill="#2F2D53"/>
<path d="M40.059 106.724C37.9433 106.724 36.2068 105.008 36.2068 102.872C36.2068 100.756 37.9233 99.0197 40.059 99.0197C42.1747 99.0197 43.9112 100.736 43.9112 102.872C43.8912 104.988 42.1747 106.724 40.059 106.724Z" fill="#2F2D53"/>
<path d="M76.2459 106.724C74.1302 106.724 72.3937 105.008 72.3937 102.872C72.3937 100.756 74.1102 99.0197 76.2459 99.0197C78.3616 99.0197 80.0981 100.736 80.0981 102.872C80.0981 104.988 78.3816 106.724 76.2459 106.724Z" fill="#2F2D53"/>
<path d="M112.453 106.724C110.337 106.724 108.6 105.008 108.6 102.872C108.6 100.756 110.317 99.0197 112.453 99.0197C114.568 99.0197 116.305 100.736 116.305 102.872C116.305 104.988 114.568 106.724 112.453 106.724Z" fill="#2F2D53"/>
<path d="M148.64 106.724C146.524 106.724 144.787 105.008 144.787 102.872C144.787 100.756 146.504 99.0197 148.64 99.0197C150.755 99.0197 152.492 100.736 152.492 102.872C152.492 104.988 150.775 106.724 148.64 106.724Z" fill="#2F2D53"/>
<path d="M184.846 106.724C182.73 106.724 180.994 105.008 180.994 102.872C180.994 100.756 182.71 99.0197 184.846 99.0197C186.982 99.0197 188.698 100.736 188.698 102.872C188.698 104.988 186.962 106.724 184.846 106.724Z" fill="#2F2D53"/>
<path d="M3.8522 139.738C1.73647 139.738 0 138.021 0 135.885C0 133.77 1.71651 132.033 3.8522 132.033C5.98788 132.033 7.70439 133.75 7.70439 135.885C7.70439 138.001 5.96792 139.738 3.8522 139.738Z" fill="#2F2D53"/>
<path d="M40.059 139.737C37.9433 139.737 36.2068 138.021 36.2068 135.885C36.2068 133.769 37.9233 132.033 40.059 132.033C42.1747 132.033 43.9112 133.75 43.9112 135.885C43.8912 138.001 42.1747 139.737 40.059 139.737Z" fill="#2F2D53"/>
<path d="M76.2459 139.737C74.1302 139.737 72.3937 138.021 72.3937 135.885C72.3937 133.769 74.1102 132.033 76.2459 132.033C78.3616 132.033 80.0981 133.75 80.0981 135.885C80.0981 138.001 78.3816 139.737 76.2459 139.737Z" fill="#2F2D53"/>
<path d="M112.453 139.737C110.337 139.737 108.6 138.021 108.6 135.885C108.6 133.769 110.317 132.033 112.453 132.033C114.568 132.033 116.305 133.75 116.305 135.885C116.305 138.001 114.568 139.737 112.453 139.737Z" fill="#2F2D53"/>
<path d="M148.64 139.737C146.524 139.737 144.787 138.021 144.787 135.885C144.787 133.769 146.504 132.033 148.64 132.033C150.755 132.033 152.492 133.75 152.492 135.885C152.492 138.001 150.775 139.737 148.64 139.737Z" fill="#2F2D53"/>
<path d="M184.846 139.737C182.73 139.737 180.994 138.021 180.994 135.885C180.994 133.769 182.71 132.033 184.846 132.033C186.982 132.033 188.698 133.75 188.698 135.885C188.698 138.001 186.962 139.737 184.846 139.737Z" fill="#2F2D53"/>
<path d="M3.8522 172.731C1.73647 172.731 0 171.014 0 168.879C0 166.763 1.71651 165.026 3.8522 165.026C5.98788 165.026 7.70439 166.743 7.70439 168.879C7.70439 171.014 5.96792 172.731 3.8522 172.731Z" fill="#2F2D53"/>
<path d="M40.059 172.731C37.9433 172.731 36.2068 171.014 36.2068 168.879C36.2068 166.763 37.9233 165.026 40.059 165.026C42.1747 165.026 43.9112 166.743 43.9112 168.879C43.8912 171.014 42.1747 172.731 40.059 172.731Z" fill="#2F2D53"/>
<path d="M76.2459 172.731C74.1302 172.731 72.3937 171.014 72.3937 168.879C72.3937 166.763 74.1102 165.026 76.2459 165.026C78.3616 165.026 80.0981 166.743 80.0981 168.879C80.0981 171.014 78.3816 172.731 76.2459 172.731Z" fill="#2F2D53"/>
<path d="M112.453 172.731C110.337 172.731 108.6 171.014 108.6 168.879C108.6 166.763 110.317 165.026 112.453 165.026C114.568 165.026 116.305 166.743 116.305 168.879C116.305 171.014 114.568 172.731 112.453 172.731Z" fill="#2F2D53"/>
<path d="M148.64 172.731C146.524 172.731 144.787 171.014 144.787 168.879C144.787 166.763 146.504 165.026 148.64 165.026C150.755 165.026 152.492 166.743 152.492 168.879C152.492 171.014 150.775 172.731 148.64 172.731Z" fill="#2F2D53"/>
<path d="M184.846 172.731C182.73 172.731 180.994 171.014 180.994 168.879C180.994 166.763 182.71 165.026 184.846 165.026C186.982 165.026 188.698 166.743 188.698 168.879C188.698 171.014 186.962 172.731 184.846 172.731Z" fill="#2F2D53"/>
</g>
</svg>
