<svg width="25" height="24" viewBox="0 0 25 24" fill="none" xmlns="http://www.w3.org/2000/svg">
<g clip-path="url(#clip0_299_5459)">
<path fill-rule="evenodd" clip-rule="evenodd" d="M5.66229 11.9999C5.66229 11.2377 5.78887 10.5071 6.01479 9.82174L2.06038 6.802C1.28968 8.3668 0.855469 10.13 0.855469 11.9999C0.855469 13.8681 1.28915 15.6303 2.05878 17.194L6.01105 14.1684C5.78726 13.4863 5.66229 12.7583 5.66229 11.9999Z" fill="#FBBC05"/>
<path fill-rule="evenodd" clip-rule="evenodd" d="M12.6056 5.0666C14.2613 5.0666 15.7568 5.65327 16.9318 6.61327L20.35 3.19994C18.267 1.3866 15.5965 0.266602 12.6056 0.266602C7.96225 0.266602 3.97152 2.92207 2.06055 6.80207L6.01496 9.8218C6.92612 7.05594 9.5234 5.0666 12.6056 5.0666Z" fill="#EB4335"/>
<path fill-rule="evenodd" clip-rule="evenodd" d="M12.6056 18.9334C9.5234 18.9334 6.92612 16.9441 6.01496 14.1782L2.06055 17.1974C3.97152 21.078 7.96225 23.7334 12.6056 23.7334C15.4716 23.7334 18.2077 22.7158 20.2613 20.8092L16.5077 17.9073C15.4486 18.5745 14.115 18.9334 12.6056 18.9334Z" fill="#34A853"/>
<path fill-rule="evenodd" clip-rule="evenodd" d="M23.8214 12C23.8214 11.3067 23.7146 10.56 23.5543 9.8667H12.6055V14.4H18.9077C18.5926 15.9456 17.7349 17.1339 16.5075 17.9072L20.2611 20.8091C22.4183 18.807 23.8214 15.8246 23.8214 12Z" fill="#4285F4"/>
</g>
<defs>
<clipPath id="clip0_299_5459">
<rect width="24" height="24" fill="white" transform="translate(0.5)"/>
</clipPath>
</defs>
</svg>
