<svg width="177" height="40" viewBox="0 0 177 40" fill="none" xmlns="http://www.w3.org/2000/svg">
<g clip-path="url(#clip0_30_2265)">
<mask id="mask0_30_2265" style="mask-type:luminance" maskUnits="userSpaceOnUse" x="0" y="0" width="40" height="40">
<path d="M0 0.000114441H39.9999V40H0V0.000114441Z" fill="white"/>
</mask>
<g mask="url(#mask0_30_2265)">
<path d="M20 12.2632C20 12.2632 22.151 4.68421 28.9627 4.68421C34.2686 4.68421 38 9.02933 38 14.177C38 21.2963 30.6308 26.0104 20 35C9.36917 26.0104 2 21.2963 2 14.177C2 9.02933 5.73145 4.68421 11.0373 4.68421C17.849 4.68421 20 12.2632 20 12.2632Z" stroke="#FF5B2E" stroke-width="2.5" stroke-miterlimit="10" stroke-linecap="round" stroke-linejoin="round"/>
<path d="M21.952 22.1496C21.4237 21.6598 20.7237 21.3869 19.9961 21.3869C19.2684 21.3869 18.5684 21.6598 18.0401 22.1496L15.6808 24.3338C14.3286 25.5371 15.3041 27.8371 17.1297 27.7473C18.1198 27.7213 18.9239 27.2249 19.9936 27.2438C21.102 27.2249 21.9255 27.6622 22.9203 27.7473C24.7145 27.7875 25.6418 25.5134 24.3088 24.3338L21.952 22.1496ZM26.0137 18.9395C25.0912 18.7622 24.3861 19.7668 24.2026 20.632C23.652 23.3103 26.3034 23.8209 26.924 21.223C27.1776 20.1096 26.7767 19.1049 26.0137 18.9395ZM22.1042 20.3862C23.0218 20.3862 23.7679 19.365 23.7679 18.1121C23.6762 15.0958 20.5321 15.0958 20.4428 18.1121C20.4428 19.365 21.189 20.3862 22.1042 20.3862ZM15.7895 20.632C15.6084 19.7668 14.9009 18.7622 13.9784 18.9395C12.2688 19.3626 12.9932 22.9297 14.6642 22.9392C15.6108 22.9084 16.0479 21.8329 15.7895 20.632ZM17.888 20.3862C18.8032 20.3862 19.5493 19.365 19.5493 18.1121C19.46 15.0958 16.3159 15.0958 16.2242 18.1121C16.2242 19.365 16.9703 20.3862 17.888 20.3862Z" fill="#FF5B2E"/>
</g>
</g>
<path d="M65.34 16.54C65.34 17.66 65.07 18.71 64.53 19.69C64.01 20.67 63.18 21.46 62.04 22.06C60.92 22.66 59.5 22.96 57.78 22.96H54.27V31H50.07V10.06H57.78C59.4 10.06 60.78 10.34 61.92 10.9C63.06 11.46 63.91 12.23 64.47 13.21C65.05 14.19 65.34 15.3 65.34 16.54ZM57.6 19.57C58.76 19.57 59.62 19.31 60.18 18.79C60.74 18.25 61.02 17.5 61.02 16.54C61.02 14.5 59.88 13.48 57.6 13.48H54.27V19.57H57.6ZM84.012 14.38V31H79.782V28.9C79.242 29.62 78.532 30.19 77.652 30.61C76.792 31.01 75.852 31.21 74.832 31.21C73.532 31.21 72.382 30.94 71.382 30.4C70.382 29.84 69.592 29.03 69.012 27.97C68.452 26.89 68.172 25.61 68.172 24.13V14.38H72.372V23.53C72.372 24.85 72.702 25.87 73.362 26.59C74.022 27.29 74.922 27.64 76.062 27.64C77.222 27.64 78.132 27.29 78.792 26.59C79.452 25.87 79.782 24.85 79.782 23.53V14.38H84.012ZM92.3559 16.96C92.8959 16.08 93.5959 15.39 94.4559 14.89C95.3359 14.39 96.3359 14.14 97.4559 14.14V18.55H96.3459C95.0259 18.55 94.0259 18.86 93.3459 19.48C92.6859 20.1 92.3559 21.18 92.3559 22.72V31H88.1559V14.38H92.3559V16.96ZM104.485 16.96C105.025 16.08 105.725 15.39 106.585 14.89C107.465 14.39 108.465 14.14 109.585 14.14V18.55H108.475C107.155 18.55 106.155 18.86 105.475 19.48C104.815 20.1 104.485 21.18 104.485 22.72V31H100.285V14.38H104.485V16.96ZM140.404 10.06L134.554 31H129.604L125.674 16.09L121.564 31L116.644 31.03L111.004 10.06H115.504L119.194 26.32L123.454 10.06H128.134L132.154 26.23L135.874 10.06H140.404ZM158.596 22.33C158.596 22.93 158.556 23.47 158.476 23.95H146.326C146.426 25.15 146.846 26.09 147.586 26.77C148.326 27.45 149.236 27.79 150.316 27.79C151.876 27.79 152.986 27.12 153.646 25.78H158.176C157.696 27.38 156.776 28.7 155.416 29.74C154.056 30.76 152.386 31.27 150.406 31.27C148.806 31.27 147.366 30.92 146.086 30.22C144.826 29.5 143.836 28.49 143.116 27.19C142.416 25.89 142.066 24.39 142.066 22.69C142.066 20.97 142.416 19.46 143.116 18.16C143.816 16.86 144.796 15.86 146.056 15.16C147.316 14.46 148.766 14.11 150.406 14.11C151.986 14.11 153.396 14.45 154.636 15.13C155.896 15.81 156.866 16.78 157.546 18.04C158.246 19.28 158.596 20.71 158.596 22.33ZM154.246 21.13C154.226 20.05 153.836 19.19 153.076 18.55C152.316 17.89 151.386 17.56 150.286 17.56C149.246 17.56 148.366 17.88 147.646 18.52C146.946 19.14 146.516 20.01 146.356 21.13H154.246ZM165.862 8.8V31H161.662V8.8H165.862ZM174.211 8.8V31H170.011V8.8H174.211Z" fill="#FF5B2E"/>
<defs>
<clipPath id="clip0_30_2265">
<rect width="40" height="40" fill="white"/>
</clipPath>
</defs>
</svg>
