<?xml version="1.0"?>
<svg width="24.000000000000004" height="24.000000000000004" xmlns="http://www.w3.org/2000/svg" xmlns:svg="http://www.w3.org/2000/svg">

 <g class="layer">
  <title>Layer 1</title>
  <path clip-rule="evenodd" d="m15.66,3.77c-1.77,-0.79 -3.75,-0.98 -5.64,-0.55c-1.9,0.42 -3.6,1.45 -4.86,2.93c-1.26,1.47 -2.01,3.31 -2.14,5.25c-0.13,1.94 0.37,3.86 1.43,5.49c1.06,1.63 2.61,2.87 4.43,3.55c1.82,0.67 3.81,0.73 5.67,0.18c1.86,-0.55 3.5,-1.68 4.66,-3.24c1.16,-1.55 1.79,-3.44 1.79,-5.38l0,-0.92c0,-0.27 0.11,-0.52 0.29,-0.71c0.19,-0.18 0.44,-0.29 0.71,-0.29c0.27,0 0.52,0.11 0.71,0.29c0.18,0.19 0.29,0.44 0.29,0.71l0,0.92c0,1.77 -0.43,3.52 -1.25,5.09c-0.82,1.57 -2.01,2.92 -3.47,3.93c-1.45,1.01 -3.13,1.66 -4.89,1.88c-1.75,0.23 -3.54,0.03 -5.2,-0.59c-1.39,-0.51 -2.65,-1.29 -3.73,-2.3c-1.07,-1.01 -1.93,-2.23 -2.53,-3.58c-0.59,-1.35 -0.91,-2.8 -0.93,-4.28c-0.02,-1.47 0.25,-2.94 0.81,-4.3c0.56,-1.37 1.38,-2.61 2.43,-3.65c1.04,-1.04 2.29,-1.86 3.65,-2.41c1.37,-0.55 2.84,-0.82 4.31,-0.79c1.48,0.02 2.93,0.35 4.28,0.95c0.12,0.05 0.23,0.13 0.32,0.22c0.09,0.1 0.16,0.21 0.2,0.33c0.05,0.13 0.07,0.26 0.07,0.39c0,0.13 -0.03,0.26 -0.09,0.38c-0.05,0.12 -0.13,0.23 -0.22,0.32c-0.1,0.09 -0.21,0.16 -0.33,0.2c-0.12,0.05 -0.26,0.07 -0.39,0.07c-0.13,0 -0.26,-0.03 -0.38,-0.09z" fill="#058219" fill-rule="evenodd" id="svg_1" transform="matrix(1, 0, 0, 1, 0, 0)"/>
  <path clip-rule="evenodd" d="m22.71,3.29c0.18,0.19 0.29,0.45 0.29,0.71c0,0.27 -0.11,0.52 -0.29,0.71l-10,10.01c-0.19,0.18 -0.44,0.29 -0.71,0.29c-0.27,0 -0.52,-0.11 -0.71,-0.29l-3,-3c-0.09,-0.09 -0.17,-0.21 -0.22,-0.33c-0.05,-0.12 -0.08,-0.25 -0.08,-0.38c0,-0.14 0.02,-0.27 0.07,-0.39c0.05,-0.12 0.13,-0.24 0.22,-0.33c0.09,-0.09 0.21,-0.17 0.33,-0.22c0.12,-0.05 0.25,-0.07 0.39,-0.07c0.13,0 0.26,0.03 0.38,0.08c0.12,0.05 0.23,0.13 0.33,0.22l2.29,2.3l9.29,-9.31c0.19,-0.18 0.44,-0.29 0.71,-0.29c0.27,0 0.52,0.11 0.71,0.29z" fill="#058219" fill-rule="evenodd" id="svg_2"/>
 </g>
</svg>