<?xml version="1.0"?>
<svg width="19" height="16" xmlns="http://www.w3.org/2000/svg" xmlns:svg="http://www.w3.org/2000/svg">

 <g class="layer">
  <title>Layer 1</title>
  <path d="m12.03,8.47c-0.68,-0.65 -1.59,-1.01 -2.53,-1.01c-0.94,0 -1.85,0.36 -2.53,1.01l-3.05,2.89c-1.75,1.59 -0.49,4.63 1.87,4.51c1.28,-0.03 2.32,-0.69 3.71,-0.66c1.43,-0.03 2.5,0.55 3.78,0.66c2.33,0.05 3.53,-2.95 1.8,-4.51l-3.05,-2.89zm5.26,-4.24c-1.2,-0.24 -2.11,1.09 -2.35,2.24c-0.71,3.54 2.72,4.21 3.53,0.78c0.32,-1.48 -0.2,-2.8 -1.18,-3.02zm-5.06,1.91c1.19,0 2.15,-1.35 2.15,-3.01c-0.12,-3.98 -4.19,-3.98 -4.3,0c0,1.66 0.96,3.01 2.15,3.01zm-8.17,0.33c-0.24,-1.15 -1.15,-2.48 -2.35,-2.24c-2.21,0.56 -1.27,5.27 0.89,5.29c1.22,-0.05 1.79,-1.47 1.46,-3.05zm2.71,-0.33c1.19,0 2.15,-1.35 2.15,-3.01c-0.11,-3.98 -4.18,-3.98 -4.3,0c0,1.66 0.96,3.01 2.15,3.01z" fill="#19825c" id="svg_1"/>
 </g>
</svg>