<svg width="64" height="64" viewBox="0 0 64 64" fill="none" xmlns="http://www.w3.org/2000/svg">
<g opacity="0.06" clip-path="url(#clip0_206_2527)">
<path d="M63.9856 19.6107C63.9856 19.6038 63.9864 19.5969 63.9864 19.5899C63.9864 11.1758 57.1656 4.35498 48.7514 4.35498C40.3373 4.35498 33.5166 11.1757 33.5166 19.5899C33.5166 28.0042 40.3381 34.8249 48.7516 34.8249C50.4808 34.8249 52.1361 34.5235 53.6849 33.9924C50.2573 53.6555 34.9237 66.3363 49.1378 55.8997C64.8992 44.3268 64.0033 20.0548 63.9856 19.6107ZM15.235 34.8248C16.9642 34.8248 18.6195 34.5233 20.1691 33.9922C16.7406 53.6554 1.407 66.3361 15.6212 55.8996C31.3826 44.3268 30.4868 20.0548 30.469 19.6107C30.469 19.6038 30.4698 19.5969 30.4698 19.5899C30.4698 11.1758 23.6491 4.35498 15.235 4.35498C6.8207 4.35498 0 11.1757 0 19.5899C0 28.0042 6.82146 34.8248 15.235 34.8248Z" fill="#101828"/>
</g>
<defs>
<clipPath id="clip0_206_2527">
<rect width="64" height="64" fill="white"/>
</clipPath>
</defs>
</svg>
