<svg width="59" height="59" viewBox="0 0 59 59" fill="none" xmlns="http://www.w3.org/2000/svg">
<g opacity="0.08" clip-path="url(#clip0_206_2654)">
<path d="M20.4234 4.53882H6.8078C4.91652 4.53882 3.30927 5.20075 1.98529 6.52423C0.661928 7.84796 0 9.45522 0 11.3466V24.9617C0 26.853 0.661555 28.46 1.98529 29.7835C3.30914 31.1068 4.91689 31.769 6.8078 31.769H14.7501C15.6953 31.769 16.4991 32.1001 17.1611 32.7618C17.823 33.4231 18.1538 34.2272 18.1538 35.1732V36.3071C18.1538 38.8129 17.2673 40.9514 15.4946 42.7246C13.7218 44.4969 11.5827 45.3834 9.07673 45.3834H6.8078C6.19281 45.3834 5.66116 45.6085 5.21184 46.0573C4.7629 46.5062 4.53824 47.0382 4.53824 47.6528V52.1918C4.53824 52.8054 4.7629 53.3384 5.21184 53.7874C5.66153 54.2361 6.19269 54.4613 6.8078 54.4613H9.07686C11.5354 54.4613 13.8815 53.982 16.1154 53.025C18.3492 52.0678 20.2814 50.7733 21.9125 49.1422C23.5433 47.511 24.8376 45.5791 25.7948 43.3452C26.7519 41.1114 27.2307 38.7655 27.2307 36.3073V11.3461C27.2307 9.45472 26.5688 7.84759 25.2453 6.52411C23.9218 5.20062 22.3142 4.53882 20.4234 4.53882ZM57.0138 6.52423C55.6905 5.20075 54.0831 4.53882 52.1918 4.53882H38.5767C36.6855 4.53882 35.0782 5.20075 33.7547 6.52423C32.4314 7.84808 31.7697 9.45522 31.7697 11.3466V24.9617C31.7697 26.853 32.4314 28.46 33.7547 29.7835C35.0782 31.1068 36.6856 31.769 38.5767 31.769H46.519C47.4642 31.769 48.2687 32.1001 48.9305 32.7618C49.5917 33.4235 49.9233 34.2272 49.9233 35.1732V36.3071C49.9233 38.8129 49.0367 40.9514 47.2636 42.7246C45.491 44.4969 43.3524 45.3834 40.8462 45.3834H38.5767C37.9622 45.3834 37.4301 45.6085 36.9813 46.0573C36.5321 46.5062 36.3072 47.0382 36.3072 47.6528V52.1918C36.3072 52.8054 36.5321 53.3384 36.9813 53.7874C37.43 54.2361 37.9621 54.4613 38.5767 54.4613H40.8462C43.3044 54.4613 45.6503 53.982 47.8845 53.025C50.1179 52.0678 52.0499 50.7733 53.6811 49.1422C55.3122 47.511 56.6073 45.5786 57.5639 43.3452C58.5209 41.1119 58.9999 38.7655 58.9999 36.3073V11.3461C58.9995 9.45472 58.3382 7.84759 57.0138 6.52423Z" fill="#101828"/>
</g>
<defs>
<clipPath id="clip0_206_2654">
<rect width="59" height="59" fill="white"/>
</clipPath>
</defs>
</svg>
