<?xml version="1.0"?>
<svg width="70" height="70" xmlns="http://www.w3.org/2000/svg" xmlns:svg="http://www.w3.org/2000/svg">

 <g class="layer">
  <title>Layer 1</title>
  <rect fill="#eefbf4" height="70" id="svg_1" rx="35" transform="matrix(1, 0, 0, 1, 0, 0)" width="70" x="0" y="0.18"/>
  <path d="m52.01,42.38c-1.18,3.21 -2.97,6 -5.32,8.29c-2.67,2.6 -6.16,4.67 -10.39,6.15c-0.14,0.05 -0.28,0.09 -0.43,0.12c-0.19,0.04 -0.38,0.06 -0.58,0.06l-0.03,0c-0.21,0 -0.42,-0.02 -0.62,-0.06c-0.15,-0.03 -0.29,-0.07 -0.43,-0.12c-4.23,-1.47 -7.73,-3.54 -10.4,-6.15c-2.35,-2.29 -4.14,-5.08 -5.32,-8.28c-2.15,-5.83 -2.02,-12.25 -1.93,-17.41l0.01,-0.08c0.02,-0.42 0.03,-0.87 0.04,-1.36c0.03,-2.43 1.96,-4.44 4.39,-4.57c5.06,-0.29 8.97,-1.93 12.31,-5.19l0.03,-0.03c0.56,-0.51 1.26,-0.76 1.95,-0.75c0.67,0.01 1.34,0.26 1.88,0.75l0.03,0.03c3.34,3.26 7.26,4.9 12.31,5.19c2.43,0.13 4.36,2.14 4.4,4.57c0,0.49 0.01,0.94 0.03,1.36l0.01,0.04c0.09,5.17 0.22,11.6 -1.94,17.44z" fill="#4abd8e" id="svg_2" transform="matrix(1, 0, 0, 1, 0, 0)"/>
  <path d="m52.01,42.38c-1.18,3.21 -2.97,6 -5.32,8.29c-2.67,2.6 -6.16,4.67 -10.39,6.15c-0.14,0.05 -0.28,0.09 -0.43,0.12c-0.19,0.04 -0.38,0.06 -0.58,0.06l0,-44c0.67,0.01 1.34,0.26 1.88,0.75l0.03,0.03c3.34,3.25 7.25,4.9 12.31,5.19c2.43,0.13 4.36,2.14 4.39,4.57c0.01,0.49 0.02,0.94 0.04,1.36l0.01,0.04c0.09,5.17 0.22,11.6 -1.94,17.44z" fill="#19825c" id="svg_3"/>
  <path d="m46.22,35c0,6.03 -4.9,10.94 -10.93,10.97l-0.04,0c-6.04,0 -10.96,-4.92 -10.96,-10.97c0,-6.05 4.92,-10.97 10.96,-10.97l0.04,0c6.03,0.03 10.93,4.94 10.93,10.97z" fill="#F9FAFB" id="svg_4"/>
  <path d="m46.22,35c0,6.03 -4.9,10.94 -10.93,10.97l0,-21.94c6.03,0.03 10.93,4.94 10.93,10.97z" fill="#E4E7EC" id="svg_5"/>
  <path d="m40.23,33.24l-4.94,4.94l-1.06,1.07c-0.12,0.12 -0.27,0.21 -0.42,0.28c-0.16,0.06 -0.33,0.1 -0.5,0.1c-0.17,0 -0.34,-0.04 -0.49,-0.1c-0.16,-0.07 -0.3,-0.16 -0.42,-0.28l-2.3,-2.3c-0.5,-0.5 -0.5,-1.32 0,-1.82c0.51,-0.51 1.33,-0.51 1.83,0l1.38,1.38l5.1,-5.09c0.5,-0.51 1.32,-0.51 1.82,0c0.51,0.5 0.51,1.32 0,1.82z" fill="#cef2de" id="svg_6"/>
  <path d="m40.23,33.42l-4.94,4.94l0,-3.65l3.12,-3.11c0.5,-0.51 1.32,-0.51 1.82,0c0.51,0.5 0.51,1.32 0,1.82z" fill="#7fd6b0" id="svg_7"/>
 </g>
</svg>