<svg width="70" height="70" viewBox="0 0 70 70" fill="none" xmlns="http://www.w3.org/2000/svg">
<rect width="70" height="70" rx="35" fill="#FFEFEA"/>
<path d="M52.0102 42.3829C50.8275 45.5881 49.0389 48.375 46.6934 50.6655C44.0237 53.2724 40.5278 55.344 36.3027 56.8217C36.1627 56.8705 36.0195 56.9096 35.8741 56.9389C35.6821 56.9768 35.4867 56.9973 35.293 57H35.2551C35.0486 57 34.8411 56.9792 34.6354 56.939C34.49 56.9097 34.3473 56.87 34.2094 56.8227C29.9793 55.3474 26.479 53.2768 23.8066 50.6698C21.46 48.3794 19.6718 45.5941 18.4909 42.3889C16.3434 36.5613 16.4656 30.1415 16.564 24.9826L16.5657 24.9033C16.5855 24.4774 16.5982 24.0299 16.6053 23.5357C16.6412 21.1097 18.57 19.1026 20.9965 18.9673C26.0554 18.6849 29.9689 17.035 33.3127 13.7758L33.3419 13.7489C33.8972 13.2396 34.5968 12.9899 35.293 13.0003C35.9644 13.009 36.6331 13.2585 37.1685 13.7488L37.197 13.7757C40.5415 17.035 44.4551 18.6849 49.514 18.9672C51.9403 19.1026 53.8693 21.1096 53.9051 23.5356C53.9122 24.0332 53.9249 24.48 53.9448 24.9033L53.9458 24.9369C54.0438 30.1056 54.1654 36.5381 52.0102 42.3829Z" fill="#FF7C58"/>
<path d="M52.0101 42.3829C50.8274 45.5881 49.0388 48.375 46.6933 50.6655C44.0236 53.2725 40.5276 55.344 36.3026 56.8218C36.1626 56.8705 36.0193 56.9096 35.874 56.9389C35.682 56.9768 35.4865 56.9973 35.2928 57V13.0003C35.9643 13.009 36.633 13.2585 37.1683 13.7489L37.1969 13.7757C40.5414 17.035 44.455 18.6849 49.5139 18.9672C51.9402 19.1026 53.8692 21.1097 53.905 23.5357C53.9121 24.0332 53.9248 24.48 53.9446 24.9034L53.9457 24.9369C54.0436 30.1056 54.1652 36.5381 52.0101 42.3829Z" fill="#FF5B2E"/>
<path d="M46.2199 35C46.2199 41.0334 41.3212 45.9445 35.2927 45.966H35.2541C29.208 45.966 24.2881 41.0465 24.2881 35C24.2881 28.9538 29.208 24.0342 35.2541 24.0342H35.2928C41.3212 24.0557 46.2199 28.9669 46.2199 35Z" fill="#F9FAFB"/>
<path d="M46.2201 35C46.2201 41.0334 41.3213 45.9445 35.2928 45.966V24.0342C41.3213 24.0557 46.2201 28.9669 46.2201 35Z" fill="#E4E7EC"/>
<path d="M40.2317 33.4209L35.293 38.3603L34.2258 39.4275C34.106 39.5475 33.9637 39.6427 33.807 39.7075C33.6503 39.7724 33.4823 39.8057 33.3127 39.8054C33.1431 39.8057 32.975 39.7724 32.8183 39.7075C32.6615 39.6427 32.5191 39.5475 32.3993 39.4275L30.1048 37.132C29.6006 36.6277 29.6006 35.811 30.1048 35.3064C30.6084 34.8022 31.4261 34.8022 31.9303 35.3064L33.3127 36.6888L38.4062 31.5953C38.9104 31.0908 39.7282 31.0908 40.2317 31.5953C40.7359 32.0996 40.7359 32.9174 40.2317 33.4209Z" fill="#FFDED5"/>
<path d="M40.2316 33.4209L35.2928 38.3603V34.7082L38.4061 31.5954C38.9103 31.0908 39.7281 31.0908 40.2316 31.5954C40.7358 32.0996 40.7358 32.9174 40.2316 33.4209Z" fill="#FFBDAB"/>
</svg>
