<svg width="70" height="70" viewBox="0 0 70 70" fill="none" xmlns="http://www.w3.org/2000/svg">
<rect width="70" height="70" rx="35" fill="#FFEFEA"/>
<path d="M52.0102 42.3829C50.8275 45.5881 49.0389 48.375 46.6934 50.6655C44.0237 53.2724 40.5278 55.344 36.3027 56.8217C36.1627 56.8705 36.0195 56.9096 35.8741 56.9389C35.6821 56.9768 35.4867 56.9973 35.293 57H35.2551C35.0486 57 34.8411 56.9792 34.6354 56.939C34.49 56.9097 34.3473 56.87 34.2094 56.8227C29.9793 55.3474 26.479 53.2768 23.8066 50.6698C21.46 48.3794 19.6718 45.5941 18.4909 42.3889C16.3434 36.5613 16.4656 30.1415 16.564 24.9826L16.5657 24.9033C16.5855 24.4774 16.5982 24.0299 16.6053 23.5357C16.6412 21.1097 18.57 19.1026 20.9965 18.9673C26.0554 18.6849 29.9689 17.035 33.3127 13.7758L33.3419 13.7489C33.8972 13.2396 34.5968 12.9899 35.293 13.0003C35.9644 13.009 36.6331 13.2585 37.1685 13.7488L37.197 13.7757C40.5415 17.035 44.4551 18.6849 49.514 18.9672C51.9403 19.1026 53.8693 21.1096 53.9051 23.5356C53.9122 24.0332 53.9249 24.48 53.9448 24.9033L53.9458 24.9369C54.0438 30.1056 54.1654 36.5381 52.0102 42.3829Z" fill="#FF7C58"/>
<path d="M52.01 42.3828C50.8273 45.588 49.0387 48.375 46.6932 50.6654C44.0235 53.2724 40.5275 55.3439 36.3025 56.8217C36.1624 56.8704 36.0192 56.9096 35.8738 56.9388C35.6818 56.9767 35.4864 56.9972 35.2927 56.9999V13.0002C35.9642 13.0089 36.6328 13.2584 37.1682 13.7488L37.1968 13.7757C40.5413 17.0349 44.4549 18.6848 49.5137 18.9671C51.9401 19.1025 53.8691 21.1096 53.9049 23.5356C53.9119 24.0332 53.9247 24.4799 53.9445 24.9033L53.9455 24.9368C54.0435 30.1055 54.1651 36.538 52.01 42.3828Z" fill="#FF5B2E"/>
<path d="M46.2199 35C46.2199 41.0334 41.3212 45.9445 35.2927 45.966H35.2541C29.208 45.966 24.2881 41.0465 24.2881 35C24.2881 28.9538 29.208 24.0342 35.2541 24.0342H35.2928C41.3212 24.0557 46.2199 28.9669 46.2199 35Z" fill="#F9FAFB"/>
<path d="M46.2199 35C46.2199 41.0334 41.3212 45.9445 35.2927 45.966V24.0342C41.3212 24.0557 46.2199 28.9669 46.2199 35Z" fill="#E4E7EC"/>
<path d="M40.2316 33.421L35.2928 38.3604L34.2257 39.4276C34.1059 39.5476 33.9635 39.6428 33.8068 39.7076C33.6501 39.7725 33.4822 39.8058 33.3126 39.8055C33.1429 39.8058 32.9749 39.7725 32.8182 39.7076C32.6614 39.6428 32.519 39.5476 32.3992 39.4276L30.1047 37.1321C29.6005 36.6278 29.6005 35.811 30.1047 35.3065C30.6083 34.8023 31.426 34.8023 31.9302 35.3065L33.3126 36.6889L38.4061 31.5954C38.9103 31.0909 39.7281 31.0909 40.2316 31.5954C40.7358 32.0997 40.7358 32.9174 40.2316 33.421Z" fill="#FFDED5"/>
<path d="M40.2315 33.4209L35.2927 38.3604V34.7083L38.406 31.5954C38.9102 31.0909 39.728 31.0909 40.2315 31.5954C40.7357 32.0996 40.7357 32.9174 40.2315 33.4209Z" fill="#FFBDAB"/>
</svg>
