<svg width="106" height="106" viewBox="0 0 106 106" fill="none" xmlns="http://www.w3.org/2000/svg">
<g filter="url(#filter0_d_243_3759)">
<rect x="2" y="2" width="100" height="100" rx="24.8793" fill="#eefbf4" shape-rendering="crispEdges"/>
<g clip-path="url(#clip0_243_3759)">
<path d="M51.4865 23.5879L28.9385 41.4019V80.2149H74.578V41.4018L51.4865 23.5879Z" fill="#FF5B2E"/>
<path d="M71.9121 39.1168L68.4102 39.1108L59.6802 32.2882V22H71.9433L71.9121 39.1168Z" fill="#E93200"/>
<path d="M74.5779 41.4019L51.7583 23.7976V80.2147H74.5779V41.4019Z" fill="#F97754"/>
<path d="M25.5293 78.498H78.9894V82H25.5293V78.498Z" fill="#FF7C58"/>
<path d="M51.7583 78.498H78.9893V82H51.7584L51.7583 78.498Z" fill="#FF5B2E"/>
<path d="M24.2014 48.9839L22 46.2605L51.7587 22.3145L81.5172 45.9165L79.3473 48.6649L51.7587 26.7965L24.2014 48.9839Z" fill="#FF7C58"/>
<path d="M81.5168 45.9162L51.7583 22.3145V26.7964L79.3468 48.6648L81.5168 45.9162Z" fill="#FF5B2E"/>
<path d="M51.9585 56.1661C48.7464 56.1195 45.7178 57.3399 43.4317 59.5949C41.1456 61.8498 39.8868 64.8601 39.8868 68.0713C39.8868 68.2068 39.8891 68.3423 39.8936 68.4764C39.9458 70.0337 40.8608 71.4074 42.2818 72.0607C42.8214 72.31 43.4086 72.4395 44.003 72.4402C44.9107 72.4402 45.807 72.1353 46.5463 71.5438C48.0486 70.3409 49.8633 69.7055 51.7928 69.7055C53.7221 69.7055 55.5363 70.3409 57.0387 71.5435C58.2523 72.5148 59.8855 72.7125 61.3014 72.0603C62.7254 71.4038 63.642 70.025 63.6922 68.4623C63.6941 68.4142 63.695 68.3662 63.6964 68.3148C63.7604 65.1316 62.5685 62.1089 60.3405 59.8041C58.1145 57.5015 55.1375 56.2097 51.9585 56.1662V56.1661ZM51.7927 53.3525C54.2821 53.3525 56.2321 50.9367 56.2321 47.8523C56.2321 44.7683 54.2821 42.3523 51.7927 42.3523C49.3029 42.3523 47.3534 44.7683 47.3534 47.8523C47.3534 50.9366 49.3029 53.3523 51.7927 53.3523V53.3525ZM46.663 51.5067C46.663 48.4227 44.713 46.0066 42.2236 46.0066C39.7343 46.0066 37.7842 48.4227 37.7842 51.5066C37.7842 54.5905 39.7343 57.0067 42.2236 57.0067C44.7129 57.0067 46.663 54.5907 46.663 51.5067Z" fill="white"/>
<path d="M61.3618 46.0066C58.8725 46.0066 56.9224 48.4227 56.9224 51.5066C56.9224 54.5905 58.8724 57.0067 61.3618 57.0067C63.8511 57.0067 65.8012 54.5905 65.8012 51.5066C65.8012 48.4227 63.8511 46.0066 61.3618 46.0066ZM60.3405 59.8041C58.1144 57.5015 55.1375 56.2097 51.9585 56.1662C51.8917 56.1653 51.8252 56.1658 51.7583 56.1658V69.706C51.7698 69.706 51.7813 69.7055 51.7923 69.7055C53.7217 69.7055 55.5358 70.3409 57.0388 71.5435C58.2517 72.5148 59.885 72.7125 61.3013 72.0603C62.7254 71.4038 63.6415 70.0251 63.6922 68.4623C63.6936 68.4142 63.695 68.3662 63.696 68.3148C63.7604 65.1316 62.5685 62.1089 60.3405 59.8041ZM56.2321 47.8523C56.2321 44.7683 54.2821 42.3523 51.7926 42.3523C51.7813 42.3523 51.7704 42.3532 51.7588 42.3537V53.3514C51.7703 53.3514 51.7813 53.3523 51.7928 53.3523C54.2821 53.3523 56.2321 50.9367 56.2321 47.8523Z" fill="#E4E7EC"/>
</g>
</g>
<defs>
<filter id="filter0_d_243_3759" x="0.756034" y="0.756034" width="104.976" height="104.976" filterUnits="userSpaceOnUse" color-interpolation-filters="sRGB">
<feFlood flood-opacity="0" result="BackgroundImageFix"/>
<feColorMatrix in="SourceAlpha" type="matrix" values="0 0 0 0 0 0 0 0 0 0 0 0 0 0 0 0 0 0 127 0" result="hardAlpha"/>
<feOffset dx="1.24397" dy="1.24397"/>
<feGaussianBlur stdDeviation="1.24397"/>
<feComposite in2="hardAlpha" operator="out"/>
<feColorMatrix type="matrix" values="0 0 0 0 0.570833 0 0 0 0 0.570833 0 0 0 0 0.570833 0 0 0 0.08 0"/>
<feBlend mode="normal" in2="BackgroundImageFix" result="effect1_dropShadow_243_3759"/>
<feBlend mode="normal" in="SourceGraphic" in2="effect1_dropShadow_243_3759" result="shape"/>
</filter>
<clipPath id="clip0_243_3759">
<rect width="60" height="60" fill="white" transform="translate(22 22)"/>
</clipPath>
</defs>
</svg>
