<svg width="106" height="106" viewBox="0 0 106 106" fill="none" xmlns="http://www.w3.org/2000/svg">
<g filter="url(#filter0_d_243_3916)">
<rect x="2" y="2" width="100" height="100" rx="24.8793" fill="#eefbf4" shape-rendering="crispEdges"/>
<path d="M28.562 52.9375H51.062V56.6875H28.562V52.9375Z" fill="#FFE087"/>
<path d="M28.562 52.9375H51.062V54.8125H28.562V52.9375Z" fill="#FFD65F"/>
<path d="M52.937 49.1875V52C52.937 52.2486 52.8382 52.4871 52.6624 52.6629C52.4866 52.8387 52.2482 52.9375 51.9995 52.9375H27.6245C27.3759 52.9375 27.1374 52.8387 26.9616 52.6629C26.7858 52.4871 26.687 52.2486 26.687 52V49.1875C26.6885 48.6907 26.8865 48.2146 27.2378 47.8633C27.5891 47.512 28.0652 47.314 28.562 47.3125H51.062C51.5588 47.314 52.0349 47.512 52.3862 47.8633C52.7375 48.2146 52.9355 48.6907 52.937 49.1875Z" fill="#FFCC37"/>
<path d="M75.3715 71.6686C75.6197 72.0988 75.687 72.61 75.5587 73.0898C75.4304 73.5697 75.1169 73.979 74.6871 74.228L64.9371 79.853C64.654 80.0223 64.3295 80.1099 63.9996 80.1061C63.5875 80.1054 63.1871 79.9689 62.8603 79.7177C62.5335 79.4665 62.2986 79.1147 62.1919 78.7166C62.0852 78.3185 62.1126 77.8964 62.2699 77.5155C62.4272 77.1345 62.7056 76.816 63.0621 76.6092L65.4996 75.203L70.3746 72.3905L72.8121 70.9842C73.0249 70.8605 73.2601 70.78 73.5041 70.7474C73.7482 70.7148 73.9962 70.7308 74.2341 70.7944C74.4719 70.858 74.6948 70.9679 74.89 71.118C75.0852 71.268 75.2488 71.4551 75.3715 71.6686Z" fill="#ACABB1"/>
<path d="M71.9124 30.2123C72.829 31.1316 73.3985 32.3403 73.524 33.6324C73.6496 34.9245 73.3233 36.2201 72.6009 37.2987C71.8784 38.3773 70.8044 39.1721 69.5618 39.5478C68.3191 39.9234 66.9847 39.8567 65.7857 39.359C64.5867 38.8613 63.5973 37.9634 62.986 36.8182C62.3747 35.673 62.1792 34.3512 62.433 33.0781C62.6867 31.8049 63.3739 30.6591 64.3776 29.8357C65.3812 29.0123 66.6392 28.5623 67.9374 28.5623C68.6763 28.56 69.4082 28.7048 70.0906 28.988C70.7731 29.2713 71.3923 29.6875 71.9124 30.2123Z" fill="#FF7C58"/>
<path d="M70.4312 59.3688C70.6779 59.7994 70.7443 60.31 70.6162 60.7894C70.488 61.2688 70.1755 61.6781 69.7468 61.9281L68.1249 62.8656L58.3749 68.4906L56.753 69.4281C56.4715 69.5931 56.1512 69.6805 55.8249 69.6813C55.411 69.6823 55.0082 69.5467 54.6792 69.2954C54.3502 69.0441 54.1134 68.6913 54.0054 68.2916C53.8975 67.892 53.9245 67.4679 54.0823 67.0851C54.2401 66.7024 54.5198 66.3825 54.878 66.175L56.4999 65.2375L66.2499 59.6125L67.8718 58.675C68.1533 58.51 68.4736 58.4226 68.7999 58.4219C69.1312 58.4215 69.4567 58.5089 69.7433 58.6753C70.0298 58.8416 70.2672 59.0809 70.4312 59.3688ZM70.3749 72.3906L65.4999 75.2031L63.3249 71.4344L62.6874 70.3281L67.5624 67.5156L68.1999 68.6219L70.3749 72.3906Z" fill="#C6C5CA"/>
<path d="M68.1995 68.6214L63.6245 71.2651L63.3245 71.4339L62.687 70.3276L67.562 67.5151L68.1995 68.6214Z" fill="#ACABB1"/>
<path d="M69.1842 66.5778L67.5623 67.5153L62.6873 70.3278L61.0655 71.2653C60.8501 71.3895 60.5944 71.4237 60.3539 71.3606C60.1134 71.2974 59.9076 71.1419 59.7811 70.9278L59.0123 69.5966L58.3748 68.4903L68.1248 62.8653L68.7623 63.9716L69.5311 65.3028C69.6533 65.5181 69.6854 65.7729 69.6205 66.0118C69.5555 66.2507 69.3987 66.4541 69.1842 66.5778ZM62.4998 53.1247L64.3748 56.3684L66.2498 59.6122L56.4998 65.2372L54.7936 62.2841L53.7342 60.4372L52.6373 58.5434L51.5686 56.6872L51.0623 55.8153L49.403 52.9372L46.1498 47.3122L45.7186 46.5716C45.5959 46.3549 45.5635 46.0986 45.6285 45.8582C45.6934 45.6178 45.8504 45.4126 46.0655 45.2872L46.8811 44.8184L53.3686 41.0684L54.1842 40.5997C54.2912 40.5377 54.4094 40.4975 54.532 40.4814C54.6546 40.4653 54.7792 40.4736 54.8986 40.5058C55.018 40.5381 55.1298 40.5936 55.2276 40.6692C55.3254 40.7449 55.4073 40.8391 55.4686 40.9466L56.8748 43.3747L58.7498 46.6278L60.6248 49.8716L62.4998 53.1247Z" fill="#E6E7E8"/>
<path d="M51.9625 38.6309L53.3688 41.0684L46.8813 44.8184L45.475 42.3809C45.4122 42.2753 45.3711 42.1583 45.3541 42.0367C45.3371 41.915 45.3445 41.7912 45.376 41.6725C45.4074 41.5537 45.4622 41.4425 45.5371 41.3452C45.6121 41.2479 45.7057 41.1665 45.8125 41.1059L46.6281 40.6371L49.8719 38.7621L50.6875 38.2934C50.7931 38.2306 50.9101 38.1895 51.0317 38.1725C51.1534 38.1555 51.2772 38.1629 51.3959 38.1943C51.5146 38.2257 51.6259 38.2805 51.7232 38.3555C51.8205 38.4305 51.9018 38.5241 51.9625 38.6309Z" fill="#C6C5CA"/>
<path d="M51.062 73.5623V76.3748C51.062 77.1207 50.7657 77.836 50.2383 78.3635C49.7108 78.8909 48.9954 79.1873 48.2495 79.1873H32.312C31.3174 79.1873 30.3636 78.7922 29.6604 78.0889C28.9571 77.3856 28.562 76.4318 28.562 75.4373V73.5623H51.062Z" fill="#FFD14B"/>
<path d="M28.562 56.6873H51.062V73.5623H28.562V56.6873Z" fill="#E6E7E8"/>
<path d="M47.5282 34.7033L49.872 38.7626L46.6282 40.6376L44.2845 36.5783C44.1602 36.3629 44.126 36.1072 44.1892 35.8667C44.2524 35.6262 44.4079 35.4204 44.622 35.2939L45.4376 34.8251L46.2532 34.3564C46.3595 34.2946 46.477 34.2546 46.5989 34.2386C46.7208 34.2226 46.8446 34.231 46.9632 34.2633C47.0818 34.2955 47.1929 34.3511 47.2899 34.4266C47.3868 34.5021 47.4679 34.5962 47.5282 34.7033Z" fill="#ACABB1"/>
<path d="M45.4375 65.125V67C45.4375 67.2486 45.3387 67.4871 45.1629 67.6629C44.9871 67.8387 44.7486 67.9375 44.5 67.9375H42.625V69.8125C42.625 70.0611 42.5262 70.2996 42.3504 70.4754C42.1746 70.6512 41.9361 70.75 41.6875 70.75H39.8125C39.5639 70.75 39.3254 70.6512 39.1496 70.4754C38.9738 70.2996 38.875 70.0611 38.875 69.8125V67.9375H37C36.7514 67.9375 36.5129 67.8387 36.3371 67.6629C36.1613 67.4871 36.0625 67.2486 36.0625 67V65.125C36.0625 64.8764 36.1613 64.6379 36.3371 64.4621C36.5129 64.2863 36.7514 64.1875 37 64.1875H38.875V62.3125C38.875 62.0639 38.9738 61.8254 39.1496 61.6496C39.3254 61.4738 39.5639 61.375 39.8125 61.375H41.6875C41.9361 61.375 42.1746 61.4738 42.3504 61.6496C42.5262 61.8254 42.625 62.0639 42.625 62.3125V64.1875H44.5C44.7486 64.1875 44.9871 64.2863 45.1629 64.4621C45.3387 64.6379 45.4375 64.8764 45.4375 65.125Z" fill="#D8D7DA"/>
<path d="M44.4995 64.1873V66.0623C44.4995 66.3109 44.4007 66.5494 44.2249 66.7252C44.0491 66.901 43.8107 66.9998 43.562 66.9998H41.687V68.8748C41.687 69.1234 41.5882 69.3619 41.4124 69.5377C41.2366 69.7135 40.9982 69.8123 40.7495 69.8123H38.8745C38.6259 69.8123 38.3874 69.7135 38.2116 69.5377C38.0358 69.3619 37.937 69.1234 37.937 68.8748V66.9998H36.062C35.8134 66.9998 35.5749 66.901 35.3991 66.7252C35.2233 66.5494 35.1245 66.3109 35.1245 66.0623V64.1873C35.1245 63.9386 35.2233 63.7002 35.3991 63.5243C35.5749 63.3485 35.8134 63.2498 36.062 63.2498H37.937V61.3748C37.937 61.1261 38.0358 60.8877 38.2116 60.7118C38.3874 60.536 38.6259 60.4373 38.8745 60.4373H40.7495C40.9982 60.4373 41.2366 60.536 41.4124 60.7118C41.5882 60.8877 41.687 61.1261 41.687 61.3748V63.2498H43.562C43.8107 63.2498 44.0491 63.3485 44.2249 63.5243C44.4007 63.7002 44.4995 63.9386 44.4995 64.1873Z" fill="#FF5B2E"/>
<path d="M68.7629 63.9717L59.3129 69.4279L59.0129 69.5967L58.3754 68.4904L68.1254 62.8654L68.7629 63.9717ZM38.0757 24.3585L39.6844 23.3948L46.2469 34.3476L44.6372 35.3113L38.0757 24.3585Z" fill="#D8D7DA"/>
<path d="M55.2812 51.8686L60.1525 49.0561L61.09 50.6808L56.2188 53.4933L55.2812 51.8686ZM51.5312 45.3745L56.4025 42.562L57.34 44.1858L52.4688 46.9983L51.5312 45.3745ZM55.03 47.6845L58.2775 45.8095L59.215 47.4333L55.9675 49.3083L55.03 47.6845ZM59.0312 58.3636L63.9025 55.5511L64.84 57.1748L59.9688 59.9873L59.0312 58.3636ZM58.78 54.1795L62.0275 52.3045L62.965 53.9283L59.7175 55.8033L58.78 54.1795Z" fill="#C6C5CA"/>
<path d="M78.2495 36.0623V32.3123H76.3745V33.2498H74.4245C74.2693 32.1666 73.8437 31.14 73.187 30.2648L74.568 28.8838L75.2308 29.5466L76.5564 28.221L73.9033 25.5698L72.5776 26.8954L73.2405 27.5582L71.8595 28.9373C70.9843 28.2806 69.9577 27.855 68.8745 27.6998V25.7498H69.812V23.8748H66.062V25.7498H66.9995V27.6998C65.9164 27.855 64.8898 28.2806 64.0145 28.9373L62.6336 27.5582L63.2964 26.8954L61.9708 25.5698L59.3195 28.221L60.6451 29.5466L61.308 28.8838L62.687 30.2648C62.0303 31.14 61.6047 32.1666 61.4495 33.2498H59.4995V32.3123H57.6245V36.0623H59.4995V35.1248H61.4495C61.6047 36.2079 62.0303 37.2345 62.687 38.1098L61.3061 39.4907L60.6433 38.8279L59.3176 40.1535L61.9689 42.8048L63.2945 41.4791L62.6317 40.8163L64.0145 39.4373C64.8898 40.094 65.9164 40.5196 66.9995 40.6748V42.6248H66.062V44.4998H69.812V42.6248H68.8745V40.6748C69.9577 40.5196 70.9843 40.094 71.8595 39.4373L73.2405 40.8182L72.5776 41.481L73.9033 42.8066L76.5545 40.1554L75.2289 38.8279L74.5661 39.4907L73.187 38.1098C73.8437 37.2345 74.2693 36.2079 74.4245 35.1248H76.3745V36.0623H78.2495ZM67.937 38.8748C67.0099 38.8748 66.1036 38.5998 65.3328 38.0848C64.5619 37.5697 63.9611 36.8376 63.6063 35.9811C63.2515 35.1246 63.1587 34.1821 63.3396 33.2728C63.5204 32.3635 63.9669 31.5283 64.6224 30.8727C65.278 30.2171 66.1132 29.7707 67.0225 29.5898C67.9318 29.409 68.8743 29.5018 69.7308 29.8566C70.5874 30.2114 71.3195 30.8122 71.8345 31.583C72.3496 32.3539 72.6245 33.2602 72.6245 34.1873C72.623 35.43 72.1287 36.6214 71.2499 37.5002C70.3712 38.3789 69.1798 38.8733 67.937 38.8748Z" fill="#FF5B2E"/>
<path d="M65.1245 32.3123H66.9995V34.1873H65.1245V32.3123ZM68.8745 34.1873H70.7495V36.0623H68.8745V34.1873Z" fill="#FF5B2E"/>
</g>
<defs>
<filter id="filter0_d_243_3916" x="0.756034" y="0.756034" width="104.976" height="104.976" filterUnits="userSpaceOnUse" color-interpolation-filters="sRGB">
<feFlood flood-opacity="0" result="BackgroundImageFix"/>
<feColorMatrix in="SourceAlpha" type="matrix" values="0 0 0 0 0 0 0 0 0 0 0 0 0 0 0 0 0 0 127 0" result="hardAlpha"/>
<feOffset dx="1.24397" dy="1.24397"/>
<feGaussianBlur stdDeviation="1.24397"/>
<feComposite in2="hardAlpha" operator="out"/>
<feColorMatrix type="matrix" values="0 0 0 0 0.570833 0 0 0 0 0.570833 0 0 0 0 0.570833 0 0 0 0.08 0"/>
<feBlend mode="normal" in2="BackgroundImageFix" result="effect1_dropShadow_243_3916"/>
<feBlend mode="normal" in="SourceGraphic" in2="effect1_dropShadow_243_3916" result="shape"/>
</filter>
</defs>
</svg>
