<svg width="84" height="84" viewBox="0 0 84 84" fill="none" xmlns="http://www.w3.org/2000/svg">
<g filter="url(#filter0_d_359_10404)">
<rect x="5" y="4" width="74" height="74" rx="37" fill="white" shape-rendering="crispEdges"/>
<g clip-path="url(#clip0_359_10404)">
<path d="M41.6579 22.0586L26.6259 33.9346V59.8099H57.0522V33.9345L41.6579 22.0586Z" fill="#FF5B2E"/>
<path d="M55.2748 32.4112L52.9402 32.4072L47.1202 27.8588V21H55.2956L55.2748 32.4112Z" fill="#E93200"/>
<path d="M57.0522 33.9347L41.8391 22.1985V59.8099H57.0522V33.9347Z" fill="#F97754"/>
<path d="M24.3529 58.6654H59.993V61H24.3529V58.6654Z" fill="#FF7C58"/>
<path d="M41.8391 58.6654H59.9931V61H41.8392L41.8391 58.6654Z" fill="#FF5B2E"/>
<path d="M23.4676 38.9892L22 37.1737L41.8391 21.2096L61.6781 36.9443L60.2316 38.7765L41.8391 24.1976L23.4676 38.9892Z" fill="#FF7C58"/>
<path d="M61.678 36.9442L41.839 21.2097V24.1977L60.2313 38.7766L61.678 36.9442Z" fill="#FF5B2E"/>
<path d="M41.9722 43.7773C39.8308 43.7462 37.8118 44.5598 36.2877 46.0632C34.7636 47.5665 33.9244 49.5733 33.9244 51.7141C33.9244 51.8044 33.926 51.8948 33.929 51.9842C33.9638 53.0224 34.5738 53.9382 35.5211 54.3737C35.8809 54.5399 36.2723 54.6262 36.6686 54.6267C37.2737 54.6267 37.8712 54.4234 38.3641 54.0291C39.3657 53.2272 40.5754 52.8036 41.8618 52.8036C43.148 52.8036 44.3575 53.2272 45.359 54.0289C46.1681 54.6765 47.2569 54.8083 48.2008 54.3734C49.1502 53.9358 49.7612 53.0166 49.7947 51.9748C49.796 51.9427 49.7966 51.9107 49.7975 51.8765C49.8402 49.7543 49.0456 47.7392 47.5603 46.2026C46.0762 44.6676 44.0916 43.8064 41.9722 43.7774V43.7773ZM41.8617 41.9016C43.5213 41.9016 44.8213 40.2911 44.8213 38.2348C44.8213 36.1788 43.5213 34.5681 41.8617 34.5681C40.2018 34.5681 38.9022 36.1788 38.9022 38.2348C38.9022 40.291 40.2018 41.9015 41.8617 41.9015V41.9016ZM38.4419 40.6711C38.4419 38.6151 37.1419 37.0043 35.4823 37.0043C33.8228 37.0043 32.5227 38.6151 32.5227 40.671C32.5227 42.7269 33.8228 44.3377 35.4823 44.3377C37.1418 44.3377 38.4419 42.727 38.4419 40.6711Z" fill="white"/>
<path d="M48.2412 37.0043C46.5817 37.0043 45.2816 38.6151 45.2816 40.671C45.2816 42.7269 46.5816 44.3377 48.2412 44.3377C49.9007 44.3377 51.2008 42.7269 51.2008 40.671C51.2008 38.6151 49.9007 37.0043 48.2412 37.0043ZM47.5604 46.2026C46.0763 44.6676 44.0917 43.8064 41.9723 43.7774C41.9278 43.7768 41.8835 43.7771 41.8389 43.7771V52.8039C41.8465 52.8039 41.8542 52.8036 41.8615 52.8036C43.1478 52.8036 44.3572 53.2272 45.3592 54.0289C46.1678 54.6765 47.2567 54.8083 48.2009 54.3734C49.1503 53.9358 49.761 53.0166 49.7948 51.9748C49.7957 51.9427 49.7967 51.9107 49.7973 51.8765C49.8403 49.7543 49.0457 47.7392 47.5604 46.2026ZM44.8214 38.2348C44.8214 36.1788 43.5214 34.5681 41.8618 34.5681C41.8542 34.5681 41.8469 34.5687 41.8392 34.5691V41.9009C41.8468 41.9009 41.8542 41.9015 41.8618 41.9015C43.5214 41.9015 44.8214 40.2911 44.8214 38.2348Z" fill="#E4E7EC"/>
</g>
</g>
<defs>
<filter id="filter0_d_359_10404" x="0" y="0" width="84" height="84" filterUnits="userSpaceOnUse" color-interpolation-filters="sRGB">
<feFlood flood-opacity="0" result="BackgroundImageFix"/>
<feColorMatrix in="SourceAlpha" type="matrix" values="0 0 0 0 0 0 0 0 0 0 0 0 0 0 0 0 0 0 127 0" result="hardAlpha"/>
<feOffset dy="1"/>
<feGaussianBlur stdDeviation="2.5"/>
<feComposite in2="hardAlpha" operator="out"/>
<feColorMatrix type="matrix" values="0 0 0 0 0.570833 0 0 0 0 0.570833 0 0 0 0 0.570833 0 0 0 0.06 0"/>
<feBlend mode="normal" in2="BackgroundImageFix" result="effect1_dropShadow_359_10404"/>
<feBlend mode="normal" in="SourceGraphic" in2="effect1_dropShadow_359_10404" result="shape"/>
</filter>
<clipPath id="clip0_359_10404">
<rect width="40" height="40" fill="white" transform="translate(22 21)"/>
</clipPath>
</defs>
</svg>
