<svg width="84" height="84" viewBox="0 0 84 84" fill="none" xmlns="http://www.w3.org/2000/svg">
<g filter="url(#filter0_d_359_10415)">
<rect x="5" y="4" width="74" height="74" rx="37" fill="white" shape-rendering="crispEdges"/>
<path d="M60.4711 53.6115L24.7179 55.0054L24.2966 60.2547L25.9072 61H59.9161C60.0633 60.9999 60.2044 60.9415 60.3085 60.8374C60.4126 60.7333 60.4711 60.5922 60.4711 60.445V53.6115Z" fill="#C82B00"/>
<path d="M23.5287 58.5372V60.445C23.5287 60.5922 23.5872 60.7333 23.6913 60.8374C23.7953 60.9415 23.9365 60.9999 24.0837 61H25.9073V57.7443L23.5287 58.5372Z" fill="#FF5B2E"/>
<path d="M60.4711 28.9832L41.9989 27.3975L24.4904 27.7816L24.2966 57.3058L25.9072 58.5372H55.5455L57.2154 55.2815L60.4711 53.6115V28.9832Z" fill="#FF5B2E"/>
<path d="M23.5287 28.9832V58.5372H25.9073V27.3975L23.5287 28.9832Z" fill="#FF9173"/>
<path d="M55.5457 58.5372V54.1666C55.5457 54.0194 55.6042 53.8782 55.7082 53.7741C55.8123 53.6701 55.9535 53.6116 56.1007 53.6116H60.4713L55.5457 58.5372Z" fill="#F7DF99"/>
<path d="M56.1386 38.5843C56.206 34.7126 52.8778 31.6178 49.007 31.5136C45.8395 31.4284 43.1118 33.3516 42 36.1012C40.8883 33.3516 38.1606 31.4284 34.9932 31.5137C31.1224 31.6178 27.7926 34.7127 27.8615 38.5843C28.0509 49.218 39.9566 55.0758 41.7696 55.9066C41.8419 55.9397 41.9205 55.9569 42 55.9569C42.0796 55.9569 42.1582 55.9397 42.2304 55.9066C44.0439 55.0758 55.9534 49.2181 56.1386 38.5843Z" fill="#FFCC37"/>
<path d="M30.2401 38.5843C30.1771 35.0475 32.9505 32.1589 36.3815 31.6064C35.9227 31.532 35.4578 31.5009 34.9932 31.5136C31.1224 31.6178 27.7926 34.7127 27.8615 38.5843C28.0509 49.218 39.9566 55.0757 41.7696 55.9065C41.8421 55.9397 41.9209 55.9569 42.0006 55.9568C42.0803 55.9567 42.159 55.9394 42.2314 55.9061C42.4347 55.813 42.7643 55.657 43.1896 55.4384C39.8146 53.7033 30.4082 48.0267 30.2401 38.5843Z" fill="#FFBF00"/>
<path d="M60.4712 28.9832H23.5287V24.6125C23.5287 24.4654 23.5872 24.3242 23.6913 24.2201C23.7953 24.116 23.9365 24.0576 24.0837 24.0575H27.8597L28.4716 23.2646L29.049 24.0575H35.2481L35.8353 23.2646L36.4374 24.0575H42.6367L43.1991 23.2646L43.826 24.0575H50.0251L50.6124 23.2646L51.2144 24.0575H57.4135L57.9761 23.2646L58.6028 24.0575H59.916C60.0632 24.0576 60.2044 24.116 60.3085 24.2201C60.4125 24.3242 60.471 24.4654 60.471 24.6125V28.9832H60.4712Z" fill="#CF2D00"/>
<path d="M23.5287 24.6125V28.9831H25.9073V24.0575H24.0837C23.9365 24.0575 23.7953 24.116 23.6912 24.2201C23.5872 24.3241 23.5287 24.4653 23.5287 24.6125Z" fill="#D44441"/>
<path d="M39.7843 41.1851C40.662 40.9503 41.0874 39.6904 40.7344 38.3712C40.3814 37.0519 39.3837 36.1729 38.5059 36.4077C37.6282 36.6426 37.2028 37.9025 37.5558 39.2217C37.9088 40.541 38.9065 41.42 39.7843 41.1851Z" fill="#FFF8EB"/>
<path d="M46.4539 39.2259C46.8075 37.9069 46.3828 36.6468 45.5052 36.4114C44.6275 36.1761 43.6293 37.0547 43.2757 38.3737C42.922 39.6928 43.3467 40.9529 44.2244 41.1882C45.102 41.4235 46.1002 40.545 46.4539 39.2259Z" fill="#FFF8EB"/>
<path d="M36.1921 43.599C36.7799 43.2596 36.8429 42.2683 36.3329 41.3848C35.8228 40.5014 34.9328 40.0603 34.345 40.3997C33.7572 40.739 33.6941 41.7303 34.2042 42.6138C34.7143 43.4973 35.6043 43.9383 36.1921 43.599Z" fill="#FFF8EB"/>
<path d="M49.7951 42.6151C50.3052 41.7316 50.2422 40.7403 49.6544 40.4009C49.0665 40.0615 48.1765 40.5026 47.6665 41.3861C47.1564 42.2695 47.2194 43.2608 47.8073 43.6002C48.3951 43.9396 49.2851 43.4985 49.7951 42.6151Z" fill="#FFF8EB"/>
<path d="M38.0483 50.3074C38.8526 50.2785 39.5784 50.001 40.153 49.5078C41.2717 48.6876 42.7292 48.6878 43.8479 49.5081C44.4223 50.0013 45.148 50.2785 45.9521 50.3074C48.1308 50.3074 48.3995 47.8135 47.771 46.514C47.1998 45.4672 46.4019 44.5921 45.4486 43.9666L45.4481 43.9663C43.3241 42.5726 40.6761 42.5726 38.552 43.9663C37.5984 44.592 36.8004 45.4674 36.2291 46.5146C35.5891 47.7582 35.8863 50.3074 38.0483 50.3074Z" fill="#FFF8EB"/>
<path d="M39.1373 39.224C38.8533 38.1643 39.0717 37.1428 39.6237 36.66C39.2666 36.4106 38.8728 36.31 38.5007 36.4097C37.6231 36.6449 37.1981 37.9049 37.5516 39.224C37.905 40.5432 38.9031 41.4219 39.7807 41.1868C39.9533 41.1405 40.1084 41.0546 40.2435 40.9364C39.7583 40.5975 39.3409 39.9839 39.1373 39.224ZM44.8558 38.3724C45.0594 37.6125 45.4768 36.9989 45.962 36.66C45.8269 36.5418 45.6718 36.4559 45.4992 36.4096C44.6216 36.1745 43.6235 37.0532 43.2701 38.3723C42.9167 39.6914 43.3416 40.9514 44.2192 41.1866C44.5913 41.2863 44.9851 41.1857 45.3422 40.9363C44.7902 40.4536 44.5718 39.4321 44.8558 38.3724ZM35.7901 42.6143C35.367 41.8814 35.3382 41.0743 35.6763 40.6267C35.2288 40.2871 34.7242 40.1814 34.3451 40.4002C33.7573 40.7396 33.6943 41.7308 34.2044 42.6143C34.7145 43.4978 35.6045 43.9389 36.1923 43.5995C36.2915 43.5419 36.3781 43.4649 36.4468 43.373C36.2003 43.186 35.9713 42.9281 35.7901 42.6143ZM49.2527 41.3854C49.4338 41.0716 49.6629 40.8137 49.9093 40.6267C49.8406 40.5348 49.7541 40.4578 49.6549 40.4002C49.067 40.0608 48.177 40.5019 47.667 41.3854C47.1569 42.2688 47.2199 43.2601 47.8077 43.5995C48.1868 43.8183 48.6915 43.7126 49.139 43.373C48.8008 42.9254 48.8295 42.1183 49.2527 41.3854ZM37.8147 46.5146C38.386 45.4675 39.184 44.592 40.1377 43.9663C40.964 43.4241 41.8696 43.0929 42.7928 42.9725C41.3429 42.7836 39.8496 43.1148 38.5519 43.9663C37.5983 44.592 36.8003 45.4675 36.2289 46.5146C35.5889 47.7582 35.8862 50.3074 38.0482 50.3074C38.3274 50.298 38.6046 50.2564 38.8742 50.1834C37.4099 49.6582 37.2591 47.5943 37.8147 46.5146Z" fill="#FEF0CB"/>
<path d="M56.777 25.9257C56.4259 25.9257 56.1403 25.6401 56.1403 25.2889V22.8261C56.1403 22.4749 56.4259 22.1893 56.777 22.1893C57.1281 22.1893 57.4138 22.4749 57.4138 22.8261V24.0575H58.6031V22.8261C58.6031 21.8192 57.7838 21 56.777 21C55.7701 21 54.951 21.8192 54.951 22.8261V25.289C54.951 26.2959 55.7701 27.1151 56.777 27.1151C57.1054 27.1151 57.3717 26.8489 57.3717 26.5204C57.3717 26.1919 57.1054 25.9257 56.777 25.9257ZM49.3885 25.9257C49.0374 25.9257 48.7517 25.6401 48.7517 25.2889V22.8261C48.7517 22.4749 49.0374 22.1893 49.3885 22.1893C49.7397 22.1893 50.0253 22.4749 50.0253 22.8261V24.0575H51.2146V22.8261C51.2145 21.8192 50.3954 21 49.3885 21C48.3817 21 47.5624 21.8192 47.5624 22.8261V25.289C47.5624 26.2959 48.3817 27.1151 49.3885 27.1151C49.717 27.1151 49.9832 26.8489 49.9832 26.5204C49.9832 26.1919 49.717 25.9257 49.3885 25.9257ZM42 25.9257C41.6489 25.9257 41.3632 25.6401 41.3632 25.2889V22.8261C41.3632 22.4749 41.6489 22.1893 42 22.1893C42.3512 22.1893 42.6368 22.4749 42.6368 22.8261V24.0575H43.8261V22.8261C43.8261 21.8192 43.0069 21 42 21C40.9931 21 40.1739 21.8192 40.1739 22.8261V25.289C40.1739 26.2959 40.9931 27.1151 42 27.1151C42.3285 27.1151 42.5947 26.8489 42.5947 26.5204C42.5947 26.1919 42.3285 25.9257 42 25.9257ZM34.6115 25.9257C34.2604 25.9257 33.9748 25.6401 33.9748 25.2889V22.8261C33.9748 22.4749 34.2605 22.1893 34.6116 22.1893C34.9627 22.1893 35.2483 22.4749 35.2483 22.8261V24.0575H36.4376V22.8261C36.4376 21.8192 35.6184 21 34.6115 21C33.6046 21 32.7855 21.8192 32.7855 22.8261V25.289C32.7855 26.2959 33.6046 27.1151 34.6115 27.1151C34.9399 27.1151 35.2062 26.8489 35.2062 26.5204C35.2062 26.1919 34.9399 25.9257 34.6115 25.9257ZM27.223 25.9257C26.8719 25.9257 26.5862 25.6401 26.5862 25.2889V22.8261C26.5862 22.4749 26.8719 22.1893 27.223 22.1893C27.5741 22.1893 27.8598 22.4749 27.8598 22.8261V24.0575H29.0491V22.8261C29.0491 21.8192 28.2299 21 27.223 21C26.216 21 25.397 21.8192 25.397 22.8261V25.289C25.397 26.2959 26.2161 27.1151 27.2231 27.1151C27.3012 27.1151 27.3785 27.0997 27.4506 27.0698C27.5228 27.0399 27.5883 26.9961 27.6436 26.9409C27.6988 26.8856 27.7426 26.8201 27.7725 26.7479C27.8023 26.6758 27.8177 26.5984 27.8177 26.5204C27.8177 26.4423 27.8023 26.3649 27.7724 26.2928C27.7425 26.2206 27.6987 26.1551 27.6435 26.0999C27.5883 26.0446 27.5227 26.0008 27.4506 25.971C27.3784 25.9411 27.3011 25.9257 27.223 25.9257Z" fill="white"/>
</g>
<defs>
<filter id="filter0_d_359_10415" x="0" y="0" width="84" height="84" filterUnits="userSpaceOnUse" color-interpolation-filters="sRGB">
<feFlood flood-opacity="0" result="BackgroundImageFix"/>
<feColorMatrix in="SourceAlpha" type="matrix" values="0 0 0 0 0 0 0 0 0 0 0 0 0 0 0 0 0 0 127 0" result="hardAlpha"/>
<feOffset dy="1"/>
<feGaussianBlur stdDeviation="2.5"/>
<feComposite in2="hardAlpha" operator="out"/>
<feColorMatrix type="matrix" values="0 0 0 0 0.570833 0 0 0 0 0.570833 0 0 0 0 0.570833 0 0 0 0.06 0"/>
<feBlend mode="normal" in2="BackgroundImageFix" result="effect1_dropShadow_359_10415"/>
<feBlend mode="normal" in="SourceGraphic" in2="effect1_dropShadow_359_10415" result="shape"/>
</filter>
</defs>
</svg>
