<svg width="106" height="106" viewBox="0 0 106 106" fill="none" xmlns="http://www.w3.org/2000/svg">
<g filter="url(#filter0_d_243_3653)">
<rect x="2" y="2" width="100" height="100" rx="24.8793" fill="#eefbf4" shape-rendering="crispEdges"/>
<path d="M70.0464 29.5H64.187C63.9384 29.5 63.6999 29.4012 63.5241 29.2254C63.3483 29.0496 63.2495 28.8111 63.2495 28.5625C63.2495 28.3139 63.3483 28.0754 63.5241 27.8996C63.6999 27.7238 63.9384 27.625 64.187 27.625H70.0464C70.295 27.625 70.5335 27.7238 70.7093 27.8996C70.8851 28.0754 70.9839 28.3139 70.9839 28.5625C70.9839 28.8111 70.8851 29.0496 70.7093 29.2254C70.5335 29.4012 70.295 29.5 70.0464 29.5ZM69.812 33.25H64.187C63.9384 33.25 63.6999 33.1512 63.5241 32.9754C63.3483 32.7996 63.2495 32.5611 63.2495 32.3125C63.2495 32.0639 63.3483 31.8254 63.5241 31.6496C63.6999 31.4738 63.9384 31.375 64.187 31.375H69.812C70.0607 31.375 70.2991 31.4738 70.4749 31.6496C70.6507 31.8254 70.7495 32.0639 70.7495 32.3125C70.7495 32.5611 70.6507 32.7996 70.4749 32.9754C70.2991 33.1512 70.0607 33.25 69.812 33.25ZM69.812 37H64.187C63.9384 37 63.6999 36.9012 63.5241 36.7254C63.3483 36.5496 63.2495 36.3111 63.2495 36.0625C63.2495 35.8139 63.3483 35.5754 63.5241 35.3996C63.6999 35.2238 63.9384 35.125 64.187 35.125H69.812C70.0607 35.125 70.2991 35.2238 70.4749 35.3996C70.6507 35.5754 70.7495 35.8139 70.7495 36.0625C70.7495 36.3111 70.6507 36.5496 70.4749 36.7254C70.2991 36.9012 70.0607 37 69.812 37ZM69.812 40.75H64.187C63.9384 40.75 63.6999 40.6512 63.5241 40.4754C63.3483 40.2996 63.2495 40.0611 63.2495 39.8125C63.2495 39.5639 63.3483 39.3254 63.5241 39.1496C63.6999 38.9738 63.9384 38.875 64.187 38.875H69.812C70.0607 38.875 70.2991 38.9738 70.4749 39.1496C70.6507 39.3254 70.7495 39.5639 70.7495 39.8125C70.7495 40.0611 70.6507 40.2996 70.4749 40.4754C70.2991 40.6512 70.0607 40.75 69.812 40.75ZM69.812 44.5H64.187C63.9384 44.5 63.6999 44.4012 63.5241 44.2254C63.3483 44.0496 63.2495 43.8111 63.2495 43.5625C63.2495 43.3139 63.3483 43.0754 63.5241 42.8996C63.6999 42.7238 63.9384 42.625 64.187 42.625H69.812C70.0607 42.625 70.2991 42.7238 70.4749 42.8996C70.6507 43.0754 70.7495 43.3139 70.7495 43.5625C70.7495 43.8111 70.6507 44.0496 70.4749 44.2254C70.2991 44.4012 70.0607 44.5 69.812 44.5ZM69.812 48.25H64.187C63.9384 48.25 63.6999 48.1512 63.5241 47.9754C63.3483 47.7996 63.2495 47.5611 63.2495 47.3125C63.2495 47.0639 63.3483 46.8254 63.5241 46.6496C63.6999 46.4738 63.9384 46.375 64.187 46.375H69.812C70.0607 46.375 70.2991 46.4738 70.4749 46.6496C70.6507 46.8254 70.7495 47.0639 70.7495 47.3125C70.7495 47.5611 70.6507 47.7996 70.4749 47.9754C70.2991 48.1512 70.0607 48.25 69.812 48.25ZM69.812 52H64.187C63.9384 52 63.6999 51.9012 63.5241 51.7254C63.3483 51.5496 63.2495 51.3111 63.2495 51.0625C63.2495 50.8139 63.3483 50.5754 63.5241 50.3996C63.6999 50.2238 63.9384 50.125 64.187 50.125H69.812C70.0607 50.125 70.2991 50.2238 70.4749 50.3996C70.6507 50.5754 70.7495 50.8139 70.7495 51.0625C70.7495 51.3111 70.6507 51.5496 70.4749 51.7254C70.2991 51.9012 70.0607 52 69.812 52ZM69.812 55.75H64.187C63.9384 55.75 63.6999 55.6512 63.5241 55.4754C63.3483 55.2996 63.2495 55.0611 63.2495 54.8125C63.2495 54.5639 63.3483 54.3254 63.5241 54.1496C63.6999 53.9738 63.9384 53.875 64.187 53.875H69.812C70.0607 53.875 70.2991 53.9738 70.4749 54.1496C70.6507 54.3254 70.7495 54.5639 70.7495 54.8125C70.7495 55.0611 70.6507 55.2996 70.4749 55.4754C70.2991 55.6512 70.0607 55.75 69.812 55.75Z" fill="#FF5B2E"/>
<path d="M67.938 27.625H70.7505V29.5H67.938V27.625ZM67.938 31.375H70.7505V33.25H67.938V31.375ZM67.938 35.125H70.7505V37H67.938V35.125ZM67.938 38.875H70.7505V40.75H67.938V38.875ZM67.938 42.625H70.7505V44.5H67.938V42.625ZM67.938 46.375H70.7505V48.25H67.938V46.375ZM67.938 50.125H70.7505V52H67.938V50.125ZM67.938 53.875H70.7505V55.75H67.938V53.875Z" fill="#F53703"/>
<path d="M51.7739 66.0625C51.4183 66.0625 51.0667 65.988 50.7416 65.8437C50.4166 65.6995 50.1253 65.4888 49.8867 65.2251C49.6481 64.9614 49.4674 64.6507 49.3562 64.3129C49.245 63.9751 49.2059 63.6178 49.2413 63.2639L49.8989 56.6875L48.9614 51.0625H54.5864L53.6489 56.6875L54.3066 63.2639C54.342 63.6178 54.3028 63.9751 54.1916 64.3129C54.0805 64.6507 53.8997 64.9614 53.6611 65.2251C53.4225 65.4888 53.1313 65.6995 52.8062 65.8437C52.4812 65.988 52.1295 66.0625 51.7739 66.0625Z" fill="#FFCC37"/>
<path d="M38.8755 60.4375L36.0653 63.5992L35.0751 64.7125L31.3755 68.875H28.563L32.4489 61.8813L33.2505 60.4375H38.8755Z" fill="#CDCDCD"/>
<path d="M43.5625 68.875H40.75L33.25 60.4375V40.4765C33.25 36.3407 34.2129 32.2617 36.0625 28.5625C37.9121 32.2617 38.875 36.3407 38.875 40.4765V60.4375L43.5625 68.875Z" fill="#DBDBDB"/>
<path d="M35.1245 55.75H36.9995V57.625H35.1245V55.75Z" fill="#C3C3C3"/>
<path d="M42.6255 67.9375C41.513 67.9375 40.4254 68.2674 39.5004 68.8855C38.5754 69.5036 37.8544 70.3821 37.4287 71.4099C37.0029 72.4377 36.8915 73.5687 37.1086 74.6599C37.3256 75.751 37.8613 76.7533 38.648 77.54C39.4347 78.3266 40.437 78.8624 41.5281 79.0794C42.6193 79.2965 43.7503 79.1851 44.7781 78.7593C45.8059 78.3336 46.6844 77.6126 47.3025 76.6876C47.9206 75.7626 48.2505 74.675 48.2505 73.5625C48.2505 72.0707 47.6579 70.6399 46.603 69.585C45.5481 68.5301 44.1173 67.9375 42.6255 67.9375ZM42.6255 75.4375C42.2547 75.4375 41.8921 75.3275 41.5838 75.1215C41.2755 74.9155 41.0351 74.6226 40.8932 74.28C40.7513 73.9374 40.7142 73.5604 40.7865 73.1967C40.8589 72.833 41.0374 72.4989 41.2997 72.2367C41.5619 71.9745 41.896 71.7959 42.2597 71.7235C42.6234 71.6512 43.0004 71.6883 43.343 71.8302C43.6856 71.9721 43.9785 72.2125 44.1845 72.5208C44.3905 72.8291 44.5005 73.1917 44.5005 73.5625C44.5005 74.0598 44.3029 74.5367 43.9513 74.8883C43.5997 75.24 43.1228 75.4375 42.6255 75.4375Z" fill="#FF5B2E"/>
<path d="M30.4375 67.9375C29.325 67.9375 28.2374 68.2674 27.3124 68.8855C26.3874 69.5036 25.6664 70.3821 25.2407 71.4099C24.8149 72.4377 24.7035 73.5687 24.9206 74.6599C25.1376 75.751 25.6734 76.7533 26.46 77.54C27.2467 78.3266 28.249 78.8624 29.3401 79.0794C30.4313 79.2965 31.5623 79.1851 32.5901 78.7593C33.6179 78.3336 34.4964 77.6126 35.1145 76.6876C35.7326 75.7626 36.0625 74.675 36.0625 73.5625C36.0625 72.0707 35.4699 70.6399 34.415 69.585C33.3601 68.5301 31.9293 67.9375 30.4375 67.9375ZM30.4375 75.4375C30.0667 75.4375 29.7042 75.3275 29.3958 75.1215C29.0875 74.9155 28.8471 74.6226 28.7052 74.28C28.5633 73.9374 28.5262 73.5604 28.5985 73.1967C28.6709 72.833 28.8495 72.4989 29.1117 72.2367C29.3739 71.9745 29.708 71.7959 30.0717 71.7235C30.4354 71.6512 30.8124 71.6883 31.155 71.8302C31.4976 71.9721 31.7905 72.2125 31.9965 72.5208C32.2025 72.8291 32.3125 73.1917 32.3125 73.5625C32.3125 74.0598 32.115 74.5367 31.7633 74.8883C31.4117 75.24 30.9348 75.4375 30.4375 75.4375Z" fill="#FF5B2E"/>
<path d="M51.7737 52C55.7909 52 59.0474 46.7533 59.0474 40.2812C59.0474 33.8092 55.7909 28.5625 51.7737 28.5625C47.7566 28.5625 44.5 33.8092 44.5 40.2812C44.5 46.7533 47.7566 52 51.7737 52Z" fill="#FFD65F"/>
<path d="M48.9614 40.75H50.8364V42.625H48.9614V40.75ZM48.9614 44.5H50.8364V46.375H48.9614V44.5ZM48.9614 33.25H50.8364V35.125H48.9614V33.25ZM48.9614 37H50.8364V38.875H48.9614V37ZM52.7114 33.25H54.5864V35.125H52.7114V33.25ZM52.7114 37H54.5864V38.875H52.7114V37ZM52.7114 44.5H54.5864V46.375H52.7114V44.5ZM52.7114 40.75H54.5864V42.625H52.7114V40.75Z" fill="white"/>
<path d="M73.562 60.4375H69.812C69.5634 60.4375 69.3249 60.3387 69.1491 60.1629C68.9733 59.9871 68.8745 59.7486 68.8745 59.5V27.625H71.687C72.4329 27.625 73.1483 27.9213 73.6757 28.4488C74.2032 28.9762 74.4995 29.6916 74.4995 30.4375V59.5C74.4995 59.7486 74.4007 59.9871 74.2249 60.1629C74.0491 60.3387 73.8106 60.4375 73.562 60.4375Z" fill="#FF5B2E"/>
<path d="M36.0646 63.5992L35.0744 64.7125L32.4482 61.8813L33.2498 60.4375H33.2756L36.0646 63.5992Z" fill="#A8A8A8"/>
<path d="M68.875 79.1875C74.5704 79.1875 79.1875 74.5704 79.1875 68.875C79.1875 63.1796 74.5704 58.5625 68.875 58.5625C63.1796 58.5625 58.5625 63.1796 58.5625 68.875C58.5625 74.5704 63.1796 79.1875 68.875 79.1875Z" fill="#FF5B2E"/>
<path d="M70.7501 74.5C71.2474 74.5 71.7243 74.3025 72.0759 73.9508C72.4275 73.5992 72.6251 73.1223 72.6251 72.625C72.6251 72.1277 72.4275 71.6508 72.0759 71.2992C71.7243 70.9475 71.2474 70.75 70.7501 70.75C70.7501 70.2527 70.5525 69.7758 70.2009 69.4242C69.8493 69.0725 69.3724 68.875 68.8751 68.875C68.3778 68.875 67.9009 69.0725 67.5492 69.4242C67.1976 69.7758 67.0001 70.2527 67.0001 70.75V70.7514C66.7498 70.7474 66.5013 70.7936 66.2692 70.8871C66.0371 70.9807 65.826 71.1198 65.6485 71.2962C65.471 71.4726 65.3306 71.6828 65.2356 71.9143C65.1406 72.1459 65.0929 72.3941 65.0953 72.6443C65.0977 72.8946 65.1502 73.1418 65.2497 73.3715C65.3492 73.6011 65.4936 73.8085 65.6746 73.9815C65.8555 74.1544 66.0691 74.2894 66.303 74.3785C66.5369 74.4675 66.7863 74.5088 67.0364 74.5H70.7501Z" fill="white"/>
<path d="M68.8745 66.0623C69.6512 66.0623 70.2808 65.4327 70.2808 64.656C70.2808 63.8794 69.6512 63.2498 68.8745 63.2498C68.0979 63.2498 67.4683 63.8794 67.4683 64.656C67.4683 65.4327 68.0979 66.0623 68.8745 66.0623Z" fill="white"/>
<path d="M63.7192 68.8748C64.4959 68.8748 65.1255 68.2452 65.1255 67.4685C65.1255 66.6919 64.4959 66.0623 63.7192 66.0623C62.9426 66.0623 62.313 66.6919 62.313 67.4685C62.313 68.2452 62.9426 68.8748 63.7192 68.8748Z" fill="white"/>
<path d="M74.0312 68.8748C74.8079 68.8748 75.4375 68.2452 75.4375 67.4685C75.4375 66.6919 74.8079 66.0623 74.0312 66.0623C73.2546 66.0623 72.625 66.6919 72.625 67.4685C72.625 68.2452 73.2546 68.8748 74.0312 68.8748Z" fill="white"/>
<path d="M68.8745 80.125C66.6495 80.125 64.4744 79.4652 62.6244 78.229C60.7743 76.9929 59.3324 75.2359 58.4809 73.1802C57.6294 71.1245 57.4066 68.8625 57.8407 66.6802C58.2748 64.498 59.3462 62.4934 60.9196 60.9201C62.4929 59.3467 64.4975 58.2753 66.6798 57.8412C68.862 57.4071 71.124 57.6299 73.1797 58.4814C75.2354 59.3328 76.9924 60.7748 78.2285 62.6248C79.4647 64.4749 80.1245 66.65 80.1245 68.875C80.1212 71.8577 78.9348 74.7172 76.8258 76.8263C74.7167 78.9353 71.8572 80.1217 68.8745 80.125ZM68.8745 59.5C67.0203 59.5 65.2078 60.0498 63.666 61.08C62.1243 62.1101 60.9227 63.5743 60.2131 65.2873C59.5036 67.0004 59.3179 68.8854 59.6797 70.704C60.0414 72.5226 60.9343 74.193 62.2454 75.5041C63.5565 76.8152 65.227 77.7081 67.0455 78.0699C68.8641 78.4316 70.7491 78.2459 72.4622 77.5364C74.1752 76.8268 75.6394 75.6252 76.6695 74.0835C77.6997 72.5418 78.2495 70.7292 78.2495 68.875C78.2467 66.3895 77.2581 64.0065 75.5005 62.249C73.743 60.4915 71.3601 59.5028 68.8745 59.5Z" fill="#FFCC37"/>
</g>
<defs>
<filter id="filter0_d_243_3653" x="0.756034" y="0.756034" width="104.976" height="104.976" filterUnits="userSpaceOnUse" color-interpolation-filters="sRGB">
<feFlood flood-opacity="0" result="BackgroundImageFix"/>
<feColorMatrix in="SourceAlpha" type="matrix" values="0 0 0 0 0 0 0 0 0 0 0 0 0 0 0 0 0 0 127 0" result="hardAlpha"/>
<feOffset dx="1.24397" dy="1.24397"/>
<feGaussianBlur stdDeviation="1.24397"/>
<feComposite in2="hardAlpha" operator="out"/>
<feColorMatrix type="matrix" values="0 0 0 0 0.570833 0 0 0 0 0.570833 0 0 0 0 0.570833 0 0 0 0.08 0"/>
<feBlend mode="normal" in2="BackgroundImageFix" result="effect1_dropShadow_243_3653"/>
<feBlend mode="normal" in="SourceGraphic" in2="effect1_dropShadow_243_3653" result="shape"/>
</filter>
</defs>
</svg>
