<svg width="84" height="84" viewBox="0 0 84 84" fill="none" xmlns="http://www.w3.org/2000/svg">
<g filter="url(#filter0_d_359_10393)">
<rect x="5" y="4" width="74" height="74" rx="37" fill="white" shape-rendering="crispEdges"/>
<path d="M54.0311 26H50.1249C49.9591 26 49.8001 25.9342 49.6829 25.8169C49.5657 25.6997 49.4999 25.5408 49.4999 25.375C49.4999 25.2092 49.5657 25.0503 49.6829 24.9331C49.8001 24.8158 49.9591 24.75 50.1249 24.75H54.0311C54.1969 24.75 54.3559 24.8158 54.4731 24.9331C54.5903 25.0503 54.6561 25.2092 54.6561 25.375C54.6561 25.5408 54.5903 25.6997 54.4731 25.8169C54.3559 25.9342 54.1969 26 54.0311 26ZM53.8749 28.5H50.1249C49.9591 28.5 49.8001 28.4342 49.6829 28.3169C49.5657 28.1997 49.4999 28.0408 49.4999 27.875C49.4999 27.7092 49.5657 27.5503 49.6829 27.4331C49.8001 27.3158 49.9591 27.25 50.1249 27.25H53.8749C54.0406 27.25 54.1996 27.3158 54.3168 27.4331C54.434 27.5503 54.4999 27.7092 54.4999 27.875C54.4999 28.0408 54.434 28.1997 54.3168 28.3169C54.1996 28.4342 54.0406 28.5 53.8749 28.5ZM53.8749 31H50.1249C49.9591 31 49.8001 30.9342 49.6829 30.8169C49.5657 30.6997 49.4999 30.5408 49.4999 30.375C49.4999 30.2092 49.5657 30.0503 49.6829 29.9331C49.8001 29.8158 49.9591 29.75 50.1249 29.75H53.8749C54.0406 29.75 54.1996 29.8158 54.3168 29.9331C54.434 30.0503 54.4999 30.2092 54.4999 30.375C54.4999 30.5408 54.434 30.6997 54.3168 30.8169C54.1996 30.9342 54.0406 31 53.8749 31ZM53.8749 33.5H50.1249C49.9591 33.5 49.8001 33.4342 49.6829 33.3169C49.5657 33.1997 49.4999 33.0408 49.4999 32.875C49.4999 32.7092 49.5657 32.5503 49.6829 32.4331C49.8001 32.3158 49.9591 32.25 50.1249 32.25H53.8749C54.0406 32.25 54.1996 32.3158 54.3168 32.4331C54.434 32.5503 54.4999 32.7092 54.4999 32.875C54.4999 33.0408 54.434 33.1997 54.3168 33.3169C54.1996 33.4342 54.0406 33.5 53.8749 33.5ZM53.8749 36H50.1249C49.9591 36 49.8001 35.9342 49.6829 35.8169C49.5657 35.6997 49.4999 35.5408 49.4999 35.375C49.4999 35.2092 49.5657 35.0503 49.6829 34.9331C49.8001 34.8158 49.9591 34.75 50.1249 34.75H53.8749C54.0406 34.75 54.1996 34.8158 54.3168 34.9331C54.434 35.0503 54.4999 35.2092 54.4999 35.375C54.4999 35.5408 54.434 35.6997 54.3168 35.8169C54.1996 35.9342 54.0406 36 53.8749 36ZM53.8749 38.5H50.1249C49.9591 38.5 49.8001 38.4342 49.6829 38.3169C49.5657 38.1997 49.4999 38.0408 49.4999 37.875C49.4999 37.7092 49.5657 37.5503 49.6829 37.4331C49.8001 37.3158 49.9591 37.25 50.1249 37.25H53.8749C54.0406 37.25 54.1996 37.3158 54.3168 37.4331C54.434 37.5503 54.4999 37.7092 54.4999 37.875C54.4999 38.0408 54.434 38.1997 54.3168 38.3169C54.1996 38.4342 54.0406 38.5 53.8749 38.5ZM53.8749 41H50.1249C49.9591 41 49.8001 40.9342 49.6829 40.8169C49.5657 40.6997 49.4999 40.5408 49.4999 40.375C49.4999 40.2092 49.5657 40.0503 49.6829 39.9331C49.8001 39.8158 49.9591 39.75 50.1249 39.75H53.8749C54.0406 39.75 54.1996 39.8158 54.3168 39.9331C54.434 40.0503 54.4999 40.2092 54.4999 40.375C54.4999 40.5408 54.434 40.6997 54.3168 40.8169C54.1996 40.9342 54.0406 41 53.8749 41ZM53.8749 43.5H50.1249C49.9591 43.5 49.8001 43.4342 49.6829 43.3169C49.5657 43.1997 49.4999 43.0408 49.4999 42.875C49.4999 42.7092 49.5657 42.5503 49.6829 42.4331C49.8001 42.3158 49.9591 42.25 50.1249 42.25H53.8749C54.0406 42.25 54.1996 42.3158 54.3168 42.4331C54.434 42.5503 54.4999 42.7092 54.4999 42.875C54.4999 43.0408 54.434 43.1997 54.3168 43.3169C54.1996 43.4342 54.0406 43.5 53.8749 43.5Z" fill="#FF5B2E"/>
<path d="M52.6249 24.75H54.4999V26H52.6249V24.75ZM52.6249 27.25H54.4999V28.5H52.6249V27.25ZM52.6249 29.75H54.4999V31H52.6249V29.75ZM52.6249 32.25H54.4999V33.5H52.6249V32.25ZM52.6249 34.75H54.4999V36H52.6249V34.75ZM52.6249 37.25H54.4999V38.5H52.6249V37.25ZM52.6249 39.75H54.4999V41H52.6249V39.75ZM52.6249 42.25H54.4999V43.5H52.6249V42.25Z" fill="#F53703"/>
<path d="M41.8491 50.375C41.612 50.375 41.3776 50.3253 41.1609 50.2292C40.9442 50.133 40.7501 49.9925 40.591 49.8167C40.4319 49.641 40.3114 49.4338 40.2373 49.2086C40.1632 48.9834 40.1371 48.7452 40.1607 48.5093L40.5991 44.125L39.9741 40.375H43.7241L43.0991 44.125L43.5376 48.5093C43.5611 48.7452 43.535 48.9834 43.4609 49.2086C43.3868 49.4338 43.2663 49.641 43.1073 49.8167C42.9482 49.9925 42.754 50.133 42.5373 50.2292C42.3206 50.3253 42.0862 50.375 41.8491 50.375Z" fill="#FFCC37"/>
<path d="M33.2499 46.625L31.3764 48.7328L30.7163 49.475L28.2499 52.25H26.3749L28.9655 47.5875L29.4999 46.625H33.2499Z" fill="#CDCDCD"/>
<path d="M36.3749 52.25H34.4999L29.4999 46.625V33.3177C29.4999 30.5605 30.1418 27.8411 31.3749 25.375C32.6079 27.8411 33.2499 30.5605 33.2499 33.3177V46.625L36.3749 52.25Z" fill="#DBDBDB"/>
<path d="M30.7499 43.5H31.9999V44.75H30.7499V43.5Z" fill="#C3C3C3"/>
<path d="M35.7496 51.625C35.008 51.625 34.2829 51.8449 33.6662 52.257C33.0496 52.669 32.5689 53.2547 32.2851 53.9399C32.0013 54.6252 31.927 55.3792 32.0717 56.1066C32.2164 56.834 32.5735 57.5022 33.098 58.0267C33.6224 58.5511 34.2906 58.9083 35.018 59.0529C35.7455 59.1976 36.4995 59.1234 37.1847 58.8395C37.8699 58.5557 38.4556 58.0751 38.8676 57.4584C39.2797 56.8417 39.4996 56.1167 39.4996 55.375C39.4996 54.3804 39.1045 53.4266 38.4013 52.7233C37.698 52.0201 36.7442 51.625 35.7496 51.625ZM35.7496 56.625C35.5024 56.625 35.2607 56.5517 35.0552 56.4143C34.8496 56.277 34.6894 56.0818 34.5948 55.8534C34.5002 55.6249 34.4754 55.3736 34.5237 55.1311C34.5719 54.8887 34.6909 54.6659 34.8658 54.4911C35.0406 54.3163 35.2633 54.1973 35.5058 54.149C35.7482 54.1008 35.9996 54.1255 36.228 54.2202C36.4564 54.3148 36.6516 54.475 36.789 54.6805C36.9263 54.8861 36.9996 55.1278 36.9996 55.375C36.9996 55.7065 36.8679 56.0245 36.6335 56.2589C36.3991 56.4933 36.0812 56.625 35.7496 56.625Z" fill="#FF5B2E"/>
<path d="M27.6248 51.625C26.8831 51.625 26.1581 51.8449 25.5414 52.257C24.9247 52.669 24.444 53.2547 24.1602 53.9399C23.8764 54.6252 23.8021 55.3792 23.9468 56.1066C24.0915 56.834 24.4487 57.5022 24.9731 58.0267C25.4976 58.5511 26.1657 58.9083 26.8932 59.0529C27.6206 59.1976 28.3746 59.1234 29.0598 58.8395C29.745 58.5557 30.3307 58.0751 30.7428 57.4584C31.1548 56.8417 31.3748 56.1167 31.3748 55.375C31.3748 54.3804 30.9797 53.4266 30.2764 52.7233C29.5731 52.0201 28.6193 51.625 27.6248 51.625ZM27.6248 56.625C27.3775 56.625 27.1359 56.5517 26.9303 56.4143C26.7247 56.277 26.5645 56.0818 26.4699 55.8534C26.3753 55.6249 26.3505 55.3736 26.3988 55.1311C26.447 54.8887 26.5661 54.6659 26.7409 54.4911C26.9157 54.3163 27.1384 54.1973 27.3809 54.149C27.6234 54.1008 27.8747 54.1255 28.1031 54.2202C28.3315 54.3148 28.5267 54.475 28.6641 54.6805C28.8014 54.8861 28.8748 55.1278 28.8748 55.375C28.8748 55.7065 28.7431 56.0245 28.5086 56.2589C28.2742 56.4933 27.9563 56.625 27.6248 56.625Z" fill="#FF5B2E"/>
<path d="M41.8489 41C44.527 41 46.698 37.5022 46.698 33.1875C46.698 28.8728 44.527 25.375 41.8489 25.375C39.1708 25.375 36.9998 28.8728 36.9998 33.1875C36.9998 37.5022 39.1708 41 41.8489 41Z" fill="#FFD65F"/>
<path d="M39.9741 33.5H41.2241V34.75H39.9741V33.5ZM39.9741 36H41.2241V37.25H39.9741V36ZM39.9741 28.5H41.2241V29.75H39.9741V28.5ZM39.9741 31H41.2241V32.25H39.9741V31ZM42.4741 28.5H43.7241V29.75H42.4741V28.5ZM42.4741 31H43.7241V32.25H42.4741V31ZM42.4741 36H43.7241V37.25H42.4741V36ZM42.4741 33.5H43.7241V34.75H42.4741V33.5Z" fill="white"/>
<path d="M56.3748 46.625H53.8748C53.709 46.625 53.55 46.5592 53.4328 46.4419C53.3156 46.3247 53.2498 46.1658 53.2498 46V24.75H55.1248C55.622 24.75 56.099 24.9475 56.4506 25.2992C56.8022 25.6508 56.9998 26.1277 56.9998 26.625V46C56.9998 46.1658 56.9339 46.3247 56.8167 46.4419C56.6995 46.5592 56.5405 46.625 56.3748 46.625Z" fill="#FF5B2E"/>
<path d="M31.3765 48.7328L30.7164 49.475L28.9656 47.5875L29.5 46.625H29.5171L31.3765 48.7328Z" fill="#A8A8A8"/>
<path d="M53.2496 59.125C57.0466 59.125 60.1246 56.047 60.1246 52.25C60.1246 48.453 57.0466 45.375 53.2496 45.375C49.4527 45.375 46.3746 48.453 46.3746 52.25C46.3746 56.047 49.4527 59.125 53.2496 59.125Z" fill="#FF5B2E"/>
<path d="M54.4999 56C54.8314 56 55.1493 55.8683 55.3838 55.6339C55.6182 55.3995 55.7499 55.0815 55.7499 54.75C55.7499 54.4185 55.6182 54.1005 55.3838 53.8661C55.1493 53.6317 54.8314 53.5 54.4999 53.5C54.4999 53.1685 54.3682 52.8505 54.1338 52.6161C53.8993 52.3817 53.5814 52.25 53.2499 52.25C52.9184 52.25 52.6004 52.3817 52.366 52.6161C52.1316 52.8505 51.9999 53.1685 51.9999 53.5V53.5009C51.8331 53.4983 51.6674 53.529 51.5126 53.5914C51.3579 53.6538 51.2172 53.7465 51.0989 53.8641C50.9805 53.9818 50.8869 54.1219 50.8236 54.2762C50.7602 54.4306 50.7284 54.5961 50.73 54.7629C50.7317 54.9297 50.7667 55.0946 50.833 55.2477C50.8993 55.4008 50.9956 55.539 51.1162 55.6543C51.2368 55.7696 51.3793 55.8596 51.5352 55.919C51.6911 55.9783 51.8574 56.0059 52.0241 56H54.4999Z" fill="white"/>
<path d="M53.2499 50.3748C53.7676 50.3748 54.1874 49.955 54.1874 49.4373C54.1874 48.9195 53.7676 48.4998 53.2499 48.4998C52.7321 48.4998 52.3124 48.9195 52.3124 49.4373C52.3124 49.955 52.7321 50.3748 53.2499 50.3748Z" fill="white"/>
<path d="M49.8123 52.2498C50.33 52.2498 50.7498 51.83 50.7498 51.3123C50.7498 50.7945 50.33 50.3748 49.8123 50.3748C49.2945 50.3748 48.8748 50.7945 48.8748 51.3123C48.8748 51.83 49.2945 52.2498 49.8123 52.2498Z" fill="white"/>
<path d="M56.6873 52.2498C57.205 52.2498 57.6248 51.83 57.6248 51.3123C57.6248 50.7945 57.205 50.3748 56.6873 50.3748C56.1695 50.3748 55.7498 50.7945 55.7498 51.3123C55.7498 51.83 56.1695 52.2498 56.6873 52.2498Z" fill="white"/>
<path d="M53.2498 59.75C51.7664 59.75 50.3164 59.3101 49.083 58.486C47.8496 57.6619 46.8883 56.4906 46.3207 55.1201C45.753 53.7497 45.6045 52.2417 45.8939 50.7868C46.1833 49.332 46.8976 47.9956 47.9465 46.9467C48.9954 45.8978 50.3317 45.1835 51.7866 44.8941C53.2414 44.6047 54.7494 44.7532 56.1199 45.3209C57.4903 45.8886 58.6617 46.8499 59.4858 48.0832C60.3099 49.3166 60.7498 50.7666 60.7498 52.25C60.7475 54.2384 59.9566 56.1448 58.5506 57.5508C57.1446 58.9569 55.2382 59.7478 53.2498 59.75ZM53.2498 46C52.0136 46 50.8053 46.3666 49.7774 47.0533C48.7496 47.7401 47.9486 48.7162 47.4755 49.8582C47.0025 51.0003 46.8787 52.2569 47.1199 53.4693C47.361 54.6817 47.9563 55.7953 48.8303 56.6694C49.7044 57.5435 50.8181 58.1388 52.0304 58.3799C53.2428 58.6211 54.4995 58.4973 55.6415 58.0242C56.7836 57.5512 57.7597 56.7501 58.4464 55.7223C59.1332 54.6945 59.4998 53.4861 59.4998 52.25C59.4979 50.593 58.8388 49.0044 57.6671 47.8327C56.4954 46.661 54.9068 46.0019 53.2498 46Z" fill="#FFCC37"/>
</g>
<defs>
<filter id="filter0_d_359_10393" x="0" y="0" width="84" height="84" filterUnits="userSpaceOnUse" color-interpolation-filters="sRGB">
<feFlood flood-opacity="0" result="BackgroundImageFix"/>
<feColorMatrix in="SourceAlpha" type="matrix" values="0 0 0 0 0 0 0 0 0 0 0 0 0 0 0 0 0 0 127 0" result="hardAlpha"/>
<feOffset dy="1"/>
<feGaussianBlur stdDeviation="2.5"/>
<feComposite in2="hardAlpha" operator="out"/>
<feColorMatrix type="matrix" values="0 0 0 0 0.570833 0 0 0 0 0.570833 0 0 0 0 0.570833 0 0 0 0.06 0"/>
<feBlend mode="normal" in2="BackgroundImageFix" result="effect1_dropShadow_359_10393"/>
<feBlend mode="normal" in="SourceGraphic" in2="effect1_dropShadow_359_10393" result="shape"/>
</filter>
</defs>
</svg>
