<svg width="84" height="84" viewBox="0 0 84 84" fill="none" xmlns="http://www.w3.org/2000/svg">
<g filter="url(#filter0_d_359_10426)">
<rect x="5" y="4" width="74" height="74" rx="37" fill="white" shape-rendering="crispEdges"/>
<path d="M40.1255 41H39.9218C38.8837 41.0042 37.8549 40.8035 36.8945 40.4094C35.9342 40.0153 35.061 39.4355 34.3251 38.7033C33.5891 37.9712 33.0049 37.101 32.6059 36.1426C32.2069 35.1842 32.001 34.1565 31.9999 33.1184V30.375C31.9999 29.3608 32.3288 28.3739 32.9374 27.5625C31.9369 26.5621 31.3749 25.2052 31.3749 23.7903V22.875H40.7499C42.739 22.875 44.6467 23.6652 46.0532 25.0717C47.4597 26.4782 48.2499 28.3859 48.2499 30.375V32.8756C48.2499 35.0303 47.3939 37.0968 45.8703 38.6204C44.3467 40.144 42.2802 41 40.1255 41Z" fill="#2F2D53"/>
<path d="M40.1249 44.125C33.5664 44.125 28.2499 48.6822 28.2499 54.3034V59.75H51.9999V54.3034C51.9999 48.6822 46.6833 44.125 40.1249 44.125Z" fill="#FF7C58"/>
<path d="M28.2499 56H51.9999V59.75H28.2499V56Z" fill="#F7B991"/>
<path d="M40.1248 44.125C37.0418 44.0893 34.0482 45.16 31.6873 47.1428V59.75H48.5623V47.1428C46.2013 45.16 43.2077 44.0893 40.1248 44.125Z" fill="#FF5B2E"/>
<path d="M35.5938 46.9375V49.2812H36.5312V46.9375C36.5312 45.9844 36.9099 45.0703 37.5838 44.3963C38.2578 43.7224 39.1719 43.3437 40.125 43.3437C41.0781 43.3437 41.9922 43.7224 42.6662 44.3963C43.3401 45.0703 43.7188 45.9844 43.7188 46.9375V53.9687H44.6562V46.9375C44.6562 45.7357 44.1789 44.5832 43.3291 43.7334C42.4793 42.8836 41.3268 42.4062 40.125 42.4062C38.9232 42.4062 37.7707 42.8836 36.9209 43.7334C36.0711 44.5832 35.5938 45.7357 35.5938 46.9375Z" fill="#4258B1"/>
<path d="M32.7814 52.0937V56.3125H33.7189V52.0937C33.7189 51.4721 33.9658 50.876 34.4053 50.4365C34.8449 49.9969 35.441 49.75 36.0626 49.75C36.6842 49.75 37.2804 49.9969 37.7199 50.4365C38.1594 50.876 38.4064 51.4721 38.4064 52.0937V56.3125H39.3439V52.0937C39.3439 51.2235 38.9982 50.3889 38.3828 49.7736C37.7675 49.1582 36.9329 48.8125 36.0626 48.8125C35.1924 48.8125 34.3578 49.1582 33.7424 49.7736C33.1271 50.3889 32.7814 51.2235 32.7814 52.0937Z" fill="#4258B1"/>
<path d="M32.7814 53.5H33.7189V56H32.7814V53.5ZM38.4064 53.5H39.3439V56H38.4064V53.5Z" fill="#E6E6E6"/>
<path d="M44.1871 55.6875C45.0501 55.6875 45.7496 54.9879 45.7496 54.125C45.7496 53.2621 45.0501 52.5625 44.1871 52.5625C43.3242 52.5625 42.6246 53.2621 42.6246 54.125C42.6246 54.9879 43.3242 55.6875 44.1871 55.6875Z" fill="#464646"/>
<path d="M38.8748 57.25C39.3925 57.25 39.8123 56.8303 39.8123 56.3125C39.8123 55.7947 39.3925 55.375 38.8748 55.375C38.357 55.375 37.9373 55.7947 37.9373 56.3125C37.9373 56.8303 38.357 57.25 38.8748 57.25Z" fill="#464646"/>
<path d="M38.875 56.7813C39.1339 56.7813 39.3437 56.5714 39.3437 56.3125C39.3437 56.0536 39.1339 55.8438 38.875 55.8438C38.6161 55.8438 38.4062 56.0536 38.4062 56.3125C38.4062 56.5714 38.6161 56.7813 38.875 56.7813Z" fill="#E6E6E6"/>
<path d="M33.2499 57.25C33.7676 57.25 34.1874 56.8303 34.1874 56.3125C34.1874 55.7947 33.7676 55.375 33.2499 55.375C32.7321 55.375 32.3124 55.7947 32.3124 56.3125C32.3124 56.8303 32.7321 57.25 33.2499 57.25Z" fill="#464646"/>
<path d="M33.2501 56.7813C33.509 56.7813 33.7189 56.5714 33.7189 56.3125C33.7189 56.0536 33.509 55.8438 33.2501 55.8438C32.9912 55.8438 32.7814 56.0536 32.7814 56.3125C32.7814 56.5714 32.9912 56.7813 33.2501 56.7813Z" fill="#E6E6E6"/>
<path d="M44.1875 55.2187C44.7916 55.2187 45.2812 54.7291 45.2812 54.125C45.2812 53.5209 44.7916 53.0312 44.1875 53.0312C43.5834 53.0312 43.0938 53.5209 43.0938 54.125C43.0938 54.7291 43.5834 55.2187 44.1875 55.2187Z" fill="#E6E6E6"/>
<path d="M40.1248 49.75L37.6248 44.4375V42.25H42.6248V44.4375L40.1248 49.75Z" fill="#F7B991"/>
<path d="M38.3605 46L40.1252 49.75L41.8898 46H38.3605Z" fill="white"/>
<path d="M46.2189 37.6406H47.1564C47.6532 37.6391 48.1292 37.4411 48.4806 37.0898C48.8319 36.7385 49.0299 36.2624 49.0314 35.7656C49.0299 35.2688 48.8319 34.7927 48.4806 34.4414C48.1292 34.0901 47.6532 33.8921 47.1564 33.8906H46.2189C45.722 33.8921 45.246 34.0901 44.8947 34.4414C44.5434 34.7927 44.3454 35.2688 44.3439 35.7656C44.3454 36.2624 44.5434 36.7385 44.8947 37.0898C45.246 37.4411 45.722 37.6391 46.2189 37.6406ZM34.0314 37.6406H33.0939C32.597 37.6391 32.121 37.4411 31.7697 37.0898C31.4184 36.7385 31.2204 36.2624 31.2189 35.7656C31.2204 35.2688 31.4184 34.7927 31.7697 34.4414C32.121 34.0901 32.597 33.8921 33.0939 33.8906H34.0314C34.5282 33.8921 35.0042 34.0901 35.3556 34.4414C35.7069 34.7927 35.9049 35.2688 35.9064 35.7656C35.9049 36.2624 35.7069 36.7385 35.3556 37.0898C35.0042 37.4411 34.5282 37.6391 34.0314 37.6406Z" fill="#F7B991"/>
<path d="M40.1248 43.5C38.303 43.4946 36.5575 42.7686 35.2693 41.4804C33.9812 40.1923 33.2551 38.4467 33.2498 36.625V33.5C33.2498 29.7031 38.2498 29.75 40.1248 26.625C41.9465 26.6304 43.692 27.3564 44.9802 28.6446C46.2683 29.9327 46.9944 31.6783 46.9998 33.5V36.625C46.9944 38.4467 46.2683 40.1923 44.9802 41.4804C43.692 42.7686 41.9465 43.4946 40.1248 43.5Z" fill="#FDCBA8"/>
<path d="M47.3123 31.625H45.4373C43.4481 31.625 41.5405 30.8348 40.134 29.4283C38.7274 28.0218 37.9373 26.1141 37.9373 24.125H39.8123C41.8014 24.125 43.709 24.9152 45.1156 26.3217C46.5221 27.7282 47.3123 29.6359 47.3123 31.625Z" fill="#2F2D53"/>
<path d="M41.9998 39.75C41.9998 40.2473 41.8022 40.7242 41.4506 41.0758C41.099 41.4275 40.622 41.625 40.1248 41.625C39.6275 41.625 39.1506 41.4275 38.7989 41.0758C38.4473 40.7242 38.2498 40.2473 38.2498 39.75H41.9998Z" fill="#E62626"/>
<path d="M40.1248 38.5C39.959 38.5 39.8 38.4342 39.6828 38.3169C39.5656 38.1997 39.4998 38.0408 39.4998 37.875V36.625C39.4998 36.4592 39.5656 36.3003 39.6828 36.1831C39.8 36.0658 39.959 36 40.1248 36C40.2905 36 40.4495 36.0658 40.5667 36.1831C40.6839 36.3003 40.7498 36.4592 40.7498 36.625V37.875C40.7498 38.0408 40.6839 38.1997 40.5667 38.3169C40.4495 38.4342 40.2905 38.5 40.1248 38.5Z" fill="#F7B991"/>
<path d="M36.375 35.6876C36.8928 35.6876 37.3125 35.2679 37.3125 34.7501C37.3125 34.2324 36.8928 33.8126 36.375 33.8126C35.8572 33.8126 35.4375 34.2324 35.4375 34.7501C35.4375 35.2679 35.8572 35.6876 36.375 35.6876Z" fill="#673821"/>
<path d="M43.8749 35.6876C44.3926 35.6876 44.8124 35.2679 44.8124 34.7501C44.8124 34.2324 44.3926 33.8126 43.8749 33.8126C43.3571 33.8126 42.9374 34.2324 42.9374 34.7501C42.9374 35.2679 43.3571 35.6876 43.8749 35.6876Z" fill="#673821"/>
<path d="M45.4647 33.0919C45.0073 32.745 44.449 32.5573 43.875 32.5573C43.3009 32.5573 42.7427 32.745 42.2853 33.0919C42.2182 33.1504 42.1329 33.1839 42.044 33.1869C41.955 33.1898 41.8677 33.162 41.7969 33.1082C41.7684 33.068 41.7487 33.0223 41.739 32.974C41.7293 32.9258 41.7298 32.876 41.7405 32.8279C41.7512 32.7799 41.7719 32.7346 41.8012 32.695C41.8305 32.6554 41.8678 32.6225 41.9106 32.5982C42.4758 32.1695 43.1656 31.9375 43.875 31.9375C44.5843 31.9375 45.2742 32.1695 45.8394 32.5982C45.8822 32.6225 45.9195 32.6554 45.9488 32.695C45.9781 32.7346 45.9988 32.7799 46.0095 32.8279C46.0202 32.876 46.0207 32.9258 46.011 32.974C46.0013 33.0223 45.9816 33.068 45.9531 33.1082C45.8822 33.162 45.795 33.1898 45.706 33.1869C45.617 33.1839 45.5318 33.1504 45.4647 33.0919ZM37.9647 33.0919C37.5073 32.745 36.949 32.5573 36.375 32.5573C35.8009 32.5573 35.2427 32.745 34.7853 33.0919C34.7182 33.1504 34.6329 33.1839 34.544 33.1869C34.455 33.1898 34.3677 33.162 34.2969 33.1082C34.2684 33.068 34.2487 33.0223 34.239 32.974C34.2293 32.9258 34.2298 32.876 34.2405 32.8279C34.2512 32.7799 34.2719 32.7346 34.3012 32.695C34.3305 32.6554 34.3678 32.6225 34.4106 32.5982C34.9758 32.1695 35.6656 31.9375 36.375 31.9375C37.0843 31.9375 37.7742 32.1695 38.3394 32.5982C38.3822 32.6225 38.4195 32.6554 38.4488 32.695C38.4781 32.7346 38.4988 32.7799 38.5095 32.8279C38.5202 32.876 38.5207 32.9258 38.511 32.974C38.5013 33.0223 38.4816 33.068 38.4531 33.1082C38.3822 33.162 38.295 33.1898 38.206 33.1869C38.117 33.1839 38.0318 33.1504 37.9647 33.0919Z" fill="#673821"/>
<path d="M55.6976 47.0938L54.7083 50.0625L55.3676 52.3716C55.8545 51.9994 56.307 48.3122 55.6976 47.0938Z" fill="#FA5B5B"/>
<path d="M50.75 55.375C48.42 55.375 46.5312 57.7022 46.5312 59.75H54.9687C54.9687 57.7022 53.08 55.375 50.75 55.375Z" fill="#FFD65F"/>
<path d="M50.7501 55.375C49.3795 55.375 48.1654 56.1825 47.3948 57.2625C48.4093 57.8679 49.5687 58.1875 50.7501 58.1875C51.9315 58.1875 53.0909 57.8679 54.1054 57.2625C53.3348 56.1825 52.1207 55.375 50.7501 55.375Z" fill="#FAA023"/>
<path d="M45.8023 47.0938L46.7916 50.0625L46.1323 52.3716C45.6454 51.9994 45.1929 48.3122 45.8023 47.0938Z" fill="#FA5B5B"/>
<path d="M54.7081 50.0625L55.6974 47.0938C55.0265 47.0978 53.9996 47.9094 53.2812 48.7791C52.4982 48.376 51.6303 48.1657 50.7496 48.1657C49.869 48.1657 49.0011 48.376 48.2181 48.7791C47.4996 47.9094 46.4728 47.0978 45.8018 47.0938L46.7912 50.0625C46.1318 51.0522 45.4718 53.1234 44.8121 53.9687C44.8121 53.9687 46.7912 57.4062 50.7496 57.4062C54.7081 57.4062 56.6871 53.9687 56.6871 53.9687C56.0274 53.1234 55.3678 51.0522 54.7081 50.0625Z" fill="#FFCC37"/>
<path d="M50.1251 55.2197C50.1251 55.5647 50.7501 55.8447 50.7501 55.8447C50.7501 55.8447 51.3751 55.5647 51.3751 55.2197C51.3751 54.8747 51.0954 54.9072 50.7501 54.9072C50.4048 54.9072 50.1251 54.8744 50.1251 55.2197Z" fill="#FA5B5B"/>
<path d="M52.9376 54.125C53.2828 54.125 53.5626 53.8452 53.5626 53.5C53.5626 53.1548 53.2828 52.875 52.9376 52.875C52.5924 52.875 52.3126 53.1548 52.3126 53.5C52.3126 53.8452 52.5924 54.125 52.9376 54.125Z" fill="#673821"/>
<path d="M48.5626 54.125C48.9078 54.125 49.1876 53.8452 49.1876 53.5C49.1876 53.1548 48.9078 52.875 48.5626 52.875C48.2174 52.875 47.9376 53.1548 47.9376 53.5C47.9376 53.8452 48.2174 54.125 48.5626 54.125Z" fill="#673821"/>
</g>
<defs>
<filter id="filter0_d_359_10426" x="0" y="0" width="84" height="84" filterUnits="userSpaceOnUse" color-interpolation-filters="sRGB">
<feFlood flood-opacity="0" result="BackgroundImageFix"/>
<feColorMatrix in="SourceAlpha" type="matrix" values="0 0 0 0 0 0 0 0 0 0 0 0 0 0 0 0 0 0 127 0" result="hardAlpha"/>
<feOffset dy="1"/>
<feGaussianBlur stdDeviation="2.5"/>
<feComposite in2="hardAlpha" operator="out"/>
<feColorMatrix type="matrix" values="0 0 0 0 0.570833 0 0 0 0 0.570833 0 0 0 0 0.570833 0 0 0 0.06 0"/>
<feBlend mode="normal" in2="BackgroundImageFix" result="effect1_dropShadow_359_10426"/>
<feBlend mode="normal" in="SourceGraphic" in2="effect1_dropShadow_359_10426" result="shape"/>
</filter>
</defs>
</svg>
