<svg width="106" height="106" viewBox="0 0 106 106" fill="none" xmlns="http://www.w3.org/2000/svg">
<g filter="url(#filter0_d_243_3907)">
<rect x="2" y="2" width="100" height="100" rx="24.8793" fill="#eefbf4" shape-rendering="crispEdges"/>
<path d="M49.1884 52H48.8828C47.3257 52.0063 45.7826 51.7052 44.342 51.1141C42.9014 50.5229 41.5916 49.6533 40.4878 48.555C39.3839 47.4568 38.5076 46.1514 37.9091 44.7139C37.3106 43.2763 37.0017 41.7348 37 40.1777V36.0625C37 34.5411 37.4934 33.0608 38.4062 31.8438C36.9056 30.3431 36.0625 28.3077 36.0625 26.1855V24.8125H50.125C53.1087 24.8125 55.9702 25.9978 58.08 28.1075C60.1897 30.2173 61.375 33.0788 61.375 36.0625V39.8134C61.375 43.0455 60.0911 46.1452 57.8056 48.4306C55.5202 50.7161 52.4205 52 49.1884 52Z" fill="#2F2D53"/>
<path d="M49.188 56.6875C39.3503 56.6875 31.3755 63.5233 31.3755 71.9552V80.125H67.0005V71.9552C67.0005 63.5233 59.0256 56.6875 49.188 56.6875Z" fill="#FF7C58"/>
<path d="M31.3755 74.5H67.0005V80.125H31.3755V74.5Z" fill="#F7B991"/>
<path d="M49.188 56.6876C44.5636 56.634 40.0732 58.2401 36.5317 61.2143V80.1251H61.8442V61.2143C58.3028 58.2401 53.8124 56.634 49.188 56.6876Z" fill="#FF5B2E"/>
<path d="M42.3911 60.9062V64.4219H43.7974V60.9062C43.7974 59.4766 44.3653 58.1054 45.3762 57.0945C46.3872 56.0836 47.7583 55.5156 49.188 55.5156C50.6177 55.5156 51.9888 56.0836 52.9997 57.0945C54.0107 58.1054 54.5786 59.4766 54.5786 60.9062V71.4531H55.9849V60.9062C55.9849 59.1036 55.2688 57.3748 53.9941 56.1001C52.7194 54.8255 50.9906 54.1094 49.188 54.1094C47.3853 54.1094 45.6565 54.8255 44.3819 56.1001C43.1072 57.3748 42.3911 59.1036 42.3911 60.9062Z" fill="#4258B1"/>
<path d="M38.1724 68.6406V74.9688H39.5786V68.6406C39.5786 67.7082 39.949 66.814 40.6083 66.1547C41.2676 65.4954 42.1618 65.125 43.0942 65.125C44.0266 65.125 44.9209 65.4954 45.5802 66.1547C46.2395 66.814 46.6099 67.7082 46.6099 68.6406V74.9688H48.0161V68.6406C48.0161 67.3353 47.4976 66.0834 46.5745 65.1603C45.6515 64.2373 44.3996 63.7188 43.0942 63.7188C41.7889 63.7188 40.537 64.2373 39.6139 65.1603C38.6909 66.0834 38.1724 67.3353 38.1724 68.6406Z" fill="#4258B1"/>
<path d="M38.1724 70.75H39.5786V74.5H38.1724V70.75ZM46.6099 70.75H48.0161V74.5H46.6099V70.75Z" fill="#E6E6E6"/>
<path d="M55.2812 74.0312C56.5757 74.0312 57.625 72.9819 57.625 71.6875C57.625 70.3931 56.5757 69.3438 55.2812 69.3438C53.9868 69.3438 52.9375 70.3931 52.9375 71.6875C52.9375 72.9819 53.9868 74.0312 55.2812 74.0312Z" fill="#464646"/>
<path d="M47.3125 76.375C48.0891 76.375 48.7187 75.7454 48.7187 74.9687C48.7187 74.1921 48.0891 73.5625 47.3125 73.5625C46.5358 73.5625 45.9062 74.1921 45.9062 74.9687C45.9062 75.7454 46.5358 76.375 47.3125 76.375Z" fill="#464646"/>
<path d="M47.313 75.6719C47.7013 75.6719 48.0161 75.3571 48.0161 74.9687C48.0161 74.5804 47.7013 74.2656 47.313 74.2656C46.9247 74.2656 46.6099 74.5804 46.6099 74.9687C46.6099 75.3571 46.9247 75.6719 47.313 75.6719Z" fill="#E6E6E6"/>
<path d="M38.875 76.375C39.6516 76.375 40.2812 75.7454 40.2812 74.9687C40.2812 74.1921 39.6516 73.5625 38.875 73.5625C38.0983 73.5625 37.4688 74.1921 37.4688 74.9687C37.4688 75.7454 38.0983 76.375 38.875 76.375Z" fill="#464646"/>
<path d="M38.8755 75.6719C39.2638 75.6719 39.5786 75.3571 39.5786 74.9687C39.5786 74.5804 39.2638 74.2656 38.8755 74.2656C38.4872 74.2656 38.1724 74.5804 38.1724 74.9687C38.1724 75.3571 38.4872 75.6719 38.8755 75.6719Z" fill="#E6E6E6"/>
<path d="M55.2817 73.3281C56.1878 73.3281 56.9224 72.5936 56.9224 71.6875C56.9224 70.7814 56.1878 70.0469 55.2817 70.0469C54.3756 70.0469 53.6411 70.7814 53.6411 71.6875C53.6411 72.5936 54.3756 73.3281 55.2817 73.3281Z" fill="#E6E6E6"/>
<path d="M49.188 65.125L45.438 57.1563V53.875H52.938V57.1563L49.188 65.125Z" fill="#F7B991"/>
<path d="M46.5415 59.5L49.1885 65.125L51.8356 59.5H46.5415Z" fill="white"/>
<path d="M58.3291 46.9609H59.7354C60.4806 46.9587 61.1947 46.6617 61.7216 46.1347C62.2486 45.6078 62.5456 44.8937 62.5479 44.1484C62.5456 43.4032 62.2486 42.6891 61.7216 42.1622C61.1947 41.6352 60.4806 41.3382 59.7354 41.3359H58.3291C57.5839 41.3382 56.8698 41.6352 56.3428 42.1622C55.8159 42.6891 55.5188 43.4032 55.5166 44.1484C55.5188 44.8937 55.8159 45.6078 56.3428 46.1347C56.8698 46.6617 57.5839 46.9587 58.3291 46.9609ZM40.0479 46.9609H38.6416C37.8964 46.9587 37.1823 46.6617 36.6553 46.1347C36.1284 45.6078 35.8313 44.8937 35.8291 44.1484C35.8313 43.4032 36.1284 42.6891 36.6553 42.1622C37.1823 41.6352 37.8964 41.3382 38.6416 41.3359H40.0479C40.7931 41.3382 41.5072 41.6352 42.0341 42.1622C42.5611 42.6891 42.8581 43.4032 42.8604 44.1484C42.8581 44.8937 42.5611 45.6078 42.0341 46.1347C41.5072 46.6617 40.7931 46.9587 40.0479 46.9609Z" fill="#F7B991"/>
<path d="M49.1875 55.75C46.4549 55.742 43.8366 54.6529 41.9043 52.7207C39.9721 50.7884 38.883 48.1701 38.875 45.4375V40.75C38.875 35.0547 46.375 35.125 49.1875 30.4375C51.9201 30.4455 54.5384 31.5346 56.4707 33.4668C58.4029 35.3991 59.492 38.0174 59.5 40.75V45.4375C59.492 48.1701 58.4029 50.7884 56.4707 52.7207C54.5384 54.6529 51.9201 55.742 49.1875 55.75Z" fill="#FDCBA8"/>
<path d="M59.9688 37.9375H57.1563C54.1726 37.9375 51.3111 36.7522 49.2013 34.6425C47.0915 32.5327 45.9062 29.6712 45.9062 26.6875H48.7188C51.7024 26.6875 54.5639 27.8728 56.6737 29.9825C58.7835 32.0923 59.9688 34.9538 59.9688 37.9375Z" fill="#2F2D53"/>
<path d="M51.9995 50.125C51.9995 50.8709 51.7032 51.5863 51.1757 52.1137C50.6483 52.6412 49.9329 52.9375 49.187 52.9375C48.4411 52.9375 47.7257 52.6412 47.1983 52.1137C46.6708 51.5863 46.3745 50.8709 46.3745 50.125H51.9995Z" fill="#E62626"/>
<path d="M49.188 48.25C48.9393 48.25 48.7009 48.1512 48.5251 47.9754C48.3493 47.7996 48.2505 47.5611 48.2505 47.3125V45.4375C48.2505 45.1889 48.3493 44.9504 48.5251 44.7746C48.7009 44.5988 48.9393 44.5 49.188 44.5C49.4366 44.5 49.6751 44.5988 49.8509 44.7746C50.0267 44.9504 50.1255 45.1889 50.1255 45.4375V47.3125C50.1255 47.5611 50.0267 47.7996 49.8509 47.9754C49.6751 48.1512 49.4366 48.25 49.188 48.25Z" fill="#F7B991"/>
<path d="M43.563 44.0313C44.3396 44.0313 44.9692 43.4017 44.9692 42.625C44.9692 41.8483 44.3396 41.2188 43.563 41.2188C42.7863 41.2188 42.1567 41.8483 42.1567 42.625C42.1567 43.4017 42.7863 44.0313 43.563 44.0313Z" fill="#673821"/>
<path d="M54.813 44.0313C55.5896 44.0313 56.2192 43.4017 56.2192 42.625C56.2192 41.8483 55.5896 41.2188 54.813 41.2188C54.0363 41.2188 53.4067 41.8483 53.4067 42.625C53.4067 43.4017 54.0363 44.0313 54.813 44.0313Z" fill="#673821"/>
<path d="M57.1976 40.1379C56.5115 39.6176 55.6741 39.3359 54.813 39.3359C53.952 39.3359 53.1146 39.6176 52.4285 40.1379C52.3278 40.2256 52.1999 40.2758 52.0665 40.2803C51.9331 40.2847 51.8022 40.2431 51.6958 40.1623C51.6531 40.102 51.6236 40.0335 51.609 39.961C51.5944 39.8886 51.5952 39.814 51.6113 39.7419C51.6274 39.6698 51.6584 39.6019 51.7023 39.5425C51.7463 39.4832 51.8022 39.4337 51.8665 39.3973C52.7142 38.7543 53.749 38.4062 54.813 38.4062C55.877 38.4062 56.9118 38.7543 57.7596 39.3973C57.8239 39.4337 57.8798 39.4832 57.9237 39.5425C57.9677 39.6019 57.9987 39.6698 58.0148 39.7419C58.0308 39.814 58.0316 39.8886 58.0171 39.961C58.0025 40.0335 57.9729 40.102 57.9302 40.1623C57.8239 40.2431 57.693 40.2847 57.5596 40.2803C57.4261 40.2758 57.2983 40.2256 57.1976 40.1379ZM45.9476 40.1379C45.2615 39.6176 44.4241 39.3359 43.563 39.3359C42.702 39.3359 41.8645 39.6176 41.1785 40.1379C41.0778 40.2256 40.9499 40.2758 40.8165 40.2803C40.6831 40.2847 40.5522 40.2431 40.4458 40.1623C40.4031 40.102 40.3736 40.0335 40.359 39.961C40.3444 39.8886 40.3452 39.814 40.3613 39.7419C40.3774 39.6698 40.4084 39.6019 40.4523 39.5425C40.4963 39.4832 40.5522 39.4337 40.6165 39.3973C41.4642 38.7543 42.499 38.4062 43.563 38.4062C44.627 38.4062 45.6618 38.7543 46.5096 39.3973C46.5739 39.4337 46.6298 39.4832 46.6737 39.5425C46.7177 39.6019 46.7487 39.6698 46.7648 39.7419C46.7808 39.814 46.7816 39.8886 46.7671 39.961C46.7525 40.0335 46.7229 40.102 46.6802 40.1623C46.5739 40.2431 46.443 40.2847 46.3096 40.2803C46.1761 40.2758 46.0483 40.2256 45.9476 40.1379Z" fill="#673821"/>
<path d="M72.5471 61.1406L71.063 65.5937L72.0521 69.0573C72.7824 68.4991 73.4611 62.9683 72.5471 61.1406Z" fill="#FA5B5B"/>
<path d="M65.1255 73.5625C61.6305 73.5625 58.7974 77.0533 58.7974 80.125H71.4536C71.4536 77.0533 68.6205 73.5625 65.1255 73.5625Z" fill="#FFD65F"/>
<path d="M65.1253 73.5625C63.0693 73.5625 61.2482 74.7737 60.0923 76.3937C61.614 77.3018 63.3531 77.7813 65.1253 77.7813C66.8974 77.7813 68.6365 77.3018 70.1582 76.3937C69.0023 74.7737 67.1812 73.5625 65.1253 73.5625Z" fill="#FAA023"/>
<path d="M57.7038 61.1406L59.1878 65.5937L58.1988 69.0573C57.4685 68.4991 56.7897 62.9683 57.7038 61.1406Z" fill="#FA5B5B"/>
<path d="M71.0622 65.5938L72.5462 61.1406C71.5398 61.1467 69.9995 62.3641 68.9219 63.6686C67.7474 63.0639 66.4455 62.7485 65.1245 62.7485C63.8035 62.7485 62.5016 63.0639 61.3272 63.6686C60.2495 62.3641 58.7092 61.1467 57.7028 61.1406L59.1869 65.5938C58.1978 67.0783 57.2078 70.1852 56.2183 71.4531C56.2183 71.4531 59.1869 76.6094 65.1245 76.6094C71.0622 76.6094 74.0308 71.4531 74.0308 71.4531C73.0412 70.1852 72.0517 67.0783 71.0622 65.5938Z" fill="#FFCC37"/>
<path d="M64.1885 73.3296C64.1885 73.8471 65.126 74.2671 65.126 74.2671C65.126 74.2671 66.0635 73.8471 66.0635 73.3296C66.0635 72.8121 65.6439 72.8609 65.126 72.8609C64.608 72.8609 64.1885 72.8117 64.1885 73.3296Z" fill="#FA5B5B"/>
<path d="M68.4067 71.6875C68.9245 71.6875 69.3442 71.2678 69.3442 70.75C69.3442 70.2322 68.9245 69.8125 68.4067 69.8125C67.889 69.8125 67.4692 70.2322 67.4692 70.75C67.4692 71.2678 67.889 71.6875 68.4067 71.6875Z" fill="#673821"/>
<path d="M61.8447 71.6875C62.3625 71.6875 62.7822 71.2678 62.7822 70.75C62.7822 70.2322 62.3625 69.8125 61.8447 69.8125C61.327 69.8125 60.9072 70.2322 60.9072 70.75C60.9072 71.2678 61.327 71.6875 61.8447 71.6875Z" fill="#673821"/>
</g>
<defs>
<filter id="filter0_d_243_3907" x="0.756034" y="0.756034" width="104.976" height="104.976" filterUnits="userSpaceOnUse" color-interpolation-filters="sRGB">
<feFlood flood-opacity="0" result="BackgroundImageFix"/>
<feColorMatrix in="SourceAlpha" type="matrix" values="0 0 0 0 0 0 0 0 0 0 0 0 0 0 0 0 0 0 127 0" result="hardAlpha"/>
<feOffset dx="1.24397" dy="1.24397"/>
<feGaussianBlur stdDeviation="1.24397"/>
<feComposite in2="hardAlpha" operator="out"/>
<feColorMatrix type="matrix" values="0 0 0 0 0.570833 0 0 0 0 0.570833 0 0 0 0 0.570833 0 0 0 0.08 0"/>
<feBlend mode="normal" in2="BackgroundImageFix" result="effect1_dropShadow_243_3907"/>
<feBlend mode="normal" in="SourceGraphic" in2="effect1_dropShadow_243_3907" result="shape"/>
</filter>
</defs>
</svg>
