<svg width="106" height="106" viewBox="0 0 106 106" fill="none" xmlns="http://www.w3.org/2000/svg">
<g filter="url(#filter0_d_243_3793)">
<rect x="2" y="2" width="100" height="100" rx="24.8793" fill="#eefbf4" shape-rendering="crispEdges"/>
<g clip-path="url(#clip0_243_3793)">
<path d="M79.707 70.9172L26.0772 73.0081L25.4453 80.882L27.8611 82H78.8745C79.0953 82 79.307 81.9123 79.4631 81.7561C79.6192 81.6 79.707 81.3883 79.707 81.1675V70.9172Z" fill="#C82B00"/>
<path d="M24.293 78.3058V81.1675C24.293 81.3883 24.3807 81.6 24.5368 81.7561C24.693 81.9123 24.9047 82 25.1255 82H27.8609V77.1165L24.293 78.3058Z" fill="#FF5B2E"/>
<path d="M79.707 33.9747L51.9987 31.5962L25.7359 32.1724L25.4453 76.4587L27.8611 78.3058H72.3186L74.8234 73.4223L79.707 70.9173V33.9747Z" fill="#FF5B2E"/>
<path d="M24.293 33.9747V78.3058H27.8609V31.5962L24.293 33.9747Z" fill="#FF9173"/>
<path d="M72.3184 78.3057V71.7497C72.3184 71.529 72.4061 71.3172 72.5622 71.1611C72.7183 71.005 72.9301 70.9173 73.1509 70.9172H79.7068L72.3184 78.3057Z" fill="#F7DF99"/>
<path d="M73.2076 48.3765C73.3088 42.569 68.3165 37.9268 62.5103 37.7704C57.7591 37.6426 53.6675 40.5274 51.9999 44.6519C50.3323 40.5275 46.2407 37.6427 41.4896 37.7706C35.6834 37.9268 30.6887 42.5692 30.7921 48.3765C31.0762 64.3271 48.9347 73.1137 51.6543 74.3599C51.7627 74.4097 51.8806 74.4354 51.9999 74.4354C52.1192 74.4354 52.2371 74.4097 52.3455 74.3599C55.0656 73.1138 72.9299 64.3272 73.2076 48.3765Z" fill="#FFCC37"/>
<path d="M34.36 48.3762C34.2655 43.071 38.4256 38.7381 43.5721 37.9094C42.8838 37.7978 42.1866 37.7512 41.4896 37.7703C35.6834 37.9265 30.6887 42.5689 30.7921 48.3762C31.0762 64.3268 48.9347 73.1134 51.6543 74.3596C51.763 74.4094 51.8812 74.4351 52.0007 74.435C52.1203 74.4349 52.2384 74.409 52.347 74.359C52.6519 74.2193 53.1462 73.9853 53.7842 73.6574C48.7217 71.0548 34.6122 62.5398 34.36 48.3762Z" fill="#FFBF00"/>
<path d="M79.7067 33.9747H24.293V27.4188C24.293 27.198 24.3807 26.9863 24.5368 26.8302C24.693 26.6741 24.9047 26.5863 25.1255 26.5863H30.7895L31.7073 25.397L32.5734 26.5863H41.8722L42.7529 25.397L43.6561 26.5863H52.9549L53.7986 25.397L54.7389 26.5863H64.0376L64.9185 25.397L65.8215 26.5863H75.1202L75.9641 25.397L76.9042 26.5863H78.874C79.0948 26.5863 79.3065 26.6741 79.4626 26.8302C79.6187 26.9863 79.7065 27.198 79.7065 27.4188V33.9747H79.7067Z" fill="#CF2D00"/>
<path d="M24.293 27.4187V33.9746H27.8609V26.5862H25.1255C24.9047 26.5862 24.6929 26.6739 24.5368 26.83C24.3807 26.9861 24.293 27.1979 24.293 27.4187Z" fill="#D44441"/>
<path d="M48.6765 52.2777C49.9931 51.9254 50.6312 50.0356 50.1017 48.0568C49.5722 46.0779 48.0756 44.7593 46.759 45.1116C45.4423 45.4639 44.8042 47.3537 45.3337 49.3326C45.8632 51.3114 47.3598 52.63 48.6765 52.2777Z" fill="#FFF8EB"/>
<path d="M58.681 49.3388C59.2116 47.3602 58.5745 45.4701 57.258 45.1171C55.9415 44.7641 54.4443 46.0819 53.9137 48.0605C53.3832 50.0391 54.0203 51.9292 55.3368 52.2822C56.6532 52.6352 58.1505 51.3174 58.681 49.3388Z" fill="#FFF8EB"/>
<path d="M43.2876 55.8984C44.1693 55.3894 44.2638 53.9024 43.4987 52.5772C42.7336 51.252 41.3986 50.5904 40.5169 51.0995C39.6352 51.6086 39.5406 53.0955 40.3057 54.4207C41.0708 55.7459 42.4058 56.4075 43.2876 55.8984Z" fill="#FFF8EB"/>
<path d="M63.6926 54.4225C64.4577 53.0973 64.3631 51.6104 63.4814 51.1013C62.5997 50.5923 61.2647 51.2539 60.4996 52.5791C59.7345 53.9042 59.829 55.3912 60.7108 55.9003C61.5925 56.4093 62.9275 55.7477 63.6926 54.4225Z" fill="#FFF8EB"/>
<path d="M46.0722 65.9612C47.2786 65.9178 48.3674 65.5016 49.2292 64.7617C50.9073 63.5315 53.0936 63.5317 54.7716 64.7622C55.6332 65.502 56.7217 65.9178 57.9279 65.9612C61.1959 65.9612 61.5989 62.2204 60.6563 60.2711C59.7994 58.7009 58.6026 57.3881 57.1727 56.4499L57.172 56.4495C53.9859 54.359 50.0139 54.359 46.8278 56.4495C45.3974 57.388 44.2004 58.7012 43.3434 60.272C42.3834 62.1374 42.8293 65.9612 46.0722 65.9612Z" fill="#FFF8EB"/>
<path d="M47.7057 49.336C47.2798 47.7464 47.6074 46.2142 48.4354 45.4901C47.8997 45.1159 47.3091 44.9651 46.7509 45.1146C45.4344 45.4673 44.797 47.3573 45.3272 49.336C45.8573 51.3147 47.3544 52.6329 48.6709 52.2801C48.9298 52.2108 49.1624 52.082 49.365 51.9047C48.6373 51.3963 48.0111 50.4758 47.7057 49.336ZM56.2835 48.0586C56.5889 46.9188 57.215 45.9983 57.9428 45.4899C57.7402 45.3126 57.5075 45.1838 57.2487 45.1145C55.9322 44.7617 54.4351 46.0799 53.905 48.0585C53.3748 50.0372 54.0122 51.9272 55.3287 52.2799C55.8868 52.4294 56.4775 52.2786 57.0131 51.9044C56.1852 51.1804 55.8575 49.6482 56.2835 48.0586ZM42.685 54.4215C42.0503 53.322 42.0071 52.1114 42.5143 51.44C41.8431 50.9306 41.0861 50.772 40.5175 51.1003C39.6357 51.6094 39.5413 53.0962 40.3064 54.4215C41.0715 55.7467 42.4065 56.4083 43.2882 55.8992C43.4371 55.8128 43.5669 55.6973 43.67 55.5595C43.3003 55.279 42.9567 54.8921 42.685 54.4215ZM62.8788 52.578C63.1506 52.1074 63.4942 51.7206 63.8638 51.44C63.7607 51.3022 63.6309 51.1867 63.4821 51.1003C62.6004 50.5912 61.2654 51.2529 60.5003 52.578C59.7352 53.9032 59.8297 55.3902 60.7114 55.8992C61.28 56.2275 62.0371 56.0689 62.7083 55.5595C62.201 54.8881 62.244 53.6775 62.8788 52.578ZM45.7219 60.272C46.5789 58.7012 47.7758 57.388 49.2063 56.4494C50.4458 55.6361 51.8043 55.1394 53.1891 54.9588C51.0142 54.6753 48.7743 55.1722 46.8277 56.4494C45.3973 57.388 44.2002 58.7012 43.3432 60.272C42.3832 62.1374 42.8291 65.9611 46.0721 65.9611C46.4909 65.9469 46.9067 65.8845 47.3112 65.7751C45.1147 64.9872 44.8884 61.8915 45.7219 60.272Z" fill="#FEF0CB"/>
<path d="M74.1652 29.3886C73.6386 29.3886 73.2101 28.9601 73.2101 28.4334V24.7391C73.2101 24.2124 73.6386 23.7839 74.1653 23.7839C74.692 23.7839 75.1204 24.2124 75.1204 24.7391V26.5863H76.9044V24.7391C76.9044 23.2288 75.6755 22 74.1652 22C72.6549 22 71.4262 23.2288 71.4262 24.7391V28.4335C71.4262 29.9438 72.6549 31.1726 74.1652 31.1726C74.6579 31.1726 75.0573 30.7734 75.0573 30.2806C75.0573 29.7878 74.6579 29.3886 74.1652 29.3886ZM63.0826 29.3886C62.5558 29.3886 62.1274 28.9601 62.1274 28.4334V24.7391C62.1274 24.2124 62.5558 23.7839 63.0826 23.7839C63.6093 23.7839 64.0378 24.2124 64.0378 24.7391V26.5863H65.8217V24.7391C65.8216 23.2288 64.5929 22 63.0826 22C61.5723 22 60.3434 23.2288 60.3434 24.7391V28.4335C60.3434 29.9438 61.5723 31.1726 63.0826 31.1726C63.5752 31.1726 63.9746 30.7734 63.9746 30.2806C63.9746 29.7878 63.5752 29.3886 63.0826 29.3886ZM51.9998 29.3886C51.4731 29.3886 51.0446 28.9601 51.0446 28.4334V24.7391C51.0446 24.2124 51.4731 23.7839 51.9998 23.7839C52.5265 23.7839 52.955 24.2124 52.955 24.7391V26.5863H54.7389V24.7391C54.7389 23.2288 53.5101 22 51.9998 22C50.4894 22 49.2606 23.2288 49.2606 24.7391V28.4335C49.2606 29.9438 50.4894 31.1726 51.9998 31.1726C52.4924 31.1726 52.8918 30.7734 52.8918 30.2806C52.8918 29.7878 52.4924 29.3886 51.9998 29.3886ZM40.917 29.3886C40.3904 29.3886 39.9619 28.9601 39.9619 28.4334V24.7391C39.9619 24.2124 40.3905 23.7839 40.9171 23.7839C41.4438 23.7839 41.8722 24.2124 41.8722 24.7391V26.5863H43.6562V24.7391C43.6562 23.2288 42.4273 22 40.917 22C39.4067 22 38.178 23.2288 38.178 24.7391V28.4335C38.178 29.9438 39.4067 31.1726 40.917 31.1726C41.4097 31.1726 41.809 30.7734 41.809 30.2806C41.809 29.7878 41.4097 29.3886 40.917 29.3886ZM29.8342 29.3886C29.3076 29.3886 28.879 28.9601 28.879 28.4334V24.7391C28.879 24.2124 29.3076 23.7839 29.8342 23.7839C30.3609 23.7839 30.7894 24.2124 30.7894 24.7391V26.5863H32.5734V24.7391C32.5734 23.2288 31.3447 22 29.8342 22C28.3238 22 27.0952 23.2288 27.0952 24.7391V28.4335C27.0952 29.9438 28.3239 31.1726 29.8344 31.1726C29.9515 31.1726 30.0675 31.1495 30.1757 31.1047C30.2839 31.0599 30.3823 30.9941 30.4651 30.9113C30.5479 30.8285 30.6136 30.7301 30.6584 30.6219C30.7033 30.5137 30.7263 30.3977 30.7263 30.2805C30.7263 30.1634 30.7032 30.0474 30.6584 29.9392C30.6136 29.8309 30.5479 29.7326 30.465 29.6498C30.3822 29.567 30.2838 29.5013 30.1756 29.4564C30.0674 29.4116 29.9514 29.3885 29.8342 29.3886Z" fill="white"/>
</g>
</g>
<defs>
<filter id="filter0_d_243_3793" x="0.756034" y="0.756034" width="104.976" height="104.976" filterUnits="userSpaceOnUse" color-interpolation-filters="sRGB">
<feFlood flood-opacity="0" result="BackgroundImageFix"/>
<feColorMatrix in="SourceAlpha" type="matrix" values="0 0 0 0 0 0 0 0 0 0 0 0 0 0 0 0 0 0 127 0" result="hardAlpha"/>
<feOffset dx="1.24397" dy="1.24397"/>
<feGaussianBlur stdDeviation="1.24397"/>
<feComposite in2="hardAlpha" operator="out"/>
<feColorMatrix type="matrix" values="0 0 0 0 0.570833 0 0 0 0 0.570833 0 0 0 0 0.570833 0 0 0 0.08 0"/>
<feBlend mode="normal" in2="BackgroundImageFix" result="effect1_dropShadow_243_3793"/>
<feBlend mode="normal" in="SourceGraphic" in2="effect1_dropShadow_243_3793" result="shape"/>
</filter>
<clipPath id="clip0_243_3793">
<rect width="60" height="60" fill="white" transform="translate(22 22)"/>
</clipPath>
</defs>
</svg>
