<svg width="106" height="106" viewBox="0 0 106 106" fill="none" xmlns="http://www.w3.org/2000/svg">
<g filter="url(#filter0_d_243_3925)">
<rect x="2" y="2" width="100" height="100" rx="24.8793" fill="#eefbf4" shape-rendering="crispEdges"/>
<g clip-path="url(#clip0_243_3925)">
<path d="M22 63.9985V70.62C22 71.9697 22.5362 73.2642 23.4906 74.2186C24.445 75.1731 25.7395 75.7092 27.0893 75.7092H28.6696C28.6696 73.7201 29.4598 71.8125 30.8663 70.4059C32.2729 68.9994 34.1805 68.2092 36.1696 68.2092C38.1588 68.2092 40.0664 68.9994 41.4729 70.4059C42.8795 71.8125 43.6696 73.7201 43.6696 75.7092H51.8661V63.9985H22Z" fill="#FF5B2E"/>
<path d="M76.9109 57.1871H73.1341L66.6707 43.2987C66.1558 42.1919 65.3354 41.2553 64.3061 40.599C63.2769 39.9427 62.0815 39.5941 60.8609 39.5942H51.8662V75.7094H60.7055C60.7055 73.7203 61.4957 71.8126 62.9022 70.4061C64.3087 68.9996 66.2164 68.2094 68.2055 68.2094C70.1946 68.2094 72.1023 68.9996 73.5088 70.4061C74.9153 71.8126 75.7055 73.7203 75.7055 75.7094C76.4621 75.8517 77.2405 75.8279 77.987 75.6396C78.7334 75.4514 79.4301 75.1032 80.0287 74.6192C80.6274 74.1352 81.1137 73.5269 81.4541 72.8364C81.7945 72.1459 81.9808 71.3897 82.0001 70.6201V62.2683C81.998 60.92 81.4609 59.6276 80.5067 58.6749C79.5525 57.7222 78.2592 57.1871 76.9109 57.1871Z" fill="#FF6B43"/>
<path d="M36.1695 71.2466C35.0073 71.2751 33.9024 71.7568 33.0905 72.5888C32.2787 73.4208 31.8242 74.5372 31.8242 75.6997C31.8242 76.8622 32.2787 77.9786 33.0905 78.8106C33.9024 79.6426 35.0073 80.1243 36.1695 80.1528C37.3316 80.1243 38.4365 79.6426 39.2484 78.8106C40.0603 77.9786 40.5147 76.8622 40.5147 75.6997C40.5147 74.5372 40.0603 73.4208 39.2484 72.5888C38.4365 71.7568 37.3316 71.2751 36.1695 71.2466ZM68.1945 71.2466C67.0323 71.2751 65.9274 71.7568 65.1155 72.5888C64.3037 73.4208 63.8492 74.5372 63.8492 75.6997C63.8492 76.8622 64.3037 77.9786 65.1155 78.8106C65.9274 79.6426 67.0323 80.1243 68.1945 80.1528C69.3566 80.1243 70.4615 79.6426 71.2734 78.8106C72.0853 77.9786 72.5397 76.8622 72.5397 75.6997C72.5397 74.5372 72.0853 73.4208 71.2734 72.5888C70.4615 71.7568 69.3566 71.2751 68.1945 71.2466Z" fill="#7A8E9B"/>
<path d="M36.1694 70.0845C34.6776 70.0845 33.2468 70.6771 32.192 71.732C31.1371 72.7869 30.5444 74.2176 30.5444 75.7095C30.5444 77.2013 31.1371 78.6321 32.192 79.6869C33.2468 80.7418 34.6776 81.3345 36.1694 81.3345C37.6613 81.3345 39.092 80.7418 40.1469 79.6869C41.2018 78.6321 41.7944 77.2013 41.7944 75.7095C41.7944 74.2176 41.2018 72.7869 40.1469 71.732C39.092 70.6771 37.6613 70.0845 36.1694 70.0845ZM36.1694 78.9907C35.2992 78.9907 34.4646 78.645 33.8492 78.0297C33.2339 77.4143 32.8882 76.5797 32.8882 75.7095C32.8882 74.8392 33.2339 74.0046 33.8492 73.3893C34.4646 72.7739 35.2992 72.4282 36.1694 72.4282C37.0105 72.4699 37.8034 72.8333 38.384 73.4434C38.9646 74.0534 39.2884 74.8633 39.2884 75.7055C39.2884 76.5476 38.9646 77.3575 38.384 77.9675C37.8034 78.5776 37.0105 78.941 36.1694 78.9827V78.9907ZM68.1944 70.0845C66.7026 70.0845 65.2718 70.6771 64.217 71.732C63.1621 72.7869 62.5694 74.2176 62.5694 75.7095C62.5694 77.2013 63.1621 78.6321 64.217 79.6869C65.2718 80.7418 66.7026 81.3345 68.1944 81.3345C69.6863 81.3345 71.117 80.7418 72.1719 79.6869C73.2268 78.6321 73.8194 77.2013 73.8194 75.7095C73.8194 74.2176 73.2268 72.7869 72.1719 71.732C71.117 70.6771 69.6863 70.0845 68.1944 70.0845ZM68.1944 78.9907C67.3242 78.9907 66.4896 78.645 65.8742 78.0297C65.2589 77.4143 64.9132 76.5797 64.9132 75.7095C64.9132 74.8392 65.2589 74.0046 65.8742 73.3893C66.4896 72.7739 67.3242 72.4282 68.1944 72.4282C69.0355 72.4699 69.8284 72.8333 70.409 73.4434C70.9896 74.0534 71.3133 74.8633 71.3133 75.7055C71.3133 76.5476 70.9896 77.3575 70.409 77.9675C69.8284 78.5776 69.0355 78.941 68.1944 78.9827V78.9907Z" fill="#525C6B"/>
<path d="M57.3364 60.8916H62.1391V62.7666H57.3364V60.8916Z" fill="#2BA0BF"/>
<path d="M27.3411 39.6049C26.6525 39.5708 25.9642 39.6769 25.318 39.9168C24.6717 40.1568 24.0809 40.5255 23.5814 41.0007C23.082 41.4759 22.6842 42.0475 22.4124 42.6811C22.1405 43.3146 22.0002 43.9967 22 44.6861V63.9986H51.8661V39.6049H27.3411Z" fill="#E6E7E8"/>
<path d="M73.1346 57.1872H57.3364V44.6113H67.2766L73.1346 57.1872Z" fill="#E2E2E2"/>
<path d="M53.51 39.6048H42.5814L43.9984 34.4057C44.5127 32.5066 46.3261 32.1718 48.043 32.3164C49.7573 32.1745 51.5814 32.5013 52.0877 34.4057L53.51 39.6048ZM47.1055 22.6736H48.9805V27.9718H47.1055V22.6736ZM57.5332 25.1914L53.6546 28.8022L54.9323 30.1736L58.8082 26.5629L57.5332 25.1914ZM37.2886 26.5575L38.5663 25.1861L42.4448 28.8022L41.1671 30.1736L37.2886 26.5575Z" fill="#FFD65F"/>
<path d="M44.6631 51.8003C44.6631 53.7894 43.8729 55.6971 42.4664 57.1036C41.0599 58.5101 39.1522 59.3003 37.1631 59.3003C35.174 59.3003 33.2663 58.5101 31.8598 57.1036C30.4533 55.6971 29.6631 53.7894 29.6631 51.8003C29.6631 49.8112 30.4533 47.9035 31.8598 46.497C33.2663 45.0905 35.174 44.3003 37.1631 44.3003C39.1522 44.3003 41.0599 45.0905 42.4664 46.497C43.8729 47.9035 44.6631 49.8112 44.6631 51.8003Z" fill="white"/>
<path d="M41.3823 50.5363H38.4279V47.5845H35.8966V50.5363H32.9448V53.0675H35.8966V56.022H38.4279V53.0675H41.3823V50.5363Z" fill="#FF5B2E"/>
<path d="M79.5521 63.6558C77.5619 63.712 76.9137 65.4209 77.1012 67.1674C77.1019 67.8169 77.3604 68.4396 77.82 68.8987C78.2795 69.3577 78.9025 69.6156 79.5521 69.6156H82.0003V63.6558H79.5521Z" fill="#FFBD66"/>
</g>
</g>
<defs>
<filter id="filter0_d_243_3925" x="0.756034" y="0.756034" width="104.976" height="104.976" filterUnits="userSpaceOnUse" color-interpolation-filters="sRGB">
<feFlood flood-opacity="0" result="BackgroundImageFix"/>
<feColorMatrix in="SourceAlpha" type="matrix" values="0 0 0 0 0 0 0 0 0 0 0 0 0 0 0 0 0 0 127 0" result="hardAlpha"/>
<feOffset dx="1.24397" dy="1.24397"/>
<feGaussianBlur stdDeviation="1.24397"/>
<feComposite in2="hardAlpha" operator="out"/>
<feColorMatrix type="matrix" values="0 0 0 0 0.570833 0 0 0 0 0.570833 0 0 0 0 0.570833 0 0 0 0.08 0"/>
<feBlend mode="normal" in2="BackgroundImageFix" result="effect1_dropShadow_243_3925"/>
<feBlend mode="normal" in="SourceGraphic" in2="effect1_dropShadow_243_3925" result="shape"/>
</filter>
<clipPath id="clip0_243_3925">
<rect width="60" height="60" fill="white" transform="translate(22 22)"/>
</clipPath>
</defs>
</svg>
