<svg width="24" height="24" viewBox="0 0 24 24" fill="none" xmlns="http://www.w3.org/2000/svg">
<path fill-rule="evenodd" clip-rule="evenodd" d="M15.663 3.77311C13.8903 2.98323 11.9097 2.78754 10.0167 3.21522C8.12366 3.64289 6.41959 4.67103 5.15861 6.14629C3.89763 7.62155 3.14731 9.4649 3.01953 11.4014C2.89176 13.3379 3.39338 15.2639 4.44959 16.8921C5.5058 18.5202 7.06001 19.7633 8.88044 20.436C10.7009 21.1087 12.69 21.1749 14.5511 20.6248C16.4122 20.0747 18.0457 18.9377 19.2079 17.3835C20.3701 15.8292 20.9987 13.9408 21 12.0001V11.0801C21 10.8149 21.1054 10.5605 21.2929 10.373C21.4804 10.1855 21.7348 10.0801 22 10.0801C22.2652 10.0801 22.5196 10.1855 22.7071 10.373C22.8946 10.5605 23 10.8149 23 11.0801V12.0001C22.9987 13.7723 22.5692 15.518 21.7482 17.0886C20.9272 18.6592 19.739 20.0082 18.2846 21.0209C16.8301 22.0336 15.1526 22.6799 13.3947 22.9049C11.6368 23.1298 9.85058 22.9268 8.188 22.3131C6.8045 21.8021 5.53788 21.0182 4.46346 20.0078C3.38904 18.9975 2.52877 17.7814 1.9338 16.4319C1.33884 15.0824 1.02133 13.627 1.00016 12.1523C0.978986 10.6776 1.25458 9.2137 1.81056 7.84766C2.36654 6.48163 3.19155 5.24134 4.23652 4.20057C5.28149 3.1598 6.52509 2.33979 7.89335 1.78931C9.26162 1.23884 10.7266 0.969135 12.2012 0.996243C13.6758 1.02335 15.1299 1.34672 16.477 1.94711C16.597 2.00056 16.7052 2.07711 16.7956 2.1724C16.886 2.26769 16.9567 2.37984 17.0037 2.50246C17.0508 2.62508 17.0732 2.75576 17.0697 2.88705C17.0662 3.01833 17.037 3.14765 16.9835 3.26761C16.9301 3.38757 16.8535 3.49583 16.7582 3.58621C16.6629 3.67659 16.5508 3.74731 16.4282 3.79435C16.3055 3.84138 16.1749 3.8638 16.0436 3.86033C15.9123 3.85686 15.783 3.82656 15.663 3.77311Z" fill="#FF5B2E"/>
<path fill-rule="evenodd" clip-rule="evenodd" d="M22.707 3.29327C22.8944 3.4808 22.9997 3.73511 22.9997 4.00027C22.9997 4.26544 22.8944 4.51975 22.707 4.70727L12.707 14.7173C12.5194 14.9047 12.2651 15.0101 12 15.0101C11.7348 15.0101 11.4805 14.9047 11.293 14.7173L8.29296 11.7173C8.19745 11.625 8.12127 11.5147 8.06886 11.3927C8.01645 11.2707 7.98886 11.1395 7.98771 11.0067C7.98655 10.8739 8.01186 10.7422 8.06214 10.6193C8.11242 10.4964 8.18667 10.3848 8.28056 10.2909C8.37446 10.197 8.48611 10.1227 8.60901 10.0725C8.7319 10.0222 8.86358 9.99687 8.99636 9.99802C9.12914 9.99918 9.26036 10.0268 9.38236 10.0792C9.50437 10.1316 9.61471 10.2078 9.70696 10.3033L12 12.5953L21.293 3.29327C21.4805 3.1058 21.7348 3.00049 22 3.00049C22.2651 3.00049 22.5194 3.1058 22.707 3.29327Z" fill="#FF5B2E"/>
</svg>
