<svg width="197" height="197" viewBox="0 0 197 197" fill="none" xmlns="http://www.w3.org/2000/svg">
<g opacity="0.8">
<path d="M189.965 45.8158C190.511 46.7608 191.042 47.7149 191.559 48.6781C190.62 48.0642 189.993 47.0141 189.965 45.8158Z" fill="#FFD65F"/>
<path d="M170.703 21.529C172.343 23.0673 173.933 24.6574 175.471 26.2967C174.876 27.3961 173.713 28.1429 172.375 28.1429C170.432 28.1429 168.857 26.5679 168.857 24.625C168.857 23.2872 169.604 22.1238 170.703 21.529Z" fill="#FFD65F"/>
<path d="M148.322 5.44131C149.285 5.95803 150.239 6.48927 151.184 7.03473C149.986 7.00677 148.936 6.37963 148.322 5.44131Z" fill="#FFD65F"/>
<path d="M45.8158 7.03473C46.7608 6.48927 47.7149 5.95803 48.6781 5.44131C48.0642 6.37963 47.0141 7.00677 45.8158 7.03473Z" fill="#FFD65F"/>
<path d="M21.529 26.2967C23.0673 24.6574 24.6574 23.0673 26.2967 21.529C27.3961 22.1238 28.1429 23.2872 28.1429 24.625C28.1429 26.5679 26.5679 28.1429 24.625 28.1429C23.2872 28.1429 22.1238 27.3961 21.529 26.2967Z" fill="#FFD65F"/>
<path d="M5.44131 48.6781C5.95803 47.7149 6.48927 46.7608 7.03473 45.8158C7.00677 47.0141 6.37963 48.0642 5.44131 48.6781Z" fill="#FFD65F"/>
<path d="M191.559 148.322C191.042 149.285 190.511 150.239 189.965 151.184C189.993 149.986 190.62 148.936 191.559 148.322Z" fill="#FFD65F"/>
<path d="M175.471 170.703C174.876 169.604 173.713 168.857 172.375 168.857C170.432 168.857 168.857 170.432 168.857 172.375C168.857 173.713 169.604 174.876 170.703 175.471C172.343 173.933 173.933 172.343 175.471 170.703Z" fill="#FFD65F"/>
<path d="M151.184 189.965C149.986 189.993 148.936 190.62 148.322 191.559C149.285 191.042 150.239 190.511 151.184 189.965Z" fill="#FFD65F"/>
<path d="M48.6781 191.559C48.0642 190.62 47.0141 189.993 45.8158 189.965C46.7608 190.511 47.7149 191.042 48.6781 191.559Z" fill="#FFD65F"/>
<path d="M26.2967 175.471C27.3961 174.876 28.1429 173.713 28.1429 172.375C28.1429 170.432 26.5679 168.857 24.625 168.857C23.2872 168.857 22.1238 169.604 21.529 170.703C23.0673 172.343 24.6574 173.933 26.2967 175.471Z" fill="#FFD65F"/>
<path d="M7.03473 151.184C7.00677 149.986 6.37963 148.936 5.44131 148.322C5.95803 149.285 6.48927 150.239 7.03473 151.184Z" fill="#FFD65F"/>
<path d="M70.3571 3.51786C70.3571 5.46072 68.7821 7.03571 66.8393 7.03571C64.8964 7.03571 63.3214 5.46072 63.3214 3.51786C63.3214 1.575 64.8964 0 66.8393 0C68.7821 0 70.3571 1.575 70.3571 3.51786Z" fill="#FFD65F"/>
<path d="M91.4643 3.51786C91.4643 5.46072 89.8893 7.03571 87.9464 7.03571C86.0036 7.03571 84.4286 5.46072 84.4286 3.51786C84.4286 1.575 86.0036 0 87.9464 0C89.8893 0 91.4643 1.575 91.4643 3.51786Z" fill="#FFD65F"/>
<path d="M112.571 3.51786C112.571 5.46072 110.996 7.03571 109.054 7.03571C107.111 7.03571 105.536 5.46072 105.536 3.51786C105.536 1.575 107.111 0 109.054 0C110.996 0 112.571 1.575 112.571 3.51786Z" fill="#FFD65F"/>
<path d="M133.679 3.51786C133.679 5.46072 132.104 7.03571 130.161 7.03571C128.218 7.03571 126.643 5.46072 126.643 3.51786C126.643 1.575 128.218 0 130.161 0C132.104 0 133.679 1.575 133.679 3.51786Z" fill="#FFD65F"/>
<path d="M49.25 24.625C49.25 26.5679 47.675 28.1429 45.7321 28.1429C43.7893 28.1429 42.2143 26.5679 42.2143 24.625C42.2143 22.6821 43.7893 21.1071 45.7321 21.1071C47.675 21.1071 49.25 22.6821 49.25 24.625Z" fill="#FFD65F"/>
<path d="M70.3571 24.625C70.3571 26.5679 68.7821 28.1429 66.8393 28.1429C64.8964 28.1429 63.3214 26.5679 63.3214 24.625C63.3214 22.6821 64.8964 21.1071 66.8393 21.1071C68.7821 21.1071 70.3571 22.6821 70.3571 24.625Z" fill="#FFD65F"/>
<path d="M91.4643 24.625C91.4643 26.5679 89.8893 28.1429 87.9464 28.1429C86.0036 28.1429 84.4286 26.5679 84.4286 24.625C84.4286 22.6821 86.0036 21.1071 87.9464 21.1071C89.8893 21.1071 91.4643 22.6821 91.4643 24.625Z" fill="#FFD65F"/>
<path d="M112.571 24.625C112.571 26.5679 110.996 28.1429 109.054 28.1429C107.111 28.1429 105.536 26.5679 105.536 24.625C105.536 22.6821 107.111 21.1071 109.054 21.1071C110.996 21.1071 112.571 22.6821 112.571 24.625Z" fill="#FFD65F"/>
<path d="M133.679 24.625C133.679 26.5679 132.104 28.1429 130.161 28.1429C128.218 28.1429 126.643 26.5679 126.643 24.625C126.643 22.6821 128.218 21.1071 130.161 21.1071C132.104 21.1071 133.679 22.6821 133.679 24.625Z" fill="#FFD65F"/>
<path d="M154.786 24.625C154.786 26.5679 153.211 28.1429 151.268 28.1429C149.325 28.1429 147.75 26.5679 147.75 24.625C147.75 22.6821 149.325 21.1071 151.268 21.1071C153.211 21.1071 154.786 22.6821 154.786 24.625Z" fill="#FFD65F"/>
<path d="M28.1429 45.7321C28.1429 47.675 26.5679 49.25 24.625 49.25C22.6821 49.25 21.1071 47.675 21.1071 45.7321C21.1071 43.7893 22.6821 42.2143 24.625 42.2143C26.5679 42.2143 28.1429 43.7893 28.1429 45.7321Z" fill="#FFD65F"/>
<path d="M49.25 45.7321C49.25 47.675 47.675 49.25 45.7321 49.25C43.7893 49.25 42.2143 47.675 42.2143 45.7321C42.2143 43.7893 43.7893 42.2143 45.7321 42.2143C47.675 42.2143 49.25 43.7893 49.25 45.7321Z" fill="#FFD65F"/>
<path d="M70.3571 45.7321C70.3571 47.675 68.7821 49.25 66.8393 49.25C64.8964 49.25 63.3214 47.675 63.3214 45.7321C63.3214 43.7893 64.8964 42.2143 66.8393 42.2143C68.7821 42.2143 70.3571 43.7893 70.3571 45.7321Z" fill="#FFD65F"/>
<path d="M91.4643 45.7321C91.4643 47.675 89.8893 49.25 87.9464 49.25C86.0036 49.25 84.4286 47.675 84.4286 45.7321C84.4286 43.7893 86.0036 42.2143 87.9464 42.2143C89.8893 42.2143 91.4643 43.7893 91.4643 45.7321Z" fill="#FFD65F"/>
<path d="M112.571 45.7321C112.571 47.675 110.996 49.25 109.054 49.25C107.111 49.25 105.536 47.675 105.536 45.7321C105.536 43.7893 107.111 42.2143 109.054 42.2143C110.996 42.2143 112.571 43.7893 112.571 45.7321Z" fill="#FFD65F"/>
<path d="M133.679 45.7321C133.679 47.675 132.104 49.25 130.161 49.25C128.218 49.25 126.643 47.675 126.643 45.7321C126.643 43.7893 128.218 42.2143 130.161 42.2143C132.104 42.2143 133.679 43.7893 133.679 45.7321Z" fill="#FFD65F"/>
<path d="M154.786 45.7321C154.786 47.675 153.211 49.25 151.268 49.25C149.325 49.25 147.75 47.675 147.75 45.7321C147.75 43.7893 149.325 42.2143 151.268 42.2143C153.211 42.2143 154.786 43.7893 154.786 45.7321Z" fill="#FFD65F"/>
<path d="M175.893 45.7321C175.893 47.675 174.318 49.25 172.375 49.25C170.432 49.25 168.857 47.675 168.857 45.7321C168.857 43.7893 170.432 42.2143 172.375 42.2143C174.318 42.2143 175.893 43.7893 175.893 45.7321Z" fill="#FFD65F"/>
<path d="M7.03571 66.8393C7.03571 68.7821 5.46072 70.3571 3.51786 70.3571C1.575 70.3571 0 68.7821 0 66.8393C0 64.8964 1.575 63.3214 3.51786 63.3214C5.46072 63.3214 7.03571 64.8964 7.03571 66.8393Z" fill="#FFD65F"/>
<path d="M28.1429 66.8393C28.1429 68.7821 26.5679 70.3571 24.625 70.3571C22.6821 70.3571 21.1071 68.7821 21.1071 66.8393C21.1071 64.8964 22.6821 63.3214 24.625 63.3214C26.5679 63.3214 28.1429 64.8964 28.1429 66.8393Z" fill="#FFD65F"/>
<path d="M49.25 66.8393C49.25 68.7821 47.675 70.3571 45.7321 70.3571C43.7893 70.3571 42.2143 68.7821 42.2143 66.8393C42.2143 64.8964 43.7893 63.3214 45.7321 63.3214C47.675 63.3214 49.25 64.8964 49.25 66.8393Z" fill="#FFD65F"/>
<path d="M70.3571 66.8393C70.3571 68.7821 68.7821 70.3571 66.8393 70.3571C64.8964 70.3571 63.3214 68.7821 63.3214 66.8393C63.3214 64.8964 64.8964 63.3214 66.8393 63.3214C68.7821 63.3214 70.3571 64.8964 70.3571 66.8393Z" fill="#FFD65F"/>
<path d="M91.4643 66.8393C91.4643 68.7821 89.8893 70.3571 87.9464 70.3571C86.0036 70.3571 84.4286 68.7821 84.4286 66.8393C84.4286 64.8964 86.0036 63.3214 87.9464 63.3214C89.8893 63.3214 91.4643 64.8964 91.4643 66.8393Z" fill="#FFD65F"/>
<path d="M112.571 66.8393C112.571 68.7821 110.996 70.3571 109.054 70.3571C107.111 70.3571 105.536 68.7821 105.536 66.8393C105.536 64.8964 107.111 63.3214 109.054 63.3214C110.996 63.3214 112.571 64.8964 112.571 66.8393Z" fill="#FFD65F"/>
<path d="M133.679 66.8393C133.679 68.7821 132.104 70.3571 130.161 70.3571C128.218 70.3571 126.643 68.7821 126.643 66.8393C126.643 64.8964 128.218 63.3214 130.161 63.3214C132.104 63.3214 133.679 64.8964 133.679 66.8393Z" fill="#FFD65F"/>
<path d="M154.786 66.8393C154.786 68.7821 153.211 70.3571 151.268 70.3571C149.325 70.3571 147.75 68.7821 147.75 66.8393C147.75 64.8964 149.325 63.3214 151.268 63.3214C153.211 63.3214 154.786 64.8964 154.786 66.8393Z" fill="#FFD65F"/>
<path d="M175.893 66.8393C175.893 68.7821 174.318 70.3571 172.375 70.3571C170.432 70.3571 168.857 68.7821 168.857 66.8393C168.857 64.8964 170.432 63.3214 172.375 63.3214C174.318 63.3214 175.893 64.8964 175.893 66.8393Z" fill="#FFD65F"/>
<path d="M197 66.8393C197 68.7821 195.425 70.3571 193.482 70.3571C191.539 70.3571 189.964 68.7821 189.964 66.8393C189.964 64.8964 191.539 63.3214 193.482 63.3214C195.425 63.3214 197 64.8964 197 66.8393Z" fill="#FFD65F"/>
<path d="M7.03571 87.9464C7.03571 89.8893 5.46072 91.4643 3.51786 91.4643C1.575 91.4643 0 89.8893 0 87.9464C0 86.0036 1.575 84.4286 3.51786 84.4286C5.46072 84.4286 7.03571 86.0036 7.03571 87.9464Z" fill="#FFD65F"/>
<path d="M28.1429 87.9464C28.1429 89.8893 26.5679 91.4643 24.625 91.4643C22.6821 91.4643 21.1071 89.8893 21.1071 87.9464C21.1071 86.0036 22.6821 84.4286 24.625 84.4286C26.5679 84.4286 28.1429 86.0036 28.1429 87.9464Z" fill="#FFD65F"/>
<path d="M49.25 87.9464C49.25 89.8893 47.675 91.4643 45.7321 91.4643C43.7893 91.4643 42.2143 89.8893 42.2143 87.9464C42.2143 86.0036 43.7893 84.4286 45.7321 84.4286C47.675 84.4286 49.25 86.0036 49.25 87.9464Z" fill="#FFD65F"/>
<path d="M70.3571 87.9464C70.3571 89.8893 68.7821 91.4643 66.8393 91.4643C64.8964 91.4643 63.3214 89.8893 63.3214 87.9464C63.3214 86.0036 64.8964 84.4286 66.8393 84.4286C68.7821 84.4286 70.3571 86.0036 70.3571 87.9464Z" fill="#FFD65F"/>
<path d="M91.4643 87.9464C91.4643 89.8893 89.8893 91.4643 87.9464 91.4643C86.0036 91.4643 84.4286 89.8893 84.4286 87.9464C84.4286 86.0036 86.0036 84.4286 87.9464 84.4286C89.8893 84.4286 91.4643 86.0036 91.4643 87.9464Z" fill="#FFD65F"/>
<path d="M112.571 87.9464C112.571 89.8893 110.996 91.4643 109.054 91.4643C107.111 91.4643 105.536 89.8893 105.536 87.9464C105.536 86.0036 107.111 84.4286 109.054 84.4286C110.996 84.4286 112.571 86.0036 112.571 87.9464Z" fill="#FFD65F"/>
<path d="M133.679 87.9464C133.679 89.8893 132.104 91.4643 130.161 91.4643C128.218 91.4643 126.643 89.8893 126.643 87.9464C126.643 86.0036 128.218 84.4286 130.161 84.4286C132.104 84.4286 133.679 86.0036 133.679 87.9464Z" fill="#FFD65F"/>
<path d="M154.786 87.9464C154.786 89.8893 153.211 91.4643 151.268 91.4643C149.325 91.4643 147.75 89.8893 147.75 87.9464C147.75 86.0036 149.325 84.4286 151.268 84.4286C153.211 84.4286 154.786 86.0036 154.786 87.9464Z" fill="#FFD65F"/>
<path d="M175.893 87.9464C175.893 89.8893 174.318 91.4643 172.375 91.4643C170.432 91.4643 168.857 89.8893 168.857 87.9464C168.857 86.0036 170.432 84.4286 172.375 84.4286C174.318 84.4286 175.893 86.0036 175.893 87.9464Z" fill="#FFD65F"/>
<path d="M197 87.9464C197 89.8893 195.425 91.4643 193.482 91.4643C191.539 91.4643 189.964 89.8893 189.964 87.9464C189.964 86.0036 191.539 84.4286 193.482 84.4286C195.425 84.4286 197 86.0036 197 87.9464Z" fill="#FFD65F"/>
<path d="M7.03571 109.054C7.03571 110.996 5.46072 112.571 3.51786 112.571C1.575 112.571 0 110.996 0 109.054C0 107.111 1.575 105.536 3.51786 105.536C5.46072 105.536 7.03571 107.111 7.03571 109.054Z" fill="#FFD65F"/>
<path d="M28.1429 109.054C28.1429 110.996 26.5679 112.571 24.625 112.571C22.6821 112.571 21.1071 110.996 21.1071 109.054C21.1071 107.111 22.6821 105.536 24.625 105.536C26.5679 105.536 28.1429 107.111 28.1429 109.054Z" fill="#FFD65F"/>
<path d="M49.25 109.054C49.25 110.996 47.675 112.571 45.7321 112.571C43.7893 112.571 42.2143 110.996 42.2143 109.054C42.2143 107.111 43.7893 105.536 45.7321 105.536C47.675 105.536 49.25 107.111 49.25 109.054Z" fill="#FFD65F"/>
<path d="M70.3571 109.054C70.3571 110.996 68.7821 112.571 66.8393 112.571C64.8964 112.571 63.3214 110.996 63.3214 109.054C63.3214 107.111 64.8964 105.536 66.8393 105.536C68.7821 105.536 70.3571 107.111 70.3571 109.054Z" fill="#FFD65F"/>
<path d="M91.4643 109.054C91.4643 110.996 89.8893 112.571 87.9464 112.571C86.0036 112.571 84.4286 110.996 84.4286 109.054C84.4286 107.111 86.0036 105.536 87.9464 105.536C89.8893 105.536 91.4643 107.111 91.4643 109.054Z" fill="#FFD65F"/>
<path d="M112.571 109.054C112.571 110.996 110.996 112.571 109.054 112.571C107.111 112.571 105.536 110.996 105.536 109.054C105.536 107.111 107.111 105.536 109.054 105.536C110.996 105.536 112.571 107.111 112.571 109.054Z" fill="#FFD65F"/>
<path d="M133.679 109.054C133.679 110.996 132.104 112.571 130.161 112.571C128.218 112.571 126.643 110.996 126.643 109.054C126.643 107.111 128.218 105.536 130.161 105.536C132.104 105.536 133.679 107.111 133.679 109.054Z" fill="#FFD65F"/>
<path d="M154.786 109.054C154.786 110.996 153.211 112.571 151.268 112.571C149.325 112.571 147.75 110.996 147.75 109.054C147.75 107.111 149.325 105.536 151.268 105.536C153.211 105.536 154.786 107.111 154.786 109.054Z" fill="#FFD65F"/>
<path d="M175.893 109.054C175.893 110.996 174.318 112.571 172.375 112.571C170.432 112.571 168.857 110.996 168.857 109.054C168.857 107.111 170.432 105.536 172.375 105.536C174.318 105.536 175.893 107.111 175.893 109.054Z" fill="#FFD65F"/>
<path d="M197 109.054C197 110.996 195.425 112.571 193.482 112.571C191.539 112.571 189.964 110.996 189.964 109.054C189.964 107.111 191.539 105.536 193.482 105.536C195.425 105.536 197 107.111 197 109.054Z" fill="#FFD65F"/>
<path d="M7.03571 130.161C7.03571 132.104 5.46072 133.679 3.51786 133.679C1.575 133.679 0 132.104 0 130.161C0 128.218 1.575 126.643 3.51786 126.643C5.46072 126.643 7.03571 128.218 7.03571 130.161Z" fill="#FFD65F"/>
<path d="M28.1429 130.161C28.1429 132.104 26.5679 133.679 24.625 133.679C22.6821 133.679 21.1071 132.104 21.1071 130.161C21.1071 128.218 22.6821 126.643 24.625 126.643C26.5679 126.643 28.1429 128.218 28.1429 130.161Z" fill="#FFD65F"/>
<path d="M49.25 130.161C49.25 132.104 47.675 133.679 45.7321 133.679C43.7893 133.679 42.2143 132.104 42.2143 130.161C42.2143 128.218 43.7893 126.643 45.7321 126.643C47.675 126.643 49.25 128.218 49.25 130.161Z" fill="#FFD65F"/>
<path d="M70.3571 130.161C70.3571 132.104 68.7821 133.679 66.8393 133.679C64.8964 133.679 63.3214 132.104 63.3214 130.161C63.3214 128.218 64.8964 126.643 66.8393 126.643C68.7821 126.643 70.3571 128.218 70.3571 130.161Z" fill="#FFD65F"/>
<path d="M91.4643 130.161C91.4643 132.104 89.8893 133.679 87.9464 133.679C86.0036 133.679 84.4286 132.104 84.4286 130.161C84.4286 128.218 86.0036 126.643 87.9464 126.643C89.8893 126.643 91.4643 128.218 91.4643 130.161Z" fill="#FFD65F"/>
<path d="M112.571 130.161C112.571 132.104 110.996 133.679 109.054 133.679C107.111 133.679 105.536 132.104 105.536 130.161C105.536 128.218 107.111 126.643 109.054 126.643C110.996 126.643 112.571 128.218 112.571 130.161Z" fill="#FFD65F"/>
<path d="M133.679 130.161C133.679 132.104 132.104 133.679 130.161 133.679C128.218 133.679 126.643 132.104 126.643 130.161C126.643 128.218 128.218 126.643 130.161 126.643C132.104 126.643 133.679 128.218 133.679 130.161Z" fill="#FFD65F"/>
<path d="M154.786 130.161C154.786 132.104 153.211 133.679 151.268 133.679C149.325 133.679 147.75 132.104 147.75 130.161C147.75 128.218 149.325 126.643 151.268 126.643C153.211 126.643 154.786 128.218 154.786 130.161Z" fill="#FFD65F"/>
<path d="M175.893 130.161C175.893 132.104 174.318 133.679 172.375 133.679C170.432 133.679 168.857 132.104 168.857 130.161C168.857 128.218 170.432 126.643 172.375 126.643C174.318 126.643 175.893 128.218 175.893 130.161Z" fill="#FFD65F"/>
<path d="M197 130.161C197 132.104 195.425 133.679 193.482 133.679C191.539 133.679 189.964 132.104 189.964 130.161C189.964 128.218 191.539 126.643 193.482 126.643C195.425 126.643 197 128.218 197 130.161Z" fill="#FFD65F"/>
<path d="M28.1429 151.268C28.1429 153.211 26.5679 154.786 24.625 154.786C22.6821 154.786 21.1071 153.211 21.1071 151.268C21.1071 149.325 22.6821 147.75 24.625 147.75C26.5679 147.75 28.1429 149.325 28.1429 151.268Z" fill="#FFD65F"/>
<path d="M49.25 151.268C49.25 153.211 47.675 154.786 45.7321 154.786C43.7893 154.786 42.2143 153.211 42.2143 151.268C42.2143 149.325 43.7893 147.75 45.7321 147.75C47.675 147.75 49.25 149.325 49.25 151.268Z" fill="#FFD65F"/>
<path d="M70.3571 151.268C70.3571 153.211 68.7821 154.786 66.8393 154.786C64.8964 154.786 63.3214 153.211 63.3214 151.268C63.3214 149.325 64.8964 147.75 66.8393 147.75C68.7821 147.75 70.3571 149.325 70.3571 151.268Z" fill="#FFD65F"/>
<path d="M91.4643 151.268C91.4643 153.211 89.8893 154.786 87.9464 154.786C86.0036 154.786 84.4286 153.211 84.4286 151.268C84.4286 149.325 86.0036 147.75 87.9464 147.75C89.8893 147.75 91.4643 149.325 91.4643 151.268Z" fill="#FFD65F"/>
<path d="M112.571 151.268C112.571 153.211 110.996 154.786 109.054 154.786C107.111 154.786 105.536 153.211 105.536 151.268C105.536 149.325 107.111 147.75 109.054 147.75C110.996 147.75 112.571 149.325 112.571 151.268Z" fill="#FFD65F"/>
<path d="M133.679 151.268C133.679 153.211 132.104 154.786 130.161 154.786C128.218 154.786 126.643 153.211 126.643 151.268C126.643 149.325 128.218 147.75 130.161 147.75C132.104 147.75 133.679 149.325 133.679 151.268Z" fill="#FFD65F"/>
<path d="M154.786 151.268C154.786 153.211 153.211 154.786 151.268 154.786C149.325 154.786 147.75 153.211 147.75 151.268C147.75 149.325 149.325 147.75 151.268 147.75C153.211 147.75 154.786 149.325 154.786 151.268Z" fill="#FFD65F"/>
<path d="M175.893 151.268C175.893 153.211 174.318 154.786 172.375 154.786C170.432 154.786 168.857 153.211 168.857 151.268C168.857 149.325 170.432 147.75 172.375 147.75C174.318 147.75 175.893 149.325 175.893 151.268Z" fill="#FFD65F"/>
<path d="M49.25 172.375C49.25 174.318 47.675 175.893 45.7321 175.893C43.7893 175.893 42.2143 174.318 42.2143 172.375C42.2143 170.432 43.7893 168.857 45.7321 168.857C47.675 168.857 49.25 170.432 49.25 172.375Z" fill="#FFD65F"/>
<path d="M70.3571 172.375C70.3571 174.318 68.7821 175.893 66.8393 175.893C64.8964 175.893 63.3214 174.318 63.3214 172.375C63.3214 170.432 64.8964 168.857 66.8393 168.857C68.7821 168.857 70.3571 170.432 70.3571 172.375Z" fill="#FFD65F"/>
<path d="M91.4643 172.375C91.4643 174.318 89.8893 175.893 87.9464 175.893C86.0036 175.893 84.4286 174.318 84.4286 172.375C84.4286 170.432 86.0036 168.857 87.9464 168.857C89.8893 168.857 91.4643 170.432 91.4643 172.375Z" fill="#FFD65F"/>
<path d="M112.571 172.375C112.571 174.318 110.996 175.893 109.054 175.893C107.111 175.893 105.536 174.318 105.536 172.375C105.536 170.432 107.111 168.857 109.054 168.857C110.996 168.857 112.571 170.432 112.571 172.375Z" fill="#FFD65F"/>
<path d="M133.679 172.375C133.679 174.318 132.104 175.893 130.161 175.893C128.218 175.893 126.643 174.318 126.643 172.375C126.643 170.432 128.218 168.857 130.161 168.857C132.104 168.857 133.679 170.432 133.679 172.375Z" fill="#FFD65F"/>
<path d="M154.786 172.375C154.786 174.318 153.211 175.893 151.268 175.893C149.325 175.893 147.75 174.318 147.75 172.375C147.75 170.432 149.325 168.857 151.268 168.857C153.211 168.857 154.786 170.432 154.786 172.375Z" fill="#FFD65F"/>
<path d="M70.3571 193.482C70.3571 195.425 68.7821 197 66.8393 197C64.8964 197 63.3214 195.425 63.3214 193.482C63.3214 191.539 64.8964 189.964 66.8393 189.964C68.7821 189.964 70.3571 191.539 70.3571 193.482Z" fill="#FFD65F"/>
<path d="M91.4643 193.482C91.4643 195.425 89.8893 197 87.9464 197C86.0036 197 84.4286 195.425 84.4286 193.482C84.4286 191.539 86.0036 189.964 87.9464 189.964C89.8893 189.964 91.4643 191.539 91.4643 193.482Z" fill="#FFD65F"/>
<path d="M112.571 193.482C112.571 195.425 110.996 197 109.054 197C107.111 197 105.536 195.425 105.536 193.482C105.536 191.539 107.111 189.964 109.054 189.964C110.996 189.964 112.571 191.539 112.571 193.482Z" fill="#FFD65F"/>
<path d="M133.679 193.482C133.679 195.425 132.104 197 130.161 197C128.218 197 126.643 195.425 126.643 193.482C126.643 191.539 128.218 189.964 130.161 189.964C132.104 189.964 133.679 191.539 133.679 193.482Z" fill="#FFD65F"/>
</g>
</svg>
