<?xml version="1.0"?>
<svg width="1400" height="463" xmlns="http://www.w3.org/2000/svg" xmlns:svg="http://www.w3.org/2000/svg">
 <defs>
  <clipPath id="clip0_1_43">
   <rect fill="white" height="64" id="svg_1" transform="translate(80.1855 353) rotate(40.055)" width="64"/>
  </clipPath>
  <clipPath id="clip1_1_43">
   <rect fill="white" height="64" id="svg_2" transform="translate(1196.74 316) rotate(58.8002)" width="64"/>
  </clipPath>
  <clipPath id="clip2_1_43">
   <rect fill="white" height="64" id="svg_3" transform="translate(725.743 316) rotate(58.8002)" width="64"/>
  </clipPath>
  <clipPath id="clip3_1_43">
   <rect fill="white" height="64" id="svg_4" transform="translate(1123.74) rotate(58.8002)" width="64"/>
  </clipPath>
  <clipPath id="clip4_1_43">
   <rect fill="white" height="64" id="svg_5" transform="translate(204.564 213) rotate(15)" width="64"/>
  </clipPath>
  <clipPath id="clip5_1_43">
   <rect fill="white" height="64" id="svg_6" transform="translate(1317.19 229.943) rotate(33.7451)" width="64"/>
  </clipPath>
  <clipPath id="clip6_1_43">
   <rect fill="white" height="50.66" id="svg_7" transform="translate(1040.12 289) rotate(65.5581)" width="50.66"/>
  </clipPath>
  <clipPath id="clip7_1_43">
   <rect fill="white" height="50.66" id="svg_8" transform="translate(569.12 289) rotate(65.5581)" width="50.66"/>
  </clipPath>
  <clipPath id="clip8_1_43">
   <rect fill="white" height="81.02" id="svg_9" transform="translate(18.7803 224.377) rotate(-31.958)" width="81.02"/>
  </clipPath>
  <clipPath id="clip9_1_43">
   <rect fill="white" height="81.02" id="svg_10" transform="translate(1137.61 181.014) rotate(-13.2128)" width="81.02"/>
  </clipPath>
  <clipPath id="clip10_1_43">
   <rect fill="white" height="64.13" id="svg_11" transform="translate(862.746 152.084) rotate(18.6002)" width="64.13"/>
  </clipPath>
  <clipPath id="clip11_1_43">
   <rect fill="white" height="64.13" id="svg_12" transform="translate(391.746 152.084) rotate(18.6002)" width="64.13"/>
  </clipPath>
  <clipPath id="clip12_1_43">
   <rect fill="white" height="62.44" id="svg_13" transform="translate(217 395.498) rotate(-62.7294)" width="62.44"/>
  </clipPath>
  <clipPath id="clip13_1_43">
   <rect fill="white" height="62.44" id="svg_14" transform="translate(1270.32 406.757) rotate(-43.9843)" width="62.44"/>
  </clipPath>
  <clipPath id="clip14_1_43">
   <rect fill="white" height="81.02" id="svg_15" transform="translate(175.129 81) rotate(68.0224)" width="81.02"/>
  </clipPath>
  <clipPath id="clip15_1_43">
   <rect fill="white" height="45.07" id="svg_16" transform="translate(1045.13 164.559) rotate(118.581)" width="45.07"/>
  </clipPath>
  <clipPath id="clip16_1_43">
   <rect fill="white" height="45.07" id="svg_17" transform="translate(574.133 164.559) rotate(118.581)" width="45.07"/>
  </clipPath>
 </defs>
 <g class="layer">
  <title>Layer 1</title>
  <rect fill="#104434" height="450" id="svg_18" rx="30" width="1400" y="13"/>
  <g clip-path="url(#clip0_1_43)" id="svg_19" opacity="0.06" transform="matrix(1, 0, 0, 1, 0, 0)">
   <path d="m107.13,406.17c-0.73,-1.57 -2.25,-2.64 -4.28,-3.01c-1.9,-0.34 -4.05,-0.01 -6.05,0.89c-2,0.93 -3.65,2.34 -4.64,3.99c-1.05,1.78 -1.24,3.63 -0.52,5.21c0.31,0.66 0.75,1.23 1.3,1.69c0.78,0.66 1.79,1.12 2.99,1.33c1.89,0.34 4.04,0.02 6.04,-0.9c2,-0.91 3.65,-2.32 4.63,-3.98c1.07,-1.78 1.25,-3.64 0.53,-5.22zm-15.13,-8.73c0.24,0.36 0.55,0.68 0.87,0.96c1.07,0.9 2.54,1.38 4.23,1.35c2.07,-0.01 4.29,-0.79 6.22,-2.16c1.93,-1.37 3.38,-3.2 4.09,-5.15c0.76,-2.08 0.59,-4.06 -0.49,-5.58c-2.12,-2.98 -7.2,-3.06 -11.32,-0.15c-4.18,2.97 -5.76,7.69 -3.6,10.73zm-33.67,10.12c1.24,2.68 3.64,4.63 6.56,5.34c3.04,0.75 5.49,2.8 6.73,5.66c0.63,1.44 1.56,2.66 2.71,3.63c1.06,0.89 2.32,1.56 3.69,1.93c1.44,0.39 2.96,0.43 4.41,0.11c1.46,-0.33 2.82,-0.99 3.97,-1.95c1.63,-1.35 2.77,-3.21 3.22,-5.28c0.45,-2.07 0.2,-4.23 -0.72,-6.14c-0.83,-1.7 -0.96,-3.68 -0.37,-5.55c0.9,-2.89 1.15,-7.01 -2.74,-10.27l-0.08,-0.07c-2.9,-2.4 -6.51,-2.7 -10.43,-0.89c-1.87,0.88 -3.87,1.06 -5.65,0.52c-4.22,-1.26 -8.72,0.54 -10.93,4.39c-1.52,2.63 -1.66,5.84 -0.37,8.57zm13.4,-16.7c1.45,-1.25 2.57,-3.11 3.13,-5.25c1.21,-4.62 -0.48,-8.92 -3.86,-9.81c-3.38,-0.87 -6.97,2.04 -8.18,6.66c-0.55,2.14 -0.5,4.3 0.16,6.11c0.41,1.14 1.04,2.06 1.82,2.71c0.55,0.47 1.19,0.81 1.88,0.99c1.69,0.43 3.48,-0.06 5.05,-1.41zm9.42,-2.33c0.31,0.26 0.66,0.5 1.05,0.68c3.31,1.58 7.77,-0.84 9.95,-5.4c2.17,-4.56 1.23,-9.54 -2.09,-11.13c-2.6,-1.24 -5.92,-0.01 -8.27,2.78c-0.65,0.77 -1.22,1.65 -1.68,2.62c-1.92,4.03 -1.41,8.39 1.04,10.45z" fill="#27a274" id="svg_20"/>
  </g>
  <g clip-path="url(#clip1_1_43)" id="svg_21" opacity="0.06" transform="matrix(1, 0, 0, 1, 0, 0)">
   <path d="m1206.11,375.33c-0.18,-1.72 -1.28,-3.22 -3.08,-4.23c-1.68,-0.92 -3.83,-1.31 -6.02,-1.09c-2.19,0.23 -4.2,1.04 -5.67,2.28c-1.56,1.35 -2.34,3.04 -2.16,4.77c0.08,0.73 0.31,1.4 0.68,2.02c0.53,0.87 1.34,1.63 2.41,2.22c1.68,0.92 3.81,1.32 6.01,1.09c2.19,-0.22 4.2,-1.03 5.66,-2.29c1.58,-1.34 2.35,-3.04 2.17,-4.77zm-11.51,-13.13c0.11,0.42 0.29,0.82 0.51,1.19c0.73,1.19 1.96,2.12 3.57,2.64c1.97,0.65 4.31,0.63 6.59,-0.05c2.27,-0.67 4.23,-1.94 5.53,-3.56c1.39,-1.73 1.86,-3.66 1.33,-5.45c-1.05,-3.5 -5.84,-5.2 -10.68,-3.77c-4.91,1.47 -7.92,5.43 -6.85,9zm-35.15,-1.23c0.32,2.93 1.97,5.54 4.5,7.16c2.64,1.68 4.3,4.42 4.56,7.53c0.13,1.55 0.62,3.02 1.4,4.3c0.72,1.19 1.69,2.22 2.87,3.01c1.24,0.84 2.67,1.36 4.15,1.52c1.49,0.17 2.99,-0.03 4.38,-0.57c1.98,-0.75 3.65,-2.15 4.75,-3.96c1.09,-1.81 1.55,-3.94 1.29,-6.04c-0.24,-1.88 0.27,-3.8 1.43,-5.38c1.79,-2.45 3.34,-6.27 0.71,-10.61l-0.06,-0.09c-1.97,-3.21 -5.29,-4.65 -9.59,-4.19c-2.05,0.23 -4,-0.25 -5.52,-1.33c-3.59,-2.55 -8.42,-2.29 -11.76,0.64c-2.29,2.01 -3.44,5 -3.11,8.01zm18.06,-11.51c1.79,-0.72 3.44,-2.12 4.66,-3.97c2.62,-3.98 2.41,-8.6 -0.51,-10.53c-2.91,-1.91 -7.25,-0.31 -9.88,3.68c-1.21,1.84 -1.86,3.9 -1.81,5.83c0.02,1.21 0.32,2.29 0.85,3.16c0.37,0.62 0.86,1.14 1.47,1.54c1.45,0.95 3.31,1.06 5.22,0.29zm9.67,0.81c0.22,0.36 0.47,0.69 0.79,0.99c2.62,2.56 7.62,1.7 11.15,-1.92c3.52,-3.61 4.23,-8.64 1.6,-11.21c-2.07,-2.01 -5.61,-1.91 -8.73,-0.02c-0.86,0.52 -1.68,1.16 -2.43,1.94c-3.11,3.2 -4.03,7.49 -2.38,10.22z" fill="#27a274" id="svg_22"/>
  </g>
  <g clip-path="url(#clip2_1_43)" id="svg_23" opacity="0.06" transform="matrix(1, 0, 0, 1, 0, 0)">
   <path d="m734.11,375.33c-0.18,-1.72 -1.28,-3.22 -3.08,-4.23c-1.68,-0.92 -3.83,-1.31 -6.02,-1.09c-2.19,0.23 -4.2,1.04 -5.67,2.28c-1.56,1.35 -2.34,3.04 -2.16,4.77c0.08,0.73 0.31,1.4 0.68,2.02c0.53,0.87 1.34,1.63 2.41,2.22c1.68,0.92 3.81,1.32 6.01,1.09c2.19,-0.22 4.2,-1.03 5.66,-2.29c1.58,-1.34 2.35,-3.04 2.17,-4.77zm-11.51,-13.13c0.11,0.42 0.29,0.82 0.51,1.19c0.73,1.19 1.96,2.12 3.57,2.64c1.97,0.65 4.31,0.63 6.58,-0.05c2.28,-0.67 4.24,-1.94 5.54,-3.56c1.39,-1.73 1.86,-3.66 1.33,-5.45c-1.05,-3.5 -5.84,-5.2 -10.68,-3.77c-4.91,1.47 -7.92,5.43 -6.85,9zm-35.15,-1.23c0.32,2.93 1.97,5.54 4.51,7.16c2.63,1.68 4.29,4.42 4.55,7.53c0.13,1.55 0.62,3.02 1.4,4.3c0.72,1.19 1.69,2.22 2.87,3.01c1.24,0.84 2.67,1.36 4.15,1.52c1.48,0.17 2.99,-0.03 4.38,-0.57c1.98,-0.75 3.65,-2.15 4.75,-3.96c1.09,-1.81 1.55,-3.94 1.29,-6.04c-0.24,-1.88 0.27,-3.8 1.43,-5.38c1.79,-2.45 3.34,-6.27 0.71,-10.61l-0.06,-0.09c-1.97,-3.21 -5.29,-4.65 -9.59,-4.19c-2.05,0.23 -4,-0.25 -5.52,-1.33c-3.59,-2.55 -8.42,-2.29 -11.76,0.64c-2.29,2.01 -3.44,5 -3.11,8.01zm18.06,-11.51c1.79,-0.72 3.44,-2.12 4.66,-3.97c2.62,-3.98 2.41,-8.6 -0.51,-10.53c-2.91,-1.91 -7.25,-0.31 -9.88,3.68c-1.21,1.84 -1.86,3.9 -1.81,5.83c0.02,1.21 0.32,2.29 0.85,3.16c0.37,0.62 0.86,1.14 1.47,1.54c1.45,0.95 3.31,1.06 5.22,0.29zm9.67,0.81c0.22,0.36 0.47,0.69 0.79,0.99c2.62,2.56 7.63,1.7 11.15,-1.92c3.52,-3.61 4.23,-8.64 1.6,-11.21c-2.07,-2.01 -5.61,-1.91 -8.73,-0.02c-0.86,0.52 -1.68,1.16 -2.43,1.94c-3.11,3.2 -4.03,7.49 -2.38,10.22z" fill="#27a274" id="svg_24"/>
  </g>
  <g id="svg_25" opacity="0.03" transform="matrix(1, 0, 0, 1, 0, 0)">
   <path d="m827.74,327.36c0.6,-1.23 0.49,-2.7 -0.31,-4.13c-0.74,-1.33 -2.02,-2.48 -3.58,-3.25c-1.57,-0.76 -3.27,-1.05 -4.77,-0.83c-1.62,0.26 -2.84,1.07 -3.45,2.31c-0.25,0.52 -0.37,1.06 -0.38,1.64c-0.01,0.81 0.22,1.66 0.69,2.5c0.75,1.32 2.02,2.48 3.59,3.24c1.56,0.76 3.26,1.06 4.76,0.82c1.63,-0.24 2.85,-1.06 3.45,-2.3zm-2.26,-13.63c-0.1,0.33 -0.15,0.67 -0.15,1.01c-0.01,1.1 0.43,2.24 1.3,3.26c1.05,1.26 2.63,2.23 4.45,2.72c1.8,0.49 3.66,0.46 5.21,-0.09c1.65,-0.58 2.78,-1.68 3.16,-3.11c0.76,-2.79 -1.75,-5.93 -5.61,-6.99c-3.91,-1.06 -7.59,0.34 -8.36,3.2zm-23.13,-15.5c-1.01,2.11 -0.99,4.55 0.04,6.7c1.08,2.23 1.05,4.76 -0.07,6.96c-0.56,1.1 -0.85,2.29 -0.86,3.48c-0.01,1.1 0.21,2.2 0.68,3.22c0.48,1.08 1.22,2.03 2.15,2.76c0.93,0.73 2.03,1.22 3.19,1.44c1.64,0.32 3.35,0.08 4.84,-0.68c1.5,-0.77 2.69,-2.01 3.39,-3.53c0.63,-1.36 1.77,-2.44 3.21,-3.02c2.22,-0.9 4.86,-2.82 4.9,-6.84l0,-0.09c0.01,-2.98 -1.62,-5.33 -4.7,-6.82c-1.47,-0.7 -2.59,-1.83 -3.16,-3.19c-1.35,-3.22 -4.71,-5.06 -8.18,-4.48c-2.37,0.4 -4.4,1.93 -5.43,4.09zm16.95,-0.21c1.5,0.26 3.2,0.01 4.79,-0.72c3.43,-1.59 5.21,-4.79 4.05,-7.3c-1.16,-2.5 -4.75,-3.23 -8.18,-1.65c-1.58,0.74 -2.88,1.85 -3.65,3.17c-0.49,0.83 -0.74,1.67 -0.75,2.48c0,0.57 0.11,1.13 0.35,1.65c0.58,1.24 1.78,2.09 3.39,2.37zm6.17,4.59c-0.01,0.33 0.03,0.65 0.11,0.99c0.7,2.81 4.42,4.32 8.3,3.36c3.88,-0.96 6.45,-4.04 5.76,-6.87c-0.55,-2.22 -2.98,-3.63 -5.87,-3.66c-0.79,-0.01 -1.61,0.08 -2.44,0.29c-3.43,0.85 -5.83,3.36 -5.86,5.89z" fill="#27a274" id="svg_26"/>
  </g>
  <g id="svg_27" opacity="0.03" transform="matrix(1, 0, 0, 1, 0, 0)">
   <path d="m356.75,327.36c0.59,-1.23 0.48,-2.7 -0.32,-4.13c-0.74,-1.33 -2.02,-2.48 -3.58,-3.25c-1.57,-0.76 -3.27,-1.05 -4.77,-0.83c-1.62,0.26 -2.84,1.07 -3.45,2.31c-0.25,0.52 -0.37,1.06 -0.38,1.64c-0.01,0.81 0.22,1.66 0.69,2.5c0.75,1.32 2.02,2.48 3.59,3.24c1.56,0.76 3.26,1.06 4.76,0.82c1.63,-0.24 2.85,-1.06 3.46,-2.3zm-2.27,-13.63c-0.1,0.33 -0.15,0.67 -0.15,1.01c-0.01,1.1 0.43,2.24 1.3,3.26c1.05,1.26 2.63,2.23 4.44,2.72c1.81,0.49 3.67,0.46 5.22,-0.09c1.65,-0.58 2.77,-1.68 3.16,-3.11c0.76,-2.79 -1.75,-5.93 -5.61,-6.99c-3.91,-1.06 -7.59,0.34 -8.36,3.2zm-23.13,-15.5c-1.01,2.11 -0.99,4.55 0.04,6.7c1.07,2.23 1.05,4.76 -0.07,6.96c-0.56,1.1 -0.85,2.29 -0.86,3.48c-0.01,1.1 0.21,2.2 0.68,3.22c0.48,1.08 1.22,2.03 2.15,2.76c0.93,0.73 2.02,1.22 3.19,1.44c1.64,0.32 3.35,0.08 4.84,-0.68c1.5,-0.77 2.69,-2.01 3.39,-3.53c0.63,-1.36 1.77,-2.44 3.21,-3.02c2.22,-0.9 4.86,-2.82 4.9,-6.84l0,-0.09c0.01,-2.98 -1.62,-5.33 -4.7,-6.82c-1.47,-0.7 -2.59,-1.83 -3.16,-3.19c-1.35,-3.22 -4.71,-5.06 -8.18,-4.48c-2.37,0.4 -4.4,1.93 -5.43,4.09zm16.95,-0.21c1.5,0.26 3.2,0.01 4.79,-0.72c3.43,-1.59 5.21,-4.79 4.05,-7.3c-1.16,-2.5 -4.75,-3.23 -8.18,-1.65c-1.58,0.74 -2.88,1.85 -3.65,3.17c-0.49,0.83 -0.74,1.67 -0.75,2.48c0,0.57 0.11,1.13 0.35,1.65c0.58,1.24 1.78,2.09 3.39,2.37zm6.17,4.59c-0.01,0.33 0.03,0.65 0.11,0.99c0.7,2.81 4.42,4.32 8.3,3.36c3.88,-0.96 6.45,-4.04 5.76,-6.87c-0.55,-2.22 -2.98,-3.63 -5.87,-3.66c-0.79,-0.01 -1.61,0.08 -2.44,0.29c-3.43,0.85 -5.83,3.36 -5.86,5.89z" fill="#27a274" id="svg_28"/>
  </g>
  <g id="svg_29" opacity="0.03" transform="matrix(1, 0, 0, 1, 0, 0)">
   <path d="m702.74,155.36c0.6,-1.23 0.49,-2.7 -0.31,-4.13c-0.74,-1.33 -2.02,-2.48 -3.58,-3.25c-1.57,-0.76 -3.27,-1.05 -4.77,-0.82c-1.62,0.25 -2.84,1.06 -3.45,2.3c-0.25,0.52 -0.37,1.07 -0.38,1.64c-0.01,0.81 0.22,1.66 0.69,2.5c0.75,1.32 2.02,2.48 3.59,3.24c1.56,0.76 3.26,1.06 4.76,0.82c1.63,-0.24 2.85,-1.06 3.45,-2.3zm-2.26,-13.63c-0.1,0.33 -0.15,0.67 -0.15,1.01c-0.01,1.1 0.43,2.24 1.3,3.26c1.05,1.26 2.63,2.23 4.45,2.72c1.8,0.49 3.66,0.46 5.21,-0.09c1.65,-0.58 2.78,-1.68 3.16,-3.11c0.76,-2.79 -1.75,-5.93 -5.61,-6.99c-3.91,-1.06 -7.59,0.34 -8.36,3.2zm-23.13,-15.5c-1.01,2.11 -0.99,4.55 0.04,6.7c1.08,2.23 1.05,4.76 -0.07,6.96c-0.56,1.1 -0.85,2.29 -0.86,3.48c-0.01,1.1 0.21,2.2 0.68,3.22c0.48,1.08 1.22,2.03 2.15,2.75c0.93,0.74 2.03,1.23 3.19,1.45c1.64,0.32 3.35,0.08 4.84,-0.68c1.5,-0.77 2.69,-2.01 3.39,-3.53c0.63,-1.36 1.77,-2.44 3.21,-3.02c2.22,-0.9 4.86,-2.82 4.9,-6.84l0,-0.09c0.01,-2.98 -1.62,-5.33 -4.7,-6.82c-1.47,-0.7 -2.59,-1.83 -3.16,-3.19c-1.35,-3.21 -4.71,-5.06 -8.18,-4.48c-2.37,0.4 -4.4,1.93 -5.43,4.09zm16.95,-0.21c1.5,0.26 3.2,0.01 4.79,-0.72c3.43,-1.59 5.21,-4.79 4.05,-7.3c-1.16,-2.5 -4.75,-3.23 -8.18,-1.65c-1.58,0.74 -2.88,1.85 -3.65,3.17c-0.49,0.82 -0.74,1.67 -0.75,2.48c0,0.57 0.11,1.13 0.35,1.65c0.58,1.24 1.78,2.09 3.39,2.37zm6.17,4.59c-0.01,0.33 0.03,0.65 0.11,0.98c0.7,2.82 4.42,4.33 8.3,3.37c3.88,-0.96 6.45,-4.04 5.76,-6.87c-0.55,-2.22 -2.98,-3.63 -5.87,-3.66c-0.79,-0.01 -1.61,0.08 -2.44,0.29c-3.43,0.85 -5.83,3.36 -5.86,5.89z" fill="#7fd6b0" id="svg_30"/>
  </g>
  <g clip-path="url(#clip3_1_43)" id="svg_31" opacity="0.06" transform="matrix(1, 0, 0, 1, 0, 0)">
   <path d="m1132.11,59.33c-0.18,-1.72 -1.28,-3.22 -3.08,-4.23c-1.68,-0.92 -3.83,-1.31 -6.02,-1.09c-2.19,0.23 -4.2,1.04 -5.67,2.28c-1.56,1.35 -2.34,3.04 -2.16,4.77c0.08,0.73 0.31,1.4 0.68,2.02c0.53,0.87 1.34,1.63 2.41,2.22c1.68,0.92 3.81,1.32 6.01,1.09c2.19,-0.22 4.2,-1.03 5.66,-2.29c1.58,-1.34 2.35,-3.04 2.17,-4.77zm-11.51,-13.13c0.11,0.42 0.29,0.82 0.51,1.19c0.73,1.19 1.96,2.12 3.57,2.64c1.97,0.65 4.31,0.63 6.59,-0.05c2.27,-0.67 4.23,-1.94 5.53,-3.56c1.39,-1.73 1.86,-3.66 1.33,-5.45c-1.05,-3.5 -5.84,-5.2 -10.68,-3.77c-4.91,1.47 -7.92,5.43 -6.85,9zm-35.15,-1.23c0.32,2.93 1.97,5.54 4.5,7.16c2.64,1.68 4.3,4.42 4.56,7.53c0.13,1.55 0.62,3.01 1.4,4.3c0.72,1.19 1.69,2.22 2.87,3.01c1.24,0.84 2.67,1.36 4.15,1.52c1.49,0.17 2.99,-0.03 4.38,-0.57c1.98,-0.75 3.65,-2.15 4.75,-3.96c1.09,-1.81 1.55,-3.94 1.29,-6.05c-0.24,-1.87 0.27,-3.79 1.43,-5.38c1.79,-2.44 3.34,-6.26 0.71,-10.6l-0.06,-0.09c-1.97,-3.21 -5.29,-4.65 -9.59,-4.19c-2.05,0.23 -4,-0.25 -5.52,-1.33c-3.59,-2.55 -8.42,-2.29 -11.76,0.64c-2.29,2.01 -3.44,5 -3.11,8.01zm18.06,-11.51c1.79,-0.72 3.44,-2.12 4.66,-3.97c2.62,-3.98 2.41,-8.6 -0.51,-10.53c-2.91,-1.91 -7.25,-0.31 -9.88,3.68c-1.21,1.84 -1.86,3.9 -1.81,5.83c0.02,1.21 0.32,2.29 0.85,3.16c0.37,0.62 0.86,1.14 1.47,1.54c1.45,0.95 3.31,1.06 5.22,0.29zm9.67,0.81c0.22,0.36 0.47,0.69 0.79,0.99c2.62,2.56 7.62,1.7 11.15,-1.92c3.52,-3.61 4.23,-8.63 1.6,-11.21c-2.07,-2.01 -5.61,-1.91 -8.73,-0.02c-0.86,0.52 -1.68,1.16 -2.43,1.94c-3.11,3.2 -4.03,7.49 -2.38,10.22z" fill="#27a274" id="svg_32"/>
  </g>
  <g id="svg_33" opacity="0.06" transform="matrix(1, 0, 0, 1, 0, 0)">
   <path d="m909.5,68.36c0.59,-1.23 0.48,-2.7 -0.31,-4.13c-0.75,-1.33 -2.03,-2.48 -3.59,-3.25c-1.57,-0.76 -3.26,-1.05 -4.77,-0.83c-1.61,0.26 -2.84,1.07 -3.44,2.31c-0.26,0.52 -0.38,1.07 -0.39,1.64c0,0.81 0.22,1.66 0.7,2.5c0.74,1.32 2.01,2.48 3.58,3.24c1.57,0.76 3.26,1.06 4.77,0.82c1.62,-0.24 2.84,-1.06 3.45,-2.3zm-2.27,-13.63c-0.1,0.32 -0.14,0.67 -0.15,1.01c-0.01,1.1 0.43,2.24 1.3,3.26c1.05,1.26 2.64,2.23 4.45,2.72c1.81,0.49 3.66,0.46 5.21,-0.09c1.65,-0.58 2.78,-1.68 3.17,-3.11c0.75,-2.79 -1.76,-5.93 -5.61,-6.99c-3.92,-1.06 -7.6,0.34 -8.37,3.2zm-23.12,-15.5c-1.01,2.11 -1,4.55 0.03,6.7c1.08,2.23 1.05,4.76 -0.07,6.96c-0.56,1.1 -0.84,2.29 -0.85,3.48c-0.02,1.1 0.21,2.2 0.67,3.22c0.49,1.08 1.23,2.03 2.16,2.76c0.93,0.73 2.02,1.22 3.18,1.44c1.65,0.32 3.35,0.08 4.85,-0.68c1.49,-0.77 2.68,-2.01 3.39,-3.53c0.62,-1.36 1.76,-2.44 3.2,-3.02c2.23,-0.9 4.86,-2.82 4.91,-6.84l0,-0.09c0.01,-2.98 -1.62,-5.33 -4.71,-6.82c-1.47,-0.7 -2.59,-1.83 -3.15,-3.19c-1.36,-3.21 -4.71,-5.06 -8.18,-4.48c-2.38,0.4 -4.41,1.93 -5.43,4.09zm16.95,-0.21c1.5,0.26 3.2,0.01 4.78,-0.72c3.43,-1.59 5.21,-4.79 4.06,-7.3c-1.17,-2.5 -4.76,-3.23 -8.18,-1.65c-1.59,0.74 -2.88,1.85 -3.66,3.17c-0.49,0.82 -0.73,1.67 -0.74,2.48c-0.01,0.57 0.1,1.13 0.34,1.65c0.58,1.24 1.79,2.09 3.4,2.37zm6.16,4.59c0,0.33 0.03,0.65 0.12,0.98c0.69,2.82 4.42,4.33 8.3,3.37c3.87,-0.96 6.45,-4.04 5.75,-6.87c-0.55,-2.22 -2.97,-3.63 -5.86,-3.66c-0.79,-0.01 -1.62,0.08 -2.44,0.29c-3.43,0.85 -5.84,3.36 -5.87,5.89z" fill="#27a274" id="svg_34"/>
  </g>
  <g clip-path="url(#clip4_1_43)" id="svg_35" opacity="0.04" transform="matrix(1, 0, 0, 1, 0, 0)">
   <path d="m251.39,249.34c-1.32,-1.12 -3.15,-1.44 -5.15,-0.92c-1.86,0.5 -3.67,1.7 -5.1,3.37c-1.42,1.68 -2.32,3.67 -2.51,5.58c-0.2,2.06 0.41,3.81 1.74,4.94c0.56,0.47 1.19,0.79 1.89,0.98c0.99,0.26 2.09,0.25 3.27,-0.06c1.86,-0.5 3.67,-1.69 5.09,-3.38c1.43,-1.67 2.32,-3.65 2.51,-5.57c0.21,-2.06 -0.41,-3.81 -1.74,-4.94zm-17.39,-1.51c0.37,0.23 0.78,0.39 1.19,0.5c1.35,0.36 2.88,0.17 4.4,-0.57c1.87,-0.88 3.55,-2.52 4.72,-4.58c1.17,-2.06 1.71,-4.34 1.53,-6.41c-0.19,-2.2 -1.19,-3.93 -2.81,-4.85c-3.18,-1.8 -7.82,0.28 -10.32,4.67c-2.53,4.46 -1.96,9.4 1.29,11.24zm-26.23,23.43c2.27,1.9 5.26,2.65 8.21,2.06c3.07,-0.61 6.16,0.22 8.5,2.28c1.17,1.03 2.54,1.75 3.99,2.14c1.34,0.36 2.75,0.43 4.16,0.18c1.47,-0.25 2.86,-0.86 4.04,-1.77c1.19,-0.91 2.14,-2.09 2.77,-3.45c0.9,-1.91 1.15,-4.07 0.68,-6.14c-0.46,-2.07 -1.61,-3.92 -3.25,-5.26c-1.47,-1.19 -2.43,-2.92 -2.69,-4.87c-0.4,-3 -1.93,-6.83 -6.83,-8.15l-0.1,-0.02c-3.65,-0.95 -7.04,0.31 -9.83,3.61c-1.32,1.58 -3.06,2.6 -4.9,2.87c-4.35,0.64 -7.66,4.17 -8.04,8.59c-0.26,3.04 0.98,6 3.29,7.93zm5.07,-20.8c0.79,-1.75 1.02,-3.91 0.62,-6.09c-0.87,-4.69 -4.22,-7.87 -7.66,-7.25c-3.43,0.64 -5.45,4.8 -4.58,9.5c0.4,2.17 1.36,4.1 2.73,5.46c0.85,0.86 1.81,1.43 2.79,1.69c0.7,0.19 1.42,0.23 2.13,0.1c1.71,-0.32 3.13,-1.53 3.97,-3.41zm7.54,-6.11c0.41,0.11 0.82,0.18 1.25,0.17c3.67,0.03 6.69,-4.05 6.72,-9.1c0.04,-5.04 -2.92,-9.16 -6.6,-9.2c-2.88,-0.02 -5.37,2.5 -6.31,6.03c-0.26,0.97 -0.41,2 -0.41,3.08c-0.04,4.46 2.28,8.2 5.35,9.02z" fill="#27a274" id="svg_36"/>
  </g>
  <g clip-path="url(#clip5_1_43)" id="svg_37" opacity="0.04" transform="matrix(1, 0, 0, 1, 0, 0)">
   <path d="m1350.81,279.72c-0.9,-1.48 -2.53,-2.38 -4.59,-2.52c-1.92,-0.13 -4.02,0.43 -5.91,1.55c-1.89,1.14 -3.37,2.73 -4.17,4.48c-0.85,1.88 -0.83,3.74 0.06,5.23c0.37,0.62 0.87,1.14 1.47,1.54c0.85,0.57 1.91,0.91 3.12,0.99c1.92,0.13 4.02,-0.42 5.9,-1.56c1.9,-1.12 3.38,-2.71 4.17,-4.46c0.86,-1.89 0.84,-3.75 -0.05,-5.25zm-15.99,-7.01c0.28,0.33 0.61,0.61 0.96,0.85c1.17,0.78 2.68,1.09 4.36,0.88c2.05,-0.24 4.17,-1.25 5.94,-2.83c1.77,-1.57 3.01,-3.55 3.5,-5.57c0.53,-2.15 0.14,-4.1 -1.1,-5.49c-2.43,-2.74 -7.49,-2.25 -11.27,1.1c-3.83,3.41 -4.88,8.27 -2.39,11.06zm-32.37,13.76c1.54,2.53 4.13,4.19 7.12,4.58c3.1,0.41 5.76,2.19 7.31,4.89c0.78,1.35 1.84,2.47 3.09,3.31c1.15,0.77 2.47,1.29 3.88,1.51c1.47,0.23 2.98,0.1 4.4,-0.38c1.41,-0.48 2.69,-1.29 3.72,-2.37c1.48,-1.52 2.4,-3.49 2.63,-5.6c0.22,-2.11 -0.27,-4.23 -1.39,-6.02c-1.01,-1.6 -1.36,-3.55 -0.99,-5.48c0.59,-2.97 0.38,-7.09 -3.84,-9.91l-0.09,-0.06c-3.15,-2.07 -6.77,-1.97 -10.47,0.27c-1.75,1.07 -3.73,1.47 -5.56,1.13c-4.33,-0.79 -8.6,1.49 -10.38,5.56c-1.22,2.79 -1,5.99 0.57,8.57zm11.49,-18.07c1.31,-1.41 2.22,-3.38 2.54,-5.57c0.69,-4.72 -1.47,-8.81 -4.92,-9.33c-3.45,-0.49 -6.7,2.8 -7.39,7.52c-0.32,2.19 -0.04,4.33 0.82,6.06c0.54,1.08 1.27,1.93 2.11,2.49c0.6,0.41 1.27,0.67 1.98,0.78c1.72,0.25 3.45,-0.44 4.86,-1.95zm9.11,-3.36c0.34,0.23 0.71,0.42 1.12,0.56c3.46,1.21 7.63,-1.69 9.29,-6.46c1.66,-4.76 0.18,-9.61 -3.29,-10.83c-2.73,-0.95 -5.9,0.64 -7.92,3.68c-0.56,0.83 -1.03,1.76 -1.38,2.78c-1.47,4.22 -0.48,8.5 2.18,10.27z" fill="#27a274" id="svg_38"/>
  </g>
  <g clip-path="url(#clip6_1_43)" id="svg_39" opacity="0.04" transform="matrix(1, 0, 0, 1, 0, 0)">
   <path d="m1041.96,335.51c0.02,-1.37 -0.71,-2.65 -2.03,-3.61c-1.24,-0.89 -2.89,-1.39 -4.63,-1.42c-1.74,-0.03 -3.4,0.42 -4.67,1.27c-1.36,0.91 -2.12,2.17 -2.14,3.54c-0.01,0.58 0.11,1.13 0.35,1.65c0.33,0.74 0.9,1.41 1.68,1.97c1.24,0.89 2.88,1.39 4.62,1.42c1.74,0.03 3.4,-0.42 4.67,-1.27c1.36,-0.91 2.12,-2.17 2.15,-3.55zm-7.83,-11.39c0.05,0.34 0.16,0.67 0.3,0.98c0.45,1.01 1.34,1.85 2.55,2.4c1.49,0.7 3.33,0.9 5.18,0.58c1.85,-0.32 3.51,-1.13 4.69,-2.28c1.25,-1.23 1.8,-2.71 1.55,-4.16c-0.5,-2.85 -4.1,-4.64 -8.04,-3.96c-4,0.7 -6.74,3.53 -6.23,6.44zm-27.51,-4.25c-0.02,2.34 1.03,4.55 2.87,6.05c1.92,1.57 2.97,3.88 2.88,6.34c-0.04,1.24 0.21,2.43 0.7,3.52c0.45,1 1.12,1.9 1.98,2.63c0.89,0.77 1.96,1.32 3.12,1.58c1.15,0.27 2.35,0.26 3.49,-0.04c1.63,-0.4 3.07,-1.34 4.1,-2.67c1.03,-1.32 1.59,-2.95 1.58,-4.63c-0.01,-1.5 0.57,-2.96 1.63,-4.1c1.63,-1.75 3.2,-4.61 1.54,-8.27l-0.03,-0.07c-1.26,-2.71 -3.73,-4.15 -7.16,-4.19c-1.62,-0.01 -3.12,-0.57 -4.21,-1.56c-2.58,-2.34 -6.4,-2.58 -9.3,-0.59c-1.99,1.37 -3.17,3.61 -3.19,6zm15.27,-7.36c1.47,-0.4 2.9,-1.35 4.03,-2.69c2.43,-2.88 2.69,-6.54 0.58,-8.32c-2.11,-1.78 -5.68,-0.92 -8.11,1.97c-1.13,1.34 -1.83,2.9 -1.97,4.42c-0.1,0.95 0.04,1.82 0.37,2.55c0.24,0.53 0.58,0.99 1.02,1.35c1.05,0.89 2.5,1.15 4.08,0.72zm7.52,1.54c0.14,0.3 0.31,0.58 0.53,0.85c1.82,2.25 5.83,2.04 8.94,-0.47c3.1,-2.51 4.13,-6.39 2.3,-8.66c-1.43,-1.78 -4.23,-2.03 -6.86,-0.83c-0.72,0.32 -1.42,0.75 -2.09,1.3c-2.74,2.22 -3.86,5.51 -2.82,7.81z" fill="#7fd6b0" id="svg_40"/>
  </g>
  <g clip-path="url(#clip7_1_43)" id="svg_41" opacity="0.04" transform="matrix(1, 0, 0, 1, 0, 0)">
   <path d="m570.96,335.51c0.02,-1.37 -0.71,-2.65 -2.03,-3.61c-1.24,-0.89 -2.89,-1.39 -4.63,-1.42c-1.74,-0.03 -3.4,0.42 -4.67,1.27c-1.36,0.91 -2.12,2.17 -2.14,3.54c-0.01,0.58 0.11,1.13 0.35,1.65c0.33,0.74 0.9,1.41 1.68,1.97c1.24,0.89 2.88,1.39 4.62,1.42c1.74,0.03 3.4,-0.42 4.67,-1.27c1.36,-0.91 2.12,-2.17 2.15,-3.55zm-7.83,-11.39c0.05,0.34 0.16,0.67 0.29,0.98c0.46,1.01 1.35,1.85 2.57,2.4c1.48,0.7 3.32,0.9 5.17,0.58c1.85,-0.32 3.51,-1.13 4.69,-2.28c1.25,-1.23 1.8,-2.71 1.55,-4.16c-0.5,-2.85 -4.1,-4.64 -8.04,-3.96c-4,0.7 -6.74,3.53 -6.23,6.44zm-27.51,-4.25c-0.02,2.34 1.03,4.55 2.87,6.05c1.92,1.57 2.97,3.88 2.88,6.34c-0.04,1.24 0.21,2.43 0.7,3.52c0.45,1 1.12,1.9 1.98,2.63c0.89,0.77 1.96,1.32 3.12,1.58c1.15,0.27 2.35,0.26 3.49,-0.04c1.63,-0.4 3.07,-1.34 4.1,-2.67c1.03,-1.32 1.59,-2.95 1.58,-4.63c-0.01,-1.5 0.57,-2.96 1.63,-4.1c1.63,-1.75 3.2,-4.61 1.54,-8.27l-0.03,-0.07c-1.26,-2.71 -3.73,-4.15 -7.16,-4.19c-1.62,-0.01 -3.12,-0.57 -4.21,-1.56c-2.58,-2.34 -6.4,-2.58 -9.3,-0.59c-1.99,1.37 -3.17,3.61 -3.19,6zm15.27,-7.36c1.47,-0.4 2.9,-1.35 4.02,-2.69c2.44,-2.88 2.7,-6.54 0.59,-8.32c-2.11,-1.78 -5.67,-0.92 -8.11,1.97c-1.13,1.34 -1.83,2.9 -1.97,4.42c-0.1,0.95 0.04,1.82 0.37,2.55c0.24,0.53 0.58,0.99 1.01,1.35c1.06,0.89 2.51,1.15 4.09,0.72zm7.52,1.54c0.14,0.3 0.31,0.58 0.53,0.85c1.82,2.25 5.83,2.04 8.94,-0.47c3.1,-2.51 4.13,-6.39 2.3,-8.66c-1.43,-1.78 -4.23,-2.03 -6.86,-0.83c-0.72,0.32 -1.42,0.75 -2.09,1.3c-2.74,2.22 -3.86,5.51 -2.82,7.81z" fill="#7fd6b0" id="svg_42"/>
  </g>
  <g clip-path="url(#clip8_1_43)" id="svg_43" opacity="0.05" transform="matrix(1, 0, 0, 1, 0, 0)">
   <path d="m93.72,209.52c-2.17,0.26 -4.06,1.68 -5.3,3.98c-1.14,2.14 -1.59,4.86 -1.28,7.63c0.32,2.77 1.38,5.31 2.99,7.14c1.73,1.96 3.88,2.91 6.06,2.66c0.92,-0.11 1.77,-0.41 2.55,-0.9c1.1,-0.69 2.04,-1.72 2.77,-3.08c1.14,-2.15 1.6,-4.86 1.27,-7.63c-0.31,-2.76 -1.36,-5.3 -2.98,-7.13c-1.73,-1.97 -3.89,-2.92 -6.08,-2.67zm-16.42,14.8c0.53,-0.15 1.03,-0.39 1.49,-0.67c1.5,-0.94 2.65,-2.52 3.28,-4.57c0.8,-2.5 0.73,-5.46 -0.17,-8.33c-0.89,-2.86 -2.52,-5.33 -4.6,-6.94c-2.21,-1.73 -4.66,-2.3 -6.91,-1.59c-4.42,1.38 -6.5,7.47 -4.6,13.57c1.94,6.2 7,9.94 11.51,8.53zm-0.98,44.5c3.71,-0.45 6.99,-2.57 8.99,-5.81c2.09,-3.37 5.53,-5.52 9.46,-5.9c1.96,-0.19 3.81,-0.83 5.42,-1.84c1.49,-0.93 2.78,-2.18 3.76,-3.68c1.04,-1.59 1.67,-3.4 1.86,-5.28c0.18,-1.88 -0.09,-3.78 -0.8,-5.54c-0.98,-2.49 -2.78,-4.58 -5.09,-5.94c-2.32,-1.35 -5.02,-1.89 -7.67,-1.53c-2.38,0.33 -4.81,-0.28 -6.84,-1.72c-3.12,-2.22 -7.98,-4.12 -13.44,-0.72l-0.11,0.07c-4.02,2.56 -5.8,6.78 -5.14,12.22c0.32,2.58 -0.25,5.07 -1.59,7c-3.17,4.59 -2.76,10.7 1.01,14.87c2.58,2.87 6.39,4.28 10.18,3.8zm-14.87,-22.66c-0.94,-2.25 -2.74,-4.32 -5.1,-5.83c-5.08,-3.25 -10.93,-2.9 -13.32,0.82c-2.37,3.72 -0.27,9.19 4.82,12.44c2.36,1.51 4.98,2.29 7.42,2.2c1.53,-0.04 2.89,-0.45 3.98,-1.12c0.78,-0.49 1.43,-1.12 1.92,-1.89c1.19,-1.85 1.29,-4.21 0.28,-6.62zm0.87,-12.26c0.45,-0.27 0.87,-0.6 1.23,-1c3.2,-3.37 2.03,-9.69 -2.61,-14.08c-4.63,-4.4 -11,-5.22 -14.21,-1.85c-2.52,2.66 -2.33,7.14 0.11,11.06c0.68,1.07 1.51,2.1 2.51,3.03c4.09,3.9 9.55,4.98 12.97,2.84z" fill="#7fd6b0" id="svg_44"/>
  </g>
  <g clip-path="url(#clip9_1_43)" id="svg_45" opacity="0.05" transform="matrix(1, 0, 0, 1, 0, 0)">
   <path d="m1212.71,191.92c-2.15,-0.45 -4.39,0.29 -6.3,2.07c-1.77,1.66 -3.08,4.09 -3.67,6.81c-0.58,2.73 -0.4,5.47 0.53,7.72c1.01,2.41 2.75,4.01 4.9,4.47c0.9,0.19 1.8,0.17 2.69,-0.03c1.26,-0.3 2.49,-0.98 3.62,-2.03c1.77,-1.67 3.08,-4.08 3.66,-6.81c0.59,-2.72 0.4,-5.47 -0.54,-7.71c-1,-2.43 -2.75,-4.02 -4.89,-4.49zm-20.31,8.74c0.55,0.02 1.1,-0.04 1.63,-0.16c1.72,-0.41 3.31,-1.53 4.57,-3.27c1.56,-2.11 2.44,-4.94 2.52,-7.94c0.07,-3 -0.69,-5.86 -2.13,-8.06c-1.54,-2.34 -3.68,-3.67 -6.04,-3.73c-4.63,-0.1 -8.55,4.99 -8.71,11.38c-0.16,6.49 3.43,11.67 8.16,11.78zm-15.23,41.83c3.66,0.76 7.44,-0.2 10.38,-2.62c3.06,-2.52 7,-3.45 10.85,-2.55c1.92,0.45 3.87,0.44 5.73,0c1.71,-0.4 3.33,-1.17 4.75,-2.28c1.48,-1.16 2.67,-2.67 3.45,-4.4c0.77,-1.72 1.13,-3.61 1.02,-5.49c-0.13,-2.68 -1.16,-5.24 -2.91,-7.27c-1.76,-2.03 -4.14,-3.4 -6.78,-3.91c-2.35,-0.45 -4.46,-1.81 -5.91,-3.83c-2.25,-3.11 -6.24,-6.47 -12.5,-5l-0.13,0.03c-4.63,1.13 -7.67,4.56 -8.79,9.92c-0.53,2.54 -1.86,4.72 -3.75,6.12c-4.48,3.32 -6.06,9.24 -3.83,14.41c1.52,3.54 4.67,6.1 8.42,6.87zm-6.8,-26.24c-0.17,-2.43 -1.21,-4.98 -2.95,-7.16c-3.78,-4.72 -9.42,-6.26 -12.88,-3.51c-3.44,2.76 -3.21,8.62 0.56,13.34c1.75,2.18 3.98,3.77 6.32,4.46c1.47,0.45 2.88,0.51 4.13,0.21c0.89,-0.21 1.72,-0.59 2.43,-1.16c1.72,-1.38 2.57,-3.58 2.39,-6.18zm4.76,-11.33c0.52,-0.12 1.02,-0.29 1.49,-0.56c4.12,-2.15 5.04,-8.52 2.06,-14.17c-2.98,-5.65 -8.75,-8.47 -12.87,-6.31c-3.24,1.7 -4.5,6.01 -3.44,10.5c0.29,1.24 0.74,2.47 1.39,3.68c2.63,5 7.44,7.78 11.37,6.86z" fill="#7fd6b0" id="svg_46"/>
  </g>
  <g clip-path="url(#clip10_1_43)" id="svg_47" opacity="0.05" transform="matrix(1, 0, 0, 1, 0, 0)">
   <path d="m907.29,191.43c-1.25,-1.2 -3.07,-1.64 -5.09,-1.24c-1.89,0.38 -3.78,1.47 -5.32,3.05c-1.53,1.6 -2.54,3.52 -2.86,5.42c-0.32,2.05 0.18,3.84 1.43,5.05c0.53,0.5 1.14,0.87 1.83,1.1c0.97,0.33 2.08,0.38 3.27,0.14c1.89,-0.38 3.78,-1.46 5.31,-3.05c1.53,-1.58 2.55,-3.5 2.85,-5.41c0.34,-2.05 -0.17,-3.85 -1.42,-5.06zm-17.3,-2.59c0.36,0.24 0.75,0.43 1.16,0.57c1.33,0.44 2.87,0.35 4.44,-0.29c1.93,-0.77 3.7,-2.31 5.01,-4.29c1.29,-1.99 1.98,-4.23 1.93,-6.31c-0.06,-2.22 -0.94,-4.01 -2.51,-5.03c-3.07,-2 -7.83,-0.21 -10.61,4.02c-2.81,4.3 -2.56,9.28 0.58,11.33zm-27.7,21.78c2.14,2.04 5.09,2.97 8.08,2.57c3.11,-0.42 6.14,0.6 8.36,2.81c1.1,1.11 2.42,1.91 3.85,2.39c1.31,0.45 2.73,0.6 4.14,0.45c1.49,-0.17 2.92,-0.69 4.16,-1.52c1.24,-0.84 2.27,-1.96 2.98,-3.27c1.03,-1.86 1.41,-4.01 1.07,-6.1c-0.33,-2.1 -1.36,-4.02 -2.92,-5.46c-1.39,-1.29 -2.24,-3.08 -2.38,-5.05c-0.21,-3.02 -1.5,-6.95 -6.32,-8.57l-0.1,-0.04c-3.58,-1.17 -7.06,-0.13 -10.05,3c-1.42,1.5 -3.22,2.4 -5.08,2.56c-4.4,0.36 -7.93,3.69 -8.59,8.09c-0.45,3.02 0.6,6.05 2.8,8.14zm6.38,-20.49c0.9,-1.71 1.26,-3.85 0.99,-6.05c-0.56,-4.75 -3.72,-8.14 -7.19,-7.73c-3.47,0.42 -5.75,4.46 -5.19,9.2c0.27,2.2 1.11,4.2 2.39,5.64c0.8,0.92 1.72,1.54 2.69,1.87c0.69,0.23 1.4,0.31 2.12,0.23c1.73,-0.21 3.22,-1.33 4.19,-3.16zm7.93,-5.63c0.39,0.13 0.8,0.22 1.23,0.24c3.67,0.27 6.94,-3.63 7.3,-8.67c0.35,-5.05 -2.35,-9.35 -6.03,-9.62c-2.88,-0.2 -5.53,2.17 -6.69,5.63c-0.32,0.95 -0.53,1.98 -0.6,3.06c-0.32,4.46 1.76,8.34 4.79,9.36z" fill="#27a274" id="svg_48"/>
  </g>
  <g clip-path="url(#clip11_1_43)" id="svg_49" opacity="0.05" transform="matrix(1, 0, 0, 1, 0, 0)">
   <path d="m436.29,191.43c-1.25,-1.2 -3.07,-1.64 -5.1,-1.24c-1.88,0.38 -3.77,1.47 -5.31,3.05c-1.53,1.6 -2.55,3.52 -2.86,5.42c-0.33,2.05 0.18,3.84 1.43,5.05c0.53,0.5 1.14,0.87 1.83,1.1c0.97,0.33 2.08,0.38 3.27,0.14c1.89,-0.38 3.78,-1.46 5.31,-3.05c1.53,-1.58 2.55,-3.5 2.85,-5.41c0.34,-2.05 -0.17,-3.85 -1.42,-5.06zm-17.3,-2.59c0.36,0.24 0.75,0.43 1.16,0.57c1.33,0.44 2.87,0.35 4.44,-0.29c1.93,-0.77 3.71,-2.31 5.01,-4.29c1.29,-1.99 1.98,-4.23 1.93,-6.31c-0.06,-2.22 -0.95,-4.01 -2.51,-5.03c-3.07,-2 -7.83,-0.21 -10.61,4.02c-2.81,4.3 -2.56,9.28 0.58,11.33zm-27.7,21.78c2.14,2.04 5.09,2.97 8.08,2.57c3.11,-0.42 6.14,0.6 8.36,2.81c1.1,1.11 2.42,1.91 3.85,2.39c1.31,0.45 2.73,0.6 4.14,0.45c1.49,-0.17 2.92,-0.69 4.16,-1.52c1.24,-0.84 2.27,-1.96 2.98,-3.27c1.03,-1.86 1.41,-4.01 1.08,-6.1c-0.34,-2.1 -1.37,-4.02 -2.93,-5.46c-1.39,-1.29 -2.24,-3.08 -2.38,-5.05c-0.21,-3.02 -1.5,-6.95 -6.32,-8.57l-0.1,-0.04c-3.58,-1.17 -7.06,-0.13 -10.05,3c-1.42,1.5 -3.22,2.4 -5.08,2.56c-4.4,0.36 -7.93,3.69 -8.59,8.09c-0.45,3.02 0.6,6.05 2.8,8.14zm6.38,-20.49c0.9,-1.71 1.26,-3.85 0.99,-6.05c-0.56,-4.75 -3.72,-8.14 -7.19,-7.73c-3.47,0.42 -5.76,4.46 -5.19,9.2c0.27,2.2 1.11,4.2 2.39,5.64c0.8,0.92 1.72,1.54 2.69,1.87c0.69,0.23 1.4,0.31 2.12,0.23c1.73,-0.21 3.22,-1.33 4.19,-3.16zm7.93,-5.63c0.39,0.13 0.8,0.22 1.23,0.24c3.67,0.27 6.94,-3.63 7.3,-8.67c0.35,-5.05 -2.35,-9.35 -6.03,-9.62c-2.88,-0.2 -5.53,2.17 -6.69,5.63c-0.32,0.95 -0.53,1.98 -0.6,3.06c-0.32,4.46 1.76,8.34 4.79,9.36z" fill="#27a274" id="svg_50"/>
  </g>
  <g clip-path="url(#clip12_1_43)" id="svg_51" opacity="0.04" transform="matrix(1, 0, 0, 1, 0, 0)">
   <path d="m261.56,355.44c-1.34,1.03 -2.03,2.71 -1.94,4.72c0.08,1.87 0.86,3.85 2.15,5.56c1.31,1.71 3.01,2.97 4.8,3.55c1.92,0.61 3.72,0.39 5.06,-0.63c0.57,-0.44 1.01,-0.97 1.33,-1.6c0.46,-0.89 0.68,-1.95 0.62,-3.14c-0.09,-1.87 -0.85,-3.84 -2.16,-5.55c-1.29,-1.71 -3,-2.97 -4.79,-3.54c-1.92,-0.63 -3.72,-0.4 -5.07,0.63zm-5.04,16.27c0.29,-0.31 0.53,-0.66 0.72,-1.03c0.62,-1.22 0.76,-2.71 0.37,-4.32c-0.46,-1.97 -1.67,-3.91 -3.39,-5.45c-1.73,-1.54 -3.78,-2.53 -5.79,-2.78c-2.15,-0.28 -3.99,0.32 -5.21,1.67c-2.38,2.66 -1.35,7.51 2.31,10.8c3.73,3.34 8.56,3.83 10.99,1.11zm16.9,29.85c2.27,-1.76 3.61,-4.46 3.66,-7.39c0.05,-3.05 1.48,-5.83 3.93,-7.63c1.23,-0.91 2.19,-2.06 2.87,-3.36c0.62,-1.2 0.98,-2.54 1.04,-3.93c0.06,-1.45 -0.24,-2.9 -0.86,-4.22c-0.62,-1.32 -1.55,-2.47 -2.71,-3.35c-1.63,-1.26 -3.65,-1.94 -5.71,-1.93c-2.07,0.02 -4.07,0.73 -5.69,2.01c-1.44,1.16 -3.29,1.71 -5.2,1.56c-2.94,-0.24 -6.91,0.42 -9.18,4.82l-0.05,0.09c-1.66,3.28 -1.16,6.78 1.41,10.12c1.23,1.58 1.84,3.45 1.71,5.26c-0.29,4.29 2.39,8.18 6.53,9.45c2.84,0.88 5.92,0.32 8.25,-1.5zm-18.79,-9.14c-1.5,-1.12 -3.52,-1.78 -5.67,-1.85c-4.65,-0.15 -8.39,2.39 -8.5,5.8c-0.1,3.4 3.45,6.19 8.1,6.34c2.15,0.06 4.2,-0.45 5.78,-1.47c0.99,-0.64 1.73,-1.44 2.19,-2.32c0.32,-0.63 0.51,-1.3 0.53,-2.01c0.05,-1.69 -0.81,-3.29 -2.43,-4.49zm-4.25,-8.46c0.18,-0.36 0.33,-0.74 0.41,-1.15c0.8,-3.49 -2.47,-7.21 -7.27,-8.3c-4.81,-1.08 -9.35,0.89 -10.14,4.39c-0.62,2.75 1.27,5.64 4.43,7.27c0.87,0.45 1.82,0.8 2.85,1.03c4.25,0.96 8.29,-0.47 9.72,-3.24z" fill="#7fd6b0" id="svg_52"/>
  </g>
  <g clip-path="url(#clip13_1_43)" id="svg_53" opacity="0.04" transform="matrix(1, 0, 0, 1, 0, 0)">
   <path d="m1324.75,385.03c-1.6,0.55 -2.8,1.92 -3.36,3.85c-0.52,1.8 -0.42,3.92 0.25,5.96c0.7,2.04 1.9,3.78 3.4,4.9c1.62,1.2 3.4,1.57 5.01,1.03c0.67,-0.23 1.26,-0.59 1.77,-1.08c0.72,-0.7 1.26,-1.63 1.59,-2.77c0.52,-1.8 0.43,-3.92 -0.26,-5.95c-0.68,-2.04 -1.88,-3.78 -3.4,-4.9c-1.62,-1.21 -3.4,-1.57 -5,-1.04zm-10.01,13.79c0.37,-0.2 0.72,-0.45 1.02,-0.74c0.98,-0.95 1.59,-2.32 1.74,-3.97c0.2,-2.01 -0.33,-4.24 -1.47,-6.25c-1.13,-2.01 -2.76,-3.61 -4.58,-4.5c-1.94,-0.94 -3.89,-0.98 -5.47,-0.09c-3.11,1.76 -3.69,6.68 -1.28,10.98c2.45,4.35 6.87,6.37 10.04,4.57zm6.41,33.71c2.73,-0.94 4.85,-3.07 5.85,-5.83c1.03,-2.88 3.27,-5.04 6.17,-5.96c1.45,-0.46 2.74,-1.24 3.8,-2.26c0.97,-0.94 1.74,-2.09 2.24,-3.38c0.53,-1.36 0.71,-2.83 0.55,-4.28c-0.16,-1.45 -0.67,-2.83 -1.49,-4.04c-1.14,-1.72 -2.83,-3.02 -4.79,-3.66c-1.96,-0.65 -4.09,-0.63 -6.03,0.07c-1.73,0.63 -3.67,0.56 -5.43,-0.2c-2.71,-1.17 -6.68,-1.82 -10.24,1.62l-0.08,0.07c-2.62,2.57 -3.28,6.04 -1.91,10.03c0.66,1.9 0.63,3.86 -0.07,5.54c-1.65,3.96 -0.36,8.5 3.14,11.05c2.41,1.74 5.51,2.19 8.29,1.23zm-14.85,-14.7c-1.07,-1.54 -2.76,-2.82 -4.78,-3.57c-4.35,-1.64 -8.7,-0.44 -9.91,2.75c-1.19,3.19 1.28,6.97 5.64,8.61c2.01,0.76 4.11,0.93 5.94,0.46c1.15,-0.28 2.11,-0.8 2.82,-1.48c0.51,-0.49 0.9,-1.08 1.15,-1.73c0.59,-1.59 0.29,-3.38 -0.86,-5.04zm-1.31,-9.38c0.29,-0.28 0.56,-0.59 0.77,-0.95c1.87,-3.05 -0.03,-7.63 -4.23,-10.2c-4.2,-2.57 -9.13,-2.16 -11.01,0.9c-1.47,2.4 -0.61,5.75 1.86,8.31c0.68,0.7 1.47,1.34 2.37,1.89c3.72,2.27 8,2.22 10.24,0.05z" fill="#7fd6b0" id="svg_54"/>
  </g>
  <g id="svg_55" opacity="0.04" transform="matrix(1, 0, 0, 1, 0, 0)">
   <path d="m937.23,359.01c-1.69,-0.39 -3.48,0.16 -5.01,1.54c-1.43,1.29 -2.5,3.2 -3.01,5.34c-0.49,2.15 -0.39,4.32 0.32,6.11c0.76,1.93 2.11,3.21 3.8,3.61c0.71,0.16 1.42,0.16 2.14,0.01c1,-0.22 1.98,-0.74 2.88,-1.55c1.43,-1.29 2.5,-3.19 3,-5.34c0.51,-2.14 0.4,-4.31 -0.32,-6.1c-0.75,-1.94 -2.11,-3.22 -3.8,-3.62zm-16.19,6.62c0.43,0.03 0.87,-0.01 1.29,-0.1c1.37,-0.3 2.64,-1.16 3.66,-2.52c1.26,-1.65 2.01,-3.88 2.11,-6.25c0.1,-2.37 -0.46,-4.64 -1.57,-6.4c-1.18,-1.88 -2.85,-2.96 -4.72,-3.04c-3.66,-0.15 -6.83,3.83 -7.06,8.88c-0.21,5.13 2.55,9.27 6.29,9.43zm-12.65,32.86c2.89,0.66 5.89,-0.04 8.25,-1.92c2.46,-1.95 5.59,-2.62 8.62,-1.86c1.51,0.39 3.06,0.4 4.53,0.09c1.36,-0.3 2.65,-0.88 3.79,-1.74c1.19,-0.9 2.15,-2.08 2.79,-3.43c0.64,-1.35 0.94,-2.84 0.89,-4.33c-0.07,-2.12 -0.84,-4.16 -2.2,-5.79c-1.36,-1.63 -3.23,-2.75 -5.3,-3.2c-1.86,-0.38 -3.5,-1.49 -4.63,-3.11c-1.73,-2.49 -4.84,-5.2 -9.81,-4.13l-0.1,0.02c-3.68,0.83 -6.13,3.5 -7.1,7.72c-0.45,2.01 -1.54,3.7 -3.05,4.79c-3.59,2.56 -4.93,7.22 -3.24,11.34c1.16,2.82 3.61,4.89 6.56,5.55zm-5,-20.85c-0.09,-1.92 -0.88,-3.95 -2.23,-5.7c-2.92,-3.79 -7.36,-5.09 -10.14,-2.96c-2.76,2.13 -2.65,6.77 0.26,10.55c1.35,1.76 3.09,3.04 4.93,3.63c1.16,0.37 2.27,0.44 3.26,0.22c0.71,-0.15 1.37,-0.45 1.94,-0.89c1.38,-1.06 2.09,-2.79 1.98,-4.85zm3.93,-8.89c0.41,-0.09 0.81,-0.22 1.19,-0.42c3.28,-1.65 4.1,-6.66 1.83,-11.18c-2.27,-4.51 -6.8,-6.83 -10.09,-5.18c-2.58,1.3 -3.64,4.69 -2.87,8.26c0.21,0.98 0.55,1.97 1.04,2.93c2.01,4 5.78,6.27 8.9,5.59z" fill="#7fd6b0" id="svg_56"/>
  </g>
  <g id="svg_57" opacity="0.04" transform="matrix(1, 0, 0, 1, 0, 0)">
   <path d="m466.23,359.01c-1.69,-0.39 -3.48,0.16 -5.01,1.54c-1.43,1.29 -2.5,3.2 -3.01,5.34c-0.49,2.15 -0.39,4.32 0.32,6.11c0.76,1.93 2.11,3.21 3.8,3.61c0.72,0.16 1.42,0.16 2.13,0.01c1.01,-0.22 1.99,-0.74 2.89,-1.55c1.43,-1.29 2.5,-3.19 3,-5.34c0.51,-2.14 0.4,-4.31 -0.32,-6.1c-0.75,-1.94 -2.11,-3.22 -3.8,-3.62zm-16.19,6.62c0.43,0.03 0.87,-0.01 1.29,-0.1c1.37,-0.3 2.64,-1.16 3.66,-2.52c1.26,-1.65 2.01,-3.88 2.11,-6.25c0.1,-2.37 -0.46,-4.64 -1.57,-6.4c-1.18,-1.88 -2.85,-2.96 -4.72,-3.04c-3.66,-0.15 -6.83,3.83 -7.06,8.88c-0.21,5.13 2.55,9.27 6.29,9.43zm-12.65,32.86c2.89,0.66 5.89,-0.04 8.25,-1.92c2.46,-1.95 5.59,-2.62 8.62,-1.86c1.51,0.39 3.06,0.4 4.53,0.09c1.36,-0.3 2.65,-0.88 3.79,-1.74c1.19,-0.9 2.15,-2.08 2.79,-3.43c0.64,-1.35 0.94,-2.84 0.89,-4.33c-0.07,-2.12 -0.84,-4.16 -2.2,-5.79c-1.36,-1.63 -3.23,-2.75 -5.3,-3.2c-1.86,-0.38 -3.5,-1.49 -4.63,-3.11c-1.73,-2.49 -4.84,-5.2 -9.81,-4.13l-0.1,0.02c-3.68,0.83 -6.13,3.5 -7.1,7.72c-0.45,2.01 -1.54,3.7 -3.05,4.79c-3.59,2.56 -4.93,7.22 -3.24,11.34c1.16,2.82 3.61,4.89 6.56,5.55zm-5,-20.85c-0.09,-1.92 -0.88,-3.95 -2.23,-5.7c-2.92,-3.79 -7.36,-5.09 -10.14,-2.96c-2.76,2.13 -2.65,6.77 0.26,10.55c1.35,1.76 3.09,3.04 4.93,3.63c1.16,0.37 2.27,0.44 3.26,0.22c0.71,-0.15 1.37,-0.45 1.94,-0.89c1.38,-1.06 2.09,-2.79 1.98,-4.85zm3.93,-8.89c0.41,-0.09 0.81,-0.22 1.19,-0.42c3.28,-1.65 4.1,-6.66 1.83,-11.18c-2.28,-4.51 -6.8,-6.83 -10.09,-5.18c-2.58,1.3 -3.64,4.69 -2.87,8.26c0.21,0.98 0.55,1.97 1.04,2.93c2.01,4 5.78,6.27 8.9,5.59z" fill="#7fd6b0" id="svg_58"/>
  </g>
  <g clip-path="url(#clip14_1_43)" id="svg_59" opacity="0.03" transform="matrix(1, 0, 0, 1, 0, 0)">
   <path d="m174.8,155.04c0.12,-2.19 -0.95,-4.29 -3,-5.91c-1.91,-1.5 -4.51,-2.42 -7.29,-2.59c-2.78,-0.16 -5.47,0.44 -7.55,1.71c-2.23,1.36 -3.54,3.32 -3.67,5.51c-0.05,0.92 0.1,1.81 0.45,2.66c0.48,1.2 1.34,2.31 2.55,3.26c1.92,1.5 4.5,2.42 7.29,2.58c2.78,0.18 5.46,-0.43 7.54,-1.7c2.25,-1.36 3.55,-3.33 3.68,-5.52zm-11.73,-18.74c0.06,0.54 0.21,1.08 0.41,1.58c0.66,1.64 2.02,3.05 3.92,4.03c2.33,1.21 5.26,1.66 8.24,1.27c2.97,-0.38 5.68,-1.56 7.64,-3.33c2.08,-1.87 3.07,-4.19 2.76,-6.53c-0.6,-4.59 -6.23,-7.69 -12.57,-6.88c-6.44,0.84 -11.01,5.17 -10.4,9.86zm-43.66,-8.68c-0.19,3.74 1.33,7.33 4.17,9.87c2.96,2.63 4.48,6.39 4.17,10.33c-0.15,1.96 0.16,3.89 0.88,5.66c0.65,1.63 1.66,3.11 2.97,4.34c1.38,1.3 3.06,2.24 4.88,2.74c1.82,0.51 3.74,0.57 5.59,0.18c2.62,-0.54 5,-1.94 6.73,-3.99c1.74,-2.04 2.74,-4.61 2.84,-7.29c0.08,-2.39 1.11,-4.68 2.88,-6.43c2.73,-2.69 5.44,-7.15 3.04,-13.11l-0.05,-0.13c-1.82,-4.4 -5.68,-6.88 -11.14,-7.18c-2.6,-0.13 -4.95,-1.12 -6.62,-2.77c-3.97,-3.92 -10.06,-4.58 -14.83,-1.59c-3.26,2.05 -5.31,5.55 -5.51,9.37zm24.9,-10.72c2.38,-0.53 4.73,-1.95 6.62,-4.01c4.09,-4.44 4.76,-10.26 1.51,-13.26c-3.26,-2.98 -9,-1.85 -13.09,2.59c-1.89,2.06 -3.12,4.51 -3.45,6.93c-0.22,1.51 -0.06,2.92 0.42,4.11c0.34,0.85 0.85,1.6 1.52,2.22c1.62,1.49 3.92,2 6.47,1.42zm11.92,2.98c0.2,0.49 0.45,0.96 0.78,1.39c2.76,3.74 9.19,3.68 14.32,-0.13c5.13,-3.8 7.04,-9.93 4.28,-13.68c-2.18,-2.93 -6.62,-3.53 -10.91,-1.8c-1.17,0.48 -2.33,1.12 -3.42,1.94c-4.54,3.36 -6.56,8.54 -5.05,12.28z" fill="#7fd6b0" id="svg_60"/>
  </g>
  <g id="svg_61" opacity="0.03" transform="matrix(1, 0, 0, 1, 0, 0)">
   <path d="m1306.99,167.38c0.82,-2.03 0.48,-4.36 -0.94,-6.56c-1.33,-2.03 -3.5,-3.73 -6.07,-4.79c-2.59,-1.05 -5.32,-1.34 -7.7,-0.81c-2.55,0.58 -4.42,2.01 -5.25,4.04c-0.34,0.86 -0.48,1.75 -0.43,2.66c0.07,1.3 0.53,2.62 1.37,3.92c1.33,2.03 3.48,3.73 6.07,4.78c2.58,1.06 5.31,1.35 7.69,0.81c2.56,-0.56 4.43,-2.01 5.26,-4.05zm-5.08,-21.51c-0.12,0.54 -0.16,1.09 -0.13,1.63c0.1,1.77 0.93,3.53 2.43,5.07c1.81,1.9 4.44,3.27 7.38,3.86c2.94,0.59 5.89,0.34 8.31,-0.7c2.57,-1.11 4.25,-2.99 4.72,-5.3c0.9,-4.54 -3.44,-9.29 -9.7,-10.55c-6.36,-1.28 -12.08,1.35 -13.01,5.99zm-38.56,-22.25c-1.38,3.48 -1.1,7.37 0.78,10.68c1.95,3.45 2.18,7.49 0.63,11.13c-0.78,1.81 -1.1,3.74 -0.99,5.64c0.09,1.75 0.57,3.48 1.42,5.07c0.89,1.67 2.17,3.1 3.74,4.16c1.56,1.07 3.35,1.74 5.23,1.96c2.66,0.34 5.36,-0.23 7.66,-1.61c2.3,-1.38 4.07,-3.49 5.03,-5.99c0.85,-2.24 2.56,-4.08 4.79,-5.17c3.45,-1.67 7.46,-5.02 7.09,-11.43l0,-0.14c-0.31,-4.75 -3.17,-8.34 -8.24,-10.38c-2.42,-0.96 -4.33,-2.65 -5.38,-4.75c-2.5,-4.99 -8.06,-7.57 -13.53,-6.27c-3.75,0.89 -6.82,3.55 -8.23,7.1zm27.02,-2.15c2.43,0.26 5.11,-0.32 7.56,-1.67c5.3,-2.89 7.8,-8.19 5.69,-12.07c-2.12,-3.87 -7.93,-4.65 -13.23,-1.76c-2.45,1.35 -4.4,3.27 -5.49,5.45c-0.7,1.37 -1,2.75 -0.93,4.03c0.06,0.92 0.3,1.8 0.73,2.6c1.06,1.93 3.07,3.15 5.67,3.42zm10.33,6.66c0.03,0.52 0.12,1.05 0.29,1.56c1.42,4.43 7.52,6.44 13.61,4.48c6.08,-1.95 9.86,-7.14 8.44,-11.58c-1.11,-3.48 -5.13,-5.47 -9.74,-5.21c-1.27,0.07 -2.57,0.31 -3.87,0.73c-5.38,1.73 -8.95,5.99 -8.73,10.02z" fill="#7fd6b0" id="svg_62"/>
  </g>
  <g clip-path="url(#clip15_1_43)" id="svg_63" opacity="0.03" transform="matrix(1, 0, 0, 1, 0, 0)">
   <path d="m1011.35,191.29c0.99,-0.72 1.51,-1.92 1.48,-3.38c-0.03,-1.35 -0.55,-2.79 -1.46,-4.04c-0.92,-1.26 -2.13,-2.2 -3.4,-2.65c-1.38,-0.47 -2.68,-0.34 -3.67,0.38c-0.41,0.3 -0.74,0.68 -0.98,1.13c-0.35,0.63 -0.52,1.39 -0.5,2.25c0.03,1.35 0.55,2.79 1.46,4.04c0.91,1.26 2.12,2.2 3.4,2.64c1.38,0.48 2.68,0.35 3.67,-0.37zm3.91,-11.66c-0.21,0.22 -0.39,0.47 -0.54,0.73c-0.47,0.87 -0.59,1.95 -0.34,3.11c0.3,1.43 1.14,2.85 2.36,3.99c1.22,1.14 2.68,1.89 4.13,2.1c1.54,0.24 2.89,-0.16 3.79,-1.12c1.76,-1.88 1.1,-5.39 -1.49,-7.83c-2.64,-2.47 -6.11,-2.9 -7.91,-0.98zm-11.7,-21.82c-1.68,1.23 -2.68,3.16 -2.77,5.27c-0.08,2.21 -1.16,4.18 -2.96,5.45c-0.9,0.63 -1.62,1.44 -2.12,2.37c-0.47,0.86 -0.75,1.82 -0.82,2.82c-0.07,1.05 0.12,2.1 0.55,3.06c0.42,0.96 1.07,1.8 1.9,2.46c1.16,0.94 2.6,1.46 4.09,1.48c1.49,0.03 2.95,-0.45 4.13,-1.35c1.06,-0.81 2.41,-1.18 3.79,-1.04c2.11,0.22 4.99,-0.19 6.7,-3.33l0.04,-0.06c1.24,-2.34 0.95,-4.87 -0.86,-7.32c-0.86,-1.17 -1.26,-2.53 -1.14,-3.83c0.28,-3.09 -1.59,-5.94 -4.56,-6.93c-2.03,-0.68 -4.26,-0.32 -5.97,0.95zm13.4,6.91c1.07,0.83 2.51,1.34 4.06,1.42c3.36,0.19 6.09,-1.58 6.23,-4.04c0.13,-2.45 -2.38,-4.52 -5.74,-4.71c-1.55,-0.08 -3.03,0.26 -4.19,0.97c-0.73,0.44 -1.28,1.01 -1.62,1.63c-0.24,0.45 -0.39,0.94 -0.42,1.44c-0.06,1.22 0.53,2.39 1.68,3.29zm2.93,6.17c-0.14,0.26 -0.25,0.53 -0.32,0.82c-0.63,2.51 1.67,5.25 5.12,6.11c3.44,0.86 6.75,-0.48 7.39,-3c0.49,-1.97 -0.83,-4.09 -3.08,-5.32c-0.62,-0.34 -1.31,-0.61 -2.05,-0.79c-3.05,-0.76 -5.98,0.21 -7.06,2.18z" fill="#27a274" id="svg_64"/>
  </g>
  <g clip-path="url(#clip16_1_43)" id="svg_65" opacity="0.03" transform="matrix(1, 0, 0, 1, 0, 0)">
   <path d="m540.35,191.29c0.99,-0.72 1.51,-1.92 1.48,-3.38c-0.03,-1.35 -0.55,-2.79 -1.46,-4.04c-0.92,-1.26 -2.12,-2.2 -3.4,-2.65c-1.38,-0.47 -2.68,-0.34 -3.67,0.38c-0.41,0.3 -0.74,0.68 -0.98,1.13c-0.35,0.63 -0.52,1.39 -0.5,2.25c0.03,1.35 0.55,2.79 1.46,4.04c0.91,1.26 2.12,2.2 3.4,2.64c1.38,0.48 2.68,0.35 3.67,-0.37zm3.91,-11.66c-0.21,0.22 -0.39,0.47 -0.54,0.73c-0.47,0.87 -0.59,1.95 -0.34,3.11c0.3,1.43 1.14,2.85 2.36,3.99c1.22,1.14 2.68,1.89 4.13,2.1c1.54,0.24 2.89,-0.16 3.78,-1.12c1.76,-1.88 1.11,-5.39 -1.48,-7.83c-2.64,-2.47 -6.11,-2.9 -7.91,-0.98zm-11.7,-21.82c-1.68,1.23 -2.68,3.16 -2.77,5.27c-0.08,2.21 -1.16,4.18 -2.96,5.45c-0.9,0.63 -1.62,1.44 -2.12,2.37c-0.47,0.86 -0.75,1.82 -0.82,2.82c-0.07,1.05 0.12,2.1 0.55,3.06c0.42,0.96 1.07,1.8 1.9,2.46c1.16,0.94 2.6,1.46 4.09,1.48c1.49,0.03 2.95,-0.45 4.14,-1.35c1.05,-0.81 2.4,-1.18 3.78,-1.04c2.12,0.22 4.99,-0.19 6.7,-3.33l0.04,-0.06c1.25,-2.34 0.95,-4.87 -0.85,-7.32c-0.87,-1.17 -1.27,-2.53 -1.15,-3.83c0.28,-3.09 -1.59,-5.94 -4.56,-6.93c-2.03,-0.68 -4.26,-0.32 -5.97,0.95zm13.4,6.91c1.07,0.83 2.51,1.34 4.06,1.42c3.36,0.19 6.09,-1.58 6.23,-4.04c0.13,-2.45 -2.38,-4.52 -5.74,-4.71c-1.55,-0.08 -3.03,0.26 -4.19,0.97c-0.73,0.44 -1.28,1.01 -1.62,1.63c-0.24,0.45 -0.39,0.94 -0.42,1.44c-0.06,1.22 0.53,2.39 1.68,3.29zm2.93,6.17c-0.14,0.26 -0.25,0.53 -0.32,0.82c-0.63,2.51 1.67,5.25 5.12,6.11c3.44,0.86 6.75,-0.48 7.39,-3c0.49,-1.97 -0.83,-4.09 -3.08,-5.32c-0.62,-0.34 -1.31,-0.61 -2.05,-0.79c-3.05,-0.76 -5.98,0.21 -7.06,2.18z" fill="#27a274" id="svg_66"/>
  </g>
 </g>
</svg>