<svg width="1440" height="200" viewBox="0 0 1440 200" fill="none" xmlns="http://www.w3.org/2000/svg">
<rect width="1440" height="200" fill="#2F2D53"/>
<g opacity="0.03">
<mask id="mask0_803_6856" style="mask-type:alpha" maskUnits="userSpaceOnUse" x="0" y="0" width="1440" height="200">
<rect width="1440" height="200" fill="#2F2D53"/>
</mask>
<g mask="url(#mask0_803_6856)">
<path d="M368.248 149.056C384.769 149.056 398.163 129.098 398.163 104.479C398.163 79.8591 384.769 59.9011 368.248 59.9011C351.727 59.9011 338.333 79.8591 338.333 104.479C338.333 129.098 351.727 149.056 368.248 149.056Z" fill="#FF5B2E"/>
<path d="M852.621 105.877C881.137 105.702 904.327 118.948 904.438 135.469C904.548 151.99 881.523 139.646 853.007 139.82C824.491 139.995 801.282 152.634 801.181 136.141C801.08 119.647 824.104 106.107 852.621 105.877Z" fill="#FF5B2E"/>
<path d="M559.577 117.821C563.349 104.237 556.883 90.5801 545.135 87.3176C533.387 84.0551 520.805 92.4223 517.032 106.006C513.26 119.59 519.726 133.247 531.474 136.509C543.223 139.772 555.805 131.405 559.577 117.821Z" fill="#FF5B2E"/>
<path d="M1164.14 75.4326C1170.17 65.6424 1167.13 52.8118 1157.34 46.7747C1147.55 40.7376 1134.72 43.78 1128.68 53.5703C1122.64 63.3605 1125.69 76.1911 1135.48 82.2282C1145.27 88.2653 1158.1 85.2228 1164.14 75.4326Z" fill="#FF5B2E"/>
<path d="M1352.25 193.836H1255.79C1255.79 193.726 1255.79 193.624 1255.72 193.514C1255.67 193.234 1255.6 192.958 1255.51 192.686L1255.44 192.447C1255.05 191.231 1254.51 190.072 1253.82 188.997C1253.76 188.896 1253.7 188.804 1253.62 188.694C1253.55 188.583 1253.36 188.317 1253.2 188.114L1253.09 187.976C1252.97 187.811 1252.84 187.636 1252.71 187.48C1252.57 187.323 1252.25 186.946 1251.96 186.633L1251.88 186.56C1248.38 183.075 1243.76 180.941 1238.84 180.534C1241.21 161.925 1243.59 135.626 1242.64 109.777C1242.44 104.258 1242.09 98.8121 1241.57 93.44C1239.04 67.9685 1232.44 44.6863 1218.36 32.0195C1216.95 30.7379 1215.45 29.5662 1213.87 28.5147C1212.45 27.559 1210.97 26.6986 1209.44 25.9391C1156.71 0.0444081 1114.7 21.0453 1099.06 31.2744C1089.04 37.8331 1078.1 43.6928 1065.15 44.2171C1063.17 44.3003 1061.19 44.2511 1059.22 44.0699C1057.05 43.8873 1054.9 43.5616 1052.78 43.0949C1045.99 41.6047 1039.15 45.0634 1033.52 52.8088C1029.86 58.0448 1027.17 63.8921 1025.57 70.075C1025.06 71.9148 1024.65 73.8557 1024.26 75.8335C1021.37 91.3611 1023.25 109.722 1032.36 125.268C1036.04 131.597 1039.77 137.374 1043.04 142.479C1052.7 157.593 1059.65 168.456 1060.16 181.031C1058.35 180.612 1056.49 180.402 1054.64 180.406C1044.88 180.406 1036.69 186.118 1035.16 193.836H993.767C993.767 193.606 993.657 193.376 993.583 193.118L993.51 192.888C993.128 191.671 992.584 190.51 991.891 189.439C991.836 189.338 991.771 189.246 991.707 189.135L991.284 188.556L991.164 188.409C991.045 188.234 990.916 188.077 990.787 187.921C990.658 187.765 990.327 187.388 990.033 187.075L989.959 187.001C987.907 184.991 985.474 183.411 982.803 182.354C980.131 181.297 977.276 180.785 974.404 180.847C967.385 180.847 961.176 183.8 957.681 188.344C956.587 178.52 954.234 168.877 950.68 159.653C957.82 150.402 962.561 139.528 964.478 128C965.021 124.605 965.292 121.172 965.288 117.734C965.288 116.814 965.288 115.848 965.224 114.919C965.115 112.208 964.83 109.507 964.368 106.833C963.717 102.912 962.713 99.0574 961.369 95.3165C958.38 87.0714 953.951 79.4221 948.289 72.7243C950.312 62.394 947.911 37.7687 939.209 35.9842C933.819 34.8987 927.251 42.8465 922.587 51.4934C906.029 42.0278 885.718 36.4533 863.843 36.4533C841.969 36.4533 821.676 42.037 805.1 51.5026C800.399 42.8465 793.859 34.8987 788.477 35.9842C779.775 37.7227 777.365 62.394 779.389 72.7243C773.753 79.3964 769.332 87.0058 766.327 95.2062C764.993 98.8974 763.986 102.699 763.319 106.567C762.83 109.281 762.523 112.026 762.399 114.781C762.344 115.756 762.325 116.741 762.325 117.734C762.323 121.122 762.585 124.505 763.107 127.853C764.992 139.446 769.734 150.387 776.905 159.69C773.222 169.285 770.843 179.331 769.831 189.558C769.816 189.516 769.794 189.476 769.767 189.439C769.712 189.338 769.647 189.246 769.574 189.135C769.5 189.025 769.298 188.749 769.151 188.556L769.04 188.409C768.922 188.238 768.793 188.075 768.654 187.921C768.433 187.645 768.194 187.388 767.909 187.075L767.826 187.001C765.776 184.99 763.345 183.41 760.675 182.353C758.005 181.296 755.151 180.784 752.28 180.847C742.704 180.847 734.655 186.366 732.907 193.836H707.151C707.082 193.241 706.978 192.652 706.838 192.07C706.783 191.803 706.709 191.536 706.626 191.233L706.544 191.012C706.167 189.794 705.626 188.633 704.934 187.562C704.879 187.461 704.814 187.36 704.741 187.25C704.667 187.139 704.465 186.863 704.318 186.679L704.207 186.532C704.087 186.357 703.959 186.201 703.821 186.035C703.683 185.87 703.361 185.502 703.076 185.198L702.993 185.115C700.943 183.105 698.512 181.524 695.842 180.467C693.172 179.41 690.318 178.898 687.447 178.961C685.078 178.956 682.721 179.306 680.456 180.001C680.68 171.75 681.544 163.529 683.041 155.412C683.041 155.412 683.041 155.357 683.041 155.33C689.912 147.115 695.707 135.635 699.433 121.91C704.152 104.534 699.028 72.3747 680.235 47.0136C668.598 31.2928 647.119 12.334 610.977 11.2394C564.983 9.84114 540.956 34.8711 528.878 56.4239C512.035 80.0281 485.919 119.896 488.642 136.932C491.705 156.13 500.159 160.849 504.464 161.98C505.456 164.378 506.618 166.702 507.941 168.935C509.877 172.202 511.521 175.635 512.853 179.191C504.381 180.415 497.73 186.017 496.765 193.192C496.719 193.394 496.682 193.606 496.654 193.808H457.789C457.716 193.238 457.614 192.677 457.486 192.116C457.421 191.858 457.357 191.582 457.265 191.297L457.191 191.058C456.805 189.844 456.264 188.684 455.581 187.608C455.508 187.507 455.453 187.415 455.379 187.296L454.965 186.725L454.855 186.587C454.726 186.412 454.597 186.247 454.459 186.09C454.224 185.794 453.972 185.512 453.705 185.244L453.631 185.171C451.585 183.158 449.155 181.575 446.487 180.516C443.818 179.458 440.965 178.945 438.094 179.007C430.046 179.007 423.082 182.88 420.019 188.574C417.86 182.969 415.268 177.54 412.264 172.338C421.636 153.982 426.483 133.652 426.403 113.043C426.403 83.6893 416.882 56.8471 401.216 36.3889C401.357 35.3801 401.428 34.3627 401.428 33.3441C401.428 22.8851 394.216 -1.02265 385.302 -1.02265C381.007 -1.02265 377.125 4.49663 374.264 11.4141C359.8 2.00721 342.916 -3 325.662 -3C308.408 -3 291.524 2.00721 277.06 11.4141C274.172 4.50583 270.29 -1.02265 266.021 -1.02265C257.099 -1.02265 249.887 22.8943 249.887 33.3441C249.884 34.3594 249.951 35.3738 250.089 36.3797C234.451 56.8471 224.903 83.6801 224.903 113.043C224.811 133.649 229.646 153.979 239.004 172.338C236.591 176.549 234.441 180.906 232.565 185.382L232.446 185.253L232.372 185.18C230.324 183.168 227.895 181.587 225.226 180.529C222.558 179.47 219.705 178.956 216.835 179.017C206.717 179.017 198.318 185.134 197.223 193.275C197.223 193.45 197.159 193.633 197.131 193.817H113.827C113.107 193.859 112.43 194.174 111.935 194.698C111.44 195.222 111.164 195.916 111.164 196.637C111.164 197.358 111.44 198.052 111.935 198.576C112.43 199.1 113.107 199.415 113.827 199.456H197.288C197.887 202.156 199.244 204.628 201.199 206.583C203.155 208.539 205.627 209.896 208.326 210.495C210.819 212.354 213.845 213.36 216.955 213.365C219.839 213.373 222.658 212.508 225.041 210.881C225.651 210.466 226.229 210.005 226.77 209.502C228.554 208.876 230.2 207.91 231.618 206.659C233.775 204.727 235.327 202.213 236.088 199.42H418.565C419.021 201.469 419.915 203.396 421.185 205.068C422.455 206.74 424.072 208.117 425.924 209.106C427.091 209.75 428.346 210.218 429.65 210.495C432.143 212.354 435.169 213.36 438.278 213.365C441.923 213.374 445.433 211.992 448.094 209.502C450.353 208.701 452.384 207.361 454.008 205.598C455.632 203.834 456.8 201.701 457.412 199.383H496.866C497.469 202.08 498.827 204.551 500.782 206.505C502.737 208.46 505.207 209.818 507.904 210.421C510.278 212.193 513.14 213.192 516.1 213.282H516.533C520.173 213.269 523.675 211.89 526.348 209.419C528.59 208.625 530.606 207.3 532.224 205.557C533.842 203.814 535.014 201.705 535.639 199.41H667.927C669.909 203.085 672.715 206.249 676.126 208.656C679.537 211.063 683.459 212.647 687.585 213.282C691.234 213.288 694.749 211.907 697.418 209.419C699.657 208.62 701.671 207.293 703.288 205.551C704.905 203.809 706.079 201.702 706.709 199.41H732.466C732.759 202.479 734.015 205.377 736.053 207.69C738.092 210.003 740.809 211.612 743.817 212.289C748.206 213.881 752.968 214.136 757.501 213.019C762.034 211.902 766.133 209.464 769.28 206.015C770.691 204.06 771.604 201.789 771.938 199.401H954.673C954.98 202.517 956.268 205.454 958.352 207.79C963.206 211.36 968.756 213.867 974.643 215.15C978.289 215.154 981.801 213.773 984.467 211.286C987.014 210.38 989.263 208.793 990.969 206.698C992.675 204.602 993.774 202.078 994.145 199.401H1034.91C1036.64 203.452 1039.38 206.99 1042.87 209.671C1046.36 212.353 1050.48 214.088 1054.84 214.708C1058.48 214.718 1061.99 213.336 1064.65 210.844C1067.13 209.982 1069.33 208.473 1071.03 206.474C1072.73 204.475 1073.86 202.059 1074.31 199.475H1216.61C1218.33 203.522 1221.07 207.056 1224.56 209.738C1228.05 212.419 1232.17 214.156 1236.52 214.782C1240.17 214.792 1243.69 213.41 1246.36 210.918C1248.83 210.037 1251.03 208.512 1252.72 206.501C1254.41 204.489 1255.53 202.064 1255.97 199.475H1352.28C1353 199.434 1353.68 199.119 1354.17 198.594C1354.67 198.07 1354.95 197.376 1354.95 196.655C1354.95 195.934 1354.67 195.24 1354.17 194.716C1353.68 194.192 1353 193.877 1352.28 193.836H1352.25ZM230.109 191.656C229.852 192.373 229.613 193.091 229.373 193.808C228.76 195.648 228.184 197.528 227.644 199.447C227.276 200.763 226.945 202.078 226.623 203.403C225.967 203.807 225.258 204.117 224.516 204.323L223.799 204.534L223.284 205.058C221.741 206.658 219.65 207.614 217.431 207.734C215.212 207.853 213.03 207.127 211.325 205.702L210.746 205.215L209.991 205.095C208.468 204.826 207.041 204.166 205.848 203.182C204.655 202.197 203.737 200.92 203.184 199.475C202.787 198.419 202.585 197.3 202.586 196.172C202.589 195.555 202.651 194.939 202.77 194.333V194.13C202.79 194.042 202.806 193.953 202.816 193.864C203.644 188.703 209.725 184.665 216.808 184.665C221.324 184.665 225.62 186.32 228.288 189.089L228.371 189.181C228.527 189.356 228.693 189.522 228.84 189.706L229.116 190.064L229.189 190.156C229.272 190.267 229.346 190.368 229.447 190.524L229.566 190.699C229.76 191.012 229.944 191.343 230.1 191.619L230.109 191.656ZM236.502 193.808C236.436 193.239 236.338 192.674 236.208 192.116C236.171 191.981 236.134 191.834 236.098 191.674C238.402 185.481 241.265 179.511 244.653 173.838C244.73 173.7 244.801 173.559 244.864 173.415C244.89 173.336 244.911 173.256 244.929 173.175V173.093V172.964C244.929 172.89 244.929 172.826 244.929 172.761C244.929 172.697 244.929 172.715 244.929 172.697C244.938 172.602 244.938 172.507 244.929 172.412V171.713L244.616 171.133L244.542 170.995C235.15 153.127 230.286 133.228 230.376 113.043C230.376 86.4857 238.48 62.1088 251.993 43.0397C259.241 32.6957 268.369 23.8057 278.9 16.8323C292.685 7.57968 308.912 2.63882 325.515 2.63882C342.117 2.63882 358.344 7.57968 372.13 16.8323C382.688 23.7967 391.844 32.6837 399.119 43.0305C412.632 62.0996 420.736 86.4765 420.736 113.033C420.823 133.237 415.956 153.155 406.561 171.041C406.557 171.069 406.557 171.097 406.561 171.124C406.536 171.182 406.505 171.238 406.469 171.29V171.372C406.464 171.406 406.464 171.44 406.469 171.474C406.412 171.631 406.372 171.795 406.349 171.961C406.345 171.982 406.345 172.004 406.349 172.025C406.345 172.056 406.345 172.087 406.349 172.117C406.345 172.2 406.345 172.283 406.349 172.366V172.421C406.349 172.504 406.349 172.577 406.349 172.651C406.349 172.725 406.349 172.817 406.349 172.918C406.344 172.997 406.344 173.077 406.349 173.157V173.277C406.349 173.277 406.349 173.368 406.395 173.405C406.458 173.564 406.531 173.718 406.616 173.865C410.388 180.192 413.513 186.883 415.944 193.836L236.502 193.808ZM451.405 199.447C450.877 200.618 450.102 201.662 449.134 202.507C448.165 203.351 447.026 203.977 445.794 204.341L445.086 204.553L444.561 205.077C443.019 206.677 440.928 207.633 438.709 207.752C436.49 207.872 434.308 207.146 432.603 205.721L432.023 205.233L431.269 205.114C429.731 204.85 428.29 204.188 427.087 203.194C425.885 202.2 424.964 200.908 424.416 199.447C424.016 198.392 423.81 197.273 423.809 196.145C423.81 195.527 423.875 194.91 424.002 194.305V194.103C424.002 194.02 424.002 193.919 424.002 193.836C424.839 188.675 430.919 184.637 437.993 184.637C442.51 184.637 446.806 186.293 449.473 189.062L449.556 189.154C449.713 189.328 449.878 189.494 450.025 189.678L450.301 190.037L450.375 190.129L450.642 190.497L450.752 190.671C451.164 191.319 451.489 192.018 451.718 192.75V192.879C451.764 193.045 451.801 193.201 451.838 193.394C451.876 193.527 451.907 193.663 451.93 193.799C452.053 194.386 452.114 194.984 452.113 195.584C452.165 196.917 451.923 198.245 451.405 199.475V199.447ZM501.898 154.18C499.138 151.632 495.854 146.471 494.18 136.049C492.506 125.627 505.016 102.142 518.961 80.1845C518.501 81.8127 518.161 83.1649 517.931 84.186C517.004 86.74 515.888 89.2214 514.592 91.6094C508.144 104.672 495.872 129.453 501.898 154.207V154.18ZM529.623 199.447C529.085 200.598 528.311 201.622 527.35 202.452C526.389 203.283 525.264 203.901 524.048 204.267L523.303 204.534L522.788 205.058L522.622 205.224C521.035 206.783 518.914 207.681 516.689 207.735H516.478C514.422 207.739 512.431 207.016 510.857 205.693L510.278 205.215L509.523 205.095C507.998 204.836 506.567 204.183 505.37 203.203C504.173 202.222 503.252 200.947 502.698 199.502C502.275 198.424 502.06 197.275 502.063 196.117C502.066 195.499 502.127 194.883 502.247 194.277V194.075V193.882C502.974 189.117 508.171 185.327 514.509 184.683C515.089 184.628 515.659 184.6 516.248 184.6C517.685 184.599 519.118 184.769 520.516 185.106C523.246 185.701 525.751 187.06 527.737 189.025L527.82 189.108C527.976 189.282 528.133 189.448 528.289 189.641L528.556 189.991L528.638 190.092C528.732 190.209 528.818 190.332 528.896 190.46L529.006 190.635C529.42 191.283 529.747 191.982 529.982 192.714V192.842C530.027 192.999 530.064 193.164 530.101 193.358C530.138 193.551 530.175 193.68 530.202 193.836C530.317 194.396 530.376 194.966 530.377 195.538C530.418 196.89 530.161 198.234 529.623 199.475V199.447ZM667.817 193.192C667.817 193.394 667.743 193.606 667.715 193.808H536.043C535.978 193.214 535.877 192.624 535.74 192.042C535.666 191.775 535.602 191.509 535.519 191.205L535.446 190.984C535.062 189.767 534.517 188.607 533.827 187.535L533.633 187.222L533.22 186.652L533.109 186.504L532.723 186.008C532.493 185.741 532.254 185.474 531.959 185.171L531.886 185.088C528.377 181.606 523.75 179.475 518.823 179.072C517.247 174.544 515.219 170.186 512.77 166.065C511.605 164.098 510.582 162.05 509.707 159.938C509.349 159.074 509.027 158.2 508.723 157.326C500.306 133.151 513.129 107.303 519.624 94.1483C521.638 90.064 522.963 87.378 523.404 85.483C526.164 73.6717 543.163 14.8361 610.793 16.8874C644.682 17.9177 664.79 35.6622 675.691 50.3803C692.782 73.4418 698.412 104.12 693.969 120.448C686.315 148.605 669.196 166.994 654.156 163.231C647.57 161.594 643.063 158.365 640.358 153.398C635.28 143.96 636.679 127.853 644.525 105.564C659.381 63.2495 644.111 48.6602 643.458 48.053C643.19 47.8007 642.875 47.6044 642.53 47.4759C642.185 47.3473 641.818 47.289 641.45 47.3045C641.082 47.3199 640.721 47.4087 640.389 47.5657C640.056 47.7227 639.758 47.9447 639.512 48.2186C639.005 48.7629 638.732 49.4847 638.753 50.2282C638.774 50.9716 639.086 51.6772 639.622 52.1925C639.751 52.3121 652.675 65.3376 639.208 103.706C630.69 127.936 629.457 145.101 635.4 156.139C638.822 162.505 644.663 166.755 652.767 168.778C660.669 170.747 668.792 168.254 676.178 162.229C675.235 169.042 674.743 175.91 674.707 182.788C672.889 183.945 671.337 185.472 670.149 187.269C668.962 189.067 668.167 191.094 667.817 193.22V193.192ZM700.712 199.447C700.174 200.6 699.399 201.625 698.436 202.456C697.474 203.287 696.346 203.904 695.128 204.267L694.401 204.534L693.886 205.058C693.068 205.908 692.086 206.582 691 207.043C689.914 207.503 688.746 207.738 687.566 207.735C686.131 207.74 684.718 207.386 683.455 206.705C682.917 206.423 682.411 206.084 681.946 205.693L681.366 205.215L680.621 205.095C679.334 204.873 678.11 204.374 677.034 203.633C675.57 202.611 674.448 201.172 673.814 199.502C673.38 198.427 673.158 197.277 673.161 196.117C673.158 195.499 673.223 194.882 673.354 194.277V194.075V193.882C673.564 192.547 674.098 191.284 674.909 190.202C676.324 188.347 678.211 186.904 680.373 186.026C682.584 185.1 684.958 184.628 687.355 184.637C691.881 184.637 696.177 186.293 698.835 189.062L698.918 189.145C699.084 189.314 699.24 189.492 699.387 189.678C699.489 189.788 699.585 189.905 699.672 190.028L699.736 190.129C699.833 190.246 699.922 190.368 700.003 190.497L700.114 190.671C700.531 191.316 700.856 192.016 701.08 192.75V192.879C701.126 193.036 701.171 193.201 701.217 193.394C701.263 193.588 701.291 193.716 701.319 193.873C701.426 194.434 701.482 195.003 701.484 195.574C701.518 196.916 701.254 198.248 700.712 199.475V199.447ZM766.198 199.447C765.848 201.017 765.086 202.466 763.989 203.643C762.893 204.82 761.502 205.683 759.961 206.144L759.253 206.355L758.738 206.88C757.194 208.478 755.103 209.432 752.885 209.552C750.667 209.671 748.485 208.947 746.779 207.524L746.2 207.036L745.455 206.917C743.599 206.602 741.889 205.712 740.568 204.371C739.247 203.03 738.382 201.307 738.096 199.447C738.006 198.952 737.963 198.451 737.967 197.948C737.968 197.33 738.033 196.713 738.16 196.108V195.906C738.25 195.193 738.439 194.497 738.721 193.836C740.561 189.586 745.97 186.477 752.188 186.477C756.714 186.477 761.01 188.133 763.668 190.911L763.751 190.993C763.917 191.159 764.074 191.334 764.22 191.518C764.325 191.63 764.42 191.749 764.505 191.877L764.57 191.969C764.653 192.079 764.745 192.189 764.837 192.336L764.947 192.511C765.22 192.929 765.451 193.373 765.637 193.836C765.746 194.081 765.839 194.333 765.913 194.59V194.719C765.913 194.885 766.005 195.041 766.051 195.234C766.222 195.948 766.312 196.68 766.318 197.414C766.357 198.103 766.317 198.795 766.198 199.475V199.447ZM775.102 193.808C775.766 183.877 777.778 174.083 781.082 164.694C781.606 163.195 782.167 161.723 782.765 160.26C782.941 159.804 782.997 159.311 782.926 158.827C782.855 158.344 782.66 157.887 782.36 157.501C781.348 156.222 780.401 154.925 779.499 153.591C774.351 146.203 770.801 137.822 769.077 128.984C773.033 129.306 776.05 128.432 776.795 126.436C777.834 123.676 774.035 119.565 768.019 116.759C768.057 114.048 768.281 111.344 768.691 108.664C775.185 110.587 780.898 110.025 781.965 107.174C783.087 104.166 778.552 99.6492 771.717 96.862C774.092 90.424 777.423 84.3801 781.597 78.9335C788.679 69.8012 797.518 62.1789 807.593 56.5159C823.396 47.4367 842.842 42.083 863.853 42.083C884.863 42.083 904.327 47.4459 920.094 56.5251C930.17 62.1826 939.009 69.8021 946.09 78.9335C950.316 84.43 953.676 90.5414 956.052 97.0551C949.494 99.87 945.198 104.23 946.302 107.174C947.332 109.933 952.741 110.55 959.024 108.811C959.436 111.533 959.655 114.282 959.677 117.035C954.001 119.795 950.478 123.732 951.471 126.436C952.17 128.34 954.939 129.196 958.619 129.021C956.886 137.845 953.337 146.212 948.197 153.591C947.295 154.916 946.344 156.216 945.345 157.491C945.04 157.875 944.843 158.333 944.773 158.818C944.704 159.303 944.764 159.797 944.949 160.251C945.538 161.714 946.09 163.195 946.624 164.694C949.924 174.083 951.933 183.878 952.594 193.808H775.102ZM988.414 199.447C988.064 201.016 987.302 202.463 986.208 203.64C985.113 204.817 983.725 205.681 982.186 206.144L981.469 206.355L980.954 206.88C979.411 208.48 977.32 209.436 975.101 209.555C972.882 209.675 970.7 208.949 968.995 207.524L968.406 207.036L967.67 206.917C965.572 206.535 963.675 205.427 962.311 203.787C960.948 202.147 960.204 200.08 960.21 197.948C960.209 197.33 960.27 196.713 960.394 196.108V195.906C960.489 195.194 960.678 194.498 960.955 193.836C962.795 189.586 968.204 186.477 974.422 186.477C978.957 186.477 983.244 188.133 985.903 190.911L985.994 190.993C986.154 191.159 986.31 191.334 986.464 191.518C986.562 191.632 986.654 191.752 986.74 191.877L986.804 191.969C986.902 192.085 986.991 192.208 987.071 192.336L987.181 192.511C987.454 192.929 987.685 193.373 987.871 193.836C987.98 194.082 988.075 194.334 988.156 194.59V194.719C988.156 194.885 988.239 195.041 988.285 195.234C988.459 195.948 988.552 196.679 988.561 197.414C988.592 198.104 988.542 198.796 988.414 199.475V199.447ZM1068.5 199.447C1068.09 200.923 1067.32 202.271 1066.25 203.365C1065.18 204.459 1063.85 205.263 1062.38 205.702L1061.66 205.914L1061.15 206.438C1060.53 207.07 1059.83 207.609 1059.06 208.039C1057.77 208.745 1056.31 209.115 1054.84 209.115C1054.35 209.118 1053.86 209.078 1053.38 208.996C1051.85 208.735 1050.41 208.079 1049.22 207.091L1048.63 206.595L1047.89 206.475C1045.79 206.095 1043.9 204.987 1042.53 203.347C1041.17 201.707 1040.42 199.639 1040.43 197.506C1040.43 196.889 1040.49 196.273 1040.61 195.666V195.464C1040.68 194.909 1040.82 194.364 1041 193.836C1042.59 189.356 1048.21 186.035 1054.64 186.035C1056.44 186.032 1058.23 186.299 1059.95 186.826C1061.88 187.381 1063.67 188.32 1065.22 189.586C1065.55 189.845 1065.86 190.125 1066.14 190.423L1066.24 190.506L1066.7 191.03L1066.97 191.389L1067.05 191.481C1067.15 191.598 1067.23 191.721 1067.31 191.849L1067.42 192.033C1067.78 192.581 1068.07 193.171 1068.28 193.79C1068.32 193.892 1068.36 193.996 1068.4 194.103L1068.44 194.231C1068.44 194.397 1068.53 194.553 1068.57 194.747C1068.75 195.464 1068.84 196.198 1068.85 196.936C1068.85 197.794 1068.74 198.649 1068.5 199.475V199.447ZM1216.89 193.836H1074.14C1074.14 193.726 1074.14 193.624 1074.07 193.514C1074 193.247 1073.94 192.971 1073.85 192.686L1073.78 192.447C1073.4 191.23 1072.85 190.07 1072.16 188.997C1072.1 188.896 1072.04 188.804 1071.97 188.694L1071.55 188.114L1071.44 187.976C1071.3 187.811 1071.18 187.636 1071.06 187.48C1070.93 187.323 1070.59 186.946 1070.29 186.633L1070.23 186.56C1068.95 185.226 1067.47 184.097 1065.84 183.211C1066.07 167.969 1058.11 155.523 1047.84 139.443C1044.44 134.136 1040.94 128.653 1037.28 122.407C1029.06 108.416 1027.21 92.005 1029.57 78.0044C1032.23 78.8046 1035 79.2105 1037.77 79.2094C1045.23 79.2462 1052.4 76.3238 1057.71 71.0833C1063.01 65.8427 1066.02 58.7117 1066.08 51.2542C1066.08 50.7667 1066.08 50.2884 1066.08 49.8008C1080.18 49.0281 1092.08 42.6257 1102.19 36.0026C1117 26.2978 1156.86 6.38237 1207 31.0076C1208.27 31.6381 1209.5 32.3542 1210.68 33.1509C1193.95 57.8866 1164.68 108.167 1181.86 135.258C1189.22 146.802 1197.24 149.976 1203.81 149.976C1205.47 149.969 1207.12 149.777 1208.73 149.406C1219.39 146.94 1229.51 136.822 1237.1 122.389C1236.91 141.895 1235.56 161.372 1233.07 180.718C1224.79 181.739 1218.22 187.001 1216.89 193.836ZM1250.2 199.475C1249.8 200.95 1249.02 202.298 1247.95 203.392C1246.88 204.487 1245.55 205.291 1244.09 205.73L1243.38 205.942L1242.86 206.466C1242.04 207.314 1241.06 207.989 1239.97 208.449C1238.88 208.909 1237.71 209.145 1236.53 209.143C1235.26 209.144 1234.01 208.864 1232.85 208.324C1232.16 208.007 1231.52 207.602 1230.93 207.119L1230.35 206.622L1229.61 206.503H1229.55C1227.79 206.188 1226.16 205.351 1224.88 204.1C1223.59 202.848 1222.72 201.24 1222.36 199.484C1222.09 198.229 1222.09 196.931 1222.36 195.676V195.473C1222.43 194.918 1222.56 194.372 1222.75 193.845C1224 190.34 1227.7 187.544 1232.35 186.486C1233.68 186.182 1235.03 186.027 1236.4 186.026C1236.98 186.026 1237.58 186.026 1238.16 186.118C1241.81 186.38 1245.24 187.917 1247.87 190.46L1247.95 190.543C1248.11 190.721 1248.27 190.895 1248.42 191.067C1248.52 191.179 1248.62 191.299 1248.7 191.426L1248.78 191.518C1248.85 191.628 1248.94 191.729 1249.03 191.886L1249.15 192.07C1249.5 192.618 1249.79 193.208 1250 193.827C1250.04 193.928 1250.08 194.033 1250.11 194.139V194.268C1250.17 194.434 1250.2 194.59 1250.25 194.783C1250.42 195.501 1250.51 196.235 1250.52 196.973C1250.51 197.819 1250.39 198.662 1250.16 199.475H1250.2Z" fill="#E4E7EC"/>
<path d="M365.571 103.752C362.48 103.752 359.969 109.593 359.969 116.787C359.969 123.98 362.48 129.83 365.571 129.83C368.662 129.83 371.182 123.989 371.182 116.787C371.182 109.584 368.671 103.752 365.571 103.752Z" fill="#E4E7EC"/>
<path d="M285.707 103.752C282.616 103.752 280.105 109.593 280.105 116.787C280.105 123.98 282.616 129.83 285.707 129.83C288.798 129.83 291.309 123.989 291.309 116.787C291.309 109.584 288.807 103.752 285.707 103.752Z" fill="#E4E7EC"/>
<path d="M339.161 149.755C338.415 149.755 337.699 150.052 337.171 150.58C336.643 151.108 336.347 151.824 336.347 152.57C336.374 153.174 336.279 153.776 336.067 154.342C335.855 154.908 335.53 155.425 335.113 155.862C334.695 156.298 334.194 156.646 333.638 156.883C333.083 157.121 332.485 157.243 331.88 157.243C331.276 157.243 330.678 157.121 330.123 156.883C329.567 156.646 329.066 156.298 328.648 155.862C328.231 155.425 327.906 154.908 327.694 154.342C327.482 153.776 327.387 153.174 327.414 152.57V128.773H328.592C329.351 128.773 330.078 128.471 330.615 127.935C331.151 127.398 331.453 126.671 331.453 125.912C331.453 125.153 331.151 124.425 330.615 123.889C330.078 123.352 329.351 123.051 328.592 123.051H320.607C319.849 123.051 319.121 123.352 318.584 123.889C318.048 124.425 317.747 125.153 317.747 125.912C317.747 126.671 318.048 127.398 318.584 127.935C319.121 128.471 319.849 128.773 320.607 128.773H321.785V152.57C321.812 153.174 321.717 153.776 321.505 154.342C321.293 154.908 320.968 155.425 320.551 155.862C320.133 156.298 319.632 156.646 319.076 156.883C318.521 157.121 317.923 157.243 317.319 157.243C316.715 157.243 316.117 157.121 315.561 156.883C315.006 156.646 314.504 156.298 314.087 155.862C313.669 155.425 313.345 154.908 313.133 154.342C312.921 153.776 312.825 153.174 312.853 152.57C312.812 151.85 312.497 151.173 311.972 150.678C311.448 150.183 310.754 149.907 310.033 149.907C309.312 149.907 308.618 150.183 308.094 150.678C307.57 151.173 307.255 151.85 307.214 152.57C307.224 154.582 307.833 156.545 308.964 158.209C310.095 159.873 311.696 161.162 313.563 161.911C315.43 162.66 317.478 162.836 319.446 162.416C321.413 161.996 323.211 160.999 324.609 159.552C326.007 160.995 327.804 161.99 329.77 162.408C331.736 162.826 333.782 162.65 335.647 161.901C337.512 161.152 339.112 159.864 340.242 158.203C341.373 156.541 341.983 154.58 341.995 152.57C341.993 152.199 341.919 151.832 341.776 151.49C341.633 151.148 341.424 150.837 341.161 150.576C340.898 150.314 340.586 150.107 340.243 149.967C339.9 149.826 339.532 149.754 339.161 149.755Z" fill="#E4E7EC"/>
<path d="M886.564 137.226C889.074 137.226 891.108 135.192 891.108 132.682C891.108 130.172 889.074 128.138 886.564 128.138C884.055 128.138 882.02 130.172 882.02 132.682C882.02 135.192 884.055 137.226 886.564 137.226Z" fill="#E4E7EC"/>
<path d="M819.928 137.226C822.438 137.226 824.472 135.192 824.472 132.682C824.472 130.172 822.438 128.138 819.928 128.138C817.418 128.138 815.384 130.172 815.384 132.682C815.384 135.192 817.418 137.226 819.928 137.226Z" fill="#E4E7EC"/>
<path d="M869.032 149.442C868.661 149.441 868.294 149.513 867.951 149.654C867.609 149.795 867.298 150.002 867.035 150.264C866.773 150.525 866.565 150.836 866.423 151.178C866.281 151.52 866.207 151.887 866.207 152.257C866.207 153.44 865.737 154.575 864.901 155.412C864.064 156.249 862.929 156.719 861.746 156.719C860.563 156.719 859.428 156.249 858.591 155.412C857.755 154.575 857.285 153.44 857.285 152.257V150.5H858.444C859.203 150.5 859.932 150.199 860.47 149.663C861.008 149.127 861.311 148.399 861.314 147.639C861.311 146.88 861.008 146.152 860.47 145.616C859.932 145.08 859.203 144.779 858.444 144.779H850.459C849.702 144.781 848.977 145.083 848.442 145.62C847.908 146.156 847.607 146.882 847.607 147.639C847.61 148.396 847.911 149.121 848.445 149.656C848.979 150.192 849.703 150.495 850.459 150.5H851.646V152.211C851.646 153.394 851.176 154.529 850.339 155.366C849.502 156.203 848.368 156.673 847.184 156.673C846.001 156.673 844.866 156.203 844.03 155.366C843.193 154.529 842.723 153.394 842.723 152.211C842.682 151.491 842.367 150.814 841.843 150.319C841.318 149.824 840.625 149.548 839.903 149.548C839.182 149.548 838.489 149.824 837.964 150.319C837.44 150.814 837.125 151.491 837.084 152.211C837.094 154.222 837.703 156.184 838.832 157.847C839.962 159.51 841.562 160.799 843.427 161.549C845.293 162.3 847.34 162.477 849.306 162.059C851.273 161.641 853.071 160.646 854.47 159.202C855.869 160.646 857.666 161.641 859.633 162.059C861.6 162.477 863.647 162.3 865.512 161.549C867.378 160.799 868.977 159.51 870.107 157.847C871.237 156.184 871.846 154.222 871.856 152.211C871.841 151.472 871.537 150.768 871.009 150.25C870.481 149.732 869.771 149.442 869.032 149.442Z" fill="#E4E7EC"/>
<path d="M1142.07 64.4085C1144.58 64.4085 1146.61 62.374 1146.61 59.8643C1146.61 57.3546 1144.58 55.3201 1142.07 55.3201C1139.56 55.3201 1137.53 57.3546 1137.53 59.8643C1137.53 62.374 1139.56 64.4085 1142.07 64.4085Z" fill="#E4E7EC"/>
<path d="M1114.47 56.1847C1116.98 56.1847 1119.02 54.1502 1119.02 51.6405C1119.02 49.1308 1116.98 47.0963 1114.47 47.0963C1111.96 47.0963 1109.93 49.1308 1109.93 51.6405C1109.93 54.1502 1111.96 56.1847 1114.47 56.1847Z" fill="#E4E7EC"/>
<path d="M1175.66 10.2551C1180.01 11.5429 1183.93 11.2854 1184.4 9.6664C1184.87 8.04741 1181.75 5.6925 1177.39 4.39546C1173.04 3.09843 1169.12 3.36521 1168.65 4.9842C1168.18 6.60319 1171.3 8.95807 1175.66 10.2551Z" fill="#E4E7EC"/>
<path d="M1140.25 7.28387C1144.62 6.02363 1147.77 3.69632 1147.31 2.07733C1146.85 0.458339 1142.93 0.154777 1138.57 1.41502C1134.21 2.67525 1131.04 5.00256 1131.51 6.62155C1131.98 8.24054 1135.89 8.5441 1140.25 7.28387Z" fill="#E4E7EC"/>
<path d="M1111.9 94.967C1111.22 94.6536 1110.45 94.6219 1109.74 94.8788C1109.04 95.1357 1108.47 95.6603 1108.15 96.3376C1103.43 106.521 1093.08 111.571 1082.4 108.885C1081.67 108.703 1080.89 108.819 1080.25 109.208C1079.6 109.597 1079.13 110.227 1078.95 110.959C1078.77 111.691 1078.89 112.465 1079.28 113.111C1079.67 113.757 1080.3 114.222 1081.03 114.404C1083.36 115 1085.75 115.309 1088.16 115.324C1098.84 115.324 1108.39 109.216 1113.28 98.7661C1113.44 98.4266 1113.53 98.0582 1113.55 97.6824C1113.57 97.3066 1113.51 96.9309 1113.39 96.5772C1113.26 96.2235 1113.06 95.899 1112.8 95.6225C1112.55 95.3461 1112.24 95.1232 1111.9 94.967Z" fill="#E4E7EC"/>
<path d="M593.775 114.128C592.876 114.128 591.998 114.395 591.251 114.894C590.503 115.393 589.921 116.103 589.577 116.933C589.233 117.764 589.143 118.677 589.318 119.559C589.494 120.44 589.926 121.25 590.562 121.886C591.197 122.521 592.007 122.954 592.889 123.129C593.77 123.305 594.684 123.215 595.514 122.871C596.345 122.527 597.054 121.944 597.554 121.197C598.053 120.45 598.319 119.571 598.319 118.672C598.319 117.467 597.841 116.311 596.988 115.459C596.136 114.607 594.98 114.128 593.775 114.128Z" fill="#E4E7EC"/>
<path d="M539.751 114.128C538.852 114.126 537.972 114.391 537.224 114.89C536.475 115.388 535.891 116.097 535.546 116.927C535.2 117.757 535.109 118.671 535.283 119.553C535.458 120.435 535.89 121.246 536.525 121.882C537.16 122.519 537.97 122.953 538.852 123.129C539.733 123.305 540.647 123.215 541.478 122.872C542.309 122.528 543.019 121.945 543.519 121.198C544.019 120.451 544.286 119.572 544.286 118.672C544.286 117.469 543.808 116.314 542.958 115.462C542.108 114.61 540.954 114.131 539.751 114.128Z" fill="#E4E7EC"/>
<path d="M578.809 143.178C578.062 143.178 577.345 143.474 576.815 144.002C576.286 144.53 575.987 145.245 575.985 145.993C575.984 147.014 575.633 148.004 574.99 148.798C574.347 149.591 573.451 150.14 572.453 150.353C572.15 150.419 571.842 150.453 571.533 150.454C570.35 150.452 569.217 149.981 568.381 149.145C567.544 148.309 567.074 147.175 567.071 145.993V136.877H568.249C569.007 136.874 569.733 136.572 570.269 136.036C570.805 135.5 571.107 134.774 571.109 134.016C571.107 133.258 570.805 132.532 570.269 131.996C569.733 131.46 569.007 131.158 568.249 131.155H560.264C559.888 131.155 559.516 131.229 559.169 131.372C558.822 131.516 558.506 131.727 558.24 131.992C557.84 132.392 557.567 132.902 557.457 133.457C557.346 134.013 557.403 134.588 557.619 135.111C557.836 135.634 558.203 136.081 558.674 136.395C559.145 136.71 559.698 136.877 560.264 136.877H561.432V145.993C561.432 147.176 560.962 148.311 560.126 149.148C559.289 149.984 558.154 150.454 556.971 150.454C556.662 150.454 556.353 150.42 556.051 150.353C555.05 150.142 554.153 149.594 553.508 148.8C552.863 148.007 552.511 147.015 552.509 145.993C552.468 145.273 552.153 144.596 551.629 144.101C551.105 143.606 550.411 143.33 549.69 143.33C548.969 143.33 548.275 143.606 547.751 144.101C547.227 144.596 546.912 145.273 546.871 145.993C546.876 148.453 547.777 150.827 549.406 152.671C551.035 154.515 553.279 155.702 555.72 156.01C556.557 160.61 560.071 164.078 564.256 164.078C568.442 164.078 571.956 160.61 572.793 156.01C575.232 155.7 577.474 154.512 579.101 152.668C580.728 150.824 581.628 148.452 581.633 145.993C581.63 145.245 581.332 144.53 580.803 144.002C580.273 143.474 579.556 143.178 578.809 143.178ZM564.247 160.325C562.021 160.325 560.126 158.402 559.501 155.725C560.535 155.466 561.517 155.033 562.407 154.447V156.213C562.407 156.712 562.606 157.19 562.958 157.543C563.311 157.896 563.79 158.094 564.289 158.094C564.787 158.094 565.266 157.896 565.619 157.543C565.972 157.19 566.17 156.712 566.17 156.213V154.52C567.044 155.071 568.001 155.481 569.003 155.734C568.377 158.402 566.482 160.325 564.247 160.325Z" fill="#E4E7EC"/>
<path d="M597.464 94.1483C593.113 92.8512 589.185 93.118 588.716 94.7278C588.247 96.3376 591.374 98.7109 595.726 100.008C600.077 101.305 604.004 101.038 604.474 99.4192C604.943 97.8002 601.815 95.4269 597.464 94.1483Z" fill="#E4E7EC"/>
<path d="M547.478 94.2587C546.898 92.6673 542.979 92.6397 538.711 94.1851C534.443 95.7305 531.444 98.2694 532.014 99.8608C532.585 101.452 536.522 101.48 540.79 99.9252C545.058 98.3706 548.048 95.8409 547.478 94.2587Z" fill="#E4E7EC"/>
<path d="M574.816 39.8017C576.242 36.5546 582.415 35.8922 588.026 38.3667C589.881 39.174 591.583 40.2942 593.058 41.6783C593.597 42.1955 594.319 42.4773 595.066 42.4618C595.813 42.4463 596.524 42.1347 597.041 41.5955C597.558 41.0563 597.84 40.3338 597.824 39.5868C597.809 38.8398 597.497 38.1296 596.958 37.6124C595.012 35.7738 592.761 34.2861 590.307 33.2154C581.504 29.3243 572.434 31.2192 569.656 37.5112C568.892 39.2445 568.664 41.1668 569.003 43.0305C563.539 45.0634 559.896 49.1385 559.896 53.9311C559.895 55.9669 560.539 57.9507 561.736 59.5976C563.022 61.3495 564.697 62.7791 566.629 63.7739C569.835 65.4374 573.403 66.2812 577.015 66.2299H577.935C578.66 66.1714 579.335 65.8349 579.819 65.2907C580.302 64.7465 580.557 64.0366 580.53 63.3092C580.502 62.5817 580.195 61.893 579.672 61.3865C579.149 60.8801 578.451 60.5951 577.723 60.5911H576.969C574.527 60.608 572.111 60.0965 569.886 59.0917C567.706 58.0706 566.124 56.6264 565.627 55.0074C565.517 54.6591 565.462 54.2962 565.461 53.9311C565.461 51.613 567.761 49.4789 571.082 48.2922C572.971 47.6182 574.963 47.2758 576.969 47.2804C577.19 47.2804 577.411 47.2804 577.631 47.2804C579.426 47.3266 581.201 47.6557 582.893 48.2554C583.245 48.4018 583.623 48.4755 584.004 48.4719C584.385 48.4684 584.761 48.3878 585.11 48.2349C585.459 48.0821 585.774 47.8601 586.035 47.5825C586.296 47.3048 586.498 46.9772 586.629 46.6194C586.76 46.2616 586.818 45.8809 586.798 45.5003C586.778 45.1197 586.681 44.7471 586.513 44.4049C586.346 44.0628 586.11 43.7581 585.822 43.5092C585.533 43.2604 585.197 43.0725 584.834 42.9569C582.308 42.0649 579.648 41.6137 576.969 41.6231C576.127 41.6238 575.286 41.6668 574.448 41.7519C574.415 41.4462 574.415 41.1377 574.448 40.832C574.515 40.471 574.639 40.1231 574.816 39.8017Z" fill="#E4E7EC"/>
</g>
</g>
</svg>
