<?xml version="1.0"?>
<svg width="1440" height="200" xmlns="http://www.w3.org/2000/svg" xmlns:svg="http://www.w3.org/2000/svg">

 <g class="layer">
  <title>Layer 1</title>
  <rect fill="#104434" height="200" id="svg_1" width="1440"/>
  <g id="svg_2" opacity="0.03" transform="matrix(1, 0, 0, 1, 0, 0)">
   <mask fill="#ffffff" height="200" id="mask0_803_6856" maskUnits="userSpaceOnUse" width="1440" x="0" y="0">
    <rect fill="#ffffff" height="200" id="svg_3" width="1440"/>
   </mask>
   <g id="svg_4" mask="url(#mask0_803_6856)">
    <path d="m368.25,149.06c16.52,0 29.91,-19.96 29.91,-44.58c0,-24.62 -13.39,-44.58 -29.91,-44.58c-16.52,0 -29.92,19.96 -29.92,44.58c0,24.62 13.4,44.58 29.92,44.58z" fill="#ffffff" id="svg_5"/>
    <path d="m852.62,105.88c28.52,-0.18 51.71,13.07 51.82,29.59c0.11,16.52 -22.92,4.18 -51.43,4.35c-28.52,0.18 -51.73,12.81 -51.83,-3.68c-0.1,-16.49 22.92,-30.03 51.44,-30.26z" fill="#ffffff" id="svg_6"/>
    <path d="m559.58,117.82c3.77,-13.58 -2.7,-27.24 -14.45,-30.5c-11.74,-3.26 -24.33,5.1 -28.1,18.69c-3.77,13.58 2.7,27.24 14.44,30.5c11.75,3.26 24.33,-5.1 28.11,-18.69z" fill="#ffffff" id="svg_7"/>
    <path d="m1164.14,75.43c6.03,-9.79 2.99,-22.62 -6.8,-28.66c-9.79,-6.03 -22.62,-2.99 -28.66,6.8c-6.04,9.79 -2.99,22.62 6.8,28.66c9.79,6.04 22.62,2.99 28.66,-6.8z" fill="#ffffff" id="svg_8"/>
    <path d="m1352.25,193.84l-96.46,0c0,-0.11 0,-0.22 -0.07,-0.33c-0.05,-0.28 -0.12,-0.55 -0.21,-0.82l-0.07,-0.24c-0.39,-1.22 -0.93,-2.38 -1.62,-3.45c-0.06,-0.1 -0.12,-0.2 -0.2,-0.31c-0.07,-0.11 -0.26,-0.37 -0.42,-0.58l-0.11,-0.13c-0.12,-0.17 -0.25,-0.34 -0.38,-0.5c-0.14,-0.16 -0.46,-0.53 -0.75,-0.85l-0.08,-0.07c-3.5,-3.49 -8.12,-5.62 -13.04,-6.03c2.37,-18.6 4.75,-44.9 3.8,-70.75c-0.2,-5.52 -0.55,-10.97 -1.07,-16.34c-2.53,-25.47 -9.13,-48.75 -23.21,-61.42c-1.41,-1.28 -2.91,-2.45 -4.49,-3.51c-1.42,-0.95 -2.9,-1.81 -4.43,-2.57c-52.73,-25.9 -94.74,-4.89 -110.38,5.33c-10.02,6.56 -20.96,12.42 -33.91,12.95c-1.98,0.08 -3.96,0.03 -5.93,-0.15c-2.17,-0.18 -4.32,-0.51 -6.44,-0.98c-6.79,-1.49 -13.63,1.97 -19.26,9.72c-3.66,5.23 -6.35,11.08 -7.95,17.27c-0.51,1.83 -0.92,3.78 -1.31,5.75c-2.89,15.53 -1.01,33.89 8.1,49.44c3.68,6.33 7.41,12.1 10.68,17.21c9.66,15.11 16.61,25.98 17.12,38.55c-1.81,-0.42 -3.67,-0.63 -5.52,-0.62c-9.76,0 -17.95,5.71 -19.48,13.43l-41.39,0c0,-0.23 -0.11,-0.46 -0.19,-0.72l-0.07,-0.23c-0.38,-1.22 -0.93,-2.38 -1.62,-3.45c-0.05,-0.1 -0.12,-0.19 -0.18,-0.31l-0.43,-0.57l-0.12,-0.15c-0.12,-0.18 -0.24,-0.33 -0.37,-0.49c-0.13,-0.16 -0.46,-0.53 -0.76,-0.85l-0.07,-0.07c-2.05,-2.01 -4.49,-3.59 -7.16,-4.65c-2.67,-1.05 -5.52,-1.57 -8.4,-1.5c-7.02,0 -13.22,2.95 -16.72,7.49c-1.09,-9.82 -3.45,-19.46 -7,-28.69c7.14,-9.25 11.88,-20.12 13.8,-31.65c0.54,-3.39 0.81,-6.83 0.81,-10.27c0,-0.92 0,-1.88 -0.07,-2.81c-0.1,-2.71 -0.39,-5.41 -0.85,-8.09c-0.65,-3.92 -1.66,-7.77 -3,-11.51c-2.99,-8.25 -7.42,-15.9 -13.08,-22.6c2.02,-10.33 -0.38,-34.95 -9.08,-36.74c-5.39,-1.08 -11.96,6.87 -16.62,15.51c-16.56,-9.46 -36.87,-15.04 -58.75,-15.04c-21.87,0 -42.16,5.59 -58.74,15.05c-4.7,-8.65 -11.24,-16.6 -16.62,-15.52c-8.71,1.74 -11.11,26.41 -9.09,36.74c-5.64,6.68 -10.06,14.29 -13.06,22.49c-1.34,3.69 -2.34,7.49 -3.01,11.36c-0.49,2.71 -0.8,5.46 -0.92,8.21c-0.06,0.98 -0.07,1.96 -0.07,2.95c-0.01,3.39 0.26,6.77 0.78,10.12c1.88,11.6 6.62,22.54 13.79,31.84c-3.68,9.59 -6.06,19.64 -7.07,29.87c-0.01,-0.04 -0.04,-0.08 -0.06,-0.12c-0.06,-0.1 -0.12,-0.19 -0.2,-0.31c-0.07,-0.1 -0.27,-0.38 -0.42,-0.57l-0.11,-0.15c-0.12,-0.17 -0.25,-0.34 -0.39,-0.49c-0.22,-0.27 -0.46,-0.53 -0.74,-0.85l-0.08,-0.07c-2.05,-2.01 -4.48,-3.59 -7.16,-4.65c-2.67,-1.05 -5.52,-1.57 -8.39,-1.5c-9.58,0 -17.63,5.52 -19.37,12.99l-25.76,0c-0.07,-0.6 -0.17,-1.19 -0.31,-1.77c-0.06,-0.27 -0.13,-0.53 -0.21,-0.84l-0.09,-0.22c-0.37,-1.22 -0.91,-2.38 -1.61,-3.45c-0.05,-0.1 -0.12,-0.2 -0.19,-0.31c-0.07,-0.11 -0.27,-0.39 -0.42,-0.57l-0.11,-0.15c-0.12,-0.17 -0.25,-0.33 -0.39,-0.5c-0.14,-0.16 -0.46,-0.53 -0.74,-0.83l-0.09,-0.08c-2.05,-2.02 -4.48,-3.6 -7.15,-4.65c-2.67,-1.06 -5.52,-1.57 -8.39,-1.51c-2.37,0 -4.73,0.35 -6.99,1.04c0.22,-8.25 1.08,-16.47 2.58,-24.59c0,0 0,-0.05 0,-0.08c6.87,-8.21 12.67,-19.7 16.39,-33.42c4.72,-17.38 -0.4,-49.54 -19.19,-74.9c-11.64,-15.72 -33.12,-34.68 -69.26,-35.77c-46,-1.4 -70.02,23.63 -82.1,45.18c-16.85,23.61 -42.96,63.48 -40.24,80.51c3.06,19.2 11.52,23.92 15.82,25.05c1,2.4 2.16,4.72 3.48,6.96c1.94,3.26 3.58,6.69 4.91,10.25c-8.47,1.22 -15.12,6.83 -16.09,14c-0.04,0.2 -0.08,0.42 -0.11,0.62l-38.86,0c-0.07,-0.57 -0.18,-1.13 -0.3,-1.69c-0.07,-0.26 -0.13,-0.54 -0.23,-0.82l-0.07,-0.24c-0.38,-1.22 -0.93,-2.38 -1.61,-3.45c-0.07,-0.1 -0.13,-0.2 -0.2,-0.31l-0.42,-0.58l-0.1,-0.13c-0.13,-0.18 -0.26,-0.34 -0.4,-0.5c-0.24,-0.3 -0.49,-0.58 -0.76,-0.85l-0.07,-0.07c-2.05,-2.01 -4.48,-3.6 -7.14,-4.65c-2.67,-1.06 -5.53,-1.58 -8.4,-1.51c-8.04,0 -15.01,3.87 -18.07,9.56c-2.16,-5.6 -4.75,-11.03 -7.76,-16.23c9.38,-18.36 14.22,-38.69 14.14,-59.3c0,-29.35 -9.52,-56.19 -25.18,-76.65c0.14,-1.01 0.21,-2.03 0.21,-3.05c0,-10.45 -7.21,-34.36 -16.13,-34.36c-4.29,0 -8.17,5.52 -11.04,12.43c-14.46,-9.4 -31.34,-14.41 -48.6,-14.41c-17.25,0 -34.14,5.01 -48.6,14.41c-2.89,-6.9 -6.77,-12.43 -11.04,-12.43c-8.92,0 -16.13,23.91 -16.13,34.36c-0.01,1.02 0.06,2.03 0.2,3.04c-15.64,20.47 -25.19,47.3 -25.19,76.66c-0.09,20.61 4.75,40.94 14.1,59.3c-2.41,4.21 -4.56,8.57 -6.44,13.04l-0.11,-0.13l-0.08,-0.07c-2.05,-2.01 -4.47,-3.59 -7.14,-4.65c-2.67,-1.06 -5.52,-1.57 -8.39,-1.51c-10.12,0 -18.52,6.11 -19.62,14.26c0,0.17 -0.06,0.35 -0.09,0.54l-83.3,0c-0.72,0.04 -1.4,0.35 -1.89,0.88c-0.5,0.52 -0.78,1.22 -0.78,1.94c0,0.72 0.28,1.41 0.78,1.94c0.49,0.52 1.17,0.83 1.89,0.88l83.46,0c0.6,2.7 1.95,5.17 3.91,7.12c1.96,1.96 4.43,3.32 7.13,3.92c2.49,1.85 5.51,2.86 8.63,2.87c2.88,0 5.7,-0.86 8.08,-2.49c0.61,-0.41 1.19,-0.88 1.73,-1.38c1.78,-0.62 3.43,-1.59 4.85,-2.84c2.16,-1.93 3.71,-4.45 4.47,-7.24l182.47,0c0.46,2.05 1.36,3.98 2.63,5.65c1.26,1.67 2.88,3.05 4.73,4.04c1.17,0.64 2.43,1.11 3.73,1.39c2.49,1.85 5.52,2.86 8.63,2.87c3.64,0 7.15,-1.38 9.81,-3.87c2.26,-0.8 4.29,-2.14 5.92,-3.9c1.62,-1.77 2.79,-3.9 3.4,-6.22l39.46,0c0.6,2.7 1.96,5.17 3.91,7.12c1.96,1.96 4.43,3.32 7.12,3.92c2.38,1.77 5.24,2.77 8.2,2.86l0.43,0c3.64,-0.01 7.14,-1.39 9.82,-3.86c2.24,-0.79 4.26,-2.12 5.87,-3.86c1.62,-1.75 2.79,-3.85 3.42,-6.15l132.29,0c1.98,3.68 4.79,6.84 8.2,9.25c3.41,2.4 7.33,3.99 11.46,4.62c3.64,0.01 7.16,-1.37 9.83,-3.86c2.24,-0.8 4.25,-2.13 5.87,-3.87c1.61,-1.74 2.79,-3.85 3.42,-6.14l25.76,0c0.29,3.07 1.54,5.97 3.58,8.28c2.04,2.31 4.76,3.92 7.77,4.6c4.39,1.59 9.15,1.85 13.68,0.73c4.53,-1.12 8.63,-3.56 11.78,-7.01c1.41,-1.95 2.32,-4.22 2.66,-6.61l182.73,0c0.31,3.12 1.6,6.05 3.68,8.39c4.86,3.57 10.41,6.08 16.29,7.36c3.65,0 7.16,-1.38 9.83,-3.86c2.54,-0.91 4.79,-2.5 6.5,-4.59c1.7,-2.1 2.8,-4.62 3.17,-7.3l40.77,0c1.73,4.05 4.47,7.59 7.96,10.27c3.49,2.68 7.61,4.42 11.97,5.04c3.64,0.01 7.15,-1.37 9.81,-3.87c2.48,-0.86 4.68,-2.37 6.38,-4.37c1.7,-2 2.83,-4.41 3.28,-7l142.3,0c1.72,4.05 4.46,7.59 7.95,10.27c3.49,2.68 7.61,4.42 11.96,5.04c3.65,0.01 7.17,-1.37 9.84,-3.86c2.47,-0.88 4.67,-2.41 6.36,-4.42c1.69,-2.01 2.81,-4.44 3.25,-7.03l96.31,0c0.72,-0.04 1.4,-0.35 1.89,-0.88c0.5,-0.52 0.78,-1.21 0.78,-1.93c0,-0.73 -0.28,-1.42 -0.78,-1.94c-0.49,-0.53 -1.17,-0.84 -1.89,-0.88l-0.03,0zm-1122.14,-2.18c-0.26,0.71 -0.5,1.43 -0.74,2.15c-0.61,1.84 -1.19,3.72 -1.73,5.64c-0.36,1.31 -0.7,2.63 -1.02,3.95c-0.65,0.41 -1.36,0.72 -2.1,0.92l-0.72,0.21l-0.52,0.53c-1.54,1.6 -3.63,2.55 -5.85,2.67c-2.22,0.12 -4.4,-0.6 -6.11,-2.03l-0.57,-0.48l-0.76,-0.13c-1.52,-0.26 -2.95,-0.92 -4.14,-1.91c-1.19,-0.98 -2.11,-2.26 -2.67,-3.71c-0.39,-1.05 -0.59,-2.17 -0.59,-3.3c0,-0.61 0.06,-1.23 0.18,-1.84l0,-0.2c0.02,-0.09 0.04,-0.18 0.05,-0.27c0.82,-5.16 6.9,-9.2 13.99,-9.2c4.51,0 8.81,1.66 11.48,4.43l0.08,0.09c0.16,0.18 0.32,0.34 0.47,0.53l0.28,0.35l0.07,0.1c0.08,0.11 0.16,0.21 0.26,0.36l0.12,0.18c0.19,0.31 0.37,0.64 0.53,0.92l0.01,0.04zm6.39,2.15c-0.06,-0.57 -0.16,-1.14 -0.29,-1.69c-0.04,-0.14 -0.08,-0.29 -0.11,-0.45c2.3,-6.19 5.16,-12.16 8.55,-17.83c0.08,-0.14 0.15,-0.28 0.21,-0.43c0.03,-0.07 0.05,-0.15 0.07,-0.23l0,-0.09l0,-0.13c0,-0.07 0,-0.13 0,-0.2c0,-0.06 0,-0.04 0,-0.06c0.01,-0.1 0.01,-0.19 0,-0.29l0,-0.7l-0.31,-0.58l-0.08,-0.13c-9.39,-17.87 -14.25,-37.77 -14.16,-57.96c0,-26.55 8.1,-50.93 21.61,-70c7.25,-10.34 16.38,-19.23 26.91,-26.21c13.79,-9.25 30.01,-14.19 46.61,-14.19c16.61,0 32.83,4.94 46.62,14.19c10.56,6.97 19.71,15.85 26.99,26.2c13.51,19.07 21.62,43.45 21.62,70c0.08,20.21 -4.78,40.13 -14.18,58.01c0,0.03 0,0.06 0,0.08c-0.02,0.06 -0.06,0.12 -0.09,0.17l0,0.08c-0.01,0.04 -0.01,0.07 0,0.1c-0.06,0.16 -0.1,0.32 -0.12,0.49c0,0.02 0,0.04 0,0.07c0,0.03 0,0.06 0,0.09c0,0.08 0,0.16 0,0.25l0,0.05c0,0.08 0,0.16 0,0.23c0,0.07 0,0.17 0,0.27c-0.01,0.08 -0.01,0.16 0,0.24l0,0.12c0,0 0,0.09 0.04,0.13c0.07,0.15 0.14,0.31 0.23,0.46c3.77,6.32 6.89,13.01 9.32,19.97l-179.44,-0.03zm214.9,5.64c-0.52,1.17 -1.3,2.21 -2.27,3.06c-0.96,0.84 -2.1,1.47 -3.34,1.83l-0.7,0.21l-0.53,0.53c-1.54,1.6 -3.63,2.55 -5.85,2.67c-2.22,0.12 -4.4,-0.6 -6.11,-2.03l-0.58,-0.49l-0.75,-0.12c-1.54,-0.26 -2.98,-0.92 -4.18,-1.92c-1.21,-0.99 -2.13,-2.28 -2.67,-3.74c-0.4,-1.06 -0.61,-2.18 -0.61,-3.3c0,-0.62 0.07,-1.24 0.19,-1.84l0,-0.21c0,-0.08 0,-0.18 0,-0.26c0.84,-5.16 6.92,-9.2 13.99,-9.2c4.52,0 8.82,1.65 11.48,4.42l0.09,0.09c0.15,0.18 0.32,0.34 0.46,0.53l0.28,0.36l0.08,0.09l0.26,0.37l0.11,0.17c0.41,0.65 0.74,1.35 0.97,2.08l0,0.13c0.04,0.16 0.08,0.32 0.12,0.51c0.04,0.14 0.07,0.27 0.09,0.41c0.12,0.59 0.18,1.18 0.18,1.78c0.06,1.34 -0.19,2.67 -0.71,3.89l0,-0.02zm50.5,-45.27c-2.76,-2.55 -6.05,-7.71 -7.72,-18.13c-1.67,-10.42 10.84,-33.91 24.78,-55.87c-0.46,1.63 -0.8,2.98 -1.03,4.01c-0.93,2.55 -2.04,5.03 -3.34,7.42c-6.45,13.06 -18.72,37.84 -12.69,62.6l0,-0.03zm27.72,45.27c-0.53,1.15 -1.31,2.17 -2.27,3c-0.96,0.83 -2.09,1.45 -3.3,1.82l-0.75,0.26l-0.51,0.53l-0.17,0.16c-1.59,1.56 -3.71,2.46 -5.93,2.52l-0.21,0c-2.06,0 -4.05,-0.72 -5.62,-2.05l-0.58,-0.47l-0.76,-0.13c-1.52,-0.25 -2.95,-0.91 -4.15,-1.89c-1.2,-0.98 -2.12,-2.25 -2.67,-3.7c-0.43,-1.08 -0.64,-2.22 -0.64,-3.38c0.01,-0.62 0.07,-1.24 0.19,-1.84l0,-0.21l0,-0.19c0.72,-4.76 5.92,-8.55 12.26,-9.2c0.58,-0.05 1.15,-0.08 1.74,-0.08c1.43,0 2.87,0.17 4.27,0.51c2.73,0.59 5.23,1.95 7.22,3.92l0.08,0.08c0.16,0.17 0.31,0.34 0.47,0.53l0.27,0.35l0.08,0.1c0.09,0.12 0.18,0.24 0.26,0.37l0.11,0.17c0.41,0.65 0.74,1.35 0.97,2.08l0,0.13c0.05,0.16 0.08,0.32 0.12,0.52c0.04,0.19 0.07,0.32 0.1,0.48c0.12,0.56 0.18,1.13 0.18,1.7c0.04,1.35 -0.22,2.69 -0.76,3.93l0,-0.02zm138.2,-6.26c0,0.2 -0.08,0.42 -0.1,0.62l-131.68,0c-0.06,-0.6 -0.16,-1.19 -0.3,-1.77c-0.07,-0.26 -0.14,-0.53 -0.22,-0.83l-0.07,-0.23c-0.39,-1.21 -0.93,-2.37 -1.62,-3.45l-0.2,-0.31l-0.41,-0.57l-0.11,-0.15l-0.39,-0.49c-0.23,-0.27 -0.47,-0.54 -0.76,-0.84l-0.07,-0.08c-3.51,-3.48 -8.14,-5.62 -13.07,-6.02c-1.57,-4.53 -3.6,-8.88 -6.05,-13.01c-1.16,-1.96 -2.19,-4.01 -3.06,-6.12c-0.36,-0.87 -0.68,-1.74 -0.99,-2.61c-8.41,-24.18 4.41,-50.03 10.9,-63.18c2.02,-4.09 3.34,-6.77 3.78,-8.67c2.76,-11.81 19.76,-70.64 87.39,-68.59c33.89,1.03 54,18.77 64.9,33.49c17.09,23.06 22.72,53.74 18.28,70.07c-7.65,28.15 -24.77,46.54 -39.81,42.78c-6.59,-1.64 -11.1,-4.86 -13.8,-9.83c-5.08,-9.44 -3.68,-25.55 4.16,-47.84c14.86,-42.31 -0.41,-56.9 -1.06,-57.51c-0.27,-0.25 -0.58,-0.45 -0.93,-0.57c-0.35,-0.13 -0.71,-0.19 -1.08,-0.18c-0.37,0.02 -0.73,0.11 -1.06,0.27c-0.33,0.15 -0.63,0.37 -0.88,0.65c-0.51,0.54 -0.78,1.26 -0.76,2.01c0.02,0.74 0.34,1.45 0.87,1.96c0.13,0.12 13.05,13.15 -0.41,51.52c-8.52,24.23 -9.75,41.39 -3.81,52.43c3.42,6.36 9.26,10.61 17.37,12.64c7.9,1.97 16.02,-0.53 23.41,-6.55c-0.94,6.81 -1.44,13.68 -1.47,20.56c-1.82,1.15 -3.37,2.68 -4.56,4.48c-1.19,1.8 -1.98,3.82 -2.33,5.95l0,-0.03zm32.89,6.26c-0.54,1.15 -1.31,2.18 -2.27,3.01c-0.97,0.83 -2.09,1.44 -3.31,1.81l-0.73,0.26l-0.51,0.53c-0.82,0.85 -1.8,1.52 -2.89,1.98c-1.09,0.46 -2.25,0.7 -3.43,0.7c-1.44,0 -2.85,-0.35 -4.11,-1.03c-0.54,-0.29 -1.05,-0.63 -1.51,-1.02l-0.58,-0.47l-0.75,-0.13c-1.29,-0.22 -2.51,-0.72 -3.59,-1.46c-1.46,-1.02 -2.58,-2.46 -3.22,-4.13c-0.43,-1.07 -0.65,-2.22 -0.65,-3.38c0,-0.62 0.06,-1.24 0.19,-1.84l0,-0.21l0,-0.19c0.21,-1.33 0.75,-2.6 1.56,-3.68c1.41,-1.85 3.3,-3.3 5.46,-4.17c2.21,-0.93 4.59,-1.4 6.99,-1.39c4.52,0 8.82,1.65 11.48,4.42l0.08,0.09c0.16,0.16 0.32,0.34 0.47,0.53c0.1,0.11 0.2,0.23 0.28,0.35l0.07,0.1c0.09,0.12 0.18,0.24 0.26,0.37l0.11,0.17c0.42,0.65 0.75,1.35 0.97,2.08l0,0.13c0.05,0.16 0.09,0.32 0.14,0.51c0.04,0.2 0.07,0.33 0.1,0.48c0.11,0.56 0.16,1.13 0.16,1.7c0.04,1.35 -0.23,2.68 -0.77,3.9l0,-0.02zm65.49,0c-0.35,1.57 -1.11,3.02 -2.21,4.19c-1.1,1.18 -2.49,2.04 -4.03,2.5l-0.71,0.21l-0.51,0.53c-1.55,1.6 -3.64,2.55 -5.86,2.67c-2.21,0.12 -4.39,-0.6 -6.1,-2.03l-0.58,-0.48l-0.74,-0.12c-1.86,-0.32 -3.57,-1.21 -4.89,-2.55c-1.32,-1.34 -2.19,-3.06 -2.47,-4.92c-0.09,-0.5 -0.14,-1 -0.13,-1.5c0,-0.62 0.06,-1.24 0.19,-1.84l0,-0.2c0.09,-0.72 0.28,-1.41 0.56,-2.07c1.84,-4.25 7.25,-7.36 13.47,-7.36c4.52,0 8.82,1.65 11.48,4.43l0.08,0.08c0.17,0.17 0.32,0.34 0.47,0.53c0.11,0.11 0.2,0.23 0.28,0.36l0.07,0.09c0.08,0.11 0.18,0.22 0.27,0.37l0.11,0.17c0.27,0.42 0.5,0.86 0.69,1.33c0.11,0.24 0.2,0.49 0.27,0.75l0,0.13c0,0.16 0.09,0.32 0.14,0.51c0.17,0.72 0.26,1.45 0.27,2.18c0.04,0.69 0,1.38 -0.12,2.06l0,-0.02zm8.9,-5.64c0.67,-9.93 2.68,-19.73 5.98,-29.12c0.53,-1.5 1.09,-2.97 1.68,-4.43c0.18,-0.46 0.24,-0.95 0.17,-1.43c-0.07,-0.49 -0.27,-0.94 -0.57,-1.33c-1.01,-1.28 -1.96,-2.57 -2.86,-3.91c-5.15,-7.39 -8.7,-15.77 -10.42,-24.61c3.95,0.33 6.97,-0.55 7.71,-2.54c1.04,-2.76 -2.76,-6.88 -8.77,-9.68c0.04,-2.71 0.26,-5.42 0.67,-8.1c6.49,1.93 12.21,1.37 13.28,-1.49c1.12,-3 -3.42,-7.52 -10.25,-10.31c2.37,-6.44 5.7,-12.48 9.88,-17.93c7.08,-9.13 15.92,-16.75 25.99,-22.41c15.81,-9.08 35.25,-14.44 56.26,-14.44c21.01,0 40.48,5.37 56.24,14.45c10.08,5.65 18.92,13.27 26,22.4c4.23,5.5 7.59,11.61 9.96,18.13c-6.56,2.81 -10.85,7.17 -9.75,10.11c1.03,2.76 6.44,3.38 12.72,1.64c0.42,2.72 0.63,5.47 0.66,8.22c-5.68,2.77 -9.2,6.7 -8.21,9.41c0.7,1.9 3.47,2.76 7.15,2.58c-1.73,8.82 -5.28,17.19 -10.42,24.57c-0.91,1.33 -1.86,2.63 -2.85,3.9c-0.31,0.39 -0.51,0.84 -0.58,1.33c-0.07,0.48 -0.01,0.98 0.18,1.43c0.59,1.46 1.14,2.94 1.67,4.44c3.3,9.39 5.31,19.19 5.97,29.12l-177.49,0zm213.31,5.64c-0.35,1.57 -1.11,3.01 -2.2,4.19c-1.1,1.18 -2.48,2.04 -4.02,2.5l-0.72,0.21l-0.52,0.53c-1.54,1.6 -3.63,2.56 -5.85,2.68c-2.22,0.12 -4.4,-0.61 -6.1,-2.04l-0.59,-0.48l-0.74,-0.12c-2.1,-0.39 -4,-1.49 -5.36,-3.13c-1.36,-1.64 -2.11,-3.71 -2.1,-5.84c0,-0.62 0.06,-1.24 0.18,-1.84l0,-0.2c0.1,-0.72 0.29,-1.41 0.57,-2.07c1.83,-4.25 7.24,-7.36 13.46,-7.36c4.54,0 8.82,1.65 11.48,4.43l0.09,0.08c0.16,0.17 0.32,0.34 0.47,0.53c0.1,0.11 0.19,0.23 0.28,0.36l0.06,0.09c0.1,0.12 0.19,0.24 0.27,0.37l0.11,0.17c0.27,0.42 0.5,0.86 0.69,1.33c0.11,0.24 0.21,0.49 0.29,0.75l0,0.13c0,0.16 0.08,0.32 0.12,0.51c0.18,0.72 0.27,1.45 0.28,2.18c0.03,0.69 -0.02,1.39 -0.15,2.06l0,-0.02zm80.09,0c-0.41,1.47 -1.18,2.82 -2.25,3.92c-1.07,1.09 -2.4,1.89 -3.87,2.33l-0.72,0.21l-0.51,0.53c-0.62,0.63 -1.32,1.17 -2.09,1.6c-1.29,0.71 -2.75,1.08 -4.22,1.08c-0.49,0 -0.98,-0.04 -1.46,-0.12c-1.53,-0.26 -2.97,-0.92 -4.16,-1.91l-0.59,-0.5l-0.74,-0.12c-2.1,-0.38 -3.99,-1.48 -5.36,-3.12c-1.36,-1.64 -2.11,-3.71 -2.1,-5.84c0,-0.62 0.06,-1.24 0.18,-1.84l0,-0.21c0.07,-0.55 0.21,-1.1 0.39,-1.62c1.59,-4.48 7.21,-7.81 13.64,-7.81c1.8,0 3.59,0.27 5.31,0.8c1.93,0.55 3.72,1.49 5.27,2.76c0.33,0.25 0.64,0.54 0.92,0.83l0.1,0.09l0.46,0.52l0.27,0.36l0.08,0.09c0.1,0.12 0.18,0.24 0.26,0.37l0.11,0.18c0.36,0.55 0.65,1.14 0.86,1.76c0.04,0.1 0.08,0.21 0.12,0.31l0.04,0.13c0,0.17 0.09,0.32 0.13,0.52c0.18,0.71 0.27,1.45 0.28,2.19c0,0.85 -0.11,1.71 -0.35,2.53l0,-0.02zm148.39,-5.61l-142.75,0c0,-0.11 0,-0.22 -0.07,-0.33c-0.07,-0.26 -0.13,-0.54 -0.22,-0.82l-0.07,-0.24c-0.38,-1.22 -0.93,-2.38 -1.62,-3.45c-0.06,-0.1 -0.12,-0.2 -0.19,-0.31l-0.42,-0.58l-0.11,-0.13c-0.14,-0.17 -0.26,-0.34 -0.38,-0.5c-0.13,-0.16 -0.47,-0.53 -0.77,-0.85l-0.06,-0.07c-1.28,-1.33 -2.76,-2.46 -4.39,-3.35c0.23,-15.24 -7.73,-27.69 -18,-43.77c-3.4,-5.3 -6.9,-10.79 -10.56,-17.03c-8.22,-13.99 -10.07,-30.41 -7.71,-44.41c2.66,0.8 5.43,1.21 8.2,1.21c7.46,0.04 14.63,-2.89 19.94,-8.13c5.3,-5.24 8.31,-12.37 8.37,-19.83c0,-0.48 0,-0.96 0,-1.45c14.1,-0.77 26,-7.17 36.11,-13.8c14.81,-9.7 54.67,-29.62 104.81,-4.99c1.27,0.63 2.5,1.34 3.68,2.14c-16.73,24.74 -46,75.02 -28.82,102.11c7.36,11.54 15.38,14.72 21.95,14.72c1.66,-0.01 3.31,-0.2 4.92,-0.57c10.66,-2.47 20.78,-12.59 28.37,-27.02c-0.19,19.51 -1.54,38.98 -4.03,58.33c-8.28,1.02 -14.85,6.28 -16.18,13.12zm33.31,5.63c-0.4,1.48 -1.18,2.83 -2.25,3.92c-1.07,1.1 -2.4,1.9 -3.86,2.34l-0.71,0.21l-0.52,0.53c-0.82,0.84 -1.8,1.52 -2.89,1.98c-1.09,0.46 -2.26,0.7 -3.44,0.69c-1.27,0 -2.52,-0.28 -3.68,-0.82c-0.69,-0.31 -1.33,-0.72 -1.92,-1.2l-0.58,-0.5l-0.74,-0.12l-0.06,0c-1.76,-0.31 -3.39,-1.15 -4.67,-2.4c-1.29,-1.25 -2.16,-2.86 -2.52,-4.62c-0.27,-1.25 -0.27,-2.55 0,-3.8l0,-0.21c0.07,-0.55 0.2,-1.1 0.39,-1.63c1.25,-3.5 4.95,-6.3 9.6,-7.35c1.33,-0.31 2.68,-0.46 4.05,-0.46c0.58,0 1.18,0 1.76,0.09c3.65,0.26 7.08,1.8 9.71,4.34l0.08,0.08c0.16,0.18 0.32,0.36 0.47,0.53c0.1,0.11 0.2,0.23 0.28,0.36l0.08,0.09c0.07,0.11 0.16,0.21 0.25,0.37l0.12,0.18c0.35,0.55 0.64,1.14 0.85,1.76c0.04,0.1 0.08,0.2 0.11,0.31l0,0.13c0.06,0.16 0.09,0.32 0.14,0.51c0.17,0.72 0.26,1.46 0.27,2.19c-0.01,0.85 -0.13,1.69 -0.36,2.5l0.04,0z" fill="#ffffff" id="svg_9"/>
    <path d="m365.57,103.75c-3.09,0 -5.6,5.84 -5.6,13.04c0,7.19 2.51,13.04 5.6,13.04c3.09,0 5.61,-5.84 5.61,-13.04c0,-7.21 -2.51,-13.04 -5.61,-13.04z" fill="#ffffff" id="svg_10"/>
    <path d="m285.71,103.75c-3.09,0 -5.6,5.84 -5.6,13.04c0,7.19 2.51,13.04 5.6,13.04c3.09,0 5.6,-5.84 5.6,-13.04c0,-7.21 -2.5,-13.04 -5.6,-13.04z" fill="#ffffff" id="svg_11"/>
    <path d="m339.16,149.75c-0.74,0 -1.46,0.3 -1.99,0.83c-0.53,0.53 -0.82,1.24 -0.82,1.99c0.02,0.6 -0.07,1.21 -0.28,1.77c-0.21,0.57 -0.54,1.09 -0.96,1.52c-0.42,0.44 -0.92,0.79 -1.47,1.02c-0.56,0.24 -1.15,0.36 -1.76,0.36c-0.6,0 -1.2,-0.12 -1.76,-0.36c-0.55,-0.23 -1.05,-0.58 -1.47,-1.02c-0.42,-0.43 -0.74,-0.95 -0.96,-1.52c-0.21,-0.56 -0.3,-1.17 -0.28,-1.77l0,-23.8l1.18,0c0.76,0 1.49,-0.3 2.03,-0.83c0.53,-0.54 0.83,-1.27 0.83,-2.03c0,-0.76 -0.3,-1.49 -0.83,-2.02c-0.54,-0.54 -1.27,-0.84 -2.03,-0.84l-7.98,0c-0.76,0 -1.49,0.3 -2.03,0.84c-0.53,0.53 -0.83,1.26 -0.83,2.02c0,0.76 0.3,1.49 0.83,2.03c0.54,0.53 1.27,0.83 2.03,0.83l1.18,0l0,23.8c0.02,0.6 -0.07,1.21 -0.29,1.77c-0.21,0.57 -0.53,1.09 -0.95,1.52c-0.42,0.44 -0.92,0.79 -1.47,1.02c-0.56,0.24 -1.16,0.36 -1.76,0.36c-0.61,0 -1.2,-0.12 -1.76,-0.36c-0.55,-0.23 -1.06,-0.58 -1.47,-1.02c-0.42,-0.43 -0.74,-0.95 -0.96,-1.52c-0.21,-0.56 -0.31,-1.17 -0.28,-1.77c-0.04,-0.72 -0.35,-1.4 -0.88,-1.89c-0.52,-0.5 -1.22,-0.77 -1.94,-0.77c-0.72,0 -1.41,0.27 -1.94,0.77c-0.52,0.49 -0.84,1.17 -0.88,1.89c0.01,2.01 0.62,3.97 1.75,5.64c1.14,1.66 2.74,2.95 4.6,3.7c1.87,0.75 3.92,0.93 5.89,0.51c1.96,-0.42 3.76,-1.42 5.16,-2.87c1.4,1.45 3.19,2.44 5.16,2.86c1.97,0.42 4.01,0.24 5.88,-0.51c1.86,-0.75 3.46,-2.04 4.59,-3.7c1.13,-1.66 1.74,-3.62 1.76,-5.63c-0.01,-0.37 -0.08,-0.74 -0.22,-1.08c-0.15,-0.34 -0.36,-0.65 -0.62,-0.91c-0.26,-0.27 -0.57,-0.47 -0.92,-0.61c-0.34,-0.14 -0.71,-0.22 -1.08,-0.22z" fill="#ffffff" id="svg_12"/>
    <path d="m886.56,137.23c2.51,0 4.55,-2.04 4.55,-4.55c0,-2.51 -2.04,-4.54 -4.55,-4.54c-2.51,0 -4.54,2.03 -4.54,4.54c0,2.51 2.03,4.55 4.54,4.55z" fill="#ffffff" id="svg_13"/>
    <path d="m819.93,137.23c2.51,0 4.54,-2.04 4.54,-4.55c0,-2.51 -2.03,-4.54 -4.54,-4.54c-2.51,0 -4.55,2.03 -4.55,4.54c0,2.51 2.04,4.55 4.55,4.55z" fill="#ffffff" id="svg_14"/>
    <path d="m869.03,149.44c-0.37,0 -0.74,0.07 -1.08,0.21c-0.34,0.14 -0.65,0.35 -0.92,0.61c-0.26,0.27 -0.46,0.58 -0.61,0.92c-0.14,0.34 -0.21,0.71 -0.21,1.08c0,1.18 -0.47,2.31 -1.31,3.15c-0.84,0.84 -1.97,1.31 -3.15,1.31c-1.19,0 -2.32,-0.47 -3.16,-1.31c-0.84,-0.84 -1.31,-1.97 -1.31,-3.15l0,-1.76l1.16,0c0.76,0 1.49,-0.3 2.03,-0.84c0.54,-0.53 0.84,-1.26 0.84,-2.02c0,-0.76 -0.3,-1.49 -0.84,-2.02c-0.54,-0.54 -1.27,-0.84 -2.03,-0.84l-7.98,0c-0.76,0 -1.48,0.3 -2.02,0.84c-0.53,0.54 -0.83,1.26 -0.83,2.02c0,0.76 0.3,1.48 0.84,2.02c0.53,0.53 1.25,0.84 2.01,0.84l1.19,0l0,1.71c0,1.18 -0.47,2.32 -1.31,3.16c-0.84,0.83 -1.97,1.3 -3.16,1.3c-1.18,0 -2.31,-0.47 -3.15,-1.3c-0.84,-0.84 -1.31,-1.98 -1.31,-3.16c-0.04,-0.72 -0.35,-1.4 -0.88,-1.89c-0.52,-0.5 -1.21,-0.77 -1.94,-0.77c-0.72,0 -1.41,0.27 -1.94,0.77c-0.52,0.49 -0.83,1.17 -0.88,1.89c0.01,2.01 0.62,3.97 1.75,5.64c1.13,1.66 2.73,2.95 4.6,3.7c1.86,0.75 3.91,0.93 5.88,0.51c1.96,-0.42 3.76,-1.41 5.16,-2.86c1.4,1.45 3.2,2.44 5.16,2.86c1.97,0.42 4.02,0.24 5.88,-0.51c1.87,-0.75 3.47,-2.04 4.6,-3.7c1.13,-1.67 1.74,-3.63 1.75,-5.64c-0.02,-0.74 -0.32,-1.44 -0.85,-1.96c-0.53,-0.52 -1.24,-0.81 -1.98,-0.81z" fill="#ffffff" id="svg_15"/>
    <path d="m1142.07,64.41c2.51,0 4.54,-2.04 4.54,-4.55c0,-2.51 -2.03,-4.54 -4.54,-4.54c-2.51,0 -4.54,2.03 -4.54,4.54c0,2.51 2.03,4.55 4.54,4.55z" fill="#ffffff" id="svg_16"/>
    <path d="m1114.47,56.18c2.51,0 4.55,-2.03 4.55,-4.54c0,-2.51 -2.04,-4.54 -4.55,-4.54c-2.51,0 -4.54,2.03 -4.54,4.54c0,2.51 2.03,4.54 4.54,4.54z" fill="#ffffff" id="svg_17"/>
    <path d="m1175.66,10.26c4.35,1.28 8.27,1.03 8.74,-0.59c0.47,-1.62 -2.65,-3.98 -7.01,-5.27c-4.35,-1.3 -8.27,-1.03 -8.74,0.58c-0.47,1.62 2.65,3.98 7.01,5.28z" fill="#ffffff" id="svg_18"/>
    <path d="m1140.25,7.28c4.37,-1.26 7.52,-3.58 7.06,-5.2c-0.46,-1.62 -4.38,-1.93 -8.74,-0.66c-4.36,1.26 -7.53,3.58 -7.06,5.2c0.47,1.62 4.38,1.92 8.74,0.66z" fill="#ffffff" id="svg_19"/>
    <path d="m1111.9,94.97c-0.68,-0.32 -1.45,-0.35 -2.16,-0.09c-0.7,0.26 -1.27,0.78 -1.59,1.46c-4.72,10.18 -15.07,15.23 -25.75,12.55c-0.73,-0.19 -1.51,-0.07 -2.15,0.32c-0.65,0.39 -1.12,1.02 -1.3,1.75c-0.18,0.73 -0.06,1.51 0.33,2.15c0.39,0.65 1.02,1.11 1.75,1.29c2.33,0.6 4.72,0.91 7.13,0.92c10.68,0 20.23,-6.1 25.12,-16.55c0.16,-0.34 0.25,-0.71 0.27,-1.09c0.02,-0.37 -0.04,-0.75 -0.16,-1.1c-0.13,-0.36 -0.33,-0.68 -0.59,-0.96c-0.25,-0.27 -0.56,-0.5 -0.9,-0.65z" fill="#ffffff" id="svg_20"/>
    <path d="m593.77,114.13c-0.89,0 -1.77,0.26 -2.52,0.76c-0.75,0.5 -1.33,1.21 -1.67,2.04c-0.35,0.83 -0.44,1.75 -0.26,2.63c0.17,0.88 0.61,1.69 1.24,2.33c0.64,0.63 1.45,1.06 2.33,1.24c0.88,0.18 1.79,0.09 2.62,-0.26c0.84,-0.34 1.54,-0.93 2.04,-1.67c0.5,-0.75 0.77,-1.63 0.77,-2.53c0,-1.2 -0.48,-2.36 -1.33,-3.21c-0.85,-0.85 -2.01,-1.33 -3.22,-1.33z" fill="#ffffff" id="svg_21"/>
    <path d="m539.75,114.13c-0.9,0 -1.78,0.26 -2.53,0.76c-0.74,0.5 -1.33,1.21 -1.67,2.04c-0.35,0.83 -0.44,1.74 -0.27,2.62c0.18,0.89 0.61,1.7 1.24,2.33c0.64,0.64 1.45,1.07 2.33,1.25c0.88,0.18 1.8,0.09 2.63,-0.26c0.83,-0.34 1.54,-0.93 2.04,-1.67c0.5,-0.75 0.77,-1.63 0.77,-2.53c0,-1.2 -0.48,-2.36 -1.33,-3.21c-0.85,-0.85 -2.01,-1.33 -3.21,-1.33z" fill="#ffffff" id="svg_22"/>
    <path d="m578.81,143.18c-0.75,0 -1.46,0.29 -1.99,0.82c-0.53,0.53 -0.83,1.25 -0.83,1.99c-0.01,1.02 -0.36,2.01 -1,2.81c-0.64,0.79 -1.54,1.34 -2.54,1.55c-0.3,0.07 -0.61,0.1 -0.92,0.1c-1.18,0 -2.31,-0.47 -3.15,-1.3c-0.84,-0.84 -1.31,-1.97 -1.31,-3.16l0,-9.11l1.18,0c0.76,-0.01 1.48,-0.31 2.02,-0.84c0.53,-0.54 0.84,-1.27 0.84,-2.02c0,-0.76 -0.31,-1.49 -0.84,-2.02c-0.54,-0.54 -1.26,-0.84 -2.02,-0.84l-7.99,0c-0.37,0 -0.74,0.07 -1.09,0.21c-0.35,0.15 -0.66,0.36 -0.93,0.62c-0.4,0.4 -0.67,0.91 -0.78,1.47c-0.11,0.55 -0.06,1.13 0.16,1.65c0.22,0.52 0.58,0.97 1.05,1.29c0.47,0.31 1.03,0.48 1.59,0.48l1.17,0l0,9.11c0,1.19 -0.47,2.32 -1.3,3.16c-0.84,0.83 -1.98,1.3 -3.16,1.3c-0.31,0 -0.62,-0.03 -0.92,-0.1c-1,-0.21 -1.9,-0.76 -2.54,-1.55c-0.65,-0.79 -1,-1.79 -1,-2.81c-0.04,-0.72 -0.36,-1.39 -0.88,-1.89c-0.52,-0.49 -1.22,-0.77 -1.94,-0.77c-0.72,0 -1.42,0.28 -1.94,0.77c-0.52,0.5 -0.84,1.17 -0.88,1.89c0.01,2.46 0.91,4.84 2.54,6.68c1.62,1.84 3.87,3.03 6.31,3.34c0.84,4.6 4.35,8.07 8.54,8.07c4.18,0 7.7,-3.47 8.53,-8.07c2.44,-0.31 4.68,-1.5 6.31,-3.34c1.63,-1.85 2.53,-4.22 2.53,-6.68c0,-0.74 -0.3,-1.46 -0.83,-1.99c-0.53,-0.53 -1.24,-0.82 -1.99,-0.82zm-14.56,17.14c-2.23,0 -4.12,-1.92 -4.75,-4.6c1.03,-0.25 2.02,-0.69 2.91,-1.27l0,1.76c0,0.5 0.2,0.98 0.55,1.33c0.35,0.36 0.83,0.55 1.33,0.55c0.5,0 0.98,-0.19 1.33,-0.55c0.35,-0.35 0.55,-0.83 0.55,-1.33l0,-1.69c0.87,0.55 1.83,0.96 2.83,1.21c-0.62,2.67 -2.52,4.59 -4.75,4.59z" fill="#ffffff" id="svg_23"/>
    <path d="m597.46,94.15c-4.35,-1.3 -8.28,-1.03 -8.74,0.58c-0.47,1.61 2.65,3.98 7.01,5.28c4.35,1.3 8.27,1.03 8.74,-0.59c0.47,-1.62 -2.65,-3.99 -7.01,-5.27z" fill="#ffffff" id="svg_24"/>
    <path d="m547.48,94.26c-0.58,-1.59 -4.5,-1.62 -8.77,-0.07c-4.27,1.54 -7.27,4.08 -6.7,5.67c0.58,1.59 4.51,1.62 8.78,0.07c4.27,-1.56 7.26,-4.09 6.69,-5.67z" fill="#ffffff" id="svg_25"/>
    <path d="m574.82,39.8c1.42,-3.25 7.59,-3.91 13.21,-1.43c1.85,0.8 3.55,1.92 5.03,3.31c0.54,0.52 1.26,0.8 2.01,0.78c0.74,-0.01 1.45,-0.33 1.97,-0.86c0.52,-0.54 0.8,-1.27 0.78,-2.01c-0.01,-0.75 -0.32,-1.46 -0.86,-1.98c-1.95,-1.84 -4.2,-3.32 -6.65,-4.39c-8.81,-3.9 -17.88,-2 -20.65,4.29c-0.77,1.73 -1,3.66 -0.66,5.52c-5.46,2.03 -9.1,6.11 -9.1,10.9c-0.01,2.04 0.64,4.02 1.84,5.67c1.28,1.75 2.96,3.18 4.89,4.17c3.21,1.67 6.77,2.51 10.38,2.46l0.92,0c0.73,-0.06 1.41,-0.4 1.89,-0.94c0.48,-0.54 0.74,-1.25 0.71,-1.98c-0.03,-0.73 -0.33,-1.42 -0.86,-1.92c-0.52,-0.51 -1.22,-0.79 -1.95,-0.8l-0.75,0c-2.44,0.02 -4.86,-0.49 -7.08,-1.5c-2.18,-1.02 -3.77,-2.46 -4.26,-4.08c-0.11,-0.35 -0.17,-0.71 -0.17,-1.08c0,-2.32 2.3,-4.45 5.62,-5.64c1.89,-0.67 3.88,-1.01 5.89,-1.01c0.22,0 0.44,0 0.66,0c1.8,0.05 3.57,0.38 5.26,0.98c0.36,0.14 0.73,0.22 1.11,0.21c0.38,0 0.76,-0.08 1.11,-0.24c0.35,-0.15 0.66,-0.37 0.92,-0.65c0.27,-0.28 0.47,-0.6 0.6,-0.96c0.13,-0.36 0.19,-0.74 0.17,-1.12c-0.02,-0.38 -0.12,-0.75 -0.29,-1.1c-0.16,-0.34 -0.4,-0.64 -0.69,-0.89c-0.29,-0.25 -0.62,-0.44 -0.99,-0.55c-2.52,-0.9 -5.18,-1.35 -7.86,-1.34c-0.84,0 -1.68,0.05 -2.52,0.13c-0.04,-0.3 -0.04,-0.61 0,-0.92c0.06,-0.36 0.19,-0.71 0.37,-1.03z" fill="#ffffff" id="svg_26"/>
   </g>
  </g>
 </g>
</svg>