<?xml version="1.0"?>
<svg width="1440" height="475" xmlns="http://www.w3.org/2000/svg" xmlns:svg="http://www.w3.org/2000/svg">

 <g class="layer">
  <title>Layer 1</title>
  <rect fill="#104434" height="475" id="svg_1" width="1440" x="0" y="-2.25"/>
  <g id="svg_2" opacity="0.15">
   <mask height="475" id="mask0_707_7461" maskUnits="userSpaceOnUse" width="1440" x="0" y="0">
    <rect fill="#2F2D53" height="475" id="svg_3" width="1440"/>
   </mask>
   <g id="svg_4" mask="url(#mask0_707_7461)">
    <path d="m32.74,-90.45c6.75,-2.68 13.87,-4.31 21.12,-4.85c-5.96,-6.54 -11.92,-13.15 -17.93,-19.88c-10.2,-3.39 -19.65,-4.71 -28.44,-4.16c8.46,9.79 16.89,19.45 25.24,28.89m48.02,23.68c6.69,-2.22 13.62,-3.64 20.64,-4.21c-6.71,-6.96 -13.45,-14.05 -20.24,-21.27c-9.25,-2.3 -17.99,-3.13 -26.25,-2.62c8.67,9.55 17.29,18.91 25.85,28.1l0,0zm-18.89,8.75c5.79,-3.52 11.95,-6.39 18.37,-8.58c-8.59,-9.22 -17.24,-18.62 -25.95,-28.21c-7.26,0.5 -14.39,2.11 -21.16,4.78c9.64,10.89 19.22,21.57 28.74,32.01zm-16.99,12.62c5.13,-4.61 10.67,-8.75 16.55,-12.36c-9.54,-10.47 -19.14,-21.17 -28.8,-32.09c-6.4,2.61 -12.43,6.03 -17.93,10.2c10.14,11.68 20.2,23.1 30.19,34.25l-0.01,0zm84.44,2.31c6.48,-1.89 13.12,-3.16 19.83,-3.81c-7.55,-7.34 -15.13,-14.77 -22.77,-22.4c-7.88,-1.36 -15.9,-1.78 -23.89,-1.23c9.01,9.33 17.96,18.47 26.83,27.43l0,0.01zm-19.06,7.47c5.94,-2.98 12.14,-5.43 18.52,-7.32c-8.92,-9 -17.89,-18.18 -26.92,-27.54c-7.05,0.53 -14,1.91 -20.71,4.11c9.78,10.48 19.48,20.73 29.12,30.74l-0.01,0.01zm-17.75,10.75c5.48,-3.96 11.27,-7.48 17.3,-10.53c-9.65,-10.04 -19.37,-20.3 -29.18,-30.79c-6.43,2.17 -12.6,5.04 -18.41,8.56c10.17,11.16 20.27,22.09 30.29,32.76zm-16.54,13.76c5.08,-4.84 10.47,-9.34 16.14,-13.46c-10.02,-10.69 -20.13,-21.62 -30.32,-32.81c-5.88,3.61 -11.43,7.75 -16.56,12.36c10.32,11.55 20.57,22.86 30.74,33.91zm-15.43,16.47c4.73,-5.64 9.76,-11.03 15.07,-16.13c-10.18,-11.04 -20.43,-22.34 -30.75,-33.92c-5.38,4.86 -10.4,10.1 -15.03,15.67c10.32,11.71 20.55,23.17 30.71,34.38zm-14.45,18.88c4.58,-6.54 9.29,-12.71 14.13,-18.5c-10.15,-11.2 -20.39,-22.66 -30.71,-34.38c-4.91,5.94 -9.48,12.14 -13.71,18.58c10.17,11.68 20.27,23.11 30.29,34.3zm-13.58,21.06c4.31,-7.23 8.74,-14.11 13.29,-20.64c-10.01,-11.18 -20.11,-22.61 -30.28,-34.29c-4.34,6.61 -8.53,13.65 -12.57,21.14c9.93,11.5 19.78,22.76 29.55,33.79l0.01,0zm146.01,-64.85c6.15,-1.61 12.41,-2.78 18.72,-3.51c-8.48,-7.61 -16.99,-15.34 -25.6,-23.31c-7.09,-0.69 -14.22,-0.72 -21.31,-0.12c9.45,9.19 18.84,18.17 28.17,26.94l0.02,0zm-18.96,6.46c5.97,-2.54 12.11,-4.65 18.37,-6.32c-9.35,-8.78 -18.78,-17.79 -28.29,-27.04c-6.73,0.63 -13.4,1.88 -19.9,3.75c10.02,10.1 19.97,20.02 29.82,29.61zm-18.2,9.27c5.7,-3.41 11.62,-6.43 17.71,-9.05c-9.87,-9.63 -19.84,-19.56 -29.87,-29.67c-6.4,1.88 -12.61,4.31 -18.57,7.29c10.32,10.72 20.57,21.2 30.73,31.44l0,-0.01zm-17.44,11.88c5.43,-4.21 11.1,-8.09 16.99,-11.63c-10.16,-10.21 -20.41,-20.69 -30.75,-31.46c-6.04,3.05 -11.83,6.56 -17.32,10.52c10.45,11.12 20.81,21.98 31.08,32.58l0,-0.01zm-16.66,14.3c5.19,-4.94 10.61,-9.61 16.27,-14c-10.27,-10.57 -20.62,-21.43 -31.07,-32.57c-5.68,4.13 -11.07,8.63 -16.15,13.47c10.4,11.3 20.72,22.34 30.96,33.11l-0.01,-0.01zm-15.87,16.56c5.05,-5.73 10.22,-11.15 15.52,-16.21c-10.23,-10.75 -20.55,-21.79 -30.96,-33.12c-5.31,5.1 -10.35,10.48 -15.07,16.13c10.24,11.31 20.43,22.42 30.51,33.2zm-15.17,18.55c4.84,-6.36 9.78,-12.42 14.84,-18.17c-10.08,-10.78 -20.26,-21.89 -30.51,-33.19c-4.84,5.78 -9.55,11.95 -14.13,18.51c10,11.17 19.95,22.17 29.8,32.85zm-14.48,20.37c4.63,-6.91 9.35,-13.6 14.18,-19.97c-9.84,-10.67 -19.79,-21.67 -29.79,-32.83c-4.55,6.53 -8.98,13.41 -13.29,20.64c9.71,10.93 19.34,21.65 28.9,32.16l0,0zm-13.9,22.01c4.45,-7.44 8.99,-14.64 13.62,-21.6c-9.55,-10.47 -19.18,-21.19 -28.88,-32.14c-4.29,7.2 -8.45,14.76 -12.52,22.58c9.33,10.59 18.59,20.98 27.78,31.15l0,0.01zm-13.38,23.49c4.3,-7.9 8.67,-15.58 13.12,-23.04c-9.18,-10.17 -18.44,-20.55 -27.76,-31.14c-4.06,7.82 -8.01,15.9 -11.87,24.26c8.9,10.16 17.74,20.13 26.51,29.91l0,0.01zm194.04,-119.58c5.67,-1.4 11.39,-2.5 17.17,-3.3c-9.53,-7.75 -19.13,-15.72 -28.8,-23.9c-6.17,-0.16 -12.34,0.09 -18.48,0.74c10.11,9.06 20.15,17.88 30.11,26.46zm-18.47,5.69c5.86,-2.17 11.82,-4.03 17.88,-5.55c-9.98,-8.58 -20.04,-17.42 -30.18,-26.51c-6.34,0.71 -12.62,1.87 -18.79,3.47c10.45,9.8 20.81,19.33 31.09,28.59zm-18.46,8.06c5.83,-2.94 11.82,-5.56 17.93,-7.86c-10.29,-9.28 -20.67,-18.82 -31.13,-28.62c-6.28,1.66 -12.43,3.76 -18.41,6.28c10.63,10.34 21.17,20.4 31.61,30.19l0,0.01zm-18.12,10.34c5.77,-3.69 11.66,-7.05 17.66,-10.1c-10.46,-9.81 -21,-19.89 -31.64,-30.23c-6.1,2.62 -12.03,5.64 -17.73,9.04c10.66,10.7 21.23,21.13 31.71,31.27l0,0.02zm-17.67,12.47c5.63,-4.38 11.38,-8.44 17.24,-12.2c-10.49,-10.15 -21.06,-20.58 -31.72,-31.29c-5.9,3.53 -11.58,7.41 -17.02,11.61c10.59,10.9 21.09,21.52 31.5,31.86l0,0.02zm-17.14,14.49c5.48,-5.01 11.06,-9.74 16.75,-14.18c-10.42,-10.36 -20.92,-20.98 -31.5,-31.88c-5.66,4.39 -11.09,9.06 -16.27,14c10.43,10.95 20.78,21.64 31.02,32.05l0,0.01zm-16.61,16.34c5.32,-5.61 10.74,-10.94 16.25,-16.01c-10.26,-10.43 -20.6,-21.11 -31.03,-32.05c-5.3,5.05 -10.47,10.46 -15.52,16.21c10.19,10.88 20.28,21.45 30.3,31.83l0,0.02zm-16.1,18.03c5.17,-6.14 10.42,-12.04 15.77,-17.69c-10.03,-10.37 -20.11,-20.95 -30.3,-31.84c-5.06,5.76 -10.01,11.82 -14.85,18.18c9.88,10.7 19.67,21.16 29.38,31.35zm-15.61,19.59c5.02,-6.63 10.12,-13.03 15.3,-19.22c-9.72,-10.21 -19.51,-20.66 -29.37,-31.33c-4.83,6.38 -9.55,13.04 -14.17,19.98c9.48,10.4 18.91,20.64 28.24,30.58l0,-0.01zm-15.14,20.93c4.87,-7.03 9.81,-13.87 14.83,-20.52c-9.33,-9.94 -18.75,-20.16 -28.22,-30.55c-4.63,6.94 -9.17,14.14 -13.62,21.6c9.07,10.02 18.08,19.84 27.01,29.47zm-14.76,22.2c4.76,-7.43 9.58,-14.69 14.47,-21.78c-8.92,-9.61 -17.91,-19.43 -26.97,-29.45c-4.45,7.46 -8.82,15.14 -13.11,23.04c8.6,9.58 17.14,18.97 25.62,28.19l-0.01,0zm-14.45,23.33c4.66,-7.78 9.39,-15.41 14.17,-22.9c-8.46,-9.2 -16.99,-18.59 -25.57,-28.16c-4.3,7.93 -8.52,16.05 -12.67,24.36c8.06,9.05 16.09,17.95 24.07,26.7l0,0zm233.56,-148.56c5.02,-1.21 10.08,-2.25 15.23,-3.09c-10.81,-7.76 -21.7,-15.79 -32.67,-24.08c-5.15,0.2 -10.22,0.66 -15.22,1.31c10.98,8.91 21.87,17.53 32.66,25.86l0,0zm-17.7,5.09c5.61,-1.88 11.31,-3.52 17.08,-4.94c-10.8,-8.34 -21.71,-16.98 -32.7,-25.92c-5.8,0.79 -11.56,1.87 -17.24,3.26c11.05,9.49 22,18.69 32.85,27.6l0.01,0zm-18.46,7.09c5.88,-2.56 11.84,-4.86 17.9,-6.91c-10.86,-8.9 -21.82,-18.11 -32.88,-27.63c-6.07,1.51 -12.06,3.35 -17.93,5.53c11.06,9.96 22.04,19.63 32.91,29.01zm-18.65,9.06c5.95,-3.21 12,-6.16 18.14,-8.84c-10.88,-9.38 -21.86,-19.06 -32.93,-29.04c-6.13,2.28 -12.13,4.9 -17.97,7.83c11.02,10.32 21.94,20.34 32.76,30.05zm-18.52,11c5.93,-3.83 11.94,-7.42 18.06,-10.73c-10.83,-9.73 -21.75,-19.75 -32.76,-30.06c-6.06,3.06 -11.96,6.42 -17.68,10.08c10.89,10.53 21.68,20.77 32.38,30.71zm-18.28,12.76c5.86,-4.42 11.81,-8.58 17.85,-12.49c-10.7,-9.95 -21.5,-20.19 -32.39,-30.72c-5.86,3.76 -11.61,7.82 -17.25,12.2c10.69,10.62 21.28,20.96 31.79,31.01zm-17.95,14.46c5.76,-4.95 11.6,-9.67 17.54,-14.16c-10.49,-10.05 -21.08,-20.39 -31.77,-31c-5.69,4.43 -11.27,9.16 -16.74,14.2c10.4,10.56 20.74,20.93 30.97,30.96zm-17.57,15.96c5.65,-5.42 11.38,-10.64 17.19,-15.64c-10.23,-10.03 -20.56,-20.39 -30.96,-30.96c-5.52,5.06 -10.94,10.39 -16.26,16c10.09,10.44 20.1,20.64 30.03,30.6l0,0zm-17.19,17.39c5.54,-5.87 11.15,-11.56 16.83,-17.05c-9.91,-9.93 -19.92,-20.12 -30.01,-30.58c-5.34,5.64 -10.59,11.54 -15.75,17.69c9.72,10.23 19.37,20.2 28.93,29.94l0,0zm-16.89,18.68c5.44,-6.28 10.96,-12.39 16.55,-18.32c-9.57,-9.75 -19.2,-19.72 -28.91,-29.92c-5.19,6.18 -10.29,12.59 -15.3,19.22c9.29,9.91 18.51,19.58 27.66,29.02l0,0zm-16.53,19.82c5.34,-6.63 10.74,-13.11 16.21,-19.44c-9.15,-9.46 -18.36,-19.12 -27.65,-29c-5.02,6.64 -9.96,13.49 -14.83,20.53c8.82,9.49 17.58,18.79 26.27,27.91zm-16.27,20.85c5.26,-6.95 10.58,-13.77 15.96,-20.46c-8.69,-9.1 -17.43,-18.39 -26.24,-27.88c-4.89,7.08 -9.72,14.34 -14.47,21.78c8.3,9.02 16.56,17.88 24.75,26.56zm-16.05,21.77c5.2,-7.23 10.45,-14.36 15.75,-21.38c-8.19,-8.67 -16.43,-17.52 -24.72,-26.53c-4.79,7.49 -9.52,15.12 -14.19,22.9c7.77,8.52 15.48,16.82 23.16,25.01zm262.6,-151.63c4.23,-1.02 8.48,-1.94 12.76,-2.76c-12.38,-7.57 -24.88,-15.5 -37.49,-23.78c-3.8,0.38 -7.56,0.88 -11.28,1.47c12.1,8.69 24.11,17.04 36.01,25.07zm-16.7,4.59c5.29,-1.64 10.64,-3.12 16.04,-4.43c-11.91,-8.03 -23.93,-16.4 -36.07,-25.13c-5.16,0.83 -10.26,1.87 -15.3,3.07c11.89,9.17 23.66,18 35.33,26.49zm-18.29,6.37c5.84,-2.25 11.74,-4.31 17.7,-6.18c-11.67,-8.52 -23.46,-17.36 -35.36,-26.52c-5.79,1.4 -11.51,3.03 -17.13,4.9c11.7,9.6 23.3,18.86 34.79,27.8zm-19.01,8.12c6.09,-2.84 12.25,-5.47 18.47,-7.9c-11.49,-8.94 -23.1,-18.22 -34.81,-27.83c-6.07,2.04 -12.05,4.34 -17.94,6.9c11.53,9.93 22.97,19.54 34.29,28.83l-0.01,0zm-19.28,9.79c6.19,-3.39 12.45,-6.57 18.79,-9.55c-11.33,-9.29 -22.76,-18.91 -34.3,-28.85c-6.14,2.69 -12.2,5.63 -18.17,8.84c11.33,10.16 22.56,20.01 33.69,29.56l-0.01,0zm-19.31,11.37c6.21,-3.91 12.5,-7.62 18.86,-11.12c-11.13,-9.53 -22.36,-19.39 -33.69,-29.57c-6.12,3.31 -12.14,6.91 -18.08,10.73c11.07,10.29 22.04,20.27 32.91,29.96zm-19.19,12.87c6.18,-4.4 12.43,-8.59 18.76,-12.59c-10.87,-9.68 -21.83,-19.66 -32.9,-29.95c-6.04,3.91 -11.99,8.07 -17.85,12.48c10.74,10.29 21.42,20.35 31.99,30.06zm-18.96,14.2c6.12,-4.81 12.3,-9.45 18.55,-13.91c-10.56,-9.71 -21.24,-19.76 -32,-30.05c-5.94,4.48 -11.8,9.2 -17.57,14.15c10.44,10.24 20.78,20.17 31.02,29.81zm-18.76,15.51c6.06,-5.23 12.19,-10.3 18.37,-15.19c-10.24,-9.68 -20.58,-19.61 -30.99,-29.8c-5.81,4.99 -11.55,10.21 -17.2,15.64c10.02,10.04 19.96,19.82 29.82,29.35zm-18.51,16.64c5.98,-5.59 12.03,-11.03 18.15,-16.32c-9.86,-9.52 -19.79,-19.3 -29.81,-29.32c-5.69,5.47 -11.3,11.15 -16.83,17.04c9.56,9.75 19.06,19.29 28.49,28.6zm-18.28,17.68c5.91,-5.91 11.89,-11.69 17.92,-17.34c-9.42,-9.29 -18.91,-18.81 -28.48,-28.58c-5.59,5.93 -11.11,12.04 -16.55,18.32c9.11,9.42 18.14,18.62 27.11,27.6zm-18.1,18.65c5.87,-6.21 11.78,-12.3 17.75,-18.29c-8.97,-8.99 -18,-18.18 -27.09,-27.57c-5.47,6.32 -10.87,12.8 -16.21,19.45c8.57,8.97 17.09,17.78 25.55,26.41zm-17.89,19.46c5.8,-6.46 11.66,-12.82 17.56,-19.1c-8.44,-8.6 -16.95,-17.4 -25.52,-26.38c-5.38,6.68 -10.7,13.5 -15.96,20.46c8.03,8.49 16,16.83 23.92,25.01l0,0.01zm-17.78,20.2c5.77,-6.69 11.59,-13.3 17.45,-19.83c-7.91,-8.17 -15.88,-16.5 -23.91,-25c-5.3,7.03 -10.55,14.16 -15.75,21.4c7.46,7.97 14.85,15.74 22.21,23.42l0,0.01zm294.91,-154.11c3.2,-0.8 6.41,-1.55 9.65,-2.25c-14.52,-7.11 -29.18,-14.67 -44,-22.69c-2.13,0.34 -4.25,0.7 -6.37,1.1c13.71,8.35 27.28,16.3 40.72,23.83l0,0.01zm-15.51,4.23c4.9,-1.45 9.83,-2.81 14.79,-4.06c-13.44,-7.55 -27.01,-15.51 -40.73,-23.87c-4.31,0.81 -8.59,1.72 -12.83,2.74c13.06,8.79 25.98,17.18 38.77,25.18l0,0.01zm-18.03,5.86c5.76,-2.03 11.56,-3.93 17.4,-5.68c-12.8,-8.01 -25.73,-16.42 -38.8,-25.21c-5.42,1.31 -10.78,2.79 -16.09,4.43c12.62,9.19 25.11,18.01 37.49,26.46zm-19.36,7.45c6.21,-2.57 12.47,-4.99 18.78,-7.24c-12.37,-8.44 -24.88,-17.28 -37.51,-26.49c-5.98,1.86 -11.9,3.92 -17.74,6.18c12.27,9.53 24.43,18.72 36.47,27.55l0,0zm-19.99,8.91c6.42,-3.07 12.91,-5.97 19.45,-8.68c-12.03,-8.81 -24.19,-18 -36.47,-27.57c-6.24,2.41 -12.41,5.05 -18.51,7.9c11.96,9.8 23.8,19.24 35.52,28.35l0.01,0zm-20.29,10.31c6.53,-3.53 13.12,-6.89 19.78,-10.08c-11.71,-9.1 -23.55,-18.55 -35.51,-28.36c-6.33,2.97 -12.6,6.15 -18.81,9.55c11.63,9.96 23.14,19.59 34.54,28.89l0,0zm-20.42,11.61c6.59,-3.95 13.24,-7.74 19.94,-11.36c-11.39,-9.29 -22.9,-18.92 -34.52,-28.88c-6.37,3.49 -12.66,7.2 -18.87,11.11c11.25,10.02 22.4,19.73 33.45,29.13zm-20.32,12.79c6.57,-4.33 13.19,-8.5 19.87,-12.52c-11.03,-9.38 -22.17,-19.08 -33.43,-29.12c-6.34,4 -12.6,8.19 -18.77,12.6c10.89,9.99 21.64,19.63 32.33,29.04zm-20.29,13.91c6.56,-4.68 13.18,-9.23 19.85,-13.63c-10.68,-9.4 -21.44,-19.04 -32.31,-29.03c-6.26,4.45 -12.44,9.09 -18.56,13.91c10.44,9.84 20.79,19.46 31.02,28.75zm-20.11,14.88c6.51,-4.99 13.08,-9.85 19.7,-14.58c-10.23,-9.29 -20.56,-18.87 -30.98,-28.74c-6.19,4.89 -12.32,9.95 -18.38,15.19c9.97,9.64 19.86,19.02 29.66,28.13l0,0zm-20.04,15.84c6.49,-5.29 13.04,-10.47 19.64,-15.55c-9.81,-9.13 -19.69,-18.5 -29.65,-28.11c-6.11,5.28 -12.16,10.72 -18.14,16.32c9.46,9.34 18.85,18.48 28.16,27.37l-0.01,-0.03zm-19.85,16.62c6.44,-5.53 12.93,-10.96 19.46,-16.3c-9.29,-8.86 -18.68,-18 -28.12,-27.31c-6.04,5.65 -12.01,11.43 -17.93,17.35c8.93,8.96 17.8,17.72 26.6,26.27l-0.01,-0.01zm-19.77,17.39c6.42,-5.76 12.89,-11.45 19.42,-17.07c-8.79,-8.55 -17.64,-17.29 -26.57,-26.24c-5.97,5.98 -11.89,12.08 -17.75,18.3c8.34,8.51 16.64,16.85 24.9,25.01zm-19.68,18c6.39,-5.95 12.83,-11.84 19.31,-17.67c-8.23,-8.15 -16.52,-16.47 -24.87,-24.98c-5.9,6.26 -11.76,12.62 -17.57,19.09c7.75,8.01 15.46,15.87 23.11,23.57l0.02,-0.01zm-19.66,18.57c6.39,-6.12 12.81,-12.19 19.28,-18.22c-7.64,-7.68 -15.34,-15.52 -23.08,-23.53c-5.86,6.53 -11.68,13.14 -17.45,19.84c7.13,7.44 14.21,14.74 21.25,21.91zm338.68,-153.68c13.51,3.32 26.91,6.35 40.21,9.09c-30.13,-9.21 -60.88,-20.07 -92.28,-32.83c17.58,8.54 34.94,16.45 52.07,23.74l0,0zm-21.07,1.01c3.92,-1.15 7.84,-2.25 11.79,-3.3l0.05,0l0.06,0c2.03,0.52 4.06,1.03 6.09,1.53c-17.09,-7.33 -34.39,-15.28 -51.9,-23.83c-3.27,0.7 -6.51,1.45 -9.74,2.26c14.72,8.24 29.27,16.02 43.65,23.34l0,0zm-17.92,5.65c5.7,-1.92 11.44,-3.74 17.21,-5.44c-14.39,-7.33 -28.94,-15.12 -43.66,-23.38c-5,1.24 -9.95,2.59 -14.87,4.05c13.93,8.7 27.71,16.96 41.32,24.77zm-19.84,7.11c6.36,-2.42 12.76,-4.72 19.2,-6.9c-13.62,-7.83 -27.39,-16.09 -41.32,-24.79c-5.86,1.75 -11.68,3.64 -17.45,5.67c13.35,9.09 26.54,17.76 39.59,26.02l-0.02,0zm-20.82,8.41c6.7,-2.87 13.45,-5.6 20.24,-8.19c-13.04,-8.26 -26.23,-16.93 -39.57,-26.03c-6.33,2.25 -12.61,4.66 -18.82,7.24c12.87,9.4 25.59,18.39 38.16,26.98l-0.01,0zm-21.4,9.63c6.91,-3.26 13.86,-6.4 20.85,-9.4c-12.58,-8.61 -25.29,-17.61 -38.13,-26.99c-6.56,2.73 -13.06,5.62 -19.49,8.69c12.39,9.6 24.65,18.84 36.78,27.7l-0.01,0zm-21.61,10.71c6.99,-3.62 14.02,-7.1 21.1,-10.47c-12.12,-8.85 -24.37,-18.09 -36.76,-27.71c-6.66,3.19 -13.26,6.54 -19.8,10.07c11.93,9.71 23.75,19.08 35.46,28.11zm-21.8,11.74c7.06,-3.95 14.16,-7.78 21.32,-11.49c-11.7,-9.02 -23.51,-18.39 -35.45,-28.11c-6.72,3.62 -13.37,7.41 -19.96,11.36c11.48,9.74 22.84,19.16 34.09,28.24zm-21.76,12.64c7.05,-4.24 14.15,-8.37 21.31,-12.39c-11.25,-9.08 -22.61,-18.49 -34.09,-28.23c-6.69,4.01 -13.31,8.19 -19.87,12.52c10.97,9.67 21.85,19.04 32.65,28.1zm-21.78,13.49c7.06,-4.51 14.17,-8.92 21.31,-13.22c-10.77,-9.05 -21.66,-18.41 -32.64,-28.08c-6.68,4.4 -13.31,8.94 -19.88,13.63c10.51,9.52 20.92,18.74 31.21,27.67zm-21.76,14.26c7.06,-4.75 14.17,-9.41 21.33,-13.99c-10.3,-8.95 -20.69,-18.16 -31.16,-27.65c-6.63,4.74 -13.2,9.6 -19.72,14.6c9.92,9.24 19.79,18.31 29.55,27.04zm-21.66,14.9c7.03,-4.95 14.11,-9.82 21.23,-14.62c-9.74,-8.73 -19.6,-17.79 -29.52,-27.02c-6.6,5.06 -13.15,10.24 -19.64,15.53c9.39,8.96 18.69,17.62 27.93,26.12l0,-0.01zm-21.66,15.52c7.04,-5.14 14.12,-10.22 21.25,-15.23c-9.24,-8.49 -18.53,-17.14 -27.91,-26.08c-6.53,5.33 -13.02,10.77 -19.46,16.3c8.77,8.54 17.48,16.88 26.12,25.02l0,-0.01zm-21.67,16.08c7.05,-5.31 14.14,-10.57 21.27,-15.78c-8.64,-8.13 -17.34,-16.46 -26.1,-24.98c-6.53,5.61 -13,11.3 -19.43,17.07c8.15,8.07 16.23,15.97 24.26,23.7l0,-0.01zm-21.62,16.48c7.04,-5.42 14.11,-10.81 21.22,-16.17c-8.02,-7.72 -16.1,-15.6 -24.23,-23.66c-6.48,5.82 -12.92,11.71 -19.31,17.67c7.48,7.53 14.92,14.92 22.32,22.17l0,-0.01zm-21.68,16.85c7.06,-5.53 14.15,-11.04 21.28,-16.54c-7.38,-7.23 -14.8,-14.61 -22.28,-22.14c-6.47,6.02 -12.9,12.1 -19.3,18.22c6.81,6.95 13.57,13.77 20.3,20.47l0,-0.01zm412.31,-150.86c11.28,0.35 22.5,0.57 33.65,0.67c-25.28,-3.28 -50.97,-7.4 -77.07,-12.54c14.62,4.33 29.1,8.28 43.42,11.88l0,-0.01zm-38.7,-1.73c12.18,0.71 24.28,1.26 36.31,1.64c-15.32,-3.88 -30.81,-8.18 -46.47,-12.88c-14.04,-2.84 -28.21,-5.98 -42.49,-9.45c17.78,7.53 35.34,14.44 52.65,20.71l0,-0.02zm-29.26,1.85c3.2,-1.06 6.41,-2.1 9.63,-3.12l0.04,0l0.04,0c5.95,0.43 11.89,0.82 17.79,1.18c-17.74,-6.47 -35.73,-13.58 -53.95,-21.33c-3.02,-0.74 -6.04,-1.49 -9.07,-2.26c-3.74,0.99 -7.47,2.04 -11.18,3.13c15.76,8 31.32,15.48 46.7,22.42l0,-0.02zm-20.79,7.26c6.66,-2.43 13.36,-4.77 20.08,-7c-15.37,-6.97 -30.94,-14.45 -46.7,-22.45c-5.79,1.71 -11.55,3.52 -17.28,5.44c14.81,8.5 29.44,16.5 43.9,24.01zm-22.07,8.4c7.1,-2.83 14.24,-5.55 21.42,-8.17c-14.45,-7.53 -29.09,-15.54 -43.89,-24.03c-6.46,2.18 -12.88,4.48 -19.26,6.91c14.08,8.89 27.99,17.32 41.73,25.29zm-22.72,9.39c7.34,-3.15 14.72,-6.2 22.12,-9.16c-13.74,-7.98 -27.64,-16.41 -41.71,-25.3c-6.81,2.59 -13.57,5.32 -20.28,8.18c13.45,9.19 26.74,17.95 39.87,26.28zm-23.1,10.28c7.49,-3.44 15,-6.79 22.54,-10.04c-13.13,-8.33 -26.42,-17.09 -39.86,-26.29c-7.01,3 -13.97,6.13 -20.88,9.41c12.88,9.39 25.62,18.36 38.21,26.92l-0.01,0zm-23.33,11.09c7.57,-3.7 15.17,-7.32 22.8,-10.84c-12.59,-8.59 -25.32,-17.56 -38.19,-26.93c-7.09,3.36 -14.13,6.85 -21.13,10.47c12.31,9.47 24.49,18.58 36.53,27.3l-0.01,0zm-23.45,11.81c7.62,-3.94 15.27,-7.79 22.95,-11.57c-12.04,-8.72 -24.21,-17.82 -36.51,-27.3c-7.15,3.71 -14.26,7.54 -21.31,11.5c11.74,9.48 23.37,18.6 34.87,27.37l0,0zm-23.5,12.44c7.64,-4.13 15.31,-8.2 23.01,-12.19c-11.5,-8.78 -23.12,-17.9 -34.85,-27.36c-7.15,4.02 -14.26,8.14 -21.31,12.39c11.15,9.36 22.2,18.41 33.15,27.17l0,-0.01zm-23.52,13.01c7.65,-4.31 15.33,-8.56 23.04,-12.75c-10.93,-8.73 -21.98,-17.78 -33.13,-27.17c-7.16,4.31 -14.28,8.71 -21.35,13.23c10.59,9.18 21.07,18.08 31.45,26.7l-0.01,-0.01zm-23.56,13.52c7.66,-4.47 15.36,-8.89 23.1,-13.25c-10.37,-8.61 -20.84,-17.5 -31.4,-26.68c-7.15,4.57 -14.26,9.23 -21.33,13.99c9.96,8.92 19.83,17.53 29.64,25.94l-0.01,0zm-23.6,13.97c7.68,-4.61 15.39,-9.18 23.15,-13.7c-9.79,-8.42 -19.65,-17.02 -29.62,-25.92c-7.12,4.8 -14.2,9.67 -21.24,14.61c9.31,8.56 18.55,16.9 27.71,25.01l0,0zm-23.66,14.35c7.71,-4.72 15.44,-9.42 23.21,-14.08c-9.15,-8.11 -18.38,-16.44 -27.67,-24.99c-7.13,5.01 -14.21,10.09 -21.26,15.24c8.64,8.12 17.22,16.07 25.73,23.84l-0.01,-0.01zm-23.72,14.67c7.72,-4.82 15.48,-9.62 23.28,-14.4c-8.49,-7.74 -17.05,-15.67 -25.68,-23.81c-7.13,5.21 -14.22,10.47 -21.27,15.78c7.94,7.64 15.83,15.12 23.67,22.43l0,0zm-23.78,14.89c7.75,-4.88 15.52,-9.75 23.33,-14.62c-7.82,-7.3 -15.7,-14.76 -23.63,-22.4c-7.11,5.36 -14.18,10.75 -21.23,16.18c7.23,7.08 14.41,14.02 21.54,20.85l-0.01,-0.01zm-23.9,15.07c7.79,-4.92 15.6,-9.85 23.46,-14.8c-7.11,-6.79 -14.27,-13.72 -21.49,-20.8c-7.13,5.49 -14.22,11.01 -21.28,16.55c6.49,6.45 12.93,12.83 19.33,19.06l-0.02,-0.01zm471.92,-164.99c9.6,-1.64 19.16,-3.29 28.7,-4.96c-21.7,0.66 -43.64,1.01 -65.83,0.92c12.47,1.54 24.85,2.88 37.13,4.04zm-32.48,5.43c10.23,-1.67 20.42,-3.38 30.57,-5.11c-13.05,-1.25 -26.22,-2.71 -39.51,-4.38c-11.77,-0.08 -23.61,-0.29 -35.52,-0.63c14.98,3.73 29.8,7.1 44.46,10.12zm-32.81,5.2c10.51,-1.62 20.98,-3.28 31.41,-4.98c-14.97,-3.11 -30.12,-6.58 -45.43,-10.41c-12.26,-0.39 -24.58,-0.93 -36.98,-1.62c17.22,6.23 34.22,11.9 51,17.01zm-31.37,5.6c1.43,-0.52 2.85,-1.04 4.28,-1.56l0.02,0l0.03,0c8.65,-1.25 17.29,-2.53 25.9,-3.85c-16.98,-5.22 -34.19,-10.97 -51.62,-17.28c-6.46,-0.39 -12.95,-0.81 -19.45,-1.28c-3.02,0.96 -6.03,1.94 -9.04,2.93c16.86,7.6 33.48,14.61 49.88,21.04zm-24.08,9.11c7.77,-3.03 15.56,-5.97 23.37,-8.85c-16.4,-6.46 -33.03,-13.49 -49.88,-21.09c-6.74,2.24 -13.47,4.58 -20.16,7.01c15.76,8.19 31.32,15.83 46.67,22.93zm-24.67,9.83c7.98,-3.26 15.99,-6.45 24.01,-9.58c-15.35,-7.11 -30.9,-14.75 -46.66,-22.94c-7.19,2.62 -14.35,5.34 -21.48,8.17c14.91,8.64 29.62,16.75 44.13,24.35zm-25.01,10.46c8.11,-3.47 16.25,-6.87 24.4,-10.21c-14.52,-7.62 -29.22,-15.74 -44.11,-24.36c-7.42,2.95 -14.8,6 -22.16,9.16c14.14,8.94 28.1,17.41 41.88,25.41l-0.01,0zm-25.2,11c8.19,-3.65 16.4,-7.23 24.62,-10.75c-13.77,-8 -27.72,-16.47 -41.85,-25.42c-7.55,3.25 -15.08,6.59 -22.57,10.04c13.43,9.14 26.7,17.85 39.81,26.13l-0.01,0zm-25.35,11.46c8.24,-3.79 16.5,-7.53 24.79,-11.21c-13.1,-8.26 -26.36,-16.97 -39.77,-26.13c-7.65,3.52 -15.26,7.14 -22.83,10.84c12.76,9.23 25.37,18.06 37.83,26.5l-0.02,0zm-25.42,11.86c8.27,-3.91 16.57,-7.78 24.89,-11.62c-12.45,-8.41 -25.04,-17.24 -37.78,-26.49c-7.7,3.77 -15.35,7.62 -22.97,11.57c12.09,9.22 24.04,18.06 35.87,26.54l-0.01,0zm-25.51,12.21c8.31,-4.02 16.64,-8.01 24.99,-11.96c-11.81,-8.48 -23.76,-17.32 -35.83,-26.53c-7.71,3.98 -15.38,8.05 -23.02,12.19c11.41,9.09 22.7,17.86 33.87,26.3l-0.01,0zm-25.57,12.51c8.33,-4.11 16.69,-8.2 25.08,-12.26c-11.16,-8.43 -22.44,-17.2 -33.84,-26.3c-7.72,4.19 -15.4,8.44 -23.04,12.76c10.69,8.88 21.3,17.51 31.8,25.8zm-25.66,12.75c8.36,-4.18 16.75,-8.35 25.16,-12.51c-10.48,-8.28 -21.09,-16.91 -31.78,-25.78c-7.73,4.37 -15.44,8.78 -23.11,13.25c9.99,8.58 19.92,16.98 29.73,25.04l0,0zm-25.77,12.96c8.41,-4.23 16.83,-8.47 25.28,-12.7c-9.79,-8.06 -19.72,-16.44 -29.69,-25.01c-7.76,4.52 -15.47,9.09 -23.16,13.71c9.26,8.18 18.47,16.24 27.58,23.99l-0.01,0.01zm-25.86,13.09c8.45,-4.27 16.91,-8.56 25.39,-12.84c-9.1,-7.75 -18.3,-15.8 -27.54,-23.99c-7.78,4.67 -15.52,9.36 -23.22,14.09c8.52,7.74 16.98,15.35 25.37,22.73l0,0.01zm-26,13.17c5.87,-2.97 11.74,-5.94 17.63,-8.92l7.89,-4c-8.37,-7.37 -16.83,-14.98 -25.34,-22.71c-7.8,4.78 -15.57,9.58 -23.3,14.4c7.76,7.22 15.47,14.3 23.12,21.22l0,0.01zm-26.16,13.21c8.53,-4.29 17.09,-8.61 25.68,-12.96c-7.63,-6.91 -15.32,-13.98 -23.06,-21.21c-7.82,4.87 -15.59,9.74 -23.33,14.62c6.94,6.61 13.85,13.16 20.71,19.54l0,0.01zm-26.36,13.17c8.6,-4.28 17.22,-8.59 25.88,-12.94c-6.85,-6.37 -13.76,-12.91 -20.68,-19.53c-7.86,4.94 -15.68,9.88 -23.47,14.8c6.13,5.96 12.22,11.91 18.27,17.67zm521.48,-190.03c8.3,-3 16.6,-5.95 24.88,-8.84l-16.07,2.86c-13.65,2.42 -27.37,4.85 -41.16,7.29c10.84,-0.37 21.63,-0.81 32.35,-1.31zm-27.87,10.26c8.76,-3.29 17.51,-6.51 26.25,-9.67c-11.36,0.53 -22.8,0.98 -34.3,1.36c-10.08,1.77 -20.19,3.52 -30.33,5.25c12.9,1.2 25.69,2.22 38.38,3.06zm-27.72,10.58c8.87,-3.43 17.73,-6.81 26.58,-10.15c-12.95,-0.87 -26,-1.93 -39.16,-3.17c-10.34,1.77 -20.71,3.5 -31.11,5.21c14.71,3.02 29.28,5.72 43.69,8.1l0,0.01zm-27.71,10.86c8.94,-3.55 17.86,-7.05 26.78,-10.5c-14.56,-2.43 -29.29,-5.17 -44.18,-8.23c-10.52,1.71 -21.08,3.39 -31.67,5.03c16.57,5.04 32.92,9.6 49.07,13.69l0,0.01zm-27.62,11.1c8.95,-3.63 17.89,-7.23 26.82,-10.8c-16.26,-4.14 -32.74,-8.76 -49.42,-13.85c-8.95,1.37 -17.93,2.71 -26.92,4.01c-1.24,0.45 -2.48,0.9 -3.71,1.36c18.01,7.07 35.75,13.5 53.23,19.28zm-27.65,11.34c8.98,-3.72 17.96,-7.4 26.92,-11.04c-17.47,-5.82 -35.21,-12.27 -53.23,-19.33c-7.82,2.88 -15.64,5.84 -23.43,8.86c16.82,7.78 33.41,14.95 49.75,21.52l-0.01,-0.01zm-27.62,11.52c8.99,-3.77 17.97,-7.53 26.96,-11.26c-16.34,-6.59 -32.92,-13.76 -49.74,-21.53c-8.03,3.13 -16.06,6.32 -24.06,9.59c15.84,8.32 31.46,16.06 46.85,23.22l-0.01,-0.02zm-27.64,11.68c9,-3.82 18,-7.63 27,-11.41c-15.39,-7.19 -31,-14.92 -46.82,-23.21c-8.17,3.33 -16.31,6.74 -24.44,10.21c14.98,8.68 29.73,16.83 44.28,24.43l-0.02,-0.02zm-27.65,11.81c9.02,-3.86 18.05,-7.72 27.07,-11.55c-14.55,-7.63 -29.29,-15.77 -44.23,-24.42c-8.24,3.52 -16.46,7.11 -24.65,10.76c14.11,8.9 28.05,17.31 41.82,25.23l-0.01,-0.02zm-27.69,11.88c9.02,-3.88 18.06,-7.76 27.11,-11.64c-13.76,-7.93 -27.69,-16.34 -41.8,-25.21c-8.29,3.69 -16.56,7.43 -24.81,11.23c13.34,9.02 26.5,17.52 39.51,25.65l-0.01,-0.03zm-27.78,11.96l5.34,-2.3c7.28,-3.14 14.58,-6.28 21.88,-9.42c-13,-8.13 -26.14,-16.63 -39.45,-25.63c-8.33,3.83 -16.64,7.71 -24.92,11.63c12.53,9 24.91,17.58 37.16,25.75l-0.01,-0.03zm-27.87,11.99c9.1,-3.91 18.2,-7.82 27.31,-11.75c-12.24,-8.19 -24.61,-16.76 -37.13,-25.71c-8.36,3.96 -16.69,7.95 -25.01,11.97c11.75,8.87 23.36,17.37 34.84,25.52l-0.01,-0.03zm-27.91,12c9.12,-3.9 18.25,-7.81 27.39,-11.74c-11.48,-8.14 -23.08,-16.63 -34.8,-25.47c-8.39,4.06 -16.76,8.15 -25.1,12.27c10.96,8.63 21.78,16.9 32.51,24.94zm-28.05,11.92c9.16,-3.88 18.34,-7.78 27.53,-11.71c-10.73,-8.02 -21.53,-16.28 -32.47,-24.92c-8.42,4.16 -16.82,8.33 -25.19,12.51c10.15,8.33 20.17,16.32 30.13,24.12zm-28.22,11.86c9.21,-3.84 18.44,-7.72 27.69,-11.64c-9.95,-7.8 -19.96,-15.77 -30.09,-24.09c-8.45,4.22 -16.87,8.46 -25.28,12.7c9.32,7.93 18.53,15.55 27.68,23.03zm-28.39,11.75c9.27,-3.8 18.56,-7.64 27.87,-11.52c-9.15,-7.47 -18.34,-15.08 -27.65,-23c-8.49,4.28 -16.95,8.56 -25.39,12.85c8.47,7.41 16.84,14.61 25.17,21.67l0,0zm-28.6,11.6c9.34,-3.75 18.7,-7.54 28.08,-11.39c-8.32,-7.05 -16.68,-14.24 -25.12,-21.66l-8.09,4.11l-17.44,8.83c7.58,6.85 15.1,13.56 22.57,20.11l0,0zm-28.77,11.39c9.39,-3.67 18.8,-7.39 28.25,-11.18c-7.46,-6.55 -14.97,-13.24 -22.52,-20.08c-8.59,4.35 -17.16,8.67 -25.7,12.96c6.7,6.23 13.36,12.33 19.97,18.3l0,0zm-29.02,11.14c9.47,-3.58 18.97,-7.22 28.51,-10.95c-6.61,-5.98 -13.25,-12.04 -19.92,-18.25c-8.66,4.36 -17.29,8.68 -25.89,12.96c5.8,5.52 11.55,10.88 17.3,16.24l0,0zm-29.85,11.02c-4.83,-4.62 -9.64,-9.19 -14.51,-13.93c-45.94,22.4 -90.98,43.09 -135.07,60.21c48.65,-11.97 98.64,-27.87 149.58,-46.28l0,0zm-14.03,-14.15c4.88,4.75 9.7,9.34 14.55,13.98c9.57,-3.46 19.17,-7.01 28.8,-10.66c-5.73,-5.34 -11.47,-10.69 -17.26,-16.2c-8.72,4.34 -17.42,8.63 -26.09,12.88zm-16.13,-15.95c5.26,5.23 10.53,10.5 15.74,15.58c8.68,-4.23 17.38,-8.51 26.11,-12.86c-6.03,-5.77 -12.12,-11.69 -18.22,-17.63l-2.39,1.51c-7.11,4.48 -14.2,8.94 -21.25,13.39l0.01,0.01zm-17.39,-17.43c5.7,5.78 11.38,11.47 17.03,17.07c7.1,-4.47 14.22,-8.96 21.36,-13.48l2.26,-1.44c-6.38,-6.22 -12.81,-12.58 -19.27,-19.01c-7.16,5.61 -14.29,11.23 -21.38,16.85l0,0.01zm-18.56,-18.91c6.11,6.32 12.16,12.43 18.21,18.56c7.09,-5.62 14.22,-11.24 21.38,-16.86c-6.72,-6.69 -13.47,-13.5 -20.26,-20.42c-6.48,6.2 -12.93,12.44 -19.33,18.71l0,0.01zm-19.58,-20.51c6.44,6.8 12.88,13.57 19.25,20.16c6.41,-6.27 12.85,-12.51 19.33,-18.72c-7.04,-7.18 -14.11,-14.48 -21.22,-21.89c-5.84,6.75 -11.63,13.56 -17.38,20.44l0.02,0.01zm-20.69,-22.08c6.8,7.32 13.6,14.6 20.32,21.72c5.75,-6.86 11.54,-13.68 17.36,-20.44c-7.35,-7.68 -14.73,-15.45 -22.17,-23.4c-5.22,7.27 -10.39,14.64 -15.52,22.11l0.01,0.01zm-21.76,-23.7c7.18,7.9 14.32,15.68 21.42,23.32c5.14,-7.45 10.31,-14.82 15.54,-22.11c-7.67,-8.19 -15.36,-16.49 -23.12,-24.98c-4.68,7.79 -9.3,15.71 -13.86,23.75l0.02,0.02zm-22.87,-25.42c7.55,8.48 15.05,16.82 22.51,25.02c4.56,-8.03 9.17,-15.95 13.84,-23.75c-7.97,-8.72 -15.99,-17.61 -24.07,-26.67c-4.15,8.31 -8.25,16.77 -12.28,25.4zm-9.35,-302.4c2.36,2.74 4.71,5.46 7.06,8.18c8.98,-0.62 18.63,0.71 29.06,4.18l0.06,0.02l0.04,0.05c6.11,6.85 12.19,13.6 18.24,20.24c8.44,-0.57 17.38,0.26 26.86,2.62l0.07,0.02l0.05,0.05c6.91,7.33 13.77,14.54 20.59,21.63c8.18,-0.59 16.41,-0.18 24.48,1.23l0.08,0l0.05,0.05c7.77,7.76 15.48,15.31 23.16,22.77c7.29,-0.65 14.63,-0.62 21.92,0.09l0.08,0l0.05,0.06c8.74,8.09 17.4,15.95 26.01,23.66c6.33,-0.7 12.7,-0.96 19.07,-0.8l0.08,0l0.06,0.06c9.82,8.32 19.57,16.41 29.25,24.26c5.18,-0.7 10.45,-1.18 15.81,-1.39l0.09,0l0.06,0.05c11.15,8.45 22.2,16.59 33.15,24.44c3.94,-0.63 7.9,-1.15 11.91,-1.56l0.08,0l0.07,0.05c12.8,8.41 25.48,16.45 38.04,24.11c2.33,-0.43 4.67,-0.84 7.02,-1.22l0.08,0l0.07,0.03c15.03,8.15 29.91,15.82 44.63,23.01l0.44,-0.1l0.07,0l0.06,0.03c34.04,13.93 67.33,25.6 99.88,35.39c29.38,5.93 58.24,10.56 86.6,14.15c24.86,0.17 49.4,-0.23 73.64,-1.01c14.97,-2.63 29.87,-5.26 44.69,-7.91l19.12,-3.4c269.74,-93.41 527.04,-119.34 718.16,114.34l0,0.77c-190.26,-233.02 -446.31,-208.22 -714.94,-115.71c278.21,-49.27 525.28,-86.27 714.94,145.7l0,0.77c-190.27,-233.11 -438.49,-194.97 -718.02,-145.39c-8.74,3.02 -17.49,6.12 -26.26,9.3c42.48,-2.02 83.98,-4.96 124.47,-7.83c244.14,-17.28 451.7,-31.96 619.81,173.84l0,0.79c-168.04,-206.1 -375.6,-191.42 -619.77,-174.12c-41.02,2.91 -83.06,5.89 -126.13,7.9c-8.9,3.22 -17.82,6.5 -26.75,9.83c76.67,5.05 149.48,4.1 218.61,3.19c218.38,-2.85 400.48,-5.18 554.04,183.15l0,0.78c-153.51,-188.61 -335.63,-186.28 -554.04,-183.43c-69.49,0.91 -142.66,1.86 -219.74,-3.27c-8.93,3.35 -17.87,6.76 -26.82,10.23c103.62,17.12 199.27,19.1 288.09,20.94c201.5,4.17 367.87,7.62 512.52,185.4l0,0.79c-144.61,-178.05 -310.99,-181.52 -512.53,-185.69c-89.09,-1.84 -185.04,-3.82 -289.01,-21.08c-8.97,3.48 -17.94,6.99 -26.92,10.55c126.57,32.06 240.28,36.68 343.86,40.9c189.84,7.71 345.71,14.06 484.6,185.21l0,0.78c-138.86,-171.43 -294.74,-177.77 -484.61,-185.47c-103.8,-4.22 -217.76,-8.85 -344.65,-41.08c-8.97,3.57 -17.94,7.18 -26.91,10.84c147.01,48.75 275.68,55.45 391.04,61.45c181.47,9.41 330,17.15 465.12,184.16l0,0.78c-135.11,-167.29 -283.64,-175.03 -465.16,-184.46c-115.54,-6 -244.44,-12.72 -391.74,-61.66c-8.99,3.65 -17.99,7.34 -26.98,11.07c165.78,66.63 307.35,74.81 432.53,82.01c175.39,10.1 318.65,18.37 451.35,182.92l0,0.79c-132.69,-164.82 -275.94,-173.1 -451.38,-183.2c-125.34,-7.2 -267.12,-15.4 -433.18,-82.24c-9,3.73 -18,7.49 -27,11.28c183.37,85.34 336.32,94.42 470.01,102.33c170.91,10.12 310.33,18.41 441.55,181.7l0,0.79c-131.22,-163.57 -270.64,-171.86 -441.58,-181.98c-133.84,-7.94 -286.98,-17.02 -470.61,-102.58c-9.01,3.79 -18.03,7.59 -27.04,11.43c200.08,104.64 363.32,114.15 504.53,122.35c167.62,9.73 304.23,17.7 434.7,180.64l0,0.79c-130.47,-163.22 -267.09,-171.19 -434.72,-180.93c-141.36,-8.21 -304.78,-17.73 -505.11,-122.6c-9.04,3.84 -18.07,7.7 -27.1,11.57c216.15,124.41 388.81,133.92 536.88,142.04c165.19,9.07 299.8,16.5 430.05,179.78l0,0.79c-130.25,-163.56 -264.85,-170.99 -430.08,-180.06c-148.2,-8.14 -321.02,-17.66 -537.43,-142.29c-9.05,3.88 -18.09,7.76 -27.13,11.65c231.7,144.49 413.14,153.66 567.52,161.43c163.48,8.22 296.67,14.96 427.12,179.14l0,0.79c-130.47,-164.45 -263.63,-171.19 -427.14,-179.42c-154.52,-7.78 -336.13,-16.96 -568.06,-161.72c-7.42,3.19 -14.83,6.38 -22.23,9.57l-5.01,2.16c246.88,164.94 436.58,173.43 596.88,180.57c162.33,7.25 294.56,13.18 425.56,178.68l0,0.8c-131,-165.79 -263.23,-171.73 -425.57,-178.96c-160.44,-7.16 -350.3,-15.66 -597.43,-180.86c-9.12,3.92 -18.23,7.84 -27.33,11.76c261.79,185.64 459.32,193.17 625.24,199.49c161.62,6.16 293.27,11.21 425.09,178.41l0,0.79c-131.82,-167.49 -263.46,-172.54 -425.11,-178.69c-166.04,-6.34 -363.74,-13.87 -625.76,-199.77c-9.14,3.93 -18.27,7.84 -27.39,11.74c276.41,206.54 481.46,212.95 652.74,218.26c161.28,5 292.65,9.11 425.52,178.31l0,0.82c-132.87,-169.49 -264.24,-173.59 -425.53,-178.59c-171.4,-5.32 -376.61,-11.74 -653.26,-218.55c-9.2,3.93 -18.38,7.83 -27.54,11.71c290.9,227.7 503.19,232.77 679.64,236.91c156.91,3.69 285.52,6.75 415.91,164.95l-0.64,0c-130.18,-157.71 -258.61,-160.76 -415.29,-164.44c-176.57,-4.15 -389.03,-9.22 -680.16,-237.21c-9.25,3.92 -18.48,7.8 -27.69,11.65c305.27,249.11 524.59,252.64 706.06,255.5c146.48,2.3 268.34,4.24 390.88,134.49l-0.69,0c-122.31,-129.75 -243.97,-131.69 -390.19,-133.99c-181.6,-2.86 -401.07,-6.39 -706.58,-255.79c-9.32,3.89 -18.61,7.73 -27.88,11.54c319.59,270.81 545.75,272.62 732.14,274.06c134.78,1.04 248.78,1.95 362.28,104.18l-0.76,0c-113.25,-101.72 -227.03,-102.63 -361.53,-103.68c-186.5,-1.44 -412.83,-3.25 -732.66,-274.35c-9.38,3.84 -18.75,7.64 -28.09,11.39c333.88,292.81 566.76,292.74 757.97,292.66c120.96,-0.05 225.26,-0.06 327.9,73.98l-0.85,0c-102.36,-73.53 -206.4,-73.52 -327.02,-73.47c-191.33,0.07 -424.37,0.15 -758.49,-292.96c-9.45,3.79 -18.87,7.52 -28.27,11.19c348.15,315.07 587.64,313.05 783.59,311.36c103.1,-0.88 194.16,-1.63 282.65,43.88l-1.13,0c-88.13,-45 -178.85,-44.25 -281.52,-43.37c-196.07,1.68 -435.72,3.69 -784.11,-311.67c-9.53,3.72 -19.03,7.36 -28.51,10.94c362.43,337.63 608.47,333.6 809.11,330.23c74.14,-1.24 142.1,-2.36 207.44,13.87l-2.13,0c-64.69,-15.71 -131.97,-14.59 -205.31,-13.36c-200.76,3.37 -446.95,7.4 -809.63,-330.54c-9.63,3.63 -19.24,7.18 -28.81,10.65c228.13,218.33 410.68,302.19 564.81,333.26l-2.54,0c-153.71,-31.48 -335.68,-115.67 -562.79,-333.07c-52.37,18.93 -103.75,35.22 -153.67,47.31c-2.37,0.91 -4.74,1.81 -7.1,2.7l0,-0.55c1.09,-0.41 2.17,-0.82 3.26,-1.23l-3.26,0.77l0,-0.52c2.3,-0.55 4.62,-1.1 6.95,-1.66c45.18,-17.36 91.38,-38.54 138.53,-61.53c-5.19,-5.06 -10.46,-10.32 -15.7,-15.53c-44.18,27.82 -87.36,54.56 -129.78,77.51l0,-0.58c42.3,-22.89 85.36,-49.55 129.4,-77.29c-5.63,-5.6 -11.3,-11.28 -16.99,-17.03c-6.25,4.95 -12.48,9.89 -18.69,14.82c-31.75,25.23 -62.9,49.97 -93.72,72.62l0,-0.62c30.72,-22.59 61.78,-47.25 93.45,-72.4c6.18,-4.91 12.38,-9.84 18.62,-14.78c-6.05,-6.11 -12.07,-12.21 -18.17,-18.51c-13.91,13.61 -27.65,27.31 -41.29,40.89c-17.7,17.64 -35.21,35.08 -52.61,51.88l0,-0.69c17.28,-16.71 34.69,-34.03 52.28,-51.55c13.63,-13.58 27.36,-27.28 41.28,-40.88c-6.37,-6.58 -12.79,-13.34 -19.22,-20.13c-18.18,21.74 -35.99,43.95 -53.6,65.91c-6.94,8.66 -13.85,17.26 -20.74,25.81l0,-0.78c6.77,-8.39 13.56,-16.83 20.37,-25.34c17.62,-21.97 35.43,-44.19 53.63,-65.95c-6.73,-7.1 -13.51,-14.36 -20.32,-21.69c-18.32,26.62 -36.11,54.2 -53.68,81.6l0,-0.9c17.46,-27.23 35.14,-54.62 53.34,-81.07c-7.09,-7.65 -14.22,-15.41 -21.4,-23.31c-10.88,19.18 -21.49,38.95 -31.94,58.96l0,-1.05c10.34,-19.77 20.84,-39.32 31.6,-58.28c-7.45,-8.21 -14.94,-16.54 -22.48,-24.99c-3.07,6.57 -6.11,13.23 -9.12,19.95l0,-1.18c2.9,-6.45 5.82,-12.84 8.77,-19.16c-2.92,-3.29 -5.84,-6.59 -8.77,-9.9l0,-0.74c3.01,3.41 6.01,6.79 9,10.16c4.03,-8.62 8.13,-17.08 12.28,-25.39c-7.05,-7.91 -14.15,-15.94 -21.28,-24.11l0,-0.75c7.22,8.26 14.39,16.38 21.52,24.37c4.16,-8.29 8.38,-16.41 12.67,-24.35c-8.76,-9.77 -17.6,-19.72 -26.49,-29.88c-2.6,5.66 -5.17,11.43 -7.7,17.33l0,-1.22c2.42,-5.6 4.87,-11.1 7.37,-16.51c-2.45,-2.8 -4.91,-5.61 -7.37,-8.44l0,-0.75c2.53,2.92 5.06,5.82 7.59,8.71c3.86,-8.35 7.82,-16.43 11.87,-24.26c-6.44,-7.33 -12.93,-14.77 -19.46,-22.3l0,-0.75c6.6,7.64 13.17,15.17 19.71,22.58c4.06,-7.81 8.23,-15.36 12.52,-22.56c-9.77,-11.02 -19.62,-22.27 -29.54,-33.77c-0.9,1.68 -1.8,3.38 -2.69,5.1l0,-1.05c0.78,-1.5 1.56,-2.98 2.35,-4.44l-2.35,-2.72l0,-0.76l2.59,3.02c4.05,-7.47 8.24,-14.52 12.58,-21.14c-5.04,-5.8 -10.09,-11.64 -15.17,-17.55l0,-0.75c5.17,6.02 10.33,11.97 15.46,17.86c4.22,-6.44 8.8,-12.65 13.71,-18.58c-9.65,-10.96 -19.38,-22.13 -29.17,-33.53l0,-0.75c9.91,11.55 19.74,22.86 29.49,33.91c4.63,-5.57 9.65,-10.81 15.02,-15.67c-10.01,-11.19 -20.08,-22.62 -30.24,-34.27c-5.15,3.94 -9.93,8.34 -14.27,13.16l0,-0.75c4.26,-4.68 8.92,-8.97 13.95,-12.81c-4.63,-5.33 -9.28,-10.72 -13.95,-16.19l0,-0.75c4.8,5.61 9.58,11.16 14.34,16.64c5.5,-4.17 11.53,-7.6 17.92,-10.22c-8.41,-9.48 -16.88,-19.2 -25.38,-29.03c-2.31,0.16 -4.61,0.47 -6.88,0.91l0,-0.54c2.13,-0.41 4.29,-0.7 6.45,-0.87c-2.15,-2.49 -4.3,-4.98 -6.45,-7.47l0,-0.73z" fill="#ffffff" id="svg_5" stroke="#ffffff"/>
   </g>
  </g>
 </g>
</svg>