<svg width="1440" height="592" viewBox="0 0 1440 592" fill="none" xmlns="http://www.w3.org/2000/svg">
<rect y="2" width="1440" height="590" fill="#101828"/>
<g opacity="0.15">
<mask id="mask0_223_2860" style="mask-type:alpha" maskUnits="userSpaceOnUse" x="0" y="0" width="1440" height="591">
<rect width="1440" height="591" fill="#2F2D53"/>
</mask>
<g mask="url(#mask0_223_2860)">
<path d="M32.7366 25.5462C39.4902 22.8715 46.6112 21.2391 53.8555 20.705C47.9026 14.1559 41.9353 7.54924 35.9276 0.81875C25.7325 -2.57098 16.2805 -3.89288 7.48793 -3.33992C15.9522 6.45198 24.379 16.1143 32.7338 25.5462M80.7486 49.2253C87.4384 47.0054 94.3699 45.5947 101.395 45.0234C94.6848 38.0577 87.9361 30.9663 81.1489 23.7491C71.8956 21.4451 63.1578 20.6214 54.8951 21.1341C63.5696 30.6802 72.1884 40.044 80.7515 49.2253H80.7486ZM61.8589 57.9833C67.6542 54.4649 73.814 51.5853 80.2302 49.3952C71.6402 40.1793 62.9898 30.7781 54.2788 21.1917C47.0229 21.6909 39.8867 23.3013 33.1197 25.9667C42.7637 36.8645 52.3435 47.5367 61.8589 57.9833ZM44.8671 70.6033C49.9996 65.9913 55.5382 61.8523 61.4154 58.2367C51.8827 47.7671 42.2828 37.0728 32.6157 26.1539C26.2211 28.7567 20.1942 32.1841 14.6879 36.349C24.8292 48.0282 34.8928 59.4454 44.8786 70.6005L44.8671 70.6033ZM129.311 72.9073C135.788 71.0245 142.426 69.7499 149.139 69.1C141.591 61.7647 134.011 54.3286 126.37 46.7024C118.486 45.3383 110.467 44.9235 102.484 45.4669C111.494 54.8019 120.437 63.9448 129.311 72.8958V72.9073ZM110.245 80.378C116.192 77.3969 122.391 74.948 128.769 73.06C119.853 64.061 110.879 54.8806 101.847 45.5188C94.8048 46.0527 87.8523 47.4335 81.1403 49.6314C90.9188 60.1106 100.624 70.3557 110.257 80.3664L110.245 80.378ZM92.5018 91.1318C97.9829 87.1743 103.765 83.6519 109.796 80.5968C100.15 70.563 90.4253 60.2998 80.6219 49.8071C74.1908 51.9822 68.0161 54.8523 62.2074 58.3663C72.3833 69.5349 82.4814 80.4567 92.5018 91.1318ZM75.9621 104.889C81.0387 100.049 86.4314 95.551 92.1044 91.4255C82.0763 80.7428 71.9686 69.8075 61.7811 58.6198C55.8972 62.2301 50.3527 66.3664 45.2155 70.9777C55.5431 82.5322 65.792 93.8361 75.9621 104.889ZM60.5312 121.36C65.2586 115.715 70.2886 110.332 75.5992 105.232C65.4233 94.1941 55.1726 82.8874 44.8469 71.3118C39.4718 76.1706 34.4507 81.4072 29.8221 86.9817C40.1382 98.6879 50.3745 110.147 60.5312 121.36ZM46.0795 140.244C50.6568 133.697 55.3684 127.528 60.2144 121.737C50.0597 110.54 39.8223 99.0805 29.5024 87.359C24.5937 93.2963 20.0171 99.5006 15.7938 105.943C25.9639 117.619 36.0592 129.052 46.0795 140.244ZM32.4976 161.297C36.806 154.074 41.2373 147.194 45.7915 140.659C35.7769 129.482 25.6836 118.052 15.5115 106.367C11.1685 112.975 6.97721 120.024 2.93757 127.512C12.8658 139.008 22.7172 150.27 32.4918 161.297H32.4976ZM178.512 96.454C184.661 94.8406 190.917 93.6655 197.232 92.9375C188.75 85.3344 180.24 77.5959 171.629 69.627C164.543 68.9431 157.41 68.9055 150.317 69.5147C159.769 78.7018 169.161 87.6816 178.492 96.454H178.512ZM159.55 102.911C165.518 100.375 171.657 98.2624 177.922 96.5893C168.568 87.8112 159.139 78.7988 149.635 69.5521C142.897 70.1751 136.232 71.4285 129.728 73.2961C139.748 83.4048 149.701 93.3205 159.55 102.911ZM141.349 112.176C147.049 108.775 152.967 105.752 159.064 103.127C149.191 93.5049 139.215 83.569 129.187 73.4632C122.794 75.3364 116.58 77.7747 110.62 80.7495C120.945 91.4745 131.19 101.954 141.355 112.187L141.349 112.176ZM123.908 124.056C129.341 119.854 135.014 115.974 140.9 112.435C130.739 102.224 120.489 91.7366 110.15 80.9712C104.111 84.018 98.3209 87.5347 92.833 91.4889C103.28 102.608 113.64 113.467 123.914 124.067L123.908 124.056ZM107.253 138.363C112.435 133.424 117.864 128.75 123.519 124.361C113.253 113.789 102.896 102.934 92.4471 91.7942C86.7731 95.9219 81.3777 100.42 76.2962 105.258C86.7006 116.557 97.0214 127.596 107.259 138.375L107.253 138.363ZM91.3757 154.923C96.433 149.192 101.603 143.766 106.899 138.709C96.6691 127.957 86.3492 116.917 75.9391 105.589C70.6265 110.689 65.5945 116.072 60.8653 121.717C71.1094 133.03 81.2958 144.143 91.3757 154.923ZM76.2069 173.47C81.0453 167.105 85.9931 161.049 91.0503 155.3C80.9704 144.524 70.7868 133.413 60.5428 122.115C55.7006 127.894 50.9889 134.063 46.4079 140.621C56.4129 151.79 66.3632 162.788 76.2069 173.47ZM61.7322 193.843C66.3603 186.931 71.0777 180.241 75.9074 173.87C66.0665 163.197 56.1191 152.204 46.1227 141.039C41.5685 147.567 37.1382 154.448 32.8317 161.682C42.5353 172.613 52.1688 183.331 61.7322 193.837V193.843ZM47.8306 215.849C52.283 208.413 56.8228 201.213 61.4499 194.249C51.9 183.778 42.2722 173.065 32.5667 162.112C28.2842 169.311 24.1169 176.866 20.0504 184.688C29.3795 195.284 38.6396 205.669 47.8306 215.843V215.849ZM34.4531 239.338C38.7481 231.443 43.1199 223.763 47.5685 216.298C38.3852 206.13 29.1319 195.752 19.8084 185.163C15.7534 192.977 11.7983 201.064 7.94296 209.424C16.8421 219.584 25.6788 229.554 34.4531 239.332V239.338ZM228.494 119.759C234.155 118.36 239.885 117.259 245.662 116.461C236.129 108.71 226.529 100.742 216.862 92.5574C210.693 92.398 204.52 92.6462 198.384 93.3004C208.493 102.361 218.529 111.18 228.494 119.759ZM210.019 125.45C215.875 123.276 221.845 121.424 227.904 119.903C217.92 111.32 207.859 102.482 197.722 93.3868C191.382 94.0954 185.101 95.2571 178.927 96.8629C189.379 106.664 199.743 116.193 210.019 125.45ZM191.561 133.513C197.393 130.574 203.379 127.951 209.492 125.654C199.199 116.375 188.822 106.832 178.362 97.0271C172.084 98.6874 165.931 100.788 159.948 103.314C170.577 113.651 181.115 123.713 191.561 133.499V133.513ZM173.438 143.847C179.211 140.162 185.098 136.798 191.098 133.752C180.641 123.943 170.096 113.864 159.461 103.516C153.358 106.137 147.433 109.157 141.726 112.556C152.386 123.26 162.956 133.685 173.438 143.832V143.847ZM155.766 156.317C161.401 151.943 167.149 147.877 173.009 144.117C162.522 133.97 151.947 123.541 141.286 112.829C135.39 116.365 129.707 120.242 124.265 124.442C134.856 135.335 145.356 145.956 155.766 156.303V156.317ZM138.633 170.812C144.111 165.797 149.692 161.068 155.377 156.625C144.963 146.275 134.463 135.648 123.876 124.747C118.219 129.135 112.789 133.809 107.607 138.749C118.044 149.705 128.386 160.387 138.633 170.798V170.812ZM122.021 187.147C127.342 181.545 132.758 176.21 138.27 171.143C128.012 160.714 117.67 150.028 107.244 139.086C101.945 144.143 96.7699 149.547 91.7184 155.298C101.908 166.175 111.996 176.75 122.021 187.133V187.147ZM105.925 205.184C111.09 199.04 116.343 193.143 121.685 187.493C111.662 177.125 101.577 166.544 91.3901 155.655C86.331 161.415 81.3822 167.473 76.5439 173.83C86.4203 184.534 96.2141 194.985 105.925 205.184ZM90.3101 224.768C95.327 218.144 100.426 211.739 105.606 205.553C95.8906 195.337 86.1035 184.893 76.2444 174.222C71.4137 180.596 66.6886 187.256 62.0691 194.2C71.5471 204.603 80.9762 214.835 90.3101 224.78V224.768ZM75.1673 245.703C80.0382 238.668 84.9832 231.826 90.002 225.177C80.6738 215.238 71.2505 205.017 61.7783 194.632C57.1511 201.575 52.6132 208.775 48.1646 216.232C57.2346 226.248 66.2355 236.072 75.1673 245.703ZM60.4074 267.902C65.1651 260.473 69.9891 253.212 74.8792 246.117C65.9571 236.508 56.9678 226.692 47.9112 216.67C43.4588 224.133 39.0879 231.813 34.7987 239.709C43.3964 249.286 51.9355 258.684 60.416 267.902H60.4074ZM45.9557 291.229C50.6213 283.453 55.3473 275.82 60.1338 268.331C51.6667 259.126 43.142 249.739 34.5597 240.17C30.2608 248.096 26.0369 256.216 21.8878 264.529C29.9517 273.58 37.9772 282.48 45.9643 291.229H45.9557ZM279.521 142.675C284.535 141.465 289.601 140.417 294.745 139.579C283.943 131.818 273.054 123.791 262.077 115.496C256.925 115.698 251.859 116.159 246.86 116.812C257.84 125.721 268.726 134.342 279.518 142.675H279.521ZM261.818 147.761C267.432 145.883 273.125 144.237 278.896 142.824C268.095 134.478 257.195 125.838 246.197 116.905C240.397 117.687 234.643 118.775 228.958 120.165C240.007 129.651 250.96 138.85 261.815 147.761H261.818ZM243.358 154.848C249.237 152.295 255.204 149.991 261.259 147.936C250.396 139.039 239.437 129.83 228.382 120.309C222.307 121.819 216.32 123.664 210.448 125.835C221.515 135.804 232.485 145.475 243.358 154.848ZM224.707 163.912C230.659 160.701 236.707 157.753 242.851 155.067C231.97 145.69 220.993 136.009 209.918 126.026C203.792 128.313 197.794 130.93 191.95 133.865C202.967 144.183 213.886 154.198 224.707 163.912ZM206.189 174.91C212.119 171.083 218.132 167.488 224.246 164.176C213.419 154.454 202.499 144.434 191.486 134.118C185.428 137.18 179.527 140.544 173.806 144.198C184.698 154.729 195.492 164.967 206.189 174.91ZM187.907 187.668C193.766 183.252 199.718 179.089 205.762 175.178C195.06 165.229 184.264 154.99 173.374 144.463C167.513 148.219 161.76 152.283 156.117 156.657C166.808 167.278 177.404 177.615 187.907 187.668ZM169.956 202.129C175.716 197.181 181.565 192.46 187.503 187.965C177.007 177.918 166.416 167.584 155.732 156.965C150.041 161.398 144.458 166.132 138.985 171.166C149.387 181.727 159.729 192.098 169.956 202.129ZM152.388 218.092C158.038 212.667 163.769 207.453 169.578 202.451C159.355 192.423 149.018 182.055 138.616 171.486C133.102 176.545 127.684 181.88 122.364 187.49C132.452 197.931 142.461 208.132 152.391 218.092H152.388ZM135.197 235.476C140.737 229.607 146.348 223.925 152.031 218.432C142.116 208.504 132.114 198.31 122.024 187.85C116.679 193.495 111.426 199.393 106.265 205.544C115.99 215.766 125.635 225.744 135.2 235.476H135.197ZM118.306 254.164C123.751 247.88 129.268 241.771 134.858 235.836C125.294 226.09 115.657 216.119 105.946 205.922C100.762 212.102 95.6621 218.51 90.6471 225.145C99.9398 235.047 109.161 244.72 118.309 254.164H118.306ZM101.778 273.981C107.118 267.348 112.521 260.867 117.99 254.538C108.843 245.081 99.6268 235.415 90.3418 225.543C85.3211 232.184 80.3771 239.027 75.51 246.071C84.3304 255.56 93.0864 264.863 101.778 273.981ZM85.5121 294.829C90.7729 287.879 96.0912 281.058 101.467 274.367C92.785 265.272 84.0385 255.978 75.2277 246.486C70.3356 253.567 65.5126 260.828 60.7588 268.27C69.0646 277.294 77.3157 286.147 85.5121 294.829ZM69.4563 316.605C74.6556 309.368 79.9077 302.238 85.2126 295.215C77.0239 286.546 68.7814 277.704 60.4852 268.688C55.6986 276.176 50.9717 283.811 46.3042 291.595C54.0743 300.108 61.784 308.414 69.4563 316.605ZM332.061 164.966C336.285 163.946 340.538 163.027 344.822 162.209C332.44 154.641 319.942 146.713 307.327 138.427C303.532 138.81 299.773 139.311 296.047 139.895C308.152 148.585 320.157 156.942 332.061 164.966ZM315.357 169.559C320.65 167.918 325.997 166.441 331.398 165.13C319.494 157.102 307.471 148.725 295.33 139.999C290.166 140.831 285.071 141.865 280.034 143.069C291.921 152.239 303.695 161.069 315.357 169.559ZM297.072 175.933C302.907 173.678 308.807 171.617 314.772 169.749C303.095 161.232 291.308 152.393 279.412 143.23C273.616 144.626 267.904 146.258 262.276 148.126C273.98 157.726 285.579 166.995 297.072 175.933ZM278.064 184.051C284.149 181.212 290.305 178.576 296.533 176.146C285.038 167.206 273.434 157.932 261.72 148.322C255.649 150.361 249.669 152.659 243.778 155.217C255.315 165.151 266.745 174.762 278.067 184.051H278.064ZM258.783 193.843C264.969 190.45 271.231 187.267 277.569 184.293C266.241 175.002 254.808 165.384 243.271 155.439C237.127 158.127 231.071 161.073 225.101 164.277C236.433 174.438 247.661 184.291 258.786 193.837L258.783 193.843ZM239.47 205.21C245.679 201.299 251.967 197.593 258.333 194.091C247.198 184.556 235.966 174.699 224.638 164.519C218.518 167.828 212.499 171.431 206.563 175.25C217.634 185.535 228.603 195.522 239.47 205.21ZM220.28 218.081C226.461 213.684 232.713 209.486 239.038 205.487C228.174 195.814 217.209 185.83 206.143 175.535C200.097 179.45 194.145 183.612 188.287 188.023C199.035 198.31 209.714 208.37 220.28 218.081ZM201.324 232.285C207.436 227.466 213.617 222.828 219.869 218.372C209.305 208.663 198.626 198.607 187.872 188.316C181.93 192.796 176.074 197.515 170.304 202.474C180.741 212.706 191.081 222.643 201.324 232.285ZM182.561 247.788C188.621 242.558 194.745 237.494 200.933 232.596C190.686 222.919 180.354 212.987 169.938 202.8C164.127 207.792 158.394 213.006 152.739 218.444C162.762 228.478 172.702 238.259 182.561 247.788ZM164.052 264.431C170.033 258.844 176.08 253.404 182.196 248.11C172.342 238.589 162.408 228.815 152.394 218.786C146.703 224.264 141.091 229.944 135.557 235.827C145.123 245.583 154.621 255.117 164.052 264.431ZM145.767 282.114C151.682 276.199 157.657 270.417 163.692 264.768C154.274 255.483 144.779 245.956 135.206 236.187C129.619 242.12 124.102 248.229 118.655 254.515C127.765 263.933 136.802 273.133 145.767 282.114ZM127.675 300.765C133.537 294.554 139.451 288.456 145.418 282.471C136.454 273.476 127.425 264.286 118.332 254.901C112.86 261.222 107.456 267.704 102.118 274.347C110.695 283.319 119.214 292.125 127.675 300.765ZM109.776 320.216C115.582 313.759 121.438 307.395 127.344 301.122C118.896 292.517 110.386 283.721 101.816 274.736C96.4397 281.417 91.1223 288.238 85.8635 295.198C93.8851 303.688 101.856 312.025 109.776 320.208V320.216ZM91.9978 340.416C97.7693 333.731 103.586 327.12 109.448 320.585C101.537 312.421 93.5693 304.091 85.5438 295.595C80.2389 302.615 74.9868 309.747 69.7875 316.991C77.2466 324.957 84.6366 332.733 91.9978 340.408V340.416ZM386.907 186.309C390.106 185.514 393.322 184.763 396.555 184.057C382.042 176.953 367.377 169.39 352.56 161.368C350.429 161.708 348.305 162.074 346.187 162.466C359.899 170.823 373.473 178.768 386.907 186.3V186.309ZM371.401 190.54C376.299 189.086 381.229 187.735 386.193 186.485C372.753 178.93 359.175 170.97 345.458 162.607C341.148 163.419 336.87 164.335 332.625 165.354C345.689 174.136 358.614 182.529 371.401 190.531V190.54ZM353.372 196.403C359.132 194.366 364.933 192.472 370.773 190.721C357.973 182.707 345.039 174.303 331.971 165.51C326.551 166.823 321.186 168.299 315.875 169.936C328.495 179.127 340.994 187.95 353.372 196.403ZM334.01 203.851C340.218 201.276 346.478 198.864 352.791 196.614C340.415 188.166 327.911 179.334 315.279 170.118C309.298 171.982 303.384 174.042 297.536 176.298C309.812 185.835 321.969 195.019 334.008 203.851H334.01ZM314.018 212.759C320.444 209.687 326.929 206.792 333.472 204.076C321.441 195.267 309.284 186.077 297 176.506C290.758 178.925 284.589 181.561 278.493 184.414C290.453 194.206 302.293 203.654 314.015 212.759H314.018ZM293.731 223.066C300.259 219.543 306.853 216.183 313.514 212.986C301.802 203.889 289.965 194.436 278.004 184.627C271.668 187.597 265.398 190.781 259.195 194.177C270.816 204.142 282.327 213.772 293.728 223.066H293.731ZM273.309 234.678C279.897 230.731 286.545 226.945 293.253 223.322C281.86 214.032 270.352 204.404 258.728 194.439C252.363 197.932 246.074 201.636 239.861 205.553C251.11 215.568 262.26 225.276 273.309 234.678ZM252.988 247.465C259.555 243.145 266.178 238.973 272.86 234.949C261.832 225.572 250.687 215.866 239.426 205.832C233.09 209.826 226.833 214.024 220.655 218.426C231.55 228.423 242.303 238.065 252.988 247.465ZM232.702 261.378C239.262 256.696 245.879 252.152 252.553 247.747C241.874 238.35 231.112 228.711 220.237 218.72C213.982 223.171 207.798 227.808 201.684 232.631C212.116 242.471 222.466 252.093 232.702 261.378ZM212.585 276.265C219.098 271.273 225.666 266.41 232.29 261.675C222.058 252.388 211.732 242.81 201.31 232.942C195.116 237.832 188.99 242.895 182.933 248.131C192.901 257.771 202.787 267.149 212.591 276.265H212.585ZM192.552 292.105C199.043 286.813 205.589 281.629 212.188 276.553C202.384 267.423 192.501 258.051 182.538 248.436C176.427 253.722 170.379 259.163 164.395 264.759C173.858 274.099 183.253 283.243 192.558 292.125L192.552 292.105ZM172.703 308.722C179.143 303.193 185.63 297.758 192.163 292.419C182.87 283.563 173.481 274.422 164.037 265.111C158.003 270.756 152.027 276.538 146.11 282.457C155.045 291.419 163.912 300.176 172.709 308.728L172.703 308.722ZM152.926 326.109C159.351 320.349 165.824 314.659 172.346 309.039C163.56 300.491 154.705 291.746 145.781 282.802C139.808 288.779 133.892 294.877 128.032 301.096C136.372 309.613 144.671 317.951 152.926 326.109ZM133.245 344.111C139.64 338.159 146.078 332.269 152.558 326.44C144.331 318.293 136.042 309.965 127.692 301.456C121.788 307.717 115.932 314.082 110.124 320.55C117.873 328.559 125.575 336.416 133.23 344.123L133.245 344.111ZM113.589 362.684C119.977 356.565 126.404 350.491 132.87 344.463C125.227 336.783 117.534 328.94 109.79 320.933C103.927 327.461 98.1091 334.073 92.3376 340.768C99.4665 348.208 106.55 355.513 113.589 362.684ZM452.274 209C465.781 212.318 479.182 215.349 492.478 218.092C462.353 208.877 431.601 198.016 400.201 185.261C417.78 193.799 435.138 201.711 452.274 208.997V209ZM431.204 210.014C435.117 208.862 439.044 207.76 442.986 206.708H443.04H443.101C445.134 207.226 447.164 207.737 449.192 208.24C432.104 200.908 414.802 192.963 397.286 184.405C394.022 185.11 390.778 185.864 387.552 186.666C402.267 194.912 416.817 202.694 431.204 210.011V210.014ZM413.276 215.656C418.98 213.736 424.717 211.924 430.487 210.219C416.102 202.894 401.549 195.1 386.826 186.836C381.834 188.08 376.878 189.431 371.957 190.888C385.892 199.591 399.665 207.847 413.276 215.656ZM393.444 222.767C399.803 220.346 406.201 218.046 412.637 215.869C399.018 208.041 385.247 199.778 371.323 191.078C365.46 192.827 359.643 194.719 353.874 196.752C367.216 205.841 380.41 214.513 393.456 222.767H393.444ZM372.619 231.176C379.324 228.313 386.072 225.584 392.863 222.988C379.818 214.732 366.628 206.057 353.292 196.962C346.956 199.208 340.683 201.62 334.474 204.197C347.338 213.601 360.057 222.594 372.631 231.176H372.619ZM351.218 240.81C358.13 237.546 365.081 234.411 372.072 231.407C359.492 222.795 346.78 213.8 333.936 204.421C327.381 207.146 320.884 210.041 314.447 213.107C326.838 222.713 339.099 231.947 351.23 240.81H351.218ZM329.607 251.517C336.596 247.904 343.631 244.416 350.714 241.054C338.593 232.201 326.339 222.964 313.951 213.343C307.291 216.525 300.69 219.88 294.149 223.409C306.085 233.124 317.905 242.493 329.607 251.517ZM307.814 263.262C314.87 259.311 321.974 255.48 329.126 251.771C317.431 242.747 305.617 233.377 293.682 223.662C286.962 227.285 280.309 231.071 273.721 235.018C285.197 244.764 296.561 254.178 307.814 263.262ZM286.047 275.899C293.101 271.662 300.205 267.534 307.359 263.515C296.108 254.432 284.745 245.019 273.269 235.277C266.582 239.292 259.958 243.465 253.397 247.796C264.368 257.473 275.251 266.841 286.047 275.899ZM264.272 289.389C271.334 284.881 278.438 280.475 285.584 276.17C274.805 267.119 263.922 257.759 252.936 248.09C246.259 252.487 239.635 257.03 233.065 261.718C243.575 271.238 253.977 280.461 264.272 289.389ZM242.508 303.645C249.574 298.897 256.683 294.235 263.837 289.66C253.538 280.713 243.151 271.497 232.676 262.012C226.05 266.747 219.478 271.612 212.959 276.608C222.884 285.852 232.751 294.919 242.508 303.645ZM220.851 318.549C227.883 313.605 234.961 308.733 242.082 303.933C232.336 295.204 222.478 286.14 212.562 276.91C205.961 281.969 199.414 287.147 192.921 292.445C202.312 301.398 211.609 310.059 220.851 318.557V318.549ZM199.193 334.075C206.232 328.933 213.313 323.855 220.436 318.84C211.203 310.349 201.915 301.698 192.532 292.761C186.004 298.093 179.515 303.528 173.066 309.065C181.839 317.599 190.548 325.939 199.193 334.083V334.075ZM177.524 350.148C184.573 344.841 191.66 339.582 198.787 334.371C190.147 326.24 181.449 317.912 172.692 309.387C166.164 314.996 159.687 320.688 153.261 326.463C161.405 334.527 169.493 342.425 177.524 350.156V350.148ZM155.896 366.63C162.94 361.214 170.014 355.822 177.118 350.456C169.1 342.743 161.024 334.859 152.889 326.803C146.407 332.622 139.969 338.512 133.576 344.471C141.062 352.005 148.502 359.394 155.896 366.638V366.63ZM134.224 383.483C141.28 377.954 148.371 372.438 155.498 366.935C148.124 359.706 140.697 352.328 133.219 344.8C126.75 350.825 120.318 356.899 113.923 363.024C120.726 369.971 127.492 376.793 134.224 383.492V383.483ZM546.535 232.619C557.813 232.968 569.03 233.192 580.185 233.29C554.898 230.007 529.209 225.894 503.114 220.751C517.732 225.076 532.206 229.035 546.535 232.628V232.619ZM507.834 230.891C520.01 231.599 532.114 232.147 544.145 232.533C528.823 228.647 513.333 224.353 497.673 219.65C483.629 216.815 469.463 213.666 455.177 210.204C472.963 217.732 490.516 224.635 507.834 230.911V230.891ZM478.568 232.743C481.772 231.681 484.982 230.64 488.198 229.618H488.239H488.282C494.234 230.052 500.165 230.445 506.074 230.796C488.33 224.328 470.344 217.219 452.118 209.47C449.1 208.733 446.077 207.978 443.049 207.206C439.307 208.203 435.58 209.246 431.869 210.337C447.628 218.343 463.194 225.818 478.568 232.763V232.743ZM457.777 239.997C464.445 237.569 471.139 235.235 477.859 232.996C462.486 226.033 446.919 218.55 431.158 210.55C425.367 212.257 419.607 214.071 413.878 215.993C428.69 224.489 443.324 232.49 457.777 239.997ZM435.708 248.398C442.812 245.572 449.954 242.85 457.135 240.231C442.678 232.703 428.044 224.693 413.236 216.203C406.777 218.375 400.359 220.679 393.983 223.115C408.058 232.005 421.967 240.432 435.708 248.398ZM412.988 257.79C420.332 254.637 427.706 251.586 435.112 248.635C421.372 240.653 407.468 232.217 393.398 223.325C386.592 225.919 379.833 228.648 373.12 231.513C386.566 240.704 399.855 249.463 412.988 257.79ZM389.891 268.071C397.378 264.627 404.891 261.28 412.429 258.032C399.3 249.703 386.015 240.94 372.573 231.743C365.563 234.739 358.602 237.873 351.688 241.147C364.575 250.537 377.311 259.512 389.896 268.071H389.891ZM366.563 279.162C374.127 275.455 381.726 271.839 389.358 268.316C376.768 259.732 364.04 250.757 351.172 241.391C344.082 244.747 337.037 248.236 330.039 251.857C342.35 261.332 354.526 270.435 366.568 279.165L366.563 279.162ZM343.108 290.97C350.725 287.032 358.375 283.177 366.059 279.404C354.02 270.684 341.852 261.584 329.552 252.105C322.396 255.812 315.293 259.643 308.24 263.596C319.983 273.077 331.608 282.203 343.114 290.973L343.108 290.97ZM319.608 303.412C327.245 299.276 334.916 295.213 342.619 291.224C331.118 282.443 319.502 273.324 307.771 263.864C300.619 267.875 293.515 272.003 286.459 276.248C297.612 285.606 308.664 294.662 319.613 303.417L319.608 303.412ZM296.09 316.423C303.737 312.111 311.417 307.86 319.13 303.671C308.197 294.943 297.153 285.887 285.996 276.504C278.836 280.807 271.721 285.214 264.652 289.726C275.237 298.913 285.718 307.814 296.096 316.429L296.09 316.423ZM272.529 329.939C280.195 325.469 287.894 321.053 295.626 316.691C285.258 308.08 274.794 299.186 264.234 290.008C257.077 294.578 249.965 299.24 242.9 303.996C252.861 312.921 262.734 321.527 272.535 329.945L272.529 329.939ZM248.927 343.91C256.607 339.302 264.324 334.734 272.077 330.207C262.285 321.792 252.427 313.195 242.462 304.287C235.339 309.087 228.258 313.959 221.219 318.903C230.535 327.46 239.773 335.798 248.933 343.915L248.927 343.91ZM225.271 358.261C232.976 353.537 240.714 348.843 248.484 344.178C239.331 336.069 230.105 327.74 220.805 319.188C213.679 324.199 206.596 329.279 199.553 334.426C208.191 342.553 216.766 350.5 225.277 358.266L225.271 358.261ZM201.546 372.928C209.272 368.113 217.035 363.313 224.834 358.528C216.34 350.793 207.778 342.858 199.15 334.723C192.019 339.93 184.929 345.189 177.879 350.502C185.82 358.142 193.711 365.619 201.552 372.934L201.546 372.928ZM177.772 387.821C185.519 382.944 193.295 378.07 201.1 373.199C193.278 365.903 185.4 358.437 177.467 350.801C170.363 356.158 163.287 361.552 156.238 366.984C163.465 374.055 170.645 381.003 177.778 387.826L177.772 387.821ZM153.868 402.892C161.656 397.973 169.475 393.04 177.326 388.094C170.222 381.301 163.06 374.365 155.841 367.286C148.714 372.783 141.621 378.301 134.561 383.841C141.047 390.292 147.489 396.668 153.886 402.897L153.868 402.892ZM625.789 237.898C635.389 236.262 644.954 234.609 654.485 232.939C632.793 233.601 610.848 233.95 588.657 233.86C601.132 235.396 613.509 236.742 625.789 237.898ZM593.309 243.327C603.536 241.656 613.729 239.955 623.885 238.223C610.829 236.968 597.656 235.506 584.366 233.837C572.597 233.76 560.758 233.55 548.851 233.207C563.83 236.937 578.65 240.31 593.309 243.327ZM560.503 248.531C571.009 246.914 581.48 245.255 591.915 243.554C576.939 240.442 561.792 236.969 546.475 233.135C534.223 232.751 521.899 232.211 509.501 231.516C526.724 237.746 543.724 243.418 560.503 248.531ZM529.131 254.135C530.556 253.611 531.983 253.09 533.411 252.571H533.434H533.457C542.112 251.325 550.746 250.041 559.357 248.718C542.376 243.505 525.17 237.745 507.739 231.438C501.276 231.054 494.794 230.629 488.293 230.162C485.275 231.122 482.262 232.1 479.253 233.094C496.105 240.686 512.731 247.699 529.131 254.135ZM505.049 263.236C512.821 260.214 520.611 257.267 528.42 254.394C512.016 247.932 495.39 240.901 478.542 233.302C471.795 235.542 465.075 237.879 458.382 240.311C474.145 248.5 489.701 256.142 505.049 263.236ZM480.379 273.074C488.362 269.81 496.366 266.615 504.39 263.489C489.041 256.385 473.489 248.738 457.734 240.548C450.54 243.165 443.378 245.89 436.249 248.724C451.156 257.358 465.866 265.475 480.379 273.074ZM455.372 283.534C463.484 280.063 471.615 276.66 479.766 273.324C465.247 265.698 450.545 257.576 435.659 248.957C428.24 251.906 420.855 254.959 413.503 258.115C427.638 267.061 441.598 275.533 455.381 283.534H455.372ZM430.167 294.527C438.358 290.879 446.566 287.296 454.794 283.779C441.018 275.782 427.068 267.308 412.945 258.357C405.388 261.606 397.863 264.954 390.371 268.403C403.798 277.54 417.066 286.248 430.176 294.527H430.167ZM404.823 305.989C413.062 302.199 421.323 298.461 429.608 294.775C416.512 286.519 403.255 277.81 389.836 268.647C382.192 272.171 374.584 275.786 367.012 279.493C379.766 288.719 392.375 297.551 404.838 305.989H404.823ZM379.396 317.852C387.673 313.939 395.971 310.066 404.29 306.234C391.843 297.821 379.249 288.989 366.508 279.738C358.815 283.507 351.158 287.363 343.537 291.307C355.627 300.525 367.585 309.373 379.41 317.852H379.396ZM353.888 330.063C362.198 326.042 370.528 322.054 378.88 318.097C367.067 309.62 355.123 300.776 343.048 291.566C335.341 295.552 327.668 299.616 320.028 303.757C331.437 312.848 342.728 321.617 353.902 330.063H353.888ZM328.317 342.573C336.653 338.461 345.013 334.372 353.396 330.308C342.238 321.879 330.961 313.114 319.562 304.013C311.843 308.197 304.163 312.449 296.522 316.769C307.207 325.645 317.825 334.285 328.317 342.573ZM302.656 355.323C311.02 351.141 319.409 346.972 327.824 342.815C317.338 334.533 306.731 325.901 296.041 317.031C288.305 321.397 280.602 325.813 272.932 330.279C282.923 338.864 292.847 347.262 302.659 355.323H302.656ZM276.895 368.283C285.295 364.046 293.72 359.812 302.169 355.582C292.378 347.518 282.453 339.141 272.477 330.57C264.724 335.095 257.006 339.665 249.322 344.278C258.584 352.46 267.791 360.516 276.898 368.269L276.895 368.283ZM251.027 381.37C259.475 377.096 267.938 372.814 276.417 368.525C267.322 360.778 258.123 352.734 248.876 344.543C241.102 349.207 233.362 353.903 225.657 358.632C234.176 366.365 242.643 373.979 251.03 381.355L251.027 381.37ZM225.029 394.543C230.895 391.574 236.772 388.598 242.661 385.615L250.552 381.617C242.177 374.25 233.721 366.641 225.208 358.906C217.409 363.686 209.644 368.486 201.912 373.306C209.674 380.532 217.381 387.607 225.032 394.528L225.029 394.543ZM198.871 407.75C207.403 403.459 215.964 399.139 224.554 394.79C216.917 387.878 209.228 380.808 201.489 373.579C193.674 378.446 185.898 383.32 178.161 388.201C185.096 394.807 192.013 401.357 198.874 407.736L198.871 407.75ZM172.51 420.917C181.108 416.645 189.733 412.331 198.387 407.975C191.541 401.607 184.635 395.067 177.706 388.451C169.851 393.393 162.029 398.327 154.24 403.252C160.365 409.207 166.462 415.157 172.51 420.917ZM693.987 230.888C702.292 227.885 710.588 224.94 718.873 222.052L702.799 224.909C689.148 227.334 675.427 229.764 661.636 232.199C672.482 231.83 683.266 231.393 693.987 230.888ZM666.12 241.149C674.881 237.862 683.631 234.641 692.371 231.484C681.007 232.012 669.572 232.463 658.068 232.838C647.994 234.606 637.884 236.358 627.739 238.094C640.639 239.286 653.433 240.305 666.12 241.149ZM638.4 251.733C647.267 248.3 656.128 244.916 664.982 241.581C652.034 240.71 638.978 239.654 625.815 238.413C615.48 240.176 605.112 241.912 594.711 243.62C609.424 246.639 623.987 249.338 638.4 251.719V251.733ZM610.689 262.594C619.627 259.04 628.555 255.539 637.473 252.09C622.906 249.664 608.18 246.919 593.294 243.857C582.769 245.573 572.209 247.25 561.615 248.888C578.186 253.93 594.544 258.494 610.689 262.579V262.594ZM583.073 273.693C592.016 270.057 600.957 266.456 609.894 262.89C593.63 258.747 577.154 254.13 560.465 249.041C551.516 250.413 542.543 251.75 533.546 253.049C532.308 253.499 531.071 253.951 529.837 254.406C547.846 261.479 565.592 267.908 583.073 273.693ZM555.425 285.032C564.403 281.313 573.375 277.632 582.342 273.99C564.87 268.167 547.127 261.725 529.114 254.665C521.286 257.545 513.474 260.497 505.677 263.521C522.505 271.301 539.091 278.474 555.434 285.04L555.425 285.032ZM527.804 296.551C536.789 292.775 545.774 289.022 554.757 285.294C538.416 278.702 521.838 271.525 505.023 263.76C496.986 266.886 488.965 270.084 480.961 273.353C496.799 281.667 512.416 289.407 527.812 296.574L527.804 296.551ZM500.156 308.23C509.159 304.405 518.161 300.601 527.161 296.816C511.771 289.634 496.162 281.897 480.336 273.607C472.174 276.942 464.031 280.348 455.905 283.825C470.877 292.503 485.635 300.646 500.179 308.253L500.156 308.23ZM472.508 320.038C481.532 316.175 490.556 312.324 499.58 308.486C485.032 300.86 470.29 292.721 455.352 284.07C447.114 287.595 438.895 291.18 430.697 294.826C444.811 303.731 458.751 312.143 472.517 320.061L472.508 320.038ZM444.817 331.923C453.841 328.041 462.879 324.162 471.929 320.285C458.173 312.35 444.239 303.945 430.129 295.071C421.839 298.759 413.57 302.503 405.321 306.303C418.661 315.317 431.817 323.822 444.826 331.946L444.817 331.923ZM417.037 343.884L422.377 341.58C429.663 338.441 436.959 335.302 444.264 332.162C431.261 324.035 418.117 315.53 404.809 306.531C396.48 310.361 388.174 314.236 379.891 318.157C392.417 327.158 404.802 335.741 417.046 343.907L417.037 343.884ZM389.173 355.873C398.268 351.964 407.372 348.047 416.484 344.123C404.244 335.932 391.866 327.361 379.35 318.41C370.992 322.366 362.657 326.356 354.343 330.383C366.086 339.245 377.699 347.75 389.182 355.896L389.173 355.873ZM361.261 367.868C370.379 363.973 379.507 360.061 388.646 356.132C377.171 347.986 365.571 339.495 353.848 330.659C345.457 334.72 337.093 338.809 328.754 342.928C339.707 351.559 350.527 359.83 361.261 367.868ZM333.213 379.786C342.373 375.911 351.548 372.011 360.739 368.084C350.014 360.061 339.206 351.798 328.268 343.161C319.849 347.316 311.454 351.487 303.085 355.674C313.226 364.003 323.248 371.987 333.213 379.786ZM304.989 391.648C314.205 387.808 323.434 383.929 332.677 380.01C322.73 372.214 312.719 364.239 302.59 355.919C294.142 360.143 285.716 364.378 277.312 368.623C286.629 376.546 295.836 384.169 304.989 391.648ZM276.598 403.398C285.87 399.597 295.16 395.757 304.468 391.879C295.324 384.408 286.128 376.796 276.82 368.882C268.33 373.164 259.866 377.445 251.427 381.727C259.897 389.143 268.272 396.337 276.601 403.398H276.598ZM248 414.999C257.337 411.255 266.696 407.459 276.077 403.612C267.762 396.558 259.402 389.373 250.958 381.954L242.868 386.055L225.433 394.888C233.009 401.742 240.532 408.446 248.003 414.999H248ZM219.226 426.386C228.617 422.723 238.035 418.997 247.482 415.209C240.023 408.662 232.514 401.969 224.955 395.13C216.366 399.479 207.803 403.799 199.265 408.09C205.964 414.316 212.619 420.415 219.229 426.386H219.226ZM190.205 437.526C199.678 433.955 209.182 430.307 218.717 426.582C212.113 420.6 205.469 414.541 198.799 408.332C190.141 412.686 181.513 417.006 172.913 421.292C178.714 426.81 184.462 432.172 190.208 437.526H190.205ZM160.357 448.551C155.527 443.925 150.718 439.355 145.848 434.617C99.9148 457.018 54.8663 477.707 10.7769 494.826C59.4311 482.863 109.419 466.965 160.36 448.551H160.357ZM146.326 434.396C151.207 439.15 156.034 443.738 160.878 448.378C170.451 444.922 180.051 441.37 189.678 437.722C183.947 432.38 178.213 427.031 172.424 421.519C163.698 425.86 154.998 430.152 146.326 434.396ZM130.198 418.449C135.457 423.676 140.733 428.947 145.945 434.027C154.616 429.803 163.318 425.516 172.052 421.165C166.022 415.405 159.925 409.478 153.828 403.537L151.438 405.046C144.326 409.529 137.244 413.993 130.192 418.438L130.198 418.449ZM112.811 401.025C118.514 406.801 124.188 412.489 129.835 418.089C136.939 413.619 144.059 409.127 151.196 404.611L153.459 403.171C147.077 396.95 140.646 390.588 134.192 384.163C127.027 389.771 119.898 395.388 112.806 401.014L112.811 401.025ZM94.2528 382.113C100.364 388.425 106.412 394.543 112.46 400.668C119.552 395.052 126.678 389.433 133.838 383.812C127.118 377.119 120.366 370.31 113.583 363.387C107.099 369.589 100.654 375.827 94.2471 382.101L94.2528 382.113ZM74.669 361.599C81.1115 368.395 87.5482 375.169 93.9216 381.758C100.327 375.491 106.768 369.252 113.246 363.038C106.213 355.858 99.1411 348.562 92.0295 341.151C86.1908 347.899 80.3992 354.712 74.6546 361.587L74.669 361.599ZM53.9822 339.518C60.7847 346.844 67.5756 354.119 74.3033 361.244C80.0498 354.375 85.8366 347.559 91.6637 340.796C84.3112 333.121 76.9298 325.351 69.4879 317.4C64.2714 324.672 59.098 332.041 53.9678 339.506L53.9822 339.518ZM32.2154 315.816C39.398 323.72 46.5403 331.496 53.6423 339.143C58.7764 331.69 63.9546 324.317 69.1769 317.025C61.5133 308.835 53.818 300.54 46.0565 292.053C41.3794 299.844 36.7609 307.761 32.201 315.804L32.2154 315.816ZM9.34839 290.397C16.8997 298.883 24.403 307.224 31.8582 315.418C36.4201 307.389 41.0348 299.472 45.7023 291.667C37.7343 282.95 29.7107 274.061 21.6315 264.999C17.4766 273.308 13.3823 281.774 9.34839 290.397ZM0 -12C2.35966 -9.26403 4.71451 -6.53766 7.06457 -3.82088C16.0357 -4.4372 25.6922 -3.10953 36.1177 0.363714L36.1782 0.383877L36.2185 0.432836C42.3298 7.28141 48.4104 14.0282 54.4603 20.6733C62.9043 20.0973 71.8409 20.9267 81.3217 23.2883L81.388 23.3056L81.4369 23.3574C88.3489 30.6917 95.2147 37.9041 102.035 44.9946C110.214 44.4002 118.435 44.8103 126.514 46.2157H126.586L126.638 46.2705C134.414 54.0262 142.118 61.5833 149.796 69.0424C157.09 68.3903 164.43 68.4202 171.718 69.1317H171.796L171.854 69.1864C180.586 77.2791 189.246 85.1386 197.857 92.854C204.187 92.1528 210.558 91.8853 216.925 92.0534H217.006L217.069 92.1052C226.892 100.428 236.641 108.515 246.318 116.366C251.502 115.672 256.775 115.188 262.135 114.978H262.216L262.279 115.03C273.428 123.478 284.48 131.624 295.433 139.469C299.367 138.841 303.333 138.317 307.342 137.911H307.423L307.489 137.957C320.291 146.367 332.971 154.406 345.527 162.074C347.86 161.636 350.202 161.228 352.552 160.85H352.627L352.696 160.885C367.733 169.031 382.613 176.7 397.335 183.89L397.767 183.792H397.836L397.9 183.818C431.944 197.748 465.228 209.415 497.78 219.21C527.156 225.145 556.022 229.774 584.378 233.362C609.235 233.526 633.781 233.132 658.016 232.348C672.992 229.724 687.891 227.088 702.713 224.44L721.827 221.044C991.574 127.627 1248.87 101.701 1439.99 335.376V336.154C1249.73 103.13 993.679 127.932 725.05 220.442C1003.26 171.166 1250.33 134.17 1439.99 366.14V366.912C1249.72 133.799 1001.5 171.938 721.971 221.517C713.232 224.541 704.476 227.641 695.706 230.819C738.194 228.803 779.689 225.863 820.176 222.994C1064.32 205.714 1271.88 191.026 1439.99 396.826V397.615C1271.95 191.525 1064.39 206.204 820.216 223.501C779.202 226.407 737.157 229.385 694.093 231.404C685.188 234.623 676.272 237.899 667.344 241.23C744.015 246.276 816.815 245.328 885.951 244.424C1104.33 241.573 1286.43 239.24 1439.99 427.57V428.348C1286.48 239.735 1104.36 242.068 885.948 244.919C816.455 245.827 743.286 246.78 666.206 241.648C657.279 244.996 648.341 248.407 639.394 251.88C743.01 269.002 838.656 270.98 927.475 272.818C1128.98 276.985 1295.35 280.444 1440 458.219V459.008C1295.39 280.956 1129.01 277.492 927.466 273.324C838.383 271.481 742.434 269.497 638.461 252.243C629.493 255.716 620.518 259.234 611.536 262.795C738.114 294.847 851.818 299.469 955.405 303.691C1145.24 311.404 1301.11 317.751 1440 488.902V489.679C1301.14 318.252 1145.26 311.91 955.39 304.209C851.587 299.99 737.627 295.356 610.735 263.135C601.769 266.699 592.799 270.31 583.825 273.97C730.836 322.719 859.513 329.423 974.865 335.417C1156.34 344.828 1304.87 352.57 1439.99 519.576V520.357C1304.88 353.074 1156.35 345.33 974.827 335.898C859.291 329.896 730.387 323.18 583.088 274.24C574.096 277.888 565.102 281.578 556.105 285.308C721.888 351.942 863.459 360.115 988.637 367.321C1164.03 377.415 1307.29 385.695 1439.99 550.242V551.034C1307.3 386.211 1164.05 377.931 988.613 367.834C863.266 360.634 721.493 352.434 555.434 285.593C546.431 289.324 537.429 293.083 528.426 296.871C711.799 382.213 864.755 391.288 998.437 399.202C1169.35 409.323 1308.77 417.614 1439.99 580.905V581.692C1308.77 418.124 1169.35 409.832 998.411 399.709C864.567 391.772 711.431 382.691 527.798 297.127C518.786 300.916 509.773 304.725 500.761 308.555C700.841 413.196 864.075 422.706 1005.29 430.908C1172.91 440.639 1309.52 448.611 1439.99 611.548V612.337C1309.52 449.121 1172.9 441.149 1005.27 431.412C863.908 423.204 700.493 413.683 500.159 308.811C491.122 312.651 482.087 316.507 473.055 320.377C689.209 444.792 861.872 454.296 1009.94 462.418C1175.13 471.49 1309.74 478.92 1439.99 642.2V642.989C1309.74 479.427 1175.14 471.996 1009.91 462.925C861.713 454.786 688.889 445.27 472.479 320.637C463.431 324.517 454.387 328.4 445.347 332.286C677.047 476.78 858.485 485.947 1012.87 493.723C1176.35 501.945 1309.54 508.679 1439.99 672.857V673.649C1309.52 509.203 1176.36 502.461 1012.85 494.227C858.332 486.451 676.724 477.27 444.786 332.514C437.373 335.701 429.965 338.89 422.564 342.081L417.547 344.238C664.432 509.177 854.128 517.673 1014.43 524.812C1176.76 532.058 1308.99 537.988 1439.99 703.491V704.286C1308.99 538.495 1176.76 532.565 1014.42 525.328C853.978 518.174 664.119 509.672 416.994 344.466C407.872 348.394 398.761 352.314 389.66 356.227C651.45 541.87 848.978 549.404 1014.9 555.723C1176.52 561.878 1308.17 566.926 1439.99 734.129V734.921C1308.17 567.43 1176.53 562.384 1014.88 556.23C848.837 549.894 651.144 542.363 389.122 356.458C379.981 360.386 370.849 364.299 361.727 368.197C638.144 574.739 843.192 581.153 1014.47 586.464C1175.75 591.463 1307.12 595.57 1439.99 764.771V765.592C1307.12 596.097 1175.75 591.996 1014.46 586.997C843.057 581.683 637.847 575.261 361.197 368.447C352.004 372.375 342.825 376.279 333.659 380.157C624.559 607.856 836.851 612.928 1013.3 617.075C1170.21 620.764 1298.82 623.82 1429.21 782.023H1428.57C1298.39 624.315 1169.96 621.265 1013.28 617.576C836.707 613.429 624.254 608.36 333.121 380.373C323.872 384.286 314.641 388.167 305.427 392.017C610.704 641.134 830.016 644.665 1011.49 647.516C1157.97 649.82 1279.83 651.764 1402.37 782.011H1401.68C1279.37 652.26 1157.71 650.316 1011.49 648.017C829.89 645.163 610.416 641.63 304.908 392.23C295.594 396.116 286.301 399.962 277.027 403.767C596.615 674.577 822.782 676.391 1009.17 677.831C1143.95 678.871 1257.95 679.784 1371.45 782.011H1370.69C1257.44 680.287 1143.66 679.375 1009.16 678.332C822.658 676.892 596.333 675.081 276.5 403.977C267.117 407.817 257.755 411.615 248.415 415.37C582.293 708.177 815.173 708.105 1006.38 708.03C1127.34 707.984 1231.64 707.967 1334.28 782.008H1333.43C1231.07 708.48 1127.03 708.491 1006.41 708.537C815.078 708.612 582.039 708.687 247.922 415.581C238.472 419.367 229.048 423.095 219.65 426.767C567.798 741.835 807.288 739.819 1003.24 738.135C1106.34 737.25 1197.4 736.499 1285.89 782.008H1284.76C1196.63 737.009 1105.91 737.76 1003.24 738.641C807.17 740.32 567.516 742.331 219.134 426.968C209.601 430.685 200.098 434.333 190.622 437.912C553.055 775.545 799.086 771.508 999.727 768.144C1073.87 766.9 1141.83 765.779 1207.17 782.008H1205.04C1140.35 766.301 1073.07 767.418 999.733 768.651C798.97 772.018 552.779 776.052 190.101 438.108C180.465 441.739 170.86 445.29 161.287 448.764C389.421 667.086 571.971 750.948 726.101 782.017H723.561C569.845 750.536 387.877 666.348 160.766 448.951C108.402 467.881 57.0234 484.173 7.09625 496.26C4.72891 497.17 2.3635 498.07 0 498.959V498.412C1.08671 498.003 2.17342 497.592 3.26013 497.179L0 497.951V497.427C2.30398 496.885 4.62139 496.334 6.95225 495.773C52.1304 478.413 98.3309 457.228 145.479 434.243C140.295 429.18 135.022 423.921 129.777 418.708C85.5956 446.532 42.4162 473.275 0 496.217V495.641C42.2981 472.745 85.3566 446.091 129.4 418.345C123.765 412.749 118.101 407.073 112.408 401.319C106.157 406.269 99.9283 411.21 93.7229 416.142C61.9712 441.368 30.8157 466.11 0 488.758V488.136C30.7207 465.551 61.7811 440.887 93.4464 415.739C99.6268 410.828 105.834 405.903 112.068 400.965C106.02 394.851 99.9955 388.745 93.8957 382.447C79.9854 396.06 66.248 409.757 52.6056 423.342C34.9053 440.982 17.4008 458.423 0 475.216V474.528C17.2798 457.824 34.6864 440.501 52.2801 422.976C65.9053 409.397 79.6398 395.703 93.5559 382.095C87.194 375.52 80.7688 368.758 74.3378 361.973C56.1594 383.708 38.3468 405.924 20.7358 427.884C13.797 436.541 6.88505 445.144 0 453.691V452.914C6.76793 444.525 13.5589 436.077 20.3729 427.57C37.9897 405.599 55.7966 383.383 73.998 361.619C67.2704 354.522 60.488 347.259 53.6827 339.93C35.3574 366.552 17.5678 394.128 0 421.534V420.635C17.4555 393.405 35.1357 366.013 53.3428 339.555C46.2523 331.914 39.1196 324.146 31.9446 316.253C21.0583 335.431 10.4485 355.196 0 375.212V374.164C10.3391 354.387 20.8366 334.838 31.6019 315.876C24.1505 307.674 16.6578 299.344 9.12375 290.887C6.05178 297.462 3.01053 304.115 0 310.845V309.661C2.89725 303.208 5.82138 296.82 8.77239 290.498C5.85402 287.211 2.92989 283.913 0 280.605V279.862C3.00669 283.266 6.00666 286.651 8.99991 290.017C13.0319 281.4 17.1262 272.937 21.283 264.627C14.229 256.722 7.13465 248.686 0 240.519V239.773C7.21529 248.029 14.3883 256.152 21.5191 264.143C25.6778 255.847 29.9018 247.728 34.191 239.787C25.4263 230.024 16.5944 220.066 7.69528 209.913C5.09947 215.57 2.53437 221.344 0 227.236V226.015C2.41918 220.417 4.87483 214.916 7.36697 209.513C4.91707 206.714 2.46142 203.9 0 201.072V200.323C2.53437 203.239 5.06491 206.141 7.5916 209.026C11.4546 200.682 15.4117 192.597 19.4628 184.771C13.0156 177.439 6.52793 170.004 0 162.466V161.717C6.60089 169.36 13.1701 176.89 19.7076 184.305C23.7742 176.485 27.9415 168.943 32.2298 161.737C22.4551 150.724 12.6085 139.467 2.68989 127.967C1.78558 129.649 0.888951 131.349 0 133.067V132.016C0.777592 130.522 1.56094 129.044 2.35006 127.581L0 124.856V124.105L2.59197 127.12C6.63545 119.647 10.8277 112.6 15.1688 105.978C10.1346 100.184 5.07835 94.3353 0 88.4332V87.6816C5.17243 93.6969 10.3257 99.6488 15.4597 105.537C19.6845 99.0966 24.262 92.8943 29.1712 86.9587C19.5156 76.0014 9.7919 64.8261 0 53.433V52.6784C9.9071 64.2328 19.7374 75.5377 29.4909 86.5929C34.1191 81.0198 39.1381 75.7833 44.51 70.923C34.5049 59.7257 24.425 48.3018 14.2703 36.6514C9.11903 40.5884 4.34203 44.9923 0 49.8071L0 49.0554C4.25558 44.3765 8.92365 40.0901 13.9477 36.2482C9.32055 30.9221 4.67131 25.527 0 20.0627V19.311C4.79995 24.9212 9.57974 30.469 14.3394 35.9544C19.8437 31.7844 25.8661 28.3467 32.2557 25.7276C23.8519 16.2525 15.3848 6.53261 6.87737 -3.30249C4.56891 -3.1356 2.27241 -2.83171 0 -2.39242L0 -2.93385C2.13285 -3.3403 4.2865 -3.62873 6.45114 -3.79784C4.30076 -6.29382 2.15038 -8.78307 0 -11.2656V-12Z" fill="#808080"/>
</g>
</g>
</svg>
