<svg width="1440" height="475" viewBox="0 0 1440 475" fill="none" xmlns="http://www.w3.org/2000/svg">
<rect width="1440" height="475" fill="#2F2D53"/>
<g opacity="0.15">
<mask id="mask0_707_7461" style="mask-type:alpha" maskUnits="userSpaceOnUse" x="0" y="0" width="1440" height="475">
<rect width="1440" height="475" fill="#2F2D53"/>
</mask>
<g mask="url(#mask0_707_7461)">
<path d="M32.7366 -90.4538C39.4902 -93.1285 46.6112 -94.7609 53.8555 -95.295C47.9026 -101.844 41.9353 -108.451 35.9276 -115.181C25.7325 -118.571 16.2805 -119.893 7.48793 -119.34C15.9522 -109.548 24.379 -99.8857 32.7338 -90.4538M80.7486 -66.7747C87.4384 -68.9946 94.3699 -70.4053 101.395 -70.9766C94.6848 -77.9423 87.9361 -85.0337 81.1489 -92.2509C71.8956 -94.5549 63.1578 -95.3786 54.8951 -94.8659C63.5696 -85.3198 72.1884 -75.956 80.7515 -66.7747H80.7486ZM61.8589 -58.0167C67.6542 -61.5351 73.814 -64.4147 80.2302 -66.6048C71.6402 -75.8207 62.9898 -85.2219 54.2788 -94.8083C47.0229 -94.3091 39.8867 -92.6987 33.1197 -90.0333C42.7637 -79.1355 52.3435 -68.4633 61.8589 -58.0167ZM44.8671 -45.3967C49.9996 -50.0087 55.5382 -54.1477 61.4154 -57.7633C51.8827 -68.2329 42.2828 -78.9272 32.6157 -89.8461C26.2211 -87.2433 20.1942 -83.8159 14.6879 -79.651C24.8292 -67.9718 34.8928 -56.5546 44.8786 -45.3995L44.8671 -45.3967ZM129.311 -43.0927C135.788 -44.9755 142.426 -46.2501 149.139 -46.9C141.591 -54.2353 134.011 -61.6714 126.37 -69.2976C118.486 -70.6617 110.467 -71.0765 102.484 -70.5331C111.494 -61.1981 120.437 -52.0552 129.311 -43.1042V-43.0927ZM110.245 -35.622C116.192 -38.6031 122.391 -41.052 128.769 -42.94C119.853 -51.939 110.879 -61.1194 101.847 -70.4812C94.8048 -69.9473 87.8523 -68.5665 81.1403 -66.3686C90.9188 -55.8894 100.624 -45.6443 110.257 -35.6336L110.245 -35.622ZM92.5018 -24.8682C97.9829 -28.8257 103.765 -32.3481 109.796 -35.4032C100.15 -45.437 90.4253 -55.7002 80.6219 -66.1929C74.1908 -64.0178 68.0161 -61.1477 62.2074 -57.6337C72.3833 -46.4651 82.4814 -35.5433 92.5018 -24.8682ZM75.9621 -11.1106C81.0387 -15.9511 86.4314 -20.449 92.1044 -24.5745C82.0763 -35.2572 71.9686 -46.1925 61.7811 -57.3802C55.8972 -53.7699 50.3527 -49.6336 45.2155 -45.0223C55.5431 -33.4678 65.792 -22.1639 75.9621 -11.1106ZM60.5312 5.35995C65.2586 -0.284523 70.2886 -5.66838 75.5992 -10.7679C65.4233 -21.8059 55.1726 -33.1126 44.8469 -44.6882C39.4718 -39.8294 34.4507 -34.5928 29.8221 -29.0183C40.1382 -17.3121 50.3745 -5.85274 60.5312 5.35995ZM46.0795 24.2439C50.6568 17.6968 55.3684 11.5279 60.2144 5.73723C50.0597 -5.46011 39.8223 -16.9195 29.5024 -28.641C24.5937 -22.7037 20.0171 -16.4994 15.7938 -10.0565C25.9639 1.61888 36.0592 13.0524 46.0795 24.2439ZM32.4976 45.2965C36.806 38.0735 41.2373 31.1943 45.7915 24.6586C35.7769 13.4824 25.6836 2.05182 15.5115 -9.63318C11.1685 -3.0246 6.97721 4.02364 2.93757 11.5116C12.8658 23.0084 22.7172 34.2701 32.4918 45.2965H32.4976ZM178.512 -19.546C184.661 -21.1594 190.917 -22.3345 197.232 -23.0625C188.75 -30.6656 180.24 -38.4041 171.629 -46.373C164.543 -47.0569 157.41 -47.0945 150.317 -46.4853C159.769 -37.2982 169.161 -28.3184 178.492 -19.546H178.512ZM159.55 -13.0891C165.518 -15.6252 171.657 -17.7376 177.922 -19.4107C168.568 -28.1888 159.139 -37.2012 149.635 -46.4479C142.897 -45.8249 136.232 -44.5715 129.728 -42.7039C139.748 -32.5952 149.701 -22.6795 159.55 -13.0891ZM141.349 -3.82429C147.049 -7.22514 152.967 -10.2479 159.064 -12.8731C149.191 -22.4951 139.215 -32.431 129.187 -42.5368C122.794 -40.6636 116.58 -38.2253 110.62 -35.2505C120.945 -24.5255 131.19 -14.0462 141.355 -3.81275L141.349 -3.82429ZM123.908 8.0556C129.341 3.85426 135.014 -0.0259094 140.9 -3.56508C130.739 -13.7755 120.489 -24.2634 110.15 -35.0288C104.111 -31.982 98.3209 -28.4653 92.833 -24.5111C103.28 -13.3925 113.64 -2.53309 123.914 8.06712L123.908 8.0556ZM107.253 22.3633C112.435 17.4238 117.864 12.7503 123.519 8.36087C113.253 -2.21054 102.896 -13.0661 92.4471 -24.2058C86.7731 -20.0781 81.3777 -15.5804 76.2962 -10.742C86.7006 0.557129 97.0214 11.5961 107.259 22.3748L107.253 22.3633ZM91.3757 38.9231C96.433 33.192 101.603 27.7661 106.899 22.7089C96.6691 11.957 86.3492 0.917114 75.9391 -10.4108C70.6265 -5.31142 65.5945 0.0724335 60.8653 5.71706C71.1094 17.0296 81.2958 28.1434 91.3757 38.9231ZM76.2069 57.4702C81.0453 51.1054 85.9931 45.0488 91.0503 39.3004C80.9704 28.5235 70.7868 17.4126 60.5428 6.1145C55.7006 11.8936 50.9889 18.0625 46.4079 24.6212C56.4129 35.7897 66.3632 46.7883 76.2069 57.4702ZM61.7322 77.8431C66.3603 70.9311 71.0777 64.241 75.9074 57.8705C66.0665 47.1973 56.1191 36.2045 46.1227 25.0388C41.5685 31.5667 37.1382 38.4479 32.8317 45.6824C42.5353 56.6129 52.1688 67.3312 61.7322 77.8373V77.8431ZM47.8306 99.8489C52.283 92.4128 56.8228 85.2129 61.4499 78.2491C51.9 67.7776 42.2722 57.065 32.5667 46.1115C28.2842 53.3115 24.1169 60.8656 20.0504 68.6876C29.3795 79.284 38.6396 89.6692 47.8306 99.8432V99.8489ZM34.4531 123.338C38.7481 115.443 43.1199 107.763 47.5685 100.298C38.3852 90.13 29.1319 79.7515 19.8084 69.1628C15.7534 76.9771 11.7983 85.0641 7.94296 93.4237C16.8421 103.584 25.6788 113.554 34.4531 123.332V123.338ZM228.494 3.75868C234.155 2.35974 239.885 1.25903 245.662 0.461121C236.129 -7.28985 226.529 -15.2578 216.862 -23.4426C210.693 -23.602 204.52 -23.3538 198.384 -22.6996C208.493 -13.6392 218.529 -4.81979 228.494 3.75868ZM210.019 9.44951C215.875 7.27592 221.845 5.42421 227.904 3.90268C217.92 -4.67963 207.859 -13.5183 197.722 -22.6132C191.382 -21.9046 185.101 -20.7429 178.927 -19.1371C189.379 -9.33559 199.743 0.193283 210.019 9.44951ZM191.561 17.5134C197.393 14.5741 203.379 11.9505 209.492 9.65398C199.199 0.37471 188.822 -9.16759 178.362 -18.9729C172.084 -17.3126 165.931 -15.2117 159.948 -12.6859C170.577 -2.34877 181.115 7.71289 191.561 17.499V17.5134ZM173.438 27.8468C179.211 24.1623 185.098 20.7976 191.098 17.7525C180.641 7.9433 170.096 -2.13567 159.461 -12.4844C153.358 -9.86339 147.433 -6.84344 141.726 -3.44412C152.386 7.25977 162.956 17.6853 173.438 27.8324V27.8468ZM155.766 40.317C161.401 35.9433 167.149 31.8768 173.009 28.1175C162.522 17.9704 151.947 7.54105 141.286 -3.17052C135.39 0.364883 129.707 4.24219 124.265 8.44153C134.856 19.3355 145.356 29.9559 155.766 40.3026V40.317ZM138.633 54.8119C144.111 49.797 149.692 45.068 155.377 40.6252C144.963 30.2746 134.463 19.6485 123.876 8.7468C118.219 13.1355 112.789 17.809 107.607 22.7492C118.044 33.7046 128.386 44.3874 138.633 54.7975V54.8119ZM122.021 71.1471C127.342 65.5446 132.758 60.21 138.27 55.1431C128.012 44.7138 117.67 34.0281 107.244 23.0862C101.945 28.1434 96.7699 33.5472 91.7184 39.2975C101.908 50.1752 111.996 60.7504 122.021 71.1327V71.1471ZM105.925 89.1844C111.09 83.0405 116.343 77.1432 121.685 71.4927C111.662 61.1248 101.577 50.5438 91.3901 39.6546C86.331 45.4146 81.3822 51.4731 76.5439 57.8301C86.4203 68.534 96.2141 78.9855 105.925 89.1844ZM90.3101 108.768C95.327 102.144 100.426 95.7392 105.606 89.553C95.8906 79.3368 86.1035 68.8931 76.2444 58.2218C71.4137 64.5962 66.6886 71.2556 62.0691 78.2002C71.5471 88.6026 80.9762 98.8352 90.3101 108.78V108.768ZM75.1673 129.703C80.0382 122.668 84.9832 115.826 90.002 109.177C80.6738 99.2384 71.2505 89.0173 61.7783 78.6322C57.1511 85.5748 52.6132 92.7747 48.1646 100.232C57.2346 110.248 66.2355 120.072 75.1673 129.703ZM60.4074 151.902C65.1651 144.473 69.9891 137.212 74.8792 130.117C65.9571 120.508 56.9678 110.692 47.9112 100.67C43.4588 108.133 39.0879 115.813 34.7987 123.709C43.3964 133.286 51.9355 142.684 60.416 151.902H60.4074ZM45.9557 175.229C50.6213 167.453 55.3473 159.82 60.1338 152.331C51.6667 143.126 43.142 133.739 34.5597 124.17C30.2608 132.096 26.0369 140.216 21.8878 148.529C29.9517 157.58 37.9772 166.48 45.9643 175.229H45.9557ZM279.521 26.6746C284.535 25.465 289.601 24.4167 294.745 23.5786C283.943 15.8181 273.054 7.79065 262.077 -0.50367C256.925 -0.302071 251.859 0.158722 246.86 0.812485C257.84 9.72119 268.726 18.3419 279.518 26.6746H279.521ZM261.818 31.7606C267.432 29.8829 273.125 28.2375 278.896 26.8244C268.095 18.4782 257.195 9.83832 246.197 0.904648C240.397 1.68669 234.643 2.7749 228.958 4.16475C240.007 13.6514 250.96 22.85 261.815 31.7606H261.818ZM243.358 38.8483C249.237 36.2947 255.204 33.9907 261.259 31.9363C250.396 23.0391 239.437 13.8299 228.382 4.30875C222.307 5.81903 216.32 7.66406 210.448 9.83542C221.515 19.804 232.485 29.4749 243.358 38.8483ZM224.707 47.9115C230.659 44.7013 236.707 41.7532 242.851 39.0671C231.97 29.6899 220.993 20.0094 209.918 10.0255C203.792 12.3133 197.794 14.9302 191.95 17.8648C202.967 28.1828 213.886 38.1983 224.707 47.9115ZM206.189 58.9101C212.119 55.0827 218.132 51.4884 224.246 48.1765C213.419 38.4537 202.499 28.4343 191.486 18.1182C185.428 21.1799 179.527 24.5441 173.806 28.1981C184.698 38.7292 195.492 48.9666 206.189 58.9101ZM187.907 71.6684C193.766 67.2524 199.718 63.089 205.762 59.178C195.06 49.2286 184.264 38.9903 173.374 28.4631C167.513 32.2186 161.76 36.2832 156.117 40.6569C166.808 51.2782 177.404 61.6154 187.907 71.6684ZM169.956 86.1288C175.716 81.181 181.565 76.4597 187.503 71.9651C177.007 61.9178 166.416 51.5844 155.732 40.965C150.041 45.3983 144.458 50.132 138.985 55.1662C149.387 65.727 159.729 76.0978 169.956 86.1288ZM152.388 102.092C158.038 96.6666 163.769 91.4529 169.578 86.4513C159.355 76.4232 149.018 66.0553 138.616 55.4858C133.102 60.545 127.684 65.8797 122.364 71.4899C132.452 81.9307 142.461 92.1316 152.391 102.092H152.388ZM135.197 119.476C140.737 113.607 146.348 107.925 152.031 102.432C142.116 92.504 132.114 82.3099 122.024 71.8498C116.679 77.4946 111.426 83.3928 106.265 89.5444C115.99 99.7664 125.635 109.744 135.2 119.476H135.197ZM118.306 138.164C123.751 131.88 129.268 125.771 134.858 119.836C125.294 110.09 115.657 100.119 105.946 89.9217C100.762 96.1021 95.6621 102.51 90.6471 109.145C99.9398 119.047 109.161 128.72 118.309 138.164H118.306ZM101.778 157.981C107.118 151.348 112.521 144.867 117.99 138.538C108.843 129.081 99.6268 119.415 90.3418 109.543C85.3211 116.184 80.3771 123.027 75.51 130.071C84.3304 139.56 93.0864 148.863 101.778 157.981ZM85.5121 178.829C90.7729 171.879 96.0912 165.058 101.467 158.367C92.785 149.272 84.0385 139.978 75.2277 130.486C70.3356 137.567 65.5126 144.828 60.7588 152.27C69.0646 161.294 77.3157 170.147 85.5121 178.829ZM69.4563 200.605C74.6556 193.368 79.9077 186.238 85.2126 179.215C77.0239 170.546 68.7814 161.704 60.4852 152.688C55.6986 160.176 50.9717 167.811 46.3042 175.595C54.0743 184.108 61.784 192.414 69.4563 200.605ZM332.061 48.9656C336.285 47.9461 340.538 47.0274 344.822 46.2095C332.44 38.6409 319.942 30.7133 307.327 22.4267C303.532 22.8097 299.773 23.3108 296.047 23.8954C308.152 32.5853 320.157 40.942 332.061 48.9656ZM315.357 53.5591C320.65 51.9176 325.997 50.4411 331.398 49.1297C319.494 41.1023 307.471 32.7254 295.33 23.9991C290.166 24.8314 285.071 25.8653 280.034 27.0692C291.921 36.239 303.695 45.069 315.357 53.5591ZM297.072 59.9325C302.907 57.6785 308.807 55.6174 314.772 53.7492C303.095 45.2322 291.308 36.3926 279.412 27.2305C273.616 28.6263 267.904 30.2583 262.276 32.1264C273.98 41.7263 285.579 50.995 297.072 59.9325ZM278.064 68.0512C284.149 65.2115 290.305 62.5763 296.533 60.1456C285.038 51.2062 273.434 41.9317 261.72 32.3222C255.649 34.3613 249.669 36.6595 243.778 39.2169C255.315 49.1509 266.745 58.7623 278.067 68.0512H278.064ZM258.783 77.8431C264.969 74.4505 271.231 71.2671 277.569 68.2931C266.241 59.0023 254.808 49.3842 243.271 39.4387C237.127 42.1266 231.071 45.0728 225.101 48.2773C236.433 58.4378 247.661 68.2912 258.786 77.8373L258.783 77.8431ZM239.47 89.2103C245.679 85.2993 251.967 81.5928 258.333 78.0907C247.198 68.5561 235.966 58.6989 224.638 48.5192C218.518 51.8283 212.499 55.4311 206.563 59.25C217.634 69.5353 228.603 79.5221 239.47 89.2103ZM220.28 102.081C226.461 97.6842 232.713 93.4861 239.038 89.4868C228.174 79.8139 217.209 69.83 206.143 59.5351C200.097 63.4499 194.145 67.6125 188.287 72.0227C199.035 82.3099 209.714 92.3696 220.28 102.081ZM201.324 116.285C207.436 111.466 213.617 106.828 219.869 102.372C209.305 92.6634 198.626 82.6065 187.872 72.3164C181.93 76.7957 176.074 81.515 170.304 86.4743C180.741 96.7059 191.081 106.643 201.324 116.285ZM182.561 131.788C188.621 126.558 194.745 121.494 200.933 116.596C190.686 106.919 180.354 96.9872 169.938 86.7998C164.127 91.7917 158.394 97.0064 152.739 102.444C162.762 112.478 172.702 122.259 182.561 131.788ZM164.052 148.431C170.033 142.844 176.08 137.404 182.196 132.11C172.342 122.589 162.408 112.815 152.394 102.786C146.703 108.264 141.091 113.944 135.557 119.827C145.123 129.583 154.621 139.117 164.052 148.431ZM145.767 166.114C151.682 160.199 157.657 154.417 163.692 148.768C154.274 139.483 144.779 129.956 135.206 120.187C129.619 126.12 124.102 132.229 118.655 138.515C127.765 147.933 136.802 157.133 145.767 166.114ZM127.675 184.765C133.537 178.554 139.451 172.456 145.418 166.471C136.454 157.476 127.425 148.286 118.332 138.901C112.86 145.222 107.456 151.704 102.118 158.347C110.695 167.319 119.214 176.125 127.675 184.765ZM109.776 204.216C115.582 197.759 121.438 191.395 127.344 185.122C118.896 176.517 110.386 167.721 101.816 158.736C96.4397 165.417 91.1223 172.238 85.8635 179.198C93.8851 187.688 101.856 196.025 109.776 204.208V204.216ZM91.9978 224.416C97.7693 217.731 103.586 211.12 109.448 204.585C101.537 196.421 93.5693 188.091 85.5438 179.595C80.2389 186.615 74.9868 193.747 69.7875 200.991C77.2466 208.957 84.6366 216.733 91.9978 224.408V224.416ZM386.907 70.3091C390.106 69.5142 393.322 68.7635 396.555 68.0569C382.042 60.953 367.377 53.3902 352.56 45.3685C350.429 45.7083 348.305 46.0741 346.187 46.4658C359.899 54.8235 373.473 62.7683 386.907 70.3004V70.3091ZM371.401 74.5397C376.299 73.0863 381.229 71.7346 386.193 70.4847C372.753 62.9296 359.175 54.9703 345.458 46.6069C341.148 47.4191 336.87 48.3349 332.625 49.3544C345.689 58.1364 358.614 66.5286 371.401 74.5311V74.5397ZM353.372 80.4034C359.132 78.3663 364.933 76.4722 370.773 74.7212C357.973 66.7072 345.039 58.3034 331.971 49.5099C326.551 50.8232 321.186 52.2987 315.875 53.9364C328.495 63.1274 340.994 71.9497 353.372 80.4034ZM334.01 87.851C340.218 85.2763 346.478 82.8638 352.791 80.6136C340.415 72.1657 327.911 63.3338 315.279 54.1179C309.298 55.9822 303.384 58.0423 297.536 60.2983C309.812 69.8348 321.969 79.0191 334.008 87.851H334.01ZM314.018 96.7587C320.444 93.6867 326.929 90.7924 333.472 88.0756C321.441 79.2667 309.284 70.0767 297 60.5056C290.758 62.9248 284.589 65.5609 278.493 68.414C290.453 78.2059 302.293 87.6542 314.015 96.7587H314.018ZM293.731 107.066C300.259 103.543 306.853 100.183 313.514 96.9862C301.802 87.8894 289.965 78.4363 278.004 68.6272C271.668 71.5974 265.398 74.7807 259.195 78.1772C270.816 88.1418 282.327 97.7715 293.728 107.066H293.731ZM273.309 118.678C279.897 114.731 286.545 110.945 293.253 107.322C281.86 98.0317 270.352 88.4039 258.728 78.4392C252.363 81.9317 246.074 85.6363 239.861 89.553C251.11 99.5677 262.26 109.276 273.309 118.678ZM252.988 131.465C259.555 127.145 266.178 122.973 272.86 118.949C261.832 109.572 250.687 99.8662 239.426 89.8324C233.09 93.8259 226.833 98.024 220.655 102.426C231.55 112.423 242.303 122.065 252.988 131.465ZM232.702 145.378C239.262 140.696 245.879 136.152 252.553 131.747C241.874 122.35 231.112 112.711 220.237 102.72C213.982 107.171 207.798 111.808 201.684 116.631C212.116 126.471 222.466 136.093 232.702 145.378ZM212.585 160.265C219.098 155.273 225.666 150.41 232.29 145.675C222.058 136.388 211.732 126.81 201.31 116.942C195.116 121.832 188.99 126.895 182.933 132.131C192.901 141.771 202.787 151.149 212.591 160.265H212.585ZM192.552 176.105C199.043 170.813 205.589 165.629 212.188 160.553C202.384 151.423 192.501 142.051 182.538 132.436C176.427 137.722 170.379 143.163 164.395 148.759C173.858 158.099 183.253 167.243 192.558 176.125L192.552 176.105ZM172.703 192.722C179.143 187.193 185.63 181.758 192.163 176.419C182.87 167.563 173.481 158.422 164.037 149.111C158.003 154.756 152.027 160.538 146.11 166.457C155.045 175.419 163.912 184.176 172.709 192.728L172.703 192.722ZM152.926 210.109C159.351 204.349 165.824 198.659 172.346 193.039C163.56 184.491 154.705 175.746 145.781 166.802C139.808 172.779 133.892 178.877 128.032 185.096C136.372 193.613 144.671 201.951 152.926 210.109ZM133.245 228.111C139.64 222.159 146.078 216.269 152.558 210.44C144.331 202.293 136.042 193.965 127.692 185.456C121.788 191.717 115.932 198.082 110.124 204.55C117.873 212.559 125.575 220.416 133.23 228.123L133.245 228.111ZM113.589 246.684C119.977 240.565 126.404 234.491 132.87 228.463C125.227 220.783 117.534 212.94 109.79 204.933C103.927 211.461 98.1091 218.073 92.3376 224.768C99.4665 232.208 106.55 239.513 113.589 246.684ZM452.274 93.0004C465.781 96.3181 479.182 99.3488 492.478 102.092C462.353 92.8765 431.601 82.0161 400.201 69.2608C417.78 77.7989 435.138 85.7112 452.274 92.9975V93.0004ZM431.204 94.0141C435.117 92.8621 439.044 91.76 442.986 90.7079H443.04H443.101C445.134 91.2263 447.164 91.737 449.192 92.24C432.104 84.9076 414.802 76.9628 397.286 68.4054C394.022 69.11 390.778 69.8636 387.552 70.6662C402.267 78.9125 416.817 86.6942 431.204 94.0112V94.0141ZM413.276 99.656C418.98 97.736 424.717 95.9235 430.487 94.2186C416.102 86.8938 401.549 79.0997 386.826 70.8361C381.834 72.0802 376.878 73.4309 371.957 74.8882C385.892 83.5915 399.665 91.8474 413.276 99.656ZM393.444 106.767C399.803 104.346 406.201 102.046 412.637 99.8691C399.018 92.0413 385.247 83.7777 371.323 75.0783C365.46 76.8274 359.643 78.7186 353.874 80.7518C367.216 89.841 380.41 98.5126 393.456 106.767H393.444ZM372.619 115.176C379.324 112.313 386.072 109.584 392.863 106.988C379.818 98.7325 366.628 90.057 353.292 80.9621C346.956 83.2085 340.683 85.6199 334.474 88.1966C347.338 97.6006 360.057 106.594 372.631 115.176H372.619ZM351.218 124.81C358.13 121.546 365.081 118.411 372.072 115.407C359.492 106.795 346.78 97.8003 333.936 88.4212C327.381 91.1456 320.884 94.041 314.447 97.1072C326.838 106.713 339.099 115.947 351.23 124.81H351.218ZM329.607 135.517C336.596 131.904 343.631 128.416 350.714 125.054C338.593 116.201 326.339 106.964 313.951 97.3434C307.291 100.525 300.69 103.88 294.149 107.409C306.085 117.124 317.905 126.493 329.607 135.517ZM307.814 147.262C314.87 143.311 321.974 139.48 329.126 135.771C317.431 126.747 305.617 117.377 293.682 107.662C286.962 111.285 280.309 115.071 273.721 119.018C285.197 128.764 296.561 138.178 307.814 147.262ZM286.047 159.899C293.101 155.662 300.205 151.534 307.359 147.515C296.108 138.432 284.745 129.019 273.269 119.277C266.582 123.292 259.958 127.465 253.397 131.796C264.368 141.473 275.251 150.841 286.047 159.899ZM264.272 173.389C271.334 168.881 278.438 164.475 285.584 160.17C274.805 151.119 263.922 141.759 252.936 132.09C246.259 136.487 239.635 141.03 233.065 145.718C243.575 155.238 253.977 164.461 264.272 173.389ZM242.508 187.645C249.574 182.897 256.683 178.235 263.837 173.66C253.538 164.713 243.151 155.497 232.676 146.012C226.05 150.747 219.478 155.612 212.959 160.608C222.884 169.852 232.751 178.919 242.508 187.645ZM220.851 202.549C227.883 197.605 234.961 192.733 242.082 187.933C232.336 179.204 222.478 170.14 212.562 160.91C205.961 165.969 199.414 171.147 192.921 176.445C202.312 185.398 211.609 194.059 220.851 202.557V202.549ZM199.193 218.075C206.232 212.933 213.313 207.855 220.436 202.84C211.203 194.349 201.915 185.698 192.532 176.761C186.004 182.093 179.515 187.528 173.066 193.065C181.839 201.599 190.548 209.939 199.193 218.083V218.075ZM177.524 234.148C184.573 228.841 191.66 223.582 198.787 218.371C190.147 210.24 181.449 201.912 172.692 193.387C166.164 198.996 159.687 204.688 153.261 210.463C161.405 218.527 169.493 226.425 177.524 234.156V234.148ZM155.896 250.63C162.94 245.214 170.014 239.822 177.118 234.456C169.1 226.743 161.024 218.859 152.889 210.803C146.407 216.622 139.969 222.512 133.576 228.471C141.062 236.005 148.502 243.394 155.896 250.638V250.63ZM134.224 267.483C141.28 261.954 148.371 256.438 155.498 250.935C148.124 243.706 140.697 236.328 133.219 228.8C126.75 234.825 120.318 240.899 113.923 247.024C120.726 253.971 127.492 260.793 134.224 267.492V267.483ZM546.535 116.619C557.813 116.968 569.03 117.192 580.185 117.29C554.898 114.007 529.209 109.894 503.114 104.751C517.732 109.076 532.206 113.035 546.535 116.628V116.619ZM507.834 114.891C520.01 115.599 532.114 116.147 544.145 116.533C528.823 112.647 513.333 108.353 497.673 103.65C483.629 100.815 469.463 97.6659 455.177 94.2042C472.963 101.732 490.516 108.635 507.834 114.911V114.891ZM478.568 116.743C481.772 115.681 484.982 114.64 488.198 113.618H488.239H488.282C494.234 114.052 500.165 114.445 506.074 114.796C488.33 108.328 470.344 101.219 452.118 93.4698C449.1 92.7325 446.077 91.978 443.049 91.2061C439.307 92.2026 435.58 93.2461 431.869 94.3367C447.628 102.343 463.194 109.818 478.568 116.763V116.743ZM457.777 123.997C464.445 121.569 471.139 119.235 477.859 116.996C462.486 110.033 446.919 102.55 431.158 94.5498C425.367 96.2566 419.607 98.071 413.878 99.9929C428.69 108.489 443.324 116.49 457.777 123.997ZM435.708 132.398C442.812 129.572 449.954 126.85 457.135 124.231C442.678 116.703 428.044 108.693 413.236 100.203C406.777 102.375 400.359 104.679 393.983 107.115C408.058 116.005 421.967 124.432 435.708 132.398ZM412.988 141.79C420.332 138.637 427.706 135.586 435.112 132.635C421.372 124.653 407.468 116.217 393.398 107.325C386.592 109.919 379.833 112.648 373.12 115.513C386.566 124.704 399.855 133.463 412.988 141.79ZM389.891 152.071C397.378 148.627 404.891 145.28 412.429 142.032C399.3 133.703 386.015 124.94 372.573 115.743C365.563 118.739 358.602 121.873 351.688 125.147C364.575 134.537 377.311 143.512 389.896 152.071H389.891ZM366.563 163.162C374.127 159.455 381.726 155.839 389.358 152.316C376.768 143.732 364.04 134.757 351.172 125.391C344.082 128.747 337.037 132.236 330.039 135.857C342.35 145.332 354.526 154.435 366.568 163.165L366.563 163.162ZM343.108 174.97C350.725 171.032 358.375 167.177 366.059 163.404C354.02 154.684 341.852 145.584 329.552 136.105C322.396 139.812 315.293 143.643 308.24 147.596C319.983 157.077 331.608 166.203 343.114 174.973L343.108 174.97ZM319.608 187.412C327.245 183.276 334.916 179.213 342.619 175.224C331.118 166.443 319.502 157.324 307.771 147.864C300.619 151.875 293.515 156.003 286.459 160.248C297.612 169.606 308.664 178.662 319.613 187.417L319.608 187.412ZM296.09 200.423C303.737 196.111 311.417 191.86 319.13 187.671C308.197 178.943 297.153 169.887 285.996 160.504C278.836 164.807 271.721 169.214 264.652 173.726C275.237 182.913 285.718 191.814 296.096 200.429L296.09 200.423ZM272.529 213.939C280.195 209.469 287.894 205.053 295.626 200.691C285.258 192.08 274.794 183.186 264.234 174.008C257.077 178.578 249.965 183.24 242.9 187.996C252.861 196.921 262.734 205.527 272.535 213.945L272.529 213.939ZM248.927 227.91C256.607 223.302 264.324 218.734 272.077 214.207C262.285 205.792 252.427 197.195 242.462 188.287C235.339 193.087 228.258 197.959 221.219 202.903C230.535 211.46 239.773 219.798 248.933 227.915L248.927 227.91ZM225.271 242.261C232.976 237.537 240.714 232.843 248.484 228.178C239.331 220.069 230.105 211.74 220.805 203.188C213.679 208.199 206.596 213.279 199.553 218.426C208.191 226.553 216.766 234.5 225.277 242.266L225.271 242.261ZM201.546 256.928C209.272 252.113 217.035 247.313 224.834 242.528C216.34 234.793 207.778 226.858 199.15 218.723C192.019 223.93 184.929 229.189 177.879 234.502C185.82 242.142 193.711 249.619 201.552 256.934L201.546 256.928ZM177.772 271.821C185.519 266.944 193.295 262.07 201.1 257.199C193.278 249.903 185.4 242.437 177.467 234.801C170.363 240.158 163.287 245.552 156.238 250.984C163.465 258.055 170.645 265.003 177.778 271.826L177.772 271.821ZM153.868 286.892C161.656 281.973 169.475 277.04 177.326 272.094C170.222 265.301 163.06 258.365 155.841 251.286C148.714 256.783 141.621 262.301 134.561 267.841C141.047 274.292 147.489 280.668 153.886 286.897L153.868 286.892ZM625.789 121.898C635.389 120.262 644.954 118.609 654.485 116.939C632.793 117.601 610.848 117.95 588.657 117.86C601.132 119.396 613.509 120.742 625.789 121.898ZM593.309 127.327C603.536 125.656 613.729 123.955 623.885 122.223C610.829 120.968 597.656 119.506 584.366 117.837C572.597 117.76 560.758 117.55 548.851 117.207C563.83 120.937 578.65 124.31 593.309 127.327ZM560.503 132.531C571.009 130.914 581.48 129.255 591.915 127.554C576.939 124.442 561.792 120.969 546.475 117.135C534.223 116.751 521.899 116.211 509.501 115.516C526.724 121.746 543.724 127.418 560.503 132.531ZM529.131 138.135C530.556 137.611 531.983 137.09 533.411 136.571H533.434H533.457C542.112 135.325 550.746 134.041 559.357 132.718C542.376 127.505 525.17 121.745 507.739 115.438C501.276 115.054 494.794 114.629 488.293 114.162C485.275 115.122 482.262 116.1 479.253 117.094C496.105 124.686 512.731 131.699 529.131 138.135ZM505.049 147.236C512.821 144.214 520.611 141.267 528.42 138.394C512.016 131.932 495.39 124.901 478.542 117.302C471.795 119.542 465.075 121.879 458.382 124.311C474.145 132.5 489.701 140.142 505.049 147.236ZM480.379 157.074C488.362 153.81 496.366 150.615 504.39 147.489C489.041 140.385 473.489 132.738 457.734 124.548C450.54 127.165 443.378 129.89 436.249 132.724C451.156 141.358 465.866 149.475 480.379 157.074ZM455.372 167.534C463.484 164.063 471.615 160.66 479.766 157.324C465.247 149.698 450.545 141.576 435.659 132.957C428.24 135.906 420.855 138.959 413.503 142.115C427.638 151.061 441.598 159.533 455.381 167.534H455.372ZM430.167 178.527C438.358 174.879 446.566 171.296 454.794 167.779C441.018 159.782 427.068 151.308 412.945 142.357C405.388 145.606 397.863 148.954 390.371 152.403C403.798 161.54 417.066 170.248 430.176 178.527H430.167ZM404.823 189.989C413.062 186.199 421.323 182.461 429.608 178.775C416.512 170.519 403.255 161.81 389.836 152.647C382.192 156.171 374.584 159.786 367.012 163.493C379.766 172.719 392.375 181.551 404.838 189.989H404.823ZM379.396 201.852C387.673 197.939 395.971 194.066 404.29 190.234C391.843 181.821 379.249 172.989 366.508 163.738C358.815 167.507 351.158 171.363 343.537 175.307C355.627 184.525 367.585 193.373 379.41 201.852H379.396ZM353.888 214.063C362.198 210.042 370.528 206.054 378.88 202.097C367.067 193.62 355.123 184.776 343.048 175.566C335.341 179.552 327.668 183.616 320.028 187.757C331.437 196.848 342.728 205.617 353.902 214.063H353.888ZM328.317 226.573C336.653 222.461 345.013 218.372 353.396 214.308C342.238 205.879 330.961 197.114 319.562 188.013C311.843 192.197 304.163 196.449 296.522 200.769C307.207 209.645 317.825 218.285 328.317 226.573ZM302.656 239.323C311.02 235.141 319.409 230.972 327.824 226.815C317.338 218.533 306.731 209.901 296.041 201.031C288.305 205.397 280.602 209.813 272.932 214.279C282.923 222.864 292.847 231.262 302.659 239.323H302.656ZM276.895 252.283C285.295 248.046 293.72 243.812 302.169 239.582C292.378 231.518 282.453 223.141 272.477 214.57C264.724 219.095 257.006 223.665 249.322 228.278C258.584 236.46 267.791 244.516 276.898 252.269L276.895 252.283ZM251.027 265.37C259.475 261.096 267.938 256.814 276.417 252.525C267.322 244.778 258.123 236.734 248.876 228.543C241.102 233.207 233.362 237.903 225.657 242.632C234.176 250.365 242.643 257.979 251.03 265.355L251.027 265.37ZM225.029 278.543C230.895 275.574 236.772 272.598 242.661 269.615L250.552 265.617C242.177 258.25 233.721 250.641 225.208 242.906C217.409 247.686 209.644 252.486 201.912 257.306C209.674 264.532 217.381 271.607 225.032 278.528L225.029 278.543ZM198.871 291.75C207.403 287.459 215.964 283.139 224.554 278.79C216.917 271.878 209.228 264.808 201.489 257.579C193.674 262.446 185.898 267.32 178.161 272.201C185.096 278.807 192.013 285.357 198.874 291.736L198.871 291.75ZM172.51 304.917C181.108 300.645 189.733 296.331 198.387 291.975C191.541 285.607 184.635 279.067 177.706 272.451C169.851 277.393 162.029 282.327 154.24 287.252C160.365 293.207 166.462 299.157 172.51 304.917ZM693.987 114.888C702.292 111.885 710.588 108.94 718.873 106.052L702.799 108.909C689.148 111.334 675.427 113.764 661.636 116.199C672.482 115.83 683.266 115.393 693.987 114.888ZM666.12 125.149C674.881 121.862 683.631 118.641 692.371 115.484C681.007 116.012 669.572 116.463 658.068 116.838C647.994 118.606 637.884 120.358 627.739 122.094C640.639 123.286 653.433 124.305 666.12 125.149ZM638.4 135.733C647.267 132.3 656.128 128.916 664.982 125.581C652.034 124.71 638.978 123.654 625.815 122.413C615.48 124.176 605.112 125.912 594.711 127.62C609.424 130.639 623.987 133.338 638.4 135.719V135.733ZM610.689 146.594C619.627 143.04 628.555 139.539 637.473 136.09C622.906 133.664 608.18 130.919 593.294 127.857C582.769 129.573 572.209 131.25 561.615 132.888C578.186 137.93 594.544 142.494 610.689 146.579V146.594ZM583.073 157.693C592.016 154.057 600.957 150.456 609.894 146.89C593.63 142.747 577.154 138.13 560.465 133.041C551.516 134.413 542.543 135.75 533.546 137.049C532.308 137.499 531.071 137.951 529.837 138.406C547.846 145.479 565.592 151.908 583.073 157.693ZM555.425 169.032C564.403 165.313 573.375 161.632 582.342 157.99C564.87 152.167 547.127 145.725 529.114 138.665C521.286 141.545 513.474 144.497 505.677 147.521C522.505 155.301 539.091 162.474 555.434 169.04L555.425 169.032ZM527.804 180.551C536.789 176.775 545.774 173.022 554.757 169.294C538.416 162.702 521.838 155.525 505.023 147.76C496.986 150.886 488.965 154.084 480.961 157.353C496.799 165.667 512.416 173.407 527.812 180.574L527.804 180.551ZM500.156 192.23C509.159 188.405 518.161 184.601 527.161 180.816C511.771 173.634 496.162 165.897 480.336 157.607C472.174 160.942 464.031 164.348 455.905 167.825C470.877 176.503 485.635 184.646 500.179 192.253L500.156 192.23ZM472.508 204.038C481.532 200.175 490.556 196.324 499.58 192.486C485.032 184.86 470.29 176.721 455.352 168.07C447.114 171.595 438.895 175.18 430.697 178.826C444.811 187.731 458.751 196.143 472.517 204.061L472.508 204.038ZM444.817 215.923C453.841 212.041 462.879 208.162 471.929 204.285C458.173 196.35 444.239 187.945 430.129 179.071C421.839 182.759 413.57 186.503 405.321 190.303C418.661 199.317 431.817 207.822 444.826 215.946L444.817 215.923ZM417.037 227.884L422.377 225.58C429.663 222.441 436.959 219.302 444.264 216.162C431.261 208.035 418.117 199.53 404.809 190.531C396.48 194.361 388.174 198.236 379.891 202.157C392.417 211.158 404.802 219.741 417.046 227.907L417.037 227.884ZM389.173 239.873C398.268 235.964 407.372 232.047 416.484 228.123C404.244 219.932 391.866 211.361 379.35 202.41C370.992 206.366 362.657 210.356 354.343 214.383C366.086 223.245 377.699 231.75 389.182 239.896L389.173 239.873ZM361.261 251.868C370.379 247.973 379.507 244.061 388.646 240.132C377.171 231.986 365.571 223.495 353.848 214.659C345.457 218.72 337.093 222.809 328.754 226.928C339.707 235.559 350.527 243.83 361.261 251.868ZM333.213 263.786C342.373 259.911 351.548 256.011 360.739 252.084C350.014 244.061 339.206 235.798 328.268 227.161C319.849 231.316 311.454 235.487 303.085 239.674C313.226 248.003 323.248 255.987 333.213 263.786ZM304.989 275.648C314.205 271.808 323.434 267.929 332.677 264.01C322.73 256.214 312.719 248.239 302.59 239.919C294.142 244.143 285.716 248.378 277.312 252.623C286.629 260.546 295.836 268.169 304.989 275.648ZM276.598 287.398C285.87 283.597 295.16 279.757 304.468 275.879C295.324 268.408 286.128 260.796 276.82 252.882C268.33 257.164 259.866 261.445 251.427 265.727C259.897 273.143 268.272 280.337 276.601 287.398H276.598ZM248 298.999C257.337 295.255 266.696 291.459 276.077 287.612C267.762 280.558 259.402 273.373 250.958 265.954L242.868 270.055L225.433 278.888C233.009 285.742 240.532 292.446 248.003 298.999H248ZM219.226 310.386C228.617 306.723 238.035 302.997 247.482 299.209C240.023 292.662 232.514 285.969 224.955 279.13C216.366 283.479 207.803 287.799 199.265 292.09C205.964 298.316 212.619 304.415 219.229 310.386H219.226ZM190.205 321.526C199.678 317.955 209.182 314.307 218.717 310.582C212.113 304.6 205.469 298.541 198.799 292.332C190.141 296.686 181.513 301.006 172.913 305.292C178.714 310.81 184.462 316.172 190.208 321.526H190.205ZM160.357 332.551C155.527 327.925 150.718 323.355 145.848 318.617C99.9148 341.018 54.8663 361.707 10.7769 378.826C59.4311 366.863 109.419 350.965 160.36 332.551H160.357ZM146.326 318.396C151.207 323.15 156.034 327.738 160.878 332.378C170.451 328.922 180.051 325.37 189.678 321.722C183.947 316.38 178.213 311.031 172.424 305.519C163.698 309.86 154.998 314.152 146.326 318.396ZM130.198 302.449C135.457 307.676 140.733 312.947 145.945 318.027C154.616 313.803 163.318 309.516 172.052 305.165C166.022 299.405 159.925 293.478 153.828 287.537L151.438 289.046C144.326 293.529 137.244 297.993 130.192 302.438L130.198 302.449ZM112.811 285.025C118.514 290.801 124.188 296.489 129.835 302.089C136.939 297.619 144.059 293.127 151.196 288.611L153.459 287.171C147.077 280.95 140.646 274.588 134.192 268.163C127.027 273.771 119.898 279.388 112.806 285.014L112.811 285.025ZM94.2528 266.113C100.364 272.425 106.412 278.543 112.46 284.668C119.552 279.052 126.678 273.433 133.838 267.812C127.118 261.119 120.366 254.31 113.583 247.387C107.099 253.589 100.654 259.827 94.2471 266.101L94.2528 266.113ZM74.669 245.599C81.1115 252.395 87.5482 259.169 93.9216 265.758C100.327 259.491 106.768 253.252 113.246 247.038C106.213 239.858 99.1411 232.562 92.0295 225.151C86.1908 231.899 80.3992 238.712 74.6546 245.587L74.669 245.599ZM53.9822 223.518C60.7847 230.844 67.5756 238.119 74.3033 245.244C80.0498 238.375 85.8366 231.559 91.6637 224.796C84.3112 217.121 76.9298 209.351 69.4879 201.4C64.2714 208.672 59.098 216.041 53.9678 223.506L53.9822 223.518ZM32.2154 199.816C39.398 207.72 46.5403 215.496 53.6423 223.143C58.7764 215.69 63.9546 208.317 69.1769 201.025C61.5133 192.835 53.818 184.54 46.0565 176.053C41.3794 183.844 36.7609 191.761 32.201 199.804L32.2154 199.816ZM9.34839 174.397C16.8997 182.883 24.403 191.224 31.8582 199.418C36.4201 191.389 41.0348 183.472 45.7023 175.667C37.7343 166.95 29.7107 158.061 21.6315 148.999C17.4766 157.308 13.3823 165.774 9.34839 174.397ZM0 -128C2.35966 -125.264 4.71451 -122.538 7.06457 -119.821C16.0357 -120.437 25.6922 -119.11 36.1177 -115.636L36.1782 -115.616L36.2185 -115.567C42.3298 -108.719 48.4104 -101.972 54.4603 -95.3267C62.9043 -95.9027 71.8409 -95.0733 81.3217 -92.7117L81.388 -92.6944L81.4369 -92.6426C88.3489 -85.3083 95.2147 -78.0959 102.035 -71.0054C110.214 -71.5998 118.435 -71.1897 126.514 -69.7843H126.586L126.638 -69.7295C134.414 -61.9738 142.118 -54.4167 149.796 -46.9576C157.09 -47.6097 164.43 -47.5798 171.718 -46.8683H171.796L171.854 -46.8136C180.586 -38.7209 189.246 -30.8614 197.857 -23.146C204.187 -23.8472 210.558 -24.1147 216.925 -23.9466H217.006L217.069 -23.8948C226.892 -15.5717 236.641 -7.48473 246.318 0.366074C251.502 -0.328003 256.775 -0.811821 262.135 -1.02206H262.216L262.279 -0.970222C273.428 7.47769 284.48 15.6242 295.433 23.4692C299.367 22.8414 303.333 22.3172 307.342 21.9111H307.423L307.489 21.9572C320.291 30.3667 332.971 38.4057 345.527 46.0741C347.86 45.6364 350.202 45.2283 352.552 44.8501H352.627L352.696 44.8847C367.733 53.0311 382.613 60.6996 397.335 67.8899L397.767 67.792H397.836L397.9 67.8179C431.944 81.7483 465.228 93.4151 497.78 103.21C527.156 109.145 556.022 113.774 584.378 117.362C609.235 117.526 633.781 117.132 658.016 116.348C672.992 113.724 687.891 111.088 702.713 108.44L721.827 105.044C991.574 11.6268 1248.87 -14.2987 1439.99 219.376V220.154C1249.73 -12.8703 993.679 11.932 725.05 104.442C1003.26 55.1662 1250.33 18.1701 1439.99 250.14V250.912C1249.72 17.7986 1001.5 55.938 721.971 105.517C713.232 108.541 704.476 111.641 695.706 114.819C738.194 112.803 779.689 109.863 820.176 106.994C1064.32 89.7143 1271.88 75.0265 1439.99 280.826V281.615C1271.95 75.5247 1064.39 90.2039 820.216 107.501C779.202 110.407 737.157 113.385 694.093 115.404C685.188 118.623 676.272 121.899 667.344 125.23C744.015 130.276 816.815 129.328 885.951 128.424C1104.33 125.573 1286.43 123.24 1439.99 311.57V312.348C1286.48 123.735 1104.36 126.068 885.948 128.919C816.455 129.827 743.286 130.78 666.206 125.648C657.279 128.996 648.341 132.407 639.394 135.88C743.01 153.002 838.656 154.98 927.475 156.818C1128.98 160.985 1295.35 164.444 1440 342.219V343.008C1295.39 164.956 1129.01 161.492 927.466 157.324C838.383 155.481 742.434 153.497 638.461 136.243C629.493 139.716 620.518 143.234 611.536 146.795C738.114 178.847 851.818 183.469 955.405 187.691C1145.24 195.404 1301.11 201.751 1440 372.902V373.679C1301.14 202.252 1145.26 195.91 955.39 188.209C851.587 183.99 737.627 179.356 610.735 147.135C601.769 150.699 592.799 154.31 583.825 157.97C730.836 206.719 859.513 213.423 974.865 219.417C1156.34 228.828 1304.87 236.57 1439.99 403.576V404.357C1304.88 237.074 1156.35 229.33 974.827 219.898C859.291 213.896 730.387 207.18 583.088 158.24C574.096 161.888 565.102 165.578 556.105 169.308C721.888 235.942 863.459 244.115 988.637 251.321C1164.03 261.415 1307.29 269.695 1439.99 434.242V435.034C1307.3 270.211 1164.05 261.931 988.613 251.834C863.266 244.634 721.493 236.434 555.434 169.593C546.431 173.324 537.429 177.083 528.426 180.871C711.799 266.213 864.755 275.288 998.437 283.202C1169.35 293.323 1308.77 301.614 1439.99 464.905V465.692C1308.77 302.124 1169.35 293.832 998.411 283.709C864.567 275.772 711.431 266.691 527.798 181.127C518.786 184.916 509.773 188.725 500.761 192.555C700.841 297.196 864.075 306.706 1005.29 314.908C1172.91 324.639 1309.52 332.611 1439.99 495.548V496.337C1309.52 333.121 1172.9 325.149 1005.27 315.412C863.908 307.204 700.493 297.683 500.159 192.811C491.122 196.651 482.087 200.507 473.055 204.377C689.209 328.792 861.872 338.296 1009.94 346.418C1175.13 355.49 1309.74 362.92 1439.99 526.2V526.989C1309.74 363.427 1175.14 355.996 1009.91 346.925C861.713 338.786 688.889 329.27 472.479 204.637C463.431 208.517 454.387 212.4 445.347 216.286C677.047 360.78 858.485 369.947 1012.87 377.723C1176.35 385.945 1309.54 392.679 1439.99 556.857V557.649C1309.52 393.203 1176.36 386.461 1012.85 378.227C858.332 370.451 676.724 361.27 444.786 216.514C437.373 219.701 429.965 222.89 422.564 226.081L417.547 228.238C664.432 393.177 854.128 401.673 1014.43 408.812C1176.76 416.058 1308.99 421.988 1439.99 587.491V588.286C1308.99 422.495 1176.76 416.565 1014.42 409.328C853.978 402.174 664.119 393.672 416.994 228.466C407.872 232.394 398.761 236.314 389.66 240.227C651.45 425.87 848.978 433.404 1014.9 439.723C1176.52 445.878 1308.17 450.926 1439.99 618.129V618.921C1308.17 451.43 1176.53 446.384 1014.88 440.23C848.837 433.894 651.144 426.363 389.122 240.458C379.981 244.386 370.849 248.299 361.727 252.197C638.144 458.739 843.192 465.153 1014.47 470.464C1175.75 475.463 1307.12 479.57 1439.99 648.771V649.592C1307.12 480.097 1175.75 475.996 1014.46 470.997C843.057 465.683 637.847 459.261 361.197 252.447C352.004 256.375 342.825 260.279 333.659 264.157C624.559 491.856 836.851 496.928 1013.3 501.075C1170.21 504.764 1298.82 507.82 1429.21 666.023H1428.57C1298.39 508.315 1169.96 505.265 1013.28 501.576C836.707 497.429 624.254 492.36 333.121 264.373C323.872 268.286 314.641 272.167 305.427 276.017C610.704 525.134 830.016 528.665 1011.49 531.516C1157.97 533.82 1279.83 535.764 1402.37 666.011H1401.68C1279.37 536.26 1157.71 534.316 1011.49 532.017C829.89 529.163 610.416 525.63 304.908 276.23C295.594 280.116 286.301 283.962 277.027 287.767C596.615 558.577 822.782 560.391 1009.17 561.831C1143.95 562.871 1257.95 563.784 1371.45 666.011H1370.69C1257.44 564.287 1143.66 563.375 1009.16 562.332C822.658 560.892 596.333 559.081 276.5 287.977C267.117 291.817 257.755 295.615 248.415 299.37C582.293 592.177 815.173 592.105 1006.38 592.03C1127.34 591.984 1231.64 591.967 1334.28 666.008H1333.43C1231.07 592.48 1127.03 592.491 1006.41 592.537C815.078 592.612 582.039 592.687 247.922 299.581C238.472 303.367 229.048 307.095 219.65 310.767C567.798 625.835 807.288 623.819 1003.24 622.135C1106.34 621.25 1197.4 620.499 1285.89 666.008H1284.76C1196.63 621.009 1105.91 621.76 1003.24 622.641C807.17 624.32 567.516 626.331 219.134 310.968C209.601 314.685 200.098 318.333 190.622 321.912C553.055 659.545 799.086 655.508 999.727 652.144C1073.87 650.9 1141.83 649.779 1207.17 666.008H1205.04C1140.35 650.301 1073.07 651.418 999.733 652.651C798.97 656.018 552.779 660.052 190.101 322.108C180.465 325.739 170.86 329.29 161.287 332.764C389.421 551.086 571.971 634.948 726.101 666.017H723.561C569.845 634.536 387.877 550.348 160.766 332.951C108.402 351.881 57.0234 368.173 7.09625 380.26C4.72891 381.17 2.3635 382.07 0 382.959V382.412C1.08671 382.003 2.17342 381.592 3.26013 381.179L0 381.951V381.427C2.30398 380.885 4.62139 380.334 6.95225 379.773C52.1304 362.413 98.3309 341.228 145.479 318.243C140.295 313.18 135.022 307.921 129.777 302.708C85.5956 330.532 42.4162 357.275 0 380.217V379.641C42.2981 356.745 85.3566 330.091 129.4 302.345C123.765 296.749 118.101 291.073 112.408 285.319C106.157 290.269 99.9283 295.21 93.7229 300.142C61.9712 325.368 30.8157 350.11 0 372.758V372.136C30.7207 349.551 61.7811 324.887 93.4464 299.739C99.6268 294.828 105.834 289.903 112.068 284.965C106.02 278.851 99.9955 272.745 93.8957 266.447C79.9854 280.06 66.248 293.757 52.6056 307.342C34.9053 324.982 17.4008 342.423 0 359.216V358.528C17.2798 341.824 34.6864 324.501 52.2801 306.976C65.9053 293.397 79.6398 279.703 93.5559 266.095C87.194 259.52 80.7688 252.758 74.3378 245.973C56.1594 267.708 38.3468 289.924 20.7358 311.884C13.797 320.541 6.88505 329.144 0 337.691V336.914C6.76793 328.525 13.5589 320.077 20.3729 311.57C37.9897 289.599 55.7966 267.383 73.998 245.619C67.2704 238.522 60.488 231.259 53.6827 223.93C35.3574 250.552 17.5678 278.128 0 305.534V304.635C17.4555 277.405 35.1357 250.013 53.3428 223.555C46.2523 215.914 39.1196 208.146 31.9446 200.253C21.0583 219.431 10.4485 239.196 0 259.212V258.164C10.3391 238.387 20.8366 218.838 31.6019 199.876C24.1505 191.674 16.6578 183.344 9.12375 174.887C6.05178 181.462 3.01053 188.115 0 194.845V193.661C2.89725 187.208 5.82138 180.82 8.77239 174.498C5.85402 171.211 2.92989 167.913 0 164.605V163.862C3.00669 167.266 6.00666 170.651 8.99991 174.017C13.0319 165.4 17.1262 156.937 21.283 148.627C14.229 140.722 7.13465 132.686 0 124.519V123.773C7.21529 132.029 14.3883 140.152 21.5191 148.143C25.6778 139.847 29.9018 131.728 34.191 123.787C25.4263 114.024 16.5944 104.066 7.69528 93.9133C5.09947 99.5696 2.53437 105.344 0 111.236V110.015C2.41918 104.417 4.87483 98.9158 7.36697 93.513C4.91707 90.7137 2.46142 87.8999 0 85.0718V84.323C2.53437 87.2395 5.06491 90.1405 7.5916 93.0263C11.4546 84.682 15.4117 76.597 19.4628 68.7711C13.0156 61.4388 6.52793 54.0036 0 46.4658V45.717C6.60089 53.3604 13.1701 60.8896 19.7076 68.3046C23.7742 60.4855 27.9415 52.9428 32.2298 45.7372C22.4551 34.7241 12.6085 23.4673 2.68989 11.9666C1.78558 13.6485 0.888951 15.3487 0 17.067V16.0158C0.777592 14.5221 1.56094 13.0437 2.35006 11.5807L0 8.85623V8.10457L2.59197 11.1199C6.63545 3.64732 10.8277 -3.39996 15.1688 -10.022C10.1346 -15.8165 5.07835 -21.6647 0 -27.5668V-28.3184C5.17243 -22.3031 10.3257 -16.3512 15.4597 -10.4626C19.6845 -16.9034 24.262 -23.1057 29.1712 -29.0413C19.5156 -39.9986 9.7919 -51.1739 0 -62.567V-63.3216C9.9071 -51.7672 19.7374 -40.4623 29.4909 -29.4071C34.1191 -34.9802 39.1381 -40.2167 44.51 -45.077C34.5049 -56.2743 24.425 -67.6982 14.2703 -79.3486C9.11903 -75.4116 4.34203 -71.0077 0 -66.1929L0 -66.9446C4.25558 -71.6235 8.92365 -75.9099 13.9477 -79.7518C9.32055 -85.0779 4.67131 -90.473 0 -95.9373V-96.689C4.79995 -91.0788 9.57974 -85.531 14.3394 -80.0456C19.8437 -84.2156 25.8661 -87.6533 32.2557 -90.2724C23.8519 -99.7475 15.3848 -109.467 6.87737 -119.302C4.56891 -119.136 2.27241 -118.832 0 -118.392L0 -118.934C2.13285 -119.34 4.2865 -119.629 6.45114 -119.798C4.30076 -122.294 2.15038 -124.783 0 -127.266V-128Z" fill="#808080"/>
</g>
</g>
</svg>
