<svg width="1167" height="308" viewBox="0 0 1167 308" fill="none" xmlns="http://www.w3.org/2000/svg">
<g opacity="0.05" clip-path="url(#clip0_605_4174)">
<path d="M263.668 64.9588C262.767 59.6552 260.152 55.5106 256.303 53.2884C252.454 51.0663 247.557 50.8736 242.514 52.7459C237.981 54.4287 234.04 57.5726 231.972 61.1555C230.967 62.896 230.733 64.5289 231.278 66.009C231.815 67.4699 233.014 68.5513 234.54 69.4319C236.163 70.3691 238.156 71.0792 240.115 71.7767C241.826 72.3863 243.443 72.9621 244.569 73.6125C245.542 74.1739 246.766 75.22 248.061 76.3272C251.089 78.9151 254.522 81.8482 257.808 81.2839C259.371 81.0157 260.665 80.0096 261.656 78.2938C263.725 74.711 264.477 69.7259 263.668 64.9588ZM257.303 78.3387C255.397 78.6659 252.406 76.1095 250.003 74.0555C248.599 72.8562 247.274 71.7234 246.063 71.0245C244.701 70.2381 242.96 69.6182 241.117 68.9617C238.262 67.9445 234.708 66.6788 234.082 64.9771C233.999 64.7503 233.745 64.0602 234.559 62.6494C236.265 59.6952 239.712 56.9737 243.554 55.5472C247.748 53.9903 251.745 54.1071 254.809 55.8762C257.873 57.6452 259.973 61.0484 260.721 65.4586C261.407 69.4997 260.774 73.8453 259.068 76.7995C258.276 78.1717 257.543 78.2975 257.303 78.3387ZM275.22 45.6516C275.058 43.4208 274.032 41.6027 272.404 40.6631C270.777 39.7235 268.689 39.7441 266.677 40.7192C264.828 41.6152 263.161 43.2315 261.984 45.2704C260.807 47.3093 260.24 49.5608 260.389 51.6101C260.551 53.8408 261.577 55.6591 263.204 56.5986C264.831 57.5382 266.919 57.5177 268.932 56.5424C270.781 55.6465 272.447 54.0302 273.625 51.9912C274.802 49.9523 275.368 47.7008 275.22 45.6516ZM267.629 53.8533C266.978 54.1685 265.733 54.6081 264.698 54.0108C263.664 53.4135 263.421 52.115 263.369 51.394C263.265 49.9561 263.703 48.2687 264.572 46.7645C265.44 45.2602 266.682 44.037 267.98 43.4083C268.63 43.0932 269.876 42.6536 270.91 43.2509C271.945 43.8482 272.187 45.1467 272.239 45.8677C272.344 47.3056 271.905 48.993 271.037 50.4972C270.168 52.0013 268.926 53.2247 267.629 53.8533ZM262.002 38.0202C261.84 35.7894 260.814 33.9712 259.187 33.0316C257.559 32.092 255.471 32.1125 253.459 33.0878C251.61 33.9838 249.943 35.6001 248.766 37.639C247.589 39.6779 247.022 41.9294 247.171 43.9787C247.333 46.2095 248.359 48.0277 249.986 48.9673C251.614 49.9069 253.701 49.8863 255.714 48.911C257.563 48.015 259.23 46.3989 260.407 44.3598C261.584 42.3208 262.15 40.0693 262.002 38.0202ZM254.411 46.2219C253.76 46.5371 252.515 46.9767 251.48 46.3794C250.446 45.7821 250.203 44.4835 250.151 43.7626C250.047 42.3247 250.485 40.6373 251.354 39.1331C252.222 37.6288 253.464 36.4057 254.762 35.7769C255.412 35.4618 256.658 35.0222 257.692 35.6195C258.727 36.2168 258.969 37.5153 259.021 38.2363C259.126 39.6741 258.687 41.3615 257.819 42.8657C256.95 44.3699 255.708 45.5932 254.411 46.2219ZM278.945 64.4784C279.367 62.7344 279.053 61.1086 278.061 59.9007C277.262 58.9287 276.073 58.3289 274.713 58.2119C272.839 58.0504 270.809 58.7799 269.146 60.2132C267.786 61.3845 266.827 62.8984 266.445 64.4762C266.022 66.2203 266.336 67.8461 267.329 69.054C267.672 69.472 268.088 69.8211 268.558 70.0926C269.182 70.4526 269.901 70.6762 270.677 70.7429C272.551 70.9044 274.58 70.1749 276.244 68.7417L276.244 68.7416C277.603 67.5703 278.562 66.0564 278.945 64.4784ZM274.293 66.4776C273.251 67.3756 271.995 67.8571 270.933 67.7657C270.543 67.732 270.001 67.5991 269.637 67.1567C268.76 66.089 269.442 63.9021 271.096 62.477C272.138 61.579 273.395 61.0975 274.456 61.1889C274.715 61.2112 275.04 61.2771 275.336 61.4479C275.487 61.5347 275.629 61.6487 275.752 61.7977C276.629 62.8656 275.948 65.0524 274.293 66.4776ZM243.885 45.6288C244.295 43.4713 243.912 41.3493 242.835 39.8069C242.053 38.6876 240.939 37.9579 239.698 37.7521C238.156 37.4965 236.591 38.0374 235.292 39.2753C234.116 40.3952 233.285 41.983 232.95 43.746L232.95 43.7461C232.541 45.9037 232.924 48.0256 234.001 49.568C234.446 50.206 235 50.7175 235.623 51.0774C236.093 51.349 236.604 51.5343 237.137 51.6228C238.68 51.8785 240.245 51.3375 241.544 50.0997C242.719 48.9797 243.55 47.3919 243.885 45.6288ZM237.626 48.6748C237.061 48.5811 236.675 48.1785 236.451 47.8574C235.841 46.9837 235.63 45.655 235.886 44.3032L235.886 44.3033C236.293 42.158 237.846 40.4744 239.21 40.7003C239.774 40.7939 240.16 41.1965 240.385 41.5177C240.995 42.3915 241.206 43.7202 240.949 45.0719C240.542 47.2172 238.989 48.9008 237.626 48.6748Z" fill="#FF5B2E"/>
</g>
<g opacity="0.08" clip-path="url(#clip1_605_4174)">
<path d="M39.6676 35.9588C38.7674 30.6552 36.1521 26.5106 32.3032 24.2884C28.4542 22.0663 23.5572 21.8736 18.5143 23.7459C13.9812 25.4287 10.0401 28.5726 7.97154 32.1555C6.96668 33.896 6.73336 35.5289 7.27791 37.009C7.81535 38.4699 9.01418 39.5513 10.5397 40.4319C12.163 41.3691 14.1562 42.0792 16.1147 42.7767C17.8261 43.3863 19.4426 43.9621 20.5692 44.6125C21.5415 45.1739 22.7656 46.22 24.0613 47.3272C27.0894 49.9151 30.5217 52.8482 33.8084 52.2839C35.3709 52.0157 36.6654 51.0096 37.656 49.2938C39.7247 45.711 40.4767 40.7259 39.6676 35.9588ZM33.3027 49.3387C31.3974 49.6659 28.4061 47.1095 26.0025 45.0555C24.5992 43.8562 23.2737 42.7234 22.0631 42.0245C20.7011 41.2381 18.9603 40.6182 17.1172 39.9617C14.2618 38.9445 10.7081 37.6788 10.0821 35.9771C9.99866 35.7503 9.74475 35.0602 10.5593 33.6494C12.2649 30.6952 15.7116 27.9737 19.5541 26.5472C23.7477 24.9903 27.7448 25.1071 30.8089 26.8762C33.873 28.6452 35.9727 32.0484 36.7212 36.4586C37.4071 40.4997 36.7736 44.8453 35.068 47.7995C34.2761 49.1717 33.5435 49.2975 33.3027 49.3387ZM51.2197 16.6516C51.0579 14.4208 50.0317 12.6027 48.4044 11.6631C46.7769 10.7235 44.6893 10.7441 42.6766 11.7192C40.8276 12.6152 39.161 14.2315 37.9838 16.2704C36.8066 18.3093 36.2401 20.5608 36.3887 22.6101C36.5505 24.8408 37.5766 26.6591 39.204 27.5986C40.8315 28.5382 42.9191 28.5177 44.9318 27.5424C46.7808 26.6465 48.4474 25.0302 49.6246 22.9912C50.8018 20.9523 51.3684 18.7008 51.2197 16.6516ZM43.6288 24.8533C42.9784 25.1685 41.7327 25.6081 40.6981 25.0108C39.6635 24.4135 39.4214 23.115 39.3691 22.394C39.2648 20.9561 39.7032 19.2687 40.5716 17.7645C41.4401 16.2602 42.6823 15.037 43.9796 14.4083C44.63 14.0932 45.8758 13.6536 46.9103 14.2509C47.9449 14.8482 48.1871 16.1467 48.2393 16.8677C48.3436 18.3056 47.9052 19.993 47.0368 21.4972C46.1683 23.0013 44.9262 24.2247 43.6288 24.8533ZM38.0019 9.02016C37.8401 6.78938 36.8141 4.97123 35.1866 4.03162C33.5592 3.092 31.4714 3.11253 29.4588 4.0878C27.6098 4.98378 25.9432 6.60005 24.766 8.63899C23.5888 10.6779 23.0223 12.9294 23.1709 14.9787C23.3327 17.2095 24.3587 19.0277 25.9862 19.9673C27.6136 20.9069 29.7012 20.8863 31.714 19.911C33.563 19.015 35.2296 17.3989 36.4068 15.3598C37.5839 13.3208 38.1505 11.0693 38.0019 9.02016ZM30.4108 17.2219C29.7604 17.5371 28.5146 17.9767 27.4802 17.3794C26.4456 16.7821 26.2034 15.4835 26.1512 14.7626C26.0469 13.3247 26.4853 11.6373 27.3537 10.1331C28.2222 8.62884 29.4644 7.40566 30.7617 6.77695C31.4121 6.46178 32.6578 6.02219 33.6924 6.61949C34.727 7.2168 34.9691 8.5153 35.0213 9.23625C35.1256 10.6741 34.6872 12.3615 33.8188 13.8657C32.9503 15.3699 31.7082 16.5932 30.4108 17.2219ZM54.9446 35.4784C55.3671 33.7344 55.0531 32.1086 54.0605 30.9007C53.2617 29.9287 52.0728 29.3289 50.7128 29.2119C48.8386 29.0504 46.8094 29.7799 45.1457 31.2132C43.7861 32.3845 42.8268 33.8984 42.4446 35.4762C42.0221 37.2203 42.3361 38.8461 43.3288 40.054C43.6723 40.472 44.0879 40.8211 44.5582 41.0926C45.1816 41.4526 45.9014 41.6762 46.6766 41.7429C48.5508 41.9044 50.58 41.1749 52.2437 39.7417L52.2437 39.7416C53.6032 38.5703 54.5625 37.0564 54.9446 35.4784ZM50.2933 37.4776C49.2507 38.3756 47.9945 38.8571 46.9329 38.7657C46.5426 38.732 46.001 38.5991 45.6374 38.1567C44.76 37.089 45.4415 34.9021 47.0959 33.477C48.1384 32.579 49.3946 32.0975 50.4564 32.1889C50.7152 32.2112 51.0403 32.2771 51.3361 32.4479C51.4865 32.5347 51.6293 32.6487 51.7518 32.7977C52.6292 33.8656 51.9477 36.0524 50.2933 37.4776ZM19.8852 16.6288C20.2945 14.4713 19.9116 12.3493 18.8348 10.8069C18.0533 9.68761 16.9393 8.95795 15.6983 8.75212C14.1558 8.49647 12.5908 9.03744 11.2917 10.2753C10.1163 11.3952 9.28486 12.983 8.95033 14.746L8.95028 14.7461C8.54101 16.9037 8.92386 19.0256 10.0007 20.568C10.4462 21.206 10.9996 21.7175 11.623 22.0774C12.0934 22.349 12.6036 22.5343 13.1372 22.6228C14.6799 22.8785 16.2448 22.3375 17.5439 21.0997C18.719 19.9797 19.5505 18.3919 19.8852 16.6288ZM13.6258 19.6748C13.0609 19.5811 12.675 19.1785 12.4507 18.8574C11.8407 17.9837 11.6295 16.655 11.8861 15.3032L11.886 15.3033C12.2931 13.158 13.8461 11.4744 15.2096 11.7003C15.7743 11.7939 16.1603 12.1965 16.3847 12.5177C16.9948 13.3915 17.2059 14.7202 16.9494 16.0719C16.5423 18.2172 14.9892 19.9008 13.6258 19.6748Z" fill="#FF5B2E"/>
</g>
<g opacity="0.1" clip-path="url(#clip2_605_4174)">
<path d="M1069.67 64.9588C1068.77 59.6552 1066.15 55.5106 1062.3 53.2884C1058.45 51.0663 1053.56 50.8736 1048.51 52.7459C1043.98 54.4287 1040.04 57.5726 1037.97 61.1555C1036.97 62.896 1036.73 64.5289 1037.28 66.009C1037.81 67.4699 1039.01 68.5513 1040.54 69.4319C1042.16 70.3691 1044.16 71.0792 1046.11 71.7767C1047.83 72.3863 1049.44 72.9621 1050.57 73.6125C1051.54 74.1739 1052.76 75.22 1054.06 76.3272C1057.09 78.9151 1060.52 81.8482 1063.81 81.2839C1065.37 81.0157 1066.66 80.0096 1067.66 78.2938C1069.72 74.711 1070.48 69.7259 1069.67 64.9588ZM1063.3 78.3387C1061.4 78.6659 1058.41 76.1095 1056 74.0555C1054.6 72.8562 1053.27 71.7234 1052.06 71.0245C1050.7 70.2381 1048.96 69.6182 1047.12 68.9617C1044.26 67.9445 1040.71 66.6788 1040.08 64.9771C1040 64.7503 1039.74 64.0602 1040.56 62.6494C1042.26 59.6952 1045.71 56.9737 1049.55 55.5472C1053.75 53.9903 1057.74 54.1071 1060.81 55.8762C1063.87 57.6452 1065.97 61.0484 1066.72 65.4586C1067.41 69.4997 1066.77 73.8453 1065.07 76.7995C1064.28 78.1717 1063.54 78.2975 1063.3 78.3387ZM1081.22 45.6516C1081.06 43.4208 1080.03 41.6027 1078.4 40.6631C1076.78 39.7235 1074.69 39.7441 1072.68 40.7192C1070.83 41.6152 1069.16 43.2315 1067.98 45.2704C1066.81 47.3093 1066.24 49.5608 1066.39 51.6101C1066.55 53.8408 1067.58 55.6591 1069.2 56.5986C1070.83 57.5382 1072.92 57.5177 1074.93 56.5424C1076.78 55.6465 1078.45 54.0302 1079.62 51.9912C1080.8 49.9523 1081.37 47.7008 1081.22 45.6516ZM1073.63 53.8533C1072.98 54.1685 1071.73 54.6081 1070.7 54.0108C1069.66 53.4135 1069.42 52.115 1069.37 51.394C1069.26 49.9561 1069.7 48.2687 1070.57 46.7645C1071.44 45.2602 1072.68 44.037 1073.98 43.4083C1074.63 43.0932 1075.87 42.6536 1076.91 43.2509C1077.94 43.8482 1078.19 45.1467 1078.24 45.8677C1078.34 47.3056 1077.9 48.993 1077.04 50.4972C1076.17 52.0013 1074.93 53.2247 1073.63 53.8533ZM1068 38.0202C1067.84 35.7894 1066.81 33.9712 1065.19 33.0316C1063.56 32.092 1061.47 32.1125 1059.46 33.0878C1057.61 33.9838 1055.94 35.6001 1054.77 37.639C1053.59 39.6779 1053.02 41.9294 1053.17 43.9787C1053.33 46.2095 1054.36 48.0277 1055.99 48.9673C1057.61 49.9069 1059.7 49.8863 1061.71 48.911C1063.56 48.015 1065.23 46.3989 1066.41 44.3598C1067.58 42.3208 1068.15 40.0693 1068 38.0202ZM1060.41 46.2219C1059.76 46.5371 1058.51 46.9767 1057.48 46.3794C1056.44 45.7821 1056.2 44.4835 1056.15 43.7626C1056.05 42.3247 1056.48 40.6373 1057.35 39.1331C1058.22 37.6288 1059.46 36.4057 1060.76 35.7769C1061.41 35.4618 1062.66 35.0222 1063.69 35.6195C1064.73 36.2168 1064.97 37.5153 1065.02 38.2363C1065.12 39.6741 1064.69 41.3615 1063.82 42.8657C1062.95 44.3699 1061.71 45.5932 1060.41 46.2219ZM1084.94 64.4784C1085.37 62.7344 1085.05 61.1086 1084.06 59.9007C1083.26 58.9287 1082.07 58.3289 1080.71 58.2119C1078.84 58.0504 1076.81 58.7799 1075.14 60.2132C1073.79 61.3845 1072.83 62.8984 1072.44 64.4762C1072.02 66.2203 1072.34 67.8461 1073.33 69.054C1073.67 69.472 1074.09 69.8211 1074.56 70.0926C1075.18 70.4526 1075.9 70.6762 1076.68 70.7429C1078.55 70.9044 1080.58 70.1749 1082.24 68.7417L1082.24 68.7416C1083.6 67.5703 1084.56 66.0564 1084.94 64.4784ZM1080.29 66.4776C1079.25 67.3756 1077.99 67.8571 1076.93 67.7657C1076.54 67.732 1076 67.5991 1075.64 67.1567C1074.76 66.089 1075.44 63.9021 1077.09 62.477C1078.14 61.579 1079.39 61.0975 1080.46 61.1889C1080.71 61.2112 1081.04 61.2771 1081.34 61.4479C1081.49 61.5347 1081.63 61.6487 1081.75 61.7977C1082.63 62.8656 1081.95 65.0524 1080.29 66.4776ZM1049.88 45.6288C1050.29 43.4713 1049.91 41.3493 1048.83 39.8069C1048.05 38.6876 1046.94 37.9579 1045.7 37.7521C1044.15 37.4965 1042.59 38.0374 1041.29 39.2753C1040.12 40.3952 1039.28 41.983 1038.95 43.746L1038.95 43.7461C1038.54 45.9037 1038.92 48.0256 1040 49.568C1040.45 50.206 1041 50.7175 1041.62 51.0774C1042.09 51.349 1042.6 51.5343 1043.14 51.6228C1044.68 51.8785 1046.24 51.3375 1047.54 50.0997C1048.72 48.9797 1049.55 47.3919 1049.88 45.6288ZM1043.62 48.6748C1043.06 48.5811 1042.67 48.1785 1042.45 47.8574C1041.84 46.9837 1041.63 45.655 1041.89 44.3032L1041.89 44.3033C1042.29 42.158 1043.85 40.4744 1045.21 40.7003C1045.77 40.7939 1046.16 41.1965 1046.38 41.5177C1046.99 42.3915 1047.2 43.7202 1046.95 45.0719C1046.54 47.2172 1044.99 48.9008 1043.62 48.6748Z" fill="#FF5B2E"/>
</g>
<g opacity="0.1" clip-path="url(#clip3_605_4174)">
<path d="M858.668 50.9588C857.767 45.6552 855.152 41.5106 851.303 39.2884C847.454 37.0663 842.557 36.8736 837.514 38.7459C832.981 40.4287 829.04 43.5726 826.972 47.1555C825.967 48.896 825.733 50.5289 826.278 52.009C826.815 53.4699 828.014 54.5513 829.54 55.4319C831.163 56.3691 833.156 57.0792 835.115 57.7767C836.826 58.3863 838.443 58.9621 839.569 59.6125C840.542 60.1739 841.766 61.22 843.061 62.3272C846.089 64.9151 849.522 67.8482 852.808 67.2839C854.371 67.0157 855.665 66.0096 856.656 64.2938C858.725 60.711 859.477 55.7259 858.668 50.9588ZM852.303 64.3387C850.397 64.6659 847.406 62.1095 845.003 60.0555C843.599 58.8562 842.274 57.7234 841.063 57.0245C839.701 56.2381 837.96 55.6182 836.117 54.9617C833.262 53.9445 829.708 52.6788 829.082 50.9771C828.999 50.7503 828.745 50.0602 829.559 48.6494C831.265 45.6952 834.712 42.9737 838.554 41.5472C842.748 39.9903 846.745 40.1071 849.809 41.8762C852.873 43.6452 854.973 47.0484 855.721 51.4586C856.407 55.4997 855.774 59.8453 854.068 62.7995C853.276 64.1717 852.543 64.2975 852.303 64.3387ZM870.22 31.6516C870.058 29.4208 869.032 27.6027 867.404 26.6631C865.777 25.7235 863.689 25.7441 861.677 26.7192C859.828 27.6152 858.161 29.2315 856.984 31.2704C855.807 33.3093 855.24 35.5608 855.389 37.6101C855.551 39.8408 856.577 41.6591 858.204 42.5986C859.831 43.5382 861.919 43.5177 863.932 42.5424C865.781 41.6465 867.447 40.0302 868.625 37.9912C869.802 35.9523 870.368 33.7008 870.22 31.6516ZM862.629 39.8533C861.978 40.1685 860.733 40.6081 859.698 40.0108C858.664 39.4135 858.421 38.115 858.369 37.394C858.265 35.9561 858.703 34.2687 859.572 32.7645C860.44 31.2602 861.682 30.037 862.98 29.4083C863.63 29.0932 864.876 28.6536 865.91 29.2509C866.945 29.8482 867.187 31.1467 867.239 31.8677C867.344 33.3056 866.905 34.993 866.037 36.4972C865.168 38.0013 863.926 39.2247 862.629 39.8533ZM857.002 24.0202C856.84 21.7894 855.814 19.9712 854.187 19.0316C852.559 18.092 850.471 18.1125 848.459 19.0878C846.61 19.9838 844.943 21.6001 843.766 23.639C842.589 25.6779 842.022 27.9294 842.171 29.9787C842.333 32.2095 843.359 34.0277 844.986 34.9673C846.614 35.9069 848.701 35.8863 850.714 34.911C852.563 34.015 854.23 32.3989 855.407 30.3598C856.584 28.3208 857.15 26.0693 857.002 24.0202ZM849.411 32.2219C848.76 32.5371 847.515 32.9767 846.48 32.3794C845.446 31.7821 845.203 30.4835 845.151 29.7626C845.047 28.3247 845.485 26.6373 846.354 25.1331C847.222 23.6288 848.464 22.4057 849.762 21.7769C850.412 21.4618 851.658 21.0222 852.692 21.6195C853.727 22.2168 853.969 23.5153 854.021 24.2363C854.126 25.6741 853.687 27.3615 852.819 28.8657C851.95 30.3699 850.708 31.5932 849.411 32.2219ZM873.945 50.4784C874.367 48.7344 874.053 47.1086 873.061 45.9007C872.262 44.9287 871.073 44.3289 869.713 44.2119C867.839 44.0504 865.809 44.7799 864.146 46.2132C862.786 47.3845 861.827 48.8984 861.445 50.4762C861.022 52.2203 861.336 53.8461 862.329 55.054C862.672 55.472 863.088 55.8211 863.558 56.0926C864.182 56.4526 864.901 56.6762 865.677 56.7429C867.551 56.9044 869.58 56.1749 871.244 54.7417L871.244 54.7416C872.603 53.5703 873.562 52.0564 873.945 50.4784ZM869.293 52.4776C868.251 53.3756 866.995 53.8571 865.933 53.7657C865.543 53.732 865.001 53.5991 864.637 53.1567C863.76 52.089 864.442 49.9021 866.096 48.477C867.138 47.579 868.395 47.0975 869.456 47.1889C869.715 47.2112 870.04 47.2771 870.336 47.4479C870.487 47.5347 870.629 47.6487 870.752 47.7977C871.629 48.8656 870.948 51.0524 869.293 52.4776ZM838.885 31.6288C839.295 29.4713 838.912 27.3493 837.835 25.8069C837.053 24.6876 835.939 23.9579 834.698 23.7521C833.156 23.4965 831.591 24.0374 830.292 25.2753C829.116 26.3952 828.285 27.983 827.95 29.746L827.95 29.7461C827.541 31.9037 827.924 34.0256 829.001 35.568C829.446 36.206 830 36.7175 830.623 37.0774C831.093 37.349 831.604 37.5343 832.137 37.6228C833.68 37.8785 835.245 37.3375 836.544 36.0997C837.719 34.9797 838.55 33.3919 838.885 31.6288ZM832.626 34.6748C832.061 34.5811 831.675 34.1785 831.451 33.8574C830.841 32.9837 830.63 31.655 830.886 30.3032L830.886 30.3033C831.293 28.158 832.846 26.4744 834.21 26.7003C834.774 26.7939 835.16 27.1965 835.385 27.5177C835.995 28.3915 836.206 29.7202 835.949 31.0719C835.542 33.2172 833.989 34.9008 832.626 34.6748Z" fill="#FF5B2E"/>
</g>
<g opacity="0.1" clip-path="url(#clip4_605_4174)">
<path d="M1141.33 187.211C1135.99 186.547 1131.27 187.86 1128.03 190.907C1124.8 193.953 1123.2 198.588 1123.54 203.956C1123.85 208.782 1125.73 213.461 1128.56 216.473C1129.94 217.936 1131.44 218.629 1133.01 218.534C1134.57 218.439 1135.95 217.602 1137.23 216.394C1138.59 215.109 1139.85 213.405 1141.08 211.73C1142.16 210.266 1143.17 208.884 1144.12 207.992C1144.94 207.222 1146.29 206.351 1147.72 205.428C1151.07 203.273 1154.87 200.83 1155.28 197.52C1155.47 195.946 1154.88 194.417 1153.52 192.974C1150.68 189.962 1146.12 187.808 1141.33 187.211ZM1152.31 197.157C1152.07 199.075 1148.77 201.205 1146.11 202.916C1144.55 203.915 1143.09 204.858 1142.07 205.816C1140.93 206.895 1139.83 208.383 1138.67 209.96C1136.88 212.402 1134.64 215.441 1132.83 215.551C1132.59 215.566 1131.86 215.61 1130.74 214.424C1128.4 211.941 1126.79 207.857 1126.53 203.766C1126.24 199.302 1127.5 195.508 1130.08 193.082C1132.65 190.657 1136.52 189.625 1140.96 190.177C1145.02 190.683 1149 192.54 1151.34 195.023C1152.43 196.176 1152.34 196.914 1152.31 197.157ZM1126.16 170.593C1123.98 170.106 1121.94 170.565 1120.57 171.854C1119.2 173.142 1118.62 175.147 1118.98 177.355C1119.3 179.384 1120.37 181.445 1121.99 183.159C1123.6 184.873 1125.59 186.064 1127.6 186.511C1129.78 186.998 1131.82 186.538 1133.19 185.25C1134.55 183.962 1135.14 181.956 1134.78 179.748C1134.45 177.719 1133.39 175.658 1131.77 173.944C1130.16 172.23 1128.16 171.04 1126.16 170.593ZM1131.83 180.222C1131.94 180.936 1132.01 182.255 1131.14 183.074C1130.27 183.893 1128.95 183.752 1128.25 183.594C1126.84 183.28 1125.35 182.375 1124.16 181.111C1122.97 179.846 1122.16 178.304 1121.93 176.881C1121.81 176.168 1121.75 174.848 1122.62 174.029C1123.49 173.21 1124.8 173.352 1125.51 173.509C1126.92 173.823 1128.41 174.728 1129.6 175.993C1130.79 177.257 1131.6 178.799 1131.83 180.222ZM1115.05 181.056C1112.86 180.569 1110.83 181.029 1109.46 182.317C1108.09 183.605 1107.51 185.61 1107.87 187.819C1108.19 189.847 1109.26 191.908 1110.87 193.622C1112.49 195.336 1114.48 196.527 1116.49 196.974C1118.67 197.461 1120.71 197.001 1122.07 195.713C1123.44 194.425 1124.02 192.42 1123.67 190.211C1123.34 188.183 1122.27 186.122 1120.66 184.407C1119.05 182.694 1117.05 181.503 1115.05 181.056ZM1120.72 190.686C1120.83 191.399 1120.9 192.719 1120.03 193.538C1119.16 194.357 1117.84 194.215 1117.14 194.058C1115.73 193.744 1114.24 192.839 1113.05 191.574C1111.86 190.309 1111.05 188.768 1110.82 187.345C1110.7 186.631 1110.64 185.311 1111.51 184.492C1112.38 183.673 1113.69 183.815 1114.4 183.973C1115.8 184.286 1117.29 185.192 1118.48 186.456C1119.68 187.721 1120.49 189.262 1120.72 190.686ZM1145.26 172.442C1143.71 171.536 1142.07 171.368 1140.62 171.972C1139.46 172.457 1138.55 173.423 1138.04 174.692C1137.35 176.44 1137.46 178.594 1138.36 180.599C1139.09 182.238 1140.26 183.593 1141.66 184.413C1143.21 185.319 1144.86 185.486 1146.3 184.883C1146.8 184.674 1147.25 184.377 1147.65 184.005C1148.17 183.511 1148.6 182.886 1148.88 182.163C1149.58 180.414 1149.46 178.261 1148.57 176.255L1148.57 176.255C1147.84 174.616 1146.66 173.262 1145.26 172.442ZM1145.84 177.472C1146.4 178.729 1146.5 180.07 1146.1 181.061C1145.96 181.425 1145.68 181.905 1145.15 182.126C1143.87 182.659 1141.98 181.377 1141.09 179.383C1140.53 178.126 1140.43 176.785 1140.82 175.794C1140.92 175.553 1141.07 175.26 1141.32 175.026C1141.45 174.907 1141.6 174.803 1141.78 174.728C1143.05 174.195 1144.95 175.477 1145.84 177.472ZM1117.12 200.596C1115.17 199.583 1113.03 199.339 1111.24 199.927C1109.95 200.353 1108.93 201.21 1108.37 202.339C1107.69 203.743 1107.75 205.397 1108.56 206.998C1109.3 208.446 1110.58 209.699 1112.17 210.526L1112.17 210.526C1114.12 211.539 1116.26 211.783 1118.05 211.196C1118.79 210.952 1119.44 210.57 1119.96 210.076C1120.36 209.704 1120.68 209.268 1120.92 208.783C1121.61 207.379 1121.54 205.725 1120.73 204.124C1120 202.677 1118.71 201.423 1117.12 200.596ZM1118.24 207.467C1117.99 207.981 1117.49 208.235 1117.12 208.357C1116.11 208.69 1114.77 208.51 1113.55 207.875L1113.55 207.875C1111.61 206.868 1110.45 204.896 1111.06 203.656C1111.31 203.142 1111.81 202.888 1112.18 202.765C1113.19 202.432 1114.52 202.613 1115.74 203.247C1117.68 204.254 1118.85 206.226 1118.24 207.467Z" fill="#FF5B2E"/>
</g>
<g opacity="0.1" clip-path="url(#clip5_605_4174)">
<path d="M958.327 147.211C952.989 146.547 948.267 147.86 945.032 150.907C941.796 153.953 940.203 158.588 940.545 163.956C940.852 168.782 942.729 173.461 945.566 176.473C946.943 177.936 948.44 178.629 950.014 178.534C951.568 178.439 952.949 177.602 954.231 176.394C955.595 175.109 956.849 173.405 958.081 171.73C959.157 170.266 960.173 168.884 961.12 167.992C961.938 167.222 963.292 166.351 964.725 165.428C968.075 163.273 971.871 160.83 972.276 157.52C972.469 155.946 971.878 154.417 970.52 152.974C967.684 149.962 963.126 147.808 958.327 147.211ZM969.31 157.157C969.076 159.075 965.767 161.205 963.108 162.916C961.555 163.915 960.089 164.858 959.072 165.816C957.927 166.895 956.832 168.383 955.673 169.96C953.877 172.402 951.643 175.441 949.833 175.551C949.592 175.566 948.858 175.61 947.741 174.424C945.402 171.941 943.788 167.857 943.527 163.766C943.242 159.302 944.504 155.508 947.08 153.082C949.656 150.657 953.519 149.625 957.958 150.177C962.026 150.683 966.006 152.54 968.344 155.023C969.43 156.176 969.34 156.914 969.31 157.157ZM943.16 130.593C940.977 130.106 938.941 130.565 937.573 131.854C936.205 133.142 935.624 135.147 935.979 137.355C936.305 139.384 937.373 141.445 938.987 143.159C940.601 144.873 942.594 146.064 944.6 146.511C946.783 146.998 948.819 146.538 950.187 145.25C951.555 143.962 952.136 141.956 951.782 139.748C951.455 137.719 950.387 135.658 948.773 133.944C947.159 132.23 945.166 131.04 943.16 130.593ZM948.831 140.222C948.946 140.936 949.009 142.255 948.139 143.074C947.269 143.893 945.956 143.752 945.25 143.594C943.843 143.28 942.353 142.375 941.163 141.111C939.972 139.846 939.158 138.304 938.929 136.881C938.814 136.168 938.752 134.848 939.621 134.029C940.491 133.21 941.804 133.352 942.51 133.509C943.917 133.823 945.407 134.728 946.597 135.993C947.788 137.257 948.602 138.799 948.831 140.222ZM932.049 141.056C929.866 140.569 927.829 141.029 926.461 142.317C925.093 143.605 924.512 145.61 924.867 147.819C925.193 149.847 926.261 151.908 927.875 153.622C929.489 155.336 931.483 156.527 933.488 156.974C935.671 157.461 937.708 157.001 939.076 155.713C940.444 154.425 941.025 152.42 940.67 150.211C940.344 148.183 939.275 146.122 937.661 144.407C936.047 142.694 934.054 141.503 932.049 141.056ZM937.719 150.686C937.834 151.399 937.897 152.719 937.027 153.538C936.157 154.357 934.844 154.215 934.139 154.058C932.732 153.744 931.242 152.839 930.051 151.574C928.86 150.309 928.046 148.768 927.817 147.345C927.702 146.631 927.64 145.311 928.51 144.492C929.379 143.673 930.692 143.815 931.398 143.973C932.805 144.286 934.295 145.192 935.486 146.456C936.676 147.721 937.491 149.262 937.719 150.686ZM962.263 132.442C960.714 131.536 959.067 131.368 957.624 131.972C956.464 132.457 955.547 133.423 955.044 134.692C954.35 136.44 954.465 138.594 955.359 140.599C956.089 142.238 957.263 143.593 958.664 144.413C960.213 145.319 961.86 145.486 963.303 144.883C963.802 144.674 964.256 144.377 964.651 144.005C965.175 143.511 965.597 142.886 965.884 142.163C966.577 140.414 966.463 138.261 965.569 136.255L965.569 136.255C964.838 134.616 963.664 133.262 962.263 132.442ZM962.839 137.472C963.399 138.729 963.499 140.07 963.106 141.061C962.961 141.425 962.678 141.905 962.15 142.126C960.875 142.659 958.977 141.377 958.088 139.383C957.528 138.126 957.428 136.785 957.821 135.794C957.917 135.553 958.074 135.26 958.322 135.026C958.449 134.907 958.599 134.803 958.777 134.728C960.052 134.195 961.95 135.477 962.839 137.472ZM934.123 160.596C932.175 159.583 930.032 159.339 928.245 159.927C926.948 160.353 925.929 161.21 925.375 162.339C924.686 163.743 924.754 165.397 925.566 166.998C926.3 168.446 927.582 169.699 929.174 170.526L929.174 170.526C931.122 171.539 933.265 171.783 935.052 171.196C935.791 170.952 936.44 170.57 936.964 170.076C937.36 169.704 937.684 169.268 937.922 168.783C938.611 167.379 938.543 165.725 937.731 164.124C936.997 162.677 935.715 161.423 934.123 160.596ZM935.239 167.467C934.987 167.981 934.491 168.235 934.118 168.357C933.106 168.69 931.773 168.51 930.552 167.875L930.552 167.875C928.615 166.868 927.449 164.896 928.058 163.656C928.31 163.142 928.807 162.888 929.179 162.765C930.191 162.432 931.524 162.613 932.745 163.247C934.683 164.254 935.848 166.226 935.239 167.467Z" fill="#FF5B2E"/>
</g>
<g opacity="0.1" clip-path="url(#clip6_605_4174)">
<path d="M1018.33 261.232C1022.55 257.901 1024.94 253.62 1025.04 249.177C1025.15 244.734 1022.97 240.343 1018.91 236.813C1015.27 233.64 1010.62 231.687 1006.48 231.587C1004.47 231.539 1002.93 232.116 1001.89 233.303C1000.87 234.474 1000.49 236.045 1000.45 237.806C1000.4 239.68 1000.73 241.769 1001.06 243.823C1001.34 245.617 1001.61 247.312 1001.58 248.612C1001.56 249.735 1001.22 251.31 1000.87 252.978C1000.05 256.876 999.12 261.294 1001.19 263.908C1002.17 265.152 1003.68 265.806 1005.66 265.854C1009.79 265.953 1014.53 264.226 1018.33 261.232ZM1003.53 262.054C1002.33 260.538 1003.14 256.688 1003.8 253.594C1004.18 251.788 1004.54 250.081 1004.57 248.684C1004.61 247.112 1004.32 245.287 1004.01 243.354C1003.54 240.361 1002.95 236.635 1004.14 235.27C1004.3 235.088 1004.78 234.535 1006.41 234.574C1009.82 234.656 1013.86 236.378 1016.95 239.068C1020.33 242.003 1022.14 245.568 1022.06 249.105C1021.97 252.642 1019.99 256.116 1016.48 258.885C1013.26 261.423 1009.14 262.948 1005.73 262.866C1004.15 262.828 1003.68 262.245 1003.53 262.054ZM1040.81 262.124C1042.69 260.914 1043.79 259.142 1043.84 257.264C1043.88 255.385 1042.87 253.562 1041.05 252.263C1039.37 251.069 1037.16 250.38 1034.8 250.323C1032.45 250.266 1030.2 250.848 1028.47 251.96C1026.59 253.17 1025.49 254.942 1025.44 256.821C1025.4 258.699 1026.42 260.522 1028.24 261.822C1029.91 263.015 1032.13 263.704 1034.48 263.761C1036.83 263.818 1039.08 263.236 1040.81 262.124ZM1029.97 259.39C1029.38 258.97 1028.4 258.087 1028.43 256.892C1028.46 255.698 1029.48 254.864 1030.09 254.472C1031.3 253.692 1032.99 253.269 1034.73 253.31C1036.47 253.352 1038.14 253.857 1039.31 254.694C1039.9 255.114 1040.88 255.997 1040.85 257.192C1040.82 258.386 1039.8 259.221 1039.19 259.612C1037.98 260.392 1036.29 260.815 1034.55 260.774C1032.81 260.732 1031.15 260.227 1029.97 259.39ZM1041.18 246.866C1043.06 245.656 1044.16 243.884 1044.21 242.005C1044.25 240.127 1043.23 238.304 1041.41 237.004C1039.74 235.81 1037.52 235.122 1035.17 235.065C1032.82 235.008 1030.57 235.589 1028.84 236.702C1026.96 237.912 1025.86 239.684 1025.81 241.562C1025.77 243.441 1026.78 245.264 1028.6 246.563C1030.28 247.757 1032.49 248.446 1034.85 248.503C1037.2 248.559 1039.45 247.978 1041.18 246.866ZM1030.34 244.131C1029.75 243.711 1028.77 242.828 1028.8 241.634C1028.83 240.44 1029.85 239.605 1030.46 239.214C1031.67 238.434 1033.36 238.01 1035.1 238.052C1036.83 238.094 1038.5 238.598 1039.68 239.436C1040.27 239.856 1041.25 240.739 1041.22 241.933C1041.19 243.128 1040.17 243.962 1039.56 244.353C1038.35 245.134 1036.66 245.557 1034.92 245.515C1033.18 245.473 1031.51 244.969 1030.34 244.131ZM1026.07 274.412C1027.8 273.948 1029.08 272.893 1029.66 271.443C1030.13 270.277 1030.09 268.946 1029.54 267.696C1028.78 265.973 1027.17 264.541 1025.12 263.768C1023.44 263.135 1021.65 263.018 1020.08 263.439C1018.35 263.903 1017.07 264.957 1016.49 266.407C1016.28 266.909 1016.18 267.441 1016.16 267.984C1016.15 268.704 1016.29 269.443 1016.61 270.155C1017.36 271.878 1018.98 273.31 1021.03 274.083L1021.03 274.083C1022.71 274.716 1024.5 274.833 1026.07 274.412ZM1022.08 271.287C1020.8 270.802 1019.77 269.93 1019.34 268.954C1019.19 268.595 1019.04 268.056 1019.26 267.525C1019.77 266.244 1022.02 265.794 1024.06 266.564C1025.35 267.049 1026.38 267.921 1026.8 268.897C1026.91 269.135 1027.01 269.452 1027 269.793C1026.99 269.967 1026.96 270.147 1026.89 270.326C1026.37 271.607 1024.13 272.056 1022.08 271.287ZM1025.82 234.608C1027.91 233.934 1029.59 232.581 1030.43 230.897C1031.03 229.675 1031.14 228.347 1030.73 227.159C1030.21 225.683 1028.99 224.568 1027.28 224.021C1025.73 223.526 1023.94 223.556 1022.23 224.107L1022.23 224.107C1020.14 224.781 1018.46 226.134 1017.63 227.818C1017.28 228.514 1017.1 229.245 1017.08 229.965C1017.07 230.508 1017.15 231.044 1017.33 231.555C1017.84 233.032 1019.06 234.147 1020.77 234.694C1022.32 235.189 1024.11 235.158 1025.82 234.608ZM1020.15 230.572C1019.96 230.031 1020.13 229.5 1020.3 229.149C1020.78 228.195 1021.84 227.373 1023.15 226.951L1023.15 226.951C1025.23 226.281 1027.45 226.837 1027.91 228.143C1028.09 228.683 1027.93 229.215 1027.75 229.566C1027.28 230.52 1026.21 231.341 1024.9 231.764C1022.82 232.434 1020.6 231.877 1020.15 230.572Z" fill="#FF5B2E"/>
</g>
<g opacity="0.1" clip-path="url(#clip7_605_4174)">
<path d="M853.328 284.232C857.552 280.901 859.938 276.62 860.045 272.177C860.152 267.734 857.975 263.343 853.916 259.813C850.267 256.64 845.62 254.687 841.484 254.587C839.475 254.539 837.93 255.116 836.891 256.303C835.866 257.474 835.491 259.045 835.449 260.806C835.404 262.68 835.735 264.769 836.061 266.823C836.346 268.617 836.614 270.312 836.583 271.612C836.556 272.735 836.224 274.31 835.873 275.978C835.052 279.876 834.121 284.294 836.191 286.908C837.175 288.152 838.678 288.806 840.658 288.854C844.794 288.953 849.531 287.226 853.328 284.232ZM838.534 285.054C837.334 283.538 838.145 279.688 838.797 276.594C839.177 274.788 839.537 273.081 839.571 271.684C839.608 270.112 839.319 268.287 839.012 266.354C838.537 263.361 837.946 259.635 839.14 258.27C839.299 258.088 839.783 257.535 841.412 257.574C844.822 257.656 848.862 259.378 851.955 262.068C855.33 265.003 857.142 268.568 857.057 272.105C856.972 275.642 854.99 279.116 851.478 281.885C848.259 284.423 844.141 285.948 840.731 285.866C839.147 285.828 838.685 285.245 838.534 285.054ZM875.809 285.124C877.69 283.914 878.794 282.142 878.84 280.264C878.885 278.385 877.867 276.562 876.047 275.263C874.375 274.069 872.158 273.38 869.804 273.323C867.45 273.266 865.203 273.848 863.475 274.96C861.594 276.17 860.49 277.942 860.444 279.821C860.399 281.699 861.417 283.522 863.237 284.822C864.909 286.015 867.127 286.704 869.48 286.761C871.834 286.818 874.082 286.236 875.809 285.124ZM864.974 282.39C864.385 281.97 863.403 281.087 863.432 279.892C863.46 278.698 864.484 277.864 865.092 277.472C866.304 276.692 867.996 276.269 869.732 276.31C871.468 276.352 873.137 276.857 874.31 277.694C874.899 278.114 875.881 278.997 875.852 280.192C875.824 281.386 874.8 282.221 874.192 282.612C872.98 283.392 871.289 283.815 869.552 283.774C867.816 283.732 866.147 283.227 864.974 282.39ZM876.177 269.866C878.058 268.656 879.162 266.884 879.207 265.005C879.253 263.127 878.235 261.304 876.414 260.004C874.742 258.81 872.525 258.122 870.172 258.065C867.818 258.008 865.57 258.589 863.842 259.702C861.962 260.912 860.857 262.684 860.812 264.562C860.767 266.441 861.785 268.264 863.605 269.563C865.277 270.757 867.494 271.446 869.848 271.503C872.202 271.559 874.449 270.978 876.177 269.866ZM865.341 267.131C864.753 266.711 863.77 265.828 863.799 264.634C863.828 263.44 864.852 262.605 865.46 262.214C866.672 261.434 868.363 261.01 870.099 261.052C871.836 261.094 873.505 261.598 874.678 262.436C875.266 262.856 876.249 263.739 876.22 264.933C876.191 266.128 875.167 266.962 874.56 267.353C873.347 268.134 871.656 268.557 869.92 268.515C868.183 268.473 866.514 267.969 865.341 267.131ZM861.067 297.412C862.8 296.948 864.077 295.893 864.662 294.443C865.133 293.277 865.09 291.946 864.541 290.696C863.785 288.973 862.173 287.541 860.117 286.768C858.438 286.135 856.65 286.018 855.081 286.439C853.348 286.903 852.071 287.957 851.487 289.407C851.284 289.909 851.177 290.441 851.164 290.984C851.146 291.704 851.295 292.443 851.608 293.155C852.364 294.878 853.976 296.31 856.031 297.083L856.031 297.083C857.71 297.716 859.499 297.833 861.067 297.412ZM857.084 294.287C855.796 293.802 854.772 292.93 854.344 291.954C854.186 291.595 854.044 291.056 854.258 290.525C854.775 289.244 857.021 288.794 859.064 289.564C860.352 290.049 861.376 290.921 861.805 291.897C861.909 292.135 862.007 292.452 861.999 292.793C861.995 292.967 861.963 293.147 861.891 293.326C861.374 294.607 859.128 295.056 857.084 294.287ZM860.82 257.608C862.91 256.934 864.589 255.581 865.427 253.897C866.036 252.675 866.143 251.347 865.729 250.159C865.214 248.683 863.99 247.568 862.281 247.021C860.735 246.526 858.943 246.556 857.235 247.107L857.235 247.107C855.145 247.781 853.466 249.134 852.627 250.818C852.281 251.514 852.097 252.245 852.08 252.965C852.067 253.508 852.148 254.044 852.326 254.555C852.841 256.032 854.065 257.147 855.774 257.694C857.32 258.189 859.112 258.158 860.82 257.608ZM855.148 253.572C854.96 253.031 855.128 252.5 855.303 252.149C855.777 251.195 856.843 250.373 858.152 249.951L858.152 249.951C860.23 249.281 862.452 249.837 862.907 251.143C863.095 251.683 862.927 252.215 862.752 252.566C862.277 253.52 861.212 254.341 859.903 254.764C857.824 255.434 855.603 254.877 855.148 253.572Z" fill="#FF5B2E"/>
</g>
<g opacity="0.07" clip-path="url(#clip8_605_4174)">
<path d="M708.668 64.9588C707.767 59.6552 705.152 55.5106 701.303 53.2884C697.454 51.0663 692.557 50.8736 687.514 52.7459C682.981 54.4287 679.04 57.5726 676.972 61.1555C675.967 62.896 675.733 64.5289 676.278 66.009C676.815 67.4699 678.014 68.5513 679.54 69.4319C681.163 70.3691 683.156 71.0792 685.115 71.7767C686.826 72.3863 688.443 72.9621 689.569 73.6125C690.542 74.1739 691.766 75.22 693.061 76.3272C696.089 78.9151 699.522 81.8482 702.808 81.2839C704.371 81.0157 705.665 80.0096 706.656 78.2938C708.725 74.711 709.477 69.7259 708.668 64.9588ZM702.303 78.3387C700.397 78.6659 697.406 76.1095 695.003 74.0555C693.599 72.8562 692.274 71.7234 691.063 71.0245C689.701 70.2381 687.96 69.6182 686.117 68.9617C683.262 67.9445 679.708 66.6788 679.082 64.9771C678.999 64.7503 678.745 64.0602 679.559 62.6494C681.265 59.6952 684.712 56.9737 688.554 55.5472C692.748 53.9903 696.745 54.1071 699.809 55.8762C702.873 57.6452 704.973 61.0484 705.721 65.4586C706.407 69.4997 705.774 73.8453 704.068 76.7995C703.276 78.1717 702.543 78.2975 702.303 78.3387ZM720.22 45.6516C720.058 43.4208 719.032 41.6027 717.404 40.6631C715.777 39.7235 713.689 39.7441 711.677 40.7192C709.828 41.6152 708.161 43.2315 706.984 45.2704C705.807 47.3093 705.24 49.5608 705.389 51.6101C705.551 53.8408 706.577 55.6591 708.204 56.5986C709.831 57.5382 711.919 57.5177 713.932 56.5424C715.781 55.6465 717.447 54.0302 718.625 51.9912C719.802 49.9523 720.368 47.7008 720.22 45.6516ZM712.629 53.8533C711.978 54.1685 710.733 54.6081 709.698 54.0108C708.664 53.4135 708.421 52.115 708.369 51.394C708.265 49.9561 708.703 48.2687 709.572 46.7645C710.44 45.2602 711.682 44.037 712.98 43.4083C713.63 43.0932 714.876 42.6536 715.91 43.2509C716.945 43.8482 717.187 45.1467 717.239 45.8677C717.344 47.3056 716.905 48.993 716.037 50.4972C715.168 52.0013 713.926 53.2247 712.629 53.8533ZM707.002 38.0202C706.84 35.7894 705.814 33.9712 704.187 33.0316C702.559 32.092 700.471 32.1125 698.459 33.0878C696.61 33.9838 694.943 35.6001 693.766 37.639C692.589 39.6779 692.022 41.9294 692.171 43.9787C692.333 46.2095 693.359 48.0277 694.986 48.9673C696.614 49.9069 698.701 49.8863 700.714 48.911C702.563 48.015 704.23 46.3989 705.407 44.3598C706.584 42.3208 707.15 40.0693 707.002 38.0202ZM699.411 46.2219C698.76 46.5371 697.515 46.9767 696.48 46.3794C695.446 45.7821 695.203 44.4835 695.151 43.7626C695.047 42.3247 695.485 40.6373 696.354 39.1331C697.222 37.6288 698.464 36.4057 699.762 35.7769C700.412 35.4618 701.658 35.0222 702.692 35.6195C703.727 36.2168 703.969 37.5153 704.021 38.2363C704.126 39.6741 703.687 41.3615 702.819 42.8657C701.95 44.3699 700.708 45.5932 699.411 46.2219ZM723.945 64.4784C724.367 62.7344 724.053 61.1086 723.061 59.9007C722.262 58.9287 721.073 58.3289 719.713 58.2119C717.839 58.0504 715.809 58.7799 714.146 60.2132C712.786 61.3845 711.827 62.8984 711.445 64.4762C711.022 66.2203 711.336 67.8461 712.329 69.054C712.672 69.472 713.088 69.8211 713.558 70.0926C714.182 70.4526 714.901 70.6762 715.677 70.7429C717.551 70.9044 719.58 70.1749 721.244 68.7417L721.244 68.7416C722.603 67.5703 723.562 66.0564 723.945 64.4784ZM719.293 66.4776C718.251 67.3756 716.995 67.8571 715.933 67.7657C715.543 67.732 715.001 67.5991 714.637 67.1567C713.76 66.089 714.442 63.9021 716.096 62.477C717.138 61.579 718.395 61.0975 719.456 61.1889C719.715 61.2112 720.04 61.2771 720.336 61.4479C720.487 61.5347 720.629 61.6487 720.752 61.7977C721.629 62.8656 720.948 65.0524 719.293 66.4776ZM688.885 45.6288C689.295 43.4713 688.912 41.3493 687.835 39.8069C687.053 38.6876 685.939 37.9579 684.698 37.7521C683.156 37.4965 681.591 38.0374 680.292 39.2753C679.116 40.3952 678.285 41.983 677.95 43.746L677.95 43.7461C677.541 45.9037 677.924 48.0256 679.001 49.568C679.446 50.206 680 50.7175 680.623 51.0774C681.093 51.349 681.604 51.5343 682.137 51.6228C683.68 51.8785 685.245 51.3375 686.544 50.0997C687.719 48.9797 688.55 47.3919 688.885 45.6288ZM682.626 48.6748C682.061 48.5811 681.675 48.1785 681.451 47.8574C680.841 46.9837 680.63 45.655 680.886 44.3032L680.886 44.3033C681.293 42.158 682.846 40.4744 684.21 40.7003C684.774 40.7939 685.16 41.1965 685.385 41.5177C685.995 42.3915 686.206 43.7202 685.949 45.0719C685.542 47.2172 683.989 48.9008 682.626 48.6748Z" fill="#FF5B2E"/>
</g>
<g opacity="0.06" clip-path="url(#clip9_605_4174)">
<path d="M497.668 50.9588C496.767 45.6552 494.152 41.5106 490.303 39.2884C486.454 37.0663 481.557 36.8736 476.514 38.7459C471.981 40.4287 468.04 43.5726 465.972 47.1555C464.967 48.896 464.733 50.5289 465.278 52.009C465.815 53.4699 467.014 54.5513 468.54 55.4319C470.163 56.3691 472.156 57.0792 474.115 57.7767C475.826 58.3863 477.443 58.9621 478.569 59.6125C479.542 60.1739 480.766 61.22 482.061 62.3272C485.089 64.9151 488.522 67.8482 491.808 67.2839C493.371 67.0157 494.665 66.0096 495.656 64.2938C497.725 60.711 498.477 55.7259 497.668 50.9588ZM491.303 64.3387C489.397 64.6659 486.406 62.1095 484.003 60.0555C482.599 58.8562 481.274 57.7234 480.063 57.0245C478.701 56.2381 476.96 55.6182 475.117 54.9617C472.262 53.9445 468.708 52.6788 468.082 50.9771C467.999 50.7503 467.745 50.0602 468.559 48.6494C470.265 45.6952 473.712 42.9737 477.554 41.5472C481.748 39.9903 485.745 40.1071 488.809 41.8762C491.873 43.6452 493.973 47.0484 494.721 51.4586C495.407 55.4997 494.774 59.8453 493.068 62.7995C492.276 64.1717 491.543 64.2975 491.303 64.3387ZM509.22 31.6516C509.058 29.4208 508.032 27.6027 506.404 26.6631C504.777 25.7235 502.689 25.7441 500.677 26.7192C498.828 27.6152 497.161 29.2315 495.984 31.2704C494.807 33.3093 494.24 35.5608 494.389 37.6101C494.551 39.8408 495.577 41.6591 497.204 42.5986C498.831 43.5382 500.919 43.5177 502.932 42.5424C504.781 41.6465 506.447 40.0302 507.625 37.9912C508.802 35.9523 509.368 33.7008 509.22 31.6516ZM501.629 39.8533C500.978 40.1685 499.733 40.6081 498.698 40.0108C497.664 39.4135 497.421 38.115 497.369 37.394C497.265 35.9561 497.703 34.2687 498.572 32.7645C499.44 31.2602 500.682 30.037 501.98 29.4083C502.63 29.0932 503.876 28.6536 504.91 29.2509C505.945 29.8482 506.187 31.1467 506.239 31.8677C506.344 33.3056 505.905 34.993 505.037 36.4972C504.168 38.0013 502.926 39.2247 501.629 39.8533ZM496.002 24.0202C495.84 21.7894 494.814 19.9712 493.187 19.0316C491.559 18.092 489.471 18.1125 487.459 19.0878C485.61 19.9838 483.943 21.6001 482.766 23.639C481.589 25.6779 481.022 27.9294 481.171 29.9787C481.333 32.2095 482.359 34.0277 483.986 34.9673C485.614 35.9069 487.701 35.8863 489.714 34.911C491.563 34.015 493.23 32.3989 494.407 30.3598C495.584 28.3208 496.15 26.0693 496.002 24.0202ZM488.411 32.2219C487.76 32.5371 486.515 32.9767 485.48 32.3794C484.446 31.7821 484.203 30.4835 484.151 29.7626C484.047 28.3247 484.485 26.6373 485.354 25.1331C486.222 23.6288 487.464 22.4057 488.762 21.7769C489.412 21.4618 490.658 21.0222 491.692 21.6195C492.727 22.2168 492.969 23.5153 493.021 24.2363C493.126 25.6741 492.687 27.3615 491.819 28.8657C490.95 30.3699 489.708 31.5932 488.411 32.2219ZM512.945 50.4784C513.367 48.7344 513.053 47.1086 512.061 45.9007C511.262 44.9287 510.073 44.3289 508.713 44.2119C506.839 44.0504 504.809 44.7799 503.146 46.2132C501.786 47.3845 500.827 48.8984 500.445 50.4762C500.022 52.2203 500.336 53.8461 501.329 55.054C501.672 55.472 502.088 55.8211 502.558 56.0926C503.182 56.4526 503.901 56.6762 504.677 56.7429C506.551 56.9044 508.58 56.1749 510.244 54.7417L510.244 54.7416C511.603 53.5703 512.562 52.0564 512.945 50.4784ZM508.293 52.4776C507.251 53.3756 505.995 53.8571 504.933 53.7657C504.543 53.732 504.001 53.5991 503.637 53.1567C502.76 52.089 503.442 49.9021 505.096 48.477C506.138 47.579 507.395 47.0975 508.456 47.1889C508.715 47.2112 509.04 47.2771 509.336 47.4479C509.487 47.5347 509.629 47.6487 509.752 47.7977C510.629 48.8656 509.948 51.0524 508.293 52.4776ZM477.885 31.6288C478.295 29.4713 477.912 27.3493 476.835 25.8069C476.053 24.6876 474.939 23.9579 473.698 23.7521C472.156 23.4965 470.591 24.0374 469.292 25.2753C468.116 26.3952 467.285 27.983 466.95 29.746L466.95 29.7461C466.541 31.9037 466.924 34.0256 468.001 35.568C468.446 36.206 469 36.7175 469.623 37.0774C470.093 37.349 470.604 37.5343 471.137 37.6228C472.68 37.8785 474.245 37.3375 475.544 36.0997C476.719 34.9797 477.55 33.3919 477.885 31.6288ZM471.626 34.6748C471.061 34.5811 470.675 34.1785 470.451 33.8574C469.841 32.9837 469.63 31.655 469.886 30.3032L469.886 30.3033C470.293 28.158 471.846 26.4744 473.21 26.7003C473.774 26.7939 474.16 27.1965 474.385 27.5177C474.995 28.3915 475.206 29.7202 474.949 31.0719C474.542 33.2172 472.989 34.9008 471.626 34.6748Z" fill="#FF5B2E"/>
</g>
<g opacity="0.1" clip-path="url(#clip10_605_4174)">
<path d="M780.327 187.211C774.989 186.547 770.267 187.86 767.032 190.907C763.796 193.953 762.203 198.588 762.545 203.956C762.852 208.782 764.729 213.461 767.566 216.473C768.943 217.936 770.44 218.629 772.014 218.534C773.568 218.439 774.949 217.602 776.231 216.394C777.595 215.109 778.849 213.405 780.081 211.73C781.157 210.266 782.173 208.884 783.12 207.992C783.938 207.222 785.292 206.351 786.725 205.428C790.075 203.273 793.871 200.83 794.276 197.52C794.469 195.946 793.878 194.417 792.52 192.974C789.684 189.962 785.126 187.808 780.327 187.211ZM791.31 197.157C791.076 199.075 787.767 201.205 785.108 202.916C783.555 203.915 782.089 204.858 781.072 205.816C779.927 206.895 778.832 208.383 777.673 209.96C775.877 212.402 773.643 215.441 771.833 215.551C771.592 215.566 770.858 215.61 769.741 214.424C767.402 211.941 765.788 207.857 765.527 203.766C765.242 199.302 766.504 195.508 769.08 193.082C771.656 190.657 775.519 189.625 779.958 190.177C784.026 190.683 788.006 192.54 790.344 195.023C791.43 196.176 791.34 196.914 791.31 197.157ZM765.16 170.593C762.977 170.106 760.941 170.565 759.573 171.854C758.205 173.142 757.624 175.147 757.979 177.355C758.305 179.384 759.373 181.445 760.987 183.159C762.601 184.873 764.594 186.064 766.6 186.511C768.783 186.998 770.819 186.538 772.187 185.25C773.555 183.962 774.136 181.956 773.782 179.748C773.455 177.719 772.387 175.658 770.773 173.944C769.159 172.23 767.166 171.04 765.16 170.593ZM770.831 180.222C770.946 180.936 771.009 182.255 770.139 183.074C769.269 183.893 767.956 183.752 767.25 183.594C765.843 183.28 764.353 182.375 763.163 181.111C761.972 179.846 761.158 178.304 760.929 176.881C760.814 176.168 760.752 174.848 761.621 174.029C762.491 173.21 763.804 173.352 764.51 173.509C765.917 173.823 767.407 174.728 768.597 175.993C769.788 177.257 770.602 178.799 770.831 180.222ZM754.049 181.056C751.866 180.569 749.829 181.029 748.461 182.317C747.093 183.605 746.512 185.61 746.867 187.819C747.193 189.847 748.261 191.908 749.875 193.622C751.489 195.336 753.483 196.527 755.488 196.974C757.671 197.461 759.708 197.001 761.076 195.713C762.444 194.425 763.025 192.42 762.67 190.211C762.344 188.183 761.275 186.122 759.661 184.407C758.047 182.694 756.054 181.503 754.049 181.056ZM759.719 190.686C759.834 191.399 759.897 192.719 759.027 193.538C758.157 194.357 756.844 194.215 756.139 194.058C754.732 193.744 753.242 192.839 752.051 191.574C750.86 190.309 750.046 188.768 749.817 187.345C749.702 186.631 749.64 185.311 750.51 184.492C751.379 183.673 752.692 183.815 753.398 183.973C754.805 184.286 756.295 185.192 757.486 186.456C758.676 187.721 759.491 189.262 759.719 190.686ZM784.263 172.442C782.714 171.536 781.067 171.368 779.624 171.972C778.464 172.457 777.547 173.423 777.044 174.692C776.35 176.44 776.465 178.594 777.359 180.599C778.089 182.238 779.263 183.593 780.664 184.413C782.213 185.319 783.86 185.486 785.303 184.883C785.802 184.674 786.256 184.377 786.651 184.005C787.175 183.511 787.597 182.886 787.884 182.163C788.577 180.414 788.463 178.261 787.569 176.255L787.569 176.255C786.838 174.616 785.664 173.262 784.263 172.442ZM784.839 177.472C785.399 178.729 785.499 180.07 785.106 181.061C784.961 181.425 784.678 181.905 784.15 182.126C782.875 182.659 780.977 181.377 780.088 179.383C779.528 178.126 779.428 176.785 779.821 175.794C779.917 175.553 780.074 175.26 780.322 175.026C780.449 174.907 780.599 174.803 780.777 174.728C782.052 174.195 783.95 175.477 784.839 177.472ZM756.123 200.596C754.175 199.583 752.032 199.339 750.245 199.927C748.948 200.353 747.929 201.21 747.375 202.339C746.686 203.743 746.754 205.397 747.566 206.998C748.3 208.446 749.582 209.699 751.174 210.526L751.174 210.526C753.122 211.539 755.265 211.783 757.052 211.196C757.791 210.952 758.44 210.57 758.964 210.076C759.36 209.704 759.684 209.268 759.922 208.783C760.611 207.379 760.543 205.725 759.731 204.124C758.997 202.677 757.715 201.423 756.123 200.596ZM757.239 207.467C756.987 207.981 756.491 208.235 756.118 208.357C755.106 208.69 753.773 208.51 752.552 207.875L752.552 207.875C750.615 206.868 749.449 204.896 750.058 203.656C750.31 203.142 750.807 202.888 751.179 202.765C752.191 202.432 753.524 202.613 754.745 203.247C756.683 204.254 757.848 206.226 757.239 207.467Z" fill="#FF5B2E"/>
</g>
<g opacity="0.05" clip-path="url(#clip11_605_4174)">
<path d="M597.327 147.211C591.989 146.547 587.267 147.86 584.032 150.907C580.796 153.953 579.203 158.588 579.545 163.956C579.852 168.782 581.729 173.461 584.566 176.473C585.943 177.936 587.44 178.629 589.014 178.534C590.568 178.439 591.949 177.602 593.231 176.394C594.595 175.109 595.849 173.405 597.081 171.73C598.157 170.266 599.173 168.884 600.12 167.992C600.938 167.222 602.292 166.351 603.725 165.428C607.075 163.273 610.871 160.83 611.276 157.52C611.469 155.946 610.878 154.417 609.52 152.974C606.684 149.962 602.126 147.808 597.327 147.211ZM608.31 157.157C608.076 159.075 604.767 161.205 602.108 162.916C600.555 163.915 599.089 164.858 598.072 165.816C596.927 166.895 595.832 168.383 594.673 169.96C592.877 172.402 590.643 175.441 588.833 175.551C588.592 175.566 587.858 175.61 586.741 174.424C584.402 171.941 582.788 167.857 582.527 163.766C582.242 159.302 583.504 155.508 586.08 153.082C588.656 150.657 592.519 149.625 596.958 150.177C601.026 150.683 605.006 152.54 607.344 155.023C608.43 156.176 608.34 156.914 608.31 157.157ZM582.16 130.593C579.977 130.106 577.941 130.565 576.573 131.854C575.205 133.142 574.624 135.147 574.979 137.355C575.305 139.384 576.373 141.445 577.987 143.159C579.601 144.873 581.594 146.064 583.6 146.511C585.783 146.998 587.819 146.538 589.187 145.25C590.555 143.962 591.136 141.956 590.782 139.748C590.455 137.719 589.387 135.658 587.773 133.944C586.159 132.23 584.166 131.04 582.16 130.593ZM587.831 140.222C587.946 140.936 588.009 142.255 587.139 143.074C586.269 143.893 584.956 143.752 584.25 143.594C582.843 143.28 581.353 142.375 580.163 141.111C578.972 139.846 578.158 138.304 577.929 136.881C577.814 136.168 577.752 134.848 578.621 134.029C579.491 133.21 580.804 133.352 581.51 133.509C582.917 133.823 584.407 134.728 585.597 135.993C586.788 137.257 587.602 138.799 587.831 140.222ZM571.049 141.056C568.866 140.569 566.829 141.029 565.461 142.317C564.093 143.605 563.512 145.61 563.867 147.819C564.193 149.847 565.261 151.908 566.875 153.622C568.489 155.336 570.483 156.527 572.488 156.974C574.671 157.461 576.708 157.001 578.076 155.713C579.444 154.425 580.025 152.42 579.67 150.211C579.344 148.183 578.275 146.122 576.661 144.407C575.047 142.694 573.054 141.503 571.049 141.056ZM576.719 150.686C576.834 151.399 576.897 152.719 576.027 153.538C575.157 154.357 573.844 154.215 573.139 154.058C571.732 153.744 570.242 152.839 569.051 151.574C567.86 150.309 567.046 148.768 566.817 147.345C566.702 146.631 566.64 145.311 567.51 144.492C568.379 143.673 569.692 143.815 570.398 143.973C571.805 144.286 573.295 145.192 574.486 146.456C575.676 147.721 576.491 149.262 576.719 150.686ZM601.263 132.442C599.714 131.536 598.067 131.368 596.624 131.972C595.464 132.457 594.547 133.423 594.044 134.692C593.35 136.44 593.465 138.594 594.359 140.599C595.089 142.238 596.263 143.593 597.664 144.413C599.213 145.319 600.86 145.486 602.303 144.883C602.802 144.674 603.256 144.377 603.651 144.005C604.175 143.511 604.597 142.886 604.884 142.163C605.577 140.414 605.463 138.261 604.569 136.255L604.569 136.255C603.838 134.616 602.664 133.262 601.263 132.442ZM601.839 137.472C602.399 138.729 602.499 140.07 602.106 141.061C601.961 141.425 601.678 141.905 601.15 142.126C599.875 142.659 597.977 141.377 597.088 139.383C596.528 138.126 596.428 136.785 596.821 135.794C596.917 135.553 597.074 135.26 597.322 135.026C597.449 134.907 597.599 134.803 597.777 134.728C599.052 134.195 600.95 135.477 601.839 137.472ZM573.123 160.596C571.175 159.583 569.032 159.339 567.245 159.927C565.948 160.353 564.929 161.21 564.375 162.339C563.686 163.743 563.754 165.397 564.566 166.998C565.3 168.446 566.582 169.699 568.174 170.526L568.174 170.526C570.122 171.539 572.265 171.783 574.052 171.196C574.791 170.952 575.44 170.57 575.964 170.076C576.36 169.704 576.684 169.268 576.922 168.783C577.611 167.379 577.543 165.725 576.731 164.124C575.997 162.677 574.715 161.423 573.123 160.596ZM574.239 167.467C573.987 167.981 573.491 168.235 573.118 168.357C572.106 168.69 570.773 168.51 569.552 167.875L569.552 167.875C567.615 166.868 566.449 164.896 567.058 163.656C567.31 163.142 567.807 162.888 568.179 162.765C569.191 162.432 570.524 162.613 571.745 163.247C573.683 164.254 574.848 166.226 574.239 167.467Z" fill="#FF5B2E"/>
</g>
<g opacity="0.08" clip-path="url(#clip12_605_4174)">
<path d="M657.328 261.232C661.552 257.901 663.938 253.62 664.045 249.177C664.152 244.734 661.975 240.343 657.916 236.813C654.267 233.64 649.62 231.687 645.484 231.587C643.475 231.539 641.93 232.116 640.891 233.303C639.866 234.474 639.491 236.045 639.449 237.806C639.404 239.68 639.735 241.769 640.061 243.823C640.346 245.617 640.614 247.312 640.583 248.612C640.556 249.735 640.224 251.31 639.873 252.978C639.052 256.876 638.121 261.294 640.191 263.908C641.175 265.152 642.678 265.806 644.658 265.854C648.794 265.953 653.531 264.226 657.328 261.232ZM642.534 262.054C641.334 260.538 642.145 256.688 642.797 253.594C643.177 251.788 643.537 250.081 643.571 248.684C643.608 247.112 643.319 245.287 643.012 243.354C642.537 240.361 641.946 236.635 643.14 235.27C643.299 235.088 643.783 234.535 645.412 234.574C648.822 234.656 652.862 236.378 655.955 239.068C659.33 242.003 661.142 245.568 661.057 249.105C660.972 252.642 658.99 256.116 655.478 258.885C652.259 261.423 648.141 262.948 644.731 262.866C643.147 262.828 642.685 262.245 642.534 262.054ZM679.809 262.124C681.69 260.914 682.794 259.142 682.84 257.264C682.885 255.385 681.867 253.562 680.047 252.263C678.375 251.069 676.158 250.38 673.804 250.323C671.45 250.266 669.203 250.848 667.475 251.96C665.594 253.17 664.49 254.942 664.444 256.821C664.399 258.699 665.417 260.522 667.237 261.822C668.909 263.015 671.127 263.704 673.48 263.761C675.834 263.818 678.082 263.236 679.809 262.124ZM668.974 259.39C668.385 258.97 667.403 258.087 667.432 256.892C667.46 255.698 668.484 254.864 669.092 254.472C670.304 253.692 671.996 253.269 673.732 253.31C675.468 253.352 677.137 253.857 678.31 254.694C678.899 255.114 679.881 255.997 679.852 257.192C679.824 258.386 678.8 259.221 678.192 259.612C676.98 260.392 675.289 260.815 673.552 260.774C671.816 260.732 670.147 260.227 668.974 259.39ZM680.177 246.866C682.058 245.656 683.162 243.884 683.207 242.005C683.253 240.127 682.235 238.304 680.414 237.004C678.742 235.81 676.525 235.122 674.172 235.065C671.818 235.008 669.57 235.589 667.842 236.702C665.962 237.912 664.857 239.684 664.812 241.562C664.767 243.441 665.785 245.264 667.605 246.563C669.277 247.757 671.494 248.446 673.848 248.503C676.202 248.559 678.449 247.978 680.177 246.866ZM669.341 244.131C668.753 243.711 667.77 242.828 667.799 241.634C667.828 240.44 668.852 239.605 669.46 239.214C670.672 238.434 672.363 238.01 674.099 238.052C675.836 238.094 677.505 238.598 678.678 239.436C679.266 239.856 680.249 240.739 680.22 241.933C680.191 243.128 679.167 243.962 678.56 244.353C677.347 245.134 675.656 245.557 673.92 245.515C672.183 245.473 670.514 244.969 669.341 244.131ZM665.067 274.412C666.8 273.948 668.077 272.893 668.662 271.443C669.133 270.277 669.09 268.946 668.541 267.696C667.785 265.973 666.173 264.541 664.117 263.768C662.438 263.135 660.65 263.018 659.081 263.439C657.348 263.903 656.071 264.957 655.487 266.407C655.284 266.909 655.177 267.441 655.164 267.984C655.146 268.704 655.295 269.443 655.608 270.155C656.364 271.878 657.976 273.31 660.031 274.083L660.031 274.083C661.71 274.716 663.499 274.833 665.067 274.412ZM661.084 271.287C659.796 270.802 658.772 269.93 658.344 268.954C658.186 268.595 658.044 268.056 658.258 267.525C658.775 266.244 661.021 265.794 663.064 266.564C664.352 267.049 665.376 267.921 665.805 268.897C665.909 269.135 666.007 269.452 665.999 269.793C665.995 269.967 665.963 270.147 665.891 270.326C665.374 271.607 663.128 272.056 661.084 271.287ZM664.82 234.608C666.91 233.934 668.589 232.581 669.427 230.897C670.036 229.675 670.143 228.347 669.729 227.159C669.214 225.683 667.99 224.568 666.281 224.021C664.735 223.526 662.943 223.556 661.235 224.107L661.235 224.107C659.145 224.781 657.466 226.134 656.627 227.818C656.281 228.514 656.097 229.245 656.08 229.965C656.067 230.508 656.148 231.044 656.326 231.555C656.841 233.032 658.065 234.147 659.774 234.694C661.32 235.189 663.112 235.158 664.82 234.608ZM659.148 230.572C658.96 230.031 659.128 229.5 659.303 229.149C659.777 228.195 660.843 227.373 662.152 226.951L662.152 226.951C664.23 226.281 666.452 226.837 666.907 228.143C667.095 228.683 666.927 229.215 666.752 229.566C666.277 230.52 665.212 231.341 663.903 231.764C661.824 232.434 659.603 231.877 659.148 230.572Z" fill="#FF5B2E"/>
</g>
<g opacity="0.06" clip-path="url(#clip13_605_4174)">
<path d="M492.328 284.232C496.552 280.901 498.938 276.62 499.045 272.177C499.152 267.734 496.975 263.343 492.916 259.813C489.267 256.64 484.62 254.687 480.484 254.587C478.475 254.539 476.93 255.116 475.891 256.303C474.866 257.474 474.491 259.045 474.449 260.806C474.404 262.68 474.735 264.769 475.061 266.823C475.346 268.617 475.614 270.312 475.583 271.612C475.556 272.735 475.224 274.31 474.873 275.978C474.052 279.876 473.121 284.294 475.191 286.908C476.175 288.152 477.678 288.806 479.658 288.854C483.794 288.953 488.531 287.226 492.328 284.232ZM477.534 285.054C476.334 283.538 477.145 279.688 477.797 276.594C478.177 274.788 478.537 273.081 478.571 271.684C478.608 270.112 478.319 268.287 478.012 266.354C477.537 263.361 476.946 259.635 478.14 258.27C478.299 258.088 478.783 257.535 480.412 257.574C483.822 257.656 487.862 259.378 490.955 262.068C494.33 265.003 496.142 268.568 496.057 272.105C495.972 275.642 493.99 279.116 490.478 281.885C487.259 284.423 483.141 285.948 479.731 285.866C478.147 285.828 477.685 285.245 477.534 285.054ZM514.809 285.124C516.69 283.914 517.794 282.142 517.84 280.264C517.885 278.385 516.867 276.562 515.047 275.263C513.375 274.069 511.158 273.38 508.804 273.323C506.45 273.266 504.203 273.848 502.475 274.96C500.594 276.17 499.49 277.942 499.444 279.821C499.399 281.699 500.417 283.522 502.237 284.822C503.909 286.015 506.127 286.704 508.48 286.761C510.834 286.818 513.082 286.236 514.809 285.124ZM503.974 282.39C503.385 281.97 502.403 281.087 502.432 279.892C502.46 278.698 503.484 277.864 504.092 277.472C505.304 276.692 506.996 276.269 508.732 276.31C510.468 276.352 512.137 276.857 513.31 277.694C513.899 278.114 514.881 278.997 514.852 280.192C514.824 281.386 513.8 282.221 513.192 282.612C511.98 283.392 510.289 283.815 508.552 283.774C506.816 283.732 505.147 283.227 503.974 282.39ZM515.177 269.866C517.058 268.656 518.162 266.884 518.207 265.005C518.253 263.127 517.235 261.304 515.414 260.004C513.742 258.81 511.525 258.122 509.172 258.065C506.818 258.008 504.57 258.589 502.842 259.702C500.962 260.912 499.857 262.684 499.812 264.562C499.767 266.441 500.785 268.264 502.605 269.563C504.277 270.757 506.494 271.446 508.848 271.503C511.202 271.559 513.449 270.978 515.177 269.866ZM504.341 267.131C503.753 266.711 502.77 265.828 502.799 264.634C502.828 263.44 503.852 262.605 504.46 262.214C505.672 261.434 507.363 261.01 509.099 261.052C510.836 261.094 512.505 261.598 513.678 262.436C514.266 262.856 515.249 263.739 515.22 264.933C515.191 266.128 514.167 266.962 513.56 267.353C512.347 268.134 510.656 268.557 508.92 268.515C507.183 268.473 505.514 267.969 504.341 267.131ZM500.067 297.412C501.8 296.948 503.077 295.893 503.662 294.443C504.133 293.277 504.09 291.946 503.541 290.696C502.785 288.973 501.173 287.541 499.117 286.768C497.438 286.135 495.65 286.018 494.081 286.439C492.348 286.903 491.071 287.957 490.487 289.407C490.284 289.909 490.177 290.441 490.164 290.984C490.146 291.704 490.295 292.443 490.608 293.155C491.364 294.878 492.976 296.31 495.031 297.083L495.031 297.083C496.71 297.716 498.499 297.833 500.067 297.412ZM496.084 294.287C494.796 293.802 493.772 292.93 493.344 291.954C493.186 291.595 493.044 291.056 493.258 290.525C493.775 289.244 496.021 288.794 498.064 289.564C499.352 290.049 500.376 290.921 500.805 291.897C500.909 292.135 501.007 292.452 500.999 292.793C500.995 292.967 500.963 293.147 500.891 293.326C500.374 294.607 498.128 295.056 496.084 294.287ZM499.82 257.608C501.91 256.934 503.589 255.581 504.427 253.897C505.036 252.675 505.143 251.347 504.729 250.159C504.214 248.683 502.99 247.568 501.281 247.021C499.735 246.526 497.943 246.556 496.235 247.107L496.235 247.107C494.145 247.781 492.466 249.134 491.627 250.818C491.281 251.514 491.097 252.245 491.08 252.965C491.067 253.508 491.148 254.044 491.326 254.555C491.841 256.032 493.065 257.147 494.774 257.694C496.32 258.189 498.112 258.158 499.82 257.608ZM494.148 253.572C493.96 253.031 494.128 252.5 494.303 252.149C494.777 251.195 495.843 250.373 497.152 249.951L497.152 249.951C499.23 249.281 501.452 249.837 501.907 251.143C502.095 251.683 501.927 252.215 501.752 252.566C501.277 253.52 500.212 254.341 498.903 254.764C496.824 255.434 494.603 254.877 494.148 253.572Z" fill="#FF5B2E"/>
</g>
<g opacity="0.1" clip-path="url(#clip14_605_4174)">
<path d="M372.327 150.211C366.989 149.547 362.267 150.86 359.032 153.907C355.796 156.953 354.203 161.588 354.545 166.956C354.852 171.782 356.729 176.461 359.566 179.473C360.943 180.936 362.44 181.629 364.014 181.534C365.568 181.439 366.949 180.602 368.231 179.394C369.595 178.109 370.849 176.405 372.081 174.73C373.157 173.266 374.173 171.884 375.12 170.992C375.938 170.222 377.292 169.351 378.725 168.428C382.075 166.273 385.871 163.83 386.276 160.52C386.469 158.946 385.878 157.417 384.52 155.974C381.684 152.962 377.126 150.808 372.327 150.211ZM383.31 160.157C383.076 162.075 379.767 164.205 377.108 165.916C375.555 166.915 374.089 167.858 373.072 168.816C371.927 169.895 370.832 171.383 369.673 172.96C367.877 175.402 365.643 178.441 363.833 178.551C363.592 178.566 362.858 178.61 361.741 177.424C359.402 174.941 357.788 170.857 357.527 166.766C357.242 162.302 358.504 158.508 361.08 156.082C363.656 153.657 367.519 152.625 371.958 153.177C376.026 153.683 380.006 155.54 382.344 158.023C383.43 159.176 383.34 159.914 383.31 160.157ZM357.16 133.593C354.977 133.106 352.941 133.565 351.573 134.854C350.205 136.142 349.624 138.147 349.979 140.355C350.305 142.384 351.373 144.445 352.987 146.159C354.601 147.873 356.594 149.064 358.6 149.511C360.783 149.998 362.819 149.538 364.187 148.25C365.555 146.962 366.136 144.956 365.782 142.748C365.455 140.719 364.387 138.658 362.773 136.944C361.159 135.23 359.166 134.04 357.16 133.593ZM362.831 143.222C362.946 143.936 363.009 145.255 362.139 146.074C361.269 146.893 359.956 146.752 359.25 146.594C357.843 146.28 356.353 145.375 355.163 144.111C353.972 142.846 353.158 141.304 352.929 139.881C352.814 139.168 352.752 137.848 353.621 137.029C354.491 136.21 355.804 136.352 356.51 136.509C357.917 136.823 359.407 137.728 360.597 138.993C361.788 140.257 362.602 141.799 362.831 143.222ZM346.049 144.056C343.866 143.569 341.829 144.029 340.461 145.317C339.093 146.605 338.512 148.61 338.867 150.819C339.193 152.847 340.261 154.908 341.875 156.622C343.489 158.336 345.483 159.527 347.488 159.974C349.671 160.461 351.708 160.001 353.076 158.713C354.444 157.425 355.025 155.42 354.67 153.211C354.344 151.183 353.275 149.122 351.661 147.407C350.047 145.694 348.054 144.503 346.049 144.056ZM351.719 153.686C351.834 154.399 351.897 155.719 351.027 156.538C350.157 157.357 348.844 157.215 348.139 157.058C346.732 156.744 345.242 155.839 344.051 154.574C342.86 153.309 342.046 151.768 341.817 150.345C341.702 149.631 341.64 148.311 342.51 147.492C343.379 146.673 344.692 146.815 345.398 146.973C346.805 147.286 348.295 148.192 349.486 149.456C350.676 150.721 351.491 152.262 351.719 153.686ZM376.263 135.442C374.714 134.536 373.067 134.368 371.624 134.972C370.464 135.457 369.547 136.423 369.044 137.692C368.35 139.44 368.465 141.594 369.359 143.599C370.089 145.238 371.263 146.593 372.664 147.413C374.213 148.319 375.86 148.486 377.303 147.883C377.802 147.674 378.256 147.377 378.651 147.005C379.175 146.511 379.597 145.886 379.884 145.163C380.577 143.414 380.463 141.261 379.569 139.255L379.569 139.255C378.838 137.616 377.664 136.262 376.263 135.442ZM376.839 140.472C377.399 141.729 377.499 143.07 377.106 144.061C376.961 144.425 376.678 144.905 376.15 145.126C374.875 145.659 372.977 144.377 372.088 142.383C371.528 141.126 371.428 139.785 371.821 138.794C371.917 138.553 372.074 138.26 372.322 138.026C372.449 137.907 372.599 137.803 372.777 137.728C374.052 137.195 375.95 138.477 376.839 140.472ZM348.123 163.596C346.175 162.583 344.032 162.339 342.245 162.927C340.948 163.353 339.929 164.21 339.375 165.339C338.686 166.743 338.754 168.397 339.566 169.998C340.3 171.446 341.582 172.699 343.174 173.526L343.174 173.526C345.122 174.539 347.265 174.783 349.052 174.196C349.791 173.952 350.44 173.57 350.964 173.076C351.36 172.704 351.684 172.268 351.922 171.783C352.611 170.379 352.543 168.725 351.731 167.124C350.997 165.677 349.715 164.423 348.123 163.596ZM349.239 170.467C348.987 170.981 348.491 171.235 348.118 171.357C347.106 171.69 345.773 171.51 344.552 170.875L344.552 170.875C342.615 169.868 341.449 167.896 342.058 166.656C342.31 166.142 342.807 165.888 343.179 165.765C344.191 165.432 345.524 165.613 346.745 166.247C348.683 167.254 349.848 169.226 349.239 170.467Z" fill="#FF5B2E"/>
</g>
<g opacity="0.1" clip-path="url(#clip15_605_4174)">
<path d="M152.327 147.211C146.989 146.547 142.267 147.86 139.032 150.907C135.796 153.953 134.203 158.588 134.545 163.956C134.852 168.782 136.729 173.461 139.566 176.473C140.943 177.936 142.44 178.629 144.014 178.534C145.568 178.439 146.949 177.602 148.231 176.394C149.595 175.109 150.849 173.405 152.081 171.73C153.157 170.266 154.173 168.884 155.12 167.992C155.938 167.222 157.292 166.351 158.725 165.428C162.075 163.273 165.871 160.83 166.276 157.52C166.469 155.946 165.878 154.417 164.52 152.974C161.684 149.962 157.126 147.808 152.327 147.211ZM163.31 157.157C163.076 159.075 159.767 161.205 157.108 162.916C155.555 163.915 154.089 164.858 153.072 165.816C151.927 166.895 150.832 168.383 149.673 169.96C147.877 172.402 145.643 175.441 143.833 175.551C143.592 175.566 142.858 175.61 141.741 174.424C139.402 171.941 137.788 167.857 137.527 163.766C137.242 159.302 138.504 155.508 141.08 153.082C143.656 150.657 147.519 149.625 151.958 150.177C156.026 150.683 160.006 152.54 162.344 155.023C163.43 156.176 163.34 156.914 163.31 157.157ZM137.16 130.593C134.977 130.106 132.941 130.565 131.573 131.854C130.205 133.142 129.624 135.147 129.979 137.355C130.305 139.384 131.373 141.445 132.987 143.159C134.601 144.873 136.594 146.064 138.6 146.511C140.783 146.998 142.819 146.538 144.187 145.25C145.555 143.962 146.136 141.956 145.782 139.748C145.455 137.719 144.387 135.658 142.773 133.944C141.159 132.23 139.166 131.04 137.16 130.593ZM142.831 140.222C142.946 140.936 143.009 142.255 142.139 143.074C141.269 143.893 139.956 143.752 139.25 143.594C137.843 143.28 136.353 142.375 135.163 141.111C133.972 139.846 133.158 138.304 132.929 136.881C132.814 136.168 132.752 134.848 133.621 134.029C134.491 133.21 135.804 133.352 136.51 133.509C137.917 133.823 139.407 134.728 140.597 135.993C141.788 137.257 142.602 138.799 142.831 140.222ZM126.049 141.056C123.866 140.569 121.829 141.029 120.461 142.317C119.093 143.605 118.512 145.61 118.867 147.819C119.193 149.847 120.261 151.908 121.875 153.622C123.489 155.336 125.483 156.527 127.488 156.974C129.671 157.461 131.708 157.001 133.076 155.713C134.444 154.425 135.025 152.42 134.67 150.211C134.344 148.183 133.275 146.122 131.661 144.407C130.047 142.694 128.054 141.503 126.049 141.056ZM131.719 150.686C131.834 151.399 131.897 152.719 131.027 153.538C130.157 154.357 128.844 154.215 128.139 154.058C126.732 153.744 125.242 152.839 124.051 151.574C122.86 150.309 122.046 148.768 121.817 147.345C121.702 146.631 121.64 145.311 122.51 144.492C123.379 143.673 124.692 143.815 125.398 143.973C126.805 144.286 128.295 145.192 129.486 146.456C130.676 147.721 131.491 149.262 131.719 150.686ZM156.263 132.442C154.714 131.536 153.067 131.368 151.624 131.972C150.464 132.457 149.547 133.423 149.044 134.692C148.35 136.44 148.465 138.594 149.359 140.599C150.089 142.238 151.263 143.593 152.664 144.413C154.213 145.319 155.86 145.486 157.303 144.883C157.802 144.674 158.256 144.377 158.651 144.005C159.175 143.511 159.597 142.886 159.884 142.163C160.577 140.414 160.463 138.261 159.569 136.255L159.569 136.255C158.838 134.616 157.664 133.262 156.263 132.442ZM156.839 137.472C157.399 138.729 157.499 140.07 157.106 141.061C156.961 141.425 156.678 141.905 156.15 142.126C154.875 142.659 152.977 141.377 152.088 139.383C151.528 138.126 151.428 136.785 151.821 135.794C151.917 135.553 152.074 135.26 152.322 135.026C152.449 134.907 152.599 134.803 152.777 134.728C154.052 134.195 155.95 135.477 156.839 137.472ZM128.123 160.596C126.175 159.583 124.032 159.339 122.245 159.927C120.948 160.353 119.929 161.21 119.375 162.339C118.686 163.743 118.754 165.397 119.566 166.998C120.3 168.446 121.582 169.699 123.174 170.526L123.174 170.526C125.122 171.539 127.265 171.783 129.052 171.196C129.791 170.952 130.44 170.57 130.964 170.076C131.36 169.704 131.684 169.268 131.922 168.783C132.611 167.379 132.543 165.725 131.731 164.124C130.997 162.677 129.715 161.423 128.123 160.596ZM129.239 167.467C128.987 167.981 128.491 168.235 128.118 168.357C127.106 168.69 125.773 168.51 124.552 167.875L124.552 167.875C122.615 166.868 121.449 164.896 122.058 163.656C122.31 163.142 122.807 162.888 123.179 162.765C124.191 162.432 125.524 162.613 126.745 163.247C128.683 164.254 129.848 166.226 129.239 167.467Z" fill="#FF5B2E"/>
</g>
<g opacity="0.07" clip-path="url(#clip16_605_4174)">
<path d="M295.328 298.232C299.552 294.901 301.938 290.62 302.045 286.177C302.152 281.734 299.975 277.343 295.916 273.813C292.267 270.64 287.62 268.687 283.484 268.587C281.475 268.539 279.93 269.116 278.891 270.303C277.866 271.474 277.491 273.045 277.449 274.806C277.404 276.68 277.735 278.769 278.061 280.823C278.346 282.617 278.614 284.312 278.583 285.612C278.556 286.735 278.224 288.31 277.873 289.978C277.052 293.876 276.121 298.294 278.191 300.908C279.175 302.152 280.678 302.806 282.658 302.854C286.794 302.953 291.531 301.226 295.328 298.232ZM280.534 299.054C279.334 297.538 280.145 293.688 280.797 290.594C281.177 288.788 281.537 287.081 281.571 285.684C281.608 284.112 281.319 282.287 281.012 280.354C280.537 277.361 279.946 273.635 281.14 272.27C281.299 272.088 281.783 271.535 283.412 271.574C286.822 271.656 290.862 273.378 293.955 276.068C297.33 279.003 299.142 282.568 299.057 286.105C298.972 289.642 296.99 293.116 293.478 295.885C290.259 298.423 286.141 299.948 282.731 299.866C281.147 299.828 280.685 299.245 280.534 299.054ZM317.809 299.124C319.69 297.914 320.794 296.142 320.84 294.264C320.885 292.385 319.867 290.562 318.047 289.263C316.375 288.069 314.158 287.38 311.804 287.323C309.45 287.266 307.203 287.848 305.475 288.96C303.594 290.17 302.49 291.942 302.444 293.821C302.399 295.699 303.417 297.522 305.237 298.822C306.909 300.015 309.127 300.704 311.48 300.761C313.834 300.818 316.082 300.236 317.809 299.124ZM306.974 296.39C306.385 295.97 305.403 295.087 305.432 293.892C305.46 292.698 306.484 291.864 307.092 291.472C308.304 290.692 309.996 290.269 311.732 290.31C313.468 290.352 315.137 290.857 316.31 291.694C316.899 292.114 317.881 292.997 317.852 294.192C317.824 295.386 316.8 296.221 316.192 296.612C314.98 297.392 313.289 297.815 311.552 297.774C309.816 297.732 308.147 297.227 306.974 296.39ZM318.177 283.866C320.058 282.656 321.162 280.884 321.207 279.005C321.253 277.127 320.235 275.304 318.414 274.004C316.742 272.81 314.525 272.122 312.172 272.065C309.818 272.008 307.57 272.589 305.842 273.702C303.962 274.912 302.857 276.684 302.812 278.562C302.767 280.441 303.785 282.264 305.605 283.563C307.277 284.757 309.494 285.446 311.848 285.503C314.202 285.559 316.449 284.978 318.177 283.866ZM307.341 281.131C306.753 280.711 305.77 279.828 305.799 278.634C305.828 277.44 306.852 276.605 307.46 276.214C308.672 275.434 310.363 275.01 312.099 275.052C313.836 275.094 315.505 275.598 316.678 276.436C317.266 276.856 318.249 277.739 318.22 278.933C318.191 280.128 317.167 280.962 316.56 281.353C315.347 282.134 313.656 282.557 311.92 282.515C310.183 282.473 308.514 281.969 307.341 281.131ZM303.067 311.412C304.8 310.948 306.077 309.893 306.662 308.443C307.133 307.277 307.09 305.946 306.541 304.696C305.785 302.973 304.173 301.541 302.117 300.768C300.438 300.135 298.65 300.018 297.081 300.439C295.348 300.903 294.071 301.957 293.487 303.407C293.284 303.909 293.177 304.441 293.164 304.984C293.146 305.704 293.295 306.443 293.608 307.155C294.364 308.878 295.976 310.31 298.031 311.083L298.031 311.083C299.71 311.716 301.499 311.833 303.067 311.412ZM299.084 308.287C297.796 307.802 296.772 306.93 296.344 305.954C296.186 305.595 296.044 305.056 296.258 304.525C296.775 303.244 299.021 302.794 301.064 303.564C302.352 304.049 303.376 304.921 303.805 305.897C303.909 306.135 304.007 306.452 303.999 306.793C303.995 306.967 303.963 307.147 303.891 307.326C303.374 308.607 301.128 309.056 299.084 308.287ZM302.82 271.608C304.91 270.934 306.589 269.581 307.427 267.897C308.036 266.675 308.143 265.347 307.729 264.159C307.214 262.683 305.99 261.568 304.281 261.021C302.735 260.526 300.943 260.556 299.235 261.107L299.235 261.107C297.145 261.781 295.466 263.134 294.627 264.818C294.281 265.514 294.097 266.245 294.08 266.965C294.067 267.508 294.148 268.044 294.326 268.555C294.841 270.032 296.065 271.147 297.774 271.694C299.32 272.189 301.112 272.158 302.82 271.608ZM297.148 267.572C296.96 267.031 297.128 266.5 297.303 266.149C297.777 265.195 298.843 264.373 300.152 263.951L300.152 263.951C302.23 263.281 304.452 263.837 304.907 265.143C305.095 265.683 304.927 266.215 304.752 266.566C304.277 267.52 303.212 268.341 301.903 268.764C299.824 269.434 297.603 268.877 297.148 267.572Z" fill="#FF5B2E"/>
</g>
<g opacity="0.07" clip-path="url(#clip17_605_4174)">
<path d="M14.3277 272.232C18.5521 268.901 20.9375 264.62 21.0445 260.177C21.1515 255.734 18.975 251.343 14.9159 247.813C11.2673 244.64 6.61981 242.687 2.48383 242.587C0.474701 242.539 -1.07045 243.116 -2.10887 244.303C-3.13387 245.474 -3.50887 247.045 -3.55119 248.806C-3.59632 250.68 -3.26484 252.769 -2.93907 254.823C-2.65437 256.617 -2.38551 258.312 -2.41684 259.612C-2.44387 260.735 -2.77576 262.31 -3.1271 263.978C-3.94834 267.876 -4.87896 272.294 -2.80928 274.908C-1.82541 276.152 -0.322181 276.806 1.65847 276.854C5.79445 276.953 10.5306 275.226 14.3277 272.232ZM-0.466157 273.054C-1.66606 271.538 -0.854825 267.688 -0.203101 264.594C0.177483 262.788 0.536923 261.081 0.570581 259.684C0.608452 258.112 0.318822 256.287 0.0122483 254.354C-0.462659 251.361 -1.05385 247.635 0.140104 246.27C0.299223 246.088 0.783444 245.535 2.41198 245.574C5.82222 245.656 9.86213 247.378 12.955 250.068C16.3304 253.003 18.1424 256.568 18.0572 260.105C17.972 263.642 15.9905 267.116 12.4777 269.885C9.25889 272.423 5.14076 273.948 1.73053 273.866C0.146695 273.828 -0.314636 273.245 -0.466157 273.054ZM36.8093 273.124C38.69 271.914 39.7945 270.142 39.8397 268.264C39.885 266.385 38.8669 264.562 37.0468 263.263C35.3747 262.069 33.1576 261.38 30.8039 261.323C28.4502 261.266 26.2025 261.848 24.4748 262.96C22.5942 264.17 21.4896 265.942 21.4443 267.821C21.3991 269.699 22.4171 271.522 24.2373 272.822C25.9094 274.015 28.1265 274.704 30.4802 274.761C32.8339 274.818 35.0817 274.236 36.8093 273.124ZM25.9737 270.39C25.3854 269.97 24.4029 269.087 24.4316 267.892C24.4604 266.698 25.4842 265.864 26.0921 265.472C27.3044 264.692 28.9956 264.269 30.7319 264.31C32.4684 264.352 34.1372 264.857 35.3105 265.694C35.8987 266.114 36.8813 266.997 36.8525 268.192C36.8237 269.386 35.7999 270.221 35.192 270.612C33.9798 271.392 32.2886 271.815 30.5522 271.774C28.8158 271.732 27.1469 271.227 25.9737 270.39ZM37.1769 257.866C39.0577 256.656 40.1622 254.884 40.2074 253.005C40.2527 251.127 39.2346 249.304 37.4145 248.004C35.7423 246.81 33.5252 246.122 31.1715 246.065C28.8178 246.008 26.5701 246.589 24.8424 247.702C22.9617 248.912 21.8571 250.684 21.8118 252.562C21.7666 254.441 22.7846 256.264 24.6049 257.563C26.2771 258.757 28.4941 259.446 30.8478 259.503C33.2015 259.559 35.4493 258.978 37.1769 257.866ZM26.3412 255.131C25.753 254.711 24.7704 253.828 24.7991 252.634C24.8279 251.44 25.8519 250.605 26.4596 250.214C27.6719 249.434 29.3631 249.01 31.0995 249.052C32.8359 249.094 34.5047 249.598 35.678 250.436C36.2662 250.856 37.2488 251.739 37.22 252.933C37.1913 254.128 36.1674 254.962 35.5595 255.353C34.3473 256.134 32.6561 256.557 30.9197 256.515C29.1833 256.473 27.5145 255.969 26.3412 255.131ZM22.0671 285.412C23.8004 284.948 25.0772 283.893 25.662 282.443C26.1326 281.277 26.0896 279.946 25.5409 278.696C24.7849 276.973 23.1726 275.541 21.1175 274.768C19.438 274.135 17.6497 274.018 16.0815 274.439C14.3482 274.903 13.0714 275.957 12.4866 277.407C12.2842 277.909 12.1768 278.441 12.1637 278.984C12.1464 279.704 12.2949 280.443 12.6076 281.155C13.3637 282.878 14.976 284.31 17.031 285.083L17.0311 285.083C18.7104 285.716 20.4989 285.833 22.0671 285.412ZM18.0842 282.287C16.7965 281.802 15.7721 280.93 15.3438 279.954C15.1865 279.595 15.0437 279.056 15.2579 278.525C15.7749 277.244 18.021 276.794 20.0644 277.564C21.3521 278.049 22.3765 278.921 22.8048 279.897C22.9092 280.135 23.0071 280.452 22.9989 280.793C22.9947 280.967 22.9631 281.147 22.8909 281.326C22.3738 282.607 20.1277 283.056 18.0842 282.287ZM21.82 245.608C23.91 244.934 25.5893 243.581 26.4274 241.897C27.0356 240.675 27.1425 239.347 26.7287 238.159C26.2143 236.683 24.9898 235.568 23.2809 235.021C21.7348 234.526 19.9428 234.556 18.235 235.107L18.2349 235.107C16.1449 235.781 14.4656 237.134 13.6275 238.818C13.2808 239.514 13.0969 240.245 13.0796 240.965C13.0665 241.508 13.1482 242.044 13.3261 242.555C13.8406 244.032 15.0651 245.147 16.7739 245.694C18.32 246.189 20.112 246.158 21.82 245.608ZM16.148 241.572C15.9596 241.031 16.1282 240.5 16.3026 240.149C16.7773 239.195 17.8425 238.373 19.1521 237.951L19.152 237.951C21.2302 237.281 23.4519 237.837 23.9067 239.143C24.0951 239.683 23.9265 240.215 23.7521 240.566C23.2772 241.52 22.212 242.341 20.9026 242.764C18.8244 243.434 16.6027 242.877 16.148 241.572Z" fill="#FF5B2E"/>
</g>
<defs>
<clipPath id="clip0_605_4174">
<rect width="51" height="51" fill="white" transform="translate(245.5 21) rotate(30)"/>
</clipPath>
<clipPath id="clip1_605_4174">
<rect width="51" height="51" fill="white" transform="translate(21.5 -8) rotate(30)"/>
</clipPath>
<clipPath id="clip2_605_4174">
<rect width="51" height="51" fill="white" transform="translate(1051.5 21) rotate(30)"/>
</clipPath>
<clipPath id="clip3_605_4174">
<rect width="51" height="51" fill="white" transform="translate(840.5 7) rotate(30)"/>
</clipPath>
<clipPath id="clip4_605_4174">
<rect width="51" height="51" fill="white" transform="translate(1094 191.963) rotate(-43.2788)"/>
</clipPath>
<clipPath id="clip5_605_4174">
<rect width="51" height="51" fill="white" transform="translate(911 151.963) rotate(-43.2788)"/>
</clipPath>
<clipPath id="clip6_605_4174">
<rect width="51" height="51" fill="white" transform="translate(1048.21 224.228) rotate(91.3798)"/>
</clipPath>
<clipPath id="clip7_605_4174">
<rect width="51" height="51" fill="white" transform="translate(883.213 247.228) rotate(91.3798)"/>
</clipPath>
<clipPath id="clip8_605_4174">
<rect width="51" height="51" fill="white" transform="translate(690.5 21) rotate(30)"/>
</clipPath>
<clipPath id="clip9_605_4174">
<rect width="51" height="51" fill="white" transform="translate(479.5 7) rotate(30)"/>
</clipPath>
<clipPath id="clip10_605_4174">
<rect width="51" height="51" fill="white" transform="translate(733 191.963) rotate(-43.2788)"/>
</clipPath>
<clipPath id="clip11_605_4174">
<rect width="51" height="51" fill="white" transform="translate(550 151.963) rotate(-43.2788)"/>
</clipPath>
<clipPath id="clip12_605_4174">
<rect width="51" height="51" fill="white" transform="translate(687.213 224.228) rotate(91.3798)"/>
</clipPath>
<clipPath id="clip13_605_4174">
<rect width="51" height="51" fill="white" transform="translate(522.213 247.228) rotate(91.3798)"/>
</clipPath>
<clipPath id="clip14_605_4174">
<rect width="51" height="51" fill="white" transform="translate(325 154.963) rotate(-43.2788)"/>
</clipPath>
<clipPath id="clip15_605_4174">
<rect width="51" height="51" fill="white" transform="translate(105 151.963) rotate(-43.2788)"/>
</clipPath>
<clipPath id="clip16_605_4174">
<rect width="51" height="51" fill="white" transform="translate(325.213 261.228) rotate(91.3798)"/>
</clipPath>
<clipPath id="clip17_605_4174">
<rect width="51" height="51" fill="white" transform="translate(44.2129 235.228) rotate(91.3798)"/>
</clipPath>
</defs>
</svg>
