<svg width="1440" height="800" viewBox="0 0 1440 800" fill="none" xmlns="http://www.w3.org/2000/svg">
<path d="M0 0H1440V800C844.5 662.928 439.5 851.838 0 752.648V0Z" fill="#FFDED5"/>
<g opacity="0.15">
<path d="M1370.69 156.988C1370.12 142.582 1353.12 141.833 1342.34 145.834C1344.9 141.018 1346.06 135.622 1344.09 130.364C1341.24 123.113 1332.98 120.376 1326.37 122.804C1309.37 129.002 1310.51 157.814 1320.94 169.862C1321.06 170.071 1321.38 170.164 1321.7 170.256C1321.38 171.553 1322.23 173.012 1323.71 173.269C1336.02 174.225 1371.5 178.759 1370.69 156.988ZM1357.14 167.311C1347.12 171.705 1334.37 169.058 1323.59 168.891C1323.27 168.799 1323.07 168.914 1322.87 169.03L1322.74 168.821C1318.21 158.652 1315.8 143.365 1321.44 133.71C1324.21 128.779 1333.71 123.017 1338.6 129.643C1343.86 136.895 1338.09 143.562 1335.12 149.999C1334.32 151.851 1336.45 153.682 1337.89 152.015C1338.29 151.784 1338.57 151.344 1338.85 150.904C1343.9 148.545 1349.03 147.25 1354.73 147.855C1357.89 148.251 1363.59 150.245 1365.19 153.489C1368.08 159.882 1361.79 165.183 1357.14 167.311Z" fill="#FF5B2E"/>
</g>
<g opacity="0.15" clip-path="url(#clip0_1_36)">
<path d="M67.4773 341.589C62.1692 340.716 57.3995 341.841 54.0466 344.759C50.6937 347.676 48.9192 352.244 49.0501 357.622C49.1676 362.456 50.8592 367.205 53.5749 370.326C54.894 371.842 56.3623 372.594 57.9391 372.56C59.4954 372.527 60.9078 371.745 62.2366 370.588C63.6507 369.358 64.9703 367.704 66.2667 366.079C67.3996 364.659 68.4697 363.317 69.4511 362.463C70.2982 361.726 71.6853 360.909 73.1537 360.044C76.5856 358.021 80.4753 355.729 81.0103 352.438C81.2647 350.873 80.7342 349.322 79.4338 347.827C76.7182 344.706 72.2485 342.374 67.4773 341.589ZM78.0608 351.958C77.7507 353.866 74.3606 355.864 71.6366 357.469C70.0462 358.406 68.544 359.291 67.4894 360.209C66.303 361.241 65.1506 362.686 63.9305 364.215C62.0403 366.585 59.6879 369.534 57.8751 369.573C57.6335 369.578 56.8982 369.594 55.829 368.365C53.5899 365.791 52.137 361.647 52.0373 357.549C51.9285 353.077 53.3387 349.335 56.0079 347.013C58.6771 344.691 62.5781 343.811 66.992 344.538C71.0365 345.203 74.94 347.215 77.1791 349.789C78.2193 350.984 78.1 351.717 78.0608 351.958ZM52.9753 324.387C50.8132 323.814 48.7602 324.194 47.3425 325.427C45.9248 326.661 45.2655 328.642 45.5332 330.862C45.7793 332.902 46.7659 335.003 48.3113 336.78C49.8567 338.556 51.8016 339.823 53.7878 340.349C55.9499 340.922 58.0031 340.542 59.4207 339.309C60.8384 338.075 61.4977 336.095 61.2299 333.874C60.9838 331.834 59.9973 329.733 58.4519 327.956C56.9065 326.18 54.9615 324.912 52.9753 324.387ZM58.2633 334.232C58.3498 334.95 58.3605 336.271 57.4593 337.055C56.558 337.839 55.2514 337.646 54.5525 337.461C53.1589 337.092 51.7057 336.128 50.5656 334.818C49.4254 333.508 48.6726 331.935 48.4999 330.504C48.4133 329.787 48.4027 328.466 49.3039 327.681C50.2051 326.897 51.5119 327.09 52.2106 327.275C53.6043 327.644 55.0575 328.608 56.1976 329.918C57.3376 331.228 58.0906 332.801 58.2633 334.232ZM41.4609 334.405C39.2987 333.833 37.2457 334.212 35.828 335.445C34.4103 336.679 33.7509 338.66 34.0188 340.88C34.2649 342.92 35.2514 345.022 36.7968 346.798C38.3422 348.574 40.2871 349.842 42.2734 350.368C44.4356 350.94 46.4886 350.561 47.9063 349.327C49.324 348.094 49.9834 346.113 49.7155 343.892C49.4694 341.853 48.4829 339.751 46.9374 337.975C45.392 336.199 43.447 334.931 41.4609 334.405ZM46.7487 344.25C46.8353 344.968 46.846 346.289 45.9448 347.073C45.0436 347.857 43.7368 347.664 43.0381 347.479C41.6444 347.11 40.1912 346.147 39.0511 344.837C37.911 343.526 37.1581 341.954 36.9854 340.522C36.8989 339.805 36.8882 338.484 37.7894 337.7C38.6907 336.916 39.9973 337.109 40.6961 337.294C42.0897 337.663 43.5429 338.626 44.683 339.936C45.8231 341.247 46.5761 342.819 46.7487 344.25ZM71.9904 326.986C70.4785 326.019 68.8389 325.787 67.3739 326.333C66.195 326.773 65.2412 327.702 64.6883 328.95C63.9263 330.67 63.9563 332.826 64.7708 334.865C65.4364 336.532 66.5561 337.931 67.9239 338.806C69.4358 339.772 71.0754 340.004 72.5405 339.458C73.0475 339.269 73.5127 338.99 73.9224 338.633C74.4655 338.161 74.9109 337.553 75.2261 336.841C75.9882 335.122 75.9582 332.965 75.1437 330.926L75.1437 330.926C74.4781 329.26 73.3583 327.86 71.9904 326.986ZM72.3685 332.034C72.8788 333.312 72.9257 334.657 72.494 335.631C72.3352 335.989 72.0335 336.458 71.4969 336.658C70.2019 337.141 68.3554 335.785 67.5457 333.757C67.0354 332.479 66.9885 331.135 67.4202 330.16C67.5254 329.923 67.6935 329.637 67.9511 329.413C68.0822 329.299 68.2364 329.201 68.4172 329.133C69.7123 328.651 71.5587 330.006 72.3685 332.034ZM42.7655 354.011C40.8583 352.923 38.7271 352.595 36.9184 353.112C35.6058 353.487 34.5536 354.303 33.9554 355.41C33.2122 356.785 33.2149 358.441 33.9631 360.072C34.64 361.548 35.8712 362.85 37.4296 363.74L37.4296 363.74C39.3369 364.828 41.4681 365.156 43.2767 364.639C44.0249 364.426 44.6886 364.069 45.2317 363.596C45.6414 363.24 45.9825 362.817 46.2397 362.342C46.9832 360.966 46.9804 359.31 46.2322 357.679C45.5551 356.204 44.324 354.901 42.7655 354.011ZM43.6108 360.921C43.3385 361.425 42.8323 361.659 42.4557 361.766C41.4312 362.059 40.106 361.827 38.911 361.145L38.9111 361.145C37.0148 360.062 35.9276 358.046 36.5845 356.83C36.8567 356.327 37.3629 356.093 37.7396 355.985C38.7643 355.692 40.0894 355.924 41.2843 356.607C43.1807 357.689 44.2678 359.705 43.6108 360.921Z" fill="#FF5B2E"/>
</g>
<g opacity="0.1" clip-path="url(#clip1_1_36)">
<path d="M898.088 623.317C897.942 628.694 899.703 633.268 903.047 636.194C906.392 639.121 911.158 640.261 916.469 639.403C921.242 638.631 925.719 636.312 928.443 633.199C929.767 631.687 930.312 630.13 930.065 628.572C929.822 627.035 928.856 625.741 927.53 624.581C926.119 623.347 924.302 622.264 922.516 621.199C920.955 620.269 919.481 619.391 918.503 618.534C917.658 617.795 916.66 616.531 915.604 615.193C913.135 612.067 910.337 608.523 907.004 608.439C905.419 608.399 903.954 609.135 902.649 610.626C899.924 613.739 898.219 618.483 898.088 623.317ZM906.928 611.426C908.861 611.475 911.299 614.564 913.258 617.045C914.402 618.494 915.483 619.862 916.535 620.783C917.718 621.819 919.306 622.765 920.986 623.766C923.59 625.318 926.831 627.25 927.114 629.04C927.152 629.279 927.267 630.005 926.195 631.231C923.948 633.798 920.039 635.799 915.992 636.453C911.576 637.166 907.678 636.276 905.015 633.946C902.353 631.616 900.954 627.87 901.075 623.398C901.186 619.301 902.651 615.161 904.898 612.594C905.941 611.401 906.684 611.42 906.928 611.426ZM883.008 640.015C882.734 642.235 883.388 644.218 884.802 645.455C886.216 646.693 888.268 647.078 890.432 646.512C892.42 645.991 894.368 644.729 895.919 642.958C897.469 641.186 898.462 639.087 898.714 637.048C898.988 634.828 898.334 632.846 896.92 631.608C895.506 630.37 893.454 629.985 891.29 630.552C889.303 631.072 887.354 632.334 885.803 634.105C884.253 635.877 883.26 637.976 883.008 640.015ZM892.047 633.442C892.746 633.259 894.053 633.07 894.952 633.857C895.851 634.643 895.837 635.964 895.748 636.682C895.571 638.112 894.814 639.683 893.67 640.99C892.526 642.297 891.07 643.256 889.676 643.621C888.976 643.804 887.669 643.993 886.77 643.206C885.871 642.42 885.885 641.099 885.974 640.381C886.151 638.951 886.908 637.38 888.052 636.073C889.196 634.766 890.652 633.807 892.047 633.442ZM894.494 650.067C894.22 652.286 894.873 654.269 896.288 655.507C897.702 656.744 899.754 657.129 901.917 656.563C903.905 656.043 905.854 654.781 907.404 653.009C908.955 651.237 909.947 649.139 910.199 647.099C910.474 644.88 909.82 642.897 908.406 641.659C906.992 640.422 904.94 640.037 902.776 640.603C900.788 641.123 898.84 642.385 897.289 644.157C895.739 645.929 894.746 648.027 894.494 650.067ZM903.532 643.494C904.232 643.311 905.539 643.121 906.438 643.908C907.337 644.695 907.322 646.016 907.234 646.733C907.057 648.164 906.3 649.734 905.156 651.041C904.012 652.348 902.556 653.307 901.161 653.672C900.462 653.855 899.155 654.045 898.256 653.258C897.357 652.471 897.371 651.15 897.46 650.433C897.637 649.002 898.394 647.432 899.538 646.125C900.682 644.818 902.138 643.859 903.532 643.494ZM883.008 620.823C882.255 622.452 882.248 624.108 882.987 625.486C883.582 626.594 884.632 627.413 885.943 627.792C887.75 628.314 889.883 627.992 891.793 626.909C893.354 626.024 894.589 624.725 895.27 623.251C896.023 621.622 896.03 619.967 895.291 618.589C895.035 618.112 894.695 617.689 894.286 617.331C893.745 616.857 893.082 616.498 892.335 616.282C890.527 615.76 888.395 616.082 886.485 617.165L886.485 617.165C884.924 618.05 883.689 619.35 883.008 620.823ZM887.959 619.765C889.156 619.086 890.482 618.858 891.505 619.153C891.882 619.262 892.387 619.498 892.658 620.002C893.312 621.22 892.219 623.233 890.319 624.31C889.122 624.988 887.796 625.217 886.772 624.921C886.523 624.849 886.217 624.721 885.96 624.497C885.829 624.382 885.711 624.243 885.62 624.073C884.966 622.855 886.059 620.842 887.959 619.765ZM913.743 646.118C912.923 648.155 912.886 650.311 913.643 652.033C914.193 653.283 915.144 654.215 916.322 654.658C917.785 655.208 919.425 654.981 920.94 654.019C922.31 653.148 923.434 651.752 924.104 650.087L924.104 650.087C924.925 648.05 924.961 645.894 924.204 644.172C923.891 643.46 923.447 642.851 922.905 642.377C922.497 642.019 922.032 641.738 921.526 641.548C920.062 640.998 918.422 641.225 916.907 642.187C915.537 643.058 914.413 644.454 913.743 646.118ZM920.474 644.345C921.01 644.547 921.311 645.016 921.468 645.375C921.897 646.35 921.847 647.695 921.333 648.971L921.333 648.971C920.517 650.997 918.667 652.347 917.373 651.861C916.837 651.659 916.537 651.189 916.379 650.831C915.95 649.855 916.001 648.511 916.515 647.234C917.33 645.209 919.181 643.859 920.474 644.345Z" fill="#FF5B2E"/>
</g>
<g opacity="0.25">
<path d="M663.396 160.548C660.801 152.197 650.724 154.426 645.036 158.463C645.781 155.239 645.614 151.896 643.636 149.124C640.828 145.324 635.559 145.017 632.065 147.478C623.082 153.777 628.271 170.478 636.273 175.899C636.376 176.002 636.579 176.006 636.781 176.01C636.797 176.82 637.52 177.543 638.429 177.46C645.79 176.088 667.29 173.175 663.396 160.548ZM657.081 168.721C651.9 172.869 644.015 173.32 637.671 174.915C637.468 174.911 637.369 175.01 637.27 175.109L637.166 175.006C632.913 169.76 629.099 161.183 630.892 154.64C631.737 151.317 636.397 146.45 640.305 149.564C644.523 152.988 642.189 157.799 641.464 162.036C641.285 163.247 642.818 163.986 643.401 162.783C643.6 162.584 643.695 162.282 643.79 161.981C646.378 159.805 649.181 158.242 652.612 157.703C654.529 157.437 658.178 157.712 659.628 159.36C662.324 162.652 659.471 166.745 657.081 168.721Z" fill="#FF5B2E"/>
</g>
<defs>
<clipPath id="clip0_1_36">
<rect width="51" height="51" fill="white" transform="translate(20 344.476) rotate(-41.0256)"/>
</clipPath>
<clipPath id="clip1_1_36">
<rect width="51" height="51" fill="white" transform="translate(907.379 669.966) rotate(-138.81)"/>
</clipPath>
</defs>
</svg>
