<?xml version="1.0"?>
<svg width="1440" height="800" xmlns="http://www.w3.org/2000/svg" xmlns:svg="http://www.w3.org/2000/svg">
 <defs>
  <clipPath id="clip0_1_36">
   <rect fill="white" height="51" id="svg_1" transform="translate(20 344.476) rotate(-41.0256)" width="51"/>
  </clipPath>
  <clipPath id="clip1_1_36">
   <rect fill="white" height="51" id="svg_2" transform="translate(907.379 669.966) rotate(-138.81)" width="51"/>
  </clipPath>
 </defs>
 <g class="layer">
  <title>Layer 1</title>
  <path d="m0,0l1440,0l0,800c-595.5,-137.07 -1000.5,51.84 -1440,-47.35l0,-752.65z" fill="#98ddb6" id="svg_3"/>
  <g id="svg_4" opacity="0.15" transform="matrix(1, 0, 0, 1, 0, 0)">
   <path d="m1370.69,156.99c-0.57,-14.41 -17.57,-15.16 -28.35,-11.16c2.56,-4.81 3.72,-10.21 1.75,-15.47c-2.85,-7.25 -11.11,-9.98 -17.72,-7.56c-17,6.2 -15.86,35.01 -5.43,47.06c0.12,0.21 0.44,0.3 0.76,0.4c-0.32,1.29 0.53,2.75 2.01,3.01c12.31,0.95 47.79,5.49 46.98,-16.28zm-13.55,10.32c-10.02,4.4 -22.77,1.75 -33.55,1.58c-0.32,-0.09 -0.52,0.02 -0.72,0.14l-0.13,-0.21c-4.53,-10.17 -6.94,-25.45 -1.3,-35.11c2.77,-4.93 12.27,-10.69 17.16,-4.07c5.26,7.26 -0.51,13.92 -3.48,20.36c-0.8,1.85 1.33,3.68 2.77,2.01c0.4,-0.23 0.68,-0.67 0.96,-1.11c5.05,-2.36 10.18,-3.65 15.88,-3.05c3.16,0.4 8.86,2.4 10.46,5.64c2.89,6.39 -3.4,11.69 -8.05,13.82z" fill="#3ca66a" id="svg_5"/>
  </g>
  <g clip-path="url(#clip0_1_36)" id="svg_6" opacity="0.15" transform="matrix(1, 0, 0, 1, 0, 0)">
   <path d="m67.48,341.59c-5.31,-0.87 -10.08,0.25 -13.43,3.17c-3.36,2.92 -5.13,7.48 -5,12.86c0.12,4.84 1.81,9.58 4.52,12.71c1.32,1.51 2.79,2.26 4.37,2.23c1.56,-0.03 2.97,-0.81 4.3,-1.97c1.41,-1.23 2.73,-2.89 4.03,-4.51c1.13,-1.42 2.2,-2.76 3.18,-3.62c0.85,-0.73 2.24,-1.55 3.7,-2.42c3.44,-2.02 7.33,-4.31 7.86,-7.6c0.25,-1.57 -0.28,-3.12 -1.58,-4.61c-2.71,-3.12 -7.18,-5.46 -11.95,-6.24zm10.58,10.37c-0.31,1.91 -3.7,3.9 -6.42,5.51c-1.59,0.94 -3.1,1.82 -4.15,2.74c-1.19,1.03 -2.34,2.48 -3.56,4c-1.89,2.37 -4.24,5.32 -6.05,5.36c-0.25,0.01 -0.98,0.02 -2.05,-1.2c-2.24,-2.58 -3.69,-6.72 -3.79,-10.82c-0.11,-4.47 1.3,-8.22 3.97,-10.54c2.67,-2.32 6.57,-3.2 10.98,-2.47c4.05,0.66 7.95,2.67 10.19,5.25c1.04,1.19 0.92,1.93 0.88,2.17zm-25.08,-27.57c-2.17,-0.58 -4.22,-0.2 -5.64,1.04c-1.42,1.23 -2.07,3.21 -1.81,5.43c0.25,2.04 1.24,4.14 2.78,5.92c1.55,1.78 3.49,3.04 5.48,3.57c2.16,0.57 4.21,0.19 5.63,-1.04c1.42,-1.24 2.08,-3.21 1.81,-5.44c-0.25,-2.04 -1.23,-4.14 -2.78,-5.91c-1.54,-1.78 -3.49,-3.05 -5.47,-3.57zm5.28,9.84c0.09,0.72 0.1,2.04 -0.8,2.83c-0.9,0.78 -2.21,0.59 -2.91,0.4c-1.39,-0.37 -2.84,-1.33 -3.98,-2.64c-1.14,-1.31 -1.9,-2.88 -2.07,-4.32c-0.09,-0.71 -0.1,-2.03 0.8,-2.82c0.91,-0.78 2.21,-0.59 2.91,-0.41c1.39,0.37 2.85,1.34 3.99,2.65c1.14,1.31 1.89,2.88 2.06,4.31zm-16.8,0.17c-2.16,-0.57 -4.21,-0.19 -5.63,1.04c-1.42,1.24 -2.08,3.22 -1.81,5.44c0.24,2.04 1.23,4.14 2.78,5.92c1.54,1.77 3.49,3.04 5.47,3.57c2.17,0.57 4.22,0.19 5.64,-1.04c1.41,-1.24 2.07,-3.22 1.81,-5.44c-0.25,-2.04 -1.24,-4.14 -2.78,-5.91c-1.55,-1.78 -3.49,-3.05 -5.48,-3.58zm5.29,9.85c0.09,0.72 0.1,2.04 -0.81,2.82c-0.9,0.79 -2.2,0.59 -2.9,0.41c-1.4,-0.37 -2.85,-1.33 -3.99,-2.64c-1.14,-1.31 -1.89,-2.89 -2.06,-4.32c-0.09,-0.71 -0.1,-2.04 0.8,-2.82c0.9,-0.78 2.21,-0.59 2.91,-0.41c1.39,0.37 2.84,1.34 3.98,2.65c1.14,1.31 1.9,2.88 2.07,4.31zm25.24,-17.26c-1.51,-0.97 -3.15,-1.2 -4.62,-0.66c-1.18,0.44 -2.13,1.37 -2.68,2.62c-0.76,1.72 -0.73,3.88 0.08,5.92c0.67,1.66 1.79,3.06 3.15,3.94c1.52,0.96 3.16,1.19 4.62,0.65c0.51,-0.19 0.97,-0.47 1.38,-0.83c0.55,-0.47 0.99,-1.08 1.31,-1.79c0.76,-1.72 0.73,-3.88 -0.09,-5.91l0,0c-0.66,-1.67 -1.78,-3.07 -3.15,-3.94zm0.38,5.04c0.51,1.28 0.56,2.63 0.12,3.6c-0.15,0.36 -0.46,0.83 -0.99,1.03c-1.3,0.48 -3.14,-0.87 -3.95,-2.9c-0.51,-1.28 -0.56,-2.63 -0.13,-3.6c0.11,-0.24 0.27,-0.52 0.53,-0.75c0.13,-0.11 0.29,-0.21 0.47,-0.28c1.29,-0.48 3.14,0.88 3.95,2.9zm-29.6,21.98c-1.91,-1.09 -4.04,-1.41 -5.85,-0.9c-1.31,0.38 -2.37,1.19 -2.96,2.3c-0.75,1.38 -0.75,3.03 0,4.66c0.68,1.48 1.91,2.78 3.47,3.67l0,0c1.91,1.09 4.04,1.42 5.85,0.9c0.74,-0.21 1.41,-0.57 1.95,-1.04c0.41,-0.36 0.75,-0.78 1.01,-1.26c0.74,-1.37 0.74,-3.03 -0.01,-4.66c-0.67,-1.48 -1.91,-2.78 -3.46,-3.67zm0.84,6.91c-0.27,0.51 -0.78,0.74 -1.15,0.85c-1.03,0.29 -2.35,0.06 -3.55,-0.63l0,0c-1.9,-1.08 -2.98,-3.09 -2.33,-4.31c0.28,-0.5 0.78,-0.74 1.16,-0.84c1.02,-0.3 2.35,-0.07 3.54,0.62c1.9,1.08 2.99,3.09 2.33,4.31z" fill="#3ca66a" id="svg_7"/>
  </g>
  <g clip-path="url(#clip1_1_36)" id="svg_8" opacity="0.1">
   <path d="m898.09,623.32c-0.15,5.37 1.61,9.95 4.96,12.87c3.34,2.93 8.11,4.07 13.42,3.21c4.77,-0.77 9.25,-3.09 11.97,-6.2c1.33,-1.51 1.87,-3.07 1.63,-4.63c-0.25,-1.54 -1.21,-2.83 -2.54,-3.99c-1.41,-1.23 -3.23,-2.32 -5.01,-3.38c-1.56,-0.93 -3.04,-1.81 -4.02,-2.67c-0.84,-0.74 -1.84,-2 -2.9,-3.34c-2.47,-3.12 -5.26,-6.67 -8.6,-6.75c-1.58,-0.04 -3.05,0.69 -4.35,2.19c-2.73,3.11 -4.43,7.85 -4.56,12.69zm8.84,-11.89c1.93,0.05 4.37,3.13 6.33,5.61c1.14,1.45 2.22,2.82 3.27,3.74c1.19,1.04 2.78,1.98 4.46,2.99c2.6,1.55 5.84,3.48 6.12,5.27c0.04,0.24 0.16,0.96 -0.91,2.19c-2.25,2.57 -6.16,4.57 -10.21,5.22c-4.41,0.72 -8.31,-0.17 -10.98,-2.5c-2.66,-2.33 -4.06,-6.08 -3.93,-10.55c0.11,-4.1 1.57,-8.24 3.82,-10.81c1.04,-1.19 1.78,-1.17 2.03,-1.16zm-23.92,28.58c-0.28,2.23 0.38,4.21 1.79,5.45c1.42,1.23 3.47,1.62 5.63,1.05c1.99,-0.52 3.94,-1.78 5.49,-3.55c1.55,-1.77 2.54,-3.87 2.79,-5.91c0.28,-2.22 -0.38,-4.2 -1.79,-5.44c-1.41,-1.24 -3.47,-1.62 -5.63,-1.06c-1.99,0.52 -3.94,1.78 -5.49,3.56c-1.55,1.77 -2.54,3.87 -2.79,5.9zm9.04,-6.57c0.7,-0.18 2,-0.37 2.9,0.42c0.9,0.78 0.89,2.1 0.8,2.82c-0.18,1.43 -0.94,3 -2.08,4.31c-1.14,1.31 -2.6,2.27 -3.99,2.63c-0.7,0.18 -2.01,0.37 -2.91,-0.41c-0.9,-0.79 -0.89,-2.11 -0.8,-2.83c0.18,-1.43 0.94,-3 2.08,-4.31c1.15,-1.3 2.6,-2.26 4,-2.63zm2.44,16.63c-0.27,2.22 0.38,4.2 1.8,5.44c1.41,1.23 3.46,1.62 5.63,1.05c1.98,-0.52 3.93,-1.78 5.48,-3.55c1.56,-1.77 2.55,-3.87 2.8,-5.91c0.27,-2.22 -0.38,-4.2 -1.79,-5.44c-1.42,-1.24 -3.47,-1.62 -5.63,-1.06c-1.99,0.52 -3.94,1.78 -5.49,3.56c-1.55,1.77 -2.54,3.87 -2.8,5.91zm9.04,-6.58c0.7,-0.18 2.01,-0.37 2.91,0.42c0.9,0.79 0.88,2.11 0.79,2.82c-0.17,1.43 -0.93,3 -2.07,4.31c-1.15,1.31 -2.6,2.27 -4,2.63c-0.7,0.19 -2.01,0.37 -2.9,-0.41c-0.9,-0.79 -0.89,-2.11 -0.8,-2.83c0.18,-1.43 0.93,-3 2.08,-4.3c1.14,-1.31 2.6,-2.27 3.99,-2.64zm-20.52,-22.67c-0.76,1.63 -0.76,3.29 -0.02,4.67c0.59,1.1 1.64,1.92 2.95,2.3c1.81,0.52 3.94,0.2 5.85,-0.88c1.56,-0.89 2.8,-2.18 3.48,-3.66c0.75,-1.63 0.76,-3.28 0.02,-4.66c-0.26,-0.48 -0.59,-0.9 -1,-1.26c-0.54,-0.47 -1.21,-0.83 -1.95,-1.05c-1.81,-0.52 -3.95,-0.2 -5.85,0.88l0,0c-1.57,0.89 -2.8,2.19 -3.48,3.66zm4.95,-1.06c1.2,-0.67 2.52,-0.9 3.54,-0.61c0.38,0.11 0.89,0.35 1.16,0.85c0.65,1.22 -0.44,3.23 -2.34,4.31c-1.2,0.68 -2.52,0.91 -3.55,0.61c-0.25,-0.07 -0.55,-0.2 -0.81,-0.42c-0.13,-0.12 -0.25,-0.26 -0.34,-0.43c-0.65,-1.21 0.44,-3.23 2.34,-4.31zm25.78,26.36c-0.82,2.03 -0.85,4.19 -0.1,5.91c0.55,1.25 1.5,2.19 2.68,2.63c1.46,0.55 3.1,0.32 4.62,-0.64c1.37,-0.87 2.49,-2.27 3.16,-3.93l0,0c0.82,-2.04 0.86,-4.2 0.1,-5.92c-0.31,-0.71 -0.75,-1.32 -1.3,-1.79c-0.4,-0.36 -0.87,-0.64 -1.37,-0.83c-1.47,-0.55 -3.11,-0.32 -4.62,0.64c-1.37,0.87 -2.5,2.26 -3.17,3.93zm6.73,-1.77c0.54,0.2 0.84,0.67 1,1.03c0.43,0.97 0.38,2.32 -0.14,3.59l0,0c-0.81,2.03 -2.66,3.38 -3.96,2.89c-0.53,-0.2 -0.83,-0.67 -0.99,-1.03c-0.43,-0.97 -0.38,-2.32 0.13,-3.6c0.82,-2.02 2.67,-3.37 3.96,-2.88z" fill="#3ca66a" id="svg_9"/>
  </g>
  <g id="svg_10" opacity="0.25" transform="matrix(1, 0, 0, 1, 0, 0)">
   <path d="m663.4,160.55c-2.6,-8.35 -12.68,-6.12 -18.36,-2.09c0.74,-3.22 0.57,-6.56 -1.4,-9.34c-2.81,-3.8 -8.08,-4.1 -11.57,-1.64c-8.99,6.3 -3.8,23 4.2,28.42c0.11,0.1 0.31,0.11 0.51,0.11c0.02,0.81 0.74,1.53 1.65,1.45c7.36,-1.37 28.86,-4.28 24.97,-16.91zm-6.32,8.17c-5.18,4.15 -13.07,4.6 -19.41,6.19c-0.2,0 -0.3,0.1 -0.4,0.2l-0.1,-0.1c-4.26,-5.25 -8.07,-13.83 -6.28,-20.37c0.85,-3.32 5.51,-8.19 9.41,-5.08c4.22,3.43 1.89,8.24 1.16,12.48c-0.18,1.21 1.36,1.95 1.94,0.74c0.2,-0.2 0.3,-0.5 0.39,-0.8c2.59,-2.17 5.39,-3.74 8.82,-4.28c1.92,-0.26 5.57,0.01 7.02,1.66c2.69,3.29 -0.16,7.39 -2.55,9.36z" fill="#3ca66a" id="svg_11"/>
  </g>
 </g>
</svg>