<svg xmlns="http://www.w3.org/2000/svg" xmlns:xlink="http://www.w3.org/1999/xlink" width="420" zoomAndPan="magnify" viewBox="0 0 315 83.249999" height="111" preserveAspectRatio="xMidYMid meet" version="1.0"><defs><g/><clipPath id="b7e953fccb"><path d="M 2.542969 7.507812 L 69.4375 7.507812 L 69.4375 74.40625 L 2.542969 74.40625 Z M 2.542969 7.507812 " clip-rule="nonzero"/></clipPath><clipPath id="702336dcec"><path d="M 36.140625 7.507812 C 17.585938 7.507812 2.542969 22.554688 2.542969 41.109375 C 2.542969 59.664062 17.585938 74.710938 36.140625 74.710938 C 54.699219 74.710938 69.742188 59.664062 69.742188 41.109375 C 69.742188 22.554688 54.699219 7.507812 36.140625 7.507812 Z M 36.140625 7.507812 " clip-rule="nonzero"/></clipPath><clipPath id="f3fee56343"><path d="M 25 41 L 48 41 L 48 60.492188 L 25 60.492188 Z M 25 41 " clip-rule="nonzero"/></clipPath><clipPath id="7ac27b7e6b"><path d="M 44 38 L 53.1875 38 L 53.1875 49 L 44 49 Z M 44 38 " clip-rule="nonzero"/></clipPath><clipPath id="010b85370c"><path d="M 18.996094 37 L 29 37 L 29 49 L 18.996094 49 Z M 18.996094 37 " clip-rule="nonzero"/></clipPath><clipPath id="d43eb19aa1"><path d="M 25 27.042969 L 36 27.042969 L 36 42 L 25 42 Z M 25 27.042969 " clip-rule="nonzero"/></clipPath><clipPath id="d54b66b88e"><path d="M 36 27.042969 L 47 27.042969 L 47 42 L 36 42 Z M 36 27.042969 " clip-rule="nonzero"/></clipPath><clipPath id="c3f3832f1c"><path d="M 24 40 L 47 40 L 47 60.492188 L 24 60.492188 Z M 24 40 " clip-rule="nonzero"/></clipPath><clipPath id="8b1440b4ef"><path d="M 58.40625 39.667969 L 63.609375 39.667969 L 63.609375 44.871094 L 58.40625 44.871094 Z M 58.40625 39.667969 " clip-rule="nonzero"/></clipPath><clipPath id="8563a630fc"><path d="M 8.484375 39.667969 L 13.6875 39.667969 L 13.6875 44.871094 L 8.484375 44.871094 Z M 8.484375 39.667969 " clip-rule="nonzero"/></clipPath></defs><g clip-path="url(#b7e953fccb)"><g clip-path="url(#702336dcec)"><path stroke-linecap="butt" transform="matrix(0.743304, 0, 0, 0.743304, 2.541711, 7.509739)" fill="none" stroke-linejoin="miter" d="M 45.202145 -0.00259181 C 20.239681 -0.00259181 0.00169226 20.240653 0.00169226 45.203117 C 0.00169226 70.165581 20.239681 90.408825 45.202145 90.408825 C 70.169865 90.408825 90.407854 70.165581 90.407854 45.203117 C 90.407854 20.240653 70.169865 -0.00259181 45.202145 -0.00259181 Z M 45.202145 -0.00259181 " stroke="#468c65" stroke-width="2" stroke-opacity="1" stroke-miterlimit="4"/></g></g><g clip-path="url(#f3fee56343)"><path fill="#468c65" d="M 41.476562 60.554688 C 44.617188 60.328125 50.160156 58.113281 45.5 49.953125 C 41.085938 42.222656 37.328125 41.691406 37.328125 41.691406 C 36.550781 41.421875 35.667969 41.691406 35.667969 41.691406 C 35.667969 41.691406 32.722656 42.027344 27.496094 49.953125 C 22.015625 58.261719 28.710938 60.113281 31.90625 60.484375 C 32.535156 60.558594 34.46875 60.410156 34.46875 60.410156 C 34.46875 60.410156 36.371094 59.941406 38.925781 60.410156 L 41.476562 60.554688 " fill-opacity="1" fill-rule="nonzero"/></g><path fill="#468c65" d="M 26.070312 40.035156 C 26.070312 40.035156 31.421875 44.402344 27.054688 47.785156 C 22.6875 51.164062 19.589844 44.839844 20.011719 41.449219 C 20.433594 38.0625 22.382812 36.613281 26.070312 40.035156 " fill-opacity="1" fill-rule="nonzero"/><path fill="#468c65" d="M 34.566406 31.835938 C 34.566406 31.835938 38.910156 38.890625 32.636719 41.003906 C 26.359375 43.113281 25.335938 34.730469 27.148438 31.058594 C 28.957031 27.386719 31.738281 26.515625 34.566406 31.839844 " fill-opacity="1" fill-rule="nonzero"/><path fill="#468c65" d="M 38.609375 31.835938 C 38.609375 31.835938 34.261719 38.890625 40.539062 41.003906 C 46.816406 43.113281 47.835938 34.730469 46.027344 31.058594 C 44.214844 27.386719 41.4375 26.515625 38.609375 31.839844 " fill-opacity="1" fill-rule="nonzero"/><g clip-path="url(#7ac27b7e6b)"><path fill="#468c65" d="M 47.195312 40.035156 C 47.195312 40.035156 41.84375 44.402344 46.210938 47.785156 C 50.578125 51.164062 53.675781 44.839844 53.253906 41.449219 C 52.832031 38.0625 50.882812 36.613281 47.195312 40.035156 " fill-opacity="1" fill-rule="nonzero"/></g><g clip-path="url(#010b85370c)"><path fill="#000000" d="M 25.1875 39.625 C 26.46875 40.667969 27.742188 42.300781 27.785156 44.011719 C 27.824219 45.515625 26.632812 46.71875 25.378906 47.367188 C 24.300781 47.933594 23.09375 47.796875 22.144531 47.042969 C 21.203125 46.289062 20.582031 45.171875 20.183594 44.054688 C 19.792969 42.957031 19.589844 41.761719 19.765625 40.601562 C 19.914062 39.601562 20.269531 38.195312 21.367188 37.839844 C 21.890625 37.671875 22.472656 37.824219 22.960938 38.039062 C 23.796875 38.410156 24.523438 39.007812 25.1875 39.625 C 25.527344 39.933594 26.03125 39.433594 25.691406 39.121094 C 24.621094 38.136719 23.140625 36.894531 21.570312 37.078125 C 20.339844 37.222656 19.652344 38.296875 19.308594 39.390625 C 18.53125 41.859375 19.265625 44.707031 20.832031 46.714844 C 21.566406 47.652344 22.601562 48.355469 23.8125 48.4375 C 25.253906 48.53125 26.679688 47.582031 27.566406 46.519531 C 28.4375 45.480469 28.6875 44.160156 28.316406 42.863281 C 28.007812 41.78125 27.332031 40.820312 26.585938 39.996094 C 26.308594 39.6875 26.011719 39.382812 25.691406 39.121094 C 25.339844 38.832031 24.835938 39.332031 25.1875 39.625 " fill-opacity="1" fill-rule="nonzero"/></g><g clip-path="url(#d43eb19aa1)"><path fill="#000000" d="M 33.628906 31.355469 C 34.324219 32.484375 34.800781 33.8125 34.992188 35.121094 C 35.136719 36.117188 35.03125 37.175781 34.527344 38.0625 C 33.867188 39.222656 32.578125 39.851562 31.332031 40.164062 C 26.160156 41.472656 25.25 34.234375 26.707031 30.832031 C 27.21875 29.636719 28.21875 27.929688 29.667969 27.777344 C 30.363281 27.703125 31.007812 28.050781 31.523438 28.484375 C 32.433594 29.253906 33.074219 30.316406 33.628906 31.355469 C 33.847656 31.757812 34.460938 31.398438 34.246094 30.996094 C 33.496094 29.601562 32.511719 27.988281 31.003906 27.3125 C 29.925781 26.832031 28.839844 27.105469 27.953125 27.828125 C 26.988281 28.617188 26.300781 29.839844 25.886719 30.996094 C 25.515625 32.035156 25.371094 33.164062 25.363281 34.261719 C 25.34375 36.40625 25.902344 38.871094 27.683594 40.246094 C 29.667969 41.773438 32.890625 40.90625 34.515625 39.246094 C 36.675781 37.042969 35.675781 33.328125 34.246094 30.996094 C 34.003906 30.605469 33.390625 30.960938 33.628906 31.355469 " fill-opacity="1" fill-rule="nonzero"/></g><g clip-path="url(#d54b66b88e)"><path fill="#000000" d="M 37.671875 30.996094 C 36.96875 32.140625 36.46875 33.488281 36.257812 34.808594 C 36.085938 35.867188 36.121094 36.964844 36.546875 37.960938 C 37.046875 39.128906 38.046875 39.949219 39.195312 40.441406 C 40.371094 40.949219 41.710938 41.21875 42.96875 40.871094 C 43.988281 40.589844 44.800781 39.878906 45.367188 39.007812 C 46.601562 37.121094 46.753906 34.566406 46.390625 32.40625 C 46.230469 31.453125 45.910156 30.5625 45.445312 29.71875 C 44.925781 28.78125 44.21875 27.832031 43.238281 27.34375 C 40.703125 26.085938 38.671875 29.128906 37.671875 30.996094 C 37.457031 31.398438 38.070312 31.757812 38.285156 31.355469 C 38.992188 30.042969 39.964844 28.324219 41.496094 27.851562 C 42.59375 27.511719 43.535156 28.273438 44.179688 29.082031 C 45.648438 30.914062 46.039062 33.371094 45.765625 35.652344 C 45.523438 37.648438 44.546875 39.910156 42.347656 40.28125 C 41.074219 40.496094 39.625 40 38.574219 39.304688 C 37.652344 38.699219 37.054688 37.726562 36.910156 36.632812 C 36.675781 34.851562 37.355469 32.867188 38.285156 31.355469 C 38.527344 30.960938 37.910156 30.605469 37.671875 30.996094 " fill-opacity="1" fill-rule="nonzero"/></g><path fill="#000000" d="M 46.316406 39.121094 C 44.988281 40.207031 43.757812 41.851562 43.542969 43.585938 C 43.363281 45.039062 44.066406 46.3125 45.15625 47.234375 C 46.195312 48.109375 47.527344 48.675781 48.890625 48.328125 C 50.074219 48.027344 50.984375 47.078125 51.625 46.085938 C 52.324219 45.003906 52.769531 43.726562 52.941406 42.457031 C 53.222656 40.40625 52.558594 36.683594 49.75 37.097656 C 48.421875 37.292969 47.269531 38.242188 46.316406 39.121094 C 45.976562 39.433594 46.480469 39.933594 46.820312 39.625 C 47.773438 38.746094 49.324219 37.367188 50.753906 37.878906 C 51.859375 38.273438 52.179688 39.914062 52.28125 40.914062 C 52.410156 42.125 52.109375 43.378906 51.65625 44.496094 C 51.203125 45.605469 50.472656 46.71875 49.421875 47.339844 C 48.351562 47.976562 47.164062 47.742188 46.160156 47.097656 C 44.984375 46.34375 44.117188 45.164062 44.238281 43.726562 C 44.371094 42.140625 45.625 40.601562 46.820312 39.625 C 47.171875 39.332031 46.667969 38.832031 46.316406 39.121094 " fill-opacity="1" fill-rule="nonzero"/><path fill="#000000" d="M 45.949219 50.800781 C 45.859375 50.601562 45.757812 50.410156 45.65625 50.21875 C 45.566406 50.046875 45.332031 49.996094 45.171875 50.089844 C 44.996094 50.191406 44.953125 50.40625 45.042969 50.578125 C 45.144531 50.769531 45.246094 50.960938 45.335938 51.160156 C 45.417969 51.339844 45.667969 51.378906 45.824219 51.289062 C 46.003906 51.183594 46.03125 50.980469 45.949219 50.800781 " fill-opacity="1" fill-rule="nonzero"/><g clip-path="url(#c3f3832f1c)"><path fill="#000000" d="M 45.175781 49.320312 C 43.613281 46.59375 41.714844 43.871094 39.121094 42.03125 C 38.167969 41.355469 36.984375 40.734375 35.78125 40.769531 C 35.503906 40.777344 35.21875 40.820312 34.949219 40.894531 C 35.132812 40.84375 34.976562 40.890625 34.914062 40.902344 C 34.824219 40.917969 34.734375 40.949219 34.648438 40.976562 C 34.167969 41.144531 33.71875 41.402344 33.292969 41.6875 C 31.09375 43.160156 29.375 45.347656 27.839844 47.46875 C 26.6875 49.054688 25.554688 50.703125 24.882812 52.558594 C 24.464844 53.71875 24.269531 55.003906 24.585938 56.210938 C 25.09375 58.15625 26.917969 59.277344 28.714844 59.855469 C 29.535156 60.121094 30.382812 60.28125 31.234375 60.382812 C 31.839844 60.457031 32.46875 60.398438 33.074219 60.363281 C 33.386719 60.34375 33.714844 60.34375 34.023438 60.28125 C 34.550781 60.167969 35.089844 60.128906 35.625 60.109375 C 36.074219 60.09375 36.527344 60.109375 36.976562 60.140625 C 37.425781 60.171875 37.871094 60.289062 38.316406 60.3125 C 39.160156 60.363281 40.003906 60.410156 40.847656 60.457031 C 41.210938 60.476562 41.621094 60.375 41.976562 60.308594 C 42.414062 60.222656 42.839844 60.105469 43.257812 59.953125 C 44.128906 59.640625 44.949219 59.171875 45.609375 58.519531 C 47.414062 56.734375 47.203125 54.078125 46.394531 51.875 C 46.234375 51.449219 45.550781 51.632812 45.707031 52.0625 C 46.226562 53.476562 46.550781 55.03125 46.066406 56.496094 C 45.722656 57.523438 44.933594 58.308594 44.011719 58.835938 C 43.164062 59.320312 42.183594 59.597656 41.214844 59.710938 C 40.351562 59.816406 39.4375 59.667969 38.570312 59.617188 C 37.875 59.578125 37.191406 59.433594 36.492188 59.402344 C 35.746094 59.371094 34.996094 59.414062 34.253906 59.523438 C 34.097656 59.542969 33.945312 59.570312 33.792969 59.601562 C 33.6875 59.625 33.847656 59.601562 33.828125 59.601562 C 33.75 59.609375 33.671875 59.613281 33.59375 59.617188 C 32.964844 59.664062 32.328125 59.699219 31.695312 59.695312 C 30.871094 59.695312 30.019531 59.496094 29.222656 59.265625 C 28.335938 59.015625 27.480469 58.648438 26.734375 58.101562 C 25.996094 57.5625 25.460938 56.796875 25.242188 55.90625 C 24.9375 54.671875 25.296875 53.34375 25.78125 52.207031 C 26.570312 50.347656 27.808594 48.664062 29.015625 47.058594 C 29.933594 45.84375 30.925781 44.675781 32.03125 43.625 C 32.652344 43.035156 33.316406 42.484375 34.054688 42.046875 C 34.261719 41.921875 34.480469 41.808594 34.703125 41.710938 C 34.609375 41.753906 34.808594 41.671875 34.855469 41.65625 C 34.90625 41.636719 34.964844 41.621094 35.019531 41.605469 C 35.25 41.546875 34.90625 41.648438 35.160156 41.574219 C 35.667969 41.433594 36.125 41.496094 36.628906 41.589844 C 36.742188 41.609375 36.847656 41.640625 36.953125 41.675781 C 37.226562 41.761719 37.324219 41.808594 37.566406 41.925781 C 38.660156 42.457031 39.605469 43.246094 40.460938 44.097656 C 42.105469 45.730469 43.414062 47.675781 44.5625 49.679688 C 44.792969 50.074219 45.40625 49.71875 45.175781 49.320312 " fill-opacity="1" fill-rule="nonzero"/></g><g clip-path="url(#8b1440b4ef)"><path fill="#468c65" d="M 63.707031 41.597656 C 63.632812 41.507812 63.519531 41.464844 63.40625 41.449219 C 62.941406 41.402344 62.472656 41.375 62.007812 41.320312 C 61.859375 40.976562 61.734375 40.625 61.59375 40.277344 C 61.527344 40.117188 61.484375 39.933594 61.355469 39.804688 C 61.273438 39.714844 61.136719 39.667969 61.019531 39.707031 C 60.878906 39.753906 60.789062 39.886719 60.738281 40.015625 C 60.570312 40.4375 60.40625 40.859375 60.238281 41.28125 C 60.230469 41.304688 60.21875 41.332031 60.1875 41.328125 C 59.738281 41.367188 59.292969 41.40625 58.847656 41.445312 C 58.714844 41.457031 58.570312 41.507812 58.496094 41.625 C 58.410156 41.765625 58.445312 41.960938 58.554688 42.082031 C 58.929688 42.410156 59.292969 42.75 59.664062 43.082031 C 59.574219 43.523438 59.472656 43.964844 59.378906 44.40625 C 59.363281 44.503906 59.320312 44.59375 59.332031 44.695312 C 59.347656 44.835938 59.441406 44.984375 59.589844 45.015625 C 59.71875 45.046875 59.855469 45 59.964844 44.929688 C 60.347656 44.683594 60.734375 44.445312 61.113281 44.195312 C 61.148438 44.214844 61.183594 44.230469 61.21875 44.253906 C 61.574219 44.484375 61.933594 44.707031 62.289062 44.941406 C 62.398438 45.023438 62.546875 45.042969 62.671875 44.988281 C 62.824219 44.929688 62.921875 44.761719 62.902344 44.597656 C 62.789062 44.097656 62.671875 43.59375 62.566406 43.085938 C 62.902344 42.785156 63.230469 42.476562 63.5625 42.171875 C 63.617188 42.121094 63.679688 42.078125 63.714844 42.011719 C 63.789062 41.890625 63.800781 41.714844 63.707031 41.597656 Z M 63.707031 41.597656 " fill-opacity="1" fill-rule="nonzero"/></g><g clip-path="url(#8563a630fc)"><path fill="#468c65" d="M 13.785156 41.597656 C 13.714844 41.507812 13.597656 41.464844 13.484375 41.449219 C 13.019531 41.402344 12.550781 41.375 12.085938 41.320312 C 11.9375 40.976562 11.8125 40.625 11.675781 40.277344 C 11.605469 40.117188 11.5625 39.933594 11.4375 39.804688 C 11.351562 39.714844 11.21875 39.667969 11.097656 39.707031 C 10.957031 39.753906 10.871094 39.886719 10.816406 40.015625 C 10.652344 40.4375 10.484375 40.859375 10.316406 41.28125 C 10.308594 41.304688 10.296875 41.332031 10.265625 41.328125 C 9.820312 41.367188 9.375 41.40625 8.929688 41.445312 C 8.792969 41.457031 8.652344 41.507812 8.578125 41.625 C 8.488281 41.765625 8.523438 41.960938 8.636719 42.082031 C 9.007812 42.410156 9.371094 42.75 9.742188 43.082031 C 9.65625 43.523438 9.554688 43.964844 9.460938 44.40625 C 9.441406 44.503906 9.398438 44.59375 9.414062 44.695312 C 9.429688 44.835938 9.523438 44.984375 9.667969 45.015625 C 9.796875 45.046875 9.9375 45 10.046875 44.929688 C 10.425781 44.683594 10.8125 44.445312 11.195312 44.195312 C 11.230469 44.214844 11.265625 44.230469 11.296875 44.253906 C 11.652344 44.484375 12.015625 44.707031 12.371094 44.941406 C 12.476562 45.023438 12.628906 45.042969 12.753906 44.988281 C 12.902344 44.929688 13.003906 44.761719 12.980469 44.597656 C 12.867188 44.097656 12.753906 43.59375 12.648438 43.085938 C 12.980469 42.785156 13.3125 42.476562 13.644531 42.171875 C 13.699219 42.121094 13.761719 42.078125 13.796875 42.011719 C 13.871094 41.890625 13.878906 41.714844 13.785156 41.597656 Z M 13.785156 41.597656 " fill-opacity="1" fill-rule="nonzero"/></g><g fill="#468c65" fill-opacity="1"><g transform="translate(16.95306, 33.320369)"><g><path d="M 0.546875 -0.78125 L -7.53125 -6.5 L -5.65625 -9.140625 C -5.050781 -9.984375 -4.351562 -10.597656 -3.5625 -10.984375 C -2.769531 -11.378906 -1.953125 -11.535156 -1.109375 -11.453125 C -0.273438 -11.367188 0.539062 -11.046875 1.34375 -10.484375 C 2.132812 -9.921875 2.710938 -9.253906 3.078125 -8.484375 C 3.453125 -7.710938 3.585938 -6.882812 3.484375 -6 C 3.378906 -5.125 3.023438 -4.265625 2.421875 -3.421875 Z M 0.296875 -3.171875 L 1.140625 -4.359375 C 1.523438 -4.910156 1.742188 -5.46875 1.796875 -6.03125 C 1.859375 -6.59375 1.757812 -7.128906 1.5 -7.640625 C 1.25 -8.160156 0.847656 -8.613281 0.296875 -9 C -0.265625 -9.394531 -0.828125 -9.625 -1.390625 -9.6875 C -1.953125 -9.757812 -2.484375 -9.671875 -2.984375 -9.421875 C -3.492188 -9.179688 -3.941406 -8.785156 -4.328125 -8.234375 L -5.171875 -7.046875 Z M 0.296875 -3.171875 "/></g></g></g><g fill="#468c65" fill-opacity="1"><g transform="translate(21.870872, 26.603405)"><g><path d="M 1.296875 -1 L 0.15625 -2.46875 L 1.53125 -3.546875 L 2.671875 -2.078125 Z M 1.296875 -1 "/></g></g></g><g fill="#468c65" fill-opacity="1"><g transform="translate(24.142553, 23.8167)"><g><path d="M 5.5625 -1.734375 C 4.875 -1.503906 4.191406 -1.40625 3.515625 -1.4375 C 2.835938 -1.476562 2.203125 -1.640625 1.609375 -1.921875 C 1.023438 -2.210938 0.507812 -2.609375 0.0625 -3.109375 C -0.382812 -3.617188 -0.722656 -4.21875 -0.953125 -4.90625 C -1.191406 -5.601562 -1.289062 -6.285156 -1.25 -6.953125 C -1.207031 -7.628906 -1.039062 -8.257812 -0.75 -8.84375 C -0.457031 -9.425781 -0.0507812 -9.9375 0.46875 -10.375 C 0.988281 -10.820312 1.59375 -11.160156 2.28125 -11.390625 C 2.976562 -11.628906 3.664062 -11.726562 4.34375 -11.6875 C 5.019531 -11.644531 5.65625 -11.484375 6.25 -11.203125 C 6.84375 -10.929688 7.359375 -10.539062 7.796875 -10.03125 C 8.242188 -9.53125 8.585938 -8.929688 8.828125 -8.234375 C 9.054688 -7.546875 9.144531 -6.863281 9.09375 -6.1875 C 9.050781 -5.519531 8.878906 -4.890625 8.578125 -4.296875 C 8.285156 -3.710938 7.882812 -3.195312 7.375 -2.75 C 6.863281 -2.3125 6.257812 -1.972656 5.5625 -1.734375 Z M 5.03125 -3.28125 C 5.5 -3.4375 5.894531 -3.660156 6.21875 -3.953125 C 6.550781 -4.253906 6.8125 -4.601562 7 -5 C 7.1875 -5.394531 7.289062 -5.816406 7.3125 -6.265625 C 7.332031 -6.722656 7.265625 -7.1875 7.109375 -7.65625 C 6.941406 -8.132812 6.710938 -8.539062 6.421875 -8.875 C 6.140625 -9.21875 5.800781 -9.488281 5.40625 -9.6875 C 5.007812 -9.894531 4.59375 -10.007812 4.15625 -10.03125 C 3.726562 -10.050781 3.28125 -9.984375 2.8125 -9.828125 C 2.363281 -9.671875 1.972656 -9.445312 1.640625 -9.15625 C 1.304688 -8.875 1.046875 -8.53125 0.859375 -8.125 C 0.671875 -7.726562 0.5625 -7.304688 0.53125 -6.859375 C 0.507812 -6.421875 0.582031 -5.960938 0.75 -5.484375 C 0.90625 -5.015625 1.128906 -4.601562 1.421875 -4.25 C 1.710938 -3.90625 2.054688 -3.632812 2.453125 -3.4375 C 2.847656 -3.238281 3.265625 -3.125 3.703125 -3.09375 C 4.140625 -3.0625 4.582031 -3.125 5.03125 -3.28125 Z M 5.03125 -3.28125 "/></g></g></g><g fill="#468c65" fill-opacity="1"><g transform="translate(33.659398, 20.861743)"><g><path d="M 1.640625 0 L 1.640625 -1.859375 L 3.390625 -1.84375 L 3.390625 0.015625 Z M 1.640625 0 "/></g></g></g><g fill="#468c65" fill-opacity="1"><g transform="translate(37.153959, 20.034876)"><g><path d="M 0.90625 0.3125 L 4.203125 -9.015625 L 5.828125 -8.4375 L 7.640625 -2.453125 L 6.859375 -2.734375 L 11.96875 -6.265625 L 13.59375 -5.703125 L 10.296875 3.625 L 8.578125 3.03125 L 11.1875 -4.359375 L 11.78125 -3.953125 L 6.59375 -0.484375 L 6.390625 -0.5625 L 4.59375 -6.5 L 5.21875 -6.46875 L 2.609375 0.921875 Z M 0.90625 0.3125 "/></g></g></g><g fill="#468c65" fill-opacity="1"><g transform="translate(46.620029, 23.678345)"><g><path d="M 1.28125 1.03125 L 2.4375 -0.421875 L 3.796875 0.671875 L 2.640625 2.125 Z M 1.28125 1.03125 "/></g></g></g><g fill="#468c65" fill-opacity="1"><g transform="translate(49.79425, 25.550343)"><g><path d="M 0.078125 0.109375 L 10.140625 -2.734375 L 11.46875 -0.828125 L 5.328125 7.640625 L 4.203125 6.03125 L 5.546875 4.234375 L 3.359375 1.09375 L 1.203125 1.71875 Z M 4.953125 0.609375 L 6.546875 2.90625 L 9.640625 -1.265625 L 9.9375 -0.84375 Z M 4.953125 0.609375 "/></g></g></g><g fill="#468c65" fill-opacity="1"><g transform="translate(10.216271, 51.602701)"><g><path d="M 3.0625 -0.109375 C 3.238281 -0.0859375 3.410156 -0.0234375 3.578125 0.078125 C 3.742188 0.179688 3.878906 0.332031 3.984375 0.53125 C 4.109375 0.769531 4.160156 1.015625 4.140625 1.265625 C 4.117188 1.515625 4.023438 1.753906 3.859375 1.984375 C 3.691406 2.210938 3.460938 2.40625 3.171875 2.5625 C 2.890625 2.707031 2.601562 2.785156 2.3125 2.796875 C 2.03125 2.804688 1.78125 2.75 1.5625 2.625 C 1.34375 2.5 1.171875 2.316406 1.046875 2.078125 C 0.941406 1.878906 0.890625 1.679688 0.890625 1.484375 C 0.890625 1.296875 0.9375 1.125 1.03125 0.96875 L -0.734375 1.90625 L -1.1875 1.03125 L 3.015625 -1.1875 L 3.46875 -0.3125 Z M 2.703125 1.6875 C 2.921875 1.570312 3.0625 1.421875 3.125 1.234375 C 3.1875 1.046875 3.171875 0.863281 3.078125 0.6875 C 2.984375 0.507812 2.84375 0.394531 2.65625 0.34375 C 2.46875 0.289062 2.265625 0.320312 2.046875 0.4375 C 1.828125 0.550781 1.6875 0.703125 1.625 0.890625 C 1.5625 1.078125 1.578125 1.257812 1.671875 1.4375 C 1.765625 1.601562 1.90625 1.710938 2.09375 1.765625 C 2.289062 1.828125 2.492188 1.800781 2.703125 1.6875 Z M 2.703125 1.6875 "/></g></g></g><g fill="#468c65" fill-opacity="1"><g transform="translate(12.148378, 55.200387)"><g><path d="M 3.3125 1.796875 C 3.238281 1.859375 3.160156 1.910156 3.078125 1.953125 L 1.78125 0.125 C 1.632812 0.257812 1.546875 0.398438 1.515625 0.546875 C 1.492188 0.703125 1.53125 0.847656 1.625 0.984375 C 1.769531 1.191406 1.953125 1.269531 2.171875 1.21875 L 2.78125 2.078125 C 2.582031 2.148438 2.375 2.179688 2.15625 2.171875 C 1.9375 2.160156 1.726562 2.09375 1.53125 1.96875 C 1.332031 1.851562 1.15625 1.691406 1 1.484375 C 0.820312 1.222656 0.710938 0.953125 0.671875 0.671875 C 0.640625 0.398438 0.6875 0.132812 0.8125 -0.125 C 0.9375 -0.382812 1.132812 -0.613281 1.40625 -0.8125 C 1.675781 -1 1.953125 -1.109375 2.234375 -1.140625 C 2.515625 -1.171875 2.78125 -1.125 3.03125 -1 C 3.289062 -0.882812 3.507812 -0.695312 3.6875 -0.4375 C 3.875 -0.1875 3.984375 0.0703125 4.015625 0.34375 C 4.054688 0.613281 4.015625 0.875 3.890625 1.125 C 3.773438 1.382812 3.582031 1.609375 3.3125 1.796875 Z M 2.9375 0.828125 C 3.070312 0.722656 3.148438 0.59375 3.171875 0.4375 C 3.191406 0.289062 3.148438 0.148438 3.046875 0.015625 C 2.953125 -0.117188 2.832031 -0.203125 2.6875 -0.234375 C 2.539062 -0.273438 2.382812 -0.257812 2.21875 -0.1875 Z M 2.9375 0.828125 "/></g></g></g><g fill="#468c65" fill-opacity="1"><g transform="translate(14.318949, 58.174974)"><g><path d="M 2.046875 1.046875 L 1.421875 1.609375 L 1.09375 1.234375 C 0.851562 0.960938 0.734375 0.691406 0.734375 0.421875 C 0.734375 0.160156 0.882812 -0.0976562 1.1875 -0.359375 L 2.140625 -1.203125 L 1.875 -1.5 L 2.484375 -2.046875 L 2.75 -1.75 L 3.34375 -2.265625 L 4 -1.53125 L 3.40625 -1.015625 L 3.828125 -0.53125 L 3.21875 0.015625 L 2.796875 -0.46875 L 1.828125 0.390625 C 1.753906 0.453125 1.71875 0.515625 1.71875 0.578125 C 1.71875 0.640625 1.75 0.707031 1.8125 0.78125 Z M 2.046875 1.046875 "/></g></g></g><g fill="#468c65" fill-opacity="1"><g transform="translate(15.937802, 59.972746)"><g/></g></g><g fill="#468c65" fill-opacity="1"><g transform="translate(16.851654, 60.93028)"><g><path d="M 1.25 1.109375 C 1.03125 0.929688 0.867188 0.738281 0.765625 0.53125 C 0.660156 0.320312 0.613281 0.109375 0.625 -0.109375 C 0.632812 -0.335938 0.703125 -0.53125 0.828125 -0.6875 L 1.5625 -0.0625 C 1.5 0.0390625 1.476562 0.144531 1.5 0.25 C 1.53125 0.351562 1.597656 0.453125 1.703125 0.546875 C 1.796875 0.617188 1.882812 0.660156 1.96875 0.671875 C 2.050781 0.691406 2.117188 0.671875 2.171875 0.609375 C 2.234375 0.535156 2.238281 0.445312 2.1875 0.34375 C 2.132812 0.25 2.050781 0.117188 1.9375 -0.046875 C 1.789062 -0.242188 1.675781 -0.410156 1.59375 -0.546875 C 1.507812 -0.691406 1.46875 -0.851562 1.46875 -1.03125 C 1.46875 -1.207031 1.539062 -1.378906 1.6875 -1.546875 C 1.800781 -1.679688 1.945312 -1.769531 2.125 -1.8125 C 2.300781 -1.863281 2.492188 -1.859375 2.703125 -1.796875 C 2.910156 -1.742188 3.117188 -1.628906 3.328125 -1.453125 C 3.640625 -1.191406 3.816406 -0.910156 3.859375 -0.609375 C 3.910156 -0.304688 3.84375 -0.0195312 3.65625 0.25 L 2.96875 -0.328125 C 3.007812 -0.429688 3.019531 -0.535156 3 -0.640625 C 2.988281 -0.742188 2.929688 -0.835938 2.828125 -0.921875 C 2.742188 -0.992188 2.664062 -1.03125 2.59375 -1.03125 C 2.519531 -1.039062 2.453125 -1.015625 2.390625 -0.953125 C 2.335938 -0.878906 2.332031 -0.796875 2.375 -0.703125 C 2.414062 -0.609375 2.5 -0.476562 2.625 -0.3125 C 2.769531 -0.101562 2.878906 0.0664062 2.953125 0.203125 C 3.035156 0.347656 3.078125 0.507812 3.078125 0.6875 C 3.078125 0.863281 3.007812 1.035156 2.875 1.203125 C 2.75 1.347656 2.597656 1.441406 2.421875 1.484375 C 2.242188 1.535156 2.050781 1.523438 1.84375 1.453125 C 1.644531 1.390625 1.445312 1.273438 1.25 1.109375 Z M 1.25 1.109375 "/></g></g></g><g fill="#468c65" fill-opacity="1"><g transform="translate(19.421765, 63.125137)"><g><path d="M 3.734375 -1.453125 C 4.046875 -1.242188 4.226562 -0.976562 4.28125 -0.65625 C 4.332031 -0.332031 4.238281 0.00390625 4 0.359375 L 2.984375 1.9375 L 2.15625 1.40625 L 3.109375 -0.0625 C 3.222656 -0.238281 3.269531 -0.40625 3.25 -0.5625 C 3.226562 -0.71875 3.132812 -0.851562 2.96875 -0.96875 C 2.8125 -1.070312 2.648438 -1.101562 2.484375 -1.0625 C 2.328125 -1.019531 2.191406 -0.910156 2.078125 -0.734375 L 1.125 0.734375 L 0.296875 0.203125 L 2.625 -3.375 L 3.453125 -2.84375 L 2.640625 -1.59375 C 2.804688 -1.664062 2.984375 -1.6875 3.171875 -1.65625 C 3.367188 -1.632812 3.554688 -1.566406 3.734375 -1.453125 Z M 3.734375 -1.453125 "/></g></g></g><g fill="#468c65" fill-opacity="1"><g transform="translate(22.831856, 65.324302)"><g><path d="M 1.640625 0.828125 C 1.347656 0.691406 1.113281 0.503906 0.9375 0.265625 C 0.769531 0.0351562 0.671875 -0.21875 0.640625 -0.5 C 0.617188 -0.789062 0.679688 -1.085938 0.828125 -1.390625 C 0.972656 -1.691406 1.160156 -1.921875 1.390625 -2.078125 C 1.628906 -2.242188 1.894531 -2.332031 2.1875 -2.34375 C 2.488281 -2.363281 2.78125 -2.304688 3.0625 -2.171875 C 3.351562 -2.035156 3.578125 -1.847656 3.734375 -1.609375 C 3.898438 -1.378906 3.992188 -1.117188 4.015625 -0.828125 C 4.046875 -0.546875 3.988281 -0.253906 3.84375 0.046875 C 3.695312 0.347656 3.503906 0.578125 3.265625 0.734375 C 3.035156 0.898438 2.773438 0.988281 2.484375 1 C 2.203125 1.019531 1.921875 0.960938 1.640625 0.828125 Z M 2 0.046875 C 2.164062 0.128906 2.335938 0.140625 2.515625 0.078125 C 2.691406 0.015625 2.835938 -0.132812 2.953125 -0.375 C 3.066406 -0.613281 3.09375 -0.820312 3.03125 -1 C 2.96875 -1.175781 2.851562 -1.304688 2.6875 -1.390625 C 2.507812 -1.472656 2.335938 -1.476562 2.171875 -1.40625 C 2.003906 -1.34375 1.863281 -1.191406 1.75 -0.953125 C 1.632812 -0.710938 1.601562 -0.503906 1.65625 -0.328125 C 1.707031 -0.160156 1.820312 -0.0351562 2 0.046875 Z M 2 0.046875 "/></g></g></g><g fill="#468c65" fill-opacity="1"><g transform="translate(26.308485, 66.969346)"><g><path d="M 2.125 -2.234375 C 2.257812 -2.335938 2.421875 -2.40625 2.609375 -2.4375 C 2.796875 -2.476562 2.992188 -2.46875 3.203125 -2.40625 C 3.460938 -2.320312 3.671875 -2.179688 3.828125 -1.984375 C 3.992188 -1.796875 4.097656 -1.5625 4.140625 -1.28125 C 4.191406 -1.007812 4.164062 -0.710938 4.0625 -0.390625 C 3.96875 -0.0859375 3.820312 0.160156 3.625 0.359375 C 3.425781 0.566406 3.203125 0.703125 2.953125 0.765625 C 2.710938 0.835938 2.460938 0.832031 2.203125 0.75 C 1.992188 0.6875 1.820312 0.582031 1.6875 0.4375 C 1.5625 0.300781 1.472656 0.144531 1.421875 -0.03125 L 0.8125 1.859375 L -0.125 1.5625 L 1.3125 -2.953125 L 2.25 -2.65625 Z M 3.109375 -0.703125 C 3.179688 -0.941406 3.175781 -1.148438 3.09375 -1.328125 C 3.007812 -1.503906 2.875 -1.617188 2.6875 -1.671875 C 2.5 -1.734375 2.316406 -1.71875 2.140625 -1.625 C 1.960938 -1.53125 1.835938 -1.363281 1.765625 -1.125 C 1.691406 -0.882812 1.695312 -0.675781 1.78125 -0.5 C 1.875 -0.332031 2.015625 -0.21875 2.203125 -0.15625 C 2.378906 -0.101562 2.554688 -0.125 2.734375 -0.21875 C 2.910156 -0.3125 3.035156 -0.472656 3.109375 -0.703125 Z M 3.109375 -0.703125 "/></g></g></g><g fill="#468c65" fill-opacity="1"><g transform="translate(30.165714, 68.125396)"><g/></g></g><g fill="#468c65" fill-opacity="1"><g transform="translate(31.456916, 68.455066)"><g><path d="M 3.578125 -1.203125 C 3.566406 -1.109375 3.550781 -1.015625 3.53125 -0.921875 L 1.3125 -1.203125 C 1.300781 -1.003906 1.34375 -0.84375 1.4375 -0.71875 C 1.53125 -0.601562 1.660156 -0.535156 1.828125 -0.515625 C 2.078125 -0.484375 2.265625 -0.5625 2.390625 -0.75 L 3.421875 -0.609375 C 3.335938 -0.421875 3.210938 -0.25 3.046875 -0.09375 C 2.890625 0.0625 2.703125 0.171875 2.484375 0.234375 C 2.265625 0.296875 2.023438 0.3125 1.765625 0.28125 C 1.453125 0.238281 1.179688 0.132812 0.953125 -0.03125 C 0.734375 -0.195312 0.566406 -0.410156 0.453125 -0.671875 C 0.347656 -0.941406 0.316406 -1.242188 0.359375 -1.578125 C 0.410156 -1.910156 0.519531 -2.1875 0.6875 -2.40625 C 0.863281 -2.632812 1.078125 -2.800781 1.328125 -2.90625 C 1.585938 -3.007812 1.875 -3.039062 2.1875 -3 C 2.5 -2.957031 2.765625 -2.851562 2.984375 -2.6875 C 3.210938 -2.53125 3.378906 -2.320312 3.484375 -2.0625 C 3.585938 -1.8125 3.617188 -1.523438 3.578125 -1.203125 Z M 2.609375 -1.59375 C 2.628906 -1.757812 2.585938 -1.898438 2.484375 -2.015625 C 2.390625 -2.128906 2.257812 -2.195312 2.09375 -2.21875 C 1.925781 -2.238281 1.773438 -2.207031 1.640625 -2.125 C 1.515625 -2.050781 1.425781 -1.925781 1.375 -1.75 Z M 2.609375 -1.59375 "/></g></g></g><g fill="#468c65" fill-opacity="1"><g transform="translate(35.087919, 68.880623)"><g/></g></g><g fill="#468c65" fill-opacity="1"><g transform="translate(36.417634, 68.989121)"><g><path d="M 1.765625 -1 L 2.375 -3.3125 L 3.421875 -3.359375 L 2.40625 -0.09375 L 1.1875 -0.046875 L -0.078125 -3.21875 L 0.984375 -3.265625 Z M 1.765625 -1 "/></g></g></g><g fill="#468c65" fill-opacity="1"><g transform="translate(40.185836, 68.827856)"><g><path d="M 3.0625 -2.203125 C 3.082031 -2.109375 3.09375 -2.015625 3.09375 -1.921875 L 0.890625 -1.546875 C 0.953125 -1.347656 1.046875 -1.203125 1.171875 -1.109375 C 1.296875 -1.023438 1.4375 -1 1.59375 -1.03125 C 1.84375 -1.070312 2 -1.203125 2.0625 -1.421875 L 3.09375 -1.59375 C 3.070312 -1.375 3.003906 -1.171875 2.890625 -0.984375 C 2.785156 -0.796875 2.632812 -0.632812 2.4375 -0.5 C 2.238281 -0.375 2.007812 -0.289062 1.75 -0.25 C 1.445312 -0.195312 1.160156 -0.21875 0.890625 -0.3125 C 0.628906 -0.40625 0.410156 -0.5625 0.234375 -0.78125 C 0.0546875 -1.007812 -0.0546875 -1.289062 -0.109375 -1.625 C -0.160156 -1.945312 -0.140625 -2.238281 -0.046875 -2.5 C 0.046875 -2.769531 0.203125 -2.992188 0.421875 -3.171875 C 0.640625 -3.347656 0.898438 -3.460938 1.203125 -3.515625 C 1.515625 -3.566406 1.800781 -3.546875 2.0625 -3.453125 C 2.320312 -3.367188 2.539062 -3.21875 2.71875 -3 C 2.894531 -2.78125 3.007812 -2.515625 3.0625 -2.203125 Z M 2.03125 -2.28125 C 2 -2.445312 1.914062 -2.570312 1.78125 -2.65625 C 1.65625 -2.738281 1.507812 -2.765625 1.34375 -2.734375 C 1.1875 -2.703125 1.054688 -2.628906 0.953125 -2.515625 C 0.859375 -2.410156 0.8125 -2.265625 0.8125 -2.078125 Z M 2.03125 -2.28125 "/></g></g></g><g fill="#468c65" fill-opacity="1"><g transform="translate(43.810343, 68.177979)"><g><path d="M 1.859375 -1.390625 L 2.078125 -0.578125 L 1.59375 -0.4375 C 1.238281 -0.34375 0.941406 -0.351562 0.703125 -0.46875 C 0.472656 -0.59375 0.304688 -0.84375 0.203125 -1.21875 L -0.140625 -2.453125 L -0.515625 -2.34375 L -0.734375 -3.125 L -0.359375 -3.234375 L -0.578125 -4 L 0.359375 -4.265625 L 0.578125 -3.5 L 1.203125 -3.671875 L 1.421875 -2.890625 L 0.796875 -2.71875 L 1.140625 -1.46875 C 1.160156 -1.382812 1.203125 -1.328125 1.265625 -1.296875 C 1.328125 -1.265625 1.410156 -1.265625 1.515625 -1.296875 Z M 1.859375 -1.390625 "/></g></g></g><g fill="#468c65" fill-opacity="1"><g transform="translate(46.201558, 67.537289)"><g><path d="M 2.546875 -2.796875 C 2.578125 -2.703125 2.609375 -2.609375 2.640625 -2.515625 L 0.5625 -1.703125 C 0.65625 -1.523438 0.769531 -1.40625 0.90625 -1.34375 C 1.039062 -1.28125 1.1875 -1.28125 1.34375 -1.34375 C 1.570312 -1.4375 1.695312 -1.59375 1.71875 -1.8125 L 2.6875 -2.203125 C 2.707031 -1.992188 2.679688 -1.78125 2.609375 -1.5625 C 2.546875 -1.351562 2.429688 -1.164062 2.265625 -1 C 2.109375 -0.832031 1.910156 -0.703125 1.671875 -0.609375 C 1.378906 -0.492188 1.09375 -0.453125 0.8125 -0.484375 C 0.539062 -0.523438 0.289062 -0.632812 0.0625 -0.8125 C -0.15625 -1 -0.328125 -1.25 -0.453125 -1.5625 C -0.578125 -1.875 -0.617188 -2.171875 -0.578125 -2.453125 C -0.535156 -2.734375 -0.425781 -2.976562 -0.25 -3.1875 C -0.0703125 -3.40625 0.160156 -3.570312 0.453125 -3.6875 C 0.742188 -3.800781 1.023438 -3.84375 1.296875 -3.8125 C 1.578125 -3.78125 1.828125 -3.675781 2.046875 -3.5 C 2.265625 -3.320312 2.429688 -3.085938 2.546875 -2.796875 Z M 1.5 -2.65625 C 1.4375 -2.8125 1.332031 -2.914062 1.1875 -2.96875 C 1.050781 -3.019531 0.90625 -3.015625 0.75 -2.953125 C 0.59375 -2.890625 0.476562 -2.789062 0.40625 -2.65625 C 0.34375 -2.53125 0.328125 -2.378906 0.359375 -2.203125 Z M 1.5 -2.65625 "/></g></g></g><g fill="#468c65" fill-opacity="1"><g transform="translate(49.615294, 66.14877)"><g><path d="M -0.0625 -3 C -0.0390625 -3.207031 0.0195312 -3.394531 0.125 -3.5625 C 0.226562 -3.726562 0.378906 -3.863281 0.578125 -3.96875 L 1.0625 -3.046875 L 0.8125 -2.921875 C 0.59375 -2.804688 0.453125 -2.671875 0.390625 -2.515625 C 0.335938 -2.367188 0.367188 -2.179688 0.484375 -1.953125 L 1.1875 -0.625 L 0.3125 -0.171875 L -1.1875 -3.015625 L -0.3125 -3.46875 Z M -0.0625 -3 "/></g></g></g><g fill="#468c65" fill-opacity="1"><g transform="translate(51.873148, 64.942342)"><g><path d="M -1.140625 -3.46875 C -1.296875 -3.375 -1.445312 -3.34375 -1.59375 -3.375 C -1.75 -3.40625 -1.863281 -3.476562 -1.9375 -3.59375 C -2.019531 -3.726562 -2.039062 -3.867188 -2 -4.015625 C -1.96875 -4.160156 -1.875 -4.28125 -1.71875 -4.375 C -1.582031 -4.46875 -1.4375 -4.5 -1.28125 -4.46875 C -1.132812 -4.4375 -1.019531 -4.351562 -0.9375 -4.21875 C -0.863281 -4.101562 -0.84375 -3.972656 -0.875 -3.828125 C -0.914062 -3.679688 -1.003906 -3.5625 -1.140625 -3.46875 Z M -0.5625 -3.453125 L 1.140625 -0.71875 L 0.3125 -0.1875 L -1.390625 -2.921875 Z M -0.5625 -3.453125 "/></g></g></g><g fill="#468c65" fill-opacity="1"><g transform="translate(53.451132, 64.01532)"><g><path d="M -0.15625 -3.984375 C 0.144531 -4.222656 0.457031 -4.3125 0.78125 -4.25 C 1.113281 -4.1875 1.410156 -3.988281 1.671875 -3.65625 L 2.8125 -2.171875 L 2.046875 -1.578125 L 0.984375 -2.96875 C 0.847656 -3.125 0.695312 -3.21875 0.53125 -3.25 C 0.375 -3.28125 0.21875 -3.234375 0.0625 -3.109375 C -0.0820312 -2.992188 -0.160156 -2.851562 -0.171875 -2.6875 C -0.191406 -2.53125 -0.132812 -2.375 0 -2.21875 L 1.0625 -0.828125 L 0.28125 -0.21875 L -1.6875 -2.765625 L -0.90625 -3.375 L -0.640625 -3.046875 C -0.640625 -3.210938 -0.597656 -3.378906 -0.515625 -3.546875 C -0.441406 -3.710938 -0.320312 -3.859375 -0.15625 -3.984375 Z M -0.15625 -3.984375 "/></g></g></g><g fill="#468c65" fill-opacity="1"><g transform="translate(56.660939, 61.521921)"><g><path d="M -1.046875 -1.234375 C -1.273438 -1.460938 -1.4375 -1.707031 -1.53125 -1.96875 C -1.625 -2.238281 -1.640625 -2.5 -1.578125 -2.75 C -1.523438 -3 -1.40625 -3.21875 -1.21875 -3.40625 C -1.0625 -3.570312 -0.890625 -3.679688 -0.703125 -3.734375 C -0.515625 -3.796875 -0.335938 -3.8125 -0.171875 -3.78125 L -0.5 -4.09375 L 0.1875 -4.796875 L 2.484375 -2.546875 L 1.796875 -1.84375 L 1.46875 -2.15625 C 1.5 -1.976562 1.488281 -1.796875 1.4375 -1.609375 C 1.394531 -1.429688 1.296875 -1.257812 1.140625 -1.09375 C 0.953125 -0.90625 0.734375 -0.78125 0.484375 -0.71875 C 0.242188 -0.65625 -0.0078125 -0.664062 -0.28125 -0.75 C -0.550781 -0.84375 -0.804688 -1.003906 -1.046875 -1.234375 Z M 0.640625 -2.96875 C 0.460938 -3.144531 0.273438 -3.234375 0.078125 -3.234375 C -0.109375 -3.234375 -0.269531 -3.164062 -0.40625 -3.03125 C -0.539062 -2.882812 -0.609375 -2.710938 -0.609375 -2.515625 C -0.609375 -2.328125 -0.519531 -2.144531 -0.34375 -1.96875 C -0.164062 -1.800781 0.0195312 -1.710938 0.21875 -1.703125 C 0.425781 -1.691406 0.597656 -1.757812 0.734375 -1.90625 C 0.867188 -2.039062 0.929688 -2.207031 0.921875 -2.40625 C 0.921875 -2.601562 0.828125 -2.789062 0.640625 -2.96875 Z M -1.015625 -4.703125 L -1.5625 -3.3125 L -2.046875 -3.78125 L -1.5625 -5.234375 Z M -1.015625 -4.703125 "/></g></g></g><g fill="#468c65" fill-opacity="1"><g transform="translate(59.463508, 58.589961)"><g><path d="M -1.296875 -2.71875 C -1.359375 -2.914062 -1.375 -3.113281 -1.34375 -3.3125 C -1.320312 -3.507812 -1.242188 -3.691406 -1.109375 -3.859375 L -0.28125 -3.21875 L -0.453125 -3 C -0.597656 -2.8125 -0.671875 -2.632812 -0.671875 -2.46875 C -0.671875 -2.300781 -0.566406 -2.140625 -0.359375 -1.984375 L 0.828125 -1.0625 L 0.21875 -0.28125 L -2.328125 -2.25 L -1.71875 -3.03125 Z M -1.296875 -2.71875 "/></g></g></g><g fill="#468c65" fill-opacity="1"><g transform="translate(61.021069, 56.558104)"><g><path d="M -2.484375 -2.6875 C -2.578125 -2.539062 -2.695312 -2.445312 -2.84375 -2.40625 C -3 -2.375 -3.132812 -2.398438 -3.25 -2.484375 C -3.382812 -2.566406 -3.460938 -2.679688 -3.484375 -2.828125 C -3.503906 -2.984375 -3.46875 -3.132812 -3.375 -3.28125 C -3.28125 -3.414062 -3.160156 -3.5 -3.015625 -3.53125 C -2.867188 -3.570312 -2.726562 -3.550781 -2.59375 -3.46875 C -2.476562 -3.382812 -2.40625 -3.265625 -2.375 -3.109375 C -2.351562 -2.960938 -2.390625 -2.820312 -2.484375 -2.6875 Z M -1.9375 -2.90625 L 0.75 -1.125 L 0.203125 -0.296875 L -2.484375 -2.078125 Z M -1.9375 -2.90625 "/></g></g></g><g fill="#468c65" fill-opacity="1"><g transform="translate(62.075219, 55.06058)"><g><path d="M -1.34375 -0.890625 C -1.632812 -1.046875 -1.863281 -1.238281 -2.03125 -1.46875 C -2.195312 -1.695312 -2.285156 -1.9375 -2.296875 -2.1875 C -2.316406 -2.445312 -2.269531 -2.691406 -2.15625 -2.921875 C -2.039062 -3.128906 -1.898438 -3.285156 -1.734375 -3.390625 C -1.578125 -3.492188 -1.410156 -3.554688 -1.234375 -3.578125 L -1.640625 -3.78125 L -1.171875 -4.640625 L 1.671875 -3.140625 L 1.203125 -2.28125 L 0.796875 -2.5 C 0.890625 -2.332031 0.9375 -2.15625 0.9375 -1.96875 C 0.945312 -1.78125 0.894531 -1.582031 0.78125 -1.375 C 0.664062 -1.144531 0.492188 -0.960938 0.265625 -0.828125 C 0.046875 -0.703125 -0.203125 -0.644531 -0.484375 -0.65625 C -0.773438 -0.664062 -1.0625 -0.742188 -1.34375 -0.890625 Z M -0.21875 -3.03125 C -0.4375 -3.144531 -0.640625 -3.171875 -0.828125 -3.109375 C -1.015625 -3.054688 -1.15625 -2.945312 -1.25 -2.78125 C -1.34375 -2.601562 -1.359375 -2.421875 -1.296875 -2.234375 C -1.234375 -2.046875 -1.09375 -1.894531 -0.875 -1.78125 C -0.664062 -1.664062 -0.460938 -1.632812 -0.265625 -1.6875 C -0.078125 -1.738281 0.0625 -1.851562 0.15625 -2.03125 C 0.25 -2.195312 0.265625 -2.375 0.203125 -2.5625 C 0.140625 -2.757812 0 -2.914062 -0.21875 -3.03125 Z M -0.21875 -3.03125 "/></g></g></g><g fill="#468c65" fill-opacity="1"><g transform="translate(82.731767, 56.350694)"><g><path d="M 9.78125 -11.671875 L 9.78125 0 L 2.953125 0 L 2.953125 -33.109375 L 15.875 -33.109375 C 18.363281 -33.109375 20.550781 -32.65625 22.4375 -31.75 C 24.320312 -30.84375 25.769531 -29.550781 26.78125 -27.875 C 27.800781 -26.195312 28.3125 -24.289062 28.3125 -22.15625 C 28.3125 -18.90625 27.203125 -16.34375 24.984375 -14.46875 C 22.765625 -12.601562 19.691406 -11.671875 15.765625 -11.671875 Z M 9.78125 -17.1875 L 15.875 -17.1875 C 17.675781 -17.1875 19.050781 -17.609375 20 -18.453125 C 20.945312 -19.304688 21.421875 -20.523438 21.421875 -22.109375 C 21.421875 -23.734375 20.941406 -25.046875 19.984375 -26.046875 C 19.035156 -27.046875 17.71875 -27.5625 16.03125 -27.59375 L 9.78125 -27.59375 Z M 9.78125 -17.1875 "/></g></g></g><g fill="#468c65" fill-opacity="1"><g transform="translate(112.772011, 56.350694)"><g><path d="M 13.84375 0.453125 C 10.238281 0.453125 7.300781 -0.648438 5.03125 -2.859375 C 2.769531 -5.078125 1.640625 -8.03125 1.640625 -11.71875 L 1.640625 -12.34375 C 1.640625 -14.820312 2.113281 -17.035156 3.0625 -18.984375 C 4.019531 -20.929688 5.375 -22.429688 7.125 -23.484375 C 8.875 -24.535156 10.875 -25.0625 13.125 -25.0625 C 16.488281 -25.0625 19.132812 -24 21.0625 -21.875 C 23 -19.75 23.96875 -16.738281 23.96875 -12.84375 L 23.96875 -10.171875 L 8.296875 -10.171875 C 8.515625 -8.554688 9.15625 -7.265625 10.21875 -6.296875 C 11.289062 -5.328125 12.644531 -4.84375 14.28125 -4.84375 C 16.8125 -4.84375 18.789062 -5.757812 20.21875 -7.59375 L 23.453125 -3.984375 C 22.460938 -2.585938 21.125 -1.5 19.4375 -0.71875 C 17.757812 0.0625 15.894531 0.453125 13.84375 0.453125 Z M 13.09375 -19.734375 C 11.789062 -19.734375 10.734375 -19.296875 9.921875 -18.421875 C 9.109375 -17.546875 8.59375 -16.285156 8.375 -14.640625 L 17.515625 -14.640625 L 17.515625 -15.171875 C 17.484375 -16.628906 17.085938 -17.753906 16.328125 -18.546875 C 15.566406 -19.335938 14.488281 -19.734375 13.09375 -19.734375 Z M 13.09375 -19.734375 "/></g></g></g><g fill="#468c65" fill-opacity="1"><g transform="translate(137.945781, 56.350694)"><g><path d="M 10.390625 -30.65625 L 10.390625 -24.609375 L 14.59375 -24.609375 L 14.59375 -19.78125 L 10.390625 -19.78125 L 10.390625 -7.5 C 10.390625 -6.59375 10.5625 -5.941406 10.90625 -5.546875 C 11.257812 -5.148438 11.929688 -4.953125 12.921875 -4.953125 C 13.648438 -4.953125 14.289062 -5.007812 14.84375 -5.125 L 14.84375 -0.140625 C 13.5625 0.253906 12.238281 0.453125 10.875 0.453125 C 6.257812 0.453125 3.910156 -1.875 3.828125 -6.53125 L 3.828125 -19.78125 L 0.234375 -19.78125 L 0.234375 -24.609375 L 3.828125 -24.609375 L 3.828125 -30.65625 Z M 10.390625 -30.65625 "/></g></g></g><g fill="#468c65" fill-opacity="1"><g transform="translate(153.68223, 56.350694)"><g/></g></g><g fill="#468c65" fill-opacity="1"><g transform="translate(165.279901, 56.350694)"><g><path d="M 2.953125 0 L 2.953125 -33.109375 L 13.140625 -33.109375 C 16.054688 -33.109375 18.660156 -32.453125 20.953125 -31.140625 C 23.253906 -29.828125 25.046875 -27.960938 26.328125 -25.546875 C 27.617188 -23.128906 28.265625 -20.382812 28.265625 -17.3125 L 28.265625 -15.78125 C 28.265625 -12.707031 27.628906 -9.972656 26.359375 -7.578125 C 25.097656 -5.179688 23.316406 -3.320312 21.015625 -2 C 18.710938 -0.675781 16.113281 -0.0078125 13.21875 0 Z M 9.78125 -27.59375 L 9.78125 -5.484375 L 13.078125 -5.484375 C 15.742188 -5.484375 17.78125 -6.351562 19.1875 -8.09375 C 20.601562 -9.84375 21.328125 -12.335938 21.359375 -15.578125 L 21.359375 -17.328125 C 21.359375 -20.691406 20.660156 -23.242188 19.265625 -24.984375 C 17.867188 -26.722656 15.828125 -27.59375 13.140625 -27.59375 Z M 9.78125 -27.59375 "/></g></g></g><g fill="#468c65" fill-opacity="1"><g transform="translate(195.547551, 56.350694)"><g><path d="M 30.15625 -15.8125 C 30.15625 -12.550781 29.578125 -9.691406 28.421875 -7.234375 C 27.273438 -4.773438 25.628906 -2.878906 23.484375 -1.546875 C 21.335938 -0.210938 18.878906 0.453125 16.109375 0.453125 C 13.359375 0.453125 10.90625 -0.203125 8.75 -1.515625 C 6.601562 -2.835938 4.9375 -4.722656 3.75 -7.171875 C 2.570312 -9.617188 1.972656 -12.4375 1.953125 -15.625 L 1.953125 -17.265625 C 1.953125 -20.523438 2.539062 -23.394531 3.71875 -25.875 C 4.894531 -28.351562 6.554688 -30.253906 8.703125 -31.578125 C 10.847656 -32.898438 13.300781 -33.5625 16.0625 -33.5625 C 18.820312 -33.5625 21.269531 -32.898438 23.40625 -31.578125 C 25.550781 -30.253906 27.210938 -28.351562 28.390625 -25.875 C 29.566406 -23.394531 30.15625 -20.53125 30.15625 -17.28125 Z M 23.25 -17.3125 C 23.25 -20.78125 22.625 -23.414062 21.375 -25.21875 C 20.132812 -27.019531 18.363281 -27.921875 16.0625 -27.921875 C 13.769531 -27.921875 12 -27.03125 10.75 -25.25 C 9.507812 -23.46875 8.882812 -20.859375 8.875 -17.421875 L 8.875 -15.8125 C 8.875 -12.425781 9.492188 -9.800781 10.734375 -7.9375 C 11.972656 -6.070312 13.765625 -5.140625 16.109375 -5.140625 C 18.390625 -5.140625 20.144531 -6.035156 21.375 -7.828125 C 22.601562 -9.628906 23.226562 -12.25 23.25 -15.6875 Z M 23.25 -17.3125 "/></g></g></g><g fill="#468c65" fill-opacity="1"><g transform="translate(227.702665, 56.350694)"><g><path d="M 11.875 -33.109375 L 20.375 -9.09375 L 28.84375 -33.109375 L 37.796875 -33.109375 L 37.796875 0 L 30.953125 0 L 30.953125 -9.046875 L 31.640625 -24.671875 L 22.703125 0 L 18.015625 0 L 9.09375 -24.65625 L 9.78125 -9.046875 L 9.78125 0 L 2.953125 0 L 2.953125 -33.109375 Z M 11.875 -33.109375 "/></g></g></g><g fill="#468c65" fill-opacity="1"><g transform="translate(268.499181, 56.350694)"><g><path d="M 21.65625 -6.828125 L 9.6875 -6.828125 L 7.421875 0 L 0.15625 0 L 12.484375 -33.109375 L 18.8125 -33.109375 L 31.203125 0 L 23.953125 0 Z M 11.53125 -12.34375 L 19.8125 -12.34375 L 15.640625 -24.75 Z M 11.53125 -12.34375 "/></g></g></g></svg>