<svg xmlns="http://www.w3.org/2000/svg" xmlns:xlink="http://www.w3.org/1999/xlink" width="416" zoomAndPan="magnify" viewBox="0 0 312 68.999997" height="92" preserveAspectRatio="xMidYMid meet" version="1.0"><defs><g/><clipPath id="ba0958f7fb"><path d="M 1.074219 4.328125 L 64.28125 4.328125 L 64.28125 67.539062 L 1.074219 67.539062 Z M 1.074219 4.328125 " clip-rule="nonzero"/></clipPath><clipPath id="db51f17985"><path d="M 32.820312 4.328125 C 15.285156 4.328125 1.074219 18.542969 1.074219 36.078125 C 1.074219 53.609375 15.285156 67.824219 32.820312 67.824219 C 50.355469 67.824219 64.566406 53.609375 64.566406 36.078125 C 64.566406 18.542969 50.355469 4.328125 32.820312 4.328125 Z M 32.820312 4.328125 " clip-rule="nonzero"/></clipPath><clipPath id="d5b26d78b8"><path d="M 22 36 L 44 36 L 44 54.390625 L 22 54.390625 Z M 22 36 " clip-rule="nonzero"/></clipPath><clipPath id="3f9664e899"><path d="M 40 33 L 48.925781 33 L 48.925781 44 L 40 44 Z M 40 33 " clip-rule="nonzero"/></clipPath><clipPath id="4c275d2fa3"><path d="M 16.621094 32 L 26 32 L 26 44 L 16.621094 44 Z M 16.621094 32 " clip-rule="nonzero"/></clipPath><clipPath id="f29ed2db8d"><path d="M 22 22.785156 L 33 22.785156 L 33 37 L 22 37 Z M 22 22.785156 " clip-rule="nonzero"/></clipPath><clipPath id="95dc736152"><path d="M 32 22.785156 L 43 22.785156 L 43 36 L 32 36 Z M 32 22.785156 " clip-rule="nonzero"/></clipPath><clipPath id="c9ab43572c"><path d="M 39 32 L 48.925781 32 L 48.925781 43 L 39 43 Z M 39 32 " clip-rule="nonzero"/></clipPath><clipPath id="300193a0df"><path d="M 21 35 L 44 35 L 44 54.390625 L 21 54.390625 Z M 21 35 " clip-rule="nonzero"/></clipPath><clipPath id="ad0e5fa9a9"><path d="M 53.855469 34.714844 L 58.773438 34.714844 L 58.773438 39.632812 L 53.855469 39.632812 Z M 53.855469 34.714844 " clip-rule="nonzero"/></clipPath><clipPath id="41389e4b72"><path d="M 6.6875 34.714844 L 11.605469 34.714844 L 11.605469 39.632812 L 6.6875 39.632812 Z M 6.6875 34.714844 " clip-rule="nonzero"/></clipPath></defs><g clip-path="url(#ba0958f7fb)"><g clip-path="url(#db51f17985)"><path stroke-linecap="butt" transform="matrix(0.70233, 0, 0, 0.70233, 1.072874, 4.329986)" fill="none" stroke-linejoin="miter" d="M 45.203019 -0.00265008 C 20.235902 -0.00265008 0.00191414 20.2369 0.00191414 45.204017 C 0.00191414 70.165572 20.235902 90.405122 45.203019 90.405122 C 70.170136 90.405122 90.404124 70.165572 90.404124 45.204017 C 90.404124 20.2369 70.170136 -0.00265008 45.203019 -0.00265008 Z M 45.203019 -0.00265008 " stroke="#468c65" stroke-width="2.135748" stroke-opacity="1" stroke-miterlimit="4"/></g></g><g clip-path="url(#d5b26d78b8)"><path fill="#468c65" d="M 37.863281 54.453125 C 40.828125 54.238281 46.066406 52.144531 41.664062 44.433594 C 37.492188 37.132812 33.941406 36.628906 33.941406 36.628906 C 33.207031 36.375 32.371094 36.628906 32.371094 36.628906 C 32.371094 36.628906 29.589844 36.945312 24.652344 44.433594 C 19.472656 52.285156 25.796875 54.035156 28.816406 54.386719 C 29.414062 54.453125 31.242188 54.3125 31.242188 54.3125 C 31.242188 54.3125 33.039062 53.871094 35.449219 54.3125 L 37.863281 54.453125 " fill-opacity="1" fill-rule="nonzero"/></g><path fill="#468c65" d="M 23.304688 35.0625 C 23.304688 35.0625 28.363281 39.191406 24.234375 42.382812 C 20.109375 45.578125 17.179688 39.601562 17.578125 36.398438 C 17.980469 33.199219 19.820312 31.832031 23.304688 35.0625 " fill-opacity="1" fill-rule="nonzero"/><path fill="#468c65" d="M 31.332031 27.316406 C 31.332031 27.316406 35.4375 33.980469 29.507812 35.976562 C 23.578125 37.972656 22.613281 30.050781 24.324219 26.582031 C 26.035156 23.113281 28.660156 22.285156 31.332031 27.316406 " fill-opacity="1" fill-rule="nonzero"/><path fill="#468c65" d="M 35.152344 27.316406 C 35.152344 27.316406 31.042969 33.980469 36.976562 35.976562 C 42.90625 37.972656 43.871094 30.050781 42.160156 26.582031 C 40.449219 23.113281 37.824219 22.285156 35.152344 27.316406 " fill-opacity="1" fill-rule="nonzero"/><g clip-path="url(#3f9664e899)"><path fill="#468c65" d="M 43.265625 35.0625 C 43.265625 35.0625 38.207031 39.191406 42.332031 42.382812 C 46.460938 45.578125 49.390625 39.601562 48.988281 36.398438 C 48.589844 33.199219 46.75 31.832031 43.265625 35.0625 " fill-opacity="1" fill-rule="nonzero"/></g><g clip-path="url(#4c275d2fa3)"><path fill="#000000" d="M 22.472656 34.671875 C 23.679688 35.660156 24.882812 37.203125 24.925781 38.820312 C 24.960938 40.242188 23.835938 41.375 22.652344 41.992188 C 21.628906 42.523438 20.492188 42.394531 19.597656 41.683594 C 18.707031 40.972656 18.121094 39.914062 17.742188 38.859375 C 17.371094 37.820312 17.179688 36.695312 17.347656 35.597656 C 17.488281 34.652344 17.824219 33.324219 18.859375 32.988281 C 19.355469 32.832031 19.90625 32.976562 20.363281 33.179688 C 21.15625 33.527344 21.839844 34.09375 22.472656 34.671875 C 22.789062 34.964844 23.265625 34.492188 22.945312 34.199219 C 21.9375 33.269531 20.535156 32.097656 19.054688 32.269531 C 17.890625 32.40625 17.238281 33.421875 16.914062 34.453125 C 16.179688 36.785156 16.875 39.476562 18.355469 41.375 C 19.046875 42.257812 20.027344 42.925781 21.167969 43 C 22.53125 43.089844 23.878906 42.195312 24.71875 41.191406 C 25.539062 40.207031 25.777344 38.960938 25.425781 37.734375 C 25.136719 36.714844 24.496094 35.804688 23.792969 35.023438 C 23.53125 34.730469 23.25 34.449219 22.945312 34.199219 C 22.613281 33.925781 22.136719 34.398438 22.472656 34.671875 " fill-opacity="1" fill-rule="nonzero"/></g><g clip-path="url(#f29ed2db8d)"><path fill="#000000" d="M 30.449219 26.859375 C 31.105469 27.925781 31.554688 29.183594 31.734375 30.417969 C 31.871094 31.363281 31.773438 32.363281 31.296875 33.199219 C 30.671875 34.292969 29.453125 34.886719 28.277344 35.1875 C 23.390625 36.421875 22.527344 29.582031 23.90625 26.367188 C 24.390625 25.238281 25.332031 23.625 26.703125 23.480469 C 27.363281 23.410156 27.96875 23.738281 28.457031 24.148438 C 29.316406 24.875 29.921875 25.878906 30.449219 26.859375 C 30.652344 27.242188 31.230469 26.902344 31.027344 26.519531 C 30.320312 25.203125 29.390625 23.679688 27.964844 23.042969 C 26.949219 22.585938 25.921875 22.84375 25.082031 23.53125 C 24.171875 24.273438 23.519531 25.425781 23.132812 26.519531 C 22.78125 27.503906 22.644531 28.570312 22.636719 29.605469 C 22.617188 31.636719 23.148438 33.964844 24.832031 35.261719 C 26.703125 36.707031 29.746094 35.886719 31.285156 34.316406 C 33.324219 32.234375 32.382812 28.726562 31.027344 26.519531 C 30.800781 26.152344 30.21875 26.488281 30.449219 26.859375 " fill-opacity="1" fill-rule="nonzero"/></g><g clip-path="url(#95dc736152)"><path fill="#000000" d="M 34.265625 26.519531 C 33.601562 27.601562 33.132812 28.875 32.929688 30.125 C 32.769531 31.125 32.800781 32.164062 33.203125 33.105469 C 33.675781 34.207031 34.621094 34.980469 35.703125 35.445312 C 36.816406 35.925781 38.085938 36.179688 39.273438 35.851562 C 40.234375 35.585938 41 34.914062 41.539062 34.09375 C 42.703125 32.3125 42.847656 29.898438 42.503906 27.851562 C 42.351562 26.953125 42.050781 26.113281 41.609375 25.316406 C 41.121094 24.429688 40.453125 23.53125 39.523438 23.070312 C 37.132812 21.882812 35.210938 24.757812 34.265625 26.519531 C 34.0625 26.902344 34.640625 27.242188 34.847656 26.859375 C 35.511719 25.621094 36.433594 23.996094 37.878906 23.550781 C 38.917969 23.230469 39.804688 23.949219 40.417969 24.710938 C 41.804688 26.445312 42.171875 28.765625 41.914062 30.921875 C 41.6875 32.808594 40.761719 34.941406 38.683594 35.292969 C 37.480469 35.5 36.113281 35.027344 35.121094 34.375 C 34.25 33.800781 33.683594 32.882812 33.546875 31.847656 C 33.324219 30.164062 33.96875 28.289062 34.847656 26.859375 C 35.074219 26.488281 34.492188 26.152344 34.265625 26.519531 " fill-opacity="1" fill-rule="nonzero"/></g><g clip-path="url(#c9ab43572c)"><path fill="#000000" d="M 42.433594 34.199219 C 41.179688 35.226562 40.015625 36.777344 39.8125 38.417969 C 39.644531 39.789062 40.308594 40.992188 41.335938 41.863281 C 42.320312 42.691406 43.578125 43.226562 44.867188 42.898438 C 45.984375 42.613281 46.84375 41.71875 47.449219 40.78125 C 48.109375 39.757812 48.53125 38.550781 48.695312 37.351562 C 48.960938 35.410156 48.332031 31.894531 45.679688 32.285156 C 44.425781 32.46875 43.335938 33.367188 42.433594 34.199219 C 42.113281 34.492188 42.589844 34.964844 42.910156 34.671875 C 43.808594 33.84375 45.277344 32.542969 46.625 33.027344 C 47.671875 33.398438 47.972656 34.949219 48.070312 35.890625 C 48.191406 37.039062 47.90625 38.21875 47.476562 39.277344 C 47.050781 40.328125 46.359375 41.375 45.367188 41.964844 C 44.355469 42.566406 43.234375 42.34375 42.285156 41.734375 C 41.175781 41.023438 40.355469 39.910156 40.46875 38.550781 C 40.597656 37.050781 41.78125 35.597656 42.910156 34.671875 C 43.242188 34.398438 42.765625 33.925781 42.433594 34.199219 " fill-opacity="1" fill-rule="nonzero"/></g><path fill="#000000" d="M 42.089844 45.234375 C 42.003906 45.046875 41.90625 44.867188 41.8125 44.683594 C 41.726562 44.523438 41.503906 44.476562 41.351562 44.5625 C 41.1875 44.660156 41.144531 44.859375 41.230469 45.023438 C 41.328125 45.207031 41.421875 45.386719 41.507812 45.574219 C 41.585938 45.742188 41.824219 45.78125 41.96875 45.695312 C 42.136719 45.597656 42.164062 45.402344 42.089844 45.234375 " fill-opacity="1" fill-rule="nonzero"/><g clip-path="url(#300193a0df)"><path fill="#000000" d="M 41.359375 43.835938 C 39.882812 41.261719 38.089844 38.6875 35.636719 36.949219 C 34.738281 36.308594 33.617188 35.722656 32.480469 35.753906 C 32.21875 35.761719 31.945312 35.804688 31.695312 35.875 C 31.867188 35.828125 31.71875 35.871094 31.660156 35.882812 C 31.574219 35.898438 31.492188 35.925781 31.410156 35.953125 C 30.953125 36.109375 30.53125 36.355469 30.128906 36.621094 C 28.050781 38.015625 26.425781 40.082031 24.976562 42.085938 C 23.886719 43.585938 22.820312 45.144531 22.183594 46.898438 C 21.785156 47.992188 21.601562 49.203125 21.902344 50.347656 C 22.382812 52.183594 24.105469 53.246094 25.804688 53.792969 C 26.578125 54.039062 27.378906 54.191406 28.183594 54.289062 C 28.753906 54.359375 29.347656 54.300781 29.921875 54.269531 C 30.21875 54.253906 30.527344 54.253906 30.820312 54.191406 C 31.316406 54.085938 31.824219 54.046875 32.332031 54.03125 C 32.757812 54.015625 33.183594 54.03125 33.609375 54.058594 C 34.03125 54.089844 34.453125 54.199219 34.875 54.222656 C 35.671875 54.269531 36.46875 54.3125 37.265625 54.359375 C 37.609375 54.378906 38 54.28125 38.335938 54.21875 C 38.746094 54.136719 39.152344 54.027344 39.546875 53.882812 C 40.371094 53.585938 41.140625 53.144531 41.769531 52.527344 C 43.472656 50.84375 43.273438 48.332031 42.507812 46.25 C 42.359375 45.847656 41.710938 46.023438 41.859375 46.429688 C 42.347656 47.761719 42.65625 49.230469 42.195312 50.617188 C 41.875 51.585938 41.128906 52.328125 40.257812 52.824219 C 39.457031 53.285156 38.53125 53.546875 37.617188 53.65625 C 36.796875 53.753906 35.933594 53.613281 35.117188 53.566406 C 34.457031 53.527344 33.8125 53.390625 33.152344 53.363281 C 32.445312 53.332031 31.738281 53.375 31.035156 53.476562 C 30.890625 53.496094 30.746094 53.519531 30.601562 53.550781 C 30.5 53.574219 30.652344 53.550781 30.632812 53.550781 C 30.558594 53.554688 30.488281 53.5625 30.414062 53.566406 C 29.816406 53.609375 29.21875 53.644531 28.621094 53.640625 C 27.84375 53.636719 27.039062 53.449219 26.28125 53.234375 C 25.445312 52.996094 24.636719 52.652344 23.933594 52.132812 C 23.234375 51.621094 22.726562 50.898438 22.519531 50.058594 C 22.234375 48.894531 22.574219 47.636719 23.03125 46.5625 C 23.777344 44.804688 24.945312 43.214844 26.089844 41.699219 C 26.957031 40.550781 27.894531 39.445312 28.9375 38.453125 C 29.523438 37.898438 30.152344 37.375 30.847656 36.960938 C 31.046875 36.84375 31.25 36.738281 31.460938 36.648438 C 31.371094 36.6875 31.5625 36.609375 31.605469 36.59375 C 31.65625 36.578125 31.707031 36.5625 31.757812 36.546875 C 31.976562 36.492188 31.652344 36.585938 31.890625 36.519531 C 32.371094 36.382812 32.804688 36.441406 33.28125 36.53125 C 33.386719 36.546875 33.488281 36.578125 33.589844 36.613281 C 33.84375 36.695312 33.941406 36.738281 34.167969 36.847656 C 35.199219 37.351562 36.09375 38.097656 36.902344 38.902344 C 38.457031 40.441406 39.695312 42.28125 40.777344 44.175781 C 40.992188 44.550781 41.574219 44.210938 41.359375 43.835938 " fill-opacity="1" fill-rule="nonzero"/></g><g clip-path="url(#ad0e5fa9a9)"><path fill="#468c65" d="M 58.867188 36.539062 C 58.796875 36.453125 58.6875 36.414062 58.582031 36.398438 C 58.140625 36.355469 57.699219 36.328125 57.257812 36.277344 C 57.121094 35.953125 57 35.621094 56.871094 35.292969 C 56.804688 35.140625 56.765625 34.96875 56.644531 34.84375 C 56.566406 34.761719 56.4375 34.714844 56.324219 34.753906 C 56.195312 34.796875 56.109375 34.921875 56.0625 35.046875 C 55.90625 35.441406 55.746094 35.839844 55.589844 36.238281 C 55.582031 36.261719 55.570312 36.289062 55.539062 36.285156 C 55.117188 36.320312 54.695312 36.355469 54.277344 36.394531 C 54.148438 36.40625 54.015625 36.453125 53.941406 36.566406 C 53.859375 36.699219 53.894531 36.882812 54 36.996094 C 54.351562 37.308594 54.695312 37.628906 55.046875 37.941406 C 54.960938 38.359375 54.867188 38.773438 54.777344 39.191406 C 54.761719 39.285156 54.71875 39.371094 54.734375 39.464844 C 54.75 39.597656 54.835938 39.738281 54.976562 39.769531 C 55.097656 39.796875 55.226562 39.753906 55.332031 39.6875 C 55.691406 39.453125 56.058594 39.226562 56.417969 38.996094 C 56.449219 39.011719 56.484375 39.027344 56.515625 39.046875 C 56.851562 39.265625 57.191406 39.476562 57.527344 39.699219 C 57.628906 39.777344 57.773438 39.796875 57.890625 39.742188 C 58.03125 39.6875 58.125 39.527344 58.105469 39.375 C 58 38.898438 57.890625 38.421875 57.789062 37.945312 C 58.105469 37.660156 58.417969 37.367188 58.730469 37.082031 C 58.78125 37.035156 58.839844 36.992188 58.875 36.929688 C 58.945312 36.8125 58.953125 36.648438 58.867188 36.539062 Z M 58.867188 36.539062 " fill-opacity="1" fill-rule="nonzero"/></g><g clip-path="url(#41389e4b72)"><path fill="#468c65" d="M 11.695312 36.539062 C 11.628906 36.453125 11.519531 36.414062 11.414062 36.398438 C 10.972656 36.355469 10.53125 36.328125 10.089844 36.277344 C 9.953125 35.953125 9.832031 35.621094 9.703125 35.292969 C 9.636719 35.140625 9.597656 34.96875 9.476562 34.84375 C 9.398438 34.761719 9.269531 34.714844 9.15625 34.753906 C 9.023438 34.796875 8.941406 34.921875 8.894531 35.046875 C 8.734375 35.441406 8.578125 35.839844 8.421875 36.238281 C 8.410156 36.261719 8.402344 36.289062 8.371094 36.285156 C 7.949219 36.320312 7.527344 36.355469 7.105469 36.394531 C 6.980469 36.40625 6.847656 36.453125 6.773438 36.566406 C 6.691406 36.699219 6.726562 36.882812 6.832031 36.996094 C 7.183594 37.308594 7.527344 37.628906 7.878906 37.941406 C 7.792969 38.359375 7.699219 38.773438 7.609375 39.191406 C 7.59375 39.285156 7.550781 39.371094 7.566406 39.464844 C 7.578125 39.597656 7.667969 39.738281 7.804688 39.769531 C 7.929688 39.796875 8.058594 39.753906 8.164062 39.6875 C 8.523438 39.453125 8.886719 39.226562 9.25 38.996094 C 9.28125 39.011719 9.3125 39.027344 9.34375 39.046875 C 9.683594 39.265625 10.023438 39.476562 10.359375 39.699219 C 10.460938 39.777344 10.601562 39.796875 10.71875 39.742188 C 10.863281 39.6875 10.957031 39.527344 10.9375 39.375 C 10.832031 38.898438 10.722656 38.421875 10.621094 37.945312 C 10.9375 37.660156 11.25 37.367188 11.5625 37.082031 C 11.613281 37.035156 11.671875 36.992188 11.707031 36.929688 C 11.777344 36.8125 11.785156 36.648438 11.695312 36.539062 Z M 11.695312 36.539062 " fill-opacity="1" fill-rule="nonzero"/></g><g fill="#468c65" fill-opacity="1"><g transform="translate(14.689819, 28.71784)"><g><path d="M 0.515625 -0.734375 L -7.109375 -6.125 L -5.34375 -8.625 C -4.769531 -9.425781 -4.109375 -10.007812 -3.359375 -10.375 C -2.617188 -10.738281 -1.847656 -10.882812 -1.046875 -10.8125 C -0.253906 -10.738281 0.515625 -10.4375 1.265625 -9.90625 C 2.015625 -9.375 2.5625 -8.738281 2.90625 -8 C 3.257812 -7.269531 3.382812 -6.492188 3.28125 -5.671875 C 3.1875 -4.847656 2.851562 -4.035156 2.28125 -3.234375 Z M 0.28125 -2.984375 L 1.078125 -4.109375 C 1.453125 -4.628906 1.660156 -5.15625 1.703125 -5.6875 C 1.753906 -6.226562 1.660156 -6.738281 1.421875 -7.21875 C 1.191406 -7.695312 0.8125 -8.125 0.28125 -8.5 C -0.25 -8.875 -0.78125 -9.09375 -1.3125 -9.15625 C -1.84375 -9.21875 -2.347656 -9.132812 -2.828125 -8.90625 C -3.304688 -8.675781 -3.734375 -8.300781 -4.109375 -7.78125 L -4.90625 -6.65625 Z M 0.28125 -2.984375 "/></g></g></g><g fill="#468c65" fill-opacity="1"><g transform="translate(19.336542, 22.371141)"><g><path d="M 1.21875 -0.953125 L 0.140625 -2.328125 L 1.453125 -3.34375 L 2.53125 -1.96875 Z M 1.21875 -0.953125 "/></g></g></g><g fill="#468c65" fill-opacity="1"><g transform="translate(21.483, 19.738048)"><g><path d="M 5.265625 -1.640625 C 4.617188 -1.421875 3.972656 -1.328125 3.328125 -1.359375 C 2.691406 -1.398438 2.09375 -1.550781 1.53125 -1.8125 C 0.96875 -2.082031 0.472656 -2.457031 0.046875 -2.9375 C -0.367188 -3.425781 -0.691406 -3.992188 -0.921875 -4.640625 C -1.140625 -5.285156 -1.226562 -5.925781 -1.1875 -6.5625 C -1.144531 -7.195312 -0.984375 -7.789062 -0.703125 -8.34375 C -0.421875 -8.894531 -0.0390625 -9.378906 0.4375 -9.796875 C 0.925781 -10.222656 1.5 -10.550781 2.15625 -10.78125 C 2.8125 -11 3.457031 -11.085938 4.09375 -11.046875 C 4.738281 -11.003906 5.335938 -10.847656 5.890625 -10.578125 C 6.453125 -10.316406 6.941406 -9.945312 7.359375 -9.46875 C 7.785156 -9 8.109375 -8.441406 8.328125 -7.796875 C 8.554688 -7.148438 8.644531 -6.503906 8.59375 -5.859375 C 8.550781 -5.210938 8.390625 -4.609375 8.109375 -4.046875 C 7.828125 -3.492188 7.445312 -3.007812 6.96875 -2.59375 C 6.488281 -2.175781 5.921875 -1.859375 5.265625 -1.640625 Z M 4.765625 -3.109375 C 5.203125 -3.253906 5.578125 -3.46875 5.890625 -3.75 C 6.203125 -4.03125 6.445312 -4.351562 6.625 -4.71875 C 6.800781 -5.09375 6.894531 -5.492188 6.90625 -5.921875 C 6.925781 -6.347656 6.859375 -6.785156 6.703125 -7.234375 C 6.554688 -7.671875 6.34375 -8.054688 6.0625 -8.390625 C 5.789062 -8.722656 5.472656 -8.976562 5.109375 -9.15625 C 4.742188 -9.34375 4.351562 -9.445312 3.9375 -9.46875 C 3.519531 -9.5 3.09375 -9.441406 2.65625 -9.296875 C 2.226562 -9.148438 1.851562 -8.9375 1.53125 -8.65625 C 1.21875 -8.382812 0.972656 -8.0625 0.796875 -7.6875 C 0.617188 -7.320312 0.519531 -6.921875 0.5 -6.484375 C 0.476562 -6.054688 0.539062 -5.625 0.6875 -5.1875 C 0.84375 -4.738281 1.0625 -4.347656 1.34375 -4.015625 C 1.625 -3.691406 1.945312 -3.4375 2.3125 -3.25 C 2.675781 -3.070312 3.066406 -2.96875 3.484375 -2.9375 C 3.910156 -2.90625 4.335938 -2.960938 4.765625 -3.109375 Z M 4.765625 -3.109375 "/></g></g></g><g fill="#468c65" fill-opacity="1"><g transform="translate(30.475241, 16.945979)"><g><path d="M 1.546875 0 L 1.546875 -1.75 L 3.203125 -1.734375 L 3.203125 0.015625 Z M 1.546875 0 "/></g></g></g><g fill="#468c65" fill-opacity="1"><g transform="translate(33.777169, 16.164691)"><g><path d="M 0.859375 0.296875 L 3.96875 -8.515625 L 5.5 -7.96875 L 7.21875 -2.328125 L 6.484375 -2.578125 L 11.296875 -5.921875 L 12.828125 -5.390625 L 9.71875 3.421875 L 8.109375 2.859375 L 10.578125 -4.125 L 11.140625 -3.75 L 6.21875 -0.484375 L 6.046875 -0.546875 L 4.34375 -6.140625 L 4.921875 -6.109375 L 2.453125 0.875 Z M 0.859375 0.296875 "/></g></g></g><g fill="#468c65" fill-opacity="1"><g transform="translate(42.721437, 19.607319)"><g><path d="M 1.203125 0.96875 L 2.296875 -0.390625 L 3.59375 0.640625 L 2.5 2 Z M 1.203125 0.96875 "/></g></g></g><g fill="#468c65" fill-opacity="1"><g transform="translate(45.720681, 21.376126)"><g><path d="M 0.078125 0.109375 L 9.59375 -2.59375 L 10.859375 -0.765625 L 5.03125 7.21875 L 3.96875 5.6875 L 5.21875 4 L 3.15625 1.03125 L 1.140625 1.625 Z M 4.6875 0.578125 L 6.1875 2.734375 L 9.125 -1.203125 L 9.390625 -0.8125 Z M 4.6875 0.578125 "/></g></g></g><g fill="#468c65" fill-opacity="1"><g transform="translate(8.324387, 45.992385)"><g><path d="M 2.90625 -0.09375 C 3.070312 -0.0820312 3.234375 -0.03125 3.390625 0.0625 C 3.546875 0.164062 3.671875 0.3125 3.765625 0.5 C 3.878906 0.71875 3.925781 0.945312 3.90625 1.1875 C 3.894531 1.4375 3.8125 1.664062 3.65625 1.875 C 3.5 2.09375 3.285156 2.273438 3.015625 2.421875 C 2.734375 2.566406 2.457031 2.644531 2.1875 2.65625 C 1.925781 2.664062 1.6875 2.609375 1.46875 2.484375 C 1.257812 2.359375 1.097656 2.1875 0.984375 1.96875 C 0.890625 1.78125 0.84375 1.59375 0.84375 1.40625 C 0.84375 1.226562 0.882812 1.066406 0.96875 0.921875 L -0.6875 1.8125 L -1.125 0.984375 L 2.84375 -1.125 L 3.28125 -0.296875 Z M 2.578125 1.578125 C 2.773438 1.472656 2.898438 1.332031 2.953125 1.15625 C 3.015625 0.976562 3.003906 0.8125 2.921875 0.65625 C 2.835938 0.488281 2.703125 0.378906 2.515625 0.328125 C 2.335938 0.273438 2.144531 0.304688 1.9375 0.421875 C 1.726562 0.523438 1.59375 0.664062 1.53125 0.84375 C 1.476562 1.019531 1.492188 1.191406 1.578125 1.359375 C 1.660156 1.515625 1.789062 1.617188 1.96875 1.671875 C 2.15625 1.722656 2.359375 1.691406 2.578125 1.578125 Z M 2.578125 1.578125 "/></g></g></g><g fill="#468c65" fill-opacity="1"><g transform="translate(10.149989, 49.391754)"><g><path d="M 3.140625 1.6875 C 3.066406 1.75 2.992188 1.800781 2.921875 1.84375 L 1.6875 0.125 C 1.539062 0.238281 1.457031 0.367188 1.4375 0.515625 C 1.414062 0.660156 1.453125 0.796875 1.546875 0.921875 C 1.671875 1.109375 1.847656 1.1875 2.078125 1.15625 L 2.65625 1.96875 C 2.457031 2.050781 2.253906 2.078125 2.046875 2.046875 C 1.835938 2.023438 1.640625 1.960938 1.453125 1.859375 C 1.265625 1.753906 1.097656 1.601562 0.953125 1.40625 C 0.773438 1.164062 0.671875 0.910156 0.640625 0.640625 C 0.609375 0.367188 0.648438 0.113281 0.765625 -0.125 C 0.890625 -0.363281 1.078125 -0.570312 1.328125 -0.75 C 1.585938 -0.9375 1.847656 -1.046875 2.109375 -1.078125 C 2.378906 -1.117188 2.632812 -1.082031 2.875 -0.96875 C 3.113281 -0.851562 3.320312 -0.671875 3.5 -0.421875 C 3.664062 -0.179688 3.765625 0.0664062 3.796875 0.328125 C 3.835938 0.585938 3.800781 0.832031 3.6875 1.0625 C 3.570312 1.300781 3.390625 1.507812 3.140625 1.6875 Z M 2.78125 0.78125 C 2.914062 0.675781 2.988281 0.550781 3 0.40625 C 3.007812 0.269531 2.96875 0.132812 2.875 0 C 2.78125 -0.125 2.664062 -0.203125 2.53125 -0.234375 C 2.394531 -0.265625 2.25 -0.242188 2.09375 -0.171875 Z M 2.78125 0.78125 "/></g></g></g><g fill="#468c65" fill-opacity="1"><g transform="translate(12.200909, 52.202375)"><g><path d="M 1.9375 0.984375 L 1.34375 1.515625 L 1.03125 1.171875 C 0.800781 0.910156 0.6875 0.65625 0.6875 0.40625 C 0.695312 0.15625 0.84375 -0.09375 1.125 -0.34375 L 2.03125 -1.140625 L 1.78125 -1.421875 L 2.359375 -1.9375 L 2.609375 -1.65625 L 3.15625 -2.140625 L 3.765625 -1.4375 L 3.21875 -0.953125 L 3.625 -0.5 L 3.046875 0.015625 L 2.640625 -0.4375 L 1.71875 0.375 C 1.644531 0.4375 1.609375 0.492188 1.609375 0.546875 C 1.617188 0.597656 1.65625 0.664062 1.71875 0.75 Z M 1.9375 0.984375 "/></g></g></g><g fill="#468c65" fill-opacity="1"><g transform="translate(13.730527, 53.901039)"><g/></g></g><g fill="#468c65" fill-opacity="1"><g transform="translate(14.594002, 54.805795)"><g><path d="M 1.171875 1.046875 C 0.960938 0.878906 0.8125 0.691406 0.71875 0.484375 C 0.625 0.285156 0.582031 0.0859375 0.59375 -0.109375 C 0.601562 -0.304688 0.660156 -0.488281 0.765625 -0.65625 L 1.46875 -0.0625 C 1.414062 0.03125 1.398438 0.128906 1.421875 0.234375 C 1.453125 0.347656 1.515625 0.445312 1.609375 0.53125 C 1.703125 0.601562 1.785156 0.640625 1.859375 0.640625 C 1.941406 0.648438 2.007812 0.628906 2.0625 0.578125 C 2.113281 0.503906 2.113281 0.421875 2.0625 0.328125 C 2.019531 0.242188 1.9375 0.117188 1.8125 -0.046875 C 1.6875 -0.222656 1.585938 -0.378906 1.515625 -0.515625 C 1.441406 -0.660156 1.398438 -0.8125 1.390625 -0.96875 C 1.390625 -1.132812 1.457031 -1.296875 1.59375 -1.453125 C 1.707031 -1.585938 1.84375 -1.675781 2 -1.71875 C 2.164062 -1.769531 2.347656 -1.765625 2.546875 -1.703125 C 2.753906 -1.648438 2.957031 -1.539062 3.15625 -1.375 C 3.4375 -1.132812 3.597656 -0.867188 3.640625 -0.578125 C 3.691406 -0.285156 3.628906 -0.0078125 3.453125 0.25 L 2.8125 -0.3125 C 2.851562 -0.40625 2.863281 -0.5 2.84375 -0.59375 C 2.832031 -0.695312 2.773438 -0.789062 2.671875 -0.875 C 2.585938 -0.945312 2.507812 -0.984375 2.4375 -0.984375 C 2.375 -0.992188 2.316406 -0.96875 2.265625 -0.90625 C 2.210938 -0.84375 2.203125 -0.757812 2.234375 -0.65625 C 2.273438 -0.5625 2.363281 -0.4375 2.5 -0.28125 C 2.632812 -0.09375 2.734375 0.0664062 2.796875 0.203125 C 2.867188 0.335938 2.90625 0.484375 2.90625 0.640625 C 2.90625 0.804688 2.84375 0.972656 2.71875 1.140625 C 2.59375 1.273438 2.445312 1.363281 2.28125 1.40625 C 2.125 1.445312 1.945312 1.4375 1.75 1.375 C 1.550781 1.320312 1.359375 1.210938 1.171875 1.046875 Z M 1.171875 1.046875 "/></g></g></g><g fill="#468c65" fill-opacity="1"><g transform="translate(17.02244, 56.879659)"><g><path d="M 3.53125 -1.375 C 3.832031 -1.175781 4.003906 -0.925781 4.046875 -0.625 C 4.085938 -0.320312 4 -0.00390625 3.78125 0.328125 L 2.8125 1.828125 L 2.046875 1.328125 L 2.953125 -0.0625 C 3.054688 -0.226562 3.09375 -0.382812 3.0625 -0.53125 C 3.039062 -0.6875 2.957031 -0.8125 2.8125 -0.90625 C 2.65625 -1 2.5 -1.03125 2.34375 -1 C 2.195312 -0.96875 2.070312 -0.867188 1.96875 -0.703125 L 1.0625 0.6875 L 0.28125 0.1875 L 2.484375 -3.1875 L 3.265625 -2.6875 L 2.5 -1.53125 C 2.644531 -1.582031 2.8125 -1.59375 3 -1.5625 C 3.1875 -1.539062 3.363281 -1.476562 3.53125 -1.375 Z M 3.53125 -1.375 "/></g></g></g><g fill="#468c65" fill-opacity="1"><g transform="translate(20.244557, 58.957603)"><g><path d="M 1.53125 0.78125 C 1.269531 0.65625 1.054688 0.476562 0.890625 0.25 C 0.734375 0.03125 0.644531 -0.210938 0.625 -0.484375 C 0.601562 -0.753906 0.660156 -1.03125 0.796875 -1.3125 C 0.921875 -1.59375 1.097656 -1.8125 1.328125 -1.96875 C 1.554688 -2.125 1.804688 -2.207031 2.078125 -2.21875 C 2.347656 -2.238281 2.617188 -2.179688 2.890625 -2.046875 C 3.160156 -1.921875 3.375 -1.742188 3.53125 -1.515625 C 3.695312 -1.296875 3.789062 -1.050781 3.8125 -0.78125 C 3.832031 -0.507812 3.78125 -0.234375 3.65625 0.046875 C 3.519531 0.328125 3.332031 0.539062 3.09375 0.6875 C 2.863281 0.84375 2.613281 0.929688 2.34375 0.953125 C 2.082031 0.972656 1.8125 0.914062 1.53125 0.78125 Z M 1.875 0.046875 C 2.039062 0.117188 2.207031 0.125 2.375 0.0625 C 2.539062 0 2.675781 -0.140625 2.78125 -0.359375 C 2.882812 -0.578125 2.910156 -0.769531 2.859375 -0.9375 C 2.816406 -1.113281 2.710938 -1.238281 2.546875 -1.3125 C 2.390625 -1.394531 2.222656 -1.398438 2.046875 -1.328125 C 1.878906 -1.265625 1.742188 -1.125 1.640625 -0.90625 C 1.535156 -0.6875 1.507812 -0.488281 1.5625 -0.3125 C 1.613281 -0.144531 1.71875 -0.0234375 1.875 0.046875 Z M 1.875 0.046875 "/></g></g></g><g fill="#468c65" fill-opacity="1"><g transform="translate(23.529539, 60.51197)"><g><path d="M 2 -2.09375 C 2.132812 -2.207031 2.289062 -2.28125 2.46875 -2.3125 C 2.644531 -2.351562 2.832031 -2.34375 3.03125 -2.28125 C 3.269531 -2.207031 3.46875 -2.078125 3.625 -1.890625 C 3.78125 -1.703125 3.878906 -1.476562 3.921875 -1.21875 C 3.960938 -0.957031 3.9375 -0.675781 3.84375 -0.375 C 3.75 -0.0820312 3.609375 0.15625 3.421875 0.34375 C 3.242188 0.539062 3.035156 0.671875 2.796875 0.734375 C 2.554688 0.796875 2.316406 0.789062 2.078125 0.71875 C 1.878906 0.65625 1.71875 0.554688 1.59375 0.421875 C 1.46875 0.285156 1.378906 0.140625 1.328125 -0.015625 L 0.765625 1.78125 L -0.109375 1.5 L 1.25 -2.796875 L 2.125 -2.515625 Z M 2.9375 -0.671875 C 3 -0.890625 2.988281 -1.082031 2.90625 -1.25 C 2.832031 -1.414062 2.707031 -1.523438 2.53125 -1.578125 C 2.351562 -1.640625 2.179688 -1.625 2.015625 -1.53125 C 1.847656 -1.4375 1.726562 -1.273438 1.65625 -1.046875 C 1.59375 -0.828125 1.601562 -0.632812 1.6875 -0.46875 C 1.769531 -0.3125 1.898438 -0.203125 2.078125 -0.140625 C 2.242188 -0.0859375 2.410156 -0.101562 2.578125 -0.1875 C 2.742188 -0.28125 2.863281 -0.441406 2.9375 -0.671875 Z M 2.9375 -0.671875 "/></g></g></g><g fill="#468c65" fill-opacity="1"><g transform="translate(27.174144, 61.604293)"><g/></g></g><g fill="#468c65" fill-opacity="1"><g transform="translate(28.394171, 61.915792)"><g><path d="M 3.375 -1.140625 C 3.363281 -1.046875 3.347656 -0.953125 3.328125 -0.859375 L 1.234375 -1.140625 C 1.222656 -0.953125 1.265625 -0.800781 1.359375 -0.6875 C 1.453125 -0.582031 1.578125 -0.519531 1.734375 -0.5 C 1.960938 -0.46875 2.140625 -0.539062 2.265625 -0.71875 L 3.25 -0.59375 C 3.164062 -0.394531 3.046875 -0.226562 2.890625 -0.09375 C 2.742188 0.0390625 2.566406 0.140625 2.359375 0.203125 C 2.148438 0.273438 1.921875 0.296875 1.671875 0.265625 C 1.378906 0.222656 1.125 0.125 0.90625 -0.03125 C 0.695312 -0.1875 0.539062 -0.390625 0.4375 -0.640625 C 0.34375 -0.890625 0.316406 -1.171875 0.359375 -1.484375 C 0.398438 -1.804688 0.5 -2.070312 0.65625 -2.28125 C 0.820312 -2.5 1.023438 -2.65625 1.265625 -2.75 C 1.503906 -2.851562 1.773438 -2.882812 2.078125 -2.84375 C 2.367188 -2.800781 2.617188 -2.703125 2.828125 -2.546875 C 3.035156 -2.390625 3.1875 -2.191406 3.28125 -1.953125 C 3.382812 -1.710938 3.414062 -1.441406 3.375 -1.140625 Z M 2.46875 -1.5 C 2.488281 -1.664062 2.453125 -1.800781 2.359375 -1.90625 C 2.265625 -2.019531 2.132812 -2.085938 1.96875 -2.109375 C 1.8125 -2.128906 1.671875 -2.097656 1.546875 -2.015625 C 1.429688 -1.941406 1.347656 -1.820312 1.296875 -1.65625 Z M 2.46875 -1.5 "/></g></g></g><g fill="#468c65" fill-opacity="1"><g transform="translate(31.825019, 62.317884)"><g/></g></g><g fill="#468c65" fill-opacity="1"><g transform="translate(33.081433, 62.420405)"><g><path d="M 1.671875 -0.9375 L 2.234375 -3.140625 L 3.234375 -3.171875 L 2.28125 -0.09375 L 1.125 -0.046875 L -0.078125 -3.046875 L 0.921875 -3.09375 Z M 1.671875 -0.9375 "/></g></g></g><g fill="#468c65" fill-opacity="1"><g transform="translate(36.641922, 62.268026)"><g><path d="M 2.890625 -2.09375 C 2.910156 -2 2.921875 -1.90625 2.921875 -1.8125 L 0.84375 -1.453125 C 0.882812 -1.273438 0.96875 -1.144531 1.09375 -1.0625 C 1.21875 -0.976562 1.359375 -0.953125 1.515625 -0.984375 C 1.734375 -1.015625 1.875 -1.140625 1.9375 -1.359375 L 2.921875 -1.515625 C 2.910156 -1.304688 2.851562 -1.113281 2.75 -0.9375 C 2.644531 -0.757812 2.5 -0.609375 2.3125 -0.484375 C 2.125 -0.359375 1.90625 -0.273438 1.65625 -0.234375 C 1.375 -0.179688 1.109375 -0.203125 0.859375 -0.296875 C 0.609375 -0.390625 0.398438 -0.539062 0.234375 -0.75 C 0.0664062 -0.957031 -0.0390625 -1.21875 -0.09375 -1.53125 C -0.144531 -1.84375 -0.125 -2.125 -0.03125 -2.375 C 0.0507812 -2.632812 0.191406 -2.84375 0.390625 -3 C 0.597656 -3.164062 0.847656 -3.273438 1.140625 -3.328125 C 1.429688 -3.378906 1.695312 -3.363281 1.9375 -3.28125 C 2.1875 -3.195312 2.394531 -3.050781 2.5625 -2.84375 C 2.726562 -2.632812 2.835938 -2.382812 2.890625 -2.09375 Z M 1.921875 -2.15625 C 1.890625 -2.320312 1.8125 -2.441406 1.6875 -2.515625 C 1.5625 -2.585938 1.421875 -2.613281 1.265625 -2.59375 C 1.109375 -2.5625 0.984375 -2.488281 0.890625 -2.375 C 0.804688 -2.269531 0.765625 -2.128906 0.765625 -1.953125 Z M 1.921875 -2.15625 "/></g></g></g><g fill="#468c65" fill-opacity="1"><g transform="translate(40.066633, 61.653976)"><g><path d="M 1.734375 -1.3125 L 1.953125 -0.546875 L 1.5 -0.421875 C 1.175781 -0.328125 0.898438 -0.332031 0.671875 -0.4375 C 0.441406 -0.550781 0.28125 -0.789062 0.1875 -1.15625 L -0.140625 -2.3125 L -0.5 -2.21875 L -0.703125 -2.96875 L -0.34375 -3.0625 L -0.546875 -3.765625 L 0.359375 -4.015625 L 0.5625 -3.3125 L 1.140625 -3.484375 L 1.34375 -2.734375 L 0.765625 -2.5625 L 1.09375 -1.390625 C 1.113281 -1.296875 1.144531 -1.238281 1.1875 -1.21875 C 1.238281 -1.195312 1.316406 -1.195312 1.421875 -1.21875 Z M 1.734375 -1.3125 "/></g></g></g><g fill="#468c65" fill-opacity="1"><g transform="translate(42.326034, 61.048602)"><g><path d="M 2.40625 -2.640625 C 2.4375 -2.554688 2.460938 -2.46875 2.484375 -2.375 L 0.515625 -1.59375 C 0.597656 -1.425781 0.707031 -1.316406 0.84375 -1.265625 C 0.988281 -1.210938 1.132812 -1.21875 1.28125 -1.28125 C 1.488281 -1.363281 1.597656 -1.507812 1.609375 -1.71875 L 2.546875 -2.09375 C 2.566406 -1.882812 2.539062 -1.679688 2.46875 -1.484375 C 2.40625 -1.296875 2.300781 -1.117188 2.15625 -0.953125 C 2.007812 -0.796875 1.816406 -0.671875 1.578125 -0.578125 C 1.304688 -0.460938 1.039062 -0.421875 0.78125 -0.453125 C 0.519531 -0.492188 0.28125 -0.597656 0.0625 -0.765625 C -0.144531 -0.941406 -0.304688 -1.175781 -0.421875 -1.46875 C -0.535156 -1.769531 -0.570312 -2.050781 -0.53125 -2.3125 C -0.5 -2.582031 -0.398438 -2.816406 -0.234375 -3.015625 C -0.078125 -3.222656 0.140625 -3.382812 0.421875 -3.5 C 0.691406 -3.601562 0.957031 -3.640625 1.21875 -3.609375 C 1.476562 -3.578125 1.710938 -3.476562 1.921875 -3.3125 C 2.128906 -3.144531 2.289062 -2.921875 2.40625 -2.640625 Z M 1.421875 -2.515625 C 1.359375 -2.671875 1.257812 -2.769531 1.125 -2.8125 C 0.988281 -2.851562 0.847656 -2.84375 0.703125 -2.78125 C 0.554688 -2.726562 0.445312 -2.640625 0.375 -2.515625 C 0.3125 -2.390625 0.296875 -2.242188 0.328125 -2.078125 Z M 1.421875 -2.515625 "/></g></g></g><g fill="#468c65" fill-opacity="1"><g transform="translate(45.551597, 59.736625)"><g><path d="M -0.046875 -2.828125 C -0.0351562 -3.035156 0.015625 -3.21875 0.109375 -3.375 C 0.210938 -3.53125 0.351562 -3.65625 0.53125 -3.75 L 1 -2.890625 L 0.78125 -2.78125 C 0.570312 -2.664062 0.4375 -2.535156 0.375 -2.390625 C 0.320312 -2.242188 0.351562 -2.0625 0.46875 -1.84375 L 1.125 -0.59375 L 0.296875 -0.15625 L -1.125 -2.859375 L -0.296875 -3.296875 Z M -0.046875 -2.828125 "/></g></g></g><g fill="#468c65" fill-opacity="1"><g transform="translate(47.684988, 58.596696)"><g><path d="M -1.09375 -3.28125 C -1.226562 -3.1875 -1.363281 -3.148438 -1.5 -3.171875 C -1.632812 -3.203125 -1.742188 -3.28125 -1.828125 -3.40625 C -1.898438 -3.519531 -1.914062 -3.648438 -1.875 -3.796875 C -1.84375 -3.941406 -1.757812 -4.0625 -1.625 -4.15625 C -1.488281 -4.226562 -1.347656 -4.25 -1.203125 -4.21875 C -1.066406 -4.1875 -0.960938 -4.113281 -0.890625 -4 C -0.804688 -3.875 -0.785156 -3.738281 -0.828125 -3.59375 C -0.867188 -3.457031 -0.957031 -3.351562 -1.09375 -3.28125 Z M -0.53125 -3.25 L 1.078125 -0.671875 L 0.296875 -0.1875 L -1.3125 -2.765625 Z M -0.53125 -3.25 "/></g></g></g><g fill="#468c65" fill-opacity="1"><g transform="translate(49.175986, 57.720778)"><g><path d="M -0.140625 -3.78125 C 0.140625 -3.988281 0.429688 -4.066406 0.734375 -4.015625 C 1.046875 -3.960938 1.320312 -3.773438 1.5625 -3.453125 L 2.65625 -2.046875 L 1.921875 -1.484375 L 0.90625 -2.796875 C 0.789062 -2.953125 0.65625 -3.039062 0.5 -3.0625 C 0.351562 -3.09375 0.207031 -3.054688 0.0625 -2.953125 C -0.0703125 -2.835938 -0.144531 -2.703125 -0.15625 -2.546875 C -0.175781 -2.390625 -0.128906 -2.234375 -0.015625 -2.078125 L 1 -0.765625 L 0.265625 -0.203125 L -1.59375 -2.609375 L -0.859375 -3.171875 L -0.609375 -2.859375 C -0.617188 -3.023438 -0.582031 -3.1875 -0.5 -3.34375 C -0.414062 -3.507812 -0.296875 -3.65625 -0.140625 -3.78125 Z M -0.140625 -3.78125 "/></g></g></g><g fill="#468c65" fill-opacity="1"><g transform="translate(52.208858, 55.364826)"><g><path d="M -0.984375 -1.1875 C -1.203125 -1.40625 -1.359375 -1.632812 -1.453125 -1.875 C -1.546875 -2.125 -1.5625 -2.363281 -1.5 -2.59375 C -1.445312 -2.832031 -1.332031 -3.046875 -1.15625 -3.234375 C -1.007812 -3.378906 -0.847656 -3.476562 -0.671875 -3.53125 C -0.492188 -3.59375 -0.320312 -3.601562 -0.15625 -3.5625 L -0.46875 -3.859375 L 0.171875 -4.53125 L 2.34375 -2.40625 L 1.703125 -1.734375 L 1.390625 -2.046875 C 1.429688 -1.878906 1.425781 -1.707031 1.375 -1.53125 C 1.320312 -1.351562 1.21875 -1.1875 1.0625 -1.03125 C 0.894531 -0.851562 0.691406 -0.734375 0.453125 -0.671875 C 0.210938 -0.617188 -0.03125 -0.632812 -0.28125 -0.71875 C -0.53125 -0.8125 -0.765625 -0.96875 -0.984375 -1.1875 Z M 0.625 -2.796875 C 0.445312 -2.960938 0.265625 -3.046875 0.078125 -3.046875 C -0.0976562 -3.054688 -0.253906 -2.992188 -0.390625 -2.859375 C -0.523438 -2.722656 -0.585938 -2.5625 -0.578125 -2.375 C -0.578125 -2.1875 -0.492188 -2.015625 -0.328125 -1.859375 C -0.160156 -1.679688 0.015625 -1.59375 0.203125 -1.59375 C 0.390625 -1.59375 0.550781 -1.660156 0.6875 -1.796875 C 0.820312 -1.929688 0.882812 -2.085938 0.875 -2.265625 C 0.863281 -2.453125 0.78125 -2.628906 0.625 -2.796875 Z M -0.953125 -4.453125 L -1.5 -3.109375 L -1.953125 -3.5625 L -1.46875 -4.96875 Z M -0.953125 -4.453125 "/></g></g></g><g fill="#468c65" fill-opacity="1"><g transform="translate(54.85694, 52.594482)"><g><path d="M -1.21875 -2.546875 C -1.28125 -2.742188 -1.296875 -2.9375 -1.265625 -3.125 C -1.242188 -3.3125 -1.175781 -3.484375 -1.0625 -3.640625 L -0.296875 -3.03125 L -0.453125 -2.828125 C -0.585938 -2.648438 -0.648438 -2.484375 -0.640625 -2.328125 C -0.628906 -2.171875 -0.523438 -2.015625 -0.328125 -1.859375 L 0.78125 -1 L 0.21875 -0.265625 L -2.1875 -2.140625 L -1.625 -2.875 Z M -1.21875 -2.546875 "/></g></g></g><g fill="#468c65" fill-opacity="1"><g transform="translate(56.328644, 50.674627)"><g><path d="M -2.34375 -2.53125 C -2.4375 -2.394531 -2.550781 -2.304688 -2.6875 -2.265625 C -2.820312 -2.234375 -2.953125 -2.257812 -3.078125 -2.34375 C -3.191406 -2.425781 -3.257812 -2.535156 -3.28125 -2.671875 C -3.3125 -2.816406 -3.28125 -2.957031 -3.1875 -3.09375 C -3.101562 -3.226562 -2.988281 -3.3125 -2.84375 -3.34375 C -2.707031 -3.375 -2.582031 -3.347656 -2.46875 -3.265625 C -2.34375 -3.179688 -2.269531 -3.070312 -2.25 -2.9375 C -2.226562 -2.800781 -2.257812 -2.664062 -2.34375 -2.53125 Z M -1.828125 -2.734375 L 0.703125 -1.046875 L 0.1875 -0.28125 L -2.34375 -1.96875 Z M -1.828125 -2.734375 "/></g></g></g><g fill="#468c65" fill-opacity="1"><g transform="translate(57.32468, 49.259651)"><g><path d="M -1.28125 -0.859375 C -1.550781 -1.003906 -1.765625 -1.179688 -1.921875 -1.390625 C -2.078125 -1.597656 -2.160156 -1.828125 -2.171875 -2.078125 C -2.191406 -2.328125 -2.144531 -2.5625 -2.03125 -2.78125 C -1.9375 -2.96875 -1.8125 -3.109375 -1.65625 -3.203125 C -1.5 -3.304688 -1.335938 -3.363281 -1.171875 -3.375 L -1.546875 -3.578125 L -1.109375 -4.390625 L 1.578125 -2.96875 L 1.140625 -2.15625 L 0.75 -2.359375 C 0.84375 -2.210938 0.890625 -2.046875 0.890625 -1.859375 C 0.890625 -1.679688 0.835938 -1.492188 0.734375 -1.296875 C 0.628906 -1.085938 0.46875 -0.914062 0.25 -0.78125 C 0.0390625 -0.65625 -0.191406 -0.597656 -0.453125 -0.609375 C -0.722656 -0.628906 -1 -0.710938 -1.28125 -0.859375 Z M -0.203125 -2.859375 C -0.410156 -2.972656 -0.601562 -3.003906 -0.78125 -2.953125 C -0.96875 -2.898438 -1.101562 -2.789062 -1.1875 -2.625 C -1.28125 -2.457031 -1.296875 -2.285156 -1.234375 -2.109375 C -1.171875 -1.929688 -1.039062 -1.789062 -0.84375 -1.6875 C -0.625 -1.570312 -0.425781 -1.539062 -0.25 -1.59375 C -0.0703125 -1.644531 0.0625 -1.753906 0.15625 -1.921875 C 0.238281 -2.085938 0.25 -2.257812 0.1875 -2.4375 C 0.132812 -2.613281 0.00390625 -2.753906 -0.203125 -2.859375 Z M -0.203125 -2.859375 "/></g></g></g><g fill="#468c65" fill-opacity="1"><g transform="translate(83.567394, 47.705887)"><g><path d="M 7.765625 -9.265625 L 7.765625 0 L 2.34375 0 L 2.34375 -26.3125 L 12.609375 -26.3125 C 14.585938 -26.3125 16.328125 -25.945312 17.828125 -25.21875 C 19.328125 -24.5 20.476562 -23.472656 21.28125 -22.140625 C 22.09375 -20.804688 22.5 -19.289062 22.5 -17.59375 C 22.5 -15.019531 21.613281 -12.988281 19.84375 -11.5 C 18.082031 -10.007812 15.640625 -9.265625 12.515625 -9.265625 Z M 7.765625 -13.65625 L 12.609375 -13.65625 C 14.046875 -13.65625 15.140625 -13.992188 15.890625 -14.671875 C 16.640625 -15.347656 17.015625 -16.3125 17.015625 -17.5625 C 17.015625 -18.851562 16.632812 -19.894531 15.875 -20.6875 C 15.125 -21.476562 14.078125 -21.890625 12.734375 -21.921875 L 7.765625 -21.921875 Z M 7.765625 -13.65625 "/></g></g></g><g fill="#468c65" fill-opacity="1"><g transform="translate(107.430601, 47.705887)"><g><path d="M 18.171875 -11.40625 L 7.765625 -11.40625 L 7.765625 -4.359375 L 19.984375 -4.359375 L 19.984375 0 L 2.34375 0 L 2.34375 -26.3125 L 19.953125 -26.3125 L 19.953125 -21.921875 L 7.765625 -21.921875 L 7.765625 -15.640625 L 18.171875 -15.640625 Z M 18.171875 -11.40625 "/></g></g></g><g fill="#468c65" fill-opacity="1"><g transform="translate(128.240902, 47.705887)"><g><path d="M 22.15625 -21.921875 L 14.09375 -21.921875 L 14.09375 0 L 8.671875 0 L 8.671875 -21.921875 L 0.71875 -21.921875 L 0.71875 -26.3125 L 22.15625 -26.3125 Z M 22.15625 -21.921875 "/></g></g></g><g fill="#468c65" fill-opacity="1"><g transform="translate(151.128626, 47.705887)"><g/></g></g><g fill="#468c65" fill-opacity="1"><g transform="translate(160.34152, 47.705887)"><g><path d="M 2.34375 0 L 2.34375 -26.3125 L 10.4375 -26.3125 C 12.75 -26.3125 14.816406 -25.785156 16.640625 -24.734375 C 18.472656 -23.691406 19.898438 -22.210938 20.921875 -20.296875 C 21.941406 -18.378906 22.453125 -16.195312 22.453125 -13.75 L 22.453125 -12.53125 C 22.453125 -10.09375 21.945312 -7.921875 20.9375 -6.015625 C 19.9375 -4.109375 18.519531 -2.628906 16.6875 -1.578125 C 14.863281 -0.535156 12.800781 -0.0078125 10.5 0 Z M 7.765625 -21.921875 L 7.765625 -4.359375 L 10.390625 -4.359375 C 12.503906 -4.359375 14.117188 -5.050781 15.234375 -6.4375 C 16.359375 -7.820312 16.9375 -9.800781 16.96875 -12.375 L 16.96875 -13.765625 C 16.96875 -16.441406 16.410156 -18.46875 15.296875 -19.84375 C 14.191406 -21.226562 12.570312 -21.921875 10.4375 -21.921875 Z M 7.765625 -21.921875 "/></g></g></g><g fill="#468c65" fill-opacity="1"><g transform="translate(184.385372, 47.705887)"><g><path d="M 2.28125 -2.5625 C 2.28125 -3.394531 2.554688 -4.066406 3.109375 -4.578125 C 3.671875 -5.097656 4.375 -5.359375 5.21875 -5.359375 C 6.070312 -5.359375 6.78125 -5.097656 7.34375 -4.578125 C 7.90625 -4.066406 8.1875 -3.394531 8.1875 -2.5625 C 8.1875 -1.75 7.90625 -1.082031 7.34375 -0.5625 C 6.789062 -0.0507812 6.082031 0.203125 5.21875 0.203125 C 4.363281 0.203125 3.660156 -0.0507812 3.109375 -0.5625 C 2.554688 -1.082031 2.28125 -1.75 2.28125 -2.5625 Z M 2.28125 -2.5625 "/></g></g></g><g fill="#468c65" fill-opacity="1"><g transform="translate(195.133753, 47.705887)"><g><path d="M 23.953125 -12.5625 C 23.953125 -9.96875 23.492188 -7.691406 22.578125 -5.734375 C 21.660156 -3.785156 20.347656 -2.28125 18.640625 -1.21875 C 16.941406 -0.164062 14.992188 0.359375 12.796875 0.359375 C 10.609375 0.359375 8.660156 -0.160156 6.953125 -1.203125 C 5.242188 -2.253906 3.921875 -3.753906 2.984375 -5.703125 C 2.046875 -7.648438 1.566406 -9.882812 1.546875 -12.40625 L 1.546875 -13.71875 C 1.546875 -16.300781 2.015625 -18.578125 2.953125 -20.546875 C 3.890625 -22.515625 5.207031 -24.023438 6.90625 -25.078125 C 8.613281 -26.140625 10.5625 -26.671875 12.75 -26.671875 C 14.945312 -26.671875 16.894531 -26.140625 18.59375 -25.078125 C 20.300781 -24.023438 21.617188 -22.515625 22.546875 -20.546875 C 23.484375 -18.578125 23.953125 -16.304688 23.953125 -13.734375 Z M 18.46875 -13.75 C 18.46875 -16.507812 17.972656 -18.601562 16.984375 -20.03125 C 15.992188 -21.46875 14.582031 -22.1875 12.75 -22.1875 C 10.9375 -22.1875 9.535156 -21.476562 8.546875 -20.0625 C 7.554688 -18.644531 7.054688 -16.570312 7.046875 -13.84375 L 7.046875 -12.5625 C 7.046875 -9.875 7.539062 -7.785156 8.53125 -6.296875 C 9.519531 -4.816406 10.941406 -4.078125 12.796875 -4.078125 C 14.609375 -4.078125 16.003906 -4.789062 16.984375 -6.21875 C 17.960938 -7.644531 18.457031 -9.726562 18.46875 -12.46875 Z M 18.46875 -13.75 "/></g></g></g><g fill="#468c65" fill-opacity="1"><g transform="translate(220.676953, 47.705887)"><g><path d="M 2.28125 -2.5625 C 2.28125 -3.394531 2.554688 -4.066406 3.109375 -4.578125 C 3.671875 -5.097656 4.375 -5.359375 5.21875 -5.359375 C 6.070312 -5.359375 6.78125 -5.097656 7.34375 -4.578125 C 7.90625 -4.066406 8.1875 -3.394531 8.1875 -2.5625 C 8.1875 -1.75 7.90625 -1.082031 7.34375 -0.5625 C 6.789062 -0.0507812 6.082031 0.203125 5.21875 0.203125 C 4.363281 0.203125 3.660156 -0.0507812 3.109375 -0.5625 C 2.554688 -1.082031 2.28125 -1.75 2.28125 -2.5625 Z M 2.28125 -2.5625 "/></g></g></g><g fill="#468c65" fill-opacity="1"><g transform="translate(231.425334, 47.705887)"><g><path d="M 9.4375 -26.3125 L 16.1875 -7.234375 L 22.90625 -26.3125 L 30.03125 -26.3125 L 30.03125 0 L 24.59375 0 L 24.59375 -7.1875 L 25.125 -19.609375 L 18.03125 0 L 14.3125 0 L 7.234375 -19.578125 L 7.765625 -7.1875 L 7.765625 0 L 2.34375 0 L 2.34375 -26.3125 Z M 9.4375 -26.3125 "/></g></g></g><g fill="#468c65" fill-opacity="1"><g transform="translate(263.833042, 47.705887)"><g><path d="M 2.28125 -2.5625 C 2.28125 -3.394531 2.554688 -4.066406 3.109375 -4.578125 C 3.671875 -5.097656 4.375 -5.359375 5.21875 -5.359375 C 6.070312 -5.359375 6.78125 -5.097656 7.34375 -4.578125 C 7.90625 -4.066406 8.1875 -3.394531 8.1875 -2.5625 C 8.1875 -1.75 7.90625 -1.082031 7.34375 -0.5625 C 6.789062 -0.0507812 6.082031 0.203125 5.21875 0.203125 C 4.363281 0.203125 3.660156 -0.0507812 3.109375 -0.5625 C 2.554688 -1.082031 2.28125 -1.75 2.28125 -2.5625 Z M 2.28125 -2.5625 "/></g></g></g><g fill="#468c65" fill-opacity="1"><g transform="translate(274.581424, 47.705887)"><g><path d="M 17.203125 -5.421875 L 7.703125 -5.421875 L 5.890625 0 L 0.125 0 L 9.921875 -26.3125 L 14.9375 -26.3125 L 24.78125 0 L 19.03125 0 Z M 9.15625 -9.8125 L 15.734375 -9.8125 L 12.4375 -19.65625 Z M 9.15625 -9.8125 "/></g></g></g></svg>