<svg width="1170" height="300" viewBox="0 0 1170 300" fill="none" xmlns="http://www.w3.org/2000/svg">
<rect width="1170" height="300" rx="20" fill="#63c58d"/>
<g opacity="0.5">
<mask id="mask0_707_7142" style="mask-type:alpha" maskUnits="userSpaceOnUse" x="0" y="0" width="1170" height="300">
<rect width="1170" height="300" rx="20" fill="#FFEBAF"/>
</mask>
<g mask="url(#mask0_707_7142)">
<path d="M-745.422 880.96C-618.38 873.19 37.3986 774.869 417.077 -34.5879C796.755 -844.045 1322.64 -1444.49 1857.44 -1596.21" stroke="white" stroke-miterlimit="10"/>
<path d="M-750.39 866.911C-611.719 873.327 70.8018 769.199 434.9 -42.9468C798.731 -857.506 1335.05 -1445.09 1864.3 -1587.9" stroke="white" stroke-miterlimit="10"/>
<path d="M-755.365 852.87C-605.037 873.472 104.234 763.555 452.73 -51.3126C800.668 -870.999 1347.46 -1445.67 1871.17 -1579.59" stroke="white" stroke-miterlimit="10"/>
<path d="M-760.341 838.814C-598.363 873.609 137.696 757.938 470.559 -59.6643C802.605 -884.492 1359.87 -1446.27 1878.05 -1571.3" stroke="white" stroke-miterlimit="10"/>
<path d="M-765.315 824.772C-591.68 873.753 173.188 753.061 488.39 -68.0309C806.685 -897.147 1372.28 -1446.87 1884.9 -1562.97" stroke="white" stroke-miterlimit="10"/>
<path d="M-770.284 810.724C-584.992 873.889 207.09 747.566 506.212 -76.3893C809.052 -910.553 1384.71 -1447.49 1891.76 -1554.65" stroke="white" stroke-miterlimit="10"/>
<path d="M-775.258 796.683C-578.31 874.033 240.939 742.01 524.041 -84.7551C811.413 -923.952 1397.09 -1448.05 1898.61 -1546.36" stroke="white" stroke-miterlimit="10"/>
<path d="M-780.234 782.627C-571.635 874.17 274.752 736.435 541.872 -93.1072C813.737 -937.385 1409.5 -1448.64 1905.49 -1538.02" stroke="white" stroke-miterlimit="10"/>
<path d="M-785.202 768.578C-564.961 874.294 308.526 730.827 559.701 -101.473C816.037 -950.851 1421.91 -1449.24 1912.37 -1529.72" stroke="white" stroke-miterlimit="10"/>
<path d="M-790.197 754.559C-558.284 874.473 342.238 725.23 577.505 -109.809C818.255 -964.298 1434.3 -1449.81 1919.2 -1521.38" stroke="white" stroke-miterlimit="10"/>
<path d="M-795.145 740.488C-551.548 874.557 375.952 719.555 595.354 -118.198C820.48 -977.83 1446.72 -1450.42 1926.09 -1513.09" stroke="white" stroke-miterlimit="10"/>
<path d="M-800.119 726.446C-544.9 874.724 409.61 713.883 613.184 -126.55C822.657 -991.353 1459.16 -1450.99 1932.95 -1504.77" stroke="white" stroke-miterlimit="10"/>
<path d="M-805.095 712.391C-538.218 874.868 443.217 708.194 631.007 -134.908C824.804 -1004.9 1471.51 -1451.65 1939.79 -1496.5" stroke="white" stroke-miterlimit="10"/>
<path d="M-810.063 698.342C-531.535 875.012 476.781 702.493 648.832 -143.239C826.868 -1018.42 1483.94 -1452.17 1946.68 -1488.11" stroke="white" stroke-miterlimit="10"/>
<path d="M-815.038 684.301C-524.854 875.142 510.302 696.794 666.633 -151.603C828.886 -1031.99 1496.32 -1452.77 1953.52 -1479.8" stroke="white" stroke-miterlimit="10"/>
<path d="M-820.007 670.252C-518.172 875.286 543.786 691.063 684.496 -159.992C830.908 -1045.59 1508.75 -1453.39 1960.41 -1471.52" stroke="white" stroke-miterlimit="10"/>
<path d="M-824.988 656.203C-511.49 875.429 577.228 685.333 702.32 -168.351C832.854 -1059.19 1521.17 -1453.99 1967.29 -1463.22" stroke="white" stroke-miterlimit="10"/>
<path d="M-829.957 642.155C-504.801 875.566 610.619 679.586 720.149 -176.717C834.757 -1072.78 1533.58 -1454.58 1974.15 -1454.89" stroke="white" stroke-miterlimit="10"/>
<path d="M-834.932 628.114C-498.127 875.703 643.968 673.855 737.972 -185.075C836.594 -1086.4 1545.99 -1455.18 1981.01 -1446.57" stroke="white" stroke-miterlimit="10"/>
<path d="M-839.9 614.064C-491.444 875.847 677.274 668.113 755.809 -193.435C838.436 -1099.96 1558.39 -1455.77 1987.88 -1438.26" stroke="white" stroke-miterlimit="10"/>
<path d="M-844.876 600.009C-484.756 875.984 710.538 662.374 773.651 -201.816C840.23 -1113.6 1570.82 -1456.39 1994.79 -1429.99" stroke="white" stroke-miterlimit="10"/>
<path d="M-849.85 585.967C-478.093 876.149 743.747 656.665 791.461 -210.16C841.931 -1127.14 1583.21 -1456.96 2001.61 -1421.64" stroke="white" stroke-miterlimit="10"/>
<path d="M-854.828 571.87C-471.399 876.264 776.913 650.946 809.284 -218.518C843.593 -1140.73 1595.6 -1457.54 2008.47 -1413.32" stroke="white" stroke-miterlimit="10"/>
<path d="M-859.8 557.87C-464.694 876.428 810.078 645.198 827.114 -226.885C845.199 -1154.33 1608.01 -1458.15 2015.34 -1405.02" stroke="white" stroke-miterlimit="10"/>
<path d="M-864.746 543.842C-458.013 876.558 843.203 639.51 844.959 -235.223C846.83 -1167.86 1620.45 -1458.72 2022.25 -1396.71" stroke="white" stroke-miterlimit="10"/>
<path d="M-869.737 529.772C-451.345 876.688 876.243 633.812 862.767 -243.595C848.367 -1181.41 1632.84 -1459.33 2029.11 -1388.35" stroke="white" stroke-miterlimit="10"/>
<path d="M-874.711 515.731C-444.671 876.826 909.283 628.129 880.627 -251.934C849.855 -1194.95 1645.25 -1459.92 2035.94 -1380.07" stroke="white" stroke-miterlimit="10"/>
<path d="M-879.68 501.683C-437.982 876.962 942.268 622.463 898.42 -260.305C851.331 -1208.45 1657.66 -1460.52 2042.79 -1371.75" stroke="white" stroke-miterlimit="10"/>
<path d="M-884.654 487.641C-431.299 877.106 973.618 616.925 916.257 -268.679C851.023 -1221.84 1670.07 -1461.11 2049.7 -1363.48" stroke="white" stroke-miterlimit="10"/>
<path d="M-889.63 473.586C-424.618 877.25 1007.05 611.282 934.079 -277.037C852.98 -1235.35 1682.47 -1461.7 2056.53 -1355.13" stroke="white" stroke-miterlimit="10"/>
<path d="M-894.605 459.545C-417.936 877.38 1040.49 605.645 951.909 -285.403C854.928 -1248.8 1694.88 -1462.3 2063.4 -1346.82" stroke="white" stroke-miterlimit="10"/>
<path d="M-899.573 445.495C-411.254 877.524 1073.96 599.978 969.739 -293.756C856.828 -1262.33 1707.28 -1462.9 2070.28 -1338.49" stroke="white" stroke-miterlimit="10"/>
</g>
</g>
</svg>
