<svg width="1170" height="300" viewBox="0 0 1170 300" fill="none" xmlns="http://www.w3.org/2000/svg">
<rect width="1170" height="300" rx="20" fill="#2F2D53"/>
<g opacity="0.9">
<mask id="mask0_1_12" style="mask-type:alpha" maskUnits="userSpaceOnUse" x="0" y="0" width="1170" height="300">
<rect width="1170" height="300" rx="20" fill="#FFBDAB"/>
</mask>
<g mask="url(#mask0_1_12)">
<g opacity="0.05" clip-path="url(#clip0_1_12)">
<path d="M259.667 64.9588C258.767 59.6552 256.152 55.5107 252.303 53.2885C248.454 51.0663 243.557 50.8736 238.514 52.7459C233.981 54.4288 230.04 57.5726 227.971 61.1555C226.966 62.896 226.733 64.5289 227.278 66.009C227.815 67.4699 229.014 68.5513 230.539 69.432C232.163 70.3691 234.156 71.0792 236.114 71.7768C237.826 72.3863 239.442 72.9621 240.569 73.6126C241.541 74.174 242.765 75.22 244.061 76.3272C247.089 78.9151 250.521 81.8482 253.808 81.2839C255.371 81.0157 256.665 80.0097 257.656 78.2939C259.724 74.711 260.476 69.7259 259.667 64.9588ZM253.302 78.3387C251.397 78.666 248.406 76.1095 246.002 74.0555C244.599 72.8562 243.273 71.7234 242.063 71.0245C240.701 70.2382 238.96 69.6182 237.117 68.9617C234.261 67.9446 230.708 66.6789 230.082 64.9772C229.998 64.7504 229.744 64.0602 230.559 62.6494C232.265 59.6952 235.711 56.9738 239.554 55.5472C243.747 53.9903 247.745 54.1072 250.809 55.8762C253.873 57.6453 255.972 61.0484 256.721 65.4586C257.407 69.4997 256.773 73.8453 255.068 76.7995C254.276 78.1717 253.543 78.2975 253.302 78.3387ZM271.219 45.6516C271.058 43.4208 270.031 41.6027 268.404 40.6631C266.777 39.7235 264.689 39.7441 262.676 40.7192C260.827 41.6152 259.161 43.2315 257.984 45.2704C256.806 47.3094 256.24 49.5608 256.388 51.6101C256.55 53.8408 257.576 55.6591 259.204 56.5987C260.831 57.5383 262.919 57.5177 264.932 56.5425C266.781 55.6465 268.447 54.0302 269.624 51.9913C270.802 49.9523 271.368 47.7008 271.219 45.6516ZM263.629 53.8534C262.978 54.1685 261.732 54.6081 260.698 54.0108C259.663 53.4135 259.421 52.115 259.369 51.394C259.265 49.9561 259.703 48.2687 260.571 46.7645C261.44 45.2602 262.682 44.0371 263.979 43.4083C264.63 43.0932 265.875 42.6536 266.91 43.2509C267.945 43.8482 268.187 45.1467 268.239 45.8677C268.343 47.3056 267.905 48.993 267.037 50.4972C266.168 52.0013 264.926 53.2247 263.629 53.8534ZM258.002 38.0202C257.84 35.7894 256.814 33.9713 255.186 33.0316C253.559 32.092 251.471 32.1126 249.459 33.0878C247.61 33.9838 245.943 35.6001 244.766 37.639C243.589 39.678 243.022 41.9294 243.171 43.9787C243.332 46.2095 244.358 48.0277 245.986 48.9673C247.613 49.9069 249.701 49.8864 251.714 48.9111C253.563 48.0151 255.229 46.3989 256.407 44.3599C257.584 42.3209 258.15 40.0694 258.002 38.0202ZM250.411 46.2219C249.76 46.5371 248.514 46.9767 247.48 46.3794C246.445 45.7821 246.203 44.4835 246.151 43.7626C246.047 42.3247 246.485 40.6373 247.353 39.1331C248.222 37.6289 249.464 36.4057 250.761 35.777C251.412 35.4618 252.658 35.0222 253.692 35.6195C254.727 36.2168 254.969 37.5153 255.021 38.2363C255.125 39.6742 254.687 41.3616 253.818 42.8658C252.95 44.3699 251.708 45.5933 250.411 46.2219ZM274.944 64.4785C275.367 62.7344 275.053 61.1086 274.06 59.9007C273.261 58.9287 272.073 58.3289 270.713 58.2119C268.838 58.0504 266.809 58.7799 265.145 60.2132C263.786 61.3845 262.827 62.8984 262.444 64.4763C262.022 66.2203 262.336 67.8461 263.329 69.054C263.672 69.4721 264.088 69.8211 264.558 70.0927C265.181 70.4526 265.901 70.6762 266.676 70.7429C268.55 70.9044 270.58 70.1749 272.243 68.7417L272.243 68.7416C273.603 67.5703 274.562 66.0564 274.944 64.4785ZM270.293 66.4776C269.25 67.3757 267.994 67.8572 266.933 67.7657C266.542 67.732 266.001 67.5991 265.637 67.1567C264.76 66.089 265.441 63.9021 267.096 62.4771C268.138 61.579 269.394 61.0975 270.456 61.1889C270.715 61.2112 271.04 61.2771 271.336 61.4479C271.486 61.5347 271.629 61.6487 271.752 61.7978C272.629 62.8656 271.947 65.0525 270.293 66.4776ZM239.885 45.6288C240.294 43.4713 239.911 41.3493 238.834 39.807C238.053 38.6876 236.939 37.958 235.698 37.7521C234.155 37.4965 232.59 38.0375 231.291 39.2753C230.116 40.3953 229.285 41.983 228.95 43.746L228.95 43.7461C228.541 45.9037 228.924 48.0257 230 49.568C230.446 50.206 230.999 50.7175 231.623 51.0774C232.093 51.349 232.603 51.5343 233.137 51.6228C234.68 51.8786 236.245 51.3375 237.544 50.0997C238.719 48.9797 239.55 47.392 239.885 45.6288ZM233.626 48.6748C233.061 48.5812 232.675 48.1786 232.45 47.8574C231.84 46.9838 231.629 45.655 231.886 44.3032L231.886 44.3033C232.293 42.158 233.846 40.4744 235.209 40.7003C235.774 40.7939 236.16 41.1966 236.384 41.5177C236.994 42.3915 237.206 43.7202 236.949 45.072C236.542 47.2172 234.989 48.9008 233.626 48.6748Z" fill="#FF5B2E"/>
</g>
<g opacity="0.08" clip-path="url(#clip1_1_12)">
<path d="M35.6674 35.9588C34.7673 30.6552 32.152 26.5107 28.303 24.2885C24.4541 22.0663 19.5571 21.8736 14.5141 23.7459C9.98111 25.4288 6.04001 28.5726 3.97142 32.1555C2.96656 33.896 2.73324 35.5289 3.27778 37.009C3.81523 38.4699 5.01406 39.5513 6.53961 40.432C8.16284 41.3691 10.1561 42.0792 12.1146 42.7768C13.826 43.3863 15.4424 43.9621 16.5691 44.6126C17.5414 45.174 18.7655 46.22 20.0612 47.3272C23.0893 49.9151 26.5216 52.8482 29.8083 52.2839C31.3707 52.0157 32.6653 51.0097 33.6559 49.2939C35.7246 45.711 36.4766 40.7259 35.6674 35.9588ZM29.3026 49.3387C27.3973 49.666 24.406 47.1095 22.0024 45.0555C20.599 43.8562 19.2736 42.7234 18.063 42.0245C16.701 41.2382 14.9602 40.6182 13.1171 39.9617C10.2616 38.9446 6.70794 37.6789 6.08199 35.9772C5.99854 35.7504 5.74463 35.0602 6.55913 33.6494C8.26475 30.6952 11.7115 27.9738 15.554 26.5472C19.7476 24.9903 23.7447 25.1072 26.8088 26.8762C29.8729 28.6453 31.9726 32.0484 32.7211 36.4586C33.407 40.4997 32.7735 44.8453 31.0678 47.7995C30.276 49.1717 29.5434 49.2975 29.3026 49.3387ZM47.2195 16.6516C47.0578 14.4208 46.0316 12.6027 44.4042 11.6631C42.7768 10.7235 40.6892 10.7441 38.6765 11.7192C36.8275 12.6152 35.1608 14.2315 33.9837 16.2704C32.8065 18.3094 32.24 20.5608 32.3886 22.6101C32.5504 24.8408 33.5765 26.6591 35.2039 27.5987C36.8313 28.5383 38.919 28.5177 40.9317 27.5425C42.7807 26.6465 44.4473 25.0302 45.6245 22.9913C46.8017 20.9523 47.3682 18.7008 47.2195 16.6516ZM39.6287 24.8534C38.9783 25.1685 37.7325 25.6081 36.698 25.0108C35.6634 24.4135 35.4213 23.115 35.369 22.394C35.2647 20.9561 35.7031 19.2687 36.5715 17.7645C37.44 16.2602 38.6822 15.0371 39.9795 14.4083C40.6299 14.0932 41.8756 13.6536 42.9102 14.2509C43.9448 14.8482 44.187 16.1467 44.2392 16.8677C44.3435 18.3056 43.9051 19.993 43.0367 21.4972C42.1681 23.0013 40.9261 24.2247 39.6287 24.8534ZM34.0018 9.02019C33.84 6.7894 32.814 4.97126 31.1865 4.03165C29.559 3.09203 27.4713 3.11256 25.4587 4.08783C23.6097 4.98381 21.9431 6.60008 20.7659 8.63902C19.5887 10.678 19.0222 12.9294 19.1708 14.9787C19.3326 17.2095 20.3586 19.0277 21.986 19.9673C23.6135 20.9069 25.7011 20.8864 27.7139 19.9111C29.5629 19.0151 31.2295 17.3989 32.4067 15.3599C33.5838 13.3209 34.1504 11.0694 34.0018 9.02019ZM26.4107 17.2219C25.7602 17.5371 24.5145 17.9767 23.48 17.3794C22.4455 16.7821 22.2033 15.4835 22.151 14.7626C22.0468 13.3247 22.4851 11.6373 23.3536 10.1331C24.2221 8.62887 25.4643 7.40569 26.7615 6.77698C27.412 6.46181 28.6577 6.02222 29.6923 6.61952C30.7268 7.21683 30.969 8.51532 31.0212 9.23628C31.1254 10.6742 30.6871 12.3616 29.8186 13.8658C28.9502 15.37 27.708 16.5933 26.4107 17.2219ZM50.9445 35.4785C51.367 33.7344 51.053 32.1086 50.0604 30.9007C49.2616 29.9287 48.0727 29.329 46.7127 29.2119C44.8385 29.0504 42.8093 29.7799 41.1456 31.2132C39.786 32.3845 38.8267 33.8984 38.4445 35.4763C38.022 37.2203 38.336 38.8461 39.3287 40.054C39.6722 40.4721 40.0877 40.8211 40.558 41.0927C41.1815 41.4526 41.9012 41.6762 42.6765 41.7429C44.5506 41.9044 46.5799 41.1749 48.2435 39.7417L48.2436 39.7416C49.603 38.5703 50.5623 37.0564 50.9445 35.4785ZM46.2931 37.4776C45.2506 38.3757 43.9944 38.8572 42.9328 38.7657C42.5424 38.732 42.0009 38.5991 41.6373 38.1567C40.7599 37.089 41.4414 34.9021 43.0958 33.4771C44.1383 32.579 45.3945 32.0975 46.4563 32.1889C46.7151 32.2112 47.0402 32.2771 47.3359 32.4479C47.4864 32.5347 47.6292 32.6487 47.7517 32.7978C48.629 33.8656 47.9475 36.0525 46.2931 37.4776ZM15.8851 16.6288C16.2944 14.4713 15.9115 12.3493 14.8347 10.807C14.0532 9.68764 12.9392 8.95797 11.6981 8.75215C10.1556 8.49649 8.59064 9.03746 7.29156 10.2753C6.11621 11.3953 5.28474 12.983 4.95021 14.746L4.95016 14.7461C4.54089 16.9037 4.92374 19.0257 6.00056 20.568C6.44607 21.206 6.99949 21.7175 7.62292 22.0774C8.09323 22.349 8.60344 22.5343 9.13708 22.6228C10.6797 22.8786 12.2447 22.3375 13.5437 21.0997C14.7189 19.9797 15.5503 18.392 15.8851 16.6288ZM9.62566 19.6748C9.06082 19.5812 8.67491 19.1786 8.45061 18.8575C7.84061 17.9838 7.6294 16.655 7.88597 15.3032L7.88591 15.3033C8.29302 13.158 9.84601 11.4744 11.2095 11.7003C11.7742 11.7939 12.1602 12.1966 12.3846 12.5177C12.9946 13.3915 13.2058 14.7202 12.9492 16.072C12.5421 18.2172 10.9891 19.9008 9.62566 19.6748Z" fill="#FF5B2E"/>
</g>
<g opacity="0.1" clip-path="url(#clip2_1_12)">
<path d="M1065.67 64.9588C1064.77 59.6552 1062.15 55.5107 1058.3 53.2885C1054.45 51.0663 1049.56 50.8736 1044.51 52.7459C1039.98 54.4288 1036.04 57.5726 1033.97 61.1555C1032.97 62.896 1032.73 64.5289 1033.28 66.009C1033.82 67.4699 1035.01 68.5513 1036.54 69.432C1038.16 70.3691 1040.16 71.0792 1042.11 71.7768C1043.83 72.3863 1045.44 72.9621 1046.57 73.6126C1047.54 74.174 1048.77 75.22 1050.06 76.3272C1053.09 78.9151 1056.52 81.8482 1059.81 81.2839C1061.37 81.0157 1062.67 80.0097 1063.66 78.2939C1065.72 74.711 1066.48 69.7259 1065.67 64.9588ZM1059.3 78.3387C1057.4 78.666 1054.41 76.1095 1052 74.0555C1050.6 72.8562 1049.27 71.7234 1048.06 71.0245C1046.7 70.2382 1044.96 69.6182 1043.12 68.9617C1040.26 67.9446 1036.71 66.6789 1036.08 64.9772C1036 64.7504 1035.74 64.0602 1036.56 62.6494C1038.26 59.6952 1041.71 56.9738 1045.55 55.5472C1049.75 53.9903 1053.74 54.1072 1056.81 55.8762C1059.87 57.6453 1061.97 61.0484 1062.72 65.4586C1063.41 69.4997 1062.77 73.8453 1061.07 76.7995C1060.28 78.1717 1059.54 78.2975 1059.3 78.3387ZM1077.22 45.6516C1077.06 43.4208 1076.03 41.6027 1074.4 40.6631C1072.78 39.7235 1070.69 39.7441 1068.68 40.7192C1066.83 41.6152 1065.16 43.2315 1063.98 45.2704C1062.81 47.3094 1062.24 49.5608 1062.39 51.6101C1062.55 53.8408 1063.58 55.6591 1065.2 56.5987C1066.83 57.5383 1068.92 57.5177 1070.93 56.5425C1072.78 55.6465 1074.45 54.0302 1075.62 51.9913C1076.8 49.9523 1077.37 47.7008 1077.22 45.6516ZM1069.63 53.8534C1068.98 54.1685 1067.73 54.6081 1066.7 54.0108C1065.66 53.4135 1065.42 52.115 1065.37 51.394C1065.26 49.9561 1065.7 48.2687 1066.57 46.7645C1067.44 45.2602 1068.68 44.0371 1069.98 43.4083C1070.63 43.0932 1071.88 42.6536 1072.91 43.2509C1073.94 43.8482 1074.19 45.1467 1074.24 45.8677C1074.34 47.3056 1073.9 48.993 1073.04 50.4972C1072.17 52.0013 1070.93 53.2247 1069.63 53.8534ZM1064 38.0202C1063.84 35.7894 1062.81 33.9713 1061.19 33.0316C1059.56 32.092 1057.47 32.1126 1055.46 33.0878C1053.61 33.9838 1051.94 35.6001 1050.77 37.639C1049.59 39.678 1049.02 41.9294 1049.17 43.9787C1049.33 46.2095 1050.36 48.0277 1051.99 48.9673C1053.61 49.9069 1055.7 49.8864 1057.71 48.9111C1059.56 48.0151 1061.23 46.3989 1062.41 44.3599C1063.58 42.3209 1064.15 40.0694 1064 38.0202ZM1056.41 46.2219C1055.76 46.5371 1054.51 46.9767 1053.48 46.3794C1052.45 45.7821 1052.2 44.4835 1052.15 43.7626C1052.05 42.3247 1052.48 40.6373 1053.35 39.1331C1054.22 37.6289 1055.46 36.4057 1056.76 35.777C1057.41 35.4618 1058.66 35.0222 1059.69 35.6195C1060.73 36.2168 1060.97 37.5153 1061.02 38.2363C1061.13 39.6742 1060.69 41.3616 1059.82 42.8658C1058.95 44.3699 1057.71 45.5933 1056.41 46.2219ZM1080.94 64.4785C1081.37 62.7344 1081.05 61.1086 1080.06 59.9007C1079.26 58.9287 1078.07 58.3289 1076.71 58.2119C1074.84 58.0504 1072.81 58.7799 1071.15 60.2132C1069.79 61.3845 1068.83 62.8984 1068.44 64.4763C1068.02 66.2203 1068.34 67.8461 1069.33 69.054C1069.67 69.4721 1070.09 69.8211 1070.56 70.0927C1071.18 70.4526 1071.9 70.6762 1072.68 70.7429C1074.55 70.9044 1076.58 70.1749 1078.24 68.7417L1078.24 68.7416C1079.6 67.5703 1080.56 66.0564 1080.94 64.4785ZM1076.29 66.4776C1075.25 67.3757 1073.99 67.8572 1072.93 67.7657C1072.54 67.732 1072 67.5991 1071.64 67.1567C1070.76 66.089 1071.44 63.9021 1073.1 62.4771C1074.14 61.579 1075.39 61.0975 1076.46 61.1889C1076.71 61.2112 1077.04 61.2771 1077.34 61.4479C1077.49 61.5347 1077.63 61.6487 1077.75 61.7978C1078.63 62.8656 1077.95 65.0525 1076.29 66.4776ZM1045.88 45.6288C1046.29 43.4713 1045.91 41.3493 1044.83 39.807C1044.05 38.6876 1042.94 37.958 1041.7 37.7521C1040.16 37.4965 1038.59 38.0375 1037.29 39.2753C1036.12 40.3953 1035.28 41.983 1034.95 43.746L1034.95 43.7461C1034.54 45.9037 1034.92 48.0257 1036 49.568C1036.45 50.206 1037 50.7175 1037.62 51.0774C1038.09 51.349 1038.6 51.5343 1039.14 51.6228C1040.68 51.8786 1042.24 51.3375 1043.54 50.0997C1044.72 48.9797 1045.55 47.392 1045.88 45.6288ZM1039.63 48.6748C1039.06 48.5812 1038.67 48.1786 1038.45 47.8574C1037.84 46.9838 1037.63 45.655 1037.89 44.3032L1037.89 44.3033C1038.29 42.158 1039.85 40.4744 1041.21 40.7003C1041.77 40.7939 1042.16 41.1966 1042.38 41.5177C1042.99 42.3915 1043.21 43.7202 1042.95 45.072C1042.54 47.2172 1040.99 48.9008 1039.63 48.6748Z" fill="#FF5B2E"/>
</g>
<g opacity="0.1" clip-path="url(#clip3_1_12)">
<path d="M854.667 50.9588C853.767 45.6552 851.152 41.5107 847.303 39.2885C843.454 37.0663 838.557 36.8736 833.514 38.7459C828.981 40.4288 825.04 43.5726 822.971 47.1555C821.966 48.896 821.733 50.5289 822.278 52.009C822.815 53.4699 824.014 54.5513 825.539 55.432C827.163 56.3691 829.156 57.0792 831.114 57.7768C832.826 58.3863 834.442 58.9621 835.569 59.6126C836.541 60.174 837.765 61.22 839.061 62.3272C842.089 64.9151 845.521 67.8482 848.808 67.2839C850.371 67.0157 851.665 66.0097 852.656 64.2939C854.724 60.711 855.476 55.7259 854.667 50.9588ZM848.302 64.3387C846.397 64.666 843.406 62.1095 841.002 60.0555C839.599 58.8562 838.273 57.7234 837.063 57.0245C835.701 56.2382 833.96 55.6182 832.117 54.9617C829.261 53.9446 825.708 52.6789 825.082 50.9772C824.998 50.7504 824.744 50.0602 825.559 48.6494C827.265 45.6952 830.711 42.9738 834.554 41.5472C838.747 39.9903 842.745 40.1072 845.809 41.8762C848.873 43.6453 850.972 47.0484 851.721 51.4586C852.407 55.4997 851.773 59.8453 850.068 62.7995C849.276 64.1717 848.543 64.2975 848.302 64.3387ZM866.219 31.6516C866.058 29.4208 865.031 27.6027 863.404 26.6631C861.777 25.7235 859.689 25.7441 857.676 26.7192C855.827 27.6152 854.161 29.2315 852.984 31.2704C851.806 33.3094 851.24 35.5608 851.388 37.6101C851.55 39.8408 852.576 41.6591 854.204 42.5987C855.831 43.5383 857.919 43.5177 859.932 42.5425C861.781 41.6465 863.447 40.0302 864.624 37.9913C865.802 35.9523 866.368 33.7008 866.219 31.6516ZM858.629 39.8534C857.978 40.1685 856.732 40.6081 855.698 40.0108C854.663 39.4135 854.421 38.115 854.369 37.394C854.265 35.9561 854.703 34.2687 855.571 32.7645C856.44 31.2602 857.682 30.0371 858.979 29.4083C859.63 29.0932 860.875 28.6536 861.91 29.2509C862.945 29.8482 863.187 31.1467 863.239 31.8677C863.343 33.3056 862.905 34.993 862.037 36.4972C861.168 38.0013 859.926 39.2247 858.629 39.8534ZM853.002 24.0202C852.84 21.7894 851.814 19.9713 850.186 19.0316C848.559 18.092 846.471 18.1126 844.459 19.0878C842.61 19.9838 840.943 21.6001 839.766 23.639C838.589 25.678 838.022 27.9294 838.171 29.9787C838.332 32.2095 839.358 34.0277 840.986 34.9673C842.613 35.9069 844.701 35.8864 846.714 34.9111C848.563 34.0151 850.229 32.3989 851.407 30.3599C852.584 28.3209 853.15 26.0694 853.002 24.0202ZM845.411 32.2219C844.76 32.5371 843.514 32.9767 842.48 32.3794C841.445 31.7821 841.203 30.4835 841.151 29.7626C841.047 28.3247 841.485 26.6373 842.353 25.1331C843.222 23.6289 844.464 22.4057 845.761 21.777C846.412 21.4618 847.658 21.0222 848.692 21.6195C849.727 22.2168 849.969 23.5153 850.021 24.2363C850.125 25.6742 849.687 27.3616 848.818 28.8658C847.95 30.3699 846.708 31.5933 845.411 32.2219ZM869.944 50.4785C870.367 48.7344 870.053 47.1086 869.06 45.9007C868.261 44.9287 867.073 44.3289 865.713 44.2119C863.838 44.0504 861.809 44.7799 860.145 46.2132C858.786 47.3845 857.827 48.8984 857.444 50.4763C857.022 52.2203 857.336 53.8461 858.329 55.054C858.672 55.4721 859.088 55.8211 859.558 56.0927C860.181 56.4526 860.901 56.6762 861.676 56.7429C863.55 56.9044 865.58 56.1749 867.243 54.7417L867.243 54.7416C868.603 53.5703 869.562 52.0564 869.944 50.4785ZM865.293 52.4776C864.25 53.3757 862.994 53.8572 861.933 53.7657C861.542 53.732 861.001 53.5991 860.637 53.1567C859.76 52.089 860.441 49.9021 862.096 48.4771C863.138 47.579 864.394 47.0975 865.456 47.1889C865.715 47.2112 866.04 47.2771 866.336 47.4479C866.486 47.5347 866.629 47.6487 866.752 47.7978C867.629 48.8656 866.947 51.0525 865.293 52.4776ZM834.885 31.6288C835.294 29.4713 834.911 27.3493 833.834 25.807C833.053 24.6876 831.939 23.958 830.698 23.7521C829.155 23.4965 827.59 24.0375 826.291 25.2753C825.116 26.3953 824.285 27.983 823.95 29.746L823.95 29.7461C823.541 31.9037 823.924 34.0257 825 35.568C825.446 36.206 825.999 36.7175 826.623 37.0774C827.093 37.349 827.603 37.5343 828.137 37.6228C829.68 37.8786 831.245 37.3375 832.544 36.0997C833.719 34.9797 834.55 33.392 834.885 31.6288ZM828.626 34.6748C828.061 34.5812 827.675 34.1786 827.45 33.8574C826.84 32.9838 826.629 31.655 826.886 30.3032L826.886 30.3033C827.293 28.158 828.846 26.4744 830.209 26.7003C830.774 26.7939 831.16 27.1966 831.384 27.5177C831.994 28.3915 832.206 29.7202 831.949 31.072C831.542 33.2172 829.989 34.9008 828.626 34.6748Z" fill="#FF5B2E"/>
</g>
<g opacity="0.1" clip-path="url(#clip4_1_12)">
<path d="M1137.33 187.211C1131.99 186.547 1127.27 187.86 1124.03 190.907C1120.8 193.953 1119.2 198.588 1119.54 203.956C1119.85 208.782 1121.73 213.461 1124.57 216.473C1125.94 217.936 1127.44 218.629 1129.01 218.534C1130.57 218.439 1131.95 217.602 1133.23 216.394C1134.6 215.109 1135.85 213.405 1137.08 211.73C1138.16 210.266 1139.17 208.884 1140.12 207.992C1140.94 207.222 1142.29 206.351 1143.72 205.428C1147.07 203.273 1150.87 200.83 1151.28 197.52C1151.47 195.946 1150.88 194.417 1149.52 192.974C1146.68 189.962 1142.13 187.808 1137.33 187.211ZM1148.31 197.157C1148.08 199.075 1144.77 201.205 1142.11 202.916C1140.56 203.915 1139.09 204.858 1138.07 205.816C1136.93 206.895 1135.83 208.383 1134.67 209.96C1132.88 212.402 1130.64 215.441 1128.83 215.551C1128.59 215.566 1127.86 215.61 1126.74 214.424C1124.4 211.941 1122.79 207.857 1122.53 203.766C1122.24 199.302 1123.5 195.508 1126.08 193.082C1128.66 190.657 1132.52 189.625 1136.96 190.177C1141.03 190.683 1145.01 192.54 1147.34 195.023C1148.43 196.176 1148.34 196.914 1148.31 197.157ZM1122.16 170.593C1119.98 170.106 1117.94 170.565 1116.57 171.854C1115.2 173.142 1114.62 175.147 1114.98 177.355C1115.3 179.384 1116.37 181.445 1117.99 183.159C1119.6 184.873 1121.59 186.064 1123.6 186.511C1125.78 186.998 1127.82 186.538 1129.19 185.25C1130.56 183.962 1131.14 181.956 1130.78 179.748C1130.45 177.719 1129.39 175.658 1127.77 173.944C1126.16 172.23 1124.17 171.04 1122.16 170.593ZM1127.83 180.222C1127.95 180.936 1128.01 182.255 1127.14 183.074C1126.27 183.893 1124.96 183.752 1124.25 183.594C1122.84 183.28 1121.35 182.375 1120.16 181.111C1118.97 179.846 1118.16 178.304 1117.93 176.881C1117.81 176.168 1117.75 174.848 1118.62 174.029C1119.49 173.21 1120.8 173.352 1121.51 173.509C1122.92 173.823 1124.41 174.728 1125.6 175.993C1126.79 177.257 1127.6 178.799 1127.83 180.222ZM1111.05 181.056C1108.87 180.569 1106.83 181.029 1105.46 182.317C1104.09 183.605 1103.51 185.61 1103.87 187.819C1104.19 189.847 1105.26 191.908 1106.87 193.622C1108.49 195.336 1110.48 196.527 1112.49 196.974C1114.67 197.461 1116.71 197.001 1118.08 195.713C1119.44 194.425 1120.02 192.42 1119.67 190.211C1119.34 188.183 1118.27 186.122 1116.66 184.407C1115.05 182.694 1113.05 181.503 1111.05 181.056ZM1116.72 190.686C1116.83 191.399 1116.9 192.719 1116.03 193.538C1115.16 194.357 1113.84 194.215 1113.14 194.058C1111.73 193.744 1110.24 192.839 1109.05 191.574C1107.86 190.309 1107.05 188.768 1106.82 187.345C1106.7 186.631 1106.64 185.311 1107.51 184.492C1108.38 183.673 1109.69 183.815 1110.4 183.973C1111.8 184.286 1113.29 185.192 1114.49 186.456C1115.68 187.721 1116.49 189.262 1116.72 190.686ZM1141.26 172.442C1139.71 171.536 1138.07 171.368 1136.62 171.972C1135.46 172.457 1134.55 173.423 1134.04 174.692C1133.35 176.44 1133.46 178.594 1134.36 180.599C1135.09 182.238 1136.26 183.593 1137.66 184.413C1139.21 185.319 1140.86 185.486 1142.3 184.883C1142.8 184.674 1143.26 184.377 1143.65 184.005C1144.17 183.511 1144.6 182.886 1144.88 182.163C1145.58 180.414 1145.46 178.261 1144.57 176.255L1144.57 176.255C1143.84 174.616 1142.66 173.262 1141.26 172.442ZM1141.84 177.472C1142.4 178.729 1142.5 180.07 1142.11 181.061C1141.96 181.425 1141.68 181.905 1141.15 182.126C1139.87 182.659 1137.98 181.377 1137.09 179.383C1136.53 178.126 1136.43 176.785 1136.82 175.794C1136.92 175.553 1137.07 175.26 1137.32 175.026C1137.45 174.907 1137.6 174.803 1137.78 174.728C1139.05 174.195 1140.95 175.477 1141.84 177.472ZM1113.12 200.596C1111.17 199.583 1109.03 199.339 1107.24 199.927C1105.95 200.353 1104.93 201.21 1104.37 202.339C1103.69 203.743 1103.75 205.397 1104.57 206.998C1105.3 208.446 1106.58 209.699 1108.17 210.526L1108.17 210.526C1110.12 211.539 1112.26 211.783 1114.05 211.196C1114.79 210.952 1115.44 210.57 1115.96 210.076C1116.36 209.704 1116.68 209.268 1116.92 208.783C1117.61 207.379 1117.54 205.725 1116.73 204.124C1116 202.677 1114.71 201.423 1113.12 200.596ZM1114.24 207.467C1113.99 207.981 1113.49 208.235 1113.12 208.357C1112.11 208.69 1110.77 208.51 1109.55 207.875L1109.55 207.875C1107.61 206.868 1106.45 204.896 1107.06 203.656C1107.31 203.142 1107.81 202.888 1108.18 202.765C1109.19 202.432 1110.52 202.613 1111.74 203.247C1113.68 204.254 1114.85 206.226 1114.24 207.467Z" fill="#FF5B2E"/>
</g>
<g opacity="0.1" clip-path="url(#clip5_1_12)">
<path d="M954.327 147.211C948.989 146.547 944.267 147.86 941.031 150.907C937.796 153.953 936.202 158.588 936.544 163.956C936.852 168.782 938.729 173.461 941.565 176.473C942.943 177.936 944.44 178.629 946.014 178.534C947.568 178.439 948.948 177.602 950.23 176.394C951.595 175.109 952.849 173.405 954.08 171.73C955.156 170.266 956.173 168.884 957.12 167.992C957.937 167.222 959.291 166.351 960.725 165.428C964.074 163.273 967.871 160.83 968.276 157.52C968.469 155.946 967.878 154.417 966.519 152.974C963.683 149.962 959.125 147.808 954.327 147.211ZM965.31 157.157C965.075 159.075 961.766 161.205 959.107 162.916C957.555 163.915 956.089 164.858 955.071 165.816C953.926 166.895 952.832 168.383 951.673 169.96C949.877 172.402 947.642 175.441 945.832 175.551C945.591 175.566 944.857 175.61 943.74 174.424C941.402 171.941 939.787 167.857 939.526 163.766C939.242 159.302 940.504 155.508 943.08 153.082C945.655 150.657 949.519 149.625 953.958 150.177C958.025 150.683 962.005 152.54 964.344 155.023C965.43 156.176 965.34 156.914 965.31 157.157ZM939.16 130.593C936.977 130.106 934.94 130.565 933.572 131.854C932.204 133.142 931.623 135.147 931.978 137.355C932.304 139.384 933.373 141.445 934.987 143.159C936.601 144.873 938.594 146.064 940.599 146.511C942.782 146.998 944.819 146.538 946.187 145.25C947.555 143.962 948.136 141.956 947.781 139.748C947.455 137.719 946.387 135.658 944.773 133.944C943.159 132.23 941.165 131.04 939.16 130.593ZM944.831 140.222C944.946 140.936 945.008 142.255 944.138 143.074C943.269 143.893 941.955 143.752 941.25 143.594C939.843 143.28 938.353 142.375 937.162 141.111C935.971 139.846 935.157 138.304 934.928 136.881C934.814 136.168 934.751 134.848 935.621 134.029C936.491 133.21 937.804 133.352 938.509 133.509C939.916 133.823 941.406 134.728 942.597 135.993C943.788 137.257 944.602 138.799 944.831 140.222ZM928.048 141.056C925.865 140.569 923.829 141.029 922.461 142.317C921.092 143.605 920.511 145.61 920.866 147.819C921.193 149.847 922.261 151.908 923.875 153.622C925.489 155.336 927.482 156.527 929.488 156.974C931.671 157.461 933.707 157.001 935.075 155.713C936.443 154.425 937.024 152.42 936.669 150.211C936.343 148.183 935.275 146.122 933.661 144.407C932.047 142.694 930.053 141.503 928.048 141.056ZM933.719 150.686C933.834 151.399 933.896 152.719 933.027 153.538C932.157 154.357 930.844 154.215 930.138 154.058C928.731 153.744 927.241 152.839 926.05 151.574C924.86 150.309 924.046 148.768 923.817 147.345C923.702 146.631 923.639 145.311 924.509 144.492C925.379 143.673 926.692 143.815 927.398 143.973C928.805 144.286 930.295 145.192 931.485 146.456C932.676 147.721 933.49 149.262 933.719 150.686ZM958.262 132.442C956.714 131.536 955.066 131.368 953.624 131.972C952.463 132.457 951.547 133.423 951.043 134.692C950.349 136.44 950.464 138.594 951.358 140.599C952.089 142.238 953.263 143.593 954.664 144.413C956.213 145.319 957.86 145.486 959.302 144.883C959.802 144.674 960.255 144.377 960.651 144.005C961.175 143.511 961.596 142.886 961.883 142.163C962.577 140.414 962.462 138.261 961.568 136.255L961.568 136.255C960.838 134.616 959.664 133.262 958.262 132.442ZM958.839 137.472C959.399 138.729 959.499 140.07 959.106 141.061C958.961 141.425 958.678 141.905 958.15 142.126C956.875 142.659 954.976 141.377 954.087 139.383C953.527 138.126 953.428 136.785 953.821 135.794C953.916 135.553 954.073 135.26 954.322 135.026C954.448 134.907 954.598 134.803 954.776 134.728C956.051 134.195 957.95 135.477 958.839 137.472ZM930.123 160.596C928.174 159.583 926.032 159.339 924.245 159.927C922.948 160.353 921.929 161.21 921.374 162.339C920.686 163.743 920.754 165.397 921.565 166.998C922.3 168.446 923.581 169.699 925.173 170.526L925.173 170.526C927.122 171.539 929.264 171.783 931.051 171.196C931.791 170.952 932.44 170.57 932.964 170.076C933.359 169.704 933.683 169.268 933.922 168.783C934.61 167.379 934.543 165.725 933.731 164.124C932.996 162.677 931.715 161.423 930.123 160.596ZM931.239 167.467C930.987 167.981 930.49 168.235 930.118 168.357C929.106 168.69 927.772 168.51 926.552 167.875L926.552 167.875C924.614 166.868 923.449 164.896 924.057 163.656C924.309 163.142 924.806 162.888 925.178 162.765C926.191 162.432 927.524 162.613 928.745 163.247C930.682 164.254 931.848 166.226 931.239 167.467Z" fill="#FF5B2E"/>
</g>
<g opacity="0.1" clip-path="url(#clip6_1_12)">
<path d="M1014.33 261.232C1018.55 257.901 1020.94 253.62 1021.04 249.177C1021.15 244.734 1018.98 240.343 1014.92 236.813C1011.27 233.64 1006.62 231.687 1002.48 231.587C1000.47 231.539 998.93 232.116 997.891 233.303C996.866 234.474 996.491 236.045 996.449 237.806C996.404 239.68 996.735 241.769 997.061 243.823C997.346 245.617 997.615 247.312 997.583 248.612C997.556 249.735 997.224 251.31 996.873 252.978C996.052 256.876 995.121 261.294 997.191 263.908C998.175 265.152 999.678 265.806 1001.66 265.854C1005.79 265.953 1010.53 264.226 1014.33 261.232ZM999.534 262.054C998.334 260.538 999.145 256.688 999.797 253.594C1000.18 251.788 1000.54 250.081 1000.57 248.684C1000.61 247.112 1000.32 245.287 1000.01 243.354C999.537 240.361 998.946 236.635 1000.14 235.27C1000.3 235.088 1000.78 234.535 1002.41 234.574C1005.82 234.656 1009.86 236.378 1012.96 239.068C1016.33 242.003 1018.14 245.568 1018.06 249.105C1017.97 252.642 1015.99 256.116 1012.48 258.885C1009.26 261.423 1005.14 262.948 1001.73 262.866C1000.15 262.828 999.685 262.245 999.534 262.054ZM1036.81 262.124C1038.69 260.914 1039.79 259.142 1039.84 257.264C1039.89 255.385 1038.87 253.562 1037.05 252.263C1035.37 251.069 1033.16 250.38 1030.8 250.323C1028.45 250.266 1026.2 250.848 1024.47 251.96C1022.59 253.17 1021.49 254.942 1021.44 256.821C1021.4 258.699 1022.42 260.522 1024.24 261.822C1025.91 263.015 1028.13 263.704 1030.48 263.761C1032.83 263.818 1035.08 263.236 1036.81 262.124ZM1025.97 259.39C1025.39 258.97 1024.4 258.087 1024.43 256.892C1024.46 255.698 1025.48 254.864 1026.09 254.472C1027.3 253.692 1029 253.269 1030.73 253.31C1032.47 253.352 1034.14 253.857 1035.31 254.694C1035.9 255.114 1036.88 255.997 1036.85 257.192C1036.82 258.386 1035.8 259.221 1035.19 259.612C1033.98 260.392 1032.29 260.815 1030.55 260.774C1028.82 260.732 1027.15 260.227 1025.97 259.39ZM1037.18 246.866C1039.06 245.656 1040.16 243.884 1040.21 242.005C1040.25 240.127 1039.23 238.304 1037.41 237.004C1035.74 235.81 1033.53 235.122 1031.17 235.065C1028.82 235.008 1026.57 235.589 1024.84 236.702C1022.96 237.912 1021.86 239.684 1021.81 241.562C1021.77 243.441 1022.78 245.264 1024.61 246.563C1026.28 247.757 1028.49 248.446 1030.85 248.503C1033.2 248.559 1035.45 247.978 1037.18 246.866ZM1026.34 244.131C1025.75 243.711 1024.77 242.828 1024.8 241.634C1024.83 240.44 1025.85 239.605 1026.46 239.214C1027.67 238.434 1029.36 238.01 1031.1 238.052C1032.84 238.094 1034.5 238.598 1035.68 239.436C1036.27 239.856 1037.25 240.739 1037.22 241.933C1037.19 243.128 1036.17 243.962 1035.56 244.353C1034.35 245.134 1032.66 245.557 1030.92 245.515C1029.18 245.473 1027.51 244.969 1026.34 244.131ZM1022.07 274.412C1023.8 273.948 1025.08 272.893 1025.66 271.443C1026.13 270.277 1026.09 268.946 1025.54 267.696C1024.79 265.973 1023.17 264.541 1021.12 263.768C1019.44 263.135 1017.65 263.018 1016.08 263.439C1014.35 263.903 1013.07 264.957 1012.49 266.407C1012.28 266.909 1012.18 267.441 1012.16 267.984C1012.15 268.704 1012.3 269.443 1012.61 270.155C1013.36 271.878 1014.98 273.31 1017.03 274.083L1017.03 274.083C1018.71 274.716 1020.5 274.833 1022.07 274.412ZM1018.08 271.287C1016.8 270.802 1015.77 269.93 1015.34 268.954C1015.19 268.595 1015.04 268.056 1015.26 267.525C1015.78 266.244 1018.02 265.794 1020.06 266.564C1021.35 267.049 1022.38 267.921 1022.8 268.897C1022.91 269.135 1023.01 269.452 1023 269.793C1022.99 269.967 1022.96 270.147 1022.89 270.326C1022.37 271.607 1020.13 272.056 1018.08 271.287ZM1021.82 234.608C1023.91 233.934 1025.59 232.581 1026.43 230.897C1027.04 229.675 1027.14 228.347 1026.73 227.159C1026.21 225.683 1024.99 224.568 1023.28 224.021C1021.73 223.526 1019.94 223.556 1018.24 224.107L1018.23 224.107C1016.14 224.781 1014.47 226.134 1013.63 227.818C1013.28 228.514 1013.1 229.245 1013.08 229.965C1013.07 230.508 1013.15 231.044 1013.33 231.555C1013.84 233.032 1015.07 234.147 1016.77 234.694C1018.32 235.189 1020.11 235.158 1021.82 234.608ZM1016.15 230.572C1015.96 230.031 1016.13 229.5 1016.3 229.149C1016.78 228.195 1017.84 227.373 1019.15 226.951L1019.15 226.951C1021.23 226.281 1023.45 226.837 1023.91 228.143C1024.1 228.683 1023.93 229.215 1023.75 229.566C1023.28 230.52 1022.21 231.341 1020.9 231.764C1018.82 232.434 1016.6 231.877 1016.15 230.572Z" fill="#FF5B2E"/>
</g>
<g opacity="0.1" clip-path="url(#clip7_1_12)">
<path d="M849.328 284.232C853.552 280.901 855.938 276.62 856.045 272.177C856.152 267.734 853.975 263.343 849.916 259.813C846.267 256.64 841.62 254.687 837.484 254.587C835.475 254.539 833.93 255.116 832.891 256.303C831.866 257.474 831.491 259.045 831.449 260.806C831.404 262.68 831.735 264.769 832.061 266.823C832.346 268.617 832.615 270.312 832.583 271.612C832.556 272.735 832.224 274.31 831.873 275.978C831.052 279.876 830.121 284.294 832.191 286.908C833.175 288.152 834.678 288.806 836.659 288.854C840.795 288.953 845.531 287.226 849.328 284.232ZM834.534 285.054C833.334 283.538 834.145 279.688 834.797 276.594C835.178 274.788 835.537 273.081 835.571 271.684C835.609 270.112 835.319 268.287 835.012 266.354C834.537 263.361 833.946 259.635 835.14 258.27C835.299 258.088 835.784 257.535 837.412 257.574C840.822 257.656 844.862 259.378 847.955 262.068C851.33 265.003 853.143 268.568 853.057 272.105C852.972 275.642 850.991 279.116 847.478 281.885C844.259 284.423 840.141 285.948 836.731 285.866C835.147 285.828 834.685 285.245 834.534 285.054ZM871.809 285.124C873.69 283.914 874.795 282.142 874.84 280.264C874.885 278.385 873.867 276.562 872.047 275.263C870.375 274.069 868.158 273.38 865.804 273.323C863.45 273.266 861.203 273.848 859.475 274.96C857.594 276.17 856.49 277.942 856.444 279.821C856.399 281.699 857.417 283.522 859.237 284.822C860.91 286.015 863.127 286.704 865.48 286.761C867.834 286.818 870.082 286.236 871.809 285.124ZM860.974 282.39C860.386 281.97 859.403 281.087 859.432 279.892C859.461 278.698 860.484 277.864 861.092 277.472C862.304 276.692 863.996 276.269 865.732 276.31C867.469 276.352 869.137 276.857 870.311 277.694C870.899 278.114 871.881 278.997 871.853 280.192C871.824 281.386 870.8 282.221 870.192 282.612C868.98 283.392 867.289 283.815 865.552 283.774C863.816 283.732 862.147 283.227 860.974 282.39ZM872.177 269.866C874.058 268.656 875.162 266.884 875.208 265.005C875.253 263.127 874.235 261.304 872.415 260.004C870.742 258.81 868.525 258.122 866.172 258.065C863.818 258.008 861.57 258.589 859.843 259.702C857.962 260.912 856.857 262.684 856.812 264.562C856.767 266.441 857.785 268.264 859.605 269.563C861.277 270.757 863.494 271.446 865.848 271.503C868.202 271.559 870.449 270.978 872.177 269.866ZM861.341 267.131C860.753 266.711 859.771 265.828 859.799 264.634C859.828 263.44 860.852 262.605 861.46 262.214C862.672 261.434 864.363 261.01 866.1 261.052C867.836 261.094 869.505 261.598 870.678 262.436C871.266 262.856 872.249 263.739 872.22 264.933C872.191 266.128 871.168 266.962 870.56 267.353C869.347 268.134 867.656 268.557 865.92 268.515C864.183 268.473 862.515 267.969 861.341 267.131ZM857.067 297.412C858.801 296.948 860.077 295.893 860.662 294.443C861.133 293.277 861.09 291.946 860.541 290.696C859.785 288.973 858.173 287.541 856.118 286.768C854.438 286.135 852.65 286.018 851.082 286.439C849.348 286.903 848.072 287.957 847.487 289.407C847.284 289.909 847.177 290.441 847.164 290.984C847.147 291.704 847.295 292.443 847.608 293.155C848.364 294.878 849.976 296.31 852.031 297.083L852.031 297.083C853.711 297.716 855.499 297.833 857.067 297.412ZM853.084 294.287C851.797 293.802 850.772 292.93 850.344 291.954C850.187 291.595 850.044 291.056 850.258 290.525C850.775 289.244 853.021 288.794 855.065 289.564C856.352 290.049 857.377 290.921 857.805 291.897C857.909 292.135 858.007 292.452 857.999 292.793C857.995 292.967 857.963 293.147 857.891 293.326C857.374 294.607 855.128 295.056 853.084 294.287ZM856.82 257.608C858.91 256.934 860.589 255.581 861.428 253.897C862.036 252.675 862.143 251.347 861.729 250.159C861.214 248.683 859.99 247.568 858.281 247.021C856.735 246.526 854.943 246.556 853.235 247.107L853.235 247.107C851.145 247.781 849.466 249.134 848.628 250.818C848.281 251.514 848.097 252.245 848.08 252.965C848.067 253.508 848.148 254.044 848.326 254.555C848.841 256.032 850.065 257.147 851.774 257.694C853.32 258.189 855.112 258.158 856.82 257.608ZM851.148 253.572C850.96 253.031 851.128 252.5 851.303 252.149C851.777 251.195 852.843 250.373 854.152 249.951L854.152 249.951C856.23 249.281 858.452 249.837 858.907 251.143C859.095 251.683 858.927 252.215 858.752 252.566C858.277 253.52 857.212 254.341 855.903 254.764C853.825 255.434 851.603 254.877 851.148 253.572Z" fill="#FF5B2E"/>
</g>
<g opacity="0.07" clip-path="url(#clip8_1_12)">
<path d="M704.667 64.9588C703.767 59.6552 701.152 55.5107 697.303 53.2885C693.454 51.0663 688.557 50.8736 683.514 52.7459C678.981 54.4288 675.04 57.5726 672.971 61.1555C671.966 62.896 671.733 64.5289 672.278 66.009C672.815 67.4699 674.014 68.5513 675.539 69.432C677.163 70.3691 679.156 71.0792 681.114 71.7768C682.826 72.3863 684.442 72.9621 685.569 73.6126C686.541 74.174 687.765 75.22 689.061 76.3272C692.089 78.9151 695.521 81.8482 698.808 81.2839C700.371 81.0157 701.665 80.0097 702.656 78.2939C704.724 74.711 705.476 69.7259 704.667 64.9588ZM698.302 78.3387C696.397 78.666 693.406 76.1095 691.002 74.0555C689.599 72.8562 688.273 71.7234 687.063 71.0245C685.701 70.2382 683.96 69.6182 682.117 68.9617C679.261 67.9446 675.708 66.6789 675.082 64.9772C674.998 64.7504 674.744 64.0602 675.559 62.6494C677.265 59.6952 680.711 56.9738 684.554 55.5472C688.747 53.9903 692.745 54.1072 695.809 55.8762C698.873 57.6453 700.972 61.0484 701.721 65.4586C702.407 69.4997 701.773 73.8453 700.068 76.7995C699.276 78.1717 698.543 78.2975 698.302 78.3387ZM716.219 45.6516C716.058 43.4208 715.031 41.6027 713.404 40.6631C711.777 39.7235 709.689 39.7441 707.676 40.7192C705.827 41.6152 704.161 43.2315 702.984 45.2704C701.806 47.3094 701.24 49.5608 701.388 51.6101C701.55 53.8408 702.576 55.6591 704.204 56.5987C705.831 57.5383 707.919 57.5177 709.932 56.5425C711.781 55.6465 713.447 54.0302 714.624 51.9913C715.802 49.9523 716.368 47.7008 716.219 45.6516ZM708.629 53.8534C707.978 54.1685 706.732 54.6081 705.698 54.0108C704.663 53.4135 704.421 52.115 704.369 51.394C704.265 49.9561 704.703 48.2687 705.571 46.7645C706.44 45.2602 707.682 44.0371 708.979 43.4083C709.63 43.0932 710.875 42.6536 711.91 43.2509C712.945 43.8482 713.187 45.1467 713.239 45.8677C713.343 47.3056 712.905 48.993 712.037 50.4972C711.168 52.0013 709.926 53.2247 708.629 53.8534ZM703.002 38.0202C702.84 35.7894 701.814 33.9713 700.186 33.0316C698.559 32.092 696.471 32.1126 694.459 33.0878C692.61 33.9838 690.943 35.6001 689.766 37.639C688.589 39.678 688.022 41.9294 688.171 43.9787C688.332 46.2095 689.358 48.0277 690.986 48.9673C692.613 49.9069 694.701 49.8864 696.714 48.9111C698.563 48.0151 700.229 46.3989 701.407 44.3599C702.584 42.3209 703.15 40.0694 703.002 38.0202ZM695.411 46.2219C694.76 46.5371 693.514 46.9767 692.48 46.3794C691.445 45.7821 691.203 44.4835 691.151 43.7626C691.047 42.3247 691.485 40.6373 692.353 39.1331C693.222 37.6289 694.464 36.4057 695.761 35.777C696.412 35.4618 697.658 35.0222 698.692 35.6195C699.727 36.2168 699.969 37.5153 700.021 38.2363C700.125 39.6742 699.687 41.3616 698.818 42.8658C697.95 44.3699 696.708 45.5933 695.411 46.2219ZM719.944 64.4785C720.367 62.7344 720.053 61.1086 719.06 59.9007C718.261 58.9287 717.073 58.3289 715.713 58.2119C713.838 58.0504 711.809 58.7799 710.145 60.2132C708.786 61.3845 707.827 62.8984 707.444 64.4763C707.022 66.2203 707.336 67.8461 708.329 69.054C708.672 69.4721 709.088 69.8211 709.558 70.0927C710.181 70.4526 710.901 70.6762 711.676 70.7429C713.55 70.9044 715.58 70.1749 717.243 68.7417L717.243 68.7416C718.603 67.5703 719.562 66.0564 719.944 64.4785ZM715.293 66.4776C714.25 67.3757 712.994 67.8572 711.933 67.7657C711.542 67.732 711.001 67.5991 710.637 67.1567C709.76 66.089 710.441 63.9021 712.096 62.4771C713.138 61.579 714.394 61.0975 715.456 61.1889C715.715 61.2112 716.04 61.2771 716.336 61.4479C716.486 61.5347 716.629 61.6487 716.752 61.7978C717.629 62.8656 716.947 65.0525 715.293 66.4776ZM684.885 45.6288C685.294 43.4713 684.911 41.3493 683.834 39.807C683.053 38.6876 681.939 37.958 680.698 37.7521C679.155 37.4965 677.59 38.0375 676.291 39.2753C675.116 40.3953 674.285 41.983 673.95 43.746L673.95 43.7461C673.541 45.9037 673.924 48.0257 675 49.568C675.446 50.206 675.999 50.7175 676.623 51.0774C677.093 51.349 677.603 51.5343 678.137 51.6228C679.68 51.8786 681.245 51.3375 682.544 50.0997C683.719 48.9797 684.55 47.392 684.885 45.6288ZM678.626 48.6748C678.061 48.5812 677.675 48.1786 677.45 47.8574C676.84 46.9838 676.629 45.655 676.886 44.3032L676.886 44.3033C677.293 42.158 678.846 40.4744 680.209 40.7003C680.774 40.7939 681.16 41.1966 681.384 41.5177C681.994 42.3915 682.206 43.7202 681.949 45.072C681.542 47.2172 679.989 48.9008 678.626 48.6748Z" fill="#FF5B2E"/>
</g>
<g opacity="0.06" clip-path="url(#clip9_1_12)">
<path d="M493.667 50.9588C492.767 45.6552 490.152 41.5107 486.303 39.2885C482.454 37.0663 477.557 36.8736 472.514 38.7459C467.981 40.4288 464.04 43.5726 461.971 47.1555C460.966 48.896 460.733 50.5289 461.278 52.009C461.815 53.4699 463.014 54.5513 464.539 55.432C466.163 56.3691 468.156 57.0792 470.114 57.7768C471.826 58.3863 473.442 58.9621 474.569 59.6126C475.541 60.174 476.765 61.22 478.061 62.3272C481.089 64.9151 484.521 67.8482 487.808 67.2839C489.371 67.0157 490.665 66.0097 491.656 64.2939C493.724 60.711 494.476 55.7259 493.667 50.9588ZM487.302 64.3387C485.397 64.666 482.406 62.1095 480.002 60.0555C478.599 58.8562 477.273 57.7234 476.063 57.0245C474.701 56.2382 472.96 55.6182 471.117 54.9617C468.261 53.9446 464.708 52.6789 464.082 50.9772C463.998 50.7504 463.744 50.0602 464.559 48.6494C466.265 45.6952 469.711 42.9738 473.554 41.5472C477.747 39.9903 481.745 40.1072 484.809 41.8762C487.873 43.6453 489.972 47.0484 490.721 51.4586C491.407 55.4997 490.773 59.8453 489.068 62.7995C488.276 64.1717 487.543 64.2975 487.302 64.3387ZM505.219 31.6516C505.058 29.4208 504.031 27.6027 502.404 26.6631C500.777 25.7235 498.689 25.7441 496.676 26.7192C494.827 27.6152 493.161 29.2315 491.984 31.2704C490.806 33.3094 490.24 35.5608 490.388 37.6101C490.55 39.8408 491.576 41.6591 493.204 42.5987C494.831 43.5383 496.919 43.5177 498.932 42.5425C500.781 41.6465 502.447 40.0302 503.624 37.9913C504.802 35.9523 505.368 33.7008 505.219 31.6516ZM497.629 39.8534C496.978 40.1685 495.732 40.6081 494.698 40.0108C493.663 39.4135 493.421 38.115 493.369 37.394C493.265 35.9561 493.703 34.2687 494.571 32.7645C495.44 31.2602 496.682 30.0371 497.979 29.4083C498.63 29.0932 499.875 28.6536 500.91 29.2509C501.945 29.8482 502.187 31.1467 502.239 31.8677C502.343 33.3056 501.905 34.993 501.037 36.4972C500.168 38.0013 498.926 39.2247 497.629 39.8534ZM492.002 24.0202C491.84 21.7894 490.814 19.9713 489.186 19.0316C487.559 18.092 485.471 18.1126 483.459 19.0878C481.61 19.9838 479.943 21.6001 478.766 23.639C477.589 25.678 477.022 27.9294 477.171 29.9787C477.332 32.2095 478.358 34.0277 479.986 34.9673C481.613 35.9069 483.701 35.8864 485.714 34.9111C487.563 34.0151 489.229 32.3989 490.407 30.3599C491.584 28.3209 492.15 26.0694 492.002 24.0202ZM484.411 32.2219C483.76 32.5371 482.514 32.9767 481.48 32.3794C480.445 31.7821 480.203 30.4835 480.151 29.7626C480.047 28.3247 480.485 26.6373 481.353 25.1331C482.222 23.6289 483.464 22.4057 484.761 21.777C485.412 21.4618 486.658 21.0222 487.692 21.6195C488.727 22.2168 488.969 23.5153 489.021 24.2363C489.125 25.6742 488.687 27.3616 487.818 28.8658C486.95 30.3699 485.708 31.5933 484.411 32.2219ZM508.944 50.4785C509.367 48.7344 509.053 47.1086 508.06 45.9007C507.261 44.9287 506.073 44.3289 504.713 44.2119C502.838 44.0504 500.809 44.7799 499.145 46.2132C497.786 47.3845 496.827 48.8984 496.444 50.4763C496.022 52.2203 496.336 53.8461 497.329 55.054C497.672 55.4721 498.088 55.8211 498.558 56.0927C499.181 56.4526 499.901 56.6762 500.676 56.7429C502.55 56.9044 504.58 56.1749 506.243 54.7417L506.243 54.7416C507.603 53.5703 508.562 52.0564 508.944 50.4785ZM504.293 52.4776C503.25 53.3757 501.994 53.8572 500.933 53.7657C500.542 53.732 500.001 53.5991 499.637 53.1567C498.76 52.089 499.441 49.9021 501.096 48.4771C502.138 47.579 503.394 47.0975 504.456 47.1889C504.715 47.2112 505.04 47.2771 505.336 47.4479C505.486 47.5347 505.629 47.6487 505.752 47.7978C506.629 48.8656 505.947 51.0525 504.293 52.4776ZM473.885 31.6288C474.294 29.4713 473.911 27.3493 472.834 25.807C472.053 24.6876 470.939 23.958 469.698 23.7521C468.155 23.4965 466.59 24.0375 465.291 25.2753C464.116 26.3953 463.285 27.983 462.95 29.746L462.95 29.7461C462.541 31.9037 462.924 34.0257 464 35.568C464.446 36.206 464.999 36.7175 465.623 37.0774C466.093 37.349 466.603 37.5343 467.137 37.6228C468.68 37.8786 470.245 37.3375 471.544 36.0997C472.719 34.9797 473.55 33.392 473.885 31.6288ZM467.626 34.6748C467.061 34.5812 466.675 34.1786 466.45 33.8574C465.84 32.9838 465.629 31.655 465.886 30.3032L465.886 30.3033C466.293 28.158 467.846 26.4744 469.209 26.7003C469.774 26.7939 470.16 27.1966 470.384 27.5177C470.994 28.3915 471.206 29.7202 470.949 31.072C470.542 33.2172 468.989 34.9008 467.626 34.6748Z" fill="#FF5B2E"/>
</g>
<g opacity="0.1" clip-path="url(#clip10_1_12)">
<path d="M776.327 187.211C770.989 186.547 766.267 187.86 763.031 190.907C759.796 193.953 758.202 198.588 758.544 203.956C758.852 208.782 760.729 213.461 763.565 216.473C764.943 217.936 766.44 218.629 768.014 218.534C769.568 218.439 770.948 217.602 772.23 216.394C773.595 215.109 774.849 213.405 776.08 211.73C777.156 210.266 778.173 208.884 779.12 207.992C779.937 207.222 781.291 206.351 782.725 205.428C786.074 203.273 789.871 200.83 790.276 197.52C790.469 195.946 789.878 194.417 788.519 192.974C785.683 189.962 781.125 187.808 776.327 187.211ZM787.31 197.157C787.075 199.075 783.766 201.205 781.107 202.916C779.555 203.915 778.089 204.858 777.071 205.816C775.926 206.895 774.832 208.383 773.673 209.96C771.877 212.402 769.642 215.441 767.832 215.551C767.591 215.566 766.857 215.61 765.74 214.424C763.402 211.941 761.787 207.857 761.526 203.766C761.242 199.302 762.504 195.508 765.08 193.082C767.656 190.657 771.519 189.625 775.958 190.177C780.026 190.683 784.005 192.54 786.344 195.023C787.43 196.176 787.34 196.914 787.31 197.157ZM761.16 170.593C758.977 170.106 756.94 170.565 755.572 171.854C754.204 173.142 753.623 175.147 753.978 177.355C754.304 179.384 755.373 181.445 756.987 183.159C758.601 184.873 760.594 186.064 762.599 186.511C764.782 186.998 766.819 186.538 768.187 185.25C769.555 183.962 770.136 181.956 769.781 179.748C769.455 177.719 768.387 175.658 766.773 173.944C765.159 172.23 763.165 171.04 761.16 170.593ZM766.831 180.222C766.946 180.936 767.008 182.255 766.138 183.074C765.269 183.893 763.955 183.752 763.25 183.594C761.843 183.28 760.353 182.375 759.162 181.111C757.971 179.846 757.157 178.304 756.928 176.881C756.814 176.168 756.751 174.848 757.621 174.029C758.491 173.21 759.804 173.352 760.509 173.509C761.916 173.823 763.406 174.728 764.597 175.993C765.788 177.257 766.602 178.799 766.831 180.222ZM750.048 181.056C747.865 180.569 745.829 181.029 744.461 182.317C743.092 183.605 742.511 185.61 742.866 187.819C743.193 189.847 744.261 191.908 745.875 193.622C747.489 195.336 749.482 196.527 751.488 196.974C753.671 197.461 755.707 197.001 757.075 195.713C758.443 194.425 759.024 192.42 758.669 190.211C758.343 188.183 757.275 186.122 755.661 184.407C754.047 182.694 752.053 181.503 750.048 181.056ZM755.719 190.686C755.834 191.399 755.896 192.719 755.027 193.538C754.157 194.357 752.844 194.215 752.138 194.058C750.731 193.744 749.241 192.839 748.05 191.574C746.86 190.309 746.046 188.768 745.817 187.345C745.702 186.631 745.639 185.311 746.509 184.492C747.379 183.673 748.692 183.815 749.398 183.973C750.805 184.286 752.295 185.192 753.485 186.456C754.676 187.721 755.49 189.262 755.719 190.686ZM780.262 172.442C778.714 171.536 777.066 171.368 775.624 171.972C774.463 172.457 773.547 173.423 773.043 174.692C772.349 176.44 772.464 178.594 773.358 180.599C774.089 182.238 775.263 183.593 776.664 184.413C778.213 185.319 779.86 185.486 781.302 184.883C781.802 184.674 782.255 184.377 782.651 184.005C783.175 183.511 783.596 182.886 783.883 182.163C784.577 180.414 784.462 178.261 783.568 176.255L783.568 176.255C782.838 174.616 781.664 173.262 780.262 172.442ZM780.839 177.472C781.399 178.729 781.499 180.07 781.106 181.061C780.961 181.425 780.678 181.905 780.15 182.126C778.875 182.659 776.976 181.377 776.087 179.383C775.527 178.126 775.428 176.785 775.821 175.794C775.916 175.553 776.073 175.26 776.322 175.026C776.448 174.907 776.598 174.803 776.776 174.728C778.052 174.195 779.95 175.477 780.839 177.472ZM752.123 200.596C750.174 199.583 748.032 199.339 746.245 199.927C744.948 200.353 743.929 201.21 743.374 202.339C742.686 203.743 742.754 205.397 743.565 206.998C744.3 208.446 745.581 209.699 747.173 210.526L747.173 210.526C749.122 211.539 751.264 211.783 753.051 211.196C753.791 210.952 754.44 210.57 754.964 210.076C755.359 209.704 755.683 209.268 755.922 208.783C756.61 207.379 756.543 205.725 755.731 204.124C754.996 202.677 753.715 201.423 752.123 200.596ZM753.239 207.467C752.987 207.981 752.49 208.235 752.118 208.357C751.106 208.69 749.772 208.51 748.552 207.875L748.552 207.875C746.614 206.868 745.449 204.896 746.057 203.656C746.309 203.142 746.806 202.888 747.178 202.765C748.191 202.432 749.524 202.613 750.745 203.247C752.682 204.254 753.848 206.226 753.239 207.467Z" fill="#FF5B2E"/>
</g>
<g opacity="0.05" clip-path="url(#clip11_1_12)">
<path d="M593.327 147.211C587.989 146.547 583.267 147.86 580.031 150.907C576.796 153.953 575.202 158.588 575.544 163.956C575.852 168.782 577.729 173.461 580.565 176.473C581.943 177.936 583.44 178.629 585.014 178.534C586.568 178.439 587.948 177.602 589.23 176.394C590.595 175.109 591.849 173.405 593.08 171.73C594.156 170.266 595.173 168.884 596.12 167.992C596.937 167.222 598.291 166.351 599.725 165.428C603.074 163.273 606.871 160.83 607.276 157.52C607.469 155.946 606.878 154.417 605.519 152.974C602.683 149.962 598.125 147.808 593.327 147.211ZM604.31 157.157C604.075 159.075 600.766 161.205 598.107 162.916C596.555 163.915 595.089 164.858 594.071 165.816C592.926 166.895 591.832 168.383 590.673 169.96C588.877 172.402 586.642 175.441 584.832 175.551C584.591 175.566 583.857 175.61 582.74 174.424C580.402 171.941 578.787 167.857 578.526 163.766C578.242 159.302 579.504 155.508 582.08 153.082C584.655 150.657 588.519 149.625 592.958 150.177C597.025 150.683 601.005 152.54 603.344 155.023C604.43 156.176 604.34 156.914 604.31 157.157ZM578.16 130.593C575.977 130.106 573.94 130.565 572.572 131.854C571.204 133.142 570.623 135.147 570.978 137.355C571.304 139.384 572.373 141.445 573.987 143.159C575.601 144.873 577.594 146.064 579.599 146.511C581.782 146.998 583.819 146.538 585.187 145.25C586.555 143.962 587.136 141.956 586.781 139.748C586.455 137.719 585.387 135.658 583.773 133.944C582.159 132.23 580.165 131.04 578.16 130.593ZM583.831 140.222C583.946 140.936 584.008 142.255 583.138 143.074C582.269 143.893 580.955 143.752 580.25 143.594C578.843 143.28 577.353 142.375 576.162 141.111C574.971 139.846 574.157 138.304 573.928 136.881C573.814 136.168 573.751 134.848 574.621 134.029C575.491 133.21 576.804 133.352 577.509 133.509C578.916 133.823 580.406 134.728 581.597 135.993C582.788 137.257 583.602 138.799 583.831 140.222ZM567.048 141.056C564.865 140.569 562.829 141.029 561.461 142.317C560.092 143.605 559.511 145.61 559.866 147.819C560.193 149.847 561.261 151.908 562.875 153.622C564.489 155.336 566.482 156.527 568.488 156.974C570.671 157.461 572.707 157.001 574.075 155.713C575.443 154.425 576.024 152.42 575.669 150.211C575.343 148.183 574.275 146.122 572.661 144.407C571.047 142.694 569.053 141.503 567.048 141.056ZM572.719 150.686C572.834 151.399 572.896 152.719 572.027 153.538C571.157 154.357 569.844 154.215 569.138 154.058C567.731 153.744 566.241 152.839 565.05 151.574C563.86 150.309 563.046 148.768 562.817 147.345C562.702 146.631 562.639 145.311 563.509 144.492C564.379 143.673 565.692 143.815 566.398 143.973C567.805 144.286 569.295 145.192 570.485 146.456C571.676 147.721 572.49 149.262 572.719 150.686ZM597.262 132.442C595.714 131.536 594.066 131.368 592.624 131.972C591.463 132.457 590.547 133.423 590.043 134.692C589.349 136.44 589.464 138.594 590.358 140.599C591.089 142.238 592.263 143.593 593.664 144.413C595.213 145.319 596.86 145.486 598.302 144.883C598.802 144.674 599.255 144.377 599.651 144.005C600.175 143.511 600.596 142.886 600.883 142.163C601.577 140.414 601.462 138.261 600.568 136.255L600.568 136.255C599.838 134.616 598.664 133.262 597.262 132.442ZM597.839 137.472C598.399 138.729 598.499 140.07 598.106 141.061C597.961 141.425 597.678 141.905 597.15 142.126C595.875 142.659 593.976 141.377 593.087 139.383C592.527 138.126 592.428 136.785 592.821 135.794C592.916 135.553 593.073 135.26 593.322 135.026C593.448 134.907 593.598 134.803 593.776 134.728C595.051 134.195 596.95 135.477 597.839 137.472ZM569.123 160.596C567.174 159.583 565.032 159.339 563.245 159.927C561.948 160.353 560.929 161.21 560.374 162.339C559.686 163.743 559.754 165.397 560.565 166.998C561.3 168.446 562.581 169.699 564.173 170.526L564.173 170.526C566.122 171.539 568.264 171.783 570.051 171.196C570.791 170.952 571.44 170.57 571.964 170.076C572.359 169.704 572.683 169.268 572.922 168.783C573.61 167.379 573.543 165.725 572.731 164.124C571.996 162.677 570.715 161.423 569.123 160.596ZM570.239 167.467C569.987 167.981 569.49 168.235 569.118 168.357C568.106 168.69 566.772 168.51 565.552 167.875L565.552 167.875C563.614 166.868 562.449 164.896 563.057 163.656C563.309 163.142 563.806 162.888 564.178 162.765C565.191 162.432 566.524 162.613 567.745 163.247C569.682 164.254 570.848 166.226 570.239 167.467Z" fill="#FF5B2E"/>
</g>
<g opacity="0.08" clip-path="url(#clip12_1_12)">
<path d="M653.328 261.232C657.552 257.901 659.938 253.62 660.045 249.177C660.152 244.734 657.975 240.343 653.916 236.813C650.267 233.64 645.62 231.687 641.484 231.587C639.475 231.539 637.93 232.116 636.891 233.303C635.866 234.474 635.491 236.045 635.449 237.806C635.404 239.68 635.735 241.769 636.061 243.823C636.346 245.617 636.615 247.312 636.583 248.612C636.556 249.735 636.224 251.31 635.873 252.978C635.052 256.876 634.121 261.294 636.191 263.908C637.175 265.152 638.678 265.806 640.659 265.854C644.795 265.953 649.531 264.226 653.328 261.232ZM638.534 262.054C637.334 260.538 638.145 256.688 638.797 253.594C639.178 251.788 639.537 250.081 639.571 248.684C639.609 247.112 639.319 245.287 639.012 243.354C638.537 240.361 637.946 236.635 639.14 235.27C639.299 235.088 639.784 234.535 641.412 234.574C644.822 234.656 648.862 236.378 651.955 239.068C655.33 242.003 657.143 245.568 657.057 249.105C656.972 252.642 654.991 256.116 651.478 258.885C648.259 261.423 644.141 262.948 640.731 262.866C639.147 262.828 638.685 262.245 638.534 262.054ZM675.809 262.124C677.69 260.914 678.795 259.142 678.84 257.264C678.885 255.385 677.867 253.562 676.047 252.263C674.375 251.069 672.158 250.38 669.804 250.323C667.45 250.266 665.203 250.848 663.475 251.96C661.594 253.17 660.49 254.942 660.444 256.821C660.399 258.699 661.417 260.522 663.237 261.822C664.91 263.015 667.127 263.704 669.48 263.761C671.834 263.818 674.082 263.236 675.809 262.124ZM664.974 259.39C664.386 258.97 663.403 258.087 663.432 256.892C663.461 255.698 664.484 254.864 665.092 254.472C666.304 253.692 667.996 253.269 669.732 253.31C671.469 253.352 673.137 253.857 674.311 254.694C674.899 255.114 675.881 255.997 675.853 257.192C675.824 258.386 674.8 259.221 674.192 259.612C672.98 260.392 671.289 260.815 669.552 260.774C667.816 260.732 666.147 260.227 664.974 259.39ZM676.177 246.866C678.058 245.656 679.162 243.884 679.208 242.005C679.253 240.127 678.235 238.304 676.415 237.004C674.742 235.81 672.525 235.122 670.172 235.065C667.818 235.008 665.57 235.589 663.843 236.702C661.962 237.912 660.857 239.684 660.812 241.562C660.767 243.441 661.785 245.264 663.605 246.563C665.277 247.757 667.494 248.446 669.848 248.503C672.202 248.559 674.449 247.978 676.177 246.866ZM665.341 244.131C664.753 243.711 663.771 242.828 663.799 241.634C663.828 240.44 664.852 239.605 665.46 239.214C666.672 238.434 668.363 238.01 670.1 238.052C671.836 238.094 673.505 238.598 674.678 239.436C675.266 239.856 676.249 240.739 676.22 241.933C676.191 243.128 675.168 243.962 674.56 244.353C673.347 245.134 671.656 245.557 669.92 245.515C668.183 245.473 666.515 244.969 665.341 244.131ZM661.067 274.412C662.801 273.948 664.077 272.893 664.662 271.443C665.133 270.277 665.09 268.946 664.541 267.696C663.785 265.973 662.173 264.541 660.118 263.768C658.438 263.135 656.65 263.018 655.082 263.439C653.348 263.903 652.072 264.957 651.487 266.407C651.284 266.909 651.177 267.441 651.164 267.984C651.147 268.704 651.295 269.443 651.608 270.155C652.364 271.878 653.976 273.31 656.031 274.083L656.031 274.083C657.711 274.716 659.499 274.833 661.067 274.412ZM657.084 271.287C655.797 270.802 654.772 269.93 654.344 268.954C654.187 268.595 654.044 268.056 654.258 267.525C654.775 266.244 657.021 265.794 659.065 266.564C660.352 267.049 661.377 267.921 661.805 268.897C661.909 269.135 662.007 269.452 661.999 269.793C661.995 269.967 661.963 270.147 661.891 270.326C661.374 271.607 659.128 272.056 657.084 271.287ZM660.82 234.608C662.91 233.934 664.589 232.581 665.428 230.897C666.036 229.675 666.143 228.347 665.729 227.159C665.214 225.683 663.99 224.568 662.281 224.021C660.735 223.526 658.943 223.556 657.235 224.107L657.235 224.107C655.145 224.781 653.466 226.134 652.628 227.818C652.281 228.514 652.097 229.245 652.08 229.965C652.067 230.508 652.148 231.044 652.326 231.555C652.841 233.032 654.065 234.147 655.774 234.694C657.32 235.189 659.112 235.158 660.82 234.608ZM655.148 230.572C654.96 230.031 655.128 229.5 655.303 229.149C655.777 228.195 656.843 227.373 658.152 226.951L658.152 226.951C660.23 226.281 662.452 226.837 662.907 228.143C663.095 228.683 662.927 229.215 662.752 229.566C662.277 230.52 661.212 231.341 659.903 231.764C657.825 232.434 655.603 231.877 655.148 230.572Z" fill="#FF5B2E"/>
</g>
<g opacity="0.06" clip-path="url(#clip13_1_12)">
<path d="M488.328 284.232C492.552 280.901 494.938 276.62 495.045 272.177C495.152 267.734 492.975 263.343 488.916 259.813C485.267 256.64 480.62 254.687 476.484 254.587C474.475 254.539 472.93 255.116 471.891 256.303C470.866 257.474 470.491 259.045 470.449 260.806C470.404 262.68 470.735 264.769 471.061 266.823C471.346 268.617 471.615 270.312 471.583 271.612C471.556 272.735 471.224 274.31 470.873 275.978C470.052 279.876 469.121 284.294 471.191 286.908C472.175 288.152 473.678 288.806 475.659 288.854C479.795 288.953 484.531 287.226 488.328 284.232ZM473.534 285.054C472.334 283.538 473.145 279.688 473.797 276.594C474.178 274.788 474.537 273.081 474.571 271.684C474.609 270.112 474.319 268.287 474.012 266.354C473.537 263.361 472.946 259.635 474.14 258.27C474.299 258.088 474.784 257.535 476.412 257.574C479.822 257.656 483.862 259.378 486.955 262.068C490.33 265.003 492.143 268.568 492.057 272.105C491.972 275.642 489.991 279.116 486.478 281.885C483.259 284.423 479.141 285.948 475.731 285.866C474.147 285.828 473.685 285.245 473.534 285.054ZM510.809 285.124C512.69 283.914 513.795 282.142 513.84 280.264C513.885 278.385 512.867 276.562 511.047 275.263C509.375 274.069 507.158 273.38 504.804 273.323C502.45 273.266 500.203 273.848 498.475 274.96C496.594 276.17 495.49 277.942 495.444 279.821C495.399 281.699 496.417 283.522 498.237 284.822C499.91 286.015 502.127 286.704 504.48 286.761C506.834 286.818 509.082 286.236 510.809 285.124ZM499.974 282.39C499.386 281.97 498.403 281.087 498.432 279.892C498.461 278.698 499.484 277.864 500.092 277.472C501.304 276.692 502.996 276.269 504.732 276.31C506.469 276.352 508.137 276.857 509.311 277.694C509.899 278.114 510.881 278.997 510.853 280.192C510.824 281.386 509.8 282.221 509.192 282.612C507.98 283.392 506.289 283.815 504.552 283.774C502.816 283.732 501.147 283.227 499.974 282.39ZM511.177 269.866C513.058 268.656 514.162 266.884 514.208 265.005C514.253 263.127 513.235 261.304 511.415 260.004C509.742 258.81 507.525 258.122 505.172 258.065C502.818 258.008 500.57 258.589 498.843 259.702C496.962 260.912 495.857 262.684 495.812 264.562C495.767 266.441 496.785 268.264 498.605 269.563C500.277 270.757 502.494 271.446 504.848 271.503C507.202 271.559 509.449 270.978 511.177 269.866ZM500.341 267.131C499.753 266.711 498.771 265.828 498.799 264.634C498.828 263.44 499.852 262.605 500.46 262.214C501.672 261.434 503.363 261.01 505.1 261.052C506.836 261.094 508.505 261.598 509.678 262.436C510.266 262.856 511.249 263.739 511.22 264.933C511.191 266.128 510.168 266.962 509.56 267.353C508.347 268.134 506.656 268.557 504.92 268.515C503.183 268.473 501.515 267.969 500.341 267.131ZM496.067 297.412C497.801 296.948 499.077 295.893 499.662 294.443C500.133 293.277 500.09 291.946 499.541 290.696C498.785 288.973 497.173 287.541 495.118 286.768C493.438 286.135 491.65 286.018 490.082 286.439C488.348 286.903 487.072 287.957 486.487 289.407C486.284 289.909 486.177 290.441 486.164 290.984C486.147 291.704 486.295 292.443 486.608 293.155C487.364 294.878 488.976 296.31 491.031 297.083L491.031 297.083C492.711 297.716 494.499 297.833 496.067 297.412ZM492.084 294.287C490.797 293.802 489.772 292.93 489.344 291.954C489.187 291.595 489.044 291.056 489.258 290.525C489.775 289.244 492.021 288.794 494.065 289.564C495.352 290.049 496.377 290.921 496.805 291.897C496.909 292.135 497.007 292.452 496.999 292.793C496.995 292.967 496.963 293.147 496.891 293.326C496.374 294.607 494.128 295.056 492.084 294.287ZM495.82 257.608C497.91 256.934 499.589 255.581 500.428 253.897C501.036 252.675 501.143 251.347 500.729 250.159C500.214 248.683 498.99 247.568 497.281 247.021C495.735 246.526 493.943 246.556 492.235 247.107L492.235 247.107C490.145 247.781 488.466 249.134 487.628 250.818C487.281 251.514 487.097 252.245 487.08 252.965C487.067 253.508 487.148 254.044 487.326 254.555C487.841 256.032 489.065 257.147 490.774 257.694C492.32 258.189 494.112 258.158 495.82 257.608ZM490.148 253.572C489.96 253.031 490.128 252.5 490.303 252.149C490.777 251.195 491.843 250.373 493.152 249.951L493.152 249.951C495.23 249.281 497.452 249.837 497.907 251.143C498.095 251.683 497.927 252.215 497.752 252.566C497.277 253.52 496.212 254.341 494.903 254.764C492.825 255.434 490.603 254.877 490.148 253.572Z" fill="#FF5B2E"/>
</g>
<g opacity="0.1" clip-path="url(#clip14_1_12)">
<path d="M368.327 150.211C362.989 149.547 358.267 150.86 355.031 153.907C351.796 156.953 350.202 161.588 350.544 166.956C350.852 171.782 352.729 176.461 355.565 179.473C356.943 180.936 358.44 181.629 360.014 181.534C361.568 181.439 362.948 180.602 364.23 179.394C365.595 178.109 366.849 176.405 368.08 174.73C369.156 173.266 370.173 171.884 371.12 170.992C371.937 170.222 373.291 169.351 374.725 168.428C378.074 166.273 381.871 163.83 382.276 160.52C382.469 158.946 381.878 157.417 380.519 155.974C377.683 152.962 373.125 150.808 368.327 150.211ZM379.31 160.157C379.075 162.075 375.766 164.205 373.107 165.916C371.555 166.915 370.089 167.858 369.071 168.816C367.926 169.895 366.832 171.383 365.673 172.96C363.877 175.402 361.642 178.441 359.832 178.551C359.591 178.566 358.857 178.61 357.74 177.424C355.402 174.941 353.787 170.857 353.526 166.766C353.242 162.302 354.504 158.508 357.08 156.082C359.655 153.657 363.519 152.625 367.958 153.177C372.025 153.683 376.005 155.54 378.344 158.023C379.43 159.176 379.34 159.914 379.31 160.157ZM353.16 133.593C350.977 133.106 348.94 133.565 347.572 134.854C346.204 136.142 345.623 138.147 345.978 140.355C346.304 142.384 347.373 144.445 348.987 146.159C350.601 147.873 352.594 149.064 354.599 149.511C356.782 149.998 358.819 149.538 360.187 148.25C361.555 146.962 362.136 144.956 361.781 142.748C361.455 140.719 360.387 138.658 358.773 136.944C357.159 135.23 355.165 134.04 353.16 133.593ZM358.831 143.222C358.946 143.936 359.008 145.255 358.138 146.074C357.269 146.893 355.955 146.752 355.25 146.594C353.843 146.28 352.353 145.375 351.162 144.111C349.971 142.846 349.157 141.304 348.928 139.881C348.814 139.168 348.751 137.848 349.621 137.029C350.491 136.21 351.804 136.352 352.509 136.509C353.916 136.823 355.406 137.728 356.597 138.993C357.788 140.257 358.602 141.799 358.831 143.222ZM342.048 144.056C339.865 143.569 337.829 144.029 336.461 145.317C335.092 146.605 334.511 148.61 334.866 150.819C335.193 152.847 336.261 154.908 337.875 156.622C339.489 158.336 341.482 159.527 343.488 159.974C345.671 160.461 347.707 160.001 349.075 158.713C350.443 157.425 351.024 155.42 350.669 153.211C350.343 151.183 349.275 149.122 347.661 147.407C346.047 145.694 344.053 144.503 342.048 144.056ZM347.719 153.686C347.834 154.399 347.896 155.719 347.027 156.538C346.157 157.357 344.844 157.215 344.138 157.058C342.731 156.744 341.241 155.839 340.05 154.574C338.86 153.309 338.046 151.768 337.817 150.345C337.702 149.631 337.639 148.311 338.509 147.492C339.379 146.673 340.692 146.815 341.398 146.973C342.805 147.286 344.295 148.192 345.485 149.456C346.676 150.721 347.49 152.262 347.719 153.686ZM372.262 135.442C370.714 134.536 369.066 134.368 367.624 134.972C366.463 135.457 365.547 136.423 365.043 137.692C364.349 139.44 364.464 141.594 365.358 143.599C366.089 145.238 367.263 146.593 368.664 147.413C370.213 148.319 371.86 148.486 373.302 147.883C373.802 147.674 374.255 147.377 374.651 147.005C375.175 146.511 375.596 145.886 375.883 145.163C376.577 143.414 376.462 141.261 375.568 139.255L375.568 139.255C374.838 137.616 373.664 136.262 372.262 135.442ZM372.839 140.472C373.399 141.729 373.499 143.07 373.106 144.061C372.961 144.425 372.678 144.905 372.15 145.126C370.875 145.659 368.976 144.377 368.087 142.383C367.527 141.126 367.428 139.785 367.821 138.794C367.916 138.553 368.073 138.26 368.322 138.026C368.448 137.907 368.598 137.803 368.776 137.728C370.051 137.195 371.95 138.477 372.839 140.472ZM344.123 163.596C342.174 162.583 340.032 162.339 338.245 162.927C336.948 163.353 335.929 164.21 335.374 165.339C334.686 166.743 334.754 168.397 335.565 169.998C336.3 171.446 337.581 172.699 339.173 173.526L339.173 173.526C341.122 174.539 343.264 174.783 345.051 174.196C345.791 173.952 346.44 173.57 346.964 173.076C347.359 172.704 347.683 172.268 347.922 171.783C348.61 170.379 348.543 168.725 347.731 167.124C346.996 165.677 345.715 164.423 344.123 163.596ZM345.239 170.467C344.987 170.981 344.49 171.235 344.118 171.357C343.106 171.69 341.772 171.51 340.552 170.875L340.552 170.875C338.614 169.868 337.449 167.896 338.057 166.656C338.309 166.142 338.806 165.888 339.178 165.765C340.191 165.432 341.524 165.613 342.745 166.247C344.682 167.254 345.848 169.226 345.239 170.467Z" fill="#FF5B2E"/>
</g>
<g opacity="0.1" clip-path="url(#clip15_1_12)">
<path d="M148.327 147.211C142.989 146.547 138.267 147.86 135.031 150.907C131.796 153.953 130.202 158.588 130.544 163.956C130.852 168.782 132.729 173.461 135.565 176.473C136.943 177.936 138.44 178.629 140.014 178.534C141.568 178.439 142.948 177.602 144.23 176.394C145.595 175.109 146.849 173.405 148.08 171.73C149.156 170.266 150.173 168.884 151.12 167.992C151.937 167.222 153.291 166.351 154.725 165.428C158.074 163.273 161.871 160.83 162.276 157.52C162.469 155.946 161.878 154.417 160.519 152.974C157.683 149.962 153.125 147.808 148.327 147.211ZM159.31 157.157C159.075 159.075 155.766 161.205 153.107 162.916C151.555 163.915 150.089 164.858 149.071 165.816C147.926 166.895 146.832 168.383 145.673 169.96C143.877 172.402 141.642 175.441 139.832 175.551C139.591 175.566 138.857 175.61 137.74 174.424C135.402 171.941 133.787 167.857 133.526 163.766C133.242 159.302 134.504 155.508 137.08 153.082C139.655 150.657 143.519 149.625 147.958 150.177C152.025 150.683 156.005 152.54 158.344 155.023C159.43 156.176 159.34 156.914 159.31 157.157ZM133.16 130.593C130.977 130.106 128.94 130.565 127.572 131.854C126.204 133.142 125.623 135.147 125.978 137.355C126.304 139.384 127.373 141.445 128.987 143.159C130.601 144.873 132.594 146.064 134.599 146.511C136.782 146.998 138.819 146.538 140.187 145.25C141.555 143.962 142.136 141.956 141.781 139.748C141.455 137.719 140.387 135.658 138.773 133.944C137.159 132.23 135.165 131.04 133.16 130.593ZM138.831 140.222C138.946 140.936 139.008 142.255 138.138 143.074C137.269 143.893 135.955 143.752 135.25 143.594C133.843 143.28 132.353 142.375 131.162 141.111C129.971 139.846 129.157 138.304 128.928 136.881C128.814 136.168 128.751 134.848 129.621 134.029C130.491 133.21 131.804 133.352 132.509 133.509C133.916 133.823 135.406 134.728 136.597 135.993C137.788 137.257 138.602 138.799 138.831 140.222ZM122.048 141.056C119.865 140.569 117.829 141.029 116.461 142.317C115.092 143.605 114.511 145.61 114.866 147.819C115.193 149.847 116.261 151.908 117.875 153.622C119.489 155.336 121.482 156.527 123.488 156.974C125.671 157.461 127.707 157.001 129.075 155.713C130.443 154.425 131.024 152.42 130.669 150.211C130.343 148.183 129.275 146.122 127.661 144.407C126.047 142.694 124.053 141.503 122.048 141.056ZM127.719 150.686C127.834 151.399 127.896 152.719 127.027 153.538C126.157 154.357 124.844 154.215 124.138 154.058C122.731 153.744 121.241 152.839 120.05 151.574C118.86 150.309 118.046 148.768 117.817 147.345C117.702 146.631 117.639 145.311 118.509 144.492C119.379 143.673 120.692 143.815 121.398 143.973C122.805 144.286 124.295 145.192 125.485 146.456C126.676 147.721 127.49 149.262 127.719 150.686ZM152.262 132.442C150.714 131.536 149.066 131.368 147.624 131.972C146.463 132.457 145.547 133.423 145.043 134.692C144.349 136.44 144.464 138.594 145.358 140.599C146.089 142.238 147.263 143.593 148.664 144.413C150.213 145.319 151.86 145.486 153.302 144.883C153.802 144.674 154.255 144.377 154.651 144.005C155.175 143.511 155.596 142.886 155.883 142.163C156.577 140.414 156.462 138.261 155.568 136.255L155.568 136.255C154.838 134.616 153.664 133.262 152.262 132.442ZM152.839 137.472C153.399 138.729 153.499 140.07 153.106 141.061C152.961 141.425 152.678 141.905 152.15 142.126C150.875 142.659 148.976 141.377 148.087 139.383C147.527 138.126 147.428 136.785 147.821 135.794C147.916 135.553 148.073 135.26 148.322 135.026C148.448 134.907 148.598 134.803 148.776 134.728C150.051 134.195 151.95 135.477 152.839 137.472ZM124.123 160.596C122.174 159.583 120.032 159.339 118.245 159.927C116.948 160.353 115.929 161.21 115.374 162.339C114.686 163.743 114.754 165.397 115.565 166.998C116.3 168.446 117.581 169.699 119.173 170.526L119.173 170.526C121.122 171.539 123.264 171.783 125.051 171.196C125.791 170.952 126.44 170.57 126.964 170.076C127.359 169.704 127.683 169.268 127.922 168.783C128.61 167.379 128.543 165.725 127.731 164.124C126.996 162.677 125.715 161.423 124.123 160.596ZM125.239 167.467C124.987 167.981 124.49 168.235 124.118 168.357C123.106 168.69 121.772 168.51 120.552 167.875L120.552 167.875C118.614 166.868 117.449 164.896 118.057 163.656C118.309 163.142 118.806 162.888 119.178 162.765C120.191 162.432 121.524 162.613 122.745 163.247C124.682 164.254 125.848 166.226 125.239 167.467Z" fill="#FF5B2E"/>
</g>
<g opacity="0.07" clip-path="url(#clip16_1_12)">
<path d="M291.328 298.232C295.552 294.901 297.938 290.62 298.045 286.177C298.152 281.734 295.975 277.343 291.916 273.813C288.267 270.64 283.62 268.687 279.484 268.587C277.475 268.539 275.93 269.116 274.891 270.303C273.866 271.474 273.491 273.045 273.449 274.806C273.404 276.68 273.735 278.769 274.061 280.823C274.346 282.617 274.615 284.312 274.583 285.612C274.556 286.735 274.224 288.31 273.873 289.978C273.052 293.876 272.121 298.294 274.191 300.908C275.175 302.152 276.678 302.806 278.659 302.854C282.795 302.953 287.531 301.226 291.328 298.232ZM276.534 299.054C275.334 297.538 276.145 293.688 276.797 290.594C277.178 288.788 277.537 287.081 277.571 285.684C277.609 284.112 277.319 282.287 277.012 280.354C276.537 277.361 275.946 273.635 277.14 272.27C277.299 272.088 277.784 271.535 279.412 271.574C282.822 271.656 286.862 273.378 289.955 276.068C293.33 279.003 295.143 282.568 295.057 286.105C294.972 289.642 292.991 293.116 289.478 295.885C286.259 298.423 282.141 299.948 278.731 299.866C277.147 299.828 276.685 299.245 276.534 299.054ZM313.809 299.124C315.69 297.914 316.795 296.142 316.84 294.264C316.885 292.385 315.867 290.562 314.047 289.263C312.375 288.069 310.158 287.38 307.804 287.323C305.45 287.266 303.203 287.848 301.475 288.96C299.594 290.17 298.49 291.942 298.444 293.821C298.399 295.699 299.417 297.522 301.237 298.822C302.91 300.015 305.127 300.704 307.48 300.761C309.834 300.818 312.082 300.236 313.809 299.124ZM302.974 296.39C302.386 295.97 301.403 295.087 301.432 293.892C301.461 292.698 302.484 291.864 303.092 291.472C304.304 290.692 305.996 290.269 307.732 290.31C309.469 290.352 311.137 290.857 312.311 291.694C312.899 292.114 313.881 292.997 313.853 294.192C313.824 295.386 312.8 296.221 312.192 296.612C310.98 297.392 309.289 297.815 307.552 297.774C305.816 297.732 304.147 297.227 302.974 296.39ZM314.177 283.866C316.058 282.656 317.162 280.884 317.208 279.005C317.253 277.127 316.235 275.304 314.415 274.004C312.742 272.81 310.525 272.122 308.172 272.065C305.818 272.008 303.57 272.589 301.843 273.702C299.962 274.912 298.857 276.684 298.812 278.562C298.767 280.441 299.785 282.264 301.605 283.563C303.277 284.757 305.494 285.446 307.848 285.503C310.202 285.559 312.449 284.978 314.177 283.866ZM303.341 281.131C302.753 280.711 301.771 279.828 301.799 278.634C301.828 277.44 302.852 276.605 303.46 276.214C304.672 275.434 306.363 275.01 308.1 275.052C309.836 275.094 311.505 275.598 312.678 276.436C313.266 276.856 314.249 277.739 314.22 278.933C314.191 280.128 313.168 280.962 312.56 281.353C311.347 282.134 309.656 282.557 307.92 282.515C306.183 282.473 304.515 281.969 303.341 281.131ZM299.067 311.412C300.801 310.948 302.077 309.893 302.662 308.443C303.133 307.277 303.09 305.946 302.541 304.696C301.785 302.973 300.173 301.541 298.118 300.768C296.438 300.135 294.65 300.018 293.082 300.439C291.348 300.903 290.072 301.957 289.487 303.407C289.284 303.909 289.177 304.441 289.164 304.984C289.147 305.704 289.295 306.443 289.608 307.155C290.364 308.878 291.976 310.31 294.031 311.083L294.031 311.083C295.711 311.716 297.499 311.833 299.067 311.412ZM295.084 308.287C293.797 307.802 292.772 306.93 292.344 305.954C292.187 305.595 292.044 305.056 292.258 304.525C292.775 303.244 295.021 302.794 297.065 303.564C298.352 304.049 299.377 304.921 299.805 305.897C299.909 306.135 300.007 306.452 299.999 306.793C299.995 306.967 299.963 307.147 299.891 307.326C299.374 308.607 297.128 309.056 295.084 308.287ZM298.82 271.608C300.91 270.934 302.589 269.581 303.428 267.897C304.036 266.675 304.143 265.347 303.729 264.159C303.214 262.683 301.99 261.568 300.281 261.021C298.735 260.526 296.943 260.556 295.235 261.107L295.235 261.107C293.145 261.781 291.466 263.134 290.628 264.818C290.281 265.514 290.097 266.245 290.08 266.965C290.067 267.508 290.148 268.044 290.326 268.555C290.841 270.032 292.065 271.147 293.774 271.694C295.32 272.189 297.112 272.158 298.82 271.608ZM293.148 267.572C292.96 267.031 293.128 266.5 293.303 266.149C293.777 265.195 294.843 264.373 296.152 263.951L296.152 263.951C298.23 263.281 300.452 263.837 300.907 265.143C301.095 265.683 300.927 266.215 300.752 266.566C300.277 267.52 299.212 268.341 297.903 268.764C295.825 269.434 293.603 268.877 293.148 267.572Z" fill="#FF5B2E"/>
</g>
<g opacity="0.07" clip-path="url(#clip17_1_12)">
<path d="M10.3278 272.232C14.5522 268.901 16.9376 264.62 17.0446 260.177C17.1517 255.734 14.9751 251.343 10.916 247.813C7.26743 244.64 2.61993 242.687 -1.51604 242.587C-3.52518 242.539 -5.07033 243.116 -6.10875 244.303C-7.13375 245.474 -7.50875 247.045 -7.55107 248.806C-7.5962 250.68 -7.26472 252.769 -6.93894 254.823C-6.65425 256.617 -6.38539 258.312 -6.41672 259.612C-6.44375 260.735 -6.77564 262.31 -7.12698 263.978C-7.94822 267.876 -8.87884 272.294 -6.80916 274.908C-5.82528 276.152 -4.32206 276.806 -2.3414 276.854C1.79457 276.953 6.53074 275.226 10.3278 272.232ZM-4.46603 273.054C-5.66594 271.538 -4.8547 267.688 -4.20298 264.594C-3.8224 262.788 -3.46296 261.081 -3.4293 259.684C-3.39143 258.112 -3.68106 256.287 -3.98763 254.354C-4.46254 251.361 -5.05373 247.635 -3.85977 246.27C-3.70065 246.088 -3.21643 245.535 -1.58789 245.574C1.82234 245.656 5.86225 247.378 8.9551 250.068C12.3305 253.003 14.1425 256.568 14.0573 260.105C13.9721 263.642 11.9906 267.116 8.47778 269.885C5.25901 272.423 1.14089 273.948 -2.26935 273.866C-3.85318 273.828 -4.31452 273.245 -4.46603 273.054ZM32.8094 273.124C34.6902 271.914 35.7946 270.142 35.8398 268.264C35.8851 266.385 34.867 264.562 33.047 263.263C31.3748 262.069 29.1577 261.38 26.804 261.323C24.4503 261.266 22.2026 261.848 20.4749 262.96C18.5943 264.17 17.4897 265.942 17.4444 267.821C17.3992 269.699 18.4172 271.522 20.2374 272.822C21.9096 274.015 24.1267 274.704 26.4803 274.761C28.834 274.818 31.0818 274.236 32.8094 273.124ZM21.9738 270.39C21.3856 269.97 20.403 269.087 20.4317 267.892C20.4605 266.698 21.4844 265.864 22.0922 265.472C23.3045 264.692 24.9957 264.269 26.7321 264.31C28.4685 264.352 30.1373 264.857 31.3106 265.694C31.8988 266.114 32.8814 266.997 32.8526 268.192C32.8239 269.386 31.8 270.221 31.1921 270.612C29.9799 271.392 28.2887 271.815 26.5523 271.774C24.8159 271.732 23.1471 271.227 21.9738 270.39ZM33.177 257.866C35.0578 256.656 36.1623 254.884 36.2076 253.005C36.2528 251.127 35.2348 249.304 33.4146 248.004C31.7424 246.81 29.5253 246.122 27.1716 246.065C24.8179 246.008 22.5703 246.589 20.8425 247.702C18.9618 248.912 17.8572 250.684 17.8119 252.562C17.7667 254.441 18.7847 256.264 20.605 257.563C22.2772 258.757 24.4942 259.446 26.848 259.503C29.2017 259.559 31.4494 258.978 33.177 257.866ZM22.3413 255.131C21.7531 254.711 20.7705 253.828 20.7993 252.634C20.828 251.44 21.852 250.605 22.4597 250.214C23.672 249.434 25.3632 249.01 27.0996 249.052C28.8361 249.094 30.5048 249.598 31.6781 250.436C32.2663 250.856 33.2489 251.739 33.2201 252.933C33.1914 254.128 32.1675 254.962 31.5597 255.353C30.3474 256.134 28.6562 256.557 26.9198 256.515C25.1834 256.473 23.5146 255.969 22.3413 255.131ZM18.0672 285.412C19.8005 284.948 21.0773 283.893 21.6621 282.443C22.1327 281.277 22.0898 279.946 21.5411 278.696C20.785 276.973 19.1727 275.541 17.1176 274.768C15.4382 274.135 13.6498 274.018 12.0816 274.439C10.3483 274.903 9.07153 275.957 8.4867 277.407C8.2843 277.909 8.17693 278.441 8.16386 278.984C8.14652 279.704 8.29502 280.443 8.60776 281.155C9.36378 282.878 10.9761 284.31 13.0311 285.083L13.0312 285.083C14.7106 285.716 16.499 285.833 18.0672 285.412ZM14.0843 282.287C12.7966 281.802 11.7722 280.93 11.344 279.954C11.1866 279.595 11.0439 279.056 11.258 278.525C11.775 277.244 14.0211 276.794 16.0645 277.564C17.3522 278.049 18.3766 278.921 18.805 279.897C18.9093 280.135 19.0072 280.452 18.999 280.793C18.9948 280.967 18.9632 281.147 18.891 281.326C18.3739 282.607 16.1278 283.056 14.0843 282.287ZM17.8201 245.608C19.9101 244.934 21.5894 243.581 22.4275 241.897C23.0357 240.675 23.1426 239.347 22.7289 238.159C22.2144 236.683 20.9899 235.568 19.2811 235.021C17.7349 234.526 15.9429 234.556 14.2351 235.107L14.235 235.107C12.145 235.781 10.4657 237.134 9.62762 238.818C9.28093 239.514 9.09703 240.245 9.0797 240.965C9.06662 241.508 9.14836 242.044 9.32626 242.555C9.8407 244.032 11.0652 245.147 12.7741 245.694C14.3201 246.189 16.1121 246.158 17.8201 245.608ZM12.1481 241.572C11.9597 241.031 12.1283 240.5 12.3027 240.149C12.7775 239.195 13.8427 238.373 15.1522 237.951L15.1521 237.951C17.2303 237.281 19.452 237.837 19.9068 239.143C20.0952 239.683 19.9267 240.215 19.7522 240.566C19.2774 241.52 18.2122 242.341 16.9027 242.764C14.8246 243.434 12.6028 242.877 12.1481 241.572Z" fill="#FF5B2E"/>
</g>
</g>
</g>
<defs>
<clipPath id="clip0_1_12">
<rect width="51" height="51" fill="white" transform="translate(241.5 21) rotate(30)"/>
</clipPath>
<clipPath id="clip1_1_12">
<rect width="51" height="51" fill="white" transform="translate(17.5 -8) rotate(30)"/>
</clipPath>
<clipPath id="clip2_1_12">
<rect width="51" height="51" fill="white" transform="translate(1047.5 21) rotate(30)"/>
</clipPath>
<clipPath id="clip3_1_12">
<rect width="51" height="51" fill="white" transform="translate(836.5 7) rotate(30)"/>
</clipPath>
<clipPath id="clip4_1_12">
<rect width="51" height="51" fill="white" transform="translate(1090 191.963) rotate(-43.2788)"/>
</clipPath>
<clipPath id="clip5_1_12">
<rect width="51" height="51" fill="white" transform="translate(907 151.963) rotate(-43.2788)"/>
</clipPath>
<clipPath id="clip6_1_12">
<rect width="51" height="51" fill="white" transform="translate(1044.21 224.228) rotate(91.3798)"/>
</clipPath>
<clipPath id="clip7_1_12">
<rect width="51" height="51" fill="white" transform="translate(879.213 247.228) rotate(91.3798)"/>
</clipPath>
<clipPath id="clip8_1_12">
<rect width="51" height="51" fill="white" transform="translate(686.5 21) rotate(30)"/>
</clipPath>
<clipPath id="clip9_1_12">
<rect width="51" height="51" fill="white" transform="translate(475.5 7) rotate(30)"/>
</clipPath>
<clipPath id="clip10_1_12">
<rect width="51" height="51" fill="white" transform="translate(729 191.963) rotate(-43.2788)"/>
</clipPath>
<clipPath id="clip11_1_12">
<rect width="51" height="51" fill="white" transform="translate(546 151.963) rotate(-43.2788)"/>
</clipPath>
<clipPath id="clip12_1_12">
<rect width="51" height="51" fill="white" transform="translate(683.213 224.228) rotate(91.3798)"/>
</clipPath>
<clipPath id="clip13_1_12">
<rect width="51" height="51" fill="white" transform="translate(518.213 247.228) rotate(91.3798)"/>
</clipPath>
<clipPath id="clip14_1_12">
<rect width="51" height="51" fill="white" transform="translate(321 154.963) rotate(-43.2788)"/>
</clipPath>
<clipPath id="clip15_1_12">
<rect width="51" height="51" fill="white" transform="translate(101 151.963) rotate(-43.2788)"/>
</clipPath>
<clipPath id="clip16_1_12">
<rect width="51" height="51" fill="white" transform="translate(321.213 261.228) rotate(91.3798)"/>
</clipPath>
<clipPath id="clip17_1_12">
<rect width="51" height="51" fill="white" transform="translate(40.2133 235.228) rotate(91.3798)"/>
</clipPath>
</defs>
</svg>
