<?xml version="1.0"?>
<svg width="1170" height="300" xmlns="http://www.w3.org/2000/svg" xmlns:svg="http://www.w3.org/2000/svg">
 <defs>
  <clipPath id="clip0_1_12">
   <rect fill="white" height="51" id="svg_1" transform="rotate(30, 241.5, 21) translate(0, -0.769231)" width="51" x="241.5" y="21"/>
  </clipPath>
  <clipPath id="clip1_1_12">
   <rect fill="white" height="51" id="svg_2" transform="rotate(30, 17.5, -8) translate(0, -0.769231)" width="51" x="17.5" y="-8"/>
  </clipPath>
  <clipPath id="clip2_1_12">
   <rect fill="white" height="51" id="svg_3" transform="rotate(30, 1047.5, 21) translate(0, -0.769231)" width="51" x="1047.5" y="21"/>
  </clipPath>
  <clipPath id="clip3_1_12">
   <rect fill="white" height="51" id="svg_4" transform="rotate(30, 836.5, 7) translate(0, -0.769231)" width="51" x="836.5" y="7"/>
  </clipPath>
  <clipPath id="clip4_1_12">
   <rect fill="white" height="51" id="svg_5" transform="rotate(-43.2788, 1090, 191.963) translate(0, -0.769231)" width="51" x="1090" y="191.96"/>
  </clipPath>
  <clipPath id="clip5_1_12">
   <rect fill="white" height="51" id="svg_6" transform="rotate(-43.2788, 907, 151.963) translate(0, -0.769231)" width="51" x="907" y="151.96"/>
  </clipPath>
  <clipPath id="clip6_1_12">
   <rect fill="white" height="51" id="svg_7" transform="rotate(91.3798, 1044.21, 224.228) translate(0, -0.769231)" width="51" x="1044.21" y="224.23"/>
  </clipPath>
  <clipPath id="clip7_1_12">
   <rect fill="white" height="51" id="svg_8" transform="rotate(91.3798, 879.213, 247.228) translate(0, -0.769231)" width="51" x="879.21" y="247.23"/>
  </clipPath>
  <clipPath id="clip8_1_12">
   <rect fill="white" height="51" id="svg_9" transform="rotate(30, 686.5, 21) translate(0, -0.769231)" width="51" x="686.5" y="21"/>
  </clipPath>
  <clipPath id="clip9_1_12">
   <rect fill="white" height="51" id="svg_10" transform="rotate(30, 475.5, 7) translate(0, -0.769231)" width="51" x="475.5" y="7"/>
  </clipPath>
  <clipPath id="clip10_1_12">
   <rect fill="white" height="51" id="svg_11" transform="rotate(-43.2788, 729, 191.963) translate(0, -0.769231)" width="51" x="729" y="191.96"/>
  </clipPath>
  <clipPath id="clip11_1_12">
   <rect fill="white" height="51" id="svg_12" transform="rotate(-43.2788, 546, 151.963) translate(0, -0.769231)" width="51" x="546" y="151.96"/>
  </clipPath>
  <clipPath id="clip12_1_12">
   <rect fill="white" height="51" id="svg_13" transform="rotate(91.3798, 683.213, 224.228) translate(0, -0.769231)" width="51" x="683.21" y="224.23"/>
  </clipPath>
  <clipPath id="clip13_1_12">
   <rect fill="white" height="51" id="svg_14" transform="rotate(91.3798, 518.213, 247.228) translate(0, -0.769231)" width="51" x="518.21" y="247.23"/>
  </clipPath>
  <clipPath id="clip14_1_12">
   <rect fill="white" height="51" id="svg_15" transform="rotate(-43.2788, 321, 154.963) translate(0, -0.769231)" width="51" x="321" y="154.96"/>
  </clipPath>
  <clipPath id="clip15_1_12">
   <rect fill="white" height="51" id="svg_16" transform="rotate(-43.2788, 101, 151.963) translate(0, -0.769231)" width="51" x="101" y="151.96"/>
  </clipPath>
  <clipPath id="clip16_1_12">
   <rect fill="white" height="51" id="svg_17" transform="rotate(91.3798, 321.213, 261.228) translate(0, -0.769231)" width="51" x="321.21" y="261.23"/>
  </clipPath>
  <clipPath id="clip17_1_12">
   <rect fill="white" height="51" id="svg_18" transform="rotate(91.3798, 40.2133, 235.228) translate(0, -0.769231)" width="51" x="40.21" y="235.23"/>
  </clipPath>
 </defs>
 <g class="layer">
  <title>Layer 1</title>
  <rect fill="#104434" height="300" id="svg_19" rx="20" width="1170" x="-0.83" y="0"/>
  <g id="svg_20" opacity="0.9">
   <mask height="300" id="mask0_1_12" maskUnits="userSpaceOnUse" width="1170" x="0" y="0">
    <rect fill="#FFBDAB" height="300" id="svg_21" rx="20" width="1170"/>
   </mask>
   <g id="svg_22" mask="url(#mask0_1_12)">
    <g clip-path="url(#clip0_1_12)" id="svg_23" opacity="0.05">
     <path d="m259.67,64.96c-0.9,-5.3 -3.52,-9.45 -7.37,-11.67c-3.85,-2.22 -8.74,-2.42 -13.79,-0.54c-4.53,1.68 -8.47,4.82 -10.54,8.41c-1,1.74 -1.24,3.37 -0.69,4.85c0.53,1.46 1.73,2.54 3.26,3.42c1.62,0.94 3.62,1.65 5.57,2.35c1.72,0.61 3.33,1.18 4.46,1.83c0.97,0.56 2.19,1.61 3.49,2.72c3.03,2.59 6.46,5.52 9.75,4.95c1.56,-0.26 2.86,-1.27 3.85,-2.99c2.06,-3.58 2.82,-8.56 2.01,-13.33zm-6.37,13.38c-1.9,0.33 -4.89,-2.23 -7.3,-4.28c-1.4,-1.2 -2.73,-2.34 -3.94,-3.04c-1.36,-0.78 -3.1,-1.4 -4.94,-2.06c-2.86,-1.02 -6.41,-2.28 -7.04,-3.98c-0.08,-0.23 -0.34,-0.92 0.48,-2.33c1.7,-2.95 5.15,-5.68 8.99,-7.1c4.2,-1.56 8.2,-1.44 11.26,0.33c3.06,1.77 5.16,5.17 5.91,9.58c0.69,4.04 0.05,8.39 -1.65,11.34c-0.79,1.37 -1.53,1.5 -1.77,1.54zm17.92,-32.69c-0.16,-2.23 -1.19,-4.05 -2.82,-4.99c-1.62,-0.94 -3.71,-0.92 -5.72,0.06c-1.85,0.9 -3.52,2.51 -4.7,4.55c-1.17,2.04 -1.74,4.29 -1.59,6.34c0.16,2.23 1.19,4.05 2.81,4.99c1.63,0.94 3.72,0.92 5.73,-0.06c1.85,-0.89 3.52,-2.51 4.69,-4.55c1.18,-2.04 1.75,-4.29 1.6,-6.34zm-7.59,8.2c-0.65,0.32 -1.9,0.76 -2.93,0.16c-1.04,-0.6 -1.28,-1.89 -1.33,-2.62c-0.11,-1.43 0.33,-3.12 1.2,-4.63c0.87,-1.5 2.11,-2.72 3.41,-3.35c0.65,-0.32 1.9,-0.76 2.93,-0.16c1.03,0.6 1.28,1.9 1.33,2.62c0.1,1.44 -0.34,3.12 -1.2,4.63c-0.87,1.5 -2.11,2.72 -3.41,3.35zm-5.63,-15.83c-0.16,-2.23 -1.19,-4.05 -2.81,-4.99c-1.63,-0.94 -3.72,-0.92 -5.73,0.06c-1.85,0.89 -3.52,2.51 -4.69,4.55c-1.18,2.04 -1.75,4.29 -1.6,6.34c0.16,2.23 1.19,4.05 2.82,4.99c1.62,0.94 3.71,0.92 5.72,-0.06c1.85,-0.89 3.52,-2.51 4.7,-4.55c1.17,-2.04 1.74,-4.29 1.59,-6.34zm-7.59,8.2c-0.65,0.32 -1.9,0.76 -2.93,0.16c-1.04,-0.6 -1.28,-1.9 -1.33,-2.62c-0.1,-1.44 0.34,-3.12 1.2,-4.63c0.87,-1.5 2.11,-2.72 3.41,-3.35c0.65,-0.32 1.9,-0.76 2.93,-0.16c1.04,0.6 1.28,1.9 1.33,2.62c0.11,1.43 -0.33,3.12 -1.2,4.63c-0.87,1.5 -2.11,2.72 -3.41,3.35zm24.53,18.26c0.43,-1.75 0.11,-3.37 -0.88,-4.58c-0.8,-0.97 -1.99,-1.57 -3.35,-1.69c-1.87,-0.16 -3.9,0.57 -5.57,2c-1.35,1.17 -2.31,2.69 -2.7,4.27c-0.42,1.74 -0.1,3.37 0.89,4.57c0.34,0.42 0.76,0.77 1.23,1.04c0.62,0.36 1.34,0.59 2.12,0.65c1.87,0.16 3.9,-0.57 5.56,-2l0,0c1.36,-1.17 2.32,-2.68 2.7,-4.26zm-4.65,2c-1.04,0.9 -2.3,1.38 -3.36,1.29c-0.39,-0.04 -0.93,-0.17 -1.29,-0.61c-0.88,-1.07 -0.2,-3.26 1.46,-4.68c1.04,-0.9 2.29,-1.38 3.36,-1.29c0.25,0.02 0.58,0.09 0.88,0.26c0.15,0.08 0.29,0.2 0.41,0.35c0.88,1.07 0.2,3.25 -1.46,4.68zm-30.41,-20.85c0.41,-2.16 0.03,-4.28 -1.05,-5.82c-0.78,-1.12 -1.89,-1.85 -3.13,-2.06c-1.54,-0.25 -3.11,0.29 -4.41,1.53c-1.17,1.12 -2.01,2.7 -2.34,4.47l0,0c-0.41,2.15 -0.03,4.28 1.05,5.82c0.45,0.64 1,1.15 1.62,1.51c0.47,0.27 0.98,0.45 1.52,0.54c1.54,0.26 3.11,-0.28 4.4,-1.52c1.18,-1.12 2.01,-2.71 2.34,-4.47zm-6.25,3.04c-0.57,-0.09 -0.95,-0.49 -1.18,-0.81c-0.61,-0.88 -0.82,-2.2 -0.56,-3.56l0,0c0.4,-2.14 1.96,-3.83 3.32,-3.6c0.56,0.09 0.95,0.5 1.17,0.82c0.61,0.87 0.83,2.2 0.57,3.55c-0.41,2.15 -1.96,3.83 -3.32,3.6z" fill="#27a274" id="svg_24"/>
    </g>
    <g clip-path="url(#clip1_1_12)" id="svg_25" opacity="0.08">
     <path d="m35.67,35.96c-0.9,-5.3 -3.52,-9.45 -7.37,-11.67c-3.85,-2.22 -8.74,-2.42 -13.79,-0.54c-4.53,1.68 -8.47,4.82 -10.54,8.41c-1,1.74 -1.24,3.37 -0.69,4.85c0.54,1.46 1.73,2.54 3.26,3.42c1.62,0.94 3.62,1.65 5.57,2.35c1.72,0.61 3.33,1.18 4.46,1.83c0.97,0.56 2.2,1.61 3.49,2.72c3.03,2.59 6.46,5.52 9.75,4.95c1.56,-0.26 2.86,-1.27 3.85,-2.99c2.06,-3.58 2.82,-8.56 2.01,-13.33zm-6.37,13.38c-1.9,0.33 -4.89,-2.23 -7.3,-4.28c-1.4,-1.2 -2.73,-2.34 -3.94,-3.04c-1.36,-0.78 -3.1,-1.4 -4.94,-2.06c-2.86,-1.02 -6.41,-2.28 -7.04,-3.98c-0.08,-0.23 -0.34,-0.92 0.48,-2.33c1.7,-2.95 5.15,-5.68 8.99,-7.1c4.2,-1.56 8.19,-1.44 11.26,0.33c3.06,1.77 5.16,5.17 5.91,9.58c0.69,4.04 0.05,8.39 -1.65,11.34c-0.79,1.37 -1.53,1.5 -1.77,1.54zm17.92,-32.69c-0.16,-2.23 -1.19,-4.05 -2.82,-4.99c-1.62,-0.94 -3.71,-0.92 -5.72,0.06c-1.85,0.9 -3.52,2.51 -4.7,4.55c-1.17,2.04 -1.74,4.29 -1.59,6.34c0.16,2.23 1.19,4.05 2.81,4.99c1.63,0.94 3.72,0.92 5.73,-0.06c1.85,-0.89 3.52,-2.51 4.69,-4.55c1.18,-2.04 1.75,-4.29 1.6,-6.34zm-7.59,8.2c-0.65,0.32 -1.9,0.76 -2.93,0.16c-1.04,-0.6 -1.28,-1.9 -1.33,-2.62c-0.11,-1.43 0.33,-3.12 1.2,-4.63c0.87,-1.5 2.11,-2.72 3.41,-3.35c0.65,-0.32 1.9,-0.76 2.93,-0.16c1.03,0.6 1.28,1.9 1.33,2.62c0.1,1.44 -0.33,3.12 -1.2,4.63c-0.87,1.5 -2.11,2.72 -3.41,3.35zm-5.63,-15.83c-0.16,-2.23 -1.19,-4.05 -2.81,-4.99c-1.63,-0.94 -3.72,-0.92 -5.73,0.06c-1.85,0.89 -3.52,2.51 -4.69,4.55c-1.18,2.04 -1.75,4.29 -1.6,6.34c0.16,2.23 1.19,4.05 2.82,4.99c1.62,0.94 3.71,0.92 5.72,-0.06c1.85,-0.89 3.52,-2.51 4.7,-4.55c1.17,-2.04 1.74,-4.29 1.59,-6.34zm-7.59,8.2c-0.65,0.32 -1.9,0.76 -2.93,0.16c-1.03,-0.6 -1.28,-1.9 -1.33,-2.62c-0.1,-1.44 0.34,-3.12 1.2,-4.63c0.87,-1.5 2.11,-2.72 3.41,-3.35c0.65,-0.32 1.9,-0.76 2.93,-0.16c1.04,0.6 1.28,1.9 1.33,2.62c0.11,1.43 -0.33,3.12 -1.2,4.63c-0.87,1.5 -2.11,2.72 -3.41,3.35zm24.53,18.26c0.43,-1.75 0.11,-3.37 -0.88,-4.58c-0.8,-0.97 -1.99,-1.57 -3.35,-1.69c-1.87,-0.16 -3.9,0.57 -5.56,2c-1.36,1.17 -2.32,2.69 -2.71,4.27c-0.42,1.74 -0.1,3.37 0.89,4.57c0.34,0.42 0.76,0.77 1.23,1.04c0.62,0.36 1.34,0.59 2.12,0.65c1.87,0.16 3.9,-0.57 5.56,-2l0,0c1.36,-1.17 2.32,-2.68 2.7,-4.26zm-4.65,2c-1.04,0.9 -2.3,1.38 -3.36,1.29c-0.39,-0.04 -0.93,-0.17 -1.29,-0.61c-0.88,-1.07 -0.2,-3.26 1.46,-4.68c1.04,-0.9 2.29,-1.38 3.36,-1.29c0.26,0.02 0.58,0.09 0.88,0.26c0.15,0.08 0.29,0.2 0.41,0.35c0.88,1.07 0.2,3.25 -1.46,4.68zm-30.4,-20.85c0.4,-2.16 0.02,-4.28 -1.06,-5.82c-0.78,-1.12 -1.89,-1.85 -3.13,-2.06c-1.54,-0.25 -3.11,0.29 -4.41,1.53c-1.17,1.12 -2.01,2.7 -2.34,4.47l0,0c-0.41,2.15 -0.03,4.28 1.05,5.82c0.45,0.64 1,1.15 1.62,1.51c0.47,0.27 0.98,0.45 1.52,0.54c1.54,0.26 3.1,-0.28 4.4,-1.52c1.18,-1.12 2.01,-2.71 2.35,-4.47zm-6.26,3.04c-0.57,-0.09 -0.96,-0.49 -1.18,-0.81c-0.61,-0.88 -0.82,-2.2 -0.56,-3.56l0,0c0.4,-2.14 1.96,-3.83 3.32,-3.6c0.56,0.09 0.95,0.5 1.17,0.82c0.61,0.87 0.83,2.2 0.57,3.55c-0.41,2.15 -1.96,3.83 -3.32,3.6z" fill="#27a274" id="svg_26"/>
    </g>
    <g clip-path="url(#clip2_1_12)" id="svg_27" opacity="0.1" transform="matrix(1, 0, 0, 1, 0, 0)">
     <path d="m1065.67,64.96c-0.9,-5.3 -3.52,-9.45 -7.37,-11.67c-3.85,-2.22 -8.74,-2.42 -13.79,-0.54c-4.53,1.68 -8.47,4.82 -10.54,8.41c-1,1.74 -1.24,3.37 -0.69,4.85c0.54,1.46 1.73,2.54 3.26,3.42c1.62,0.94 3.62,1.65 5.57,2.35c1.72,0.61 3.33,1.18 4.46,1.83c0.97,0.56 2.2,1.61 3.49,2.72c3.03,2.59 6.46,5.52 9.75,4.95c1.56,-0.26 2.86,-1.27 3.85,-2.99c2.06,-3.58 2.82,-8.56 2.01,-13.33zm-6.37,13.38c-1.9,0.33 -4.89,-2.23 -7.3,-4.28c-1.4,-1.2 -2.73,-2.34 -3.94,-3.04c-1.36,-0.78 -3.1,-1.4 -4.94,-2.06c-2.86,-1.02 -6.41,-2.28 -7.04,-3.98c-0.08,-0.23 -0.34,-0.92 0.48,-2.33c1.7,-2.95 5.15,-5.68 8.99,-7.1c4.2,-1.56 8.19,-1.44 11.26,0.33c3.06,1.77 5.16,5.17 5.91,9.58c0.69,4.04 0.05,8.39 -1.65,11.34c-0.79,1.37 -1.53,1.5 -1.77,1.54zm17.92,-32.69c-0.16,-2.23 -1.19,-4.05 -2.82,-4.99c-1.62,-0.94 -3.71,-0.92 -5.72,0.06c-1.85,0.9 -3.52,2.51 -4.7,4.55c-1.17,2.04 -1.74,4.29 -1.59,6.34c0.16,2.23 1.19,4.05 2.81,4.99c1.63,0.94 3.72,0.92 5.73,-0.06c1.85,-0.89 3.52,-2.51 4.69,-4.55c1.18,-2.04 1.75,-4.29 1.6,-6.34zm-7.59,8.2c-0.65,0.32 -1.9,0.76 -2.93,0.16c-1.04,-0.6 -1.28,-1.89 -1.33,-2.62c-0.11,-1.43 0.33,-3.12 1.2,-4.63c0.87,-1.5 2.11,-2.72 3.41,-3.35c0.65,-0.32 1.9,-0.76 2.93,-0.16c1.03,0.6 1.28,1.9 1.33,2.62c0.1,1.44 -0.34,3.12 -1.2,4.63c-0.87,1.5 -2.11,2.72 -3.41,3.35zm-5.63,-15.83c-0.16,-2.23 -1.19,-4.05 -2.81,-4.99c-1.63,-0.94 -3.72,-0.92 -5.73,0.06c-1.85,0.89 -3.52,2.51 -4.69,4.55c-1.18,2.04 -1.75,4.29 -1.6,6.34c0.16,2.23 1.19,4.05 2.82,4.99c1.62,0.94 3.71,0.92 5.72,-0.06c1.85,-0.89 3.52,-2.51 4.7,-4.55c1.17,-2.04 1.74,-4.29 1.59,-6.34zm-7.59,8.2c-0.65,0.32 -1.9,0.76 -2.93,0.16c-1.03,-0.6 -1.28,-1.9 -1.33,-2.62c-0.1,-1.44 0.33,-3.12 1.2,-4.63c0.87,-1.5 2.11,-2.72 3.41,-3.35c0.65,-0.32 1.9,-0.76 2.93,-0.16c1.04,0.6 1.28,1.9 1.33,2.62c0.11,1.43 -0.33,3.12 -1.2,4.63c-0.87,1.5 -2.11,2.72 -3.41,3.35zm24.53,18.26c0.43,-1.75 0.11,-3.37 -0.88,-4.58c-0.8,-0.97 -1.99,-1.57 -3.35,-1.69c-1.87,-0.16 -3.9,0.57 -5.56,2c-1.36,1.17 -2.32,2.69 -2.71,4.27c-0.42,1.74 -0.1,3.37 0.89,4.57c0.34,0.42 0.76,0.77 1.23,1.04c0.62,0.36 1.34,0.59 2.12,0.65c1.87,0.16 3.9,-0.57 5.56,-2l0,0c1.36,-1.17 2.32,-2.68 2.7,-4.26zm-4.65,2c-1.04,0.9 -2.3,1.38 -3.36,1.29c-0.39,-0.04 -0.93,-0.17 -1.29,-0.61c-0.88,-1.07 -0.2,-3.26 1.46,-4.68c1.04,-0.9 2.29,-1.38 3.36,-1.29c0.25,0.02 0.58,0.09 0.88,0.26c0.15,0.08 0.29,0.2 0.41,0.35c0.88,1.07 0.2,3.25 -1.46,4.68zm-30.41,-20.85c0.41,-2.16 0.03,-4.28 -1.05,-5.82c-0.78,-1.12 -1.89,-1.85 -3.13,-2.06c-1.54,-0.25 -3.11,0.29 -4.41,1.53c-1.17,1.12 -2.01,2.7 -2.34,4.47l0,0c-0.41,2.15 -0.03,4.28 1.05,5.82c0.45,0.64 1,1.15 1.62,1.51c0.47,0.27 0.98,0.45 1.52,0.54c1.54,0.26 3.1,-0.28 4.4,-1.52c1.18,-1.12 2.01,-2.71 2.34,-4.47zm-6.25,3.04c-0.57,-0.09 -0.96,-0.49 -1.18,-0.81c-0.61,-0.88 -0.82,-2.2 -0.56,-3.56l0,0c0.4,-2.14 1.96,-3.83 3.32,-3.6c0.56,0.09 0.95,0.5 1.17,0.82c0.61,0.87 0.83,2.2 0.57,3.55c-0.41,2.15 -1.96,3.83 -3.32,3.6z" fill="#7fd6b0" id="svg_28"/>
    </g>
    <g clip-path="url(#clip3_1_12)" id="svg_29" opacity="0.1" transform="matrix(1, 0, 0, 1, 0, 0)">
     <path d="m854.67,50.96c-0.9,-5.3 -3.52,-9.45 -7.37,-11.67c-3.85,-2.22 -8.74,-2.42 -13.79,-0.54c-4.53,1.68 -8.47,4.82 -10.54,8.41c-1,1.74 -1.24,3.37 -0.69,4.85c0.54,1.46 1.73,2.54 3.26,3.42c1.62,0.94 3.62,1.65 5.57,2.35c1.72,0.61 3.33,1.18 4.46,1.83c0.97,0.56 2.19,1.61 3.49,2.72c3.03,2.59 6.46,5.52 9.75,4.95c1.56,-0.26 2.85,-1.27 3.85,-2.99c2.06,-3.58 2.82,-8.56 2.01,-13.33zm-6.37,13.38c-1.9,0.33 -4.89,-2.23 -7.3,-4.28c-1.4,-1.2 -2.73,-2.34 -3.94,-3.04c-1.36,-0.78 -3.1,-1.4 -4.94,-2.06c-2.86,-1.02 -6.41,-2.28 -7.04,-3.98c-0.08,-0.23 -0.34,-0.92 0.48,-2.33c1.7,-2.95 5.15,-5.68 8.99,-7.1c4.2,-1.56 8.2,-1.44 11.26,0.33c3.06,1.77 5.16,5.17 5.91,9.58c0.69,4.04 0.05,8.39 -1.65,11.34c-0.79,1.37 -1.53,1.5 -1.77,1.54zm17.92,-32.69c-0.16,-2.23 -1.19,-4.05 -2.82,-4.99c-1.62,-0.94 -3.71,-0.92 -5.72,0.06c-1.85,0.9 -3.52,2.51 -4.7,4.55c-1.17,2.04 -1.74,4.29 -1.59,6.34c0.16,2.23 1.19,4.05 2.81,4.99c1.63,0.94 3.72,0.92 5.73,-0.06c1.85,-0.89 3.52,-2.51 4.69,-4.55c1.18,-2.04 1.75,-4.29 1.6,-6.34zm-7.59,8.2c-0.65,0.32 -1.9,0.76 -2.93,0.16c-1.04,-0.6 -1.28,-1.89 -1.33,-2.62c-0.11,-1.43 0.33,-3.12 1.2,-4.63c0.87,-1.5 2.11,-2.72 3.41,-3.35c0.65,-0.32 1.9,-0.76 2.93,-0.16c1.04,0.6 1.28,1.9 1.33,2.62c0.1,1.44 -0.34,3.12 -1.2,4.63c-0.87,1.5 -2.11,2.72 -3.41,3.35zm-5.63,-15.83c-0.16,-2.23 -1.19,-4.05 -2.81,-4.99c-1.63,-0.94 -3.72,-0.92 -5.73,0.06c-1.85,0.89 -3.52,2.51 -4.69,4.55c-1.18,2.04 -1.75,4.29 -1.6,6.34c0.16,2.23 1.19,4.05 2.82,4.99c1.62,0.94 3.71,0.92 5.72,-0.06c1.85,-0.89 3.52,-2.51 4.7,-4.55c1.17,-2.04 1.74,-4.29 1.59,-6.34zm-7.59,8.2c-0.65,0.32 -1.9,0.76 -2.93,0.16c-1.03,-0.6 -1.28,-1.9 -1.33,-2.62c-0.1,-1.44 0.34,-3.12 1.2,-4.63c0.87,-1.5 2.11,-2.72 3.41,-3.35c0.65,-0.32 1.9,-0.76 2.93,-0.16c1.04,0.6 1.28,1.9 1.33,2.62c0.11,1.43 -0.33,3.12 -1.2,4.63c-0.87,1.5 -2.11,2.72 -3.41,3.35zm24.53,18.26c0.43,-1.75 0.11,-3.37 -0.88,-4.58c-0.8,-0.97 -1.99,-1.57 -3.35,-1.69c-1.87,-0.16 -3.9,0.57 -5.57,2c-1.35,1.17 -2.31,2.69 -2.7,4.27c-0.42,1.74 -0.1,3.37 0.89,4.57c0.34,0.42 0.76,0.77 1.23,1.04c0.62,0.36 1.34,0.59 2.12,0.65c1.87,0.16 3.9,-0.57 5.56,-2l0,0c1.36,-1.17 2.32,-2.68 2.7,-4.26zm-4.65,2c-1.04,0.9 -2.3,1.38 -3.36,1.29c-0.39,-0.04 -0.93,-0.17 -1.29,-0.61c-0.88,-1.07 -0.2,-3.26 1.46,-4.68c1.04,-0.9 2.29,-1.38 3.36,-1.29c0.26,0.02 0.58,0.09 0.88,0.26c0.15,0.08 0.29,0.2 0.41,0.35c0.88,1.07 0.2,3.25 -1.46,4.68zm-30.41,-20.85c0.41,-2.16 0.03,-4.28 -1.05,-5.82c-0.78,-1.12 -1.89,-1.85 -3.13,-2.06c-1.55,-0.25 -3.11,0.29 -4.41,1.53c-1.17,1.12 -2.01,2.7 -2.34,4.47l0,0c-0.41,2.15 -0.03,4.28 1.05,5.82c0.45,0.64 1,1.15 1.62,1.51c0.47,0.27 0.98,0.45 1.52,0.54c1.54,0.26 3.11,-0.28 4.4,-1.52c1.18,-1.12 2.01,-2.71 2.34,-4.47zm-6.25,3.04c-0.57,-0.09 -0.96,-0.49 -1.18,-0.81c-0.61,-0.88 -0.82,-2.2 -0.56,-3.56l0,0c0.4,-2.14 1.96,-3.83 3.32,-3.6c0.56,0.09 0.95,0.5 1.17,0.82c0.61,0.87 0.83,2.2 0.57,3.55c-0.41,2.15 -1.96,3.83 -3.32,3.6z" fill="#7fd6b0" id="svg_30"/>
    </g>
    <g clip-path="url(#clip4_1_12)" id="svg_31" opacity="0.1" transform="matrix(1, 0, 0, 1, 0, 0)">
     <path d="m1137.33,187.21c-5.34,-0.66 -10.06,0.65 -13.3,3.7c-3.23,3.04 -4.83,7.68 -4.49,13.05c0.31,4.82 2.19,9.5 5.03,12.51c1.37,1.47 2.87,2.16 4.44,2.06c1.56,-0.09 2.94,-0.93 4.22,-2.14c1.37,-1.28 2.62,-2.98 3.85,-4.66c1.08,-1.46 2.09,-2.85 3.04,-3.74c0.82,-0.77 2.17,-1.64 3.6,-2.56c3.35,-2.16 7.15,-4.6 7.56,-7.91c0.19,-1.57 -0.4,-3.1 -1.76,-4.55c-2.84,-3.01 -7.39,-5.16 -12.19,-5.76zm10.98,9.95c-0.23,1.91 -3.54,4.05 -6.2,5.76c-1.55,0.99 -3.02,1.94 -4.04,2.9c-1.14,1.08 -2.24,2.56 -3.4,4.14c-1.79,2.44 -4.03,5.48 -5.84,5.59c-0.24,0.02 -0.97,0.06 -2.09,-1.13c-2.34,-2.48 -3.95,-6.56 -4.21,-10.65c-0.29,-4.47 0.97,-8.26 3.55,-10.69c2.58,-2.42 6.44,-3.45 10.88,-2.9c4.07,0.5 8.05,2.36 10.38,4.84c1.09,1.16 1,1.89 0.97,2.14zm-26.15,-26.57c-2.18,-0.48 -4.22,-0.03 -5.59,1.26c-1.37,1.29 -1.95,3.3 -1.59,5.5c0.32,2.03 1.39,4.09 3.01,5.81c1.61,1.71 3.6,2.9 5.61,3.35c2.18,0.49 4.22,0.03 5.59,-1.26c1.37,-1.29 1.95,-3.29 1.59,-5.5c-0.33,-2.03 -1.39,-4.09 -3.01,-5.81c-1.61,-1.71 -3.6,-2.9 -5.61,-3.35zm5.67,9.63c0.12,0.72 0.18,2.03 -0.69,2.85c-0.87,0.82 -2.18,0.68 -2.89,0.52c-1.41,-0.31 -2.9,-1.21 -4.09,-2.48c-1.19,-1.26 -2,-2.81 -2.23,-4.23c-0.12,-0.71 -0.18,-2.03 0.69,-2.85c0.87,-0.82 2.18,-0.68 2.89,-0.52c1.41,0.31 2.9,1.22 4.09,2.48c1.19,1.27 2,2.81 2.23,4.23zm-16.78,0.84c-2.18,-0.49 -4.22,-0.03 -5.59,1.26c-1.37,1.28 -1.95,3.29 -1.59,5.5c0.32,2.03 1.39,4.09 3,5.8c1.62,1.72 3.61,2.91 5.62,3.35c2.18,0.49 4.22,0.03 5.59,-1.26c1.36,-1.28 1.94,-3.29 1.59,-5.5c-0.33,-2.03 -1.4,-4.09 -3.01,-5.8c-1.61,-1.72 -3.61,-2.91 -5.61,-3.35zm5.67,9.63c0.11,0.71 0.18,2.03 -0.69,2.85c-0.87,0.82 -2.19,0.68 -2.89,0.52c-1.41,-0.32 -2.9,-1.22 -4.09,-2.49c-1.19,-1.26 -2,-2.8 -2.23,-4.23c-0.12,-0.71 -0.18,-2.03 0.69,-2.85c0.87,-0.82 2.18,-0.68 2.89,-0.52c1.4,0.32 2.89,1.22 4.09,2.49c1.19,1.26 2,2.8 2.23,4.23zm24.54,-18.25c-1.55,-0.9 -3.19,-1.07 -4.64,-0.47c-1.16,0.49 -2.07,1.45 -2.58,2.72c-0.69,1.75 -0.58,3.9 0.32,5.91c0.73,1.64 1.9,2.99 3.3,3.81c1.55,0.91 3.2,1.08 4.64,0.47c0.5,-0.21 0.96,-0.5 1.35,-0.88c0.52,-0.49 0.95,-1.11 1.23,-1.84c0.7,-1.75 0.58,-3.9 -0.31,-5.91l0,0c-0.73,-1.63 -1.91,-2.99 -3.31,-3.81zm0.58,5.03c0.56,1.26 0.66,2.6 0.27,3.59c-0.15,0.37 -0.43,0.85 -0.96,1.07c-1.28,0.53 -3.17,-0.75 -4.06,-2.75c-0.56,-1.25 -0.66,-2.6 -0.27,-3.59c0.1,-0.24 0.25,-0.53 0.5,-0.76c0.13,-0.12 0.28,-0.23 0.46,-0.3c1.27,-0.54 3.17,0.75 4.06,2.74zm-28.72,23.13c-1.95,-1.02 -4.09,-1.26 -5.88,-0.67c-1.29,0.42 -2.31,1.28 -2.87,2.41c-0.68,1.4 -0.62,3.06 0.2,4.66c0.73,1.45 2.01,2.7 3.6,3.53l0,0c1.95,1.01 4.09,1.25 5.88,0.67c0.74,-0.25 1.39,-0.63 1.91,-1.12c0.4,-0.38 0.72,-0.81 0.96,-1.3c0.69,-1.4 0.62,-3.06 -0.19,-4.66c-0.73,-1.44 -2.02,-2.7 -3.61,-3.52zm1.12,6.87c-0.25,0.51 -0.75,0.77 -1.12,0.89c-1.01,0.33 -2.35,0.15 -3.57,-0.48l0,0c-1.94,-1.01 -3.1,-2.98 -2.49,-4.22c0.25,-0.52 0.75,-0.77 1.12,-0.9c1.01,-0.33 2.34,-0.15 3.56,0.49c1.94,1 3.11,2.98 2.5,4.22z" fill="#7fd6b0" id="svg_32"/>
    </g>
    <g clip-path="url(#clip5_1_12)" id="svg_33" opacity="0.1" transform="matrix(1, 0, 0, 1, 0, 0)">
     <path d="m954.33,147.21c-5.34,-0.66 -10.06,0.65 -13.3,3.7c-3.23,3.04 -4.83,7.68 -4.49,13.05c0.31,4.82 2.19,9.5 5.03,12.51c1.37,1.47 2.87,2.16 4.44,2.06c1.56,-0.09 2.94,-0.93 4.22,-2.14c1.37,-1.28 2.62,-2.98 3.85,-4.66c1.08,-1.46 2.09,-2.85 3.04,-3.74c0.82,-0.77 2.17,-1.64 3.61,-2.56c3.34,-2.16 7.14,-4.6 7.55,-7.91c0.19,-1.57 -0.4,-3.1 -1.76,-4.55c-2.84,-3.01 -7.39,-5.16 -12.19,-5.76zm10.98,9.95c-0.23,1.91 -3.54,4.05 -6.2,5.76c-1.56,0.99 -3.02,1.94 -4.04,2.9c-1.14,1.08 -2.24,2.56 -3.4,4.14c-1.79,2.44 -4.03,5.48 -5.84,5.59c-0.24,0.02 -0.97,0.06 -2.09,-1.13c-2.34,-2.48 -3.95,-6.56 -4.21,-10.65c-0.29,-4.47 0.97,-8.26 3.55,-10.69c2.57,-2.42 6.44,-3.45 10.88,-2.9c4.06,0.5 8.04,2.36 10.38,4.84c1.09,1.16 1,1.89 0.97,2.14zm-26.15,-26.57c-2.18,-0.48 -4.22,-0.03 -5.59,1.26c-1.37,1.29 -1.95,3.3 -1.59,5.5c0.32,2.03 1.39,4.09 3.01,5.81c1.61,1.71 3.6,2.9 5.61,3.35c2.18,0.49 4.22,0.03 5.59,-1.26c1.36,-1.29 1.95,-3.29 1.59,-5.5c-0.32,-2.03 -1.39,-4.09 -3.01,-5.81c-1.61,-1.71 -3.61,-2.9 -5.61,-3.35zm5.67,9.63c0.12,0.72 0.18,2.03 -0.69,2.85c-0.87,0.82 -2.18,0.68 -2.89,0.52c-1.41,-0.31 -2.9,-1.21 -4.09,-2.48c-1.19,-1.26 -2,-2.81 -2.23,-4.23c-0.12,-0.71 -0.18,-2.03 0.69,-2.85c0.87,-0.82 2.18,-0.68 2.89,-0.52c1.41,0.31 2.9,1.22 4.09,2.48c1.19,1.27 2,2.81 2.23,4.23zm-16.78,0.84c-2.18,-0.49 -4.22,-0.03 -5.59,1.26c-1.37,1.28 -1.95,3.29 -1.59,5.5c0.32,2.03 1.39,4.09 3.01,5.8c1.61,1.72 3.6,2.91 5.61,3.35c2.18,0.49 4.22,0.03 5.59,-1.26c1.36,-1.28 1.94,-3.29 1.59,-5.5c-0.33,-2.03 -1.4,-4.09 -3.01,-5.8c-1.61,-1.72 -3.61,-2.91 -5.61,-3.35zm5.67,9.63c0.11,0.71 0.18,2.03 -0.69,2.85c-0.87,0.82 -2.19,0.68 -2.89,0.52c-1.41,-0.32 -2.9,-1.22 -4.09,-2.49c-1.19,-1.26 -2,-2.8 -2.23,-4.23c-0.12,-0.71 -0.18,-2.03 0.69,-2.85c0.87,-0.82 2.18,-0.68 2.89,-0.52c1.4,0.32 2.89,1.22 4.09,2.49c1.19,1.26 2,2.8 2.23,4.23zm24.54,-18.25c-1.55,-0.9 -3.19,-1.07 -4.64,-0.47c-1.16,0.49 -2.07,1.45 -2.58,2.72c-0.69,1.75 -0.58,3.9 0.32,5.91c0.73,1.64 1.9,2.99 3.3,3.81c1.55,0.91 3.2,1.08 4.64,0.47c0.5,-0.21 0.95,-0.5 1.35,-0.88c0.52,-0.49 0.95,-1.11 1.23,-1.84c0.7,-1.75 0.58,-3.9 -0.31,-5.91l0,0c-0.73,-1.63 -1.91,-2.99 -3.31,-3.81zm0.58,5.03c0.56,1.26 0.66,2.6 0.27,3.59c-0.15,0.37 -0.43,0.85 -0.96,1.07c-1.27,0.53 -3.17,-0.75 -4.06,-2.75c-0.56,-1.25 -0.66,-2.6 -0.27,-3.59c0.1,-0.24 0.25,-0.53 0.5,-0.76c0.13,-0.12 0.28,-0.23 0.46,-0.3c1.27,-0.54 3.17,0.75 4.06,2.74zm-28.72,23.13c-1.95,-1.02 -4.09,-1.26 -5.87,-0.67c-1.3,0.42 -2.32,1.28 -2.88,2.41c-0.68,1.4 -0.62,3.06 0.2,4.66c0.73,1.45 2.01,2.7 3.6,3.53l0,0c1.95,1.01 4.09,1.25 5.88,0.67c0.74,-0.25 1.39,-0.63 1.91,-1.12c0.4,-0.38 0.72,-0.81 0.96,-1.3c0.69,-1.4 0.62,-3.06 -0.19,-4.66c-0.73,-1.44 -2.01,-2.7 -3.61,-3.52zm1.12,6.87c-0.25,0.51 -0.75,0.77 -1.12,0.89c-1.01,0.33 -2.35,0.15 -3.57,-0.48l0,0c-1.94,-1.01 -3.1,-2.98 -2.49,-4.22c0.25,-0.52 0.75,-0.77 1.12,-0.9c1.01,-0.33 2.34,-0.15 3.57,0.49c1.93,1 3.1,2.98 2.49,4.22z" fill="#7fd6b0" id="svg_34"/>
    </g>
    <g clip-path="url(#clip6_1_12)" id="svg_35" opacity="0.1" transform="matrix(1, 0, 0, 1, 0, 0)">
     <path d="m1014.33,261.23c4.22,-3.33 6.61,-7.61 6.71,-12.05c0.11,-4.45 -2.06,-8.84 -6.12,-12.37c-3.65,-3.17 -8.3,-5.12 -12.44,-5.22c-2.01,-0.05 -3.55,0.53 -4.59,1.71c-1.02,1.17 -1.4,2.74 -1.44,4.51c-0.05,1.87 0.29,3.96 0.61,6.01c0.29,1.8 0.56,3.49 0.52,4.79c-0.02,1.13 -0.36,2.7 -0.71,4.37c-0.82,3.9 -1.75,8.31 0.32,10.93c0.98,1.24 2.49,1.9 4.47,1.94c4.13,0.1 8.87,-1.62 12.67,-4.62zm-14.8,0.82c-1.2,-1.51 -0.39,-5.36 0.27,-8.46c0.38,-1.8 0.74,-3.51 0.77,-4.91c0.04,-1.57 -0.25,-3.39 -0.56,-5.33c-0.47,-2.99 -1.06,-6.72 0.13,-8.08c0.16,-0.18 0.64,-0.74 2.27,-0.7c3.41,0.09 7.45,1.81 10.55,4.5c3.37,2.93 5.18,6.5 5.1,10.03c-0.09,3.54 -2.07,7.02 -5.58,9.78c-3.22,2.54 -7.34,4.07 -10.75,3.99c-1.58,-0.04 -2.05,-0.62 -2.2,-0.82zm37.28,0.07c1.88,-1.21 2.98,-2.98 3.03,-4.86c0.05,-1.88 -0.97,-3.7 -2.79,-5c-1.68,-1.19 -3.89,-1.88 -6.25,-1.94c-2.35,-0.05 -4.6,0.53 -6.33,1.64c-1.88,1.21 -2.98,2.98 -3.03,4.86c-0.04,1.88 0.98,3.7 2.8,5c1.67,1.19 3.89,1.88 6.24,1.94c2.35,0.06 4.6,-0.52 6.33,-1.64zm-10.84,-2.73c-0.58,-0.42 -1.57,-1.3 -1.54,-2.5c0.03,-1.19 1.05,-2.03 1.66,-2.42c1.21,-0.78 2.91,-1.2 4.64,-1.16c1.74,0.04 3.41,0.55 4.58,1.38c0.59,0.42 1.57,1.31 1.54,2.5c-0.03,1.2 -1.05,2.03 -1.66,2.42c-1.21,0.78 -2.9,1.2 -4.64,1.16c-1.73,-0.04 -3.4,-0.54 -4.58,-1.38zm11.21,-12.52c1.88,-1.21 2.98,-2.99 3.03,-4.87c0.04,-1.87 -0.98,-3.7 -2.8,-5c-1.67,-1.19 -3.88,-1.88 -6.24,-1.94c-2.35,-0.05 -4.6,0.53 -6.33,1.64c-1.88,1.21 -2.98,2.98 -3.03,4.86c-0.04,1.88 0.97,3.7 2.8,5c1.67,1.2 3.88,1.89 6.24,1.94c2.35,0.06 4.6,-0.52 6.33,-1.63zm-10.84,-2.74c-0.59,-0.42 -1.57,-1.3 -1.54,-2.5c0.03,-1.19 1.05,-2.03 1.66,-2.42c1.21,-0.78 2.9,-1.2 4.64,-1.16c1.74,0.04 3.4,0.55 4.58,1.39c0.59,0.42 1.57,1.3 1.54,2.49c-0.03,1.2 -1.05,2.03 -1.66,2.42c-1.21,0.78 -2.9,1.21 -4.64,1.16c-1.74,-0.04 -3.41,-0.54 -4.58,-1.38zm-4.27,30.28c1.73,-0.46 3.01,-1.52 3.59,-2.97c0.47,-1.16 0.43,-2.49 -0.12,-3.74c-0.75,-1.73 -2.37,-3.16 -4.42,-3.93c-1.68,-0.64 -3.47,-0.75 -5.04,-0.33c-1.73,0.46 -3.01,1.52 -3.59,2.97c-0.21,0.5 -0.31,1.03 -0.33,1.57c-0.01,0.72 0.14,1.46 0.45,2.17c0.75,1.73 2.37,3.16 4.42,3.93l0,0c1.68,0.64 3.47,0.75 5.04,0.33zm-3.99,-3.12c-1.28,-0.49 -2.31,-1.36 -2.74,-2.34c-0.15,-0.35 -0.3,-0.89 -0.08,-1.43c0.52,-1.28 2.76,-1.73 4.8,-0.96c1.29,0.49 2.32,1.36 2.74,2.34c0.11,0.23 0.21,0.55 0.2,0.89c-0.01,0.18 -0.04,0.36 -0.11,0.54c-0.52,1.28 -2.76,1.73 -4.81,0.96zm3.74,-36.68c2.09,-0.68 3.77,-2.03 4.61,-3.71c0.61,-1.22 0.71,-2.55 0.3,-3.74c-0.52,-1.48 -1.74,-2.59 -3.45,-3.14c-1.55,-0.49 -3.34,-0.46 -5.04,0.09l-0.01,0c-2.09,0.67 -3.76,2.02 -4.6,3.71c-0.35,0.69 -0.53,1.43 -0.55,2.15c-0.01,0.54 0.07,1.07 0.25,1.59c0.51,1.47 1.74,2.59 3.44,3.13c1.55,0.5 3.34,0.47 5.05,-0.08zm-5.67,-4.04c-0.19,-0.54 -0.02,-1.07 0.15,-1.42c0.48,-0.96 1.54,-1.78 2.85,-2.2l0,0c2.08,-0.67 4.3,-0.11 4.76,1.19c0.19,0.54 0.02,1.08 -0.16,1.43c-0.47,0.95 -1.54,1.77 -2.85,2.19c-2.08,0.67 -4.3,0.12 -4.75,-1.19z" fill="#7fd6b0" id="svg_36"/>
    </g>
    <g clip-path="url(#clip7_1_12)" id="svg_37" opacity="0.1" transform="matrix(1, 0, 0, 1, 0, 0)">
     <path d="m849.33,284.23c4.22,-3.33 6.61,-7.61 6.71,-12.05c0.11,-4.45 -2.06,-8.84 -6.12,-12.37c-3.65,-3.17 -8.3,-5.12 -12.44,-5.22c-2,-0.05 -3.55,0.53 -4.59,1.71c-1.02,1.17 -1.4,2.75 -1.44,4.51c-0.05,1.87 0.29,3.96 0.61,6.01c0.29,1.8 0.56,3.49 0.52,4.79c-0.02,1.13 -0.36,2.7 -0.71,4.37c-0.82,3.9 -1.75,8.31 0.32,10.93c0.98,1.24 2.49,1.9 4.47,1.94c4.13,0.1 8.87,-1.62 12.67,-4.62zm-14.8,0.82c-1.2,-1.51 -0.39,-5.36 0.27,-8.46c0.38,-1.8 0.74,-3.51 0.77,-4.91c0.04,-1.57 -0.25,-3.39 -0.56,-5.33c-0.47,-2.99 -1.06,-6.72 0.13,-8.08c0.16,-0.18 0.64,-0.73 2.27,-0.7c3.41,0.09 7.45,1.81 10.55,4.5c3.37,2.93 5.18,6.5 5.1,10.04c-0.09,3.53 -2.07,7.01 -5.58,9.77c-3.22,2.54 -7.34,4.07 -10.75,3.99c-1.58,-0.04 -2.05,-0.62 -2.2,-0.82zm37.28,0.07c1.88,-1.21 2.98,-2.98 3.03,-4.86c0.04,-1.88 -0.97,-3.7 -2.79,-5c-1.67,-1.19 -3.89,-1.88 -6.25,-1.94c-2.35,-0.05 -4.6,0.53 -6.32,1.64c-1.89,1.21 -2.99,2.98 -3.04,4.86c-0.04,1.88 0.98,3.7 2.8,5c1.67,1.19 3.89,1.88 6.24,1.94c2.35,0.06 4.6,-0.52 6.33,-1.64zm-10.84,-2.73c-0.58,-0.42 -1.57,-1.3 -1.54,-2.5c0.03,-1.19 1.05,-2.03 1.66,-2.42c1.21,-0.78 2.91,-1.2 4.64,-1.16c1.74,0.04 3.41,0.55 4.58,1.38c0.59,0.42 1.57,1.31 1.54,2.5c-0.03,1.2 -1.05,2.03 -1.66,2.42c-1.21,0.78 -2.9,1.2 -4.64,1.16c-1.73,-0.04 -3.4,-0.54 -4.58,-1.38zm11.21,-12.52c1.88,-1.21 2.98,-2.99 3.03,-4.87c0.04,-1.87 -0.97,-3.7 -2.8,-5c-1.67,-1.19 -3.89,-1.88 -6.24,-1.94c-2.35,-0.05 -4.6,0.53 -6.33,1.64c-1.88,1.21 -2.98,2.98 -3.03,4.86c-0.04,1.88 0.97,3.7 2.8,5c1.67,1.2 3.88,1.89 6.24,1.94c2.35,0.06 4.6,-0.52 6.33,-1.63zm-10.84,-2.74c-0.59,-0.42 -1.57,-1.3 -1.54,-2.5c0.03,-1.19 1.05,-2.02 1.66,-2.42c1.21,-0.78 2.9,-1.2 4.64,-1.16c1.74,0.04 3.4,0.55 4.58,1.39c0.59,0.42 1.57,1.3 1.54,2.49c-0.03,1.2 -1.05,2.03 -1.66,2.42c-1.21,0.78 -2.9,1.21 -4.64,1.16c-1.74,-0.04 -3.41,-0.54 -4.58,-1.38zm-4.27,30.28c1.73,-0.46 3.01,-1.52 3.59,-2.97c0.47,-1.16 0.43,-2.49 -0.12,-3.74c-0.76,-1.73 -2.37,-3.16 -4.42,-3.93c-1.68,-0.64 -3.47,-0.75 -5.04,-0.33c-1.73,0.46 -3.01,1.52 -3.59,2.97c-0.21,0.5 -0.31,1.03 -0.33,1.57c-0.01,0.72 0.13,1.46 0.45,2.17c0.75,1.73 2.37,3.16 4.42,3.93l0,0c1.68,0.64 3.47,0.75 5.04,0.33zm-3.99,-3.12c-1.28,-0.49 -2.31,-1.36 -2.74,-2.34c-0.15,-0.35 -0.3,-0.89 -0.08,-1.43c0.51,-1.28 2.76,-1.73 4.81,-0.96c1.28,0.49 2.31,1.36 2.73,2.34c0.11,0.23 0.21,0.55 0.2,0.89c0,0.18 -0.04,0.36 -0.11,0.54c-0.52,1.28 -2.76,1.73 -4.81,0.96zm3.74,-36.68c2.09,-0.68 3.77,-2.03 4.61,-3.71c0.61,-1.22 0.71,-2.55 0.3,-3.74c-0.52,-1.48 -1.74,-2.59 -3.45,-3.14c-1.54,-0.49 -3.34,-0.46 -5.04,0.09l0,0c-2.1,0.67 -3.77,2.02 -4.61,3.71c-0.35,0.69 -0.53,1.43 -0.55,2.15c-0.01,0.54 0.07,1.07 0.25,1.59c0.51,1.47 1.74,2.59 3.44,3.13c1.55,0.5 3.34,0.47 5.05,-0.08zm-5.67,-4.04c-0.19,-0.54 -0.02,-1.07 0.15,-1.42c0.48,-0.96 1.54,-1.78 2.85,-2.2l0,0c2.08,-0.67 4.3,-0.11 4.76,1.19c0.19,0.54 0.02,1.08 -0.16,1.43c-0.47,0.95 -1.54,1.77 -2.85,2.19c-2.07,0.67 -4.3,0.12 -4.75,-1.19z" fill="#7fd6b0" id="svg_38"/>
    </g>
    <g clip-path="url(#clip8_1_12)" id="svg_39" opacity="0.07">
     <path d="m704.67,64.96c-0.9,-5.3 -3.52,-9.45 -7.37,-11.67c-3.85,-2.22 -8.74,-2.42 -13.79,-0.54c-4.53,1.68 -8.47,4.82 -10.54,8.41c-1,1.74 -1.24,3.37 -0.69,4.85c0.54,1.46 1.73,2.54 3.26,3.42c1.62,0.94 3.62,1.65 5.57,2.35c1.72,0.61 3.33,1.18 4.46,1.83c0.97,0.56 2.19,1.61 3.49,2.72c3.03,2.59 6.46,5.52 9.75,4.95c1.56,-0.26 2.85,-1.27 3.85,-2.99c2.06,-3.58 2.82,-8.56 2.01,-13.33zm-6.37,13.38c-1.9,0.33 -4.89,-2.23 -7.3,-4.28c-1.4,-1.2 -2.73,-2.34 -3.94,-3.04c-1.36,-0.78 -3.1,-1.4 -4.94,-2.06c-2.86,-1.02 -6.41,-2.28 -7.04,-3.98c-0.08,-0.23 -0.34,-0.92 0.48,-2.33c1.7,-2.95 5.15,-5.68 8.99,-7.1c4.2,-1.56 8.2,-1.44 11.26,0.33c3.06,1.77 5.16,5.17 5.91,9.58c0.69,4.04 0.05,8.39 -1.65,11.34c-0.79,1.37 -1.53,1.5 -1.77,1.54zm17.92,-32.69c-0.16,-2.23 -1.19,-4.05 -2.82,-4.99c-1.62,-0.94 -3.71,-0.92 -5.72,0.06c-1.85,0.9 -3.52,2.51 -4.7,4.55c-1.17,2.04 -1.74,4.29 -1.59,6.34c0.16,2.23 1.19,4.05 2.81,4.99c1.63,0.94 3.72,0.92 5.73,-0.06c1.85,-0.89 3.52,-2.51 4.69,-4.55c1.18,-2.04 1.75,-4.29 1.6,-6.34zm-7.59,8.2c-0.65,0.32 -1.9,0.76 -2.93,0.16c-1.04,-0.6 -1.28,-1.89 -1.33,-2.62c-0.11,-1.43 0.33,-3.12 1.2,-4.63c0.87,-1.5 2.11,-2.72 3.41,-3.35c0.65,-0.32 1.9,-0.76 2.93,-0.16c1.04,0.6 1.28,1.9 1.33,2.62c0.1,1.44 -0.34,3.12 -1.2,4.63c-0.87,1.5 -2.11,2.72 -3.41,3.35zm-5.63,-15.83c-0.16,-2.23 -1.19,-4.05 -2.81,-4.99c-1.63,-0.94 -3.72,-0.92 -5.73,0.06c-1.85,0.89 -3.52,2.51 -4.69,4.55c-1.18,2.04 -1.75,4.29 -1.6,6.34c0.16,2.23 1.19,4.05 2.82,4.99c1.62,0.94 3.71,0.92 5.72,-0.06c1.85,-0.89 3.52,-2.51 4.7,-4.55c1.17,-2.04 1.74,-4.29 1.59,-6.34zm-7.59,8.2c-0.65,0.32 -1.9,0.76 -2.93,0.16c-1.03,-0.6 -1.28,-1.9 -1.33,-2.62c-0.1,-1.44 0.34,-3.12 1.2,-4.63c0.87,-1.5 2.11,-2.72 3.41,-3.35c0.65,-0.32 1.9,-0.76 2.93,-0.16c1.04,0.6 1.28,1.9 1.33,2.62c0.11,1.43 -0.33,3.12 -1.2,4.63c-0.87,1.5 -2.11,2.72 -3.41,3.35zm24.53,18.26c0.43,-1.75 0.11,-3.37 -0.88,-4.58c-0.8,-0.97 -1.99,-1.57 -3.35,-1.69c-1.87,-0.16 -3.9,0.57 -5.57,2c-1.35,1.17 -2.31,2.69 -2.7,4.27c-0.42,1.74 -0.1,3.37 0.89,4.57c0.34,0.42 0.76,0.77 1.23,1.04c0.62,0.36 1.34,0.59 2.12,0.65c1.87,0.16 3.9,-0.57 5.56,-2l0,0c1.36,-1.17 2.32,-2.68 2.7,-4.26zm-4.65,2c-1.04,0.9 -2.3,1.38 -3.36,1.29c-0.39,-0.04 -0.93,-0.17 -1.29,-0.61c-0.88,-1.07 -0.2,-3.26 1.46,-4.68c1.04,-0.9 2.29,-1.38 3.36,-1.29c0.26,0.02 0.58,0.09 0.88,0.26c0.15,0.08 0.29,0.2 0.41,0.35c0.88,1.07 0.2,3.25 -1.46,4.68zm-30.41,-20.85c0.41,-2.16 0.03,-4.28 -1.05,-5.82c-0.78,-1.12 -1.89,-1.85 -3.13,-2.06c-1.55,-0.25 -3.11,0.29 -4.41,1.53c-1.17,1.12 -2.01,2.7 -2.34,4.47l0,0c-0.41,2.15 -0.03,4.28 1.05,5.82c0.45,0.64 1,1.15 1.62,1.51c0.47,0.27 0.98,0.45 1.52,0.54c1.54,0.26 3.11,-0.28 4.4,-1.52c1.18,-1.12 2.01,-2.71 2.34,-4.47zm-6.25,3.04c-0.57,-0.09 -0.96,-0.49 -1.18,-0.81c-0.61,-0.88 -0.82,-2.2 -0.56,-3.56l0,0c0.4,-2.14 1.96,-3.83 3.32,-3.6c0.56,0.09 0.95,0.5 1.17,0.82c0.61,0.87 0.83,2.2 0.57,3.55c-0.41,2.15 -1.96,3.83 -3.32,3.6z" fill="#27a274" id="svg_40"/>
    </g>
    <g clip-path="url(#clip9_1_12)" id="svg_41" opacity="0.06">
     <path d="m493.67,50.96c-0.9,-5.3 -3.52,-9.45 -7.37,-11.67c-3.85,-2.22 -8.74,-2.42 -13.79,-0.54c-4.53,1.68 -8.47,4.82 -10.54,8.41c-1,1.74 -1.24,3.37 -0.69,4.85c0.53,1.46 1.73,2.54 3.26,3.42c1.62,0.94 3.62,1.65 5.57,2.35c1.72,0.61 3.33,1.18 4.46,1.83c0.97,0.56 2.19,1.61 3.49,2.72c3.03,2.59 6.46,5.52 9.75,4.95c1.56,-0.26 2.86,-1.27 3.85,-2.99c2.06,-3.58 2.82,-8.56 2.01,-13.33zm-6.37,13.38c-1.9,0.33 -4.89,-2.23 -7.3,-4.28c-1.4,-1.2 -2.73,-2.34 -3.94,-3.04c-1.36,-0.78 -3.1,-1.4 -4.94,-2.06c-2.86,-1.02 -6.41,-2.28 -7.04,-3.98c-0.08,-0.23 -0.34,-0.92 0.48,-2.33c1.7,-2.95 5.15,-5.68 8.99,-7.1c4.2,-1.56 8.2,-1.44 11.26,0.33c3.06,1.77 5.16,5.17 5.91,9.58c0.69,4.04 0.05,8.39 -1.65,11.34c-0.79,1.37 -1.53,1.5 -1.77,1.54zm17.92,-32.69c-0.16,-2.23 -1.19,-4.05 -2.82,-4.99c-1.62,-0.94 -3.71,-0.92 -5.72,0.06c-1.85,0.9 -3.52,2.51 -4.7,4.55c-1.17,2.04 -1.74,4.29 -1.59,6.34c0.16,2.23 1.19,4.05 2.81,4.99c1.63,0.94 3.72,0.92 5.73,-0.06c1.85,-0.89 3.52,-2.51 4.69,-4.55c1.18,-2.04 1.75,-4.29 1.6,-6.34zm-7.59,8.2c-0.65,0.32 -1.9,0.76 -2.93,0.16c-1.04,-0.6 -1.28,-1.89 -1.33,-2.62c-0.11,-1.43 0.33,-3.12 1.2,-4.63c0.87,-1.5 2.11,-2.72 3.41,-3.35c0.65,-0.32 1.9,-0.76 2.93,-0.16c1.03,0.6 1.28,1.9 1.33,2.62c0.1,1.44 -0.34,3.12 -1.2,4.63c-0.87,1.5 -2.11,2.72 -3.41,3.35zm-5.63,-15.83c-0.16,-2.23 -1.19,-4.05 -2.81,-4.99c-1.63,-0.94 -3.72,-0.92 -5.73,0.06c-1.85,0.89 -3.52,2.51 -4.69,4.55c-1.18,2.04 -1.75,4.29 -1.6,6.34c0.16,2.23 1.19,4.05 2.82,4.99c1.62,0.94 3.71,0.92 5.72,-0.06c1.85,-0.89 3.52,-2.51 4.7,-4.55c1.17,-2.04 1.74,-4.29 1.59,-6.34zm-7.59,8.2c-0.65,0.32 -1.9,0.76 -2.93,0.16c-1.04,-0.6 -1.28,-1.9 -1.33,-2.62c-0.1,-1.44 0.34,-3.12 1.2,-4.63c0.87,-1.5 2.11,-2.72 3.41,-3.35c0.65,-0.32 1.9,-0.76 2.93,-0.16c1.04,0.6 1.28,1.9 1.33,2.62c0.11,1.43 -0.33,3.12 -1.2,4.63c-0.87,1.5 -2.11,2.72 -3.41,3.35zm24.53,18.26c0.43,-1.75 0.11,-3.37 -0.88,-4.58c-0.8,-0.97 -1.99,-1.57 -3.35,-1.69c-1.87,-0.16 -3.9,0.57 -5.57,2c-1.35,1.17 -2.31,2.69 -2.7,4.27c-0.42,1.74 -0.1,3.37 0.89,4.57c0.34,0.42 0.76,0.77 1.23,1.04c0.62,0.36 1.34,0.59 2.12,0.65c1.87,0.16 3.9,-0.57 5.56,-2l0,0c1.36,-1.17 2.32,-2.68 2.7,-4.26zm-4.65,2c-1.04,0.9 -2.3,1.38 -3.36,1.29c-0.39,-0.04 -0.93,-0.17 -1.29,-0.61c-0.88,-1.07 -0.2,-3.26 1.46,-4.68c1.04,-0.9 2.29,-1.38 3.36,-1.29c0.25,0.02 0.58,0.09 0.88,0.26c0.15,0.08 0.29,0.2 0.41,0.35c0.88,1.07 0.2,3.25 -1.46,4.68zm-30.41,-20.85c0.41,-2.16 0.03,-4.28 -1.05,-5.82c-0.78,-1.12 -1.89,-1.85 -3.13,-2.06c-1.55,-0.25 -3.11,0.29 -4.41,1.53c-1.17,1.12 -2,2.7 -2.34,4.47l0,0c-0.41,2.15 -0.03,4.28 1.05,5.82c0.45,0.64 1,1.15 1.62,1.51c0.47,0.27 0.98,0.45 1.52,0.54c1.54,0.26 3.11,-0.28 4.4,-1.52c1.18,-1.12 2.01,-2.71 2.34,-4.47zm-6.25,3.04c-0.57,-0.09 -0.95,-0.49 -1.18,-0.81c-0.61,-0.88 -0.82,-2.2 -0.56,-3.56l0,0c0.4,-2.14 1.96,-3.83 3.32,-3.6c0.56,0.09 0.95,0.5 1.17,0.82c0.61,0.87 0.83,2.2 0.57,3.55c-0.41,2.15 -1.96,3.83 -3.32,3.6z" fill="#27a274" id="svg_42"/>
    </g>
    <g clip-path="url(#clip10_1_12)" id="svg_43" opacity="0.1" transform="matrix(1, 0, 0, 1, 0, 0)">
     <path d="m776.33,187.21c-5.34,-0.66 -10.06,0.65 -13.3,3.7c-3.23,3.04 -4.83,7.68 -4.49,13.05c0.31,4.82 2.19,9.5 5.03,12.51c1.37,1.47 2.87,2.16 4.44,2.06c1.56,-0.09 2.94,-0.93 4.22,-2.14c1.37,-1.28 2.62,-2.98 3.85,-4.66c1.08,-1.46 2.09,-2.85 3.04,-3.74c0.82,-0.77 2.17,-1.64 3.61,-2.56c3.34,-2.16 7.14,-4.6 7.55,-7.91c0.19,-1.57 -0.4,-3.1 -1.76,-4.55c-2.84,-3.01 -7.39,-5.16 -12.19,-5.76zm10.98,9.95c-0.23,1.91 -3.54,4.05 -6.2,5.76c-1.56,0.99 -3.02,1.94 -4.04,2.9c-1.14,1.08 -2.24,2.56 -3.4,4.14c-1.79,2.44 -4.03,5.48 -5.84,5.59c-0.24,0.02 -0.97,0.06 -2.09,-1.13c-2.34,-2.48 -3.95,-6.56 -4.21,-10.65c-0.29,-4.47 0.97,-8.26 3.55,-10.69c2.58,-2.42 6.44,-3.45 10.88,-2.9c4.07,0.5 8.04,2.36 10.38,4.84c1.09,1.16 1,1.89 0.97,2.14zm-26.15,-26.57c-2.18,-0.48 -4.22,-0.03 -5.59,1.26c-1.37,1.29 -1.95,3.3 -1.59,5.5c0.32,2.03 1.39,4.09 3.01,5.81c1.61,1.71 3.6,2.9 5.61,3.35c2.18,0.49 4.22,0.03 5.59,-1.26c1.36,-1.29 1.95,-3.29 1.59,-5.5c-0.32,-2.03 -1.39,-4.09 -3.01,-5.81c-1.61,-1.71 -3.61,-2.9 -5.61,-3.35zm5.67,9.63c0.12,0.72 0.18,2.03 -0.69,2.85c-0.87,0.82 -2.18,0.68 -2.89,0.52c-1.41,-0.31 -2.9,-1.21 -4.09,-2.48c-1.19,-1.26 -2,-2.81 -2.23,-4.23c-0.12,-0.71 -0.18,-2.03 0.69,-2.85c0.87,-0.82 2.18,-0.68 2.89,-0.52c1.41,0.31 2.9,1.22 4.09,2.48c1.19,1.27 2,2.81 2.23,4.23zm-16.78,0.84c-2.18,-0.49 -4.22,-0.03 -5.59,1.26c-1.37,1.28 -1.95,3.29 -1.59,5.5c0.32,2.03 1.39,4.09 3.01,5.8c1.61,1.72 3.6,2.91 5.61,3.35c2.18,0.49 4.22,0.03 5.59,-1.26c1.36,-1.28 1.94,-3.29 1.59,-5.5c-0.33,-2.03 -1.4,-4.09 -3.01,-5.8c-1.61,-1.72 -3.61,-2.91 -5.61,-3.35zm5.67,9.63c0.11,0.71 0.18,2.03 -0.69,2.85c-0.87,0.82 -2.19,0.68 -2.89,0.52c-1.41,-0.32 -2.9,-1.22 -4.09,-2.49c-1.19,-1.26 -2,-2.8 -2.23,-4.23c-0.12,-0.71 -0.18,-2.03 0.69,-2.85c0.87,-0.82 2.18,-0.68 2.89,-0.52c1.4,0.32 2.89,1.22 4.09,2.49c1.19,1.26 2,2.8 2.23,4.23zm24.54,-18.25c-1.55,-0.9 -3.19,-1.07 -4.64,-0.47c-1.16,0.49 -2.07,1.45 -2.58,2.72c-0.69,1.75 -0.58,3.9 0.32,5.91c0.73,1.64 1.9,2.99 3.3,3.81c1.55,0.91 3.2,1.08 4.64,0.47c0.5,-0.21 0.95,-0.5 1.35,-0.88c0.52,-0.49 0.95,-1.11 1.23,-1.84c0.7,-1.75 0.58,-3.9 -0.31,-5.91l0,0c-0.73,-1.63 -1.91,-2.99 -3.31,-3.81zm0.58,5.03c0.56,1.26 0.66,2.6 0.27,3.59c-0.15,0.37 -0.43,0.85 -0.96,1.07c-1.27,0.53 -3.17,-0.75 -4.06,-2.75c-0.56,-1.25 -0.66,-2.6 -0.27,-3.59c0.1,-0.24 0.25,-0.53 0.5,-0.76c0.13,-0.12 0.28,-0.23 0.46,-0.3c1.27,-0.54 3.17,0.75 4.06,2.74zm-28.72,23.13c-1.95,-1.02 -4.09,-1.26 -5.87,-0.67c-1.3,0.42 -2.32,1.28 -2.88,2.41c-0.68,1.4 -0.62,3.06 0.2,4.66c0.73,1.45 2.01,2.7 3.6,3.53l0,0c1.95,1.01 4.09,1.25 5.88,0.67c0.74,-0.25 1.39,-0.63 1.91,-1.12c0.4,-0.38 0.72,-0.81 0.96,-1.3c0.69,-1.4 0.62,-3.06 -0.19,-4.66c-0.73,-1.44 -2.01,-2.7 -3.61,-3.52zm1.12,6.87c-0.25,0.51 -0.75,0.77 -1.12,0.89c-1.01,0.33 -2.35,0.15 -3.57,-0.48l0,0c-1.94,-1.01 -3.1,-2.98 -2.49,-4.22c0.25,-0.52 0.75,-0.77 1.12,-0.9c1.01,-0.33 2.34,-0.15 3.57,0.49c1.93,1 3.1,2.98 2.49,4.22z" fill="#7fd6b0" id="svg_44"/>
    </g>
    <g clip-path="url(#clip11_1_12)" id="svg_45" opacity="0.05">
     <path d="m593.33,147.21c-5.34,-0.66 -10.06,0.65 -13.3,3.7c-3.23,3.04 -4.83,7.68 -4.49,13.05c0.31,4.82 2.19,9.5 5.03,12.51c1.37,1.47 2.87,2.16 4.44,2.06c1.56,-0.09 2.94,-0.93 4.22,-2.14c1.37,-1.28 2.62,-2.98 3.85,-4.66c1.08,-1.46 2.09,-2.85 3.04,-3.74c0.82,-0.77 2.17,-1.64 3.61,-2.56c3.34,-2.16 7.14,-4.6 7.55,-7.91c0.19,-1.57 -0.4,-3.1 -1.76,-4.55c-2.84,-3.01 -7.39,-5.16 -12.19,-5.76zm10.98,9.95c-0.23,1.91 -3.54,4.05 -6.2,5.76c-1.56,0.99 -3.02,1.94 -4.04,2.9c-1.14,1.08 -2.24,2.56 -3.4,4.14c-1.79,2.44 -4.03,5.48 -5.84,5.59c-0.24,0.02 -0.97,0.06 -2.09,-1.13c-2.34,-2.48 -3.95,-6.56 -4.21,-10.65c-0.29,-4.47 0.97,-8.26 3.55,-10.69c2.57,-2.42 6.44,-3.45 10.88,-2.9c4.06,0.5 8.04,2.36 10.38,4.84c1.09,1.16 1,1.89 0.97,2.14zm-26.15,-26.57c-2.18,-0.48 -4.22,-0.03 -5.59,1.26c-1.37,1.29 -1.95,3.3 -1.59,5.5c0.32,2.03 1.39,4.09 3.01,5.81c1.61,1.71 3.6,2.9 5.61,3.35c2.18,0.49 4.22,0.03 5.59,-1.26c1.36,-1.29 1.95,-3.29 1.59,-5.5c-0.32,-2.03 -1.39,-4.09 -3.01,-5.81c-1.61,-1.71 -3.61,-2.9 -5.61,-3.35zm5.67,9.63c0.12,0.72 0.18,2.03 -0.69,2.85c-0.87,0.82 -2.18,0.68 -2.89,0.52c-1.41,-0.31 -2.9,-1.21 -4.09,-2.48c-1.19,-1.26 -2,-2.81 -2.23,-4.23c-0.12,-0.71 -0.18,-2.03 0.69,-2.85c0.87,-0.82 2.18,-0.68 2.89,-0.52c1.41,0.31 2.9,1.22 4.09,2.48c1.19,1.27 2,2.81 2.23,4.23zm-16.78,0.84c-2.18,-0.49 -4.22,-0.03 -5.59,1.26c-1.37,1.28 -1.95,3.29 -1.59,5.5c0.32,2.03 1.39,4.09 3.01,5.8c1.61,1.72 3.6,2.91 5.61,3.35c2.18,0.49 4.22,0.03 5.59,-1.26c1.36,-1.28 1.94,-3.29 1.59,-5.5c-0.33,-2.03 -1.4,-4.09 -3.01,-5.8c-1.61,-1.72 -3.61,-2.91 -5.61,-3.35zm5.67,9.63c0.11,0.71 0.18,2.03 -0.69,2.85c-0.87,0.82 -2.19,0.68 -2.89,0.52c-1.41,-0.32 -2.9,-1.22 -4.09,-2.49c-1.19,-1.26 -2,-2.8 -2.23,-4.23c-0.12,-0.71 -0.18,-2.03 0.69,-2.85c0.87,-0.82 2.18,-0.68 2.89,-0.52c1.4,0.32 2.89,1.22 4.09,2.49c1.19,1.26 2,2.8 2.23,4.23zm24.54,-18.25c-1.55,-0.9 -3.19,-1.07 -4.64,-0.47c-1.16,0.49 -2.07,1.45 -2.58,2.72c-0.69,1.75 -0.58,3.9 0.32,5.91c0.73,1.64 1.9,2.99 3.3,3.81c1.55,0.91 3.2,1.08 4.64,0.47c0.5,-0.21 0.95,-0.5 1.35,-0.88c0.52,-0.49 0.95,-1.11 1.23,-1.84c0.7,-1.75 0.58,-3.9 -0.31,-5.91l0,0c-0.73,-1.63 -1.91,-2.99 -3.31,-3.81zm0.58,5.03c0.56,1.26 0.66,2.6 0.27,3.59c-0.15,0.37 -0.43,0.85 -0.96,1.07c-1.27,0.53 -3.17,-0.75 -4.06,-2.75c-0.56,-1.25 -0.66,-2.6 -0.27,-3.59c0.1,-0.24 0.25,-0.53 0.5,-0.76c0.13,-0.12 0.28,-0.23 0.46,-0.3c1.27,-0.54 3.17,0.75 4.06,2.74zm-28.72,23.13c-1.95,-1.02 -4.09,-1.26 -5.87,-0.67c-1.3,0.42 -2.32,1.28 -2.88,2.41c-0.68,1.4 -0.62,3.06 0.2,4.66c0.73,1.45 2.01,2.7 3.6,3.53l0,0c1.95,1.01 4.09,1.25 5.88,0.67c0.74,-0.25 1.39,-0.63 1.91,-1.12c0.4,-0.38 0.72,-0.81 0.96,-1.3c0.69,-1.4 0.62,-3.06 -0.19,-4.66c-0.73,-1.44 -2.01,-2.7 -3.61,-3.52zm1.12,6.87c-0.25,0.51 -0.75,0.77 -1.12,0.89c-1.01,0.33 -2.35,0.15 -3.57,-0.48l0,0c-1.94,-1.01 -3.1,-2.98 -2.49,-4.22c0.25,-0.52 0.75,-0.77 1.12,-0.9c1.01,-0.33 2.34,-0.15 3.57,0.49c1.93,1 3.1,2.98 2.49,4.22z" fill="#27a274" id="svg_46"/>
    </g>
    <g clip-path="url(#clip12_1_12)" id="svg_47" opacity="0.08">
     <path d="m653.33,261.23c4.22,-3.33 6.61,-7.61 6.71,-12.05c0.11,-4.45 -2.06,-8.84 -6.12,-12.37c-3.65,-3.17 -8.3,-5.12 -12.44,-5.22c-2,-0.05 -3.55,0.53 -4.59,1.71c-1.02,1.17 -1.4,2.74 -1.44,4.51c-0.05,1.87 0.29,3.96 0.61,6.01c0.29,1.8 0.56,3.49 0.52,4.79c-0.02,1.13 -0.36,2.7 -0.71,4.37c-0.82,3.9 -1.75,8.31 0.32,10.93c0.98,1.24 2.49,1.9 4.47,1.94c4.13,0.1 8.87,-1.62 12.67,-4.62zm-14.8,0.82c-1.2,-1.51 -0.39,-5.36 0.27,-8.46c0.38,-1.8 0.74,-3.51 0.77,-4.91c0.04,-1.57 -0.25,-3.39 -0.56,-5.33c-0.47,-2.99 -1.06,-6.72 0.13,-8.08c0.16,-0.18 0.64,-0.74 2.27,-0.7c3.41,0.09 7.45,1.81 10.55,4.5c3.37,2.93 5.18,6.5 5.1,10.03c-0.09,3.54 -2.07,7.02 -5.58,9.78c-3.22,2.54 -7.34,4.07 -10.75,3.99c-1.58,-0.04 -2.05,-0.62 -2.2,-0.82zm37.28,0.07c1.88,-1.21 2.98,-2.98 3.03,-4.86c0.04,-1.88 -0.97,-3.7 -2.79,-5c-1.67,-1.19 -3.89,-1.88 -6.25,-1.94c-2.35,-0.05 -4.6,0.53 -6.32,1.64c-1.89,1.21 -2.99,2.98 -3.04,4.86c-0.04,1.88 0.98,3.7 2.8,5c1.67,1.19 3.89,1.88 6.24,1.94c2.35,0.06 4.6,-0.52 6.33,-1.64zm-10.84,-2.73c-0.58,-0.42 -1.57,-1.3 -1.54,-2.5c0.03,-1.19 1.05,-2.03 1.66,-2.42c1.21,-0.78 2.91,-1.2 4.64,-1.16c1.74,0.04 3.41,0.55 4.58,1.38c0.59,0.42 1.57,1.31 1.54,2.5c-0.03,1.2 -1.05,2.03 -1.66,2.42c-1.21,0.78 -2.9,1.2 -4.64,1.16c-1.73,-0.04 -3.4,-0.54 -4.58,-1.38zm11.21,-12.52c1.88,-1.21 2.98,-2.99 3.03,-4.87c0.04,-1.87 -0.97,-3.7 -2.8,-5c-1.67,-1.19 -3.89,-1.88 -6.24,-1.94c-2.35,-0.05 -4.6,0.53 -6.33,1.64c-1.88,1.21 -2.98,2.98 -3.03,4.86c-0.04,1.88 0.97,3.7 2.8,5c1.67,1.2 3.88,1.89 6.24,1.94c2.35,0.06 4.6,-0.52 6.33,-1.63zm-10.84,-2.74c-0.59,-0.42 -1.57,-1.3 -1.54,-2.5c0.03,-1.19 1.05,-2.03 1.66,-2.42c1.21,-0.78 2.9,-1.2 4.64,-1.16c1.74,0.04 3.4,0.55 4.58,1.39c0.59,0.42 1.57,1.3 1.54,2.49c-0.03,1.2 -1.05,2.03 -1.66,2.42c-1.21,0.78 -2.9,1.21 -4.64,1.16c-1.74,-0.04 -3.41,-0.54 -4.58,-1.38zm-4.27,30.28c1.73,-0.46 3.01,-1.52 3.59,-2.97c0.47,-1.16 0.43,-2.49 -0.12,-3.74c-0.76,-1.73 -2.37,-3.16 -4.42,-3.93c-1.68,-0.64 -3.47,-0.75 -5.04,-0.33c-1.73,0.46 -3.01,1.52 -3.59,2.97c-0.21,0.5 -0.31,1.03 -0.33,1.57c-0.01,0.72 0.13,1.46 0.45,2.17c0.75,1.73 2.37,3.16 4.42,3.93l0,0c1.68,0.64 3.47,0.75 5.04,0.33zm-3.99,-3.12c-1.28,-0.49 -2.31,-1.36 -2.74,-2.34c-0.15,-0.35 -0.3,-0.89 -0.08,-1.43c0.51,-1.28 2.76,-1.73 4.81,-0.96c1.28,0.49 2.31,1.36 2.73,2.34c0.11,0.23 0.21,0.55 0.2,0.89c0,0.18 -0.04,0.36 -0.11,0.54c-0.52,1.28 -2.76,1.73 -4.81,0.96zm3.74,-36.68c2.09,-0.68 3.77,-2.03 4.61,-3.71c0.61,-1.22 0.71,-2.55 0.3,-3.74c-0.52,-1.48 -1.74,-2.59 -3.45,-3.14c-1.54,-0.49 -3.34,-0.46 -5.04,0.09l0,0c-2.1,0.67 -3.77,2.02 -4.61,3.71c-0.35,0.69 -0.53,1.43 -0.55,2.15c-0.01,0.54 0.07,1.07 0.25,1.59c0.51,1.47 1.74,2.59 3.44,3.13c1.55,0.5 3.34,0.47 5.05,-0.08zm-5.67,-4.04c-0.19,-0.54 -0.02,-1.07 0.15,-1.42c0.48,-0.96 1.54,-1.78 2.85,-2.2l0,0c2.08,-0.67 4.3,-0.11 4.76,1.19c0.19,0.54 0.02,1.08 -0.16,1.43c-0.47,0.95 -1.54,1.77 -2.85,2.19c-2.07,0.67 -4.3,0.12 -4.75,-1.19z" fill="#27a274" id="svg_48"/>
    </g>
    <g clip-path="url(#clip13_1_12)" id="svg_49" opacity="0.06">
     <path d="m488.33,284.23c4.22,-3.33 6.61,-7.61 6.72,-12.05c0.1,-4.45 -2.07,-8.84 -6.13,-12.37c-3.65,-3.17 -8.3,-5.12 -12.44,-5.22c-2,-0.05 -3.55,0.53 -4.59,1.71c-1.02,1.17 -1.4,2.75 -1.44,4.51c-0.05,1.87 0.29,3.96 0.61,6.01c0.29,1.8 0.56,3.49 0.52,4.79c-0.02,1.13 -0.36,2.7 -0.71,4.37c-0.82,3.9 -1.75,8.31 0.32,10.93c0.99,1.24 2.49,1.9 4.47,1.94c4.14,0.1 8.87,-1.62 12.67,-4.62zm-14.8,0.82c-1.2,-1.51 -0.39,-5.36 0.27,-8.46c0.38,-1.8 0.74,-3.51 0.77,-4.91c0.04,-1.57 -0.25,-3.39 -0.56,-5.33c-0.47,-2.99 -1.06,-6.72 0.13,-8.08c0.16,-0.18 0.64,-0.73 2.27,-0.7c3.41,0.09 7.45,1.81 10.54,4.5c3.38,2.93 5.19,6.5 5.11,10.04c-0.09,3.53 -2.07,7.01 -5.58,9.77c-3.22,2.54 -7.34,4.07 -10.75,3.99c-1.58,-0.04 -2.04,-0.62 -2.2,-0.82zm37.28,0.07c1.88,-1.21 2.98,-2.98 3.03,-4.86c0.04,-1.88 -0.97,-3.7 -2.79,-5c-1.67,-1.19 -3.89,-1.88 -6.25,-1.94c-2.35,-0.05 -4.6,0.53 -6.32,1.64c-1.89,1.21 -2.99,2.98 -3.04,4.86c-0.04,1.88 0.98,3.7 2.8,5c1.67,1.19 3.89,1.88 6.24,1.94c2.35,0.06 4.6,-0.52 6.33,-1.64zm-10.84,-2.73c-0.58,-0.42 -1.57,-1.3 -1.54,-2.5c0.03,-1.19 1.05,-2.03 1.66,-2.42c1.21,-0.78 2.91,-1.2 4.64,-1.16c1.74,0.04 3.41,0.55 4.58,1.38c0.59,0.42 1.57,1.31 1.54,2.5c-0.03,1.2 -1.05,2.03 -1.66,2.42c-1.21,0.78 -2.9,1.2 -4.64,1.16c-1.73,-0.04 -3.4,-0.54 -4.58,-1.38zm11.21,-12.52c1.88,-1.21 2.98,-2.99 3.03,-4.87c0.04,-1.87 -0.97,-3.7 -2.79,-5c-1.68,-1.19 -3.9,-1.88 -6.25,-1.94c-2.35,-0.05 -4.6,0.53 -6.33,1.64c-1.88,1.21 -2.98,2.98 -3.03,4.86c-0.04,1.88 0.98,3.7 2.8,5c1.67,1.2 3.88,1.89 6.24,1.94c2.35,0.06 4.6,-0.52 6.33,-1.63zm-10.84,-2.74c-0.59,-0.42 -1.57,-1.3 -1.54,-2.5c0.03,-1.19 1.05,-2.02 1.66,-2.42c1.21,-0.78 2.9,-1.2 4.64,-1.16c1.74,0.04 3.4,0.55 4.58,1.39c0.59,0.42 1.57,1.3 1.54,2.49c-0.03,1.2 -1.05,2.03 -1.66,2.42c-1.21,0.78 -2.9,1.21 -4.64,1.16c-1.74,-0.04 -3.41,-0.54 -4.58,-1.38zm-4.27,30.28c1.73,-0.46 3.01,-1.52 3.59,-2.97c0.47,-1.16 0.43,-2.49 -0.12,-3.74c-0.75,-1.73 -2.37,-3.16 -4.42,-3.93c-1.68,-0.64 -3.47,-0.75 -5.04,-0.33c-1.73,0.46 -3.01,1.52 -3.59,2.97c-0.21,0.5 -0.31,1.03 -0.33,1.57c-0.01,0.72 0.14,1.46 0.45,2.17c0.75,1.73 2.37,3.16 4.42,3.93l0,0c1.68,0.64 3.47,0.75 5.04,0.33zm-3.99,-3.12c-1.28,-0.49 -2.31,-1.36 -2.74,-2.34c-0.15,-0.35 -0.3,-0.89 -0.08,-1.43c0.51,-1.28 2.76,-1.73 4.8,-0.96c1.29,0.49 2.32,1.36 2.75,2.34c0.1,0.23 0.2,0.55 0.19,0.89c0,0.18 -0.04,0.36 -0.11,0.54c-0.52,1.28 -2.76,1.73 -4.81,0.96zm3.74,-36.68c2.09,-0.68 3.77,-2.03 4.61,-3.71c0.61,-1.22 0.71,-2.55 0.3,-3.74c-0.52,-1.48 -1.74,-2.59 -3.45,-3.14c-1.54,-0.49 -3.34,-0.46 -5.04,0.09l0,0c-2.1,0.67 -3.77,2.02 -4.61,3.71c-0.35,0.69 -0.53,1.43 -0.55,2.15c-0.01,0.54 0.07,1.07 0.25,1.59c0.51,1.47 1.73,2.59 3.44,3.13c1.55,0.5 3.34,0.47 5.05,-0.08zm-5.67,-4.04c-0.19,-0.54 -0.02,-1.07 0.15,-1.42c0.48,-0.96 1.54,-1.78 2.85,-2.2l0,0c2.08,-0.67 4.3,-0.11 4.76,1.19c0.19,0.54 0.02,1.08 -0.16,1.43c-0.47,0.95 -1.54,1.77 -2.85,2.19c-2.08,0.67 -4.3,0.12 -4.75,-1.19z" fill="#27a274" id="svg_50"/>
    </g>
    <g clip-path="url(#clip14_1_12)" id="svg_51" opacity="0.1" transform="matrix(1, 0, 0, 1, 0, 0)">
     <path d="m368.33,150.21c-5.34,-0.66 -10.06,0.65 -13.3,3.7c-3.23,3.04 -4.83,7.68 -4.49,13.05c0.31,4.82 2.19,9.5 5.02,12.51c1.38,1.47 2.88,2.16 4.45,2.06c1.56,-0.09 2.94,-0.93 4.22,-2.14c1.37,-1.28 2.62,-2.98 3.85,-4.66c1.08,-1.46 2.09,-2.85 3.04,-3.74c0.82,-0.77 2.17,-1.64 3.61,-2.56c3.34,-2.16 7.14,-4.6 7.55,-7.91c0.19,-1.57 -0.4,-3.1 -1.76,-4.55c-2.84,-3.01 -7.39,-5.16 -12.19,-5.76zm10.98,9.95c-0.24,1.91 -3.54,4.05 -6.2,5.76c-1.55,0.99 -3.02,1.94 -4.04,2.9c-1.14,1.08 -2.24,2.56 -3.4,4.14c-1.79,2.44 -4.03,5.48 -5.84,5.59c-0.24,0.02 -0.97,0.06 -2.09,-1.13c-2.34,-2.48 -3.95,-6.56 -4.21,-10.65c-0.29,-4.47 0.97,-8.26 3.55,-10.69c2.57,-2.42 6.44,-3.45 10.88,-2.9c4.06,0.5 8.04,2.36 10.38,4.84c1.09,1.16 1,1.89 0.97,2.14zm-26.15,-26.57c-2.18,-0.48 -4.22,-0.03 -5.59,1.26c-1.37,1.29 -1.95,3.3 -1.59,5.5c0.32,2.03 1.39,4.09 3.01,5.81c1.61,1.71 3.6,2.9 5.61,3.35c2.18,0.49 4.22,0.03 5.59,-1.26c1.37,-1.29 1.95,-3.29 1.59,-5.5c-0.33,-2.03 -1.39,-4.09 -3.01,-5.81c-1.61,-1.71 -3.6,-2.9 -5.61,-3.35zm5.67,9.63c0.12,0.72 0.18,2.03 -0.69,2.85c-0.87,0.82 -2.19,0.68 -2.89,0.52c-1.41,-0.31 -2.9,-1.21 -4.09,-2.48c-1.19,-1.26 -2,-2.81 -2.23,-4.23c-0.12,-0.71 -0.18,-2.03 0.69,-2.85c0.87,-0.82 2.18,-0.68 2.89,-0.52c1.41,0.31 2.9,1.22 4.09,2.48c1.19,1.27 2,2.81 2.23,4.23zm-16.78,0.84c-2.18,-0.49 -4.22,-0.03 -5.59,1.26c-1.37,1.28 -1.95,3.29 -1.59,5.5c0.32,2.03 1.39,4.09 3.01,5.8c1.61,1.72 3.6,2.91 5.61,3.35c2.18,0.49 4.22,0.03 5.58,-1.26c1.37,-1.28 1.95,-3.29 1.6,-5.5c-0.33,-2.03 -1.4,-4.09 -3.01,-5.8c-1.61,-1.72 -3.61,-2.91 -5.61,-3.35zm5.67,9.63c0.11,0.71 0.18,2.03 -0.69,2.85c-0.87,0.82 -2.19,0.68 -2.89,0.52c-1.41,-0.32 -2.9,-1.22 -4.09,-2.49c-1.19,-1.26 -2,-2.8 -2.23,-4.23c-0.12,-0.71 -0.18,-2.03 0.69,-2.85c0.87,-0.82 2.18,-0.68 2.89,-0.52c1.41,0.32 2.9,1.22 4.09,2.49c1.19,1.26 2,2.8 2.23,4.23zm24.54,-18.25c-1.55,-0.9 -3.19,-1.07 -4.64,-0.47c-1.16,0.49 -2.07,1.45 -2.58,2.72c-0.69,1.75 -0.58,3.9 0.32,5.91c0.73,1.64 1.9,2.99 3.3,3.81c1.55,0.91 3.2,1.08 4.64,0.47c0.5,-0.21 0.95,-0.5 1.35,-0.88c0.53,-0.49 0.95,-1.11 1.23,-1.84c0.7,-1.75 0.58,-3.9 -0.31,-5.91l0,0c-0.73,-1.63 -1.91,-2.99 -3.31,-3.81zm0.58,5.03c0.56,1.26 0.66,2.6 0.27,3.59c-0.15,0.37 -0.43,0.85 -0.96,1.07c-1.27,0.53 -3.17,-0.75 -4.06,-2.75c-0.56,-1.25 -0.66,-2.6 -0.27,-3.59c0.1,-0.24 0.25,-0.53 0.5,-0.76c0.13,-0.12 0.28,-0.23 0.46,-0.3c1.27,-0.54 3.17,0.75 4.06,2.74zm-28.72,23.13c-1.95,-1.02 -4.09,-1.26 -5.87,-0.67c-1.3,0.42 -2.32,1.28 -2.88,2.41c-0.68,1.4 -0.62,3.06 0.19,4.66c0.74,1.45 2.02,2.7 3.61,3.53l0,0c1.95,1.01 4.09,1.25 5.88,0.67c0.74,-0.25 1.39,-0.63 1.91,-1.12c0.4,-0.38 0.72,-0.81 0.96,-1.3c0.69,-1.4 0.62,-3.06 -0.19,-4.66c-0.73,-1.44 -2.02,-2.7 -3.61,-3.52zm1.12,6.87c-0.25,0.51 -0.75,0.77 -1.12,0.89c-1.01,0.33 -2.35,0.15 -3.57,-0.48l0,0c-1.94,-1.01 -3.1,-2.98 -2.49,-4.22c0.25,-0.52 0.75,-0.77 1.12,-0.9c1.01,-0.33 2.34,-0.15 3.57,0.49c1.93,1 3.1,2.98 2.49,4.22z" fill="#7fd6b0" id="svg_52"/>
    </g>
    <g clip-path="url(#clip15_1_12)" id="svg_53" opacity="0.1" transform="matrix(1, 0, 0, 1, 0, 0)">
     <path d="m148.33,147.21c-5.34,-0.66 -10.06,0.65 -13.3,3.7c-3.23,3.04 -4.83,7.68 -4.49,13.05c0.31,4.82 2.19,9.5 5.02,12.51c1.38,1.47 2.88,2.16 4.45,2.06c1.56,-0.09 2.94,-0.93 4.22,-2.14c1.36,-1.28 2.62,-2.98 3.85,-4.66c1.08,-1.46 2.09,-2.85 3.04,-3.74c0.82,-0.77 2.17,-1.64 3.6,-2.56c3.35,-2.16 7.15,-4.6 7.56,-7.91c0.19,-1.57 -0.4,-3.1 -1.76,-4.55c-2.84,-3.01 -7.39,-5.16 -12.19,-5.76zm10.98,9.95c-0.24,1.91 -3.54,4.05 -6.2,5.76c-1.55,0.99 -3.02,1.94 -4.04,2.9c-1.14,1.08 -2.24,2.56 -3.4,4.14c-1.79,2.44 -4.03,5.48 -5.84,5.59c-0.24,0.02 -0.97,0.06 -2.09,-1.13c-2.34,-2.48 -3.95,-6.56 -4.21,-10.65c-0.29,-4.47 0.97,-8.26 3.55,-10.69c2.58,-2.42 6.44,-3.45 10.88,-2.9c4.07,0.5 8.04,2.36 10.38,4.84c1.09,1.16 1,1.89 0.97,2.14zm-26.15,-26.57c-2.18,-0.48 -4.22,-0.03 -5.59,1.26c-1.37,1.29 -1.95,3.3 -1.59,5.5c0.32,2.03 1.39,4.09 3.01,5.81c1.61,1.71 3.6,2.9 5.61,3.35c2.18,0.49 4.22,0.03 5.59,-1.26c1.37,-1.29 1.95,-3.29 1.59,-5.5c-0.32,-2.03 -1.39,-4.09 -3.01,-5.81c-1.61,-1.71 -3.61,-2.9 -5.61,-3.35zm5.67,9.63c0.12,0.72 0.18,2.03 -0.69,2.85c-0.87,0.82 -2.18,0.68 -2.89,0.52c-1.41,-0.31 -2.9,-1.21 -4.09,-2.48c-1.19,-1.26 -2,-2.81 -2.23,-4.23c-0.12,-0.71 -0.18,-2.03 0.69,-2.85c0.87,-0.82 2.18,-0.68 2.89,-0.52c1.41,0.31 2.9,1.22 4.09,2.48c1.19,1.27 2,2.81 2.23,4.23zm-16.78,0.84c-2.19,-0.49 -4.22,-0.03 -5.59,1.26c-1.37,1.28 -1.95,3.29 -1.59,5.5c0.32,2.03 1.39,4.09 3.01,5.8c1.61,1.72 3.6,2.91 5.61,3.35c2.18,0.49 4.22,0.03 5.58,-1.26c1.37,-1.28 1.95,-3.29 1.6,-5.5c-0.33,-2.03 -1.39,-4.09 -3.01,-5.8c-1.61,-1.72 -3.61,-2.91 -5.61,-3.35zm5.67,9.63c0.11,0.71 0.18,2.03 -0.69,2.85c-0.87,0.82 -2.19,0.68 -2.89,0.52c-1.41,-0.32 -2.9,-1.22 -4.09,-2.49c-1.19,-1.26 -2,-2.8 -2.23,-4.23c-0.12,-0.71 -0.18,-2.03 0.69,-2.85c0.87,-0.82 2.18,-0.68 2.89,-0.52c1.41,0.32 2.9,1.22 4.08,2.49c1.2,1.26 2.01,2.8 2.24,4.23zm24.54,-18.25c-1.55,-0.9 -3.19,-1.07 -4.64,-0.47c-1.16,0.49 -2.07,1.45 -2.58,2.72c-0.69,1.75 -0.58,3.9 0.32,5.91c0.73,1.64 1.9,2.99 3.3,3.81c1.55,0.91 3.2,1.08 4.64,0.47c0.5,-0.21 0.95,-0.5 1.35,-0.88c0.53,-0.49 0.95,-1.11 1.23,-1.84c0.7,-1.75 0.58,-3.9 -0.31,-5.91l0,0c-0.73,-1.63 -1.91,-2.99 -3.31,-3.81zm0.58,5.03c0.56,1.26 0.66,2.6 0.27,3.59c-0.15,0.37 -0.43,0.85 -0.96,1.07c-1.27,0.53 -3.17,-0.75 -4.06,-2.75c-0.56,-1.25 -0.66,-2.6 -0.27,-3.59c0.1,-0.24 0.25,-0.53 0.5,-0.76c0.13,-0.12 0.28,-0.23 0.46,-0.3c1.27,-0.54 3.17,0.75 4.06,2.74zm-28.72,23.13c-1.95,-1.02 -4.09,-1.26 -5.87,-0.67c-1.3,0.42 -2.32,1.28 -2.88,2.41c-0.68,1.4 -0.62,3.06 0.19,4.66c0.74,1.45 2.02,2.7 3.61,3.53l0,0c1.95,1.01 4.09,1.25 5.88,0.67c0.74,-0.25 1.39,-0.63 1.91,-1.12c0.4,-0.38 0.72,-0.81 0.96,-1.3c0.69,-1.4 0.62,-3.06 -0.19,-4.66c-0.73,-1.44 -2.01,-2.7 -3.61,-3.52zm1.12,6.87c-0.25,0.51 -0.75,0.77 -1.12,0.89c-1.01,0.33 -2.35,0.15 -3.57,-0.48l0,0c-1.94,-1.01 -3.1,-2.98 -2.49,-4.22c0.25,-0.52 0.75,-0.77 1.12,-0.9c1.01,-0.33 2.34,-0.15 3.57,0.49c1.93,1 3.1,2.98 2.49,4.22z" fill="#7fd6b0" id="svg_54"/>
    </g>
    <g clip-path="url(#clip16_1_12)" id="svg_55" opacity="0.07">
     <path d="m291.33,298.23c4.22,-3.33 6.61,-7.61 6.72,-12.05c0.1,-4.45 -2.07,-8.84 -6.13,-12.37c-3.65,-3.17 -8.3,-5.12 -12.44,-5.22c-2,-0.05 -3.55,0.53 -4.59,1.71c-1.02,1.17 -1.4,2.75 -1.44,4.51c-0.05,1.87 0.29,3.96 0.61,6.01c0.29,1.8 0.56,3.49 0.52,4.79c-0.02,1.13 -0.36,2.7 -0.71,4.37c-0.82,3.9 -1.75,8.31 0.32,10.93c0.99,1.24 2.49,1.9 4.47,1.94c4.14,0.1 8.87,-1.62 12.67,-4.62zm-14.8,0.82c-1.2,-1.51 -0.39,-5.36 0.27,-8.46c0.38,-1.8 0.74,-3.51 0.77,-4.91c0.04,-1.57 -0.25,-3.39 -0.56,-5.33c-0.47,-2.99 -1.06,-6.72 0.13,-8.08c0.16,-0.18 0.64,-0.73 2.27,-0.7c3.41,0.09 7.45,1.81 10.54,4.5c3.38,2.93 5.19,6.5 5.11,10.04c-0.09,3.53 -2.07,7.01 -5.58,9.77c-3.22,2.54 -7.34,4.07 -10.75,3.99c-1.58,-0.04 -2.04,-0.62 -2.2,-0.82zm37.28,0.07c1.88,-1.21 2.99,-2.98 3.03,-4.86c0.04,-1.88 -0.97,-3.7 -2.79,-5c-1.67,-1.19 -3.89,-1.88 -6.25,-1.94c-2.35,-0.05 -4.6,0.53 -6.32,1.64c-1.89,1.21 -2.99,2.98 -3.04,4.86c-0.04,1.88 0.98,3.7 2.8,5c1.67,1.19 3.89,1.88 6.24,1.94c2.35,0.06 4.6,-0.52 6.33,-1.64zm-10.84,-2.73c-0.58,-0.42 -1.57,-1.3 -1.54,-2.5c0.03,-1.19 1.05,-2.03 1.66,-2.42c1.21,-0.78 2.91,-1.2 4.64,-1.16c1.74,0.04 3.41,0.55 4.58,1.38c0.59,0.42 1.57,1.31 1.54,2.5c-0.03,1.2 -1.05,2.03 -1.66,2.42c-1.21,0.78 -2.9,1.2 -4.64,1.16c-1.73,-0.04 -3.4,-0.54 -4.58,-1.38zm11.21,-12.52c1.88,-1.21 2.98,-2.99 3.03,-4.87c0.04,-1.87 -0.97,-3.7 -2.79,-5c-1.68,-1.19 -3.9,-1.88 -6.25,-1.94c-2.35,-0.05 -4.6,0.53 -6.33,1.64c-1.88,1.21 -2.98,2.98 -3.03,4.86c-0.04,1.88 0.98,3.7 2.8,5c1.67,1.2 3.88,1.89 6.24,1.94c2.35,0.06 4.6,-0.52 6.33,-1.63zm-10.84,-2.74c-0.59,-0.42 -1.57,-1.3 -1.54,-2.5c0.03,-1.19 1.05,-2.02 1.66,-2.42c1.21,-0.78 2.9,-1.2 4.64,-1.16c1.74,0.04 3.4,0.55 4.58,1.39c0.59,0.42 1.57,1.3 1.54,2.49c-0.03,1.2 -1.05,2.03 -1.66,2.42c-1.21,0.78 -2.9,1.21 -4.64,1.16c-1.74,-0.04 -3.41,-0.54 -4.58,-1.38zm-4.27,30.28c1.73,-0.46 3.01,-1.52 3.59,-2.97c0.47,-1.16 0.43,-2.49 -0.12,-3.74c-0.75,-1.73 -2.37,-3.16 -4.42,-3.93c-1.68,-0.64 -3.47,-0.75 -5.04,-0.33c-1.73,0.46 -3.01,1.52 -3.59,2.97c-0.21,0.5 -0.31,1.03 -0.33,1.57c-0.01,0.72 0.14,1.46 0.45,2.17c0.75,1.73 2.37,3.16 4.42,3.93l0,0c1.68,0.64 3.47,0.75 5.04,0.33zm-3.99,-3.12c-1.28,-0.49 -2.31,-1.36 -2.74,-2.34c-0.15,-0.35 -0.3,-0.89 -0.08,-1.43c0.51,-1.28 2.76,-1.73 4.8,-0.96c1.29,0.49 2.32,1.36 2.75,2.34c0.1,0.23 0.2,0.55 0.19,0.89c0,0.18 -0.04,0.36 -0.11,0.54c-0.52,1.28 -2.76,1.73 -4.81,0.96zm3.74,-36.68c2.09,-0.68 3.77,-2.03 4.61,-3.71c0.61,-1.22 0.71,-2.55 0.3,-3.74c-0.52,-1.48 -1.74,-2.59 -3.45,-3.14c-1.54,-0.49 -3.34,-0.46 -5.04,0.09l0,0c-2.1,0.67 -3.77,2.02 -4.61,3.71c-0.35,0.69 -0.53,1.43 -0.55,2.14c-0.01,0.55 0.07,1.08 0.25,1.6c0.51,1.47 1.73,2.59 3.44,3.13c1.55,0.5 3.34,0.47 5.05,-0.08zm-5.67,-4.04c-0.19,-0.54 -0.02,-1.07 0.15,-1.42c0.48,-0.96 1.54,-1.78 2.85,-2.2l0,0c2.08,-0.67 4.3,-0.11 4.76,1.19c0.19,0.54 0.02,1.07 -0.16,1.43c-0.47,0.95 -1.54,1.77 -2.85,2.19c-2.08,0.67 -4.3,0.12 -4.75,-1.19z" fill="#27a274" id="svg_56"/>
    </g>
    <g clip-path="url(#clip17_1_12)" id="svg_57" opacity="0.07">
     <path d="m10.33,272.23c4.22,-3.33 6.61,-7.61 6.71,-12.05c0.11,-4.45 -2.06,-8.84 -6.12,-12.37c-3.65,-3.17 -8.3,-5.12 -12.44,-5.22c-2.01,-0.05 -3.55,0.53 -4.59,1.71c-1.02,1.17 -1.4,2.74 -1.44,4.51c-0.05,1.87 0.29,3.96 0.61,6.01c0.29,1.8 0.55,3.49 0.52,4.79c-0.02,1.13 -0.36,2.7 -0.71,4.37c-0.82,3.9 -1.75,8.31 0.32,10.93c0.98,1.24 2.49,1.9 4.47,1.94c4.13,0.1 8.87,-1.62 12.67,-4.62zm-14.8,0.82c-1.2,-1.51 -0.38,-5.36 0.27,-8.46c0.38,-1.8 0.74,-3.51 0.77,-4.91c0.04,-1.57 -0.25,-3.39 -0.56,-5.33c-0.47,-2.99 -1.06,-6.72 0.13,-8.08c0.16,-0.18 0.64,-0.74 2.27,-0.7c3.41,0.09 7.45,1.81 10.55,4.5c3.37,2.93 5.18,6.5 5.1,10.04c-0.09,3.53 -2.07,7.01 -5.58,9.77c-3.22,2.54 -7.34,4.07 -10.75,3.99c-1.58,-0.04 -2.04,-0.62 -2.2,-0.82zm37.28,0.07c1.88,-1.21 2.98,-2.98 3.03,-4.86c0.05,-1.88 -0.97,-3.7 -2.79,-5c-1.68,-1.19 -3.89,-1.88 -6.25,-1.94c-2.35,-0.05 -4.6,0.53 -6.33,1.64c-1.88,1.21 -2.98,2.98 -3.03,4.86c-0.04,1.88 0.98,3.7 2.8,5c1.67,1.19 3.89,1.88 6.24,1.94c2.35,0.06 4.6,-0.52 6.33,-1.64zm-10.84,-2.73c-0.58,-0.42 -1.57,-1.3 -1.54,-2.5c0.03,-1.19 1.05,-2.03 1.66,-2.42c1.21,-0.78 2.91,-1.2 4.64,-1.16c1.74,0.04 3.41,0.55 4.58,1.38c0.59,0.42 1.57,1.31 1.54,2.5c-0.03,1.2 -1.05,2.03 -1.66,2.42c-1.21,0.78 -2.9,1.2 -4.64,1.16c-1.73,-0.04 -3.4,-0.54 -4.58,-1.38zm11.21,-12.52c1.88,-1.21 2.98,-2.99 3.03,-4.87c0.04,-1.87 -0.98,-3.7 -2.8,-5c-1.67,-1.19 -3.88,-1.88 -6.24,-1.94c-2.35,-0.05 -4.6,0.53 -6.33,1.64c-1.88,1.21 -2.98,2.98 -3.03,4.86c-0.04,1.88 0.97,3.7 2.8,5c1.67,1.2 3.88,1.89 6.24,1.94c2.35,0.06 4.6,-0.52 6.33,-1.63zm-10.84,-2.74c-0.59,-0.42 -1.57,-1.3 -1.54,-2.5c0.03,-1.19 1.05,-2.03 1.66,-2.42c1.21,-0.78 2.9,-1.2 4.64,-1.16c1.74,0.04 3.4,0.55 4.58,1.39c0.59,0.42 1.57,1.3 1.54,2.49c-0.03,1.2 -1.05,2.03 -1.66,2.42c-1.21,0.78 -2.9,1.21 -4.64,1.16c-1.74,-0.04 -3.41,-0.54 -4.58,-1.38zm-4.27,30.28c1.73,-0.46 3.01,-1.52 3.59,-2.97c0.47,-1.16 0.43,-2.49 -0.12,-3.74c-0.75,-1.73 -2.37,-3.16 -4.42,-3.93c-1.68,-0.64 -3.47,-0.75 -5.04,-0.33c-1.73,0.46 -3.01,1.52 -3.59,2.97c-0.21,0.5 -0.31,1.03 -0.33,1.57c-0.01,0.72 0.14,1.46 0.45,2.17c0.75,1.73 2.37,3.16 4.42,3.93l0,0c1.68,0.64 3.47,0.75 5.04,0.33zm-3.99,-3.12c-1.28,-0.49 -2.31,-1.36 -2.74,-2.34c-0.15,-0.35 -0.3,-0.89 -0.08,-1.43c0.52,-1.28 2.76,-1.73 4.8,-0.96c1.29,0.49 2.32,1.36 2.74,2.34c0.11,0.23 0.21,0.55 0.2,0.89c-0.01,0.18 -0.04,0.36 -0.11,0.54c-0.52,1.28 -2.76,1.73 -4.81,0.96zm3.74,-36.68c2.09,-0.68 3.77,-2.03 4.61,-3.71c0.61,-1.22 0.71,-2.55 0.3,-3.74c-0.52,-1.48 -1.74,-2.59 -3.45,-3.14c-1.55,-0.49 -3.34,-0.46 -5.04,0.09l-0.01,0c-2.09,0.67 -3.76,2.02 -4.6,3.71c-0.35,0.69 -0.53,1.43 -0.55,2.15c-0.01,0.54 0.07,1.07 0.25,1.59c0.51,1.47 1.74,2.59 3.44,3.13c1.55,0.5 3.34,0.47 5.05,-0.08zm-5.67,-4.04c-0.19,-0.54 -0.02,-1.07 0.15,-1.42c0.48,-0.96 1.54,-1.78 2.85,-2.2l0,0c2.08,-0.67 4.3,-0.11 4.76,1.19c0.19,0.54 0.02,1.08 -0.16,1.43c-0.47,0.95 -1.54,1.77 -2.85,2.19c-2.08,0.67 -4.3,0.12 -4.75,-1.19z" fill="#27a274" id="svg_58"/>
    </g>
   </g>
  </g>
 </g>
</svg>